<?xml version="1.0" encoding="UTF-8"?>
<!DOCTYPE xmeml>
<xmeml version="4">
	<sequence id="sequence-1" TL.SQAudioVisibleBase="0" TL.SQVideoVisibleBase="0" TL.SQVisibleBaseTime="0" TL.SQAVDividerPosition="0.420994460583" TL.SQHideShyTracks="0" TL.SQHeaderWidth="204" TL.SQDataTrackViewControlState="0" Monitor.ProgramZoomOut="4144601260797" Monitor.ProgramZoomIn="0" TL.SQTimePerPixel="1.1921740338983051" AM.TrackVScrollPosition="0" AM.TrackScrollPosition="0" MZ.EditLine="0" MZ.Sequence.PreviewFrameSizeHeight="1080" MZ.Sequence.PreviewFrameSizeWidth="1920" MZ.Sequence.AudioTimeDisplayFormat="200" MZ.Sequence.PreviewRenderingClassID="1297106761" MZ.Sequence.PreviewRenderingPresetCodec="1634755443" MZ.Sequence.PreviewRenderingPresetPath="EncoderPresets/SequencePreview/795454d9-d3c2-429d-9474-923ab13b7018/QuickTime.epr" MZ.Sequence.PreviewUseMaxRenderQuality="false" MZ.Sequence.PreviewUseMaxBitDepth="false" MZ.Sequence.EditingModeGUID="795454d9-d3c2-429d-9474-923ab13b7018" MZ.Sequence.VideoTimeDisplayFormat="103" MZ.WorkOutPoint="15239249625600" MZ.WorkInPoint="0" explodedTracks="true">
		<uuid>2b63de05-2ec8-4a11-a108-d3f36cd09425</uuid>
		<duration>52701</duration>
		<rate>
			<timebase>30</timebase>
			<ntsc>TRUE</ntsc>
		</rate>
		<name>Ep05_EnergiaAquecimento_LIMPO</name>
		<media>
			<video>
				<format>
					<samplecharacteristics>
						<rate>
							<timebase>30</timebase>
							<ntsc>TRUE</ntsc>
						</rate>
						<codec>
							<name>Apple ProRes 422</name>
							<appspecificdata>
								<appname>Final Cut Pro</appname>
								<appmanufacturer>Apple Inc.</appmanufacturer>
								<appversion>7.0</appversion>
								<data>
									<qtcodec>
										<codecname>Apple ProRes 422</codecname>
										<codectypename>Apple ProRes 422</codectypename>
										<codectypecode>apcn</codectypecode>
										<codecvendorcode>appl</codecvendorcode>
										<spatialquality>1024</spatialquality>
										<temporalquality>0</temporalquality>
										<keyframerate>0</keyframerate>
										<datarate>0</datarate>
									</qtcodec>
								</data>
							</appspecificdata>
						</codec>
						<width>1920</width>
						<height>1080</height>
						<anamorphic>FALSE</anamorphic>
						<pixelaspectratio>square</pixelaspectratio>
						<fielddominance>none</fielddominance>
						<colordepth>24</colordepth>
					</samplecharacteristics>
				</format>
				<track TL.SQTrackShy="0" TL.SQTrackExpandedHeight="65" TL.SQTrackExpanded="0" MZ.TrackTargeted="1">
					<clipitem id="clipitem-1">
						<masterclipid>masterclip-1</masterclipid>
						<name>A063_02080240_C001.mov</name>
						<enabled>TRUE</enabled>
						<duration>27420</duration>
						<rate>
							<timebase>30</timebase>
							<ntsc>TRUE</ntsc>
						</rate>
						<start>0</start>
						<end>215</end>
						<in>2233</in>
						<out>2448</out>
						<pproTicksIn>18926164857600</pproTicksIn>
						<pproTicksOut>20748433305600</pproTicksOut>
						<alphatype>none</alphatype>
						<pixelaspectratio>square</pixelaspectratio>
						<anamorphic>FALSE</anamorphic>
						<file id="file-1">
							<name>A063_02080240_C001.mov</name>
							<pathurl>file://localhost/Volumes/EDDMA_Pos01/EDDMA_01/BRUTAS/CENAS%20CAPTADAS/20250506/TRANSCODED/CAM_A/A063/A063_02080240_C001.mov</pathurl>
							<rate>
								<timebase>30</timebase>
								<ntsc>TRUE</ntsc>
							</rate>
							<duration>27420</duration>
							<timecode>
								<rate>
									<timebase>30</timebase>
									<ntsc>TRUE</ntsc>
								</rate>
								<string>08:31:48:11</string>
								<frame>921251</frame>
								<displayformat>NDF</displayformat>
							</timecode>
							<media>
								<video>
									<samplecharacteristics>
										<rate>
											<timebase>30</timebase>
											<ntsc>TRUE</ntsc>
										</rate>
										<width>1920</width>
										<height>1080</height>
										<anamorphic>FALSE</anamorphic>
										<pixelaspectratio>square</pixelaspectratio>
										<fielddominance>none</fielddominance>
									</samplecharacteristics>
								</video>
								<audio>
									<samplecharacteristics>
										<depth>16</depth>
										<samplerate>48000</samplerate>
									</samplecharacteristics>
									<channelcount>2</channelcount>
								</audio>
							</media>
						</file>
						<logginginfo>
							<description></description>
							<scene></scene>
							<shottake></shottake>
							<lognote></lognote>
							<good></good>
							<originalvideofilename></originalvideofilename>
							<originalaudiofilename></originalaudiofilename>
						</logginginfo>
						<colorinfo>
							<lut></lut>
							<lut1></lut1>
							<asc_sop></asc_sop>
							<asc_sat></asc_sat>
							<lut2></lut2>
						</colorinfo>
						<labels>
							<label2>Iris</label2>
						</labels>
					</clipitem>
					<clipitem id="clipitem-2">
						<masterclipid>masterclip-1</masterclipid>
						<name>A063_02080240_C001.mov</name>
						<enabled>TRUE</enabled>
						<duration>27420</duration>
						<rate>
							<timebase>30</timebase>
							<ntsc>TRUE</ntsc>
						</rate>
						<start>215</start>
						<end>1063</end>
						<in>2719</in>
						<out>3567</out>
						<pproTicksIn>23045339116800</pproTicksIn>
						<pproTicksOut>30232704902400</pproTicksOut>
						<alphatype>none</alphatype>
						<file id="file-1"/>
						<logginginfo>
							<description></description>
							<scene></scene>
							<shottake></shottake>
							<lognote></lognote>
							<good></good>
							<originalvideofilename></originalvideofilename>
							<originalaudiofilename></originalaudiofilename>
						</logginginfo>
						<colorinfo>
							<lut></lut>
							<lut1></lut1>
							<asc_sop></asc_sop>
							<asc_sat></asc_sat>
							<lut2></lut2>
						</colorinfo>
						<labels>
							<label2>Iris</label2>
						</labels>
					</clipitem>
					<clipitem id="clipitem-3">
						<masterclipid>masterclip-1</masterclipid>
						<name>A063_02080240_C001.mov</name>
						<enabled>TRUE</enabled>
						<duration>27420</duration>
						<rate>
							<timebase>30</timebase>
							<ntsc>TRUE</ntsc>
						</rate>
						<start>1063</start>
						<end>1472</end>
						<in>7081</in>
						<out>7490</out>
						<pproTicksIn>60016199443200</pproTicksIn>
						<pproTicksOut>63482747328000</pproTicksOut>
						<alphatype>none</alphatype>
						<file id="file-1"/>
						<logginginfo>
							<description></description>
							<scene></scene>
							<shottake></shottake>
							<lognote></lognote>
							<good></good>
							<originalvideofilename></originalvideofilename>
							<originalaudiofilename></originalaudiofilename>
						</logginginfo>
						<colorinfo>
							<lut></lut>
							<lut1></lut1>
							<asc_sop></asc_sop>
							<asc_sat></asc_sat>
							<lut2></lut2>
						</colorinfo>
						<labels>
							<label2>Iris</label2>
						</labels>
					</clipitem>
					<clipitem id="clipitem-4">
						<masterclipid>masterclip-2</masterclipid>
						<name>A071_02150357_C001.mov</name>
						<enabled>TRUE</enabled>
						<duration>68300</duration>
						<rate>
							<timebase>30</timebase>
							<ntsc>TRUE</ntsc>
						</rate>
						<start>1472</start>
						<end>2227</end>
						<in>46346</in>
						<out>47101</out>
						<pproTicksIn>392813272051200</pproTicksIn>
						<pproTicksOut>399212400787200</pproTicksOut>
						<alphatype>none</alphatype>
						<pixelaspectratio>square</pixelaspectratio>
						<anamorphic>FALSE</anamorphic>
						<file id="file-2">
							<name>A071_02150357_C001.mov</name>
							<pathurl>file://localhost/Volumes/EDDMA_Pos02/EDDMA_02/BRUTAS/CENAS%20CAPTADAS/20250513/TRANSCODED/CAM_A/A071/A071_02150357_C001.mov</pathurl>
							<rate>
								<timebase>30</timebase>
								<ntsc>TRUE</ntsc>
							</rate>
							<duration>68300</duration>
							<timecode>
								<rate>
									<timebase>30</timebase>
									<ntsc>TRUE</ntsc>
								</rate>
								<string>09:50:18:02</string>
								<frame>1062542</frame>
								<displayformat>NDF</displayformat>
							</timecode>
							<media>
								<video>
									<samplecharacteristics>
										<rate>
											<timebase>30</timebase>
											<ntsc>TRUE</ntsc>
										</rate>
										<width>1920</width>
										<height>1080</height>
										<anamorphic>FALSE</anamorphic>
										<pixelaspectratio>square</pixelaspectratio>
										<fielddominance>none</fielddominance>
									</samplecharacteristics>
								</video>
								<audio>
									<samplecharacteristics>
										<depth>16</depth>
										<samplerate>48000</samplerate>
									</samplecharacteristics>
									<channelcount>2</channelcount>
								</audio>
							</media>
						</file>
							<marker>
								<comment>Relato pessoal&#13;Atingidos&#13;Magnitude do evento&#13;Ponto de nao retorno</comment>
								<name>Enchente RS</name>
								<in>46319</in>
								<out>50043</out>
							</marker>
							<marker>
								<comment>Relato pessoal&#13;Aumento eventos climaticos&#13;Memoria&#13;Comunidade local</comment>
								<name>Enchente RS</name>
								<in>42247</in>
								<out>-1</out>
							</marker>
							<marker>
								<comment>Minas carvao&#13;Combustiveis fosseis&#13;Memoria vs Desenvolvimento&#13;Energia limpa&#13;Transiçao energetica&#13;Historia</comment>
								<name>Mineraçao</name>
								<in>53643</in>
								<out>56861</out>
							</marker>
							<marker>
								<comment>Minas carvao&#13;Combustiveis fosseis&#13;Economia&#13;</comment>
								<name>Mineraçao</name>
								<in>59890</in>
								<out>61657</out>
							</marker>
							<marker>
								<comment>Minas carvao&#13;Historia trabalhadores&#13;Exploraçao escravidao</comment>
								<name>Mineraçao</name>
								<in>15691</in>
								<out>23213</out>
							</marker>
							<marker>
								<comment>Minas carvao&#13;Historia&#13;Termeletrica&#13;Comunidades locais&#13;Colonizaçao</comment>
								<name>Mineraçao</name>
								<in>1355</in>
								<out>14263</out>
							</marker>
							<marker>
								<comment>Minas carvao&#13;Poluiçao ar&#13;Enchentes&#13;Aguas rios lençois freaticos&#13;Represa barragem&#13;Transporte ferrovias</comment>
								<name>Mineraçao</name>
								<in>33073</in>
								<out>39449</out>
							</marker>
							<marker>
								<comment>Historia&#13;Minas carvao&#13;Politicas publicas&#13;Leis trabalhistas&#13;Saude</comment>
								<name>Mineraçao</name>
								<in>23943</in>
								<out>32406</out>
							</marker>
							<marker>
								<comment>Minas carvao&#13;Historia&#13;Politicas publicas&#13;Usina do Gasometro&#13;Trabalhadores&#13;Urbanizaçao&#13;Crescimento populacional&#13;Comunidade local</comment>
								<name>Mineraçao</name>
								<in>62425</in>
								<out>67796</out>
							</marker>
						<logginginfo>
							<description></description>
							<scene></scene>
							<shottake></shottake>
							<lognote></lognote>
							<good></good>
							<originalvideofilename></originalvideofilename>
							<originalaudiofilename></originalaudiofilename>
						</logginginfo>
						<colorinfo>
							<lut></lut>
							<lut1></lut1>
							<asc_sop></asc_sop>
							<asc_sat></asc_sat>
							<lut2></lut2>
						</colorinfo>
						<labels>
							<label2>Iris</label2>
						</labels>
					</clipitem>
					<clipitem id="clipitem-5">
						<masterclipid>masterclip-2</masterclipid>
						<name>A071_02150357_C001.mov</name>
						<enabled>TRUE</enabled>
						<duration>68300</duration>
						<rate>
							<timebase>30</timebase>
							<ntsc>TRUE</ntsc>
						</rate>
						<start>2227</start>
						<end>2625</end>
						<in>43454</in>
						<out>43852</out>
						<pproTicksIn>368301642508800</pproTicksIn>
						<pproTicksOut>371674958054400</pproTicksOut>
						<alphatype>none</alphatype>
						<file id="file-2"/>
							<marker>
								<comment>Relato pessoal&#13;Atingidos&#13;Magnitude do evento&#13;Ponto de nao retorno</comment>
								<name>Enchente RS</name>
								<in>46319</in>
								<out>50043</out>
							</marker>
							<marker>
								<comment>Relato pessoal&#13;Aumento eventos climaticos&#13;Memoria&#13;Comunidade local</comment>
								<name>Enchente RS</name>
								<in>42247</in>
								<out>-1</out>
							</marker>
							<marker>
								<comment>Minas carvao&#13;Combustiveis fosseis&#13;Memoria vs Desenvolvimento&#13;Energia limpa&#13;Transiçao energetica&#13;Historia</comment>
								<name>Mineraçao</name>
								<in>53643</in>
								<out>56861</out>
							</marker>
							<marker>
								<comment>Minas carvao&#13;Combustiveis fosseis&#13;Economia&#13;</comment>
								<name>Mineraçao</name>
								<in>59890</in>
								<out>61657</out>
							</marker>
							<marker>
								<comment>Minas carvao&#13;Historia trabalhadores&#13;Exploraçao escravidao</comment>
								<name>Mineraçao</name>
								<in>15691</in>
								<out>23213</out>
							</marker>
							<marker>
								<comment>Minas carvao&#13;Historia&#13;Termeletrica&#13;Comunidades locais&#13;Colonizaçao</comment>
								<name>Mineraçao</name>
								<in>1355</in>
								<out>14263</out>
							</marker>
							<marker>
								<comment>Minas carvao&#13;Poluiçao ar&#13;Enchentes&#13;Aguas rios lençois freaticos&#13;Represa barragem&#13;Transporte ferrovias</comment>
								<name>Mineraçao</name>
								<in>33073</in>
								<out>39449</out>
							</marker>
							<marker>
								<comment>Historia&#13;Minas carvao&#13;Politicas publicas&#13;Leis trabalhistas&#13;Saude</comment>
								<name>Mineraçao</name>
								<in>23943</in>
								<out>32406</out>
							</marker>
							<marker>
								<comment>Minas carvao&#13;Historia&#13;Politicas publicas&#13;Usina do Gasometro&#13;Trabalhadores&#13;Urbanizaçao&#13;Crescimento populacional&#13;Comunidade local</comment>
								<name>Mineraçao</name>
								<in>62425</in>
								<out>67796</out>
							</marker>
						<logginginfo>
							<description></description>
							<scene></scene>
							<shottake></shottake>
							<lognote></lognote>
							<good></good>
							<originalvideofilename></originalvideofilename>
							<originalaudiofilename></originalaudiofilename>
						</logginginfo>
						<colorinfo>
							<lut></lut>
							<lut1></lut1>
							<asc_sop></asc_sop>
							<asc_sat></asc_sat>
							<lut2></lut2>
						</colorinfo>
						<labels>
							<label2>Iris</label2>
						</labels>
					</clipitem>
					<clipitem id="clipitem-6">
						<masterclipid>masterclip-3</masterclipid>
						<name>A072_02150807_C001.mov</name>
						<enabled>TRUE</enabled>
						<duration>22175</duration>
						<rate>
							<timebase>30</timebase>
							<ntsc>TRUE</ntsc>
						</rate>
						<start>2625</start>
						<end>2961</end>
						<in>3677</in>
						<out>4013</out>
						<pproTicksIn>31165028294400</pproTicksIn>
						<pproTicksOut>34012852473600</pproTicksOut>
						<alphatype>none</alphatype>
						<pixelaspectratio>square</pixelaspectratio>
						<anamorphic>FALSE</anamorphic>
						<file id="file-3">
							<name>A072_02150807_C001.mov</name>
							<pathurl>file://localhost/Volumes/EDDMA_Pos02/EDDMA_02/BRUTAS/CENAS%20CAPTADAS/20250513/TRANSCODED/CAM_A/A072/A072_02150807_C001.mov</pathurl>
							<rate>
								<timebase>30</timebase>
								<ntsc>TRUE</ntsc>
							</rate>
							<duration>22175</duration>
							<timecode>
								<rate>
									<timebase>30</timebase>
									<ntsc>TRUE</ntsc>
								</rate>
								<string>14:00:28:21</string>
								<frame>1512861</frame>
								<displayformat>NDF</displayformat>
							</timecode>
							<media>
								<video>
									<samplecharacteristics>
										<rate>
											<timebase>30</timebase>
											<ntsc>TRUE</ntsc>
										</rate>
										<width>1920</width>
										<height>1080</height>
										<anamorphic>FALSE</anamorphic>
										<pixelaspectratio>square</pixelaspectratio>
										<fielddominance>none</fielddominance>
									</samplecharacteristics>
								</video>
								<audio>
									<samplecharacteristics>
										<depth>16</depth>
										<samplerate>48000</samplerate>
									</samplecharacteristics>
									<channelcount>2</channelcount>
								</audio>
							</media>
						</file>
							<marker>
								<comment>Mina carvao</comment>
								<name>Mineraçao</name>
								<in>12500</in>
								<out>-1</out>
							</marker>
							<marker>
								<comment>Mina carvao&#13;Agro Agricultura&#13;Comunidade local&#13;Economia</comment>
								<name>Mineraçao</name>
								<in>7551</in>
								<out>8979</out>
							</marker>
							<marker>
								<comment>Mina carvao&#13;Politicas publicas&#13;Candiota&#13;Economia</comment>
								<name>Mineraçao</name>
								<in>19399</in>
								<out>20863</out>
							</marker>
							<marker>
								<comment>Mina carvao&#13;Politicas publicas</comment>
								<name>Mineraçao</name>
								<in>9429</in>
								<out>11531</out>
							</marker>
							<marker>
								<comment>Mina carvao&#13;Poluiçao&#13;Combustiveis fosseis&#13;Tecnologia</comment>
								<name>Mineraçao</name>
								<in>747</in>
								<out>4023</out>
							</marker>
							<marker>
								<comment>Mina carvao&#13;Historia&#13;Profundidade vs Ceu aberto</comment>
								<name>Mineraçao</name>
								<in>4699</in>
								<out>-1</out>
							</marker>
							<marker>
								<comment>Mina carvao&#13;Comunidade local&#13;Saude&#13;Tecnologia&#13;Politicas publicas</comment>
								<name>Mineraçao</name>
								<in>13906</in>
								<out>15739</out>
							</marker>
						<logginginfo>
							<description></description>
							<scene></scene>
							<shottake></shottake>
							<lognote></lognote>
							<good></good>
							<originalvideofilename></originalvideofilename>
							<originalaudiofilename></originalaudiofilename>
						</logginginfo>
						<colorinfo>
							<lut></lut>
							<lut1></lut1>
							<asc_sop></asc_sop>
							<asc_sat></asc_sat>
							<lut2></lut2>
						</colorinfo>
						<labels>
							<label2>Iris</label2>
						</labels>
					</clipitem>
					<clipitem id="clipitem-7">
						<masterclipid>masterclip-3</masterclipid>
						<name>A072_02150807_C001.mov</name>
						<enabled>TRUE</enabled>
						<duration>22175</duration>
						<rate>
							<timebase>30</timebase>
							<ntsc>TRUE</ntsc>
						</rate>
						<start>2961</start>
						<end>3274</end>
						<in>2021</in>
						<out>2334</out>
						<pproTicksIn>17129323411200</pproTicksIn>
						<pproTicksOut>19782207244800</pproTicksOut>
						<alphatype>none</alphatype>
						<file id="file-3"/>
							<marker>
								<comment>Mina carvao</comment>
								<name>Mineraçao</name>
								<in>12500</in>
								<out>-1</out>
							</marker>
							<marker>
								<comment>Mina carvao&#13;Agro Agricultura&#13;Comunidade local&#13;Economia</comment>
								<name>Mineraçao</name>
								<in>7551</in>
								<out>8979</out>
							</marker>
							<marker>
								<comment>Mina carvao&#13;Politicas publicas&#13;Candiota&#13;Economia</comment>
								<name>Mineraçao</name>
								<in>19399</in>
								<out>20863</out>
							</marker>
							<marker>
								<comment>Mina carvao&#13;Politicas publicas</comment>
								<name>Mineraçao</name>
								<in>9429</in>
								<out>11531</out>
							</marker>
							<marker>
								<comment>Mina carvao&#13;Poluiçao&#13;Combustiveis fosseis&#13;Tecnologia</comment>
								<name>Mineraçao</name>
								<in>747</in>
								<out>4023</out>
							</marker>
							<marker>
								<comment>Mina carvao&#13;Historia&#13;Profundidade vs Ceu aberto</comment>
								<name>Mineraçao</name>
								<in>4699</in>
								<out>-1</out>
							</marker>
							<marker>
								<comment>Mina carvao&#13;Comunidade local&#13;Saude&#13;Tecnologia&#13;Politicas publicas</comment>
								<name>Mineraçao</name>
								<in>13906</in>
								<out>15739</out>
							</marker>
						<logginginfo>
							<description></description>
							<scene></scene>
							<shottake></shottake>
							<lognote></lognote>
							<good></good>
							<originalvideofilename></originalvideofilename>
							<originalaudiofilename></originalaudiofilename>
						</logginginfo>
						<colorinfo>
							<lut></lut>
							<lut1></lut1>
							<asc_sop></asc_sop>
							<asc_sat></asc_sat>
							<lut2></lut2>
						</colorinfo>
						<labels>
							<label2>Iris</label2>
						</labels>
					</clipitem>
					<clipitem id="clipitem-8">
						<masterclipid>masterclip-2</masterclipid>
						<name>A071_02150357_C001.mov</name>
						<enabled>TRUE</enabled>
						<duration>68300</duration>
						<rate>
							<timebase>30</timebase>
							<ntsc>TRUE</ntsc>
						</rate>
						<start>3274</start>
						<end>3784</end>
						<in>15691</in>
						<out>16201</out>
						<pproTicksIn>132991694035200</pproTicksIn>
						<pproTicksOut>137314284307200</pproTicksOut>
						<alphatype>none</alphatype>
						<file id="file-2"/>
							<marker>
								<comment>Relato pessoal&#13;Atingidos&#13;Magnitude do evento&#13;Ponto de nao retorno</comment>
								<name>Enchente RS</name>
								<in>46319</in>
								<out>50043</out>
							</marker>
							<marker>
								<comment>Relato pessoal&#13;Aumento eventos climaticos&#13;Memoria&#13;Comunidade local</comment>
								<name>Enchente RS</name>
								<in>42247</in>
								<out>-1</out>
							</marker>
							<marker>
								<comment>Minas carvao&#13;Combustiveis fosseis&#13;Memoria vs Desenvolvimento&#13;Energia limpa&#13;Transiçao energetica&#13;Historia</comment>
								<name>Mineraçao</name>
								<in>53643</in>
								<out>56861</out>
							</marker>
							<marker>
								<comment>Minas carvao&#13;Combustiveis fosseis&#13;Economia&#13;</comment>
								<name>Mineraçao</name>
								<in>59890</in>
								<out>61657</out>
							</marker>
							<marker>
								<comment>Minas carvao&#13;Historia trabalhadores&#13;Exploraçao escravidao</comment>
								<name>Mineraçao</name>
								<in>15691</in>
								<out>23213</out>
							</marker>
							<marker>
								<comment>Minas carvao&#13;Historia&#13;Termeletrica&#13;Comunidades locais&#13;Colonizaçao</comment>
								<name>Mineraçao</name>
								<in>1355</in>
								<out>14263</out>
							</marker>
							<marker>
								<comment>Minas carvao&#13;Poluiçao ar&#13;Enchentes&#13;Aguas rios lençois freaticos&#13;Represa barragem&#13;Transporte ferrovias</comment>
								<name>Mineraçao</name>
								<in>33073</in>
								<out>39449</out>
							</marker>
							<marker>
								<comment>Historia&#13;Minas carvao&#13;Politicas publicas&#13;Leis trabalhistas&#13;Saude</comment>
								<name>Mineraçao</name>
								<in>23943</in>
								<out>32406</out>
							</marker>
							<marker>
								<comment>Minas carvao&#13;Historia&#13;Politicas publicas&#13;Usina do Gasometro&#13;Trabalhadores&#13;Urbanizaçao&#13;Crescimento populacional&#13;Comunidade local</comment>
								<name>Mineraçao</name>
								<in>62425</in>
								<out>67796</out>
							</marker>
						<logginginfo>
							<description></description>
							<scene></scene>
							<shottake></shottake>
							<lognote></lognote>
							<good></good>
							<originalvideofilename></originalvideofilename>
							<originalaudiofilename></originalaudiofilename>
						</logginginfo>
						<colorinfo>
							<lut></lut>
							<lut1></lut1>
							<asc_sop></asc_sop>
							<asc_sat></asc_sat>
							<lut2></lut2>
						</colorinfo>
						<labels>
							<label2>Iris</label2>
						</labels>
					</clipitem>
					<clipitem id="clipitem-9">
						<masterclipid>masterclip-2</masterclipid>
						<name>A071_02150357_C001.mov</name>
						<enabled>TRUE</enabled>
						<duration>68300</duration>
						<rate>
							<timebase>30</timebase>
							<ntsc>TRUE</ntsc>
						</rate>
						<start>3784</start>
						<end>4122</end>
						<in>17705</in>
						<out>18043</out>
						<pproTicksIn>150061687776000</pproTicksIn>
						<pproTicksOut>152926463289600</pproTicksOut>
						<alphatype>none</alphatype>
						<file id="file-2"/>
							<marker>
								<comment>Relato pessoal&#13;Atingidos&#13;Magnitude do evento&#13;Ponto de nao retorno</comment>
								<name>Enchente RS</name>
								<in>46319</in>
								<out>50043</out>
							</marker>
							<marker>
								<comment>Relato pessoal&#13;Aumento eventos climaticos&#13;Memoria&#13;Comunidade local</comment>
								<name>Enchente RS</name>
								<in>42247</in>
								<out>-1</out>
							</marker>
							<marker>
								<comment>Minas carvao&#13;Combustiveis fosseis&#13;Memoria vs Desenvolvimento&#13;Energia limpa&#13;Transiçao energetica&#13;Historia</comment>
								<name>Mineraçao</name>
								<in>53643</in>
								<out>56861</out>
							</marker>
							<marker>
								<comment>Minas carvao&#13;Combustiveis fosseis&#13;Economia&#13;</comment>
								<name>Mineraçao</name>
								<in>59890</in>
								<out>61657</out>
							</marker>
							<marker>
								<comment>Minas carvao&#13;Historia trabalhadores&#13;Exploraçao escravidao</comment>
								<name>Mineraçao</name>
								<in>15691</in>
								<out>23213</out>
							</marker>
							<marker>
								<comment>Minas carvao&#13;Historia&#13;Termeletrica&#13;Comunidades locais&#13;Colonizaçao</comment>
								<name>Mineraçao</name>
								<in>1355</in>
								<out>14263</out>
							</marker>
							<marker>
								<comment>Minas carvao&#13;Poluiçao ar&#13;Enchentes&#13;Aguas rios lençois freaticos&#13;Represa barragem&#13;Transporte ferrovias</comment>
								<name>Mineraçao</name>
								<in>33073</in>
								<out>39449</out>
							</marker>
							<marker>
								<comment>Historia&#13;Minas carvao&#13;Politicas publicas&#13;Leis trabalhistas&#13;Saude</comment>
								<name>Mineraçao</name>
								<in>23943</in>
								<out>32406</out>
							</marker>
							<marker>
								<comment>Minas carvao&#13;Historia&#13;Politicas publicas&#13;Usina do Gasometro&#13;Trabalhadores&#13;Urbanizaçao&#13;Crescimento populacional&#13;Comunidade local</comment>
								<name>Mineraçao</name>
								<in>62425</in>
								<out>67796</out>
							</marker>
						<logginginfo>
							<description></description>
							<scene></scene>
							<shottake></shottake>
							<lognote></lognote>
							<good></good>
							<originalvideofilename></originalvideofilename>
							<originalaudiofilename></originalaudiofilename>
						</logginginfo>
						<colorinfo>
							<lut></lut>
							<lut1></lut1>
							<asc_sop></asc_sop>
							<asc_sat></asc_sat>
							<lut2></lut2>
						</colorinfo>
						<labels>
							<label2>Iris</label2>
						</labels>
					</clipitem>
					<clipitem id="clipitem-10">
						<masterclipid>masterclip-2</masterclipid>
						<name>A071_02150357_C001.mov</name>
						<enabled>TRUE</enabled>
						<duration>68300</duration>
						<rate>
							<timebase>30</timebase>
							<ntsc>TRUE</ntsc>
						</rate>
						<start>4122</start>
						<end>4222</end>
						<in>62425</in>
						<out>62525</out>
						<pproTicksIn>529093524960000</pproTicksIn>
						<pproTicksOut>529941091680000</pproTicksOut>
						<alphatype>none</alphatype>
						<file id="file-2"/>
							<marker>
								<comment>Relato pessoal&#13;Atingidos&#13;Magnitude do evento&#13;Ponto de nao retorno</comment>
								<name>Enchente RS</name>
								<in>46319</in>
								<out>50043</out>
							</marker>
							<marker>
								<comment>Relato pessoal&#13;Aumento eventos climaticos&#13;Memoria&#13;Comunidade local</comment>
								<name>Enchente RS</name>
								<in>42247</in>
								<out>-1</out>
							</marker>
							<marker>
								<comment>Minas carvao&#13;Combustiveis fosseis&#13;Memoria vs Desenvolvimento&#13;Energia limpa&#13;Transiçao energetica&#13;Historia</comment>
								<name>Mineraçao</name>
								<in>53643</in>
								<out>56861</out>
							</marker>
							<marker>
								<comment>Minas carvao&#13;Combustiveis fosseis&#13;Economia&#13;</comment>
								<name>Mineraçao</name>
								<in>59890</in>
								<out>61657</out>
							</marker>
							<marker>
								<comment>Minas carvao&#13;Historia trabalhadores&#13;Exploraçao escravidao</comment>
								<name>Mineraçao</name>
								<in>15691</in>
								<out>23213</out>
							</marker>
							<marker>
								<comment>Minas carvao&#13;Historia&#13;Termeletrica&#13;Comunidades locais&#13;Colonizaçao</comment>
								<name>Mineraçao</name>
								<in>1355</in>
								<out>14263</out>
							</marker>
							<marker>
								<comment>Minas carvao&#13;Poluiçao ar&#13;Enchentes&#13;Aguas rios lençois freaticos&#13;Represa barragem&#13;Transporte ferrovias</comment>
								<name>Mineraçao</name>
								<in>33073</in>
								<out>39449</out>
							</marker>
							<marker>
								<comment>Historia&#13;Minas carvao&#13;Politicas publicas&#13;Leis trabalhistas&#13;Saude</comment>
								<name>Mineraçao</name>
								<in>23943</in>
								<out>32406</out>
							</marker>
							<marker>
								<comment>Minas carvao&#13;Historia&#13;Politicas publicas&#13;Usina do Gasometro&#13;Trabalhadores&#13;Urbanizaçao&#13;Crescimento populacional&#13;Comunidade local</comment>
								<name>Mineraçao</name>
								<in>62425</in>
								<out>67796</out>
							</marker>
						<logginginfo>
							<description></description>
							<scene></scene>
							<shottake></shottake>
							<lognote></lognote>
							<good></good>
							<originalvideofilename></originalvideofilename>
							<originalaudiofilename></originalaudiofilename>
						</logginginfo>
						<colorinfo>
							<lut></lut>
							<lut1></lut1>
							<asc_sop></asc_sop>
							<asc_sat></asc_sat>
							<lut2></lut2>
						</colorinfo>
						<labels>
							<label2>Iris</label2>
						</labels>
					</clipitem>
					<clipitem id="clipitem-11">
						<masterclipid>masterclip-2</masterclipid>
						<name>A071_02150357_C001.mov</name>
						<enabled>TRUE</enabled>
						<duration>68300</duration>
						<rate>
							<timebase>30</timebase>
							<ntsc>TRUE</ntsc>
						</rate>
						<start>4222</start>
						<end>4386</end>
						<in>65520</in>
						<out>65684</out>
						<pproTicksIn>555325714944000</pproTicksIn>
						<pproTicksOut>556715724364800</pproTicksOut>
						<alphatype>none</alphatype>
						<file id="file-2"/>
							<marker>
								<comment>Relato pessoal&#13;Atingidos&#13;Magnitude do evento&#13;Ponto de nao retorno</comment>
								<name>Enchente RS</name>
								<in>46319</in>
								<out>50043</out>
							</marker>
							<marker>
								<comment>Relato pessoal&#13;Aumento eventos climaticos&#13;Memoria&#13;Comunidade local</comment>
								<name>Enchente RS</name>
								<in>42247</in>
								<out>-1</out>
							</marker>
							<marker>
								<comment>Minas carvao&#13;Combustiveis fosseis&#13;Memoria vs Desenvolvimento&#13;Energia limpa&#13;Transiçao energetica&#13;Historia</comment>
								<name>Mineraçao</name>
								<in>53643</in>
								<out>56861</out>
							</marker>
							<marker>
								<comment>Minas carvao&#13;Combustiveis fosseis&#13;Economia&#13;</comment>
								<name>Mineraçao</name>
								<in>59890</in>
								<out>61657</out>
							</marker>
							<marker>
								<comment>Minas carvao&#13;Historia trabalhadores&#13;Exploraçao escravidao</comment>
								<name>Mineraçao</name>
								<in>15691</in>
								<out>23213</out>
							</marker>
							<marker>
								<comment>Minas carvao&#13;Historia&#13;Termeletrica&#13;Comunidades locais&#13;Colonizaçao</comment>
								<name>Mineraçao</name>
								<in>1355</in>
								<out>14263</out>
							</marker>
							<marker>
								<comment>Minas carvao&#13;Poluiçao ar&#13;Enchentes&#13;Aguas rios lençois freaticos&#13;Represa barragem&#13;Transporte ferrovias</comment>
								<name>Mineraçao</name>
								<in>33073</in>
								<out>39449</out>
							</marker>
							<marker>
								<comment>Historia&#13;Minas carvao&#13;Politicas publicas&#13;Leis trabalhistas&#13;Saude</comment>
								<name>Mineraçao</name>
								<in>23943</in>
								<out>32406</out>
							</marker>
							<marker>
								<comment>Minas carvao&#13;Historia&#13;Politicas publicas&#13;Usina do Gasometro&#13;Trabalhadores&#13;Urbanizaçao&#13;Crescimento populacional&#13;Comunidade local</comment>
								<name>Mineraçao</name>
								<in>62425</in>
								<out>67796</out>
							</marker>
						<logginginfo>
							<description></description>
							<scene></scene>
							<shottake></shottake>
							<lognote></lognote>
							<good></good>
							<originalvideofilename></originalvideofilename>
							<originalaudiofilename></originalaudiofilename>
						</logginginfo>
						<colorinfo>
							<lut></lut>
							<lut1></lut1>
							<asc_sop></asc_sop>
							<asc_sat></asc_sat>
							<lut2></lut2>
						</colorinfo>
						<labels>
							<label2>Iris</label2>
						</labels>
					</clipitem>
					<clipitem id="clipitem-12">
						<masterclipid>masterclip-2</masterclipid>
						<name>A071_02150357_C001.mov</name>
						<enabled>TRUE</enabled>
						<duration>68300</duration>
						<rate>
							<timebase>30</timebase>
							<ntsc>TRUE</ntsc>
						</rate>
						<start>4386</start>
						<end>4807</end>
						<in>27589</in>
						<out>28010</out>
						<pproTicksIn>233835182380800</pproTicksIn>
						<pproTicksOut>237403438272000</pproTicksOut>
						<alphatype>none</alphatype>
						<file id="file-2"/>
							<marker>
								<comment>Relato pessoal&#13;Atingidos&#13;Magnitude do evento&#13;Ponto de nao retorno</comment>
								<name>Enchente RS</name>
								<in>46319</in>
								<out>50043</out>
							</marker>
							<marker>
								<comment>Relato pessoal&#13;Aumento eventos climaticos&#13;Memoria&#13;Comunidade local</comment>
								<name>Enchente RS</name>
								<in>42247</in>
								<out>-1</out>
							</marker>
							<marker>
								<comment>Minas carvao&#13;Combustiveis fosseis&#13;Memoria vs Desenvolvimento&#13;Energia limpa&#13;Transiçao energetica&#13;Historia</comment>
								<name>Mineraçao</name>
								<in>53643</in>
								<out>56861</out>
							</marker>
							<marker>
								<comment>Minas carvao&#13;Combustiveis fosseis&#13;Economia&#13;</comment>
								<name>Mineraçao</name>
								<in>59890</in>
								<out>61657</out>
							</marker>
							<marker>
								<comment>Minas carvao&#13;Historia trabalhadores&#13;Exploraçao escravidao</comment>
								<name>Mineraçao</name>
								<in>15691</in>
								<out>23213</out>
							</marker>
							<marker>
								<comment>Minas carvao&#13;Historia&#13;Termeletrica&#13;Comunidades locais&#13;Colonizaçao</comment>
								<name>Mineraçao</name>
								<in>1355</in>
								<out>14263</out>
							</marker>
							<marker>
								<comment>Minas carvao&#13;Poluiçao ar&#13;Enchentes&#13;Aguas rios lençois freaticos&#13;Represa barragem&#13;Transporte ferrovias</comment>
								<name>Mineraçao</name>
								<in>33073</in>
								<out>39449</out>
							</marker>
							<marker>
								<comment>Historia&#13;Minas carvao&#13;Politicas publicas&#13;Leis trabalhistas&#13;Saude</comment>
								<name>Mineraçao</name>
								<in>23943</in>
								<out>32406</out>
							</marker>
							<marker>
								<comment>Minas carvao&#13;Historia&#13;Politicas publicas&#13;Usina do Gasometro&#13;Trabalhadores&#13;Urbanizaçao&#13;Crescimento populacional&#13;Comunidade local</comment>
								<name>Mineraçao</name>
								<in>62425</in>
								<out>67796</out>
							</marker>
						<logginginfo>
							<description></description>
							<scene></scene>
							<shottake></shottake>
							<lognote></lognote>
							<good></good>
							<originalvideofilename></originalvideofilename>
							<originalaudiofilename></originalaudiofilename>
						</logginginfo>
						<colorinfo>
							<lut></lut>
							<lut1></lut1>
							<asc_sop></asc_sop>
							<asc_sat></asc_sat>
							<lut2></lut2>
						</colorinfo>
						<labels>
							<label2>Iris</label2>
						</labels>
					</clipitem>
					<clipitem id="clipitem-13">
						<masterclipid>masterclip-2</masterclipid>
						<name>A071_02150357_C001.mov</name>
						<enabled>TRUE</enabled>
						<duration>68300</duration>
						<rate>
							<timebase>30</timebase>
							<ntsc>TRUE</ntsc>
						</rate>
						<start>4807</start>
						<end>4982</end>
						<in>28150</in>
						<out>28325</out>
						<pproTicksIn>238590031680000</pproTicksIn>
						<pproTicksOut>240073273440000</pproTicksOut>
						<alphatype>none</alphatype>
						<file id="file-2"/>
							<marker>
								<comment>Relato pessoal&#13;Atingidos&#13;Magnitude do evento&#13;Ponto de nao retorno</comment>
								<name>Enchente RS</name>
								<in>46319</in>
								<out>50043</out>
							</marker>
							<marker>
								<comment>Relato pessoal&#13;Aumento eventos climaticos&#13;Memoria&#13;Comunidade local</comment>
								<name>Enchente RS</name>
								<in>42247</in>
								<out>-1</out>
							</marker>
							<marker>
								<comment>Minas carvao&#13;Combustiveis fosseis&#13;Memoria vs Desenvolvimento&#13;Energia limpa&#13;Transiçao energetica&#13;Historia</comment>
								<name>Mineraçao</name>
								<in>53643</in>
								<out>56861</out>
							</marker>
							<marker>
								<comment>Minas carvao&#13;Combustiveis fosseis&#13;Economia&#13;</comment>
								<name>Mineraçao</name>
								<in>59890</in>
								<out>61657</out>
							</marker>
							<marker>
								<comment>Minas carvao&#13;Historia trabalhadores&#13;Exploraçao escravidao</comment>
								<name>Mineraçao</name>
								<in>15691</in>
								<out>23213</out>
							</marker>
							<marker>
								<comment>Minas carvao&#13;Historia&#13;Termeletrica&#13;Comunidades locais&#13;Colonizaçao</comment>
								<name>Mineraçao</name>
								<in>1355</in>
								<out>14263</out>
							</marker>
							<marker>
								<comment>Minas carvao&#13;Poluiçao ar&#13;Enchentes&#13;Aguas rios lençois freaticos&#13;Represa barragem&#13;Transporte ferrovias</comment>
								<name>Mineraçao</name>
								<in>33073</in>
								<out>39449</out>
							</marker>
							<marker>
								<comment>Historia&#13;Minas carvao&#13;Politicas publicas&#13;Leis trabalhistas&#13;Saude</comment>
								<name>Mineraçao</name>
								<in>23943</in>
								<out>32406</out>
							</marker>
							<marker>
								<comment>Minas carvao&#13;Historia&#13;Politicas publicas&#13;Usina do Gasometro&#13;Trabalhadores&#13;Urbanizaçao&#13;Crescimento populacional&#13;Comunidade local</comment>
								<name>Mineraçao</name>
								<in>62425</in>
								<out>67796</out>
							</marker>
						<logginginfo>
							<description></description>
							<scene></scene>
							<shottake></shottake>
							<lognote></lognote>
							<good></good>
							<originalvideofilename></originalvideofilename>
							<originalaudiofilename></originalaudiofilename>
						</logginginfo>
						<colorinfo>
							<lut></lut>
							<lut1></lut1>
							<asc_sop></asc_sop>
							<asc_sat></asc_sat>
							<lut2></lut2>
						</colorinfo>
						<labels>
							<label2>Iris</label2>
						</labels>
					</clipitem>
					<clipitem id="clipitem-14">
						<masterclipid>masterclip-2</masterclipid>
						<name>A071_02150357_C001.mov</name>
						<enabled>TRUE</enabled>
						<duration>68300</duration>
						<rate>
							<timebase>30</timebase>
							<ntsc>TRUE</ntsc>
						</rate>
						<start>4982</start>
						<end>5346</end>
						<in>28650</in>
						<out>29014</out>
						<pproTicksIn>242827865280000</pproTicksIn>
						<pproTicksOut>245913008140800</pproTicksOut>
						<alphatype>none</alphatype>
						<file id="file-2"/>
							<marker>
								<comment>Relato pessoal&#13;Atingidos&#13;Magnitude do evento&#13;Ponto de nao retorno</comment>
								<name>Enchente RS</name>
								<in>46319</in>
								<out>50043</out>
							</marker>
							<marker>
								<comment>Relato pessoal&#13;Aumento eventos climaticos&#13;Memoria&#13;Comunidade local</comment>
								<name>Enchente RS</name>
								<in>42247</in>
								<out>-1</out>
							</marker>
							<marker>
								<comment>Minas carvao&#13;Combustiveis fosseis&#13;Memoria vs Desenvolvimento&#13;Energia limpa&#13;Transiçao energetica&#13;Historia</comment>
								<name>Mineraçao</name>
								<in>53643</in>
								<out>56861</out>
							</marker>
							<marker>
								<comment>Minas carvao&#13;Combustiveis fosseis&#13;Economia&#13;</comment>
								<name>Mineraçao</name>
								<in>59890</in>
								<out>61657</out>
							</marker>
							<marker>
								<comment>Minas carvao&#13;Historia trabalhadores&#13;Exploraçao escravidao</comment>
								<name>Mineraçao</name>
								<in>15691</in>
								<out>23213</out>
							</marker>
							<marker>
								<comment>Minas carvao&#13;Historia&#13;Termeletrica&#13;Comunidades locais&#13;Colonizaçao</comment>
								<name>Mineraçao</name>
								<in>1355</in>
								<out>14263</out>
							</marker>
							<marker>
								<comment>Minas carvao&#13;Poluiçao ar&#13;Enchentes&#13;Aguas rios lençois freaticos&#13;Represa barragem&#13;Transporte ferrovias</comment>
								<name>Mineraçao</name>
								<in>33073</in>
								<out>39449</out>
							</marker>
							<marker>
								<comment>Historia&#13;Minas carvao&#13;Politicas publicas&#13;Leis trabalhistas&#13;Saude</comment>
								<name>Mineraçao</name>
								<in>23943</in>
								<out>32406</out>
							</marker>
							<marker>
								<comment>Minas carvao&#13;Historia&#13;Politicas publicas&#13;Usina do Gasometro&#13;Trabalhadores&#13;Urbanizaçao&#13;Crescimento populacional&#13;Comunidade local</comment>
								<name>Mineraçao</name>
								<in>62425</in>
								<out>67796</out>
							</marker>
						<logginginfo>
							<description></description>
							<scene></scene>
							<shottake></shottake>
							<lognote></lognote>
							<good></good>
							<originalvideofilename></originalvideofilename>
							<originalaudiofilename></originalaudiofilename>
						</logginginfo>
						<colorinfo>
							<lut></lut>
							<lut1></lut1>
							<asc_sop></asc_sop>
							<asc_sat></asc_sat>
							<lut2></lut2>
						</colorinfo>
						<labels>
							<label2>Iris</label2>
						</labels>
					</clipitem>
					<clipitem id="clipitem-15">
						<masterclipid>masterclip-3</masterclipid>
						<name>A072_02150807_C001.mov</name>
						<enabled>TRUE</enabled>
						<duration>22175</duration>
						<rate>
							<timebase>30</timebase>
							<ntsc>TRUE</ntsc>
						</rate>
						<start>5346</start>
						<end>5689</end>
						<in>4777</in>
						<out>5120</out>
						<pproTicksIn>40488262214400</pproTicksIn>
						<pproTicksOut>43395416064000</pproTicksOut>
						<alphatype>none</alphatype>
						<file id="file-3"/>
							<marker>
								<comment>Mina carvao</comment>
								<name>Mineraçao</name>
								<in>12500</in>
								<out>-1</out>
							</marker>
							<marker>
								<comment>Mina carvao&#13;Agro Agricultura&#13;Comunidade local&#13;Economia</comment>
								<name>Mineraçao</name>
								<in>7551</in>
								<out>8979</out>
							</marker>
							<marker>
								<comment>Mina carvao&#13;Politicas publicas&#13;Candiota&#13;Economia</comment>
								<name>Mineraçao</name>
								<in>19399</in>
								<out>20863</out>
							</marker>
							<marker>
								<comment>Mina carvao&#13;Politicas publicas</comment>
								<name>Mineraçao</name>
								<in>9429</in>
								<out>11531</out>
							</marker>
							<marker>
								<comment>Mina carvao&#13;Poluiçao&#13;Combustiveis fosseis&#13;Tecnologia</comment>
								<name>Mineraçao</name>
								<in>747</in>
								<out>4023</out>
							</marker>
							<marker>
								<comment>Mina carvao&#13;Historia&#13;Profundidade vs Ceu aberto</comment>
								<name>Mineraçao</name>
								<in>4699</in>
								<out>-1</out>
							</marker>
							<marker>
								<comment>Mina carvao&#13;Comunidade local&#13;Saude&#13;Tecnologia&#13;Politicas publicas</comment>
								<name>Mineraçao</name>
								<in>13906</in>
								<out>15739</out>
							</marker>
						<logginginfo>
							<description></description>
							<scene></scene>
							<shottake></shottake>
							<lognote></lognote>
							<good></good>
							<originalvideofilename></originalvideofilename>
							<originalaudiofilename></originalaudiofilename>
						</logginginfo>
						<colorinfo>
							<lut></lut>
							<lut1></lut1>
							<asc_sop></asc_sop>
							<asc_sat></asc_sat>
							<lut2></lut2>
						</colorinfo>
						<labels>
							<label2>Iris</label2>
						</labels>
					</clipitem>
					<clipitem id="clipitem-16">
						<masterclipid>masterclip-3</masterclipid>
						<name>A072_02150807_C001.mov</name>
						<enabled>TRUE</enabled>
						<duration>22175</duration>
						<rate>
							<timebase>30</timebase>
							<ntsc>TRUE</ntsc>
						</rate>
						<start>5689</start>
						<end>5866</end>
						<in>8123</in>
						<out>8300</out>
						<pproTicksIn>68847844665600</pproTicksIn>
						<pproTicksOut>70348037760000</pproTicksOut>
						<alphatype>none</alphatype>
						<file id="file-3"/>
							<marker>
								<comment>Mina carvao</comment>
								<name>Mineraçao</name>
								<in>12500</in>
								<out>-1</out>
							</marker>
							<marker>
								<comment>Mina carvao&#13;Agro Agricultura&#13;Comunidade local&#13;Economia</comment>
								<name>Mineraçao</name>
								<in>7551</in>
								<out>8979</out>
							</marker>
							<marker>
								<comment>Mina carvao&#13;Politicas publicas&#13;Candiota&#13;Economia</comment>
								<name>Mineraçao</name>
								<in>19399</in>
								<out>20863</out>
							</marker>
							<marker>
								<comment>Mina carvao&#13;Politicas publicas</comment>
								<name>Mineraçao</name>
								<in>9429</in>
								<out>11531</out>
							</marker>
							<marker>
								<comment>Mina carvao&#13;Poluiçao&#13;Combustiveis fosseis&#13;Tecnologia</comment>
								<name>Mineraçao</name>
								<in>747</in>
								<out>4023</out>
							</marker>
							<marker>
								<comment>Mina carvao&#13;Historia&#13;Profundidade vs Ceu aberto</comment>
								<name>Mineraçao</name>
								<in>4699</in>
								<out>-1</out>
							</marker>
							<marker>
								<comment>Mina carvao&#13;Comunidade local&#13;Saude&#13;Tecnologia&#13;Politicas publicas</comment>
								<name>Mineraçao</name>
								<in>13906</in>
								<out>15739</out>
							</marker>
						<logginginfo>
							<description></description>
							<scene></scene>
							<shottake></shottake>
							<lognote></lognote>
							<good></good>
							<originalvideofilename></originalvideofilename>
							<originalaudiofilename></originalaudiofilename>
						</logginginfo>
						<colorinfo>
							<lut></lut>
							<lut1></lut1>
							<asc_sop></asc_sop>
							<asc_sat></asc_sat>
							<lut2></lut2>
						</colorinfo>
						<labels>
							<label2>Iris</label2>
						</labels>
					</clipitem>
					<clipitem id="clipitem-17">
						<masterclipid>masterclip-2</masterclipid>
						<name>A071_02150357_C001.mov</name>
						<enabled>TRUE</enabled>
						<duration>68300</duration>
						<rate>
							<timebase>30</timebase>
							<ntsc>TRUE</ntsc>
						</rate>
						<start>5866</start>
						<end>6415</end>
						<in>54457</in>
						<out>55006</out>
						<pproTicksIn>461559408710400</pproTicksIn>
						<pproTicksOut>466212550003200</pproTicksOut>
						<alphatype>none</alphatype>
						<file id="file-2"/>
							<marker>
								<comment>Relato pessoal&#13;Atingidos&#13;Magnitude do evento&#13;Ponto de nao retorno</comment>
								<name>Enchente RS</name>
								<in>46319</in>
								<out>50043</out>
							</marker>
							<marker>
								<comment>Relato pessoal&#13;Aumento eventos climaticos&#13;Memoria&#13;Comunidade local</comment>
								<name>Enchente RS</name>
								<in>42247</in>
								<out>-1</out>
							</marker>
							<marker>
								<comment>Minas carvao&#13;Combustiveis fosseis&#13;Memoria vs Desenvolvimento&#13;Energia limpa&#13;Transiçao energetica&#13;Historia</comment>
								<name>Mineraçao</name>
								<in>53643</in>
								<out>56861</out>
							</marker>
							<marker>
								<comment>Minas carvao&#13;Combustiveis fosseis&#13;Economia&#13;</comment>
								<name>Mineraçao</name>
								<in>59890</in>
								<out>61657</out>
							</marker>
							<marker>
								<comment>Minas carvao&#13;Historia trabalhadores&#13;Exploraçao escravidao</comment>
								<name>Mineraçao</name>
								<in>15691</in>
								<out>23213</out>
							</marker>
							<marker>
								<comment>Minas carvao&#13;Historia&#13;Termeletrica&#13;Comunidades locais&#13;Colonizaçao</comment>
								<name>Mineraçao</name>
								<in>1355</in>
								<out>14263</out>
							</marker>
							<marker>
								<comment>Minas carvao&#13;Poluiçao ar&#13;Enchentes&#13;Aguas rios lençois freaticos&#13;Represa barragem&#13;Transporte ferrovias</comment>
								<name>Mineraçao</name>
								<in>33073</in>
								<out>39449</out>
							</marker>
							<marker>
								<comment>Historia&#13;Minas carvao&#13;Politicas publicas&#13;Leis trabalhistas&#13;Saude</comment>
								<name>Mineraçao</name>
								<in>23943</in>
								<out>32406</out>
							</marker>
							<marker>
								<comment>Minas carvao&#13;Historia&#13;Politicas publicas&#13;Usina do Gasometro&#13;Trabalhadores&#13;Urbanizaçao&#13;Crescimento populacional&#13;Comunidade local</comment>
								<name>Mineraçao</name>
								<in>62425</in>
								<out>67796</out>
							</marker>
						<logginginfo>
							<description></description>
							<scene></scene>
							<shottake></shottake>
							<lognote></lognote>
							<good></good>
							<originalvideofilename></originalvideofilename>
							<originalaudiofilename></originalaudiofilename>
						</logginginfo>
						<colorinfo>
							<lut></lut>
							<lut1></lut1>
							<asc_sop></asc_sop>
							<asc_sat></asc_sat>
							<lut2></lut2>
						</colorinfo>
						<labels>
							<label2>Iris</label2>
						</labels>
					</clipitem>
					<clipitem id="clipitem-18">
						<masterclipid>masterclip-4</masterclipid>
						<name>A076_02171014_C018.mov</name>
						<enabled>TRUE</enabled>
						<duration>84290</duration>
						<rate>
							<timebase>30</timebase>
							<ntsc>TRUE</ntsc>
						</rate>
						<start>6415</start>
						<end>7038</end>
						<in>5879</in>
						<out>6502</out>
						<pproTicksIn>49828447468800</pproTicksIn>
						<pproTicksOut>55108788134400</pproTicksOut>
						<alphatype>none</alphatype>
						<pixelaspectratio>square</pixelaspectratio>
						<anamorphic>FALSE</anamorphic>
						<file id="file-4">
							<name>A076_02171014_C018.mov</name>
							<pathurl>file://localhost/Volumes/EDDMA_Pos02/EDDMA_02/BRUTAS/CENAS%20CAPTADAS/20250515_02de02/TRANSCODED/CAM_A/A076/A076_02171014_C018.mov</pathurl>
							<rate>
								<timebase>30</timebase>
								<ntsc>TRUE</ntsc>
							</rate>
							<duration>84290</duration>
							<timecode>
								<rate>
									<timebase>30</timebase>
									<ntsc>TRUE</ntsc>
								</rate>
								<string>16:07:38:16</string>
								<frame>1741756</frame>
								<displayformat>NDF</displayformat>
							</timecode>
							<media>
								<video>
									<samplecharacteristics>
										<rate>
											<timebase>30</timebase>
											<ntsc>TRUE</ntsc>
										</rate>
										<width>1920</width>
										<height>1080</height>
										<anamorphic>FALSE</anamorphic>
										<pixelaspectratio>square</pixelaspectratio>
										<fielddominance>none</fielddominance>
									</samplecharacteristics>
								</video>
								<audio>
									<samplecharacteristics>
										<depth>16</depth>
										<samplerate>48000</samplerate>
									</samplecharacteristics>
									<channelcount>2</channelcount>
								</audio>
							</media>
						</file>
							<marker>
								<comment>Mudanças climaticas&#13;Fontes renovaveis&#13;Tecnologia</comment>
								<name>Transiçao energetica&#13;</name>
								<in>41104</in>
								<out>43931</out>
							</marker>
							<marker>
								<comment>COP&#13;Futuro&#13;Energia eolica&#13;Carvao&#13;Emissao de carbono&#13;Poluiçao&#13;Combustiveis fosseis vs fontes renovaveis&#13;Petroleo&#13;Mobilidade transporte</comment>
								<name>Acordos internacionais</name>
								<in>14788</in>
								<out>20458</out>
							</marker>
							<marker>
								<comment>Investimentos&#13;Combustiveis fosseis&#13;Fontes renovaveis&#13;Eolica solar hidreletrica&#13;Segurança energetica&#13;Tecnologias&#13;Hidrogenio verde&#13;Desigualdade&#13;Saude</comment>
								<name>Energia</name>
								<in>9128</in>
								<out>13946</out>
							</marker>
							<marker>
								<comment>Petroleo&#13;Combustiveis fosseis&#13;Fontes renovaveis&#13;Energia limpa&#13;Transporte mobilidade&#13;Etanol Alcool&#13;Politicas publicas&#13;Plasticos</comment>
								<name>Energia</name>
								<in>32741</in>
								<out>34426</out>
							</marker>
							<marker>
								<comment>Fontes renovaveis&#13;Energia limpa&#13;Tecnologias&#13;Politicas publicas&#13;Economia&#13;Combustiveis fosseis</comment>
								<name>Energia</name>
								<in>72795</in>
								<out>75492</out>
							</marker>
							<marker>
								<comment>Energia eolica&#13;Licenciamento ambiental</comment>
								<name>Energia</name>
								<in>54647</in>
								<out>55838</out>
							</marker>
							<marker>
								<comment>Exemplo Uruguai&#13;Energia limpa eolica</comment>
								<name>Energia</name>
								<in>53289</in>
								<out>54406</out>
							</marker>
							<marker>
								<comment>Energia eolica&#13;Energia limpa&#13;Urbanizaçao&#13;Crescimento populacional&#13;Oceanos&#13;Energia Solar&#13;Nordeste</comment>
								<name>Energia</name>
								<in>46401</in>
								<out>53161</out>
							</marker>
							<marker>
								<comment>Fontes renovaveis&#13;Alcool biomassa&#13;Arroz&#13;Economia</comment>
								<name>Energia</name>
								<in>78607</in>
								<out>82155</out>
							</marker>
							<marker>
								<comment>Impacto ser humano&#13;Aquecimento global&#13;Enchentes secas&#13;Mudanças climaticas&#13;Aumento Intensificaçao eventos climaticos&#13;Efeito estufa&#13;Combustiveis fosseis&#13;Petroleo gas natural carvao nuclear&#13;Matriz energetica Brasil&#13;Hidreletrica eolica solar biomassa&#13;Energia limpa&#13;Fontes renovaveis</comment>
								<name>Energia</name>
								<in>2189</in>
								<out>8597</out>
							</marker>
							<marker>
								<comment>Petroleo&#13;Combustiveis fosseis&#13;Fontes renovaveis&#13;Energia limpa&#13;Transporte mobilidade&#13;Etanol Alcool&#13;Politicas publicas&#13;Plasticos</comment>
								<name>Energia</name>
								<in>22169</in>
								<out>29818</out>
							</marker>
							<marker>
								<comment>Combustiveis fosseis&#13;Comparaçao alcool gasolina petroleo&#13;Economia&#13;Politicas publicas&#13;Tecnologias&#13;Acordos internacionais COP</comment>
								<name>Energia</name>
								<in>34883</in>
								<out>40571</out>
							</marker>
							<marker>
								<comment>Tucurui Itaipu&#13;Fontes renovaveis&#13;Barragens&#13;Aguas rios&#13;Mudanças climaticas&#13;Poluiçao&#13;Cita Belo Monte&#13;CGH PCH</comment>
								<name>Hidreletricas</name>
								<in>64615</in>
								<out>69866</out>
							</marker>
							<marker>
								<comment>Ciclo de Vida&#13;Energia solar&#13;Lixo residuos&#13;Politicas publicas</comment>
								<name>Reciclagem</name>
								<in>57506</in>
								<out>63652</out>
							</marker>
							<marker>
								<comment>Fontes renovaveis vs combustiveis fosseis&#13;Transiçao energetica</comment>
								<name>Energia</name>
								<in>30992</in>
								<out>32590</out>
							</marker>
							<marker>
								<comment>Transiçao energetica&#13;Combustiveis fosseis</comment>
								<name>Futuro</name>
								<in>82259</in>
								<out>-1</out>
							</marker>
						<logginginfo>
							<description></description>
							<scene></scene>
							<shottake></shottake>
							<lognote></lognote>
							<good></good>
							<originalvideofilename></originalvideofilename>
							<originalaudiofilename></originalaudiofilename>
						</logginginfo>
						<colorinfo>
							<lut></lut>
							<lut1></lut1>
							<asc_sop></asc_sop>
							<asc_sat></asc_sat>
							<lut2></lut2>
						</colorinfo>
						<labels>
							<label2>Iris</label2>
						</labels>
					</clipitem>
					<clipitem id="clipitem-19">
						<masterclipid>masterclip-4</masterclipid>
						<name>A076_02171014_C018.mov</name>
						<enabled>TRUE</enabled>
						<duration>84290</duration>
						<rate>
							<timebase>30</timebase>
							<ntsc>TRUE</ntsc>
						</rate>
						<start>7038</start>
						<end>7129</end>
						<in>2243</in>
						<out>2334</out>
						<pproTicksIn>19010921529600</pproTicksIn>
						<pproTicksOut>19782207244800</pproTicksOut>
						<alphatype>none</alphatype>
						<file id="file-4"/>
							<marker>
								<comment>Mudanças climaticas&#13;Fontes renovaveis&#13;Tecnologia</comment>
								<name>Transiçao energetica&#13;</name>
								<in>41104</in>
								<out>43931</out>
							</marker>
							<marker>
								<comment>COP&#13;Futuro&#13;Energia eolica&#13;Carvao&#13;Emissao de carbono&#13;Poluiçao&#13;Combustiveis fosseis vs fontes renovaveis&#13;Petroleo&#13;Mobilidade transporte</comment>
								<name>Acordos internacionais</name>
								<in>14788</in>
								<out>20458</out>
							</marker>
							<marker>
								<comment>Investimentos&#13;Combustiveis fosseis&#13;Fontes renovaveis&#13;Eolica solar hidreletrica&#13;Segurança energetica&#13;Tecnologias&#13;Hidrogenio verde&#13;Desigualdade&#13;Saude</comment>
								<name>Energia</name>
								<in>9128</in>
								<out>13946</out>
							</marker>
							<marker>
								<comment>Petroleo&#13;Combustiveis fosseis&#13;Fontes renovaveis&#13;Energia limpa&#13;Transporte mobilidade&#13;Etanol Alcool&#13;Politicas publicas&#13;Plasticos</comment>
								<name>Energia</name>
								<in>32741</in>
								<out>34426</out>
							</marker>
							<marker>
								<comment>Fontes renovaveis&#13;Energia limpa&#13;Tecnologias&#13;Politicas publicas&#13;Economia&#13;Combustiveis fosseis</comment>
								<name>Energia</name>
								<in>72795</in>
								<out>75492</out>
							</marker>
							<marker>
								<comment>Energia eolica&#13;Licenciamento ambiental</comment>
								<name>Energia</name>
								<in>54647</in>
								<out>55838</out>
							</marker>
							<marker>
								<comment>Exemplo Uruguai&#13;Energia limpa eolica</comment>
								<name>Energia</name>
								<in>53289</in>
								<out>54406</out>
							</marker>
							<marker>
								<comment>Energia eolica&#13;Energia limpa&#13;Urbanizaçao&#13;Crescimento populacional&#13;Oceanos&#13;Energia Solar&#13;Nordeste</comment>
								<name>Energia</name>
								<in>46401</in>
								<out>53161</out>
							</marker>
							<marker>
								<comment>Fontes renovaveis&#13;Alcool biomassa&#13;Arroz&#13;Economia</comment>
								<name>Energia</name>
								<in>78607</in>
								<out>82155</out>
							</marker>
							<marker>
								<comment>Impacto ser humano&#13;Aquecimento global&#13;Enchentes secas&#13;Mudanças climaticas&#13;Aumento Intensificaçao eventos climaticos&#13;Efeito estufa&#13;Combustiveis fosseis&#13;Petroleo gas natural carvao nuclear&#13;Matriz energetica Brasil&#13;Hidreletrica eolica solar biomassa&#13;Energia limpa&#13;Fontes renovaveis</comment>
								<name>Energia</name>
								<in>2189</in>
								<out>8597</out>
							</marker>
							<marker>
								<comment>Petroleo&#13;Combustiveis fosseis&#13;Fontes renovaveis&#13;Energia limpa&#13;Transporte mobilidade&#13;Etanol Alcool&#13;Politicas publicas&#13;Plasticos</comment>
								<name>Energia</name>
								<in>22169</in>
								<out>29818</out>
							</marker>
							<marker>
								<comment>Combustiveis fosseis&#13;Comparaçao alcool gasolina petroleo&#13;Economia&#13;Politicas publicas&#13;Tecnologias&#13;Acordos internacionais COP</comment>
								<name>Energia</name>
								<in>34883</in>
								<out>40571</out>
							</marker>
							<marker>
								<comment>Tucurui Itaipu&#13;Fontes renovaveis&#13;Barragens&#13;Aguas rios&#13;Mudanças climaticas&#13;Poluiçao&#13;Cita Belo Monte&#13;CGH PCH</comment>
								<name>Hidreletricas</name>
								<in>64615</in>
								<out>69866</out>
							</marker>
							<marker>
								<comment>Ciclo de Vida&#13;Energia solar&#13;Lixo residuos&#13;Politicas publicas</comment>
								<name>Reciclagem</name>
								<in>57506</in>
								<out>63652</out>
							</marker>
							<marker>
								<comment>Fontes renovaveis vs combustiveis fosseis&#13;Transiçao energetica</comment>
								<name>Energia</name>
								<in>30992</in>
								<out>32590</out>
							</marker>
							<marker>
								<comment>Transiçao energetica&#13;Combustiveis fosseis</comment>
								<name>Futuro</name>
								<in>82259</in>
								<out>-1</out>
							</marker>
						<logginginfo>
							<description></description>
							<scene></scene>
							<shottake></shottake>
							<lognote></lognote>
							<good></good>
							<originalvideofilename></originalvideofilename>
							<originalaudiofilename></originalaudiofilename>
						</logginginfo>
						<colorinfo>
							<lut></lut>
							<lut1></lut1>
							<asc_sop></asc_sop>
							<asc_sat></asc_sat>
							<lut2></lut2>
						</colorinfo>
						<labels>
							<label2>Iris</label2>
						</labels>
					</clipitem>
					<clipitem id="clipitem-20">
						<masterclipid>masterclip-4</masterclipid>
						<name>A076_02171014_C018.mov</name>
						<enabled>TRUE</enabled>
						<duration>84290</duration>
						<rate>
							<timebase>30</timebase>
							<ntsc>TRUE</ntsc>
						</rate>
						<start>7129</start>
						<end>7403</end>
						<in>6502</in>
						<out>6776</out>
						<pproTicksIn>55108788134400</pproTicksIn>
						<pproTicksOut>57431120947200</pproTicksOut>
						<alphatype>none</alphatype>
						<file id="file-4"/>
							<marker>
								<comment>Mudanças climaticas&#13;Fontes renovaveis&#13;Tecnologia</comment>
								<name>Transiçao energetica&#13;</name>
								<in>41104</in>
								<out>43931</out>
							</marker>
							<marker>
								<comment>COP&#13;Futuro&#13;Energia eolica&#13;Carvao&#13;Emissao de carbono&#13;Poluiçao&#13;Combustiveis fosseis vs fontes renovaveis&#13;Petroleo&#13;Mobilidade transporte</comment>
								<name>Acordos internacionais</name>
								<in>14788</in>
								<out>20458</out>
							</marker>
							<marker>
								<comment>Investimentos&#13;Combustiveis fosseis&#13;Fontes renovaveis&#13;Eolica solar hidreletrica&#13;Segurança energetica&#13;Tecnologias&#13;Hidrogenio verde&#13;Desigualdade&#13;Saude</comment>
								<name>Energia</name>
								<in>9128</in>
								<out>13946</out>
							</marker>
							<marker>
								<comment>Petroleo&#13;Combustiveis fosseis&#13;Fontes renovaveis&#13;Energia limpa&#13;Transporte mobilidade&#13;Etanol Alcool&#13;Politicas publicas&#13;Plasticos</comment>
								<name>Energia</name>
								<in>32741</in>
								<out>34426</out>
							</marker>
							<marker>
								<comment>Fontes renovaveis&#13;Energia limpa&#13;Tecnologias&#13;Politicas publicas&#13;Economia&#13;Combustiveis fosseis</comment>
								<name>Energia</name>
								<in>72795</in>
								<out>75492</out>
							</marker>
							<marker>
								<comment>Energia eolica&#13;Licenciamento ambiental</comment>
								<name>Energia</name>
								<in>54647</in>
								<out>55838</out>
							</marker>
							<marker>
								<comment>Exemplo Uruguai&#13;Energia limpa eolica</comment>
								<name>Energia</name>
								<in>53289</in>
								<out>54406</out>
							</marker>
							<marker>
								<comment>Energia eolica&#13;Energia limpa&#13;Urbanizaçao&#13;Crescimento populacional&#13;Oceanos&#13;Energia Solar&#13;Nordeste</comment>
								<name>Energia</name>
								<in>46401</in>
								<out>53161</out>
							</marker>
							<marker>
								<comment>Fontes renovaveis&#13;Alcool biomassa&#13;Arroz&#13;Economia</comment>
								<name>Energia</name>
								<in>78607</in>
								<out>82155</out>
							</marker>
							<marker>
								<comment>Impacto ser humano&#13;Aquecimento global&#13;Enchentes secas&#13;Mudanças climaticas&#13;Aumento Intensificaçao eventos climaticos&#13;Efeito estufa&#13;Combustiveis fosseis&#13;Petroleo gas natural carvao nuclear&#13;Matriz energetica Brasil&#13;Hidreletrica eolica solar biomassa&#13;Energia limpa&#13;Fontes renovaveis</comment>
								<name>Energia</name>
								<in>2189</in>
								<out>8597</out>
							</marker>
							<marker>
								<comment>Petroleo&#13;Combustiveis fosseis&#13;Fontes renovaveis&#13;Energia limpa&#13;Transporte mobilidade&#13;Etanol Alcool&#13;Politicas publicas&#13;Plasticos</comment>
								<name>Energia</name>
								<in>22169</in>
								<out>29818</out>
							</marker>
							<marker>
								<comment>Combustiveis fosseis&#13;Comparaçao alcool gasolina petroleo&#13;Economia&#13;Politicas publicas&#13;Tecnologias&#13;Acordos internacionais COP</comment>
								<name>Energia</name>
								<in>34883</in>
								<out>40571</out>
							</marker>
							<marker>
								<comment>Tucurui Itaipu&#13;Fontes renovaveis&#13;Barragens&#13;Aguas rios&#13;Mudanças climaticas&#13;Poluiçao&#13;Cita Belo Monte&#13;CGH PCH</comment>
								<name>Hidreletricas</name>
								<in>64615</in>
								<out>69866</out>
							</marker>
							<marker>
								<comment>Ciclo de Vida&#13;Energia solar&#13;Lixo residuos&#13;Politicas publicas</comment>
								<name>Reciclagem</name>
								<in>57506</in>
								<out>63652</out>
							</marker>
							<marker>
								<comment>Fontes renovaveis vs combustiveis fosseis&#13;Transiçao energetica</comment>
								<name>Energia</name>
								<in>30992</in>
								<out>32590</out>
							</marker>
							<marker>
								<comment>Transiçao energetica&#13;Combustiveis fosseis</comment>
								<name>Futuro</name>
								<in>82259</in>
								<out>-1</out>
							</marker>
						<logginginfo>
							<description></description>
							<scene></scene>
							<shottake></shottake>
							<lognote></lognote>
							<good></good>
							<originalvideofilename></originalvideofilename>
							<originalaudiofilename></originalaudiofilename>
						</logginginfo>
						<colorinfo>
							<lut></lut>
							<lut1></lut1>
							<asc_sop></asc_sop>
							<asc_sat></asc_sat>
							<lut2></lut2>
						</colorinfo>
						<labels>
							<label2>Iris</label2>
						</labels>
					</clipitem>
					<clipitem id="clipitem-21">
						<masterclipid>masterclip-4</masterclipid>
						<name>A076_02171014_C018.mov</name>
						<enabled>TRUE</enabled>
						<duration>84290</duration>
						<rate>
							<timebase>30</timebase>
							<ntsc>TRUE</ntsc>
						</rate>
						<start>7403</start>
						<end>7655</end>
						<in>6776</in>
						<out>7028</out>
						<pproTicksIn>57431120947200</pproTicksIn>
						<pproTicksOut>59566989081600</pproTicksOut>
						<alphatype>none</alphatype>
						<file id="file-4"/>
							<marker>
								<comment>Mudanças climaticas&#13;Fontes renovaveis&#13;Tecnologia</comment>
								<name>Transiçao energetica&#13;</name>
								<in>41104</in>
								<out>43931</out>
							</marker>
							<marker>
								<comment>COP&#13;Futuro&#13;Energia eolica&#13;Carvao&#13;Emissao de carbono&#13;Poluiçao&#13;Combustiveis fosseis vs fontes renovaveis&#13;Petroleo&#13;Mobilidade transporte</comment>
								<name>Acordos internacionais</name>
								<in>14788</in>
								<out>20458</out>
							</marker>
							<marker>
								<comment>Investimentos&#13;Combustiveis fosseis&#13;Fontes renovaveis&#13;Eolica solar hidreletrica&#13;Segurança energetica&#13;Tecnologias&#13;Hidrogenio verde&#13;Desigualdade&#13;Saude</comment>
								<name>Energia</name>
								<in>9128</in>
								<out>13946</out>
							</marker>
							<marker>
								<comment>Petroleo&#13;Combustiveis fosseis&#13;Fontes renovaveis&#13;Energia limpa&#13;Transporte mobilidade&#13;Etanol Alcool&#13;Politicas publicas&#13;Plasticos</comment>
								<name>Energia</name>
								<in>32741</in>
								<out>34426</out>
							</marker>
							<marker>
								<comment>Fontes renovaveis&#13;Energia limpa&#13;Tecnologias&#13;Politicas publicas&#13;Economia&#13;Combustiveis fosseis</comment>
								<name>Energia</name>
								<in>72795</in>
								<out>75492</out>
							</marker>
							<marker>
								<comment>Energia eolica&#13;Licenciamento ambiental</comment>
								<name>Energia</name>
								<in>54647</in>
								<out>55838</out>
							</marker>
							<marker>
								<comment>Exemplo Uruguai&#13;Energia limpa eolica</comment>
								<name>Energia</name>
								<in>53289</in>
								<out>54406</out>
							</marker>
							<marker>
								<comment>Energia eolica&#13;Energia limpa&#13;Urbanizaçao&#13;Crescimento populacional&#13;Oceanos&#13;Energia Solar&#13;Nordeste</comment>
								<name>Energia</name>
								<in>46401</in>
								<out>53161</out>
							</marker>
							<marker>
								<comment>Fontes renovaveis&#13;Alcool biomassa&#13;Arroz&#13;Economia</comment>
								<name>Energia</name>
								<in>78607</in>
								<out>82155</out>
							</marker>
							<marker>
								<comment>Impacto ser humano&#13;Aquecimento global&#13;Enchentes secas&#13;Mudanças climaticas&#13;Aumento Intensificaçao eventos climaticos&#13;Efeito estufa&#13;Combustiveis fosseis&#13;Petroleo gas natural carvao nuclear&#13;Matriz energetica Brasil&#13;Hidreletrica eolica solar biomassa&#13;Energia limpa&#13;Fontes renovaveis</comment>
								<name>Energia</name>
								<in>2189</in>
								<out>8597</out>
							</marker>
							<marker>
								<comment>Petroleo&#13;Combustiveis fosseis&#13;Fontes renovaveis&#13;Energia limpa&#13;Transporte mobilidade&#13;Etanol Alcool&#13;Politicas publicas&#13;Plasticos</comment>
								<name>Energia</name>
								<in>22169</in>
								<out>29818</out>
							</marker>
							<marker>
								<comment>Combustiveis fosseis&#13;Comparaçao alcool gasolina petroleo&#13;Economia&#13;Politicas publicas&#13;Tecnologias&#13;Acordos internacionais COP</comment>
								<name>Energia</name>
								<in>34883</in>
								<out>40571</out>
							</marker>
							<marker>
								<comment>Tucurui Itaipu&#13;Fontes renovaveis&#13;Barragens&#13;Aguas rios&#13;Mudanças climaticas&#13;Poluiçao&#13;Cita Belo Monte&#13;CGH PCH</comment>
								<name>Hidreletricas</name>
								<in>64615</in>
								<out>69866</out>
							</marker>
							<marker>
								<comment>Ciclo de Vida&#13;Energia solar&#13;Lixo residuos&#13;Politicas publicas</comment>
								<name>Reciclagem</name>
								<in>57506</in>
								<out>63652</out>
							</marker>
							<marker>
								<comment>Fontes renovaveis vs combustiveis fosseis&#13;Transiçao energetica</comment>
								<name>Energia</name>
								<in>30992</in>
								<out>32590</out>
							</marker>
							<marker>
								<comment>Transiçao energetica&#13;Combustiveis fosseis</comment>
								<name>Futuro</name>
								<in>82259</in>
								<out>-1</out>
							</marker>
						<logginginfo>
							<description></description>
							<scene></scene>
							<shottake></shottake>
							<lognote></lognote>
							<good></good>
							<originalvideofilename></originalvideofilename>
							<originalaudiofilename></originalaudiofilename>
						</logginginfo>
						<colorinfo>
							<lut></lut>
							<lut1></lut1>
							<asc_sop></asc_sop>
							<asc_sat></asc_sat>
							<lut2></lut2>
						</colorinfo>
						<labels>
							<label2>Iris</label2>
						</labels>
					</clipitem>
					<clipitem id="clipitem-22">
						<masterclipid>masterclip-5</masterclipid>
						<name>B027_01200850_C002.mov</name>
						<enabled>TRUE</enabled>
						<duration>32350</duration>
						<rate>
							<timebase>30</timebase>
							<ntsc>TRUE</ntsc>
						</rate>
						<start>7655</start>
						<end>8018</end>
						<in>16792</in>
						<out>17155</out>
						<pproTicksIn>142323403622400</pproTicksIn>
						<pproTicksOut>145400070816000</pproTicksOut>
						<alphatype>none</alphatype>
						<pixelaspectratio>square</pixelaspectratio>
						<anamorphic>FALSE</anamorphic>
						<file id="file-5">
							<name>B027_01200850_C002.mov</name>
							<pathurl>file://localhost/Volumes/EDDMA_Pos02/EDDMA_02/BRUTAS/CENAS%20CAPTADAS/20250512/TRANSCODED/CAM_B/B027/B027_01200850_C002.mov</pathurl>
							<rate>
								<timebase>30</timebase>
								<ntsc>TRUE</ntsc>
							</rate>
							<duration>32350</duration>
							<timecode>
								<rate>
									<timebase>30</timebase>
									<ntsc>TRUE</ntsc>
								</rate>
								<string>14:24:33:14</string>
								<frame>1556204</frame>
								<displayformat>NDF</displayformat>
							</timecode>
							<media>
								<video>
									<samplecharacteristics>
										<rate>
											<timebase>30</timebase>
											<ntsc>TRUE</ntsc>
										</rate>
										<width>1920</width>
										<height>1080</height>
										<anamorphic>FALSE</anamorphic>
										<pixelaspectratio>square</pixelaspectratio>
										<fielddominance>none</fielddominance>
									</samplecharacteristics>
								</video>
								<audio>
									<samplecharacteristics>
										<depth>16</depth>
										<samplerate>48000</samplerate>
									</samplecharacteristics>
									<channelcount>2</channelcount>
								</audio>
							</media>
						</file>
							<marker>
								<comment>Aguas rios&#13;Urbanizaçao&#13;Areas de Preservaçao Permanente APP&#13;Enchentes&#13;Barragens&#13;Bacia hidrografica&#13;Caminho das aguas&#13;Diques&#13;Sistema de Proteçao&#13;Plano Rio Grande&#13;FEPAM</comment>
								<name>Planejamento urbano&#13;</name>
								<in>1078</in>
								<out>10668</out>
							</marker>
							<marker>
								<comment>Instituto Clima e Sociedade ICS&#13;Fontes renovaveis&#13;Termeletrica carvao&#13;Segurança energetica&#13;Transiçao energetica&#13;Politicas publicas&#13;Eolica Solar Hidreletrica Biocombustivel&#13;Industria&#13;Plano Rio Grande&#13;Mudanças climaticas</comment>
								<name>Energia</name>
								<in>12509</in>
								<out>21438</out>
							</marker>
							<marker>
								<comment>Codigo ambiental&#13;Licenciamento ambiental&#13;Flexibilizaçao das Leis&#13;Aguas rios&#13;Saneamento&#13;Pampa&#13;Consema FEPAM&#13;Desenvolvimento sustentavel</comment>
								<name>Politicas publicas</name>
								<in>23599</in>
								<out>31850</out>
							</marker>
						<logginginfo>
							<description></description>
							<scene></scene>
							<shottake></shottake>
							<lognote></lognote>
							<good></good>
							<originalvideofilename></originalvideofilename>
							<originalaudiofilename></originalaudiofilename>
						</logginginfo>
						<colorinfo>
							<lut></lut>
							<lut1></lut1>
							<asc_sop></asc_sop>
							<asc_sat></asc_sat>
							<lut2></lut2>
						</colorinfo>
						<labels>
							<label2>Iris</label2>
						</labels>
					</clipitem>
					<clipitem id="clipitem-23">
						<masterclipid>masterclip-5</masterclipid>
						<name>B027_01200850_C002.mov</name>
						<enabled>TRUE</enabled>
						<duration>32350</duration>
						<rate>
							<timebase>30</timebase>
							<ntsc>TRUE</ntsc>
						</rate>
						<start>8018</start>
						<end>8608</end>
						<in>17208</in>
						<out>17798</out>
						<pproTicksIn>145849281177600</pproTicksIn>
						<pproTicksOut>150849924825600</pproTicksOut>
						<alphatype>none</alphatype>
						<file id="file-5"/>
							<marker>
								<comment>Aguas rios&#13;Urbanizaçao&#13;Areas de Preservaçao Permanente APP&#13;Enchentes&#13;Barragens&#13;Bacia hidrografica&#13;Caminho das aguas&#13;Diques&#13;Sistema de Proteçao&#13;Plano Rio Grande&#13;FEPAM</comment>
								<name>Planejamento urbano&#13;</name>
								<in>1078</in>
								<out>10668</out>
							</marker>
							<marker>
								<comment>Instituto Clima e Sociedade ICS&#13;Fontes renovaveis&#13;Termeletrica carvao&#13;Segurança energetica&#13;Transiçao energetica&#13;Politicas publicas&#13;Eolica Solar Hidreletrica Biocombustivel&#13;Industria&#13;Plano Rio Grande&#13;Mudanças climaticas</comment>
								<name>Energia</name>
								<in>12509</in>
								<out>21438</out>
							</marker>
							<marker>
								<comment>Codigo ambiental&#13;Licenciamento ambiental&#13;Flexibilizaçao das Leis&#13;Aguas rios&#13;Saneamento&#13;Pampa&#13;Consema FEPAM&#13;Desenvolvimento sustentavel</comment>
								<name>Politicas publicas</name>
								<in>23599</in>
								<out>31850</out>
							</marker>
						<logginginfo>
							<description></description>
							<scene></scene>
							<shottake></shottake>
							<lognote></lognote>
							<good></good>
							<originalvideofilename></originalvideofilename>
							<originalaudiofilename></originalaudiofilename>
						</logginginfo>
						<colorinfo>
							<lut></lut>
							<lut1></lut1>
							<asc_sop></asc_sop>
							<asc_sat></asc_sat>
							<lut2></lut2>
						</colorinfo>
						<labels>
							<label2>Iris</label2>
						</labels>
					</clipitem>
					<clipitem id="clipitem-24">
						<masterclipid>masterclip-6</masterclipid>
						<name>A048_02020538_C030.mov</name>
						<enabled>TRUE</enabled>
						<duration>74175</duration>
						<rate>
							<timebase>30</timebase>
							<ntsc>TRUE</ntsc>
						</rate>
						<start>8608</start>
						<end>8771</end>
						<in>34743</in>
						<out>34906</out>
						<pproTicksIn>294470105529600</pproTicksIn>
						<pproTicksOut>295851639283200</pproTicksOut>
						<alphatype>none</alphatype>
						<pixelaspectratio>square</pixelaspectratio>
						<anamorphic>FALSE</anamorphic>
						<file id="file-6">
							<name>A048_02020538_C030.mov</name>
							<pathurl>file://localhost/Volumes/EDDMA_Pos01/EDDMA_01/BRUTAS/CENAS%20CAPTADAS/20250430_01de02/TRANSCODED/CAM_A/A048/A048_02020538_C030.mov</pathurl>
							<rate>
								<timebase>30</timebase>
								<ntsc>TRUE</ntsc>
							</rate>
							<duration>74175</duration>
							<timecode>
								<rate>
									<timebase>30</timebase>
									<ntsc>TRUE</ntsc>
								</rate>
								<string>11:29:25:27</string>
								<frame>1240977</frame>
								<displayformat>NDF</displayformat>
							</timecode>
							<media>
								<video>
									<samplecharacteristics>
										<rate>
											<timebase>30</timebase>
											<ntsc>TRUE</ntsc>
										</rate>
										<width>1920</width>
										<height>1080</height>
										<anamorphic>FALSE</anamorphic>
										<pixelaspectratio>square</pixelaspectratio>
										<fielddominance>none</fielddominance>
									</samplecharacteristics>
								</video>
								<audio>
									<samplecharacteristics>
										<depth>16</depth>
										<samplerate>48000</samplerate>
									</samplecharacteristics>
									<channelcount>2</channelcount>
								</audio>
							</media>
						</file>
						<logginginfo>
							<description></description>
							<scene></scene>
							<shottake></shottake>
							<lognote></lognote>
							<good></good>
							<originalvideofilename></originalvideofilename>
							<originalaudiofilename></originalaudiofilename>
						</logginginfo>
						<colorinfo>
							<lut></lut>
							<lut1></lut1>
							<asc_sop></asc_sop>
							<asc_sat></asc_sat>
							<lut2></lut2>
						</colorinfo>
						<labels>
							<label2>Iris</label2>
						</labels>
					</clipitem>
					<clipitem id="clipitem-25">
						<masterclipid>masterclip-6</masterclipid>
						<name>A048_02020538_C030.mov</name>
						<enabled>TRUE</enabled>
						<duration>74175</duration>
						<rate>
							<timebase>30</timebase>
							<ntsc>TRUE</ntsc>
						</rate>
						<start>8771</start>
						<end>8905</end>
						<in>35218</in>
						<out>35352</out>
						<pproTicksIn>298496047449600</pproTicksIn>
						<pproTicksOut>299631786854400</pproTicksOut>
						<alphatype>none</alphatype>
						<file id="file-6"/>
						<logginginfo>
							<description></description>
							<scene></scene>
							<shottake></shottake>
							<lognote></lognote>
							<good></good>
							<originalvideofilename></originalvideofilename>
							<originalaudiofilename></originalaudiofilename>
						</logginginfo>
						<colorinfo>
							<lut></lut>
							<lut1></lut1>
							<asc_sop></asc_sop>
							<asc_sat></asc_sat>
							<lut2></lut2>
						</colorinfo>
						<labels>
							<label2>Iris</label2>
						</labels>
					</clipitem>
					<clipitem id="clipitem-26">
						<masterclipid>masterclip-6</masterclipid>
						<name>A048_02020538_C030.mov</name>
						<enabled>TRUE</enabled>
						<duration>74175</duration>
						<rate>
							<timebase>30</timebase>
							<ntsc>TRUE</ntsc>
						</rate>
						<start>8905</start>
						<end>9032</end>
						<in>35382</in>
						<out>35509</out>
						<pproTicksIn>299886056870400</pproTicksIn>
						<pproTicksOut>300962466604800</pproTicksOut>
						<alphatype>none</alphatype>
						<file id="file-6"/>
						<logginginfo>
							<description></description>
							<scene></scene>
							<shottake></shottake>
							<lognote></lognote>
							<good></good>
							<originalvideofilename></originalvideofilename>
							<originalaudiofilename></originalaudiofilename>
						</logginginfo>
						<colorinfo>
							<lut></lut>
							<lut1></lut1>
							<asc_sop></asc_sop>
							<asc_sat></asc_sat>
							<lut2></lut2>
						</colorinfo>
						<labels>
							<label2>Iris</label2>
						</labels>
					</clipitem>
					<clipitem id="clipitem-27">
						<masterclipid>masterclip-6</masterclipid>
						<name>A048_02020538_C030.mov</name>
						<enabled>TRUE</enabled>
						<duration>74175</duration>
						<rate>
							<timebase>30</timebase>
							<ntsc>TRUE</ntsc>
						</rate>
						<start>9032</start>
						<end>9382</end>
						<in>35756</in>
						<out>36106</out>
						<pproTicksIn>303055956403200</pproTicksIn>
						<pproTicksOut>306022439923200</pproTicksOut>
						<alphatype>none</alphatype>
						<file id="file-6"/>
						<logginginfo>
							<description></description>
							<scene></scene>
							<shottake></shottake>
							<lognote></lognote>
							<good></good>
							<originalvideofilename></originalvideofilename>
							<originalaudiofilename></originalaudiofilename>
						</logginginfo>
						<colorinfo>
							<lut></lut>
							<lut1></lut1>
							<asc_sop></asc_sop>
							<asc_sat></asc_sat>
							<lut2></lut2>
						</colorinfo>
						<labels>
							<label2>Iris</label2>
						</labels>
					</clipitem>
					<clipitem id="clipitem-28">
						<masterclipid>masterclip-7</masterclipid>
						<name>2025-03-20 08-52-56 .mov</name>
						<enabled>TRUE</enabled>
						<duration>31991</duration>
						<rate>
							<timebase>30</timebase>
							<ntsc>TRUE</ntsc>
						</rate>
						<start>9382</start>
						<end>9493</end>
						<in>16893</in>
						<out>17004</out>
						<pproTicksIn>143179446009600</pproTicksIn>
						<pproTicksOut>144120245068800</pproTicksOut>
						<alphatype>none</alphatype>
						<pixelaspectratio>square</pixelaspectratio>
						<anamorphic>FALSE</anamorphic>
						<file id="file-7">
							<name>2025-03-20 08-52-56 .mov</name>
							<pathurl>file://localhost/Volumes/EDDMA_Pos01/EDDMA_01/BRUTAS/CENAS%20CAPTADAS/20250320/Claudio_Angelo/2025-03-20%2008-52-56%20.mov</pathurl>
							<rate>
								<timebase>30</timebase>
								<ntsc>TRUE</ntsc>
							</rate>
							<duration>31991</duration>
							<timecode>
								<rate>
									<timebase>30</timebase>
									<ntsc>TRUE</ntsc>
								</rate>
								<string>00:00:00:00</string>
								<frame>0</frame>
								<displayformat>NDF</displayformat>
							</timecode>
							<media>
								<video>
									<samplecharacteristics>
										<rate>
											<timebase>30</timebase>
											<ntsc>TRUE</ntsc>
										</rate>
										<width>1920</width>
										<height>1080</height>
										<anamorphic>FALSE</anamorphic>
										<pixelaspectratio>square</pixelaspectratio>
										<fielddominance>none</fielddominance>
									</samplecharacteristics>
								</video>
								<audio>
									<samplecharacteristics>
										<depth>16</depth>
										<samplerate>48000</samplerate>
									</samplecharacteristics>
									<channelcount>2</channelcount>
								</audio>
							</media>
						</file>
							<marker>
								<comment>Historico Hidreletricas&#13;Florestas&#13;Povos originarios indigenas&#13;Vazao dos rios</comment>
								<name>Aguas</name>
								<in>22190</in>
								<out>-1</out>
							</marker>
							<marker>
								<comment>Aquecimento global&#13;Emissao de gases&#13;Desmatamento&#13;Energia&#13;Acordos internacionais</comment>
								<name>Futuro</name>
								<in>9988</in>
								<out>-1</out>
							</marker>
							<marker>
								<comment>Custo e subsidio&#13;Politicas publicas&#13;Desmatamento florestas&#13;Agro Agricultura&#13;Transiçao energetica</comment>
								<name>Mineraçao de carvao</name>
								<in>16086</in>
								<out>-1</out>
							</marker>
							<marker>
								<comment>Hidreletricas energia&#13;Rio Tapajos&#13;Barragens</comment>
								<name>Aguas</name>
								<in>29660</in>
								<out>-1</out>
							</marker>
							<marker>
								<comment>Transiçao energetica&#13;Exemplo EUA e China&#13;Explica produçao de gas natural&#13;Aumento do consumo de energia&#13;EUA indo no sentido contrario</comment>
								<name>Energia</name>
								<in>815</in>
								<out>-1</out>
							</marker>
						<link>
							<linkclipref>clipitem-28</linkclipref>
							<mediatype>video</mediatype>
							<trackindex>1</trackindex>
							<clipindex>28</clipindex>
						</link>
						<link>
							<linkclipref>clipitem-159</linkclipref>
							<mediatype>audio</mediatype>
							<trackindex>1</trackindex>
							<clipindex>28</clipindex>
							<groupindex>1</groupindex>
						</link>
						<link>
							<linkclipref>clipitem-257</linkclipref>
							<mediatype>audio</mediatype>
							<trackindex>2</trackindex>
							<clipindex>18</clipindex>
							<groupindex>1</groupindex>
						</link>
						<logginginfo>
							<description></description>
							<scene></scene>
							<shottake></shottake>
							<lognote></lognote>
							<good></good>
							<originalvideofilename></originalvideofilename>
							<originalaudiofilename></originalaudiofilename>
						</logginginfo>
						<colorinfo>
							<lut></lut>
							<lut1></lut1>
							<asc_sop></asc_sop>
							<asc_sat></asc_sat>
							<lut2></lut2>
						</colorinfo>
					</clipitem>
					<clipitem id="clipitem-29">
						<masterclipid>masterclip-7</masterclipid>
						<name>2025-03-20 08-52-56 .mov</name>
						<enabled>TRUE</enabled>
						<duration>31991</duration>
						<rate>
							<timebase>30</timebase>
							<ntsc>TRUE</ntsc>
						</rate>
						<start>9493</start>
						<end>9801</end>
						<in>17103</in>
						<out>17411</out>
						<pproTicksIn>144959336121600</pproTicksIn>
						<pproTicksOut>147569841619200</pproTicksOut>
						<alphatype>none</alphatype>
						<file id="file-7"/>
							<marker>
								<comment>Historico Hidreletricas&#13;Florestas&#13;Povos originarios indigenas&#13;Vazao dos rios</comment>
								<name>Aguas</name>
								<in>22190</in>
								<out>-1</out>
							</marker>
							<marker>
								<comment>Aquecimento global&#13;Emissao de gases&#13;Desmatamento&#13;Energia&#13;Acordos internacionais</comment>
								<name>Futuro</name>
								<in>9988</in>
								<out>-1</out>
							</marker>
							<marker>
								<comment>Custo e subsidio&#13;Politicas publicas&#13;Desmatamento florestas&#13;Agro Agricultura&#13;Transiçao energetica</comment>
								<name>Mineraçao de carvao</name>
								<in>16086</in>
								<out>-1</out>
							</marker>
							<marker>
								<comment>Hidreletricas energia&#13;Rio Tapajos&#13;Barragens</comment>
								<name>Aguas</name>
								<in>29660</in>
								<out>-1</out>
							</marker>
							<marker>
								<comment>Transiçao energetica&#13;Exemplo EUA e China&#13;Explica produçao de gas natural&#13;Aumento do consumo de energia&#13;EUA indo no sentido contrario</comment>
								<name>Energia</name>
								<in>815</in>
								<out>-1</out>
							</marker>
						<link>
							<linkclipref>clipitem-29</linkclipref>
							<mediatype>video</mediatype>
							<trackindex>1</trackindex>
							<clipindex>29</clipindex>
						</link>
						<link>
							<linkclipref>clipitem-160</linkclipref>
							<mediatype>audio</mediatype>
							<trackindex>1</trackindex>
							<clipindex>29</clipindex>
							<groupindex>1</groupindex>
						</link>
						<link>
							<linkclipref>clipitem-258</linkclipref>
							<mediatype>audio</mediatype>
							<trackindex>2</trackindex>
							<clipindex>19</clipindex>
							<groupindex>1</groupindex>
						</link>
						<logginginfo>
							<description></description>
							<scene></scene>
							<shottake></shottake>
							<lognote></lognote>
							<good></good>
							<originalvideofilename></originalvideofilename>
							<originalaudiofilename></originalaudiofilename>
						</logginginfo>
						<colorinfo>
							<lut></lut>
							<lut1></lut1>
							<asc_sop></asc_sop>
							<asc_sat></asc_sat>
							<lut2></lut2>
						</colorinfo>
					</clipitem>
					<clipitem id="clipitem-30">
						<masterclipid>masterclip-7</masterclipid>
						<name>2025-03-20 08-52-56 .mov</name>
						<enabled>TRUE</enabled>
						<duration>31991</duration>
						<rate>
							<timebase>30</timebase>
							<ntsc>TRUE</ntsc>
						</rate>
						<start>9801</start>
						<end>10368</end>
						<in>17565</in>
						<out>18132</out>
						<pproTicksIn>148875094368000</pproTicksIn>
						<pproTicksOut>153680797670400</pproTicksOut>
						<alphatype>none</alphatype>
						<file id="file-7"/>
							<marker>
								<comment>Historico Hidreletricas&#13;Florestas&#13;Povos originarios indigenas&#13;Vazao dos rios</comment>
								<name>Aguas</name>
								<in>22190</in>
								<out>-1</out>
							</marker>
							<marker>
								<comment>Aquecimento global&#13;Emissao de gases&#13;Desmatamento&#13;Energia&#13;Acordos internacionais</comment>
								<name>Futuro</name>
								<in>9988</in>
								<out>-1</out>
							</marker>
							<marker>
								<comment>Custo e subsidio&#13;Politicas publicas&#13;Desmatamento florestas&#13;Agro Agricultura&#13;Transiçao energetica</comment>
								<name>Mineraçao de carvao</name>
								<in>16086</in>
								<out>-1</out>
							</marker>
							<marker>
								<comment>Hidreletricas energia&#13;Rio Tapajos&#13;Barragens</comment>
								<name>Aguas</name>
								<in>29660</in>
								<out>-1</out>
							</marker>
							<marker>
								<comment>Transiçao energetica&#13;Exemplo EUA e China&#13;Explica produçao de gas natural&#13;Aumento do consumo de energia&#13;EUA indo no sentido contrario</comment>
								<name>Energia</name>
								<in>815</in>
								<out>-1</out>
							</marker>
						<link>
							<linkclipref>clipitem-30</linkclipref>
							<mediatype>video</mediatype>
							<trackindex>1</trackindex>
							<clipindex>30</clipindex>
						</link>
						<link>
							<linkclipref>clipitem-161</linkclipref>
							<mediatype>audio</mediatype>
							<trackindex>1</trackindex>
							<clipindex>30</clipindex>
							<groupindex>1</groupindex>
						</link>
						<link>
							<linkclipref>clipitem-259</linkclipref>
							<mediatype>audio</mediatype>
							<trackindex>2</trackindex>
							<clipindex>20</clipindex>
							<groupindex>1</groupindex>
						</link>
						<logginginfo>
							<description></description>
							<scene></scene>
							<shottake></shottake>
							<lognote></lognote>
							<good></good>
							<originalvideofilename></originalvideofilename>
							<originalaudiofilename></originalaudiofilename>
						</logginginfo>
						<colorinfo>
							<lut></lut>
							<lut1></lut1>
							<asc_sop></asc_sop>
							<asc_sat></asc_sat>
							<lut2></lut2>
						</colorinfo>
					</clipitem>
					<clipitem id="clipitem-31">
						<masterclipid>masterclip-3</masterclipid>
						<name>A072_02150807_C001.mov</name>
						<enabled>TRUE</enabled>
						<duration>22175</duration>
						<rate>
							<timebase>30</timebase>
							<ntsc>TRUE</ntsc>
						</rate>
						<start>10368</start>
						<end>10769</end>
						<in>8575</in>
						<out>8976</out>
						<pproTicksIn>72678846240000</pproTicksIn>
						<pproTicksOut>76077588787200</pproTicksOut>
						<alphatype>none</alphatype>
						<file id="file-3"/>
							<marker>
								<comment>Mina carvao</comment>
								<name>Mineraçao</name>
								<in>12500</in>
								<out>-1</out>
							</marker>
							<marker>
								<comment>Mina carvao&#13;Agro Agricultura&#13;Comunidade local&#13;Economia</comment>
								<name>Mineraçao</name>
								<in>7551</in>
								<out>8979</out>
							</marker>
							<marker>
								<comment>Mina carvao&#13;Politicas publicas&#13;Candiota&#13;Economia</comment>
								<name>Mineraçao</name>
								<in>19399</in>
								<out>20863</out>
							</marker>
							<marker>
								<comment>Mina carvao&#13;Politicas publicas</comment>
								<name>Mineraçao</name>
								<in>9429</in>
								<out>11531</out>
							</marker>
							<marker>
								<comment>Mina carvao&#13;Poluiçao&#13;Combustiveis fosseis&#13;Tecnologia</comment>
								<name>Mineraçao</name>
								<in>747</in>
								<out>4023</out>
							</marker>
							<marker>
								<comment>Mina carvao&#13;Historia&#13;Profundidade vs Ceu aberto</comment>
								<name>Mineraçao</name>
								<in>4699</in>
								<out>-1</out>
							</marker>
							<marker>
								<comment>Mina carvao&#13;Comunidade local&#13;Saude&#13;Tecnologia&#13;Politicas publicas</comment>
								<name>Mineraçao</name>
								<in>13906</in>
								<out>15739</out>
							</marker>
						<logginginfo>
							<description></description>
							<scene></scene>
							<shottake></shottake>
							<lognote></lognote>
							<good></good>
							<originalvideofilename></originalvideofilename>
							<originalaudiofilename></originalaudiofilename>
						</logginginfo>
						<colorinfo>
							<lut></lut>
							<lut1></lut1>
							<asc_sop></asc_sop>
							<asc_sat></asc_sat>
							<lut2></lut2>
						</colorinfo>
						<labels>
							<label2>Iris</label2>
						</labels>
					</clipitem>
					<clipitem id="clipitem-32">
						<masterclipid>masterclip-3</masterclipid>
						<name>A072_02150807_C001.mov</name>
						<enabled>TRUE</enabled>
						<duration>22175</duration>
						<rate>
							<timebase>30</timebase>
							<ntsc>TRUE</ntsc>
						</rate>
						<start>10769</start>
						<end>10852</end>
						<in>20397</in>
						<out>20480</out>
						<pproTicksIn>172878183878400</pproTicksIn>
						<pproTicksOut>173581664256000</pproTicksOut>
						<alphatype>none</alphatype>
						<file id="file-3"/>
							<marker>
								<comment>Mina carvao</comment>
								<name>Mineraçao</name>
								<in>12500</in>
								<out>-1</out>
							</marker>
							<marker>
								<comment>Mina carvao&#13;Agro Agricultura&#13;Comunidade local&#13;Economia</comment>
								<name>Mineraçao</name>
								<in>7551</in>
								<out>8979</out>
							</marker>
							<marker>
								<comment>Mina carvao&#13;Politicas publicas&#13;Candiota&#13;Economia</comment>
								<name>Mineraçao</name>
								<in>19399</in>
								<out>20863</out>
							</marker>
							<marker>
								<comment>Mina carvao&#13;Politicas publicas</comment>
								<name>Mineraçao</name>
								<in>9429</in>
								<out>11531</out>
							</marker>
							<marker>
								<comment>Mina carvao&#13;Poluiçao&#13;Combustiveis fosseis&#13;Tecnologia</comment>
								<name>Mineraçao</name>
								<in>747</in>
								<out>4023</out>
							</marker>
							<marker>
								<comment>Mina carvao&#13;Historia&#13;Profundidade vs Ceu aberto</comment>
								<name>Mineraçao</name>
								<in>4699</in>
								<out>-1</out>
							</marker>
							<marker>
								<comment>Mina carvao&#13;Comunidade local&#13;Saude&#13;Tecnologia&#13;Politicas publicas</comment>
								<name>Mineraçao</name>
								<in>13906</in>
								<out>15739</out>
							</marker>
						<logginginfo>
							<description></description>
							<scene></scene>
							<shottake></shottake>
							<lognote></lognote>
							<good></good>
							<originalvideofilename></originalvideofilename>
							<originalaudiofilename></originalaudiofilename>
						</logginginfo>
						<colorinfo>
							<lut></lut>
							<lut1></lut1>
							<asc_sop></asc_sop>
							<asc_sat></asc_sat>
							<lut2></lut2>
						</colorinfo>
						<labels>
							<label2>Iris</label2>
						</labels>
					</clipitem>
					<clipitem id="clipitem-33">
						<masterclipid>masterclip-3</masterclipid>
						<name>A072_02150807_C001.mov</name>
						<enabled>TRUE</enabled>
						<duration>22175</duration>
						<rate>
							<timebase>30</timebase>
							<ntsc>TRUE</ntsc>
						</rate>
						<start>10852</start>
						<end>11052</end>
						<in>20654</in>
						<out>20854</out>
						<pproTicksIn>175056430348800</pproTicksIn>
						<pproTicksOut>176751563788800</pproTicksOut>
						<alphatype>none</alphatype>
						<file id="file-3"/>
							<marker>
								<comment>Mina carvao</comment>
								<name>Mineraçao</name>
								<in>12500</in>
								<out>-1</out>
							</marker>
							<marker>
								<comment>Mina carvao&#13;Agro Agricultura&#13;Comunidade local&#13;Economia</comment>
								<name>Mineraçao</name>
								<in>7551</in>
								<out>8979</out>
							</marker>
							<marker>
								<comment>Mina carvao&#13;Politicas publicas&#13;Candiota&#13;Economia</comment>
								<name>Mineraçao</name>
								<in>19399</in>
								<out>20863</out>
							</marker>
							<marker>
								<comment>Mina carvao&#13;Politicas publicas</comment>
								<name>Mineraçao</name>
								<in>9429</in>
								<out>11531</out>
							</marker>
							<marker>
								<comment>Mina carvao&#13;Poluiçao&#13;Combustiveis fosseis&#13;Tecnologia</comment>
								<name>Mineraçao</name>
								<in>747</in>
								<out>4023</out>
							</marker>
							<marker>
								<comment>Mina carvao&#13;Historia&#13;Profundidade vs Ceu aberto</comment>
								<name>Mineraçao</name>
								<in>4699</in>
								<out>-1</out>
							</marker>
							<marker>
								<comment>Mina carvao&#13;Comunidade local&#13;Saude&#13;Tecnologia&#13;Politicas publicas</comment>
								<name>Mineraçao</name>
								<in>13906</in>
								<out>15739</out>
							</marker>
						<logginginfo>
							<description></description>
							<scene></scene>
							<shottake></shottake>
							<lognote></lognote>
							<good></good>
							<originalvideofilename></originalvideofilename>
							<originalaudiofilename></originalaudiofilename>
						</logginginfo>
						<colorinfo>
							<lut></lut>
							<lut1></lut1>
							<asc_sop></asc_sop>
							<asc_sat></asc_sat>
							<lut2></lut2>
						</colorinfo>
						<labels>
							<label2>Iris</label2>
						</labels>
					</clipitem>
					<clipitem id="clipitem-34">
						<masterclipid>masterclip-7</masterclipid>
						<name>2025-03-20 08-52-56 .mov</name>
						<enabled>TRUE</enabled>
						<duration>31991</duration>
						<rate>
							<timebase>30</timebase>
							<ntsc>TRUE</ntsc>
						</rate>
						<start>11052</start>
						<end>11365</end>
						<in>16086</in>
						<out>16399</out>
						<pproTicksIn>136339582579200</pproTicksIn>
						<pproTicksOut>138992466412800</pproTicksOut>
						<alphatype>none</alphatype>
						<file id="file-7"/>
							<marker>
								<comment>Historico Hidreletricas&#13;Florestas&#13;Povos originarios indigenas&#13;Vazao dos rios</comment>
								<name>Aguas</name>
								<in>22190</in>
								<out>-1</out>
							</marker>
							<marker>
								<comment>Aquecimento global&#13;Emissao de gases&#13;Desmatamento&#13;Energia&#13;Acordos internacionais</comment>
								<name>Futuro</name>
								<in>9988</in>
								<out>-1</out>
							</marker>
							<marker>
								<comment>Custo e subsidio&#13;Politicas publicas&#13;Desmatamento florestas&#13;Agro Agricultura&#13;Transiçao energetica</comment>
								<name>Mineraçao de carvao</name>
								<in>16086</in>
								<out>-1</out>
							</marker>
							<marker>
								<comment>Hidreletricas energia&#13;Rio Tapajos&#13;Barragens</comment>
								<name>Aguas</name>
								<in>29660</in>
								<out>-1</out>
							</marker>
							<marker>
								<comment>Transiçao energetica&#13;Exemplo EUA e China&#13;Explica produçao de gas natural&#13;Aumento do consumo de energia&#13;EUA indo no sentido contrario</comment>
								<name>Energia</name>
								<in>815</in>
								<out>-1</out>
							</marker>
						<link>
							<linkclipref>clipitem-34</linkclipref>
							<mediatype>video</mediatype>
							<trackindex>1</trackindex>
							<clipindex>34</clipindex>
						</link>
						<link>
							<linkclipref>clipitem-165</linkclipref>
							<mediatype>audio</mediatype>
							<trackindex>1</trackindex>
							<clipindex>34</clipindex>
							<groupindex>1</groupindex>
						</link>
						<link>
							<linkclipref>clipitem-263</linkclipref>
							<mediatype>audio</mediatype>
							<trackindex>2</trackindex>
							<clipindex>24</clipindex>
							<groupindex>1</groupindex>
						</link>
						<logginginfo>
							<description></description>
							<scene></scene>
							<shottake></shottake>
							<lognote></lognote>
							<good></good>
							<originalvideofilename></originalvideofilename>
							<originalaudiofilename></originalaudiofilename>
						</logginginfo>
						<colorinfo>
							<lut></lut>
							<lut1></lut1>
							<asc_sop></asc_sop>
							<asc_sat></asc_sat>
							<lut2></lut2>
						</colorinfo>
					</clipitem>
					<clipitem id="clipitem-35">
						<masterclipid>masterclip-4</masterclipid>
						<name>A076_02171014_C018.mov</name>
						<enabled>TRUE</enabled>
						<duration>84290</duration>
						<rate>
							<timebase>30</timebase>
							<ntsc>TRUE</ntsc>
						</rate>
						<start>11365</start>
						<end>11856</end>
						<in>17111</in>
						<out>17602</out>
						<pproTicksIn>145027141459200</pproTicksIn>
						<pproTicksOut>149188694054400</pproTicksOut>
						<alphatype>none</alphatype>
						<file id="file-4"/>
							<marker>
								<comment>Mudanças climaticas&#13;Fontes renovaveis&#13;Tecnologia</comment>
								<name>Transiçao energetica&#13;</name>
								<in>41104</in>
								<out>43931</out>
							</marker>
							<marker>
								<comment>COP&#13;Futuro&#13;Energia eolica&#13;Carvao&#13;Emissao de carbono&#13;Poluiçao&#13;Combustiveis fosseis vs fontes renovaveis&#13;Petroleo&#13;Mobilidade transporte</comment>
								<name>Acordos internacionais</name>
								<in>14788</in>
								<out>20458</out>
							</marker>
							<marker>
								<comment>Investimentos&#13;Combustiveis fosseis&#13;Fontes renovaveis&#13;Eolica solar hidreletrica&#13;Segurança energetica&#13;Tecnologias&#13;Hidrogenio verde&#13;Desigualdade&#13;Saude</comment>
								<name>Energia</name>
								<in>9128</in>
								<out>13946</out>
							</marker>
							<marker>
								<comment>Petroleo&#13;Combustiveis fosseis&#13;Fontes renovaveis&#13;Energia limpa&#13;Transporte mobilidade&#13;Etanol Alcool&#13;Politicas publicas&#13;Plasticos</comment>
								<name>Energia</name>
								<in>32741</in>
								<out>34426</out>
							</marker>
							<marker>
								<comment>Fontes renovaveis&#13;Energia limpa&#13;Tecnologias&#13;Politicas publicas&#13;Economia&#13;Combustiveis fosseis</comment>
								<name>Energia</name>
								<in>72795</in>
								<out>75492</out>
							</marker>
							<marker>
								<comment>Energia eolica&#13;Licenciamento ambiental</comment>
								<name>Energia</name>
								<in>54647</in>
								<out>55838</out>
							</marker>
							<marker>
								<comment>Exemplo Uruguai&#13;Energia limpa eolica</comment>
								<name>Energia</name>
								<in>53289</in>
								<out>54406</out>
							</marker>
							<marker>
								<comment>Energia eolica&#13;Energia limpa&#13;Urbanizaçao&#13;Crescimento populacional&#13;Oceanos&#13;Energia Solar&#13;Nordeste</comment>
								<name>Energia</name>
								<in>46401</in>
								<out>53161</out>
							</marker>
							<marker>
								<comment>Fontes renovaveis&#13;Alcool biomassa&#13;Arroz&#13;Economia</comment>
								<name>Energia</name>
								<in>78607</in>
								<out>82155</out>
							</marker>
							<marker>
								<comment>Impacto ser humano&#13;Aquecimento global&#13;Enchentes secas&#13;Mudanças climaticas&#13;Aumento Intensificaçao eventos climaticos&#13;Efeito estufa&#13;Combustiveis fosseis&#13;Petroleo gas natural carvao nuclear&#13;Matriz energetica Brasil&#13;Hidreletrica eolica solar biomassa&#13;Energia limpa&#13;Fontes renovaveis</comment>
								<name>Energia</name>
								<in>2189</in>
								<out>8597</out>
							</marker>
							<marker>
								<comment>Petroleo&#13;Combustiveis fosseis&#13;Fontes renovaveis&#13;Energia limpa&#13;Transporte mobilidade&#13;Etanol Alcool&#13;Politicas publicas&#13;Plasticos</comment>
								<name>Energia</name>
								<in>22169</in>
								<out>29818</out>
							</marker>
							<marker>
								<comment>Combustiveis fosseis&#13;Comparaçao alcool gasolina petroleo&#13;Economia&#13;Politicas publicas&#13;Tecnologias&#13;Acordos internacionais COP</comment>
								<name>Energia</name>
								<in>34883</in>
								<out>40571</out>
							</marker>
							<marker>
								<comment>Tucurui Itaipu&#13;Fontes renovaveis&#13;Barragens&#13;Aguas rios&#13;Mudanças climaticas&#13;Poluiçao&#13;Cita Belo Monte&#13;CGH PCH</comment>
								<name>Hidreletricas</name>
								<in>64615</in>
								<out>69866</out>
							</marker>
							<marker>
								<comment>Ciclo de Vida&#13;Energia solar&#13;Lixo residuos&#13;Politicas publicas</comment>
								<name>Reciclagem</name>
								<in>57506</in>
								<out>63652</out>
							</marker>
							<marker>
								<comment>Fontes renovaveis vs combustiveis fosseis&#13;Transiçao energetica</comment>
								<name>Energia</name>
								<in>30992</in>
								<out>32590</out>
							</marker>
							<marker>
								<comment>Transiçao energetica&#13;Combustiveis fosseis</comment>
								<name>Futuro</name>
								<in>82259</in>
								<out>-1</out>
							</marker>
						<logginginfo>
							<description></description>
							<scene></scene>
							<shottake></shottake>
							<lognote></lognote>
							<good></good>
							<originalvideofilename></originalvideofilename>
							<originalaudiofilename></originalaudiofilename>
						</logginginfo>
						<colorinfo>
							<lut></lut>
							<lut1></lut1>
							<asc_sop></asc_sop>
							<asc_sat></asc_sat>
							<lut2></lut2>
						</colorinfo>
						<labels>
							<label2>Iris</label2>
						</labels>
					</clipitem>
					<clipitem id="clipitem-36">
						<masterclipid>masterclip-8</masterclipid>
						<name>2025-03-20 08-29-14 .mov</name>
						<enabled>TRUE</enabled>
						<duration>42599</duration>
						<rate>
							<timebase>30</timebase>
							<ntsc>TRUE</ntsc>
						</rate>
						<start>11856</start>
						<end>13448</end>
						<in>12293</in>
						<out>13885</out>
						<pproTicksIn>104191376889600</pproTicksIn>
						<pproTicksOut>117684639072000</pproTicksOut>
						<alphatype>none</alphatype>
						<pixelaspectratio>square</pixelaspectratio>
						<anamorphic>FALSE</anamorphic>
						<file id="file-8">
							<name>2025-03-20 08-29-14 .mov</name>
							<pathurl>file://localhost/Volumes/EDDMA_Pos01/EDDMA_01/BRUTAS/CENAS%20CAPTADAS/20250320/Claudio_Angelo/2025-03-20%2008-29-14%20.mov</pathurl>
							<rate>
								<timebase>30</timebase>
								<ntsc>TRUE</ntsc>
							</rate>
							<duration>42599</duration>
							<timecode>
								<rate>
									<timebase>30</timebase>
									<ntsc>TRUE</ntsc>
								</rate>
								<string>00:00:00:00</string>
								<frame>0</frame>
								<displayformat>NDF</displayformat>
							</timecode>
							<media>
								<video>
									<samplecharacteristics>
										<rate>
											<timebase>30</timebase>
											<ntsc>TRUE</ntsc>
										</rate>
										<width>1920</width>
										<height>1080</height>
										<anamorphic>FALSE</anamorphic>
										<pixelaspectratio>square</pixelaspectratio>
										<fielddominance>none</fielddominance>
									</samplecharacteristics>
								</video>
								<audio>
									<samplecharacteristics>
										<depth>16</depth>
										<samplerate>48000</samplerate>
									</samplecharacteristics>
									<channelcount>2</channelcount>
								</audio>
							</media>
						</file>
							<marker>
								<comment>Impacto na economia&#13;Ajuda na enchente do RS&#13;Energia renovavel mais barata&#13;Transiçao energetica&#13;Politicas publicas e investimentos&#13;Convençao do Clima acordo internacional&#13;Futuro</comment>
								<name>Eventos extremos</name>
								<in>34288</in>
								<out>-1</out>
							</marker>
							<marker>
								<comment>Uso de energia apos revoluçao industrial&#13;Combustiveis fosseis&#13;Carvao mineral e petroleo&#13;Desmatamento</comment>
								<name>Efeito estufa</name>
								<in>12078</in>
								<out>-1</out>
							</marker>
							<marker>
								<comment>Explica que nao e cientista nem especialista</comment>
								<name></name>
								<in>400</in>
								<out>-1</out>
							</marker>
							<marker>
								<comment>Gases da atmosfera&#13;Desequilibrio energetico&#13;Aquecimento global&#13;Previsoes</comment>
								<name>Efeito estufa</name>
								<in>2277</in>
								<out>-1</out>
							</marker>
							<marker>
								<comment>Custo beneficio do uso de energia&#13;Futuro</comment>
								<name>Energia</name>
								<in>16145</in>
								<out>-1</out>
							</marker>
							<marker>
								<comment>Lei da Termodinamica&#13;Nao existe energia limpa&#13;Pegada de carbono&#13;Matriz energetica brasileira&#13;Transiçao energetica&#13;Carvao mineral no RS&#13;Eolica e solar mais barato&#13;Hidreletricas rios e florestas&#13;Transporte mobilidade biocombustivel etanol&#13;Politicas publicas</comment>
								<name>Energia</name>
								<in>19373</in>
								<out>-1</out>
							</marker>
						<link>
							<linkclipref>clipitem-36</linkclipref>
							<mediatype>video</mediatype>
							<trackindex>1</trackindex>
							<clipindex>36</clipindex>
						</link>
						<link>
							<linkclipref>clipitem-167</linkclipref>
							<mediatype>audio</mediatype>
							<trackindex>1</trackindex>
							<clipindex>36</clipindex>
							<groupindex>1</groupindex>
						</link>
						<link>
							<linkclipref>clipitem-265</linkclipref>
							<mediatype>audio</mediatype>
							<trackindex>2</trackindex>
							<clipindex>26</clipindex>
							<groupindex>1</groupindex>
						</link>
						<logginginfo>
							<description></description>
							<scene></scene>
							<shottake></shottake>
							<lognote></lognote>
							<good></good>
							<originalvideofilename></originalvideofilename>
							<originalaudiofilename></originalaudiofilename>
						</logginginfo>
						<colorinfo>
							<lut></lut>
							<lut1></lut1>
							<asc_sop></asc_sop>
							<asc_sat></asc_sat>
							<lut2></lut2>
						</colorinfo>
					</clipitem>
					<clipitem id="clipitem-37">
						<masterclipid>masterclip-8</masterclipid>
						<name>2025-03-20 08-29-14 .mov</name>
						<enabled>TRUE</enabled>
						<duration>42599</duration>
						<rate>
							<timebase>30</timebase>
							<ntsc>TRUE</ntsc>
						</rate>
						<start>13448</start>
						<end>13492</end>
						<in>14473</in>
						<out>14517</out>
						<pproTicksIn>122668331385600</pproTicksIn>
						<pproTicksOut>123041260742400</pproTicksOut>
						<alphatype>none</alphatype>
						<file id="file-8"/>
							<marker>
								<comment>Impacto na economia&#13;Ajuda na enchente do RS&#13;Energia renovavel mais barata&#13;Transiçao energetica&#13;Politicas publicas e investimentos&#13;Convençao do Clima acordo internacional&#13;Futuro</comment>
								<name>Eventos extremos</name>
								<in>34288</in>
								<out>-1</out>
							</marker>
							<marker>
								<comment>Uso de energia apos revoluçao industrial&#13;Combustiveis fosseis&#13;Carvao mineral e petroleo&#13;Desmatamento</comment>
								<name>Efeito estufa</name>
								<in>12078</in>
								<out>-1</out>
							</marker>
							<marker>
								<comment>Explica que nao e cientista nem especialista</comment>
								<name></name>
								<in>400</in>
								<out>-1</out>
							</marker>
							<marker>
								<comment>Gases da atmosfera&#13;Desequilibrio energetico&#13;Aquecimento global&#13;Previsoes</comment>
								<name>Efeito estufa</name>
								<in>2277</in>
								<out>-1</out>
							</marker>
							<marker>
								<comment>Custo beneficio do uso de energia&#13;Futuro</comment>
								<name>Energia</name>
								<in>16145</in>
								<out>-1</out>
							</marker>
							<marker>
								<comment>Lei da Termodinamica&#13;Nao existe energia limpa&#13;Pegada de carbono&#13;Matriz energetica brasileira&#13;Transiçao energetica&#13;Carvao mineral no RS&#13;Eolica e solar mais barato&#13;Hidreletricas rios e florestas&#13;Transporte mobilidade biocombustivel etanol&#13;Politicas publicas</comment>
								<name>Energia</name>
								<in>19373</in>
								<out>-1</out>
							</marker>
						<link>
							<linkclipref>clipitem-37</linkclipref>
							<mediatype>video</mediatype>
							<trackindex>1</trackindex>
							<clipindex>37</clipindex>
						</link>
						<link>
							<linkclipref>clipitem-168</linkclipref>
							<mediatype>audio</mediatype>
							<trackindex>1</trackindex>
							<clipindex>37</clipindex>
							<groupindex>1</groupindex>
						</link>
						<link>
							<linkclipref>clipitem-266</linkclipref>
							<mediatype>audio</mediatype>
							<trackindex>2</trackindex>
							<clipindex>27</clipindex>
							<groupindex>1</groupindex>
						</link>
						<logginginfo>
							<description></description>
							<scene></scene>
							<shottake></shottake>
							<lognote></lognote>
							<good></good>
							<originalvideofilename></originalvideofilename>
							<originalaudiofilename></originalaudiofilename>
						</logginginfo>
						<colorinfo>
							<lut></lut>
							<lut1></lut1>
							<asc_sop></asc_sop>
							<asc_sat></asc_sat>
							<lut2></lut2>
						</colorinfo>
					</clipitem>
					<clipitem id="clipitem-38">
						<masterclipid>masterclip-8</masterclipid>
						<name>2025-03-20 08-29-14 .mov</name>
						<enabled>TRUE</enabled>
						<duration>42599</duration>
						<rate>
							<timebase>30</timebase>
							<ntsc>TRUE</ntsc>
						</rate>
						<start>13492</start>
						<end>13914</end>
						<in>15032</in>
						<out>15454</out>
						<pproTicksIn>127406229350400</pproTicksIn>
						<pproTicksOut>130982960908800</pproTicksOut>
						<alphatype>none</alphatype>
						<file id="file-8"/>
							<marker>
								<comment>Impacto na economia&#13;Ajuda na enchente do RS&#13;Energia renovavel mais barata&#13;Transiçao energetica&#13;Politicas publicas e investimentos&#13;Convençao do Clima acordo internacional&#13;Futuro</comment>
								<name>Eventos extremos</name>
								<in>34288</in>
								<out>-1</out>
							</marker>
							<marker>
								<comment>Uso de energia apos revoluçao industrial&#13;Combustiveis fosseis&#13;Carvao mineral e petroleo&#13;Desmatamento</comment>
								<name>Efeito estufa</name>
								<in>12078</in>
								<out>-1</out>
							</marker>
							<marker>
								<comment>Explica que nao e cientista nem especialista</comment>
								<name></name>
								<in>400</in>
								<out>-1</out>
							</marker>
							<marker>
								<comment>Gases da atmosfera&#13;Desequilibrio energetico&#13;Aquecimento global&#13;Previsoes</comment>
								<name>Efeito estufa</name>
								<in>2277</in>
								<out>-1</out>
							</marker>
							<marker>
								<comment>Custo beneficio do uso de energia&#13;Futuro</comment>
								<name>Energia</name>
								<in>16145</in>
								<out>-1</out>
							</marker>
							<marker>
								<comment>Lei da Termodinamica&#13;Nao existe energia limpa&#13;Pegada de carbono&#13;Matriz energetica brasileira&#13;Transiçao energetica&#13;Carvao mineral no RS&#13;Eolica e solar mais barato&#13;Hidreletricas rios e florestas&#13;Transporte mobilidade biocombustivel etanol&#13;Politicas publicas</comment>
								<name>Energia</name>
								<in>19373</in>
								<out>-1</out>
							</marker>
						<link>
							<linkclipref>clipitem-38</linkclipref>
							<mediatype>video</mediatype>
							<trackindex>1</trackindex>
							<clipindex>38</clipindex>
						</link>
						<link>
							<linkclipref>clipitem-169</linkclipref>
							<mediatype>audio</mediatype>
							<trackindex>1</trackindex>
							<clipindex>38</clipindex>
							<groupindex>1</groupindex>
						</link>
						<link>
							<linkclipref>clipitem-267</linkclipref>
							<mediatype>audio</mediatype>
							<trackindex>2</trackindex>
							<clipindex>28</clipindex>
							<groupindex>1</groupindex>
						</link>
						<logginginfo>
							<description></description>
							<scene></scene>
							<shottake></shottake>
							<lognote></lognote>
							<good></good>
							<originalvideofilename></originalvideofilename>
							<originalaudiofilename></originalaudiofilename>
						</logginginfo>
						<colorinfo>
							<lut></lut>
							<lut1></lut1>
							<asc_sop></asc_sop>
							<asc_sat></asc_sat>
							<lut2></lut2>
						</colorinfo>
					</clipitem>
					<clipitem id="clipitem-39">
						<masterclipid>masterclip-4</masterclipid>
						<name>A076_02171014_C018.mov</name>
						<enabled>TRUE</enabled>
						<duration>84290</duration>
						<rate>
							<timebase>30</timebase>
							<ntsc>TRUE</ntsc>
						</rate>
						<start>13914</start>
						<end>15026</end>
						<in>65048</in>
						<out>66160</out>
						<pproTicksIn>551325200025600</pproTicksIn>
						<pproTicksOut>560750141952000</pproTicksOut>
						<alphatype>none</alphatype>
						<file id="file-4"/>
							<marker>
								<comment>Mudanças climaticas&#13;Fontes renovaveis&#13;Tecnologia</comment>
								<name>Transiçao energetica&#13;</name>
								<in>41104</in>
								<out>43931</out>
							</marker>
							<marker>
								<comment>COP&#13;Futuro&#13;Energia eolica&#13;Carvao&#13;Emissao de carbono&#13;Poluiçao&#13;Combustiveis fosseis vs fontes renovaveis&#13;Petroleo&#13;Mobilidade transporte</comment>
								<name>Acordos internacionais</name>
								<in>14788</in>
								<out>20458</out>
							</marker>
							<marker>
								<comment>Investimentos&#13;Combustiveis fosseis&#13;Fontes renovaveis&#13;Eolica solar hidreletrica&#13;Segurança energetica&#13;Tecnologias&#13;Hidrogenio verde&#13;Desigualdade&#13;Saude</comment>
								<name>Energia</name>
								<in>9128</in>
								<out>13946</out>
							</marker>
							<marker>
								<comment>Petroleo&#13;Combustiveis fosseis&#13;Fontes renovaveis&#13;Energia limpa&#13;Transporte mobilidade&#13;Etanol Alcool&#13;Politicas publicas&#13;Plasticos</comment>
								<name>Energia</name>
								<in>32741</in>
								<out>34426</out>
							</marker>
							<marker>
								<comment>Fontes renovaveis&#13;Energia limpa&#13;Tecnologias&#13;Politicas publicas&#13;Economia&#13;Combustiveis fosseis</comment>
								<name>Energia</name>
								<in>72795</in>
								<out>75492</out>
							</marker>
							<marker>
								<comment>Energia eolica&#13;Licenciamento ambiental</comment>
								<name>Energia</name>
								<in>54647</in>
								<out>55838</out>
							</marker>
							<marker>
								<comment>Exemplo Uruguai&#13;Energia limpa eolica</comment>
								<name>Energia</name>
								<in>53289</in>
								<out>54406</out>
							</marker>
							<marker>
								<comment>Energia eolica&#13;Energia limpa&#13;Urbanizaçao&#13;Crescimento populacional&#13;Oceanos&#13;Energia Solar&#13;Nordeste</comment>
								<name>Energia</name>
								<in>46401</in>
								<out>53161</out>
							</marker>
							<marker>
								<comment>Fontes renovaveis&#13;Alcool biomassa&#13;Arroz&#13;Economia</comment>
								<name>Energia</name>
								<in>78607</in>
								<out>82155</out>
							</marker>
							<marker>
								<comment>Impacto ser humano&#13;Aquecimento global&#13;Enchentes secas&#13;Mudanças climaticas&#13;Aumento Intensificaçao eventos climaticos&#13;Efeito estufa&#13;Combustiveis fosseis&#13;Petroleo gas natural carvao nuclear&#13;Matriz energetica Brasil&#13;Hidreletrica eolica solar biomassa&#13;Energia limpa&#13;Fontes renovaveis</comment>
								<name>Energia</name>
								<in>2189</in>
								<out>8597</out>
							</marker>
							<marker>
								<comment>Petroleo&#13;Combustiveis fosseis&#13;Fontes renovaveis&#13;Energia limpa&#13;Transporte mobilidade&#13;Etanol Alcool&#13;Politicas publicas&#13;Plasticos</comment>
								<name>Energia</name>
								<in>22169</in>
								<out>29818</out>
							</marker>
							<marker>
								<comment>Combustiveis fosseis&#13;Comparaçao alcool gasolina petroleo&#13;Economia&#13;Politicas publicas&#13;Tecnologias&#13;Acordos internacionais COP</comment>
								<name>Energia</name>
								<in>34883</in>
								<out>40571</out>
							</marker>
							<marker>
								<comment>Tucurui Itaipu&#13;Fontes renovaveis&#13;Barragens&#13;Aguas rios&#13;Mudanças climaticas&#13;Poluiçao&#13;Cita Belo Monte&#13;CGH PCH</comment>
								<name>Hidreletricas</name>
								<in>64615</in>
								<out>69866</out>
							</marker>
							<marker>
								<comment>Ciclo de Vida&#13;Energia solar&#13;Lixo residuos&#13;Politicas publicas</comment>
								<name>Reciclagem</name>
								<in>57506</in>
								<out>63652</out>
							</marker>
							<marker>
								<comment>Fontes renovaveis vs combustiveis fosseis&#13;Transiçao energetica</comment>
								<name>Energia</name>
								<in>30992</in>
								<out>32590</out>
							</marker>
							<marker>
								<comment>Transiçao energetica&#13;Combustiveis fosseis</comment>
								<name>Futuro</name>
								<in>82259</in>
								<out>-1</out>
							</marker>
						<logginginfo>
							<description></description>
							<scene></scene>
							<shottake></shottake>
							<lognote></lognote>
							<good></good>
							<originalvideofilename></originalvideofilename>
							<originalaudiofilename></originalaudiofilename>
						</logginginfo>
						<colorinfo>
							<lut></lut>
							<lut1></lut1>
							<asc_sop></asc_sop>
							<asc_sat></asc_sat>
							<lut2></lut2>
						</colorinfo>
						<labels>
							<label2>Iris</label2>
						</labels>
					</clipitem>
					<clipitem id="clipitem-40">
						<masterclipid>masterclip-4</masterclipid>
						<name>A076_02171014_C018.mov</name>
						<enabled>TRUE</enabled>
						<duration>84290</duration>
						<rate>
							<timebase>30</timebase>
							<ntsc>TRUE</ntsc>
						</rate>
						<start>15026</start>
						<end>15176</end>
						<in>66321</in>
						<out>66471</out>
						<pproTicksIn>562114724371200</pproTicksIn>
						<pproTicksOut>563386074451200</pproTicksOut>
						<alphatype>none</alphatype>
						<file id="file-4"/>
							<marker>
								<comment>Mudanças climaticas&#13;Fontes renovaveis&#13;Tecnologia</comment>
								<name>Transiçao energetica&#13;</name>
								<in>41104</in>
								<out>43931</out>
							</marker>
							<marker>
								<comment>COP&#13;Futuro&#13;Energia eolica&#13;Carvao&#13;Emissao de carbono&#13;Poluiçao&#13;Combustiveis fosseis vs fontes renovaveis&#13;Petroleo&#13;Mobilidade transporte</comment>
								<name>Acordos internacionais</name>
								<in>14788</in>
								<out>20458</out>
							</marker>
							<marker>
								<comment>Investimentos&#13;Combustiveis fosseis&#13;Fontes renovaveis&#13;Eolica solar hidreletrica&#13;Segurança energetica&#13;Tecnologias&#13;Hidrogenio verde&#13;Desigualdade&#13;Saude</comment>
								<name>Energia</name>
								<in>9128</in>
								<out>13946</out>
							</marker>
							<marker>
								<comment>Petroleo&#13;Combustiveis fosseis&#13;Fontes renovaveis&#13;Energia limpa&#13;Transporte mobilidade&#13;Etanol Alcool&#13;Politicas publicas&#13;Plasticos</comment>
								<name>Energia</name>
								<in>32741</in>
								<out>34426</out>
							</marker>
							<marker>
								<comment>Fontes renovaveis&#13;Energia limpa&#13;Tecnologias&#13;Politicas publicas&#13;Economia&#13;Combustiveis fosseis</comment>
								<name>Energia</name>
								<in>72795</in>
								<out>75492</out>
							</marker>
							<marker>
								<comment>Energia eolica&#13;Licenciamento ambiental</comment>
								<name>Energia</name>
								<in>54647</in>
								<out>55838</out>
							</marker>
							<marker>
								<comment>Exemplo Uruguai&#13;Energia limpa eolica</comment>
								<name>Energia</name>
								<in>53289</in>
								<out>54406</out>
							</marker>
							<marker>
								<comment>Energia eolica&#13;Energia limpa&#13;Urbanizaçao&#13;Crescimento populacional&#13;Oceanos&#13;Energia Solar&#13;Nordeste</comment>
								<name>Energia</name>
								<in>46401</in>
								<out>53161</out>
							</marker>
							<marker>
								<comment>Fontes renovaveis&#13;Alcool biomassa&#13;Arroz&#13;Economia</comment>
								<name>Energia</name>
								<in>78607</in>
								<out>82155</out>
							</marker>
							<marker>
								<comment>Impacto ser humano&#13;Aquecimento global&#13;Enchentes secas&#13;Mudanças climaticas&#13;Aumento Intensificaçao eventos climaticos&#13;Efeito estufa&#13;Combustiveis fosseis&#13;Petroleo gas natural carvao nuclear&#13;Matriz energetica Brasil&#13;Hidreletrica eolica solar biomassa&#13;Energia limpa&#13;Fontes renovaveis</comment>
								<name>Energia</name>
								<in>2189</in>
								<out>8597</out>
							</marker>
							<marker>
								<comment>Petroleo&#13;Combustiveis fosseis&#13;Fontes renovaveis&#13;Energia limpa&#13;Transporte mobilidade&#13;Etanol Alcool&#13;Politicas publicas&#13;Plasticos</comment>
								<name>Energia</name>
								<in>22169</in>
								<out>29818</out>
							</marker>
							<marker>
								<comment>Combustiveis fosseis&#13;Comparaçao alcool gasolina petroleo&#13;Economia&#13;Politicas publicas&#13;Tecnologias&#13;Acordos internacionais COP</comment>
								<name>Energia</name>
								<in>34883</in>
								<out>40571</out>
							</marker>
							<marker>
								<comment>Tucurui Itaipu&#13;Fontes renovaveis&#13;Barragens&#13;Aguas rios&#13;Mudanças climaticas&#13;Poluiçao&#13;Cita Belo Monte&#13;CGH PCH</comment>
								<name>Hidreletricas</name>
								<in>64615</in>
								<out>69866</out>
							</marker>
							<marker>
								<comment>Ciclo de Vida&#13;Energia solar&#13;Lixo residuos&#13;Politicas publicas</comment>
								<name>Reciclagem</name>
								<in>57506</in>
								<out>63652</out>
							</marker>
							<marker>
								<comment>Fontes renovaveis vs combustiveis fosseis&#13;Transiçao energetica</comment>
								<name>Energia</name>
								<in>30992</in>
								<out>32590</out>
							</marker>
							<marker>
								<comment>Transiçao energetica&#13;Combustiveis fosseis</comment>
								<name>Futuro</name>
								<in>82259</in>
								<out>-1</out>
							</marker>
						<logginginfo>
							<description></description>
							<scene></scene>
							<shottake></shottake>
							<lognote></lognote>
							<good></good>
							<originalvideofilename></originalvideofilename>
							<originalaudiofilename></originalaudiofilename>
						</logginginfo>
						<colorinfo>
							<lut></lut>
							<lut1></lut1>
							<asc_sop></asc_sop>
							<asc_sat></asc_sat>
							<lut2></lut2>
						</colorinfo>
						<labels>
							<label2>Iris</label2>
						</labels>
					</clipitem>
					<clipitem id="clipitem-41">
						<masterclipid>masterclip-4</masterclipid>
						<name>A076_02171014_C018.mov</name>
						<enabled>TRUE</enabled>
						<duration>84290</duration>
						<rate>
							<timebase>30</timebase>
							<ntsc>TRUE</ntsc>
						</rate>
						<start>15176</start>
						<end>15340</end>
						<in>66555</in>
						<out>66719</out>
						<pproTicksIn>564098030496000</pproTicksIn>
						<pproTicksOut>565488039916800</pproTicksOut>
						<alphatype>none</alphatype>
						<file id="file-4"/>
							<marker>
								<comment>Mudanças climaticas&#13;Fontes renovaveis&#13;Tecnologia</comment>
								<name>Transiçao energetica&#13;</name>
								<in>41104</in>
								<out>43931</out>
							</marker>
							<marker>
								<comment>COP&#13;Futuro&#13;Energia eolica&#13;Carvao&#13;Emissao de carbono&#13;Poluiçao&#13;Combustiveis fosseis vs fontes renovaveis&#13;Petroleo&#13;Mobilidade transporte</comment>
								<name>Acordos internacionais</name>
								<in>14788</in>
								<out>20458</out>
							</marker>
							<marker>
								<comment>Investimentos&#13;Combustiveis fosseis&#13;Fontes renovaveis&#13;Eolica solar hidreletrica&#13;Segurança energetica&#13;Tecnologias&#13;Hidrogenio verde&#13;Desigualdade&#13;Saude</comment>
								<name>Energia</name>
								<in>9128</in>
								<out>13946</out>
							</marker>
							<marker>
								<comment>Petroleo&#13;Combustiveis fosseis&#13;Fontes renovaveis&#13;Energia limpa&#13;Transporte mobilidade&#13;Etanol Alcool&#13;Politicas publicas&#13;Plasticos</comment>
								<name>Energia</name>
								<in>32741</in>
								<out>34426</out>
							</marker>
							<marker>
								<comment>Fontes renovaveis&#13;Energia limpa&#13;Tecnologias&#13;Politicas publicas&#13;Economia&#13;Combustiveis fosseis</comment>
								<name>Energia</name>
								<in>72795</in>
								<out>75492</out>
							</marker>
							<marker>
								<comment>Energia eolica&#13;Licenciamento ambiental</comment>
								<name>Energia</name>
								<in>54647</in>
								<out>55838</out>
							</marker>
							<marker>
								<comment>Exemplo Uruguai&#13;Energia limpa eolica</comment>
								<name>Energia</name>
								<in>53289</in>
								<out>54406</out>
							</marker>
							<marker>
								<comment>Energia eolica&#13;Energia limpa&#13;Urbanizaçao&#13;Crescimento populacional&#13;Oceanos&#13;Energia Solar&#13;Nordeste</comment>
								<name>Energia</name>
								<in>46401</in>
								<out>53161</out>
							</marker>
							<marker>
								<comment>Fontes renovaveis&#13;Alcool biomassa&#13;Arroz&#13;Economia</comment>
								<name>Energia</name>
								<in>78607</in>
								<out>82155</out>
							</marker>
							<marker>
								<comment>Impacto ser humano&#13;Aquecimento global&#13;Enchentes secas&#13;Mudanças climaticas&#13;Aumento Intensificaçao eventos climaticos&#13;Efeito estufa&#13;Combustiveis fosseis&#13;Petroleo gas natural carvao nuclear&#13;Matriz energetica Brasil&#13;Hidreletrica eolica solar biomassa&#13;Energia limpa&#13;Fontes renovaveis</comment>
								<name>Energia</name>
								<in>2189</in>
								<out>8597</out>
							</marker>
							<marker>
								<comment>Petroleo&#13;Combustiveis fosseis&#13;Fontes renovaveis&#13;Energia limpa&#13;Transporte mobilidade&#13;Etanol Alcool&#13;Politicas publicas&#13;Plasticos</comment>
								<name>Energia</name>
								<in>22169</in>
								<out>29818</out>
							</marker>
							<marker>
								<comment>Combustiveis fosseis&#13;Comparaçao alcool gasolina petroleo&#13;Economia&#13;Politicas publicas&#13;Tecnologias&#13;Acordos internacionais COP</comment>
								<name>Energia</name>
								<in>34883</in>
								<out>40571</out>
							</marker>
							<marker>
								<comment>Tucurui Itaipu&#13;Fontes renovaveis&#13;Barragens&#13;Aguas rios&#13;Mudanças climaticas&#13;Poluiçao&#13;Cita Belo Monte&#13;CGH PCH</comment>
								<name>Hidreletricas</name>
								<in>64615</in>
								<out>69866</out>
							</marker>
							<marker>
								<comment>Ciclo de Vida&#13;Energia solar&#13;Lixo residuos&#13;Politicas publicas</comment>
								<name>Reciclagem</name>
								<in>57506</in>
								<out>63652</out>
							</marker>
							<marker>
								<comment>Fontes renovaveis vs combustiveis fosseis&#13;Transiçao energetica</comment>
								<name>Energia</name>
								<in>30992</in>
								<out>32590</out>
							</marker>
							<marker>
								<comment>Transiçao energetica&#13;Combustiveis fosseis</comment>
								<name>Futuro</name>
								<in>82259</in>
								<out>-1</out>
							</marker>
						<logginginfo>
							<description></description>
							<scene></scene>
							<shottake></shottake>
							<lognote></lognote>
							<good></good>
							<originalvideofilename></originalvideofilename>
							<originalaudiofilename></originalaudiofilename>
						</logginginfo>
						<colorinfo>
							<lut></lut>
							<lut1></lut1>
							<asc_sop></asc_sop>
							<asc_sat></asc_sat>
							<lut2></lut2>
						</colorinfo>
						<labels>
							<label2>Iris</label2>
						</labels>
					</clipitem>
					<clipitem id="clipitem-42">
						<masterclipid>masterclip-4</masterclipid>
						<name>A076_02171014_C018.mov</name>
						<enabled>TRUE</enabled>
						<duration>84290</duration>
						<rate>
							<timebase>30</timebase>
							<ntsc>TRUE</ntsc>
						</rate>
						<start>15340</start>
						<end>15494</end>
						<in>67743</in>
						<out>67897</out>
						<pproTicksIn>574167123129600</pproTicksIn>
						<pproTicksOut>575472375878400</pproTicksOut>
						<alphatype>none</alphatype>
						<file id="file-4"/>
							<marker>
								<comment>Mudanças climaticas&#13;Fontes renovaveis&#13;Tecnologia</comment>
								<name>Transiçao energetica&#13;</name>
								<in>41104</in>
								<out>43931</out>
							</marker>
							<marker>
								<comment>COP&#13;Futuro&#13;Energia eolica&#13;Carvao&#13;Emissao de carbono&#13;Poluiçao&#13;Combustiveis fosseis vs fontes renovaveis&#13;Petroleo&#13;Mobilidade transporte</comment>
								<name>Acordos internacionais</name>
								<in>14788</in>
								<out>20458</out>
							</marker>
							<marker>
								<comment>Investimentos&#13;Combustiveis fosseis&#13;Fontes renovaveis&#13;Eolica solar hidreletrica&#13;Segurança energetica&#13;Tecnologias&#13;Hidrogenio verde&#13;Desigualdade&#13;Saude</comment>
								<name>Energia</name>
								<in>9128</in>
								<out>13946</out>
							</marker>
							<marker>
								<comment>Petroleo&#13;Combustiveis fosseis&#13;Fontes renovaveis&#13;Energia limpa&#13;Transporte mobilidade&#13;Etanol Alcool&#13;Politicas publicas&#13;Plasticos</comment>
								<name>Energia</name>
								<in>32741</in>
								<out>34426</out>
							</marker>
							<marker>
								<comment>Fontes renovaveis&#13;Energia limpa&#13;Tecnologias&#13;Politicas publicas&#13;Economia&#13;Combustiveis fosseis</comment>
								<name>Energia</name>
								<in>72795</in>
								<out>75492</out>
							</marker>
							<marker>
								<comment>Energia eolica&#13;Licenciamento ambiental</comment>
								<name>Energia</name>
								<in>54647</in>
								<out>55838</out>
							</marker>
							<marker>
								<comment>Exemplo Uruguai&#13;Energia limpa eolica</comment>
								<name>Energia</name>
								<in>53289</in>
								<out>54406</out>
							</marker>
							<marker>
								<comment>Energia eolica&#13;Energia limpa&#13;Urbanizaçao&#13;Crescimento populacional&#13;Oceanos&#13;Energia Solar&#13;Nordeste</comment>
								<name>Energia</name>
								<in>46401</in>
								<out>53161</out>
							</marker>
							<marker>
								<comment>Fontes renovaveis&#13;Alcool biomassa&#13;Arroz&#13;Economia</comment>
								<name>Energia</name>
								<in>78607</in>
								<out>82155</out>
							</marker>
							<marker>
								<comment>Impacto ser humano&#13;Aquecimento global&#13;Enchentes secas&#13;Mudanças climaticas&#13;Aumento Intensificaçao eventos climaticos&#13;Efeito estufa&#13;Combustiveis fosseis&#13;Petroleo gas natural carvao nuclear&#13;Matriz energetica Brasil&#13;Hidreletrica eolica solar biomassa&#13;Energia limpa&#13;Fontes renovaveis</comment>
								<name>Energia</name>
								<in>2189</in>
								<out>8597</out>
							</marker>
							<marker>
								<comment>Petroleo&#13;Combustiveis fosseis&#13;Fontes renovaveis&#13;Energia limpa&#13;Transporte mobilidade&#13;Etanol Alcool&#13;Politicas publicas&#13;Plasticos</comment>
								<name>Energia</name>
								<in>22169</in>
								<out>29818</out>
							</marker>
							<marker>
								<comment>Combustiveis fosseis&#13;Comparaçao alcool gasolina petroleo&#13;Economia&#13;Politicas publicas&#13;Tecnologias&#13;Acordos internacionais COP</comment>
								<name>Energia</name>
								<in>34883</in>
								<out>40571</out>
							</marker>
							<marker>
								<comment>Tucurui Itaipu&#13;Fontes renovaveis&#13;Barragens&#13;Aguas rios&#13;Mudanças climaticas&#13;Poluiçao&#13;Cita Belo Monte&#13;CGH PCH</comment>
								<name>Hidreletricas</name>
								<in>64615</in>
								<out>69866</out>
							</marker>
							<marker>
								<comment>Ciclo de Vida&#13;Energia solar&#13;Lixo residuos&#13;Politicas publicas</comment>
								<name>Reciclagem</name>
								<in>57506</in>
								<out>63652</out>
							</marker>
							<marker>
								<comment>Fontes renovaveis vs combustiveis fosseis&#13;Transiçao energetica</comment>
								<name>Energia</name>
								<in>30992</in>
								<out>32590</out>
							</marker>
							<marker>
								<comment>Transiçao energetica&#13;Combustiveis fosseis</comment>
								<name>Futuro</name>
								<in>82259</in>
								<out>-1</out>
							</marker>
						<logginginfo>
							<description></description>
							<scene></scene>
							<shottake></shottake>
							<lognote></lognote>
							<good></good>
							<originalvideofilename></originalvideofilename>
							<originalaudiofilename></originalaudiofilename>
						</logginginfo>
						<colorinfo>
							<lut></lut>
							<lut1></lut1>
							<asc_sop></asc_sop>
							<asc_sat></asc_sat>
							<lut2></lut2>
						</colorinfo>
						<labels>
							<label2>Iris</label2>
						</labels>
					</clipitem>
					<clipitem id="clipitem-43">
						<masterclipid>masterclip-4</masterclipid>
						<name>A076_02171014_C018.mov</name>
						<enabled>TRUE</enabled>
						<duration>84290</duration>
						<rate>
							<timebase>30</timebase>
							<ntsc>TRUE</ntsc>
						</rate>
						<start>15494</start>
						<end>16016</end>
						<in>66719</in>
						<out>67241</out>
						<pproTicksIn>565488039916800</pproTicksIn>
						<pproTicksOut>569912338195200</pproTicksOut>
						<alphatype>none</alphatype>
						<file id="file-4"/>
							<marker>
								<comment>Mudanças climaticas&#13;Fontes renovaveis&#13;Tecnologia</comment>
								<name>Transiçao energetica&#13;</name>
								<in>41104</in>
								<out>43931</out>
							</marker>
							<marker>
								<comment>COP&#13;Futuro&#13;Energia eolica&#13;Carvao&#13;Emissao de carbono&#13;Poluiçao&#13;Combustiveis fosseis vs fontes renovaveis&#13;Petroleo&#13;Mobilidade transporte</comment>
								<name>Acordos internacionais</name>
								<in>14788</in>
								<out>20458</out>
							</marker>
							<marker>
								<comment>Investimentos&#13;Combustiveis fosseis&#13;Fontes renovaveis&#13;Eolica solar hidreletrica&#13;Segurança energetica&#13;Tecnologias&#13;Hidrogenio verde&#13;Desigualdade&#13;Saude</comment>
								<name>Energia</name>
								<in>9128</in>
								<out>13946</out>
							</marker>
							<marker>
								<comment>Petroleo&#13;Combustiveis fosseis&#13;Fontes renovaveis&#13;Energia limpa&#13;Transporte mobilidade&#13;Etanol Alcool&#13;Politicas publicas&#13;Plasticos</comment>
								<name>Energia</name>
								<in>32741</in>
								<out>34426</out>
							</marker>
							<marker>
								<comment>Fontes renovaveis&#13;Energia limpa&#13;Tecnologias&#13;Politicas publicas&#13;Economia&#13;Combustiveis fosseis</comment>
								<name>Energia</name>
								<in>72795</in>
								<out>75492</out>
							</marker>
							<marker>
								<comment>Energia eolica&#13;Licenciamento ambiental</comment>
								<name>Energia</name>
								<in>54647</in>
								<out>55838</out>
							</marker>
							<marker>
								<comment>Exemplo Uruguai&#13;Energia limpa eolica</comment>
								<name>Energia</name>
								<in>53289</in>
								<out>54406</out>
							</marker>
							<marker>
								<comment>Energia eolica&#13;Energia limpa&#13;Urbanizaçao&#13;Crescimento populacional&#13;Oceanos&#13;Energia Solar&#13;Nordeste</comment>
								<name>Energia</name>
								<in>46401</in>
								<out>53161</out>
							</marker>
							<marker>
								<comment>Fontes renovaveis&#13;Alcool biomassa&#13;Arroz&#13;Economia</comment>
								<name>Energia</name>
								<in>78607</in>
								<out>82155</out>
							</marker>
							<marker>
								<comment>Impacto ser humano&#13;Aquecimento global&#13;Enchentes secas&#13;Mudanças climaticas&#13;Aumento Intensificaçao eventos climaticos&#13;Efeito estufa&#13;Combustiveis fosseis&#13;Petroleo gas natural carvao nuclear&#13;Matriz energetica Brasil&#13;Hidreletrica eolica solar biomassa&#13;Energia limpa&#13;Fontes renovaveis</comment>
								<name>Energia</name>
								<in>2189</in>
								<out>8597</out>
							</marker>
							<marker>
								<comment>Petroleo&#13;Combustiveis fosseis&#13;Fontes renovaveis&#13;Energia limpa&#13;Transporte mobilidade&#13;Etanol Alcool&#13;Politicas publicas&#13;Plasticos</comment>
								<name>Energia</name>
								<in>22169</in>
								<out>29818</out>
							</marker>
							<marker>
								<comment>Combustiveis fosseis&#13;Comparaçao alcool gasolina petroleo&#13;Economia&#13;Politicas publicas&#13;Tecnologias&#13;Acordos internacionais COP</comment>
								<name>Energia</name>
								<in>34883</in>
								<out>40571</out>
							</marker>
							<marker>
								<comment>Tucurui Itaipu&#13;Fontes renovaveis&#13;Barragens&#13;Aguas rios&#13;Mudanças climaticas&#13;Poluiçao&#13;Cita Belo Monte&#13;CGH PCH</comment>
								<name>Hidreletricas</name>
								<in>64615</in>
								<out>69866</out>
							</marker>
							<marker>
								<comment>Ciclo de Vida&#13;Energia solar&#13;Lixo residuos&#13;Politicas publicas</comment>
								<name>Reciclagem</name>
								<in>57506</in>
								<out>63652</out>
							</marker>
							<marker>
								<comment>Fontes renovaveis vs combustiveis fosseis&#13;Transiçao energetica</comment>
								<name>Energia</name>
								<in>30992</in>
								<out>32590</out>
							</marker>
							<marker>
								<comment>Transiçao energetica&#13;Combustiveis fosseis</comment>
								<name>Futuro</name>
								<in>82259</in>
								<out>-1</out>
							</marker>
						<logginginfo>
							<description></description>
							<scene></scene>
							<shottake></shottake>
							<lognote></lognote>
							<good></good>
							<originalvideofilename></originalvideofilename>
							<originalaudiofilename></originalaudiofilename>
						</logginginfo>
						<colorinfo>
							<lut></lut>
							<lut1></lut1>
							<asc_sop></asc_sop>
							<asc_sat></asc_sat>
							<lut2></lut2>
						</colorinfo>
						<labels>
							<label2>Iris</label2>
						</labels>
					</clipitem>
					<clipitem id="clipitem-44">
						<masterclipid>masterclip-4</masterclipid>
						<name>A076_02171014_C018.mov</name>
						<enabled>TRUE</enabled>
						<duration>84290</duration>
						<rate>
							<timebase>30</timebase>
							<ntsc>TRUE</ntsc>
						</rate>
						<start>16016</start>
						<end>16360</end>
						<in>69508</in>
						<out>69852</out>
						<pproTicksIn>589126675737600</pproTicksIn>
						<pproTicksOut>592042305254400</pproTicksOut>
						<alphatype>none</alphatype>
						<file id="file-4"/>
							<marker>
								<comment>Mudanças climaticas&#13;Fontes renovaveis&#13;Tecnologia</comment>
								<name>Transiçao energetica&#13;</name>
								<in>41104</in>
								<out>43931</out>
							</marker>
							<marker>
								<comment>COP&#13;Futuro&#13;Energia eolica&#13;Carvao&#13;Emissao de carbono&#13;Poluiçao&#13;Combustiveis fosseis vs fontes renovaveis&#13;Petroleo&#13;Mobilidade transporte</comment>
								<name>Acordos internacionais</name>
								<in>14788</in>
								<out>20458</out>
							</marker>
							<marker>
								<comment>Investimentos&#13;Combustiveis fosseis&#13;Fontes renovaveis&#13;Eolica solar hidreletrica&#13;Segurança energetica&#13;Tecnologias&#13;Hidrogenio verde&#13;Desigualdade&#13;Saude</comment>
								<name>Energia</name>
								<in>9128</in>
								<out>13946</out>
							</marker>
							<marker>
								<comment>Petroleo&#13;Combustiveis fosseis&#13;Fontes renovaveis&#13;Energia limpa&#13;Transporte mobilidade&#13;Etanol Alcool&#13;Politicas publicas&#13;Plasticos</comment>
								<name>Energia</name>
								<in>32741</in>
								<out>34426</out>
							</marker>
							<marker>
								<comment>Fontes renovaveis&#13;Energia limpa&#13;Tecnologias&#13;Politicas publicas&#13;Economia&#13;Combustiveis fosseis</comment>
								<name>Energia</name>
								<in>72795</in>
								<out>75492</out>
							</marker>
							<marker>
								<comment>Energia eolica&#13;Licenciamento ambiental</comment>
								<name>Energia</name>
								<in>54647</in>
								<out>55838</out>
							</marker>
							<marker>
								<comment>Exemplo Uruguai&#13;Energia limpa eolica</comment>
								<name>Energia</name>
								<in>53289</in>
								<out>54406</out>
							</marker>
							<marker>
								<comment>Energia eolica&#13;Energia limpa&#13;Urbanizaçao&#13;Crescimento populacional&#13;Oceanos&#13;Energia Solar&#13;Nordeste</comment>
								<name>Energia</name>
								<in>46401</in>
								<out>53161</out>
							</marker>
							<marker>
								<comment>Fontes renovaveis&#13;Alcool biomassa&#13;Arroz&#13;Economia</comment>
								<name>Energia</name>
								<in>78607</in>
								<out>82155</out>
							</marker>
							<marker>
								<comment>Impacto ser humano&#13;Aquecimento global&#13;Enchentes secas&#13;Mudanças climaticas&#13;Aumento Intensificaçao eventos climaticos&#13;Efeito estufa&#13;Combustiveis fosseis&#13;Petroleo gas natural carvao nuclear&#13;Matriz energetica Brasil&#13;Hidreletrica eolica solar biomassa&#13;Energia limpa&#13;Fontes renovaveis</comment>
								<name>Energia</name>
								<in>2189</in>
								<out>8597</out>
							</marker>
							<marker>
								<comment>Petroleo&#13;Combustiveis fosseis&#13;Fontes renovaveis&#13;Energia limpa&#13;Transporte mobilidade&#13;Etanol Alcool&#13;Politicas publicas&#13;Plasticos</comment>
								<name>Energia</name>
								<in>22169</in>
								<out>29818</out>
							</marker>
							<marker>
								<comment>Combustiveis fosseis&#13;Comparaçao alcool gasolina petroleo&#13;Economia&#13;Politicas publicas&#13;Tecnologias&#13;Acordos internacionais COP</comment>
								<name>Energia</name>
								<in>34883</in>
								<out>40571</out>
							</marker>
							<marker>
								<comment>Tucurui Itaipu&#13;Fontes renovaveis&#13;Barragens&#13;Aguas rios&#13;Mudanças climaticas&#13;Poluiçao&#13;Cita Belo Monte&#13;CGH PCH</comment>
								<name>Hidreletricas</name>
								<in>64615</in>
								<out>69866</out>
							</marker>
							<marker>
								<comment>Ciclo de Vida&#13;Energia solar&#13;Lixo residuos&#13;Politicas publicas</comment>
								<name>Reciclagem</name>
								<in>57506</in>
								<out>63652</out>
							</marker>
							<marker>
								<comment>Fontes renovaveis vs combustiveis fosseis&#13;Transiçao energetica</comment>
								<name>Energia</name>
								<in>30992</in>
								<out>32590</out>
							</marker>
							<marker>
								<comment>Transiçao energetica&#13;Combustiveis fosseis</comment>
								<name>Futuro</name>
								<in>82259</in>
								<out>-1</out>
							</marker>
						<logginginfo>
							<description></description>
							<scene></scene>
							<shottake></shottake>
							<lognote></lognote>
							<good></good>
							<originalvideofilename></originalvideofilename>
							<originalaudiofilename></originalaudiofilename>
						</logginginfo>
						<colorinfo>
							<lut></lut>
							<lut1></lut1>
							<asc_sop></asc_sop>
							<asc_sat></asc_sat>
							<lut2></lut2>
						</colorinfo>
						<labels>
							<label2>Iris</label2>
						</labels>
					</clipitem>
					<clipitem id="clipitem-45">
						<masterclipid>masterclip-9</masterclipid>
						<name>A058_02040732_C002.mov</name>
						<enabled>TRUE</enabled>
						<duration>87895</duration>
						<rate>
							<timebase>30</timebase>
							<ntsc>TRUE</ntsc>
						</rate>
						<start>16360</start>
						<end>16442</end>
						<in>62340</in>
						<out>62422</out>
						<pproTicksIn>528373093248000</pproTicksIn>
						<pproTicksOut>529068097958400</pproTicksOut>
						<alphatype>none</alphatype>
						<pixelaspectratio>square</pixelaspectratio>
						<anamorphic>FALSE</anamorphic>
						<file id="file-9">
							<name>A058_02040732_C002.mov</name>
							<pathurl>file://localhost/Volumes/EDDMA_Pos01/EDDMA_01/BRUTAS/CENAS%20CAPTADAS/20250502/TRANSCODED/CAM_A/A058/A058_02040732_C002.mov</pathurl>
							<rate>
								<timebase>30</timebase>
								<ntsc>TRUE</ntsc>
							</rate>
							<duration>87895</duration>
							<timecode>
								<rate>
									<timebase>30</timebase>
									<ntsc>TRUE</ntsc>
								</rate>
								<string>13:30:54:23</string>
								<frame>1459643</frame>
								<displayformat>NDF</displayformat>
							</timecode>
							<media>
								<video>
									<samplecharacteristics>
										<rate>
											<timebase>30</timebase>
											<ntsc>TRUE</ntsc>
										</rate>
										<width>1920</width>
										<height>1080</height>
										<anamorphic>FALSE</anamorphic>
										<pixelaspectratio>square</pixelaspectratio>
										<fielddominance>none</fielddominance>
									</samplecharacteristics>
								</video>
								<audio>
									<samplecharacteristics>
										<depth>16</depth>
										<samplerate>48000</samplerate>
									</samplecharacteristics>
									<channelcount>2</channelcount>
								</audio>
							</media>
						</file>
							<marker>
								<comment>Participaçao na AGAPAN&#13;Cita Lutzenberger Augusto Carneiro&#13;Parque da Guarita Torres&#13;Parque de Itapua</comment>
								<name>Luta ambientalista</name>
								<in>30916</in>
								<out>38121</out>
							</marker>
							<marker>
								<comment>Parque da Guarita Torres&#13;Mata atlantica&#13;Cita AGAPAN&#13;Itapeva&#13;Cita Caio Lustosa Lutzenberger</comment>
								<name>Luta ambientalista</name>
								<in>39952</in>
								<out>47990</out>
							</marker>
							<marker>
								<comment>Energia&#13;Aguas rios lagos&#13;Floresta&#13;Cidades urbanizaçao&#13;Consumismo&#13;Povos originarios indigenas&#13;MST</comment>
								<name>Hidreletricas</name>
								<in>58027</in>
								<out>61753</out>
							</marker>
							<marker>
								<comment>Cita Roessler&#13;Educaçao ambiental&#13;Fundaçao da AGAPAN</comment>
								<name>Imprensa Correio do Povo</name>
								<in>49386</in>
								<out>54720</out>
							</marker>
							<marker>
								<comment>Cita Roessler e Augusto Carneiro&#13;Enfrentamentos e risco&#13;Estrutura de fiscalizaçao&#13;Politicas publicas&#13;Brigada Ambiental IBAMA FEPAM</comment>
								<name>Luta ambientalista</name>
								<in>24983</in>
								<out>28278</out>
							</marker>
							<marker>
								<comment>Monoculturas&#13;Exodo rural</comment>
								<name>Agro Agricultura</name>
								<in>77338</in>
								<out>83435</out>
							</marker>
							<marker>
								<comment>Historia luta ambiental&#13;Cita Roessler UPN UPAN&#13;Aguas Rios&#13;Cita diversas associaçoes ONGs</comment>
								<name>AGAPAN</name>
								<in>69658</in>
								<out>75794</out>
							</marker>
							<marker>
								<comment>Futuro&#13;Exodo rural</comment>
								<name>Agro Agricultura</name>
								<in>80775</in>
								<out>82736</out>
							</marker>
							<marker>
								<comment>Energia&#13;Desmatamento&#13;Aguas rios&#13;Licenciamento Barra Grande Falcatrua&#13;Flexibilizaçao das Leis&#13;Consumismo</comment>
								<name>Hidreletricas</name>
								<in>62332</in>
								<out>66439</out>
							</marker>
							<marker>
								<comment>AGAPAN&#13;Pioneiros&#13;Cita Roessler&#13;Uniao Protetora da Natureza UPN&#13;Cita Lutzenberger Augusto Carneiro&#13;Finitude do Planeta&#13;Agro Agricultura&#13;Monoculturas&#13;Agrotoxicos Guerra&#13;Povos originarios&#13;Amazonia&#13;Ditadura militar&#13;ONGs&#13;ECO 72</comment>
								<name>Luta ambientalista</name>
								<in>2899</in>
								<out>22850</out>
							</marker>
						<logginginfo>
							<description></description>
							<scene></scene>
							<shottake></shottake>
							<lognote></lognote>
							<good></good>
							<originalvideofilename></originalvideofilename>
							<originalaudiofilename></originalaudiofilename>
						</logginginfo>
						<colorinfo>
							<lut></lut>
							<lut1></lut1>
							<asc_sop></asc_sop>
							<asc_sat></asc_sat>
							<lut2></lut2>
						</colorinfo>
					</clipitem>
					<clipitem id="clipitem-46">
						<masterclipid>masterclip-9</masterclipid>
						<name>A058_02040732_C002.mov</name>
						<enabled>TRUE</enabled>
						<duration>87895</duration>
						<rate>
							<timebase>30</timebase>
							<ntsc>TRUE</ntsc>
						</rate>
						<start>16442</start>
						<end>16784</end>
						<in>62511</in>
						<out>62853</out>
						<pproTicksIn>529822432339200</pproTicksIn>
						<pproTicksOut>532721110521600</pproTicksOut>
						<alphatype>none</alphatype>
						<file id="file-9"/>
							<marker>
								<comment>Participaçao na AGAPAN&#13;Cita Lutzenberger Augusto Carneiro&#13;Parque da Guarita Torres&#13;Parque de Itapua</comment>
								<name>Luta ambientalista</name>
								<in>30916</in>
								<out>38121</out>
							</marker>
							<marker>
								<comment>Parque da Guarita Torres&#13;Mata atlantica&#13;Cita AGAPAN&#13;Itapeva&#13;Cita Caio Lustosa Lutzenberger</comment>
								<name>Luta ambientalista</name>
								<in>39952</in>
								<out>47990</out>
							</marker>
							<marker>
								<comment>Energia&#13;Aguas rios lagos&#13;Floresta&#13;Cidades urbanizaçao&#13;Consumismo&#13;Povos originarios indigenas&#13;MST</comment>
								<name>Hidreletricas</name>
								<in>58027</in>
								<out>61753</out>
							</marker>
							<marker>
								<comment>Cita Roessler&#13;Educaçao ambiental&#13;Fundaçao da AGAPAN</comment>
								<name>Imprensa Correio do Povo</name>
								<in>49386</in>
								<out>54720</out>
							</marker>
							<marker>
								<comment>Cita Roessler e Augusto Carneiro&#13;Enfrentamentos e risco&#13;Estrutura de fiscalizaçao&#13;Politicas publicas&#13;Brigada Ambiental IBAMA FEPAM</comment>
								<name>Luta ambientalista</name>
								<in>24983</in>
								<out>28278</out>
							</marker>
							<marker>
								<comment>Monoculturas&#13;Exodo rural</comment>
								<name>Agro Agricultura</name>
								<in>77338</in>
								<out>83435</out>
							</marker>
							<marker>
								<comment>Historia luta ambiental&#13;Cita Roessler UPN UPAN&#13;Aguas Rios&#13;Cita diversas associaçoes ONGs</comment>
								<name>AGAPAN</name>
								<in>69658</in>
								<out>75794</out>
							</marker>
							<marker>
								<comment>Futuro&#13;Exodo rural</comment>
								<name>Agro Agricultura</name>
								<in>80775</in>
								<out>82736</out>
							</marker>
							<marker>
								<comment>Energia&#13;Desmatamento&#13;Aguas rios&#13;Licenciamento Barra Grande Falcatrua&#13;Flexibilizaçao das Leis&#13;Consumismo</comment>
								<name>Hidreletricas</name>
								<in>62332</in>
								<out>66439</out>
							</marker>
							<marker>
								<comment>AGAPAN&#13;Pioneiros&#13;Cita Roessler&#13;Uniao Protetora da Natureza UPN&#13;Cita Lutzenberger Augusto Carneiro&#13;Finitude do Planeta&#13;Agro Agricultura&#13;Monoculturas&#13;Agrotoxicos Guerra&#13;Povos originarios&#13;Amazonia&#13;Ditadura militar&#13;ONGs&#13;ECO 72</comment>
								<name>Luta ambientalista</name>
								<in>2899</in>
								<out>22850</out>
							</marker>
						<logginginfo>
							<description></description>
							<scene></scene>
							<shottake></shottake>
							<lognote></lognote>
							<good></good>
							<originalvideofilename></originalvideofilename>
							<originalaudiofilename></originalaudiofilename>
						</logginginfo>
						<colorinfo>
							<lut></lut>
							<lut1></lut1>
							<asc_sop></asc_sop>
							<asc_sat></asc_sat>
							<lut2></lut2>
						</colorinfo>
					</clipitem>
					<clipitem id="clipitem-47">
						<masterclipid>masterclip-9</masterclipid>
						<name>A058_02040732_C002.mov</name>
						<enabled>TRUE</enabled>
						<duration>87895</duration>
						<rate>
							<timebase>30</timebase>
							<ntsc>TRUE</ntsc>
						</rate>
						<start>16784</start>
						<end>17557</end>
						<in>63404</in>
						<out>64177</out>
						<pproTicksIn>537391203148800</pproTicksIn>
						<pproTicksOut>543942893894400</pproTicksOut>
						<alphatype>none</alphatype>
						<file id="file-9"/>
							<marker>
								<comment>Participaçao na AGAPAN&#13;Cita Lutzenberger Augusto Carneiro&#13;Parque da Guarita Torres&#13;Parque de Itapua</comment>
								<name>Luta ambientalista</name>
								<in>30916</in>
								<out>38121</out>
							</marker>
							<marker>
								<comment>Parque da Guarita Torres&#13;Mata atlantica&#13;Cita AGAPAN&#13;Itapeva&#13;Cita Caio Lustosa Lutzenberger</comment>
								<name>Luta ambientalista</name>
								<in>39952</in>
								<out>47990</out>
							</marker>
							<marker>
								<comment>Energia&#13;Aguas rios lagos&#13;Floresta&#13;Cidades urbanizaçao&#13;Consumismo&#13;Povos originarios indigenas&#13;MST</comment>
								<name>Hidreletricas</name>
								<in>58027</in>
								<out>61753</out>
							</marker>
							<marker>
								<comment>Cita Roessler&#13;Educaçao ambiental&#13;Fundaçao da AGAPAN</comment>
								<name>Imprensa Correio do Povo</name>
								<in>49386</in>
								<out>54720</out>
							</marker>
							<marker>
								<comment>Cita Roessler e Augusto Carneiro&#13;Enfrentamentos e risco&#13;Estrutura de fiscalizaçao&#13;Politicas publicas&#13;Brigada Ambiental IBAMA FEPAM</comment>
								<name>Luta ambientalista</name>
								<in>24983</in>
								<out>28278</out>
							</marker>
							<marker>
								<comment>Monoculturas&#13;Exodo rural</comment>
								<name>Agro Agricultura</name>
								<in>77338</in>
								<out>83435</out>
							</marker>
							<marker>
								<comment>Historia luta ambiental&#13;Cita Roessler UPN UPAN&#13;Aguas Rios&#13;Cita diversas associaçoes ONGs</comment>
								<name>AGAPAN</name>
								<in>69658</in>
								<out>75794</out>
							</marker>
							<marker>
								<comment>Futuro&#13;Exodo rural</comment>
								<name>Agro Agricultura</name>
								<in>80775</in>
								<out>82736</out>
							</marker>
							<marker>
								<comment>Energia&#13;Desmatamento&#13;Aguas rios&#13;Licenciamento Barra Grande Falcatrua&#13;Flexibilizaçao das Leis&#13;Consumismo</comment>
								<name>Hidreletricas</name>
								<in>62332</in>
								<out>66439</out>
							</marker>
							<marker>
								<comment>AGAPAN&#13;Pioneiros&#13;Cita Roessler&#13;Uniao Protetora da Natureza UPN&#13;Cita Lutzenberger Augusto Carneiro&#13;Finitude do Planeta&#13;Agro Agricultura&#13;Monoculturas&#13;Agrotoxicos Guerra&#13;Povos originarios&#13;Amazonia&#13;Ditadura militar&#13;ONGs&#13;ECO 72</comment>
								<name>Luta ambientalista</name>
								<in>2899</in>
								<out>22850</out>
							</marker>
						<logginginfo>
							<description></description>
							<scene></scene>
							<shottake></shottake>
							<lognote></lognote>
							<good></good>
							<originalvideofilename></originalvideofilename>
							<originalaudiofilename></originalaudiofilename>
						</logginginfo>
						<colorinfo>
							<lut></lut>
							<lut1></lut1>
							<asc_sop></asc_sop>
							<asc_sat></asc_sat>
							<lut2></lut2>
						</colorinfo>
					</clipitem>
					<clipitem id="clipitem-48">
						<masterclipid>masterclip-9</masterclipid>
						<name>A058_02040732_C002.mov</name>
						<enabled>TRUE</enabled>
						<duration>87895</duration>
						<rate>
							<timebase>30</timebase>
							<ntsc>TRUE</ntsc>
						</rate>
						<start>17557</start>
						<end>17782</end>
						<in>65574</in>
						<out>65799</out>
						<pproTicksIn>555783400972800</pproTicksIn>
						<pproTicksOut>557690426092800</pproTicksOut>
						<alphatype>none</alphatype>
						<file id="file-9"/>
							<marker>
								<comment>Participaçao na AGAPAN&#13;Cita Lutzenberger Augusto Carneiro&#13;Parque da Guarita Torres&#13;Parque de Itapua</comment>
								<name>Luta ambientalista</name>
								<in>30916</in>
								<out>38121</out>
							</marker>
							<marker>
								<comment>Parque da Guarita Torres&#13;Mata atlantica&#13;Cita AGAPAN&#13;Itapeva&#13;Cita Caio Lustosa Lutzenberger</comment>
								<name>Luta ambientalista</name>
								<in>39952</in>
								<out>47990</out>
							</marker>
							<marker>
								<comment>Energia&#13;Aguas rios lagos&#13;Floresta&#13;Cidades urbanizaçao&#13;Consumismo&#13;Povos originarios indigenas&#13;MST</comment>
								<name>Hidreletricas</name>
								<in>58027</in>
								<out>61753</out>
							</marker>
							<marker>
								<comment>Cita Roessler&#13;Educaçao ambiental&#13;Fundaçao da AGAPAN</comment>
								<name>Imprensa Correio do Povo</name>
								<in>49386</in>
								<out>54720</out>
							</marker>
							<marker>
								<comment>Cita Roessler e Augusto Carneiro&#13;Enfrentamentos e risco&#13;Estrutura de fiscalizaçao&#13;Politicas publicas&#13;Brigada Ambiental IBAMA FEPAM</comment>
								<name>Luta ambientalista</name>
								<in>24983</in>
								<out>28278</out>
							</marker>
							<marker>
								<comment>Monoculturas&#13;Exodo rural</comment>
								<name>Agro Agricultura</name>
								<in>77338</in>
								<out>83435</out>
							</marker>
							<marker>
								<comment>Historia luta ambiental&#13;Cita Roessler UPN UPAN&#13;Aguas Rios&#13;Cita diversas associaçoes ONGs</comment>
								<name>AGAPAN</name>
								<in>69658</in>
								<out>75794</out>
							</marker>
							<marker>
								<comment>Futuro&#13;Exodo rural</comment>
								<name>Agro Agricultura</name>
								<in>80775</in>
								<out>82736</out>
							</marker>
							<marker>
								<comment>Energia&#13;Desmatamento&#13;Aguas rios&#13;Licenciamento Barra Grande Falcatrua&#13;Flexibilizaçao das Leis&#13;Consumismo</comment>
								<name>Hidreletricas</name>
								<in>62332</in>
								<out>66439</out>
							</marker>
							<marker>
								<comment>AGAPAN&#13;Pioneiros&#13;Cita Roessler&#13;Uniao Protetora da Natureza UPN&#13;Cita Lutzenberger Augusto Carneiro&#13;Finitude do Planeta&#13;Agro Agricultura&#13;Monoculturas&#13;Agrotoxicos Guerra&#13;Povos originarios&#13;Amazonia&#13;Ditadura militar&#13;ONGs&#13;ECO 72</comment>
								<name>Luta ambientalista</name>
								<in>2899</in>
								<out>22850</out>
							</marker>
						<logginginfo>
							<description></description>
							<scene></scene>
							<shottake></shottake>
							<lognote></lognote>
							<good></good>
							<originalvideofilename></originalvideofilename>
							<originalaudiofilename></originalaudiofilename>
						</logginginfo>
						<colorinfo>
							<lut></lut>
							<lut1></lut1>
							<asc_sop></asc_sop>
							<asc_sat></asc_sat>
							<lut2></lut2>
						</colorinfo>
					</clipitem>
					<clipitem id="clipitem-49">
						<masterclipid>masterclip-9</masterclipid>
						<name>A058_02040732_C002.mov</name>
						<enabled>TRUE</enabled>
						<duration>87895</duration>
						<rate>
							<timebase>30</timebase>
							<ntsc>TRUE</ntsc>
						</rate>
						<start>17782</start>
						<end>17880</end>
						<in>65990</in>
						<out>66088</out>
						<pproTicksIn>559309278528000</pproTicksIn>
						<pproTicksOut>560139893913600</pproTicksOut>
						<alphatype>none</alphatype>
						<file id="file-9"/>
							<marker>
								<comment>Participaçao na AGAPAN&#13;Cita Lutzenberger Augusto Carneiro&#13;Parque da Guarita Torres&#13;Parque de Itapua</comment>
								<name>Luta ambientalista</name>
								<in>30916</in>
								<out>38121</out>
							</marker>
							<marker>
								<comment>Parque da Guarita Torres&#13;Mata atlantica&#13;Cita AGAPAN&#13;Itapeva&#13;Cita Caio Lustosa Lutzenberger</comment>
								<name>Luta ambientalista</name>
								<in>39952</in>
								<out>47990</out>
							</marker>
							<marker>
								<comment>Energia&#13;Aguas rios lagos&#13;Floresta&#13;Cidades urbanizaçao&#13;Consumismo&#13;Povos originarios indigenas&#13;MST</comment>
								<name>Hidreletricas</name>
								<in>58027</in>
								<out>61753</out>
							</marker>
							<marker>
								<comment>Cita Roessler&#13;Educaçao ambiental&#13;Fundaçao da AGAPAN</comment>
								<name>Imprensa Correio do Povo</name>
								<in>49386</in>
								<out>54720</out>
							</marker>
							<marker>
								<comment>Cita Roessler e Augusto Carneiro&#13;Enfrentamentos e risco&#13;Estrutura de fiscalizaçao&#13;Politicas publicas&#13;Brigada Ambiental IBAMA FEPAM</comment>
								<name>Luta ambientalista</name>
								<in>24983</in>
								<out>28278</out>
							</marker>
							<marker>
								<comment>Monoculturas&#13;Exodo rural</comment>
								<name>Agro Agricultura</name>
								<in>77338</in>
								<out>83435</out>
							</marker>
							<marker>
								<comment>Historia luta ambiental&#13;Cita Roessler UPN UPAN&#13;Aguas Rios&#13;Cita diversas associaçoes ONGs</comment>
								<name>AGAPAN</name>
								<in>69658</in>
								<out>75794</out>
							</marker>
							<marker>
								<comment>Futuro&#13;Exodo rural</comment>
								<name>Agro Agricultura</name>
								<in>80775</in>
								<out>82736</out>
							</marker>
							<marker>
								<comment>Energia&#13;Desmatamento&#13;Aguas rios&#13;Licenciamento Barra Grande Falcatrua&#13;Flexibilizaçao das Leis&#13;Consumismo</comment>
								<name>Hidreletricas</name>
								<in>62332</in>
								<out>66439</out>
							</marker>
							<marker>
								<comment>AGAPAN&#13;Pioneiros&#13;Cita Roessler&#13;Uniao Protetora da Natureza UPN&#13;Cita Lutzenberger Augusto Carneiro&#13;Finitude do Planeta&#13;Agro Agricultura&#13;Monoculturas&#13;Agrotoxicos Guerra&#13;Povos originarios&#13;Amazonia&#13;Ditadura militar&#13;ONGs&#13;ECO 72</comment>
								<name>Luta ambientalista</name>
								<in>2899</in>
								<out>22850</out>
							</marker>
						<logginginfo>
							<description></description>
							<scene></scene>
							<shottake></shottake>
							<lognote></lognote>
							<good></good>
							<originalvideofilename></originalvideofilename>
							<originalaudiofilename></originalaudiofilename>
						</logginginfo>
						<colorinfo>
							<lut></lut>
							<lut1></lut1>
							<asc_sop></asc_sop>
							<asc_sat></asc_sat>
							<lut2></lut2>
						</colorinfo>
					</clipitem>
					<clipitem id="clipitem-50">
						<masterclipid>masterclip-10</masterclipid>
						<name>A074_02170310_C001.mov</name>
						<enabled>TRUE</enabled>
						<duration>88120</duration>
						<rate>
							<timebase>30</timebase>
							<ntsc>TRUE</ntsc>
						</rate>
						<start>17880</start>
						<end>17961</end>
						<in>51212</in>
						<out>51293</out>
						<pproTicksIn>434055868646400</pproTicksIn>
						<pproTicksOut>434742397689600</pproTicksOut>
						<alphatype>none</alphatype>
						<pixelaspectratio>square</pixelaspectratio>
						<anamorphic>FALSE</anamorphic>
						<file id="file-10">
							<name>A074_02170310_C001.mov</name>
							<pathurl>file://localhost/Volumes/EDDMA_Pos02/EDDMA_02/BRUTAS/CENAS%20CAPTADAS/20250515_01de02/TRANSCODED/CAM_A/A074/A074_02170310_C001.mov</pathurl>
							<rate>
								<timebase>30</timebase>
								<ntsc>TRUE</ntsc>
							</rate>
							<duration>88120</duration>
							<timecode>
								<rate>
									<timebase>30</timebase>
									<ntsc>TRUE</ntsc>
								</rate>
								<string>09:03:18:09</string>
								<frame>977949</frame>
								<displayformat>NDF</displayformat>
							</timecode>
							<media>
								<video>
									<samplecharacteristics>
										<rate>
											<timebase>30</timebase>
											<ntsc>TRUE</ntsc>
										</rate>
										<width>1920</width>
										<height>1080</height>
										<anamorphic>FALSE</anamorphic>
										<pixelaspectratio>square</pixelaspectratio>
										<fielddominance>none</fielddominance>
									</samplecharacteristics>
								</video>
								<audio>
									<samplecharacteristics>
										<depth>16</depth>
										<samplerate>48000</samplerate>
									</samplecharacteristics>
									<channelcount>2</channelcount>
								</audio>
							</media>
						</file>
							<marker>
								<comment>Sistema capitalista&#13;Mudanças climaticas&#13;Enchente RS&#13;Desigualdade&#13;Solidariedade</comment>
								<name>Coletividade</name>
								<in>4155</in>
								<out>10497</out>
							</marker>
							<marker>
								<comment>COP&#13;Participaçao popular&#13;RIO+20&#13;Economia Verde&#13;Sistema Capitalista&#13;Coletividade&#13;Desigualdade Racismo ambiental&#13;Povos originarios indigenas quilombolas&#13;Pampa&#13;Industria&#13;Agro Agricultura&#13;Energia</comment>
								<name>Acordos internacionais&#13;</name>
								<in>80628</in>
								<out>88034</out>
							</marker>
							<marker>
								<comment>Luta ambientalista&#13;Atingidos&#13;CRAB MST MAB&#13;Rio Uruguai&#13;Hidreletricas&#13;Energia&#13;Rio Madeira&#13;Belo Monte&#13;Povos originarios indigenas&#13;Xingu&#13;Mineraçao ouro</comment>
								<name>Barragens</name>
								<in>73430</in>
								<out>79509</out>
							</marker>
							<marker>
								<comment>Historia&#13;ADFG&#13;Ditadura&#13;Ideologia politica&#13;Tecnologias&#13;Cita Giselda Castro Magda Renner Lutzenberger&#13;Precursores&#13;RS Pioneiro&#13;Mulheres&#13;Crescimento populacional&#13;Urbanizaçao&#13;Consumismo&#13;Inclusao</comment>
								<name>Luta ambientalista</name>
								<in>28843</in>
								<out>46650</out>
							</marker>
							<marker>
								<comment>Sistema capitalista&#13;Agrotoxicos&#13;Agro Agricultura&#13;Mudanças climaticas&#13;Transporte mobilidade&#13;Refugiados climaticos&#13;Desigualdade&#13;Enchente RS&#13;Sementes&#13;Coletividade</comment>
								<name>Economia&#13;</name>
								<in>20949</in>
								<out>26649</out>
							</marker>
							<marker>
								<comment>Fontes renovaveis&#13;Combustiveis fosseis&#13;Consumismo&#13;Solar Eolica&#13;Comunidades locais&#13;Saude mental&#13;Desigualdade&#13;Licenciamento ambiental&#13;Industria&#13;Politicas publicas</comment>
								<name>Energia</name>
								<in>65483</in>
								<out>73090</out>
							</marker>
							<marker>
								<comment>Relato pessoal&#13;Sistema de Proteçao&#13;Atingidos</comment>
								<name>Enchente RS</name>
								<in>11749</in>
								<out>13603</out>
							</marker>
							<marker>
								<comment>FEPAM&#13;Candiota&#13;Mineraçao&#13;Minas Carvao&#13;Aguas rios&#13;Poluiçao&#13;Saude&#13;Apagao&#13;Barragens&#13;Rio Uruguai&#13;Amazonia&#13;Angra III Nuclear&#13;Transiçao energetica&#13;Fontes renovaveis&#13;Emissao de carbono&#13;Efeito estufa&#13;Atingidos&#13;Politicas publicas&#13;Participaçao popular&#13;Industria&#13;Comunidades locais&#13;Economia&#13;Tecnologias</comment>
								<name>Energia</name>
								<in>48683</in>
								<out>64406</out>
							</marker>
							<marker>
								<comment>Biodiversidade&#13;Aguas rios&#13;Agro Agricultura&#13;Monocultura&#13;Povos originarios indigenas quilombolas&#13;Participaçao popular&#13;Politicas publicas&#13;Campo e Cidade</comment>
								<name>Conceito Territorio</name>
								<in>15277</in>
								<out>20534</out>
							</marker>
						<logginginfo>
							<description></description>
							<scene></scene>
							<shottake></shottake>
							<lognote></lognote>
							<good></good>
							<originalvideofilename></originalvideofilename>
							<originalaudiofilename></originalaudiofilename>
						</logginginfo>
						<colorinfo>
							<lut></lut>
							<lut1></lut1>
							<asc_sop></asc_sop>
							<asc_sat></asc_sat>
							<lut2></lut2>
						</colorinfo>
						<labels>
							<label2>Iris</label2>
						</labels>
					</clipitem>
					<clipitem id="clipitem-51">
						<masterclipid>masterclip-10</masterclipid>
						<name>A074_02170310_C001.mov</name>
						<enabled>TRUE</enabled>
						<duration>88120</duration>
						<rate>
							<timebase>30</timebase>
							<ntsc>TRUE</ntsc>
						</rate>
						<start>17961</start>
						<end>18317</end>
						<in>51489</in>
						<out>51845</out>
						<pproTicksIn>436403628460800</pproTicksIn>
						<pproTicksOut>439420965984000</pproTicksOut>
						<alphatype>none</alphatype>
						<file id="file-10"/>
							<marker>
								<comment>Sistema capitalista&#13;Mudanças climaticas&#13;Enchente RS&#13;Desigualdade&#13;Solidariedade</comment>
								<name>Coletividade</name>
								<in>4155</in>
								<out>10497</out>
							</marker>
							<marker>
								<comment>COP&#13;Participaçao popular&#13;RIO+20&#13;Economia Verde&#13;Sistema Capitalista&#13;Coletividade&#13;Desigualdade Racismo ambiental&#13;Povos originarios indigenas quilombolas&#13;Pampa&#13;Industria&#13;Agro Agricultura&#13;Energia</comment>
								<name>Acordos internacionais&#13;</name>
								<in>80628</in>
								<out>88034</out>
							</marker>
							<marker>
								<comment>Luta ambientalista&#13;Atingidos&#13;CRAB MST MAB&#13;Rio Uruguai&#13;Hidreletricas&#13;Energia&#13;Rio Madeira&#13;Belo Monte&#13;Povos originarios indigenas&#13;Xingu&#13;Mineraçao ouro</comment>
								<name>Barragens</name>
								<in>73430</in>
								<out>79509</out>
							</marker>
							<marker>
								<comment>Historia&#13;ADFG&#13;Ditadura&#13;Ideologia politica&#13;Tecnologias&#13;Cita Giselda Castro Magda Renner Lutzenberger&#13;Precursores&#13;RS Pioneiro&#13;Mulheres&#13;Crescimento populacional&#13;Urbanizaçao&#13;Consumismo&#13;Inclusao</comment>
								<name>Luta ambientalista</name>
								<in>28843</in>
								<out>46650</out>
							</marker>
							<marker>
								<comment>Sistema capitalista&#13;Agrotoxicos&#13;Agro Agricultura&#13;Mudanças climaticas&#13;Transporte mobilidade&#13;Refugiados climaticos&#13;Desigualdade&#13;Enchente RS&#13;Sementes&#13;Coletividade</comment>
								<name>Economia&#13;</name>
								<in>20949</in>
								<out>26649</out>
							</marker>
							<marker>
								<comment>Fontes renovaveis&#13;Combustiveis fosseis&#13;Consumismo&#13;Solar Eolica&#13;Comunidades locais&#13;Saude mental&#13;Desigualdade&#13;Licenciamento ambiental&#13;Industria&#13;Politicas publicas</comment>
								<name>Energia</name>
								<in>65483</in>
								<out>73090</out>
							</marker>
							<marker>
								<comment>Relato pessoal&#13;Sistema de Proteçao&#13;Atingidos</comment>
								<name>Enchente RS</name>
								<in>11749</in>
								<out>13603</out>
							</marker>
							<marker>
								<comment>FEPAM&#13;Candiota&#13;Mineraçao&#13;Minas Carvao&#13;Aguas rios&#13;Poluiçao&#13;Saude&#13;Apagao&#13;Barragens&#13;Rio Uruguai&#13;Amazonia&#13;Angra III Nuclear&#13;Transiçao energetica&#13;Fontes renovaveis&#13;Emissao de carbono&#13;Efeito estufa&#13;Atingidos&#13;Politicas publicas&#13;Participaçao popular&#13;Industria&#13;Comunidades locais&#13;Economia&#13;Tecnologias</comment>
								<name>Energia</name>
								<in>48683</in>
								<out>64406</out>
							</marker>
							<marker>
								<comment>Biodiversidade&#13;Aguas rios&#13;Agro Agricultura&#13;Monocultura&#13;Povos originarios indigenas quilombolas&#13;Participaçao popular&#13;Politicas publicas&#13;Campo e Cidade</comment>
								<name>Conceito Territorio</name>
								<in>15277</in>
								<out>20534</out>
							</marker>
						<logginginfo>
							<description></description>
							<scene></scene>
							<shottake></shottake>
							<lognote></lognote>
							<good></good>
							<originalvideofilename></originalvideofilename>
							<originalaudiofilename></originalaudiofilename>
						</logginginfo>
						<colorinfo>
							<lut></lut>
							<lut1></lut1>
							<asc_sop></asc_sop>
							<asc_sat></asc_sat>
							<lut2></lut2>
						</colorinfo>
						<labels>
							<label2>Iris</label2>
						</labels>
					</clipitem>
					<clipitem id="clipitem-52">
						<masterclipid>masterclip-10</masterclipid>
						<name>A074_02170310_C001.mov</name>
						<enabled>TRUE</enabled>
						<duration>88120</duration>
						<rate>
							<timebase>30</timebase>
							<ntsc>TRUE</ntsc>
						</rate>
						<start>18317</start>
						<end>18647</end>
						<in>53679</in>
						<out>54009</out>
						<pproTicksIn>454965339628800</pproTicksIn>
						<pproTicksOut>457762309804800</pproTicksOut>
						<alphatype>none</alphatype>
						<file id="file-10"/>
							<marker>
								<comment>Sistema capitalista&#13;Mudanças climaticas&#13;Enchente RS&#13;Desigualdade&#13;Solidariedade</comment>
								<name>Coletividade</name>
								<in>4155</in>
								<out>10497</out>
							</marker>
							<marker>
								<comment>COP&#13;Participaçao popular&#13;RIO+20&#13;Economia Verde&#13;Sistema Capitalista&#13;Coletividade&#13;Desigualdade Racismo ambiental&#13;Povos originarios indigenas quilombolas&#13;Pampa&#13;Industria&#13;Agro Agricultura&#13;Energia</comment>
								<name>Acordos internacionais&#13;</name>
								<in>80628</in>
								<out>88034</out>
							</marker>
							<marker>
								<comment>Luta ambientalista&#13;Atingidos&#13;CRAB MST MAB&#13;Rio Uruguai&#13;Hidreletricas&#13;Energia&#13;Rio Madeira&#13;Belo Monte&#13;Povos originarios indigenas&#13;Xingu&#13;Mineraçao ouro</comment>
								<name>Barragens</name>
								<in>73430</in>
								<out>79509</out>
							</marker>
							<marker>
								<comment>Historia&#13;ADFG&#13;Ditadura&#13;Ideologia politica&#13;Tecnologias&#13;Cita Giselda Castro Magda Renner Lutzenberger&#13;Precursores&#13;RS Pioneiro&#13;Mulheres&#13;Crescimento populacional&#13;Urbanizaçao&#13;Consumismo&#13;Inclusao</comment>
								<name>Luta ambientalista</name>
								<in>28843</in>
								<out>46650</out>
							</marker>
							<marker>
								<comment>Sistema capitalista&#13;Agrotoxicos&#13;Agro Agricultura&#13;Mudanças climaticas&#13;Transporte mobilidade&#13;Refugiados climaticos&#13;Desigualdade&#13;Enchente RS&#13;Sementes&#13;Coletividade</comment>
								<name>Economia&#13;</name>
								<in>20949</in>
								<out>26649</out>
							</marker>
							<marker>
								<comment>Fontes renovaveis&#13;Combustiveis fosseis&#13;Consumismo&#13;Solar Eolica&#13;Comunidades locais&#13;Saude mental&#13;Desigualdade&#13;Licenciamento ambiental&#13;Industria&#13;Politicas publicas</comment>
								<name>Energia</name>
								<in>65483</in>
								<out>73090</out>
							</marker>
							<marker>
								<comment>Relato pessoal&#13;Sistema de Proteçao&#13;Atingidos</comment>
								<name>Enchente RS</name>
								<in>11749</in>
								<out>13603</out>
							</marker>
							<marker>
								<comment>FEPAM&#13;Candiota&#13;Mineraçao&#13;Minas Carvao&#13;Aguas rios&#13;Poluiçao&#13;Saude&#13;Apagao&#13;Barragens&#13;Rio Uruguai&#13;Amazonia&#13;Angra III Nuclear&#13;Transiçao energetica&#13;Fontes renovaveis&#13;Emissao de carbono&#13;Efeito estufa&#13;Atingidos&#13;Politicas publicas&#13;Participaçao popular&#13;Industria&#13;Comunidades locais&#13;Economia&#13;Tecnologias</comment>
								<name>Energia</name>
								<in>48683</in>
								<out>64406</out>
							</marker>
							<marker>
								<comment>Biodiversidade&#13;Aguas rios&#13;Agro Agricultura&#13;Monocultura&#13;Povos originarios indigenas quilombolas&#13;Participaçao popular&#13;Politicas publicas&#13;Campo e Cidade</comment>
								<name>Conceito Territorio</name>
								<in>15277</in>
								<out>20534</out>
							</marker>
						<logginginfo>
							<description></description>
							<scene></scene>
							<shottake></shottake>
							<lognote></lognote>
							<good></good>
							<originalvideofilename></originalvideofilename>
							<originalaudiofilename></originalaudiofilename>
						</logginginfo>
						<colorinfo>
							<lut></lut>
							<lut1></lut1>
							<asc_sop></asc_sop>
							<asc_sat></asc_sat>
							<lut2></lut2>
						</colorinfo>
						<labels>
							<label2>Iris</label2>
						</labels>
					</clipitem>
					<clipitem id="clipitem-53">
						<masterclipid>masterclip-10</masterclipid>
						<name>A074_02170310_C001.mov</name>
						<enabled>TRUE</enabled>
						<duration>88120</duration>
						<rate>
							<timebase>30</timebase>
							<ntsc>TRUE</ntsc>
						</rate>
						<start>18647</start>
						<end>18969</end>
						<in>54017</in>
						<out>54339</out>
						<pproTicksIn>457830115142400</pproTicksIn>
						<pproTicksOut>460559279980800</pproTicksOut>
						<alphatype>none</alphatype>
						<file id="file-10"/>
							<marker>
								<comment>Sistema capitalista&#13;Mudanças climaticas&#13;Enchente RS&#13;Desigualdade&#13;Solidariedade</comment>
								<name>Coletividade</name>
								<in>4155</in>
								<out>10497</out>
							</marker>
							<marker>
								<comment>COP&#13;Participaçao popular&#13;RIO+20&#13;Economia Verde&#13;Sistema Capitalista&#13;Coletividade&#13;Desigualdade Racismo ambiental&#13;Povos originarios indigenas quilombolas&#13;Pampa&#13;Industria&#13;Agro Agricultura&#13;Energia</comment>
								<name>Acordos internacionais&#13;</name>
								<in>80628</in>
								<out>88034</out>
							</marker>
							<marker>
								<comment>Luta ambientalista&#13;Atingidos&#13;CRAB MST MAB&#13;Rio Uruguai&#13;Hidreletricas&#13;Energia&#13;Rio Madeira&#13;Belo Monte&#13;Povos originarios indigenas&#13;Xingu&#13;Mineraçao ouro</comment>
								<name>Barragens</name>
								<in>73430</in>
								<out>79509</out>
							</marker>
							<marker>
								<comment>Historia&#13;ADFG&#13;Ditadura&#13;Ideologia politica&#13;Tecnologias&#13;Cita Giselda Castro Magda Renner Lutzenberger&#13;Precursores&#13;RS Pioneiro&#13;Mulheres&#13;Crescimento populacional&#13;Urbanizaçao&#13;Consumismo&#13;Inclusao</comment>
								<name>Luta ambientalista</name>
								<in>28843</in>
								<out>46650</out>
							</marker>
							<marker>
								<comment>Sistema capitalista&#13;Agrotoxicos&#13;Agro Agricultura&#13;Mudanças climaticas&#13;Transporte mobilidade&#13;Refugiados climaticos&#13;Desigualdade&#13;Enchente RS&#13;Sementes&#13;Coletividade</comment>
								<name>Economia&#13;</name>
								<in>20949</in>
								<out>26649</out>
							</marker>
							<marker>
								<comment>Fontes renovaveis&#13;Combustiveis fosseis&#13;Consumismo&#13;Solar Eolica&#13;Comunidades locais&#13;Saude mental&#13;Desigualdade&#13;Licenciamento ambiental&#13;Industria&#13;Politicas publicas</comment>
								<name>Energia</name>
								<in>65483</in>
								<out>73090</out>
							</marker>
							<marker>
								<comment>Relato pessoal&#13;Sistema de Proteçao&#13;Atingidos</comment>
								<name>Enchente RS</name>
								<in>11749</in>
								<out>13603</out>
							</marker>
							<marker>
								<comment>FEPAM&#13;Candiota&#13;Mineraçao&#13;Minas Carvao&#13;Aguas rios&#13;Poluiçao&#13;Saude&#13;Apagao&#13;Barragens&#13;Rio Uruguai&#13;Amazonia&#13;Angra III Nuclear&#13;Transiçao energetica&#13;Fontes renovaveis&#13;Emissao de carbono&#13;Efeito estufa&#13;Atingidos&#13;Politicas publicas&#13;Participaçao popular&#13;Industria&#13;Comunidades locais&#13;Economia&#13;Tecnologias</comment>
								<name>Energia</name>
								<in>48683</in>
								<out>64406</out>
							</marker>
							<marker>
								<comment>Biodiversidade&#13;Aguas rios&#13;Agro Agricultura&#13;Monocultura&#13;Povos originarios indigenas quilombolas&#13;Participaçao popular&#13;Politicas publicas&#13;Campo e Cidade</comment>
								<name>Conceito Territorio</name>
								<in>15277</in>
								<out>20534</out>
							</marker>
						<logginginfo>
							<description></description>
							<scene></scene>
							<shottake></shottake>
							<lognote></lognote>
							<good></good>
							<originalvideofilename></originalvideofilename>
							<originalaudiofilename></originalaudiofilename>
						</logginginfo>
						<colorinfo>
							<lut></lut>
							<lut1></lut1>
							<asc_sop></asc_sop>
							<asc_sat></asc_sat>
							<lut2></lut2>
						</colorinfo>
						<labels>
							<label2>Iris</label2>
						</labels>
					</clipitem>
					<clipitem id="clipitem-54">
						<masterclipid>masterclip-6</masterclipid>
						<name>A048_02020538_C030.mov</name>
						<enabled>TRUE</enabled>
						<duration>74175</duration>
						<rate>
							<timebase>30</timebase>
							<ntsc>TRUE</ntsc>
						</rate>
						<start>18969</start>
						<end>19523</end>
						<in>14348</in>
						<out>14902</out>
						<pproTicksIn>121608872985600</pproTicksIn>
						<pproTicksOut>126304392614400</pproTicksOut>
						<alphatype>none</alphatype>
						<file id="file-6"/>
						<logginginfo>
							<description></description>
							<scene></scene>
							<shottake></shottake>
							<lognote></lognote>
							<good></good>
							<originalvideofilename></originalvideofilename>
							<originalaudiofilename></originalaudiofilename>
						</logginginfo>
						<colorinfo>
							<lut></lut>
							<lut1></lut1>
							<asc_sop></asc_sop>
							<asc_sat></asc_sat>
							<lut2></lut2>
						</colorinfo>
						<labels>
							<label2>Iris</label2>
						</labels>
					</clipitem>
					<clipitem id="clipitem-55">
						<masterclipid>masterclip-6</masterclipid>
						<name>A048_02020538_C030.mov</name>
						<enabled>TRUE</enabled>
						<duration>74175</duration>
						<rate>
							<timebase>30</timebase>
							<ntsc>TRUE</ntsc>
						</rate>
						<start>19523</start>
						<end>19651</end>
						<in>15077</in>
						<out>15205</out>
						<pproTicksIn>127787634374400</pproTicksIn>
						<pproTicksOut>128872519776000</pproTicksOut>
						<alphatype>none</alphatype>
						<file id="file-6"/>
						<logginginfo>
							<description></description>
							<scene></scene>
							<shottake></shottake>
							<lognote></lognote>
							<good></good>
							<originalvideofilename></originalvideofilename>
							<originalaudiofilename></originalaudiofilename>
						</logginginfo>
						<colorinfo>
							<lut></lut>
							<lut1></lut1>
							<asc_sop></asc_sop>
							<asc_sat></asc_sat>
							<lut2></lut2>
						</colorinfo>
						<labels>
							<label2>Iris</label2>
						</labels>
					</clipitem>
					<clipitem id="clipitem-56">
						<masterclipid>masterclip-4</masterclipid>
						<name>A076_02171014_C018.mov</name>
						<enabled>TRUE</enabled>
						<duration>84290</duration>
						<rate>
							<timebase>30</timebase>
							<ntsc>TRUE</ntsc>
						</rate>
						<start>19651</start>
						<end>19972</end>
						<in>72895</in>
						<out>73216</out>
						<pproTicksIn>617833760544000</pproTicksIn>
						<pproTicksOut>620554449715200</pproTicksOut>
						<alphatype>none</alphatype>
						<file id="file-4"/>
							<marker>
								<comment>Mudanças climaticas&#13;Fontes renovaveis&#13;Tecnologia</comment>
								<name>Transiçao energetica&#13;</name>
								<in>41104</in>
								<out>43931</out>
							</marker>
							<marker>
								<comment>COP&#13;Futuro&#13;Energia eolica&#13;Carvao&#13;Emissao de carbono&#13;Poluiçao&#13;Combustiveis fosseis vs fontes renovaveis&#13;Petroleo&#13;Mobilidade transporte</comment>
								<name>Acordos internacionais</name>
								<in>14788</in>
								<out>20458</out>
							</marker>
							<marker>
								<comment>Investimentos&#13;Combustiveis fosseis&#13;Fontes renovaveis&#13;Eolica solar hidreletrica&#13;Segurança energetica&#13;Tecnologias&#13;Hidrogenio verde&#13;Desigualdade&#13;Saude</comment>
								<name>Energia</name>
								<in>9128</in>
								<out>13946</out>
							</marker>
							<marker>
								<comment>Petroleo&#13;Combustiveis fosseis&#13;Fontes renovaveis&#13;Energia limpa&#13;Transporte mobilidade&#13;Etanol Alcool&#13;Politicas publicas&#13;Plasticos</comment>
								<name>Energia</name>
								<in>32741</in>
								<out>34426</out>
							</marker>
							<marker>
								<comment>Fontes renovaveis&#13;Energia limpa&#13;Tecnologias&#13;Politicas publicas&#13;Economia&#13;Combustiveis fosseis</comment>
								<name>Energia</name>
								<in>72795</in>
								<out>75492</out>
							</marker>
							<marker>
								<comment>Energia eolica&#13;Licenciamento ambiental</comment>
								<name>Energia</name>
								<in>54647</in>
								<out>55838</out>
							</marker>
							<marker>
								<comment>Exemplo Uruguai&#13;Energia limpa eolica</comment>
								<name>Energia</name>
								<in>53289</in>
								<out>54406</out>
							</marker>
							<marker>
								<comment>Energia eolica&#13;Energia limpa&#13;Urbanizaçao&#13;Crescimento populacional&#13;Oceanos&#13;Energia Solar&#13;Nordeste</comment>
								<name>Energia</name>
								<in>46401</in>
								<out>53161</out>
							</marker>
							<marker>
								<comment>Fontes renovaveis&#13;Alcool biomassa&#13;Arroz&#13;Economia</comment>
								<name>Energia</name>
								<in>78607</in>
								<out>82155</out>
							</marker>
							<marker>
								<comment>Impacto ser humano&#13;Aquecimento global&#13;Enchentes secas&#13;Mudanças climaticas&#13;Aumento Intensificaçao eventos climaticos&#13;Efeito estufa&#13;Combustiveis fosseis&#13;Petroleo gas natural carvao nuclear&#13;Matriz energetica Brasil&#13;Hidreletrica eolica solar biomassa&#13;Energia limpa&#13;Fontes renovaveis</comment>
								<name>Energia</name>
								<in>2189</in>
								<out>8597</out>
							</marker>
							<marker>
								<comment>Petroleo&#13;Combustiveis fosseis&#13;Fontes renovaveis&#13;Energia limpa&#13;Transporte mobilidade&#13;Etanol Alcool&#13;Politicas publicas&#13;Plasticos</comment>
								<name>Energia</name>
								<in>22169</in>
								<out>29818</out>
							</marker>
							<marker>
								<comment>Combustiveis fosseis&#13;Comparaçao alcool gasolina petroleo&#13;Economia&#13;Politicas publicas&#13;Tecnologias&#13;Acordos internacionais COP</comment>
								<name>Energia</name>
								<in>34883</in>
								<out>40571</out>
							</marker>
							<marker>
								<comment>Tucurui Itaipu&#13;Fontes renovaveis&#13;Barragens&#13;Aguas rios&#13;Mudanças climaticas&#13;Poluiçao&#13;Cita Belo Monte&#13;CGH PCH</comment>
								<name>Hidreletricas</name>
								<in>64615</in>
								<out>69866</out>
							</marker>
							<marker>
								<comment>Ciclo de Vida&#13;Energia solar&#13;Lixo residuos&#13;Politicas publicas</comment>
								<name>Reciclagem</name>
								<in>57506</in>
								<out>63652</out>
							</marker>
							<marker>
								<comment>Fontes renovaveis vs combustiveis fosseis&#13;Transiçao energetica</comment>
								<name>Energia</name>
								<in>30992</in>
								<out>32590</out>
							</marker>
							<marker>
								<comment>Transiçao energetica&#13;Combustiveis fosseis</comment>
								<name>Futuro</name>
								<in>82259</in>
								<out>-1</out>
							</marker>
						<logginginfo>
							<description></description>
							<scene></scene>
							<shottake></shottake>
							<lognote></lognote>
							<good></good>
							<originalvideofilename></originalvideofilename>
							<originalaudiofilename></originalaudiofilename>
						</logginginfo>
						<colorinfo>
							<lut></lut>
							<lut1></lut1>
							<asc_sop></asc_sop>
							<asc_sat></asc_sat>
							<lut2></lut2>
						</colorinfo>
						<labels>
							<label2>Iris</label2>
						</labels>
					</clipitem>
					<clipitem id="clipitem-57">
						<masterclipid>masterclip-4</masterclipid>
						<name>A076_02171014_C018.mov</name>
						<enabled>TRUE</enabled>
						<duration>84290</duration>
						<rate>
							<timebase>30</timebase>
							<ntsc>TRUE</ntsc>
						</rate>
						<start>19972</start>
						<end>20691</end>
						<in>73586</in>
						<out>74305</out>
						<pproTicksIn>623690446579200</pproTicksIn>
						<pproTicksOut>629784451296000</pproTicksOut>
						<alphatype>none</alphatype>
						<file id="file-4"/>
							<marker>
								<comment>Mudanças climaticas&#13;Fontes renovaveis&#13;Tecnologia</comment>
								<name>Transiçao energetica&#13;</name>
								<in>41104</in>
								<out>43931</out>
							</marker>
							<marker>
								<comment>COP&#13;Futuro&#13;Energia eolica&#13;Carvao&#13;Emissao de carbono&#13;Poluiçao&#13;Combustiveis fosseis vs fontes renovaveis&#13;Petroleo&#13;Mobilidade transporte</comment>
								<name>Acordos internacionais</name>
								<in>14788</in>
								<out>20458</out>
							</marker>
							<marker>
								<comment>Investimentos&#13;Combustiveis fosseis&#13;Fontes renovaveis&#13;Eolica solar hidreletrica&#13;Segurança energetica&#13;Tecnologias&#13;Hidrogenio verde&#13;Desigualdade&#13;Saude</comment>
								<name>Energia</name>
								<in>9128</in>
								<out>13946</out>
							</marker>
							<marker>
								<comment>Petroleo&#13;Combustiveis fosseis&#13;Fontes renovaveis&#13;Energia limpa&#13;Transporte mobilidade&#13;Etanol Alcool&#13;Politicas publicas&#13;Plasticos</comment>
								<name>Energia</name>
								<in>32741</in>
								<out>34426</out>
							</marker>
							<marker>
								<comment>Fontes renovaveis&#13;Energia limpa&#13;Tecnologias&#13;Politicas publicas&#13;Economia&#13;Combustiveis fosseis</comment>
								<name>Energia</name>
								<in>72795</in>
								<out>75492</out>
							</marker>
							<marker>
								<comment>Energia eolica&#13;Licenciamento ambiental</comment>
								<name>Energia</name>
								<in>54647</in>
								<out>55838</out>
							</marker>
							<marker>
								<comment>Exemplo Uruguai&#13;Energia limpa eolica</comment>
								<name>Energia</name>
								<in>53289</in>
								<out>54406</out>
							</marker>
							<marker>
								<comment>Energia eolica&#13;Energia limpa&#13;Urbanizaçao&#13;Crescimento populacional&#13;Oceanos&#13;Energia Solar&#13;Nordeste</comment>
								<name>Energia</name>
								<in>46401</in>
								<out>53161</out>
							</marker>
							<marker>
								<comment>Fontes renovaveis&#13;Alcool biomassa&#13;Arroz&#13;Economia</comment>
								<name>Energia</name>
								<in>78607</in>
								<out>82155</out>
							</marker>
							<marker>
								<comment>Impacto ser humano&#13;Aquecimento global&#13;Enchentes secas&#13;Mudanças climaticas&#13;Aumento Intensificaçao eventos climaticos&#13;Efeito estufa&#13;Combustiveis fosseis&#13;Petroleo gas natural carvao nuclear&#13;Matriz energetica Brasil&#13;Hidreletrica eolica solar biomassa&#13;Energia limpa&#13;Fontes renovaveis</comment>
								<name>Energia</name>
								<in>2189</in>
								<out>8597</out>
							</marker>
							<marker>
								<comment>Petroleo&#13;Combustiveis fosseis&#13;Fontes renovaveis&#13;Energia limpa&#13;Transporte mobilidade&#13;Etanol Alcool&#13;Politicas publicas&#13;Plasticos</comment>
								<name>Energia</name>
								<in>22169</in>
								<out>29818</out>
							</marker>
							<marker>
								<comment>Combustiveis fosseis&#13;Comparaçao alcool gasolina petroleo&#13;Economia&#13;Politicas publicas&#13;Tecnologias&#13;Acordos internacionais COP</comment>
								<name>Energia</name>
								<in>34883</in>
								<out>40571</out>
							</marker>
							<marker>
								<comment>Tucurui Itaipu&#13;Fontes renovaveis&#13;Barragens&#13;Aguas rios&#13;Mudanças climaticas&#13;Poluiçao&#13;Cita Belo Monte&#13;CGH PCH</comment>
								<name>Hidreletricas</name>
								<in>64615</in>
								<out>69866</out>
							</marker>
							<marker>
								<comment>Ciclo de Vida&#13;Energia solar&#13;Lixo residuos&#13;Politicas publicas</comment>
								<name>Reciclagem</name>
								<in>57506</in>
								<out>63652</out>
							</marker>
							<marker>
								<comment>Fontes renovaveis vs combustiveis fosseis&#13;Transiçao energetica</comment>
								<name>Energia</name>
								<in>30992</in>
								<out>32590</out>
							</marker>
							<marker>
								<comment>Transiçao energetica&#13;Combustiveis fosseis</comment>
								<name>Futuro</name>
								<in>82259</in>
								<out>-1</out>
							</marker>
						<logginginfo>
							<description></description>
							<scene></scene>
							<shottake></shottake>
							<lognote></lognote>
							<good></good>
							<originalvideofilename></originalvideofilename>
							<originalaudiofilename></originalaudiofilename>
						</logginginfo>
						<colorinfo>
							<lut></lut>
							<lut1></lut1>
							<asc_sop></asc_sop>
							<asc_sat></asc_sat>
							<lut2></lut2>
						</colorinfo>
						<labels>
							<label2>Iris</label2>
						</labels>
					</clipitem>
					<clipitem id="clipitem-58">
						<masterclipid>masterclip-4</masterclipid>
						<name>A076_02171014_C018.mov</name>
						<enabled>TRUE</enabled>
						<duration>84290</duration>
						<rate>
							<timebase>30</timebase>
							<ntsc>TRUE</ntsc>
						</rate>
						<start>20691</start>
						<end>20918</end>
						<in>75251</in>
						<out>75478</out>
						<pproTicksIn>637802432467200</pproTicksIn>
						<pproTicksOut>639726408921600</pproTicksOut>
						<alphatype>none</alphatype>
						<file id="file-4"/>
							<marker>
								<comment>Mudanças climaticas&#13;Fontes renovaveis&#13;Tecnologia</comment>
								<name>Transiçao energetica&#13;</name>
								<in>41104</in>
								<out>43931</out>
							</marker>
							<marker>
								<comment>COP&#13;Futuro&#13;Energia eolica&#13;Carvao&#13;Emissao de carbono&#13;Poluiçao&#13;Combustiveis fosseis vs fontes renovaveis&#13;Petroleo&#13;Mobilidade transporte</comment>
								<name>Acordos internacionais</name>
								<in>14788</in>
								<out>20458</out>
							</marker>
							<marker>
								<comment>Investimentos&#13;Combustiveis fosseis&#13;Fontes renovaveis&#13;Eolica solar hidreletrica&#13;Segurança energetica&#13;Tecnologias&#13;Hidrogenio verde&#13;Desigualdade&#13;Saude</comment>
								<name>Energia</name>
								<in>9128</in>
								<out>13946</out>
							</marker>
							<marker>
								<comment>Petroleo&#13;Combustiveis fosseis&#13;Fontes renovaveis&#13;Energia limpa&#13;Transporte mobilidade&#13;Etanol Alcool&#13;Politicas publicas&#13;Plasticos</comment>
								<name>Energia</name>
								<in>32741</in>
								<out>34426</out>
							</marker>
							<marker>
								<comment>Fontes renovaveis&#13;Energia limpa&#13;Tecnologias&#13;Politicas publicas&#13;Economia&#13;Combustiveis fosseis</comment>
								<name>Energia</name>
								<in>72795</in>
								<out>75492</out>
							</marker>
							<marker>
								<comment>Energia eolica&#13;Licenciamento ambiental</comment>
								<name>Energia</name>
								<in>54647</in>
								<out>55838</out>
							</marker>
							<marker>
								<comment>Exemplo Uruguai&#13;Energia limpa eolica</comment>
								<name>Energia</name>
								<in>53289</in>
								<out>54406</out>
							</marker>
							<marker>
								<comment>Energia eolica&#13;Energia limpa&#13;Urbanizaçao&#13;Crescimento populacional&#13;Oceanos&#13;Energia Solar&#13;Nordeste</comment>
								<name>Energia</name>
								<in>46401</in>
								<out>53161</out>
							</marker>
							<marker>
								<comment>Fontes renovaveis&#13;Alcool biomassa&#13;Arroz&#13;Economia</comment>
								<name>Energia</name>
								<in>78607</in>
								<out>82155</out>
							</marker>
							<marker>
								<comment>Impacto ser humano&#13;Aquecimento global&#13;Enchentes secas&#13;Mudanças climaticas&#13;Aumento Intensificaçao eventos climaticos&#13;Efeito estufa&#13;Combustiveis fosseis&#13;Petroleo gas natural carvao nuclear&#13;Matriz energetica Brasil&#13;Hidreletrica eolica solar biomassa&#13;Energia limpa&#13;Fontes renovaveis</comment>
								<name>Energia</name>
								<in>2189</in>
								<out>8597</out>
							</marker>
							<marker>
								<comment>Petroleo&#13;Combustiveis fosseis&#13;Fontes renovaveis&#13;Energia limpa&#13;Transporte mobilidade&#13;Etanol Alcool&#13;Politicas publicas&#13;Plasticos</comment>
								<name>Energia</name>
								<in>22169</in>
								<out>29818</out>
							</marker>
							<marker>
								<comment>Combustiveis fosseis&#13;Comparaçao alcool gasolina petroleo&#13;Economia&#13;Politicas publicas&#13;Tecnologias&#13;Acordos internacionais COP</comment>
								<name>Energia</name>
								<in>34883</in>
								<out>40571</out>
							</marker>
							<marker>
								<comment>Tucurui Itaipu&#13;Fontes renovaveis&#13;Barragens&#13;Aguas rios&#13;Mudanças climaticas&#13;Poluiçao&#13;Cita Belo Monte&#13;CGH PCH</comment>
								<name>Hidreletricas</name>
								<in>64615</in>
								<out>69866</out>
							</marker>
							<marker>
								<comment>Ciclo de Vida&#13;Energia solar&#13;Lixo residuos&#13;Politicas publicas</comment>
								<name>Reciclagem</name>
								<in>57506</in>
								<out>63652</out>
							</marker>
							<marker>
								<comment>Fontes renovaveis vs combustiveis fosseis&#13;Transiçao energetica</comment>
								<name>Energia</name>
								<in>30992</in>
								<out>32590</out>
							</marker>
							<marker>
								<comment>Transiçao energetica&#13;Combustiveis fosseis</comment>
								<name>Futuro</name>
								<in>82259</in>
								<out>-1</out>
							</marker>
						<logginginfo>
							<description></description>
							<scene></scene>
							<shottake></shottake>
							<lognote></lognote>
							<good></good>
							<originalvideofilename></originalvideofilename>
							<originalaudiofilename></originalaudiofilename>
						</logginginfo>
						<colorinfo>
							<lut></lut>
							<lut1></lut1>
							<asc_sop></asc_sop>
							<asc_sat></asc_sat>
							<lut2></lut2>
						</colorinfo>
						<labels>
							<label2>Iris</label2>
						</labels>
					</clipitem>
					<clipitem id="clipitem-59">
						<masterclipid>masterclip-11</masterclipid>
						<name>A078_02181422_C002.mov</name>
						<enabled>TRUE</enabled>
						<duration>22640</duration>
						<rate>
							<timebase>30</timebase>
							<ntsc>TRUE</ntsc>
						</rate>
						<start>20918</start>
						<end>21217</end>
						<in>10429</in>
						<out>10728</out>
						<pproTicksIn>88392733228800</pproTicksIn>
						<pproTicksOut>90926957721600</pproTicksOut>
						<alphatype>none</alphatype>
						<pixelaspectratio>square</pixelaspectratio>
						<anamorphic>FALSE</anamorphic>
						<file id="file-11">
							<name>A078_02181422_C002.mov</name>
							<pathurl>file://localhost/Volumes/EDDMA_Pos02/EDDMA_02/BRUTAS/CENAS%20CAPTADAS/20250516/TRANSCODED/CAM_A/A078/A078_02181422_C002.mov</pathurl>
							<rate>
								<timebase>30</timebase>
								<ntsc>TRUE</ntsc>
							</rate>
							<duration>22640</duration>
							<timecode>
								<rate>
									<timebase>30</timebase>
									<ntsc>TRUE</ntsc>
								</rate>
								<string>20:15:17:29</string>
								<frame>2187539</frame>
								<displayformat>NDF</displayformat>
							</timecode>
							<media>
								<video>
									<samplecharacteristics>
										<rate>
											<timebase>30</timebase>
											<ntsc>TRUE</ntsc>
										</rate>
										<width>1920</width>
										<height>1080</height>
										<anamorphic>FALSE</anamorphic>
										<pixelaspectratio>square</pixelaspectratio>
										<fielddominance>none</fielddominance>
									</samplecharacteristics>
								</video>
								<audio>
									<samplecharacteristics>
										<depth>16</depth>
										<samplerate>48000</samplerate>
									</samplecharacteristics>
									<channelcount>2</channelcount>
								</audio>
							</media>
						</file>
							<marker>
								<comment>Saude&#13;Mobilidade urbana transporte&#13;</comment>
								<name>Poluiçao</name>
								<in>18498</in>
								<out>20484</out>
							</marker>
							<marker>
								<comment>Transporte&#13;Direito socioambiental&#13;Desigualdade&#13;Modais alternativos&#13;Politicas publicas&#13;Planejamento urbano</comment>
								<name>Mobilidade urbana</name>
								<in>11351</in>
								<out>18007</out>
							</marker>
							<marker>
								<comment>Transporte&#13;Emissao de carbono&#13;Aquecimento global&#13;Combustiveis fosseis</comment>
								<name>Mobilidade urbana</name>
								<in>10429</in>
								<out>11292</out>
							</marker>
							<marker>
								<comment>Progresso&#13;Impacto ser humano&#13;Natureza Forte&#13;Enchente RS</comment>
								<name>Desenvolvimento</name>
								<in>6065</in>
								<out>9218</out>
							</marker>
							<marker>
								<comment>Impacto ser humano&#13;Acordos internacionais COP&#13;Politicas publicas&#13;</comment>
								<name>Enchente RS</name>
								<in>1558</in>
								<out>4902</out>
							</marker>
							<marker>
								<comment>Conexao com a Natureza&#13;Urbanizaçao</comment>
								<name>Saude</name>
								<in>21387</in>
								<out>-1</out>
							</marker>
						<logginginfo>
							<description></description>
							<scene></scene>
							<shottake></shottake>
							<lognote></lognote>
							<good></good>
							<originalvideofilename></originalvideofilename>
							<originalaudiofilename></originalaudiofilename>
						</logginginfo>
						<colorinfo>
							<lut></lut>
							<lut1></lut1>
							<asc_sop></asc_sop>
							<asc_sat></asc_sat>
							<lut2></lut2>
						</colorinfo>
						<labels>
							<label2>Iris</label2>
						</labels>
					</clipitem>
					<clipitem id="clipitem-60">
						<masterclipid>masterclip-12</masterclipid>
						<name>A078_02181435_C003.mov</name>
						<enabled>TRUE</enabled>
						<duration>41635</duration>
						<rate>
							<timebase>30</timebase>
							<ntsc>TRUE</ntsc>
						</rate>
						<start>21217</start>
						<end>21396</end>
						<in>8210</in>
						<out>8389</out>
						<pproTicksIn>69585227712000</pproTicksIn>
						<pproTicksOut>71102372140800</pproTicksOut>
						<alphatype>none</alphatype>
						<pixelaspectratio>square</pixelaspectratio>
						<anamorphic>FALSE</anamorphic>
						<file id="file-12">
							<name>A078_02181435_C003.mov</name>
							<pathurl>file://localhost/Volumes/EDDMA_Pos02/EDDMA_02/BRUTAS/CENAS%20CAPTADAS/20250516/TRANSCODED/CAM_A/A078/A078_02181435_C003.mov</pathurl>
							<rate>
								<timebase>30</timebase>
								<ntsc>TRUE</ntsc>
							</rate>
							<duration>41635</duration>
							<timecode>
								<rate>
									<timebase>30</timebase>
									<ntsc>TRUE</ntsc>
								</rate>
								<string>20:28:03:27</string>
								<frame>2210517</frame>
								<displayformat>NDF</displayformat>
							</timecode>
							<media>
								<video>
									<samplecharacteristics>
										<rate>
											<timebase>30</timebase>
											<ntsc>TRUE</ntsc>
										</rate>
										<width>1920</width>
										<height>1080</height>
										<anamorphic>FALSE</anamorphic>
										<pixelaspectratio>square</pixelaspectratio>
										<fielddominance>none</fielddominance>
									</samplecharacteristics>
								</video>
								<audio>
									<samplecharacteristics>
										<depth>16</depth>
										<samplerate>48000</samplerate>
									</samplecharacteristics>
									<channelcount>2</channelcount>
								</audio>
							</media>
						</file>
							<marker>
								<comment>Historia Porto Alegre&#13;Ciclovias&#13;Bicicleta&#13;Transporte&#13;Legislaçao&#13;Politicas publicas&#13;Planejamento urbano</comment>
								<name>Mobilidade urbana</name>
								<in>29365</in>
								<out>37196</out>
							</marker>
							<marker>
								<comment>Planejamento urbano&#13;Cidades&#13;Segurança&#13;Verticalizaçao&#13;Exemplo Balneario Camboriu&#13;Ocupaçao</comment>
								<name>Urbanizaçao</name>
								<in>18577</in>
								<out>21572</out>
							</marker>
							<marker>
								<comment>Transporte&#13;Planejamento urbano&#13;Cidades&#13;Urbanizaçao&#13;Politicas publicas&#13;Modais alternativos&#13;Segurança</comment>
								<name>Mobilidade urbana</name>
								<in>22400</in>
								<out>27669</out>
							</marker>
							<marker>
								<comment>Cidades&#13;Planejamento urbano&#13;Adensamento populacional&#13;Verticalizaçao&#13;Especulaçao imobiliaria&#13;Deficit habitacional</comment>
								<name>Urbanizaçao&#13;</name>
								<in>13812</in>
								<out>17431</out>
							</marker>
							<marker>
								<comment>Relato pessoal&#13;Historia&#13;Mobilidade urbana&#13;Transporte&#13;Legislaçao Codigo de Transito&#13;Ciclovias&#13;Exemplo Uruguai</comment>
								<name>Bicicleta</name>
								<in>37732</in>
								<out>41334</out>
							</marker>
							<marker>
								<comment>Conexao com a Natureza&#13;Urbanizaçao</comment>
								<name>Saude</name>
								<in>1725</in>
								<out>3081</out>
							</marker>
							<marker>
								<comment>Transporte&#13;Mobilidade urbana&#13;Consumismo&#13;Cidades&#13;Planejamento urbano&#13;Adensamento populacional&#13;Modais alternativos</comment>
								<name>Energia</name>
								<in>8210</in>
								<out>13374</out>
							</marker>
							<marker>
								<comment>Transporte&#13;Bicicleta&#13;Saude&#13;Reflexao filosofica&#13;Cidades&#13;Eficiencia energetica</comment>
								<name>Mobilidade urbana</name>
								<in>3396</in>
								<out>7870</out>
							</marker>
						<logginginfo>
							<description></description>
							<scene></scene>
							<shottake></shottake>
							<lognote></lognote>
							<good></good>
							<originalvideofilename></originalvideofilename>
							<originalaudiofilename></originalaudiofilename>
						</logginginfo>
						<colorinfo>
							<lut></lut>
							<lut1></lut1>
							<asc_sop></asc_sop>
							<asc_sat></asc_sat>
							<lut2></lut2>
						</colorinfo>
						<labels>
							<label2>Iris</label2>
						</labels>
					</clipitem>
					<clipitem id="clipitem-61">
						<masterclipid>masterclip-12</masterclipid>
						<name>A078_02181435_C003.mov</name>
						<enabled>TRUE</enabled>
						<duration>41635</duration>
						<rate>
							<timebase>30</timebase>
							<ntsc>TRUE</ntsc>
						</rate>
						<start>21396</start>
						<end>21674</end>
						<in>9386</in>
						<out>9664</out>
						<pproTicksIn>79552612339200</pproTicksIn>
						<pproTicksOut>81908847820800</pproTicksOut>
						<alphatype>none</alphatype>
						<file id="file-12"/>
							<marker>
								<comment>Historia Porto Alegre&#13;Ciclovias&#13;Bicicleta&#13;Transporte&#13;Legislaçao&#13;Politicas publicas&#13;Planejamento urbano</comment>
								<name>Mobilidade urbana</name>
								<in>29365</in>
								<out>37196</out>
							</marker>
							<marker>
								<comment>Planejamento urbano&#13;Cidades&#13;Segurança&#13;Verticalizaçao&#13;Exemplo Balneario Camboriu&#13;Ocupaçao</comment>
								<name>Urbanizaçao</name>
								<in>18577</in>
								<out>21572</out>
							</marker>
							<marker>
								<comment>Transporte&#13;Planejamento urbano&#13;Cidades&#13;Urbanizaçao&#13;Politicas publicas&#13;Modais alternativos&#13;Segurança</comment>
								<name>Mobilidade urbana</name>
								<in>22400</in>
								<out>27669</out>
							</marker>
							<marker>
								<comment>Cidades&#13;Planejamento urbano&#13;Adensamento populacional&#13;Verticalizaçao&#13;Especulaçao imobiliaria&#13;Deficit habitacional</comment>
								<name>Urbanizaçao&#13;</name>
								<in>13812</in>
								<out>17431</out>
							</marker>
							<marker>
								<comment>Relato pessoal&#13;Historia&#13;Mobilidade urbana&#13;Transporte&#13;Legislaçao Codigo de Transito&#13;Ciclovias&#13;Exemplo Uruguai</comment>
								<name>Bicicleta</name>
								<in>37732</in>
								<out>41334</out>
							</marker>
							<marker>
								<comment>Conexao com a Natureza&#13;Urbanizaçao</comment>
								<name>Saude</name>
								<in>1725</in>
								<out>3081</out>
							</marker>
							<marker>
								<comment>Transporte&#13;Mobilidade urbana&#13;Consumismo&#13;Cidades&#13;Planejamento urbano&#13;Adensamento populacional&#13;Modais alternativos</comment>
								<name>Energia</name>
								<in>8210</in>
								<out>13374</out>
							</marker>
							<marker>
								<comment>Transporte&#13;Bicicleta&#13;Saude&#13;Reflexao filosofica&#13;Cidades&#13;Eficiencia energetica</comment>
								<name>Mobilidade urbana</name>
								<in>3396</in>
								<out>7870</out>
							</marker>
						<logginginfo>
							<description></description>
							<scene></scene>
							<shottake></shottake>
							<lognote></lognote>
							<good></good>
							<originalvideofilename></originalvideofilename>
							<originalaudiofilename></originalaudiofilename>
						</logginginfo>
						<colorinfo>
							<lut></lut>
							<lut1></lut1>
							<asc_sop></asc_sop>
							<asc_sat></asc_sat>
							<lut2></lut2>
						</colorinfo>
						<labels>
							<label2>Iris</label2>
						</labels>
					</clipitem>
					<clipitem id="clipitem-62">
						<masterclipid>masterclip-12</masterclipid>
						<name>A078_02181435_C003.mov</name>
						<enabled>TRUE</enabled>
						<duration>41635</duration>
						<rate>
							<timebase>30</timebase>
							<ntsc>TRUE</ntsc>
						</rate>
						<start>21674</start>
						<end>21793</end>
						<in>10107</in>
						<out>10226</out>
						<pproTicksIn>85663568390400</pproTicksIn>
						<pproTicksOut>86672172787200</pproTicksOut>
						<alphatype>none</alphatype>
						<file id="file-12"/>
							<marker>
								<comment>Historia Porto Alegre&#13;Ciclovias&#13;Bicicleta&#13;Transporte&#13;Legislaçao&#13;Politicas publicas&#13;Planejamento urbano</comment>
								<name>Mobilidade urbana</name>
								<in>29365</in>
								<out>37196</out>
							</marker>
							<marker>
								<comment>Planejamento urbano&#13;Cidades&#13;Segurança&#13;Verticalizaçao&#13;Exemplo Balneario Camboriu&#13;Ocupaçao</comment>
								<name>Urbanizaçao</name>
								<in>18577</in>
								<out>21572</out>
							</marker>
							<marker>
								<comment>Transporte&#13;Planejamento urbano&#13;Cidades&#13;Urbanizaçao&#13;Politicas publicas&#13;Modais alternativos&#13;Segurança</comment>
								<name>Mobilidade urbana</name>
								<in>22400</in>
								<out>27669</out>
							</marker>
							<marker>
								<comment>Cidades&#13;Planejamento urbano&#13;Adensamento populacional&#13;Verticalizaçao&#13;Especulaçao imobiliaria&#13;Deficit habitacional</comment>
								<name>Urbanizaçao&#13;</name>
								<in>13812</in>
								<out>17431</out>
							</marker>
							<marker>
								<comment>Relato pessoal&#13;Historia&#13;Mobilidade urbana&#13;Transporte&#13;Legislaçao Codigo de Transito&#13;Ciclovias&#13;Exemplo Uruguai</comment>
								<name>Bicicleta</name>
								<in>37732</in>
								<out>41334</out>
							</marker>
							<marker>
								<comment>Conexao com a Natureza&#13;Urbanizaçao</comment>
								<name>Saude</name>
								<in>1725</in>
								<out>3081</out>
							</marker>
							<marker>
								<comment>Transporte&#13;Mobilidade urbana&#13;Consumismo&#13;Cidades&#13;Planejamento urbano&#13;Adensamento populacional&#13;Modais alternativos</comment>
								<name>Energia</name>
								<in>8210</in>
								<out>13374</out>
							</marker>
							<marker>
								<comment>Transporte&#13;Bicicleta&#13;Saude&#13;Reflexao filosofica&#13;Cidades&#13;Eficiencia energetica</comment>
								<name>Mobilidade urbana</name>
								<in>3396</in>
								<out>7870</out>
							</marker>
						<logginginfo>
							<description></description>
							<scene></scene>
							<shottake></shottake>
							<lognote></lognote>
							<good></good>
							<originalvideofilename></originalvideofilename>
							<originalaudiofilename></originalaudiofilename>
						</logginginfo>
						<colorinfo>
							<lut></lut>
							<lut1></lut1>
							<asc_sop></asc_sop>
							<asc_sat></asc_sat>
							<lut2></lut2>
						</colorinfo>
						<labels>
							<label2>Iris</label2>
						</labels>
					</clipitem>
					<clipitem id="clipitem-63">
						<masterclipid>masterclip-12</masterclipid>
						<name>A078_02181435_C003.mov</name>
						<enabled>TRUE</enabled>
						<duration>41635</duration>
						<rate>
							<timebase>30</timebase>
							<ntsc>TRUE</ntsc>
						</rate>
						<start>21793</start>
						<end>21921</end>
						<in>10391</in>
						<out>10519</out>
						<pproTicksIn>88070657875200</pproTicksIn>
						<pproTicksOut>89155543276800</pproTicksOut>
						<alphatype>none</alphatype>
						<file id="file-12"/>
							<marker>
								<comment>Historia Porto Alegre&#13;Ciclovias&#13;Bicicleta&#13;Transporte&#13;Legislaçao&#13;Politicas publicas&#13;Planejamento urbano</comment>
								<name>Mobilidade urbana</name>
								<in>29365</in>
								<out>37196</out>
							</marker>
							<marker>
								<comment>Planejamento urbano&#13;Cidades&#13;Segurança&#13;Verticalizaçao&#13;Exemplo Balneario Camboriu&#13;Ocupaçao</comment>
								<name>Urbanizaçao</name>
								<in>18577</in>
								<out>21572</out>
							</marker>
							<marker>
								<comment>Transporte&#13;Planejamento urbano&#13;Cidades&#13;Urbanizaçao&#13;Politicas publicas&#13;Modais alternativos&#13;Segurança</comment>
								<name>Mobilidade urbana</name>
								<in>22400</in>
								<out>27669</out>
							</marker>
							<marker>
								<comment>Cidades&#13;Planejamento urbano&#13;Adensamento populacional&#13;Verticalizaçao&#13;Especulaçao imobiliaria&#13;Deficit habitacional</comment>
								<name>Urbanizaçao&#13;</name>
								<in>13812</in>
								<out>17431</out>
							</marker>
							<marker>
								<comment>Relato pessoal&#13;Historia&#13;Mobilidade urbana&#13;Transporte&#13;Legislaçao Codigo de Transito&#13;Ciclovias&#13;Exemplo Uruguai</comment>
								<name>Bicicleta</name>
								<in>37732</in>
								<out>41334</out>
							</marker>
							<marker>
								<comment>Conexao com a Natureza&#13;Urbanizaçao</comment>
								<name>Saude</name>
								<in>1725</in>
								<out>3081</out>
							</marker>
							<marker>
								<comment>Transporte&#13;Mobilidade urbana&#13;Consumismo&#13;Cidades&#13;Planejamento urbano&#13;Adensamento populacional&#13;Modais alternativos</comment>
								<name>Energia</name>
								<in>8210</in>
								<out>13374</out>
							</marker>
							<marker>
								<comment>Transporte&#13;Bicicleta&#13;Saude&#13;Reflexao filosofica&#13;Cidades&#13;Eficiencia energetica</comment>
								<name>Mobilidade urbana</name>
								<in>3396</in>
								<out>7870</out>
							</marker>
						<logginginfo>
							<description></description>
							<scene></scene>
							<shottake></shottake>
							<lognote></lognote>
							<good></good>
							<originalvideofilename></originalvideofilename>
							<originalaudiofilename></originalaudiofilename>
						</logginginfo>
						<colorinfo>
							<lut></lut>
							<lut1></lut1>
							<asc_sop></asc_sop>
							<asc_sat></asc_sat>
							<lut2></lut2>
						</colorinfo>
						<labels>
							<label2>Iris</label2>
						</labels>
					</clipitem>
					<clipitem id="clipitem-64">
						<masterclipid>masterclip-12</masterclipid>
						<name>A078_02181435_C003.mov</name>
						<enabled>TRUE</enabled>
						<duration>41635</duration>
						<rate>
							<timebase>30</timebase>
							<ntsc>TRUE</ntsc>
						</rate>
						<start>21921</start>
						<end>22061</end>
						<in>10550</in>
						<out>10690</out>
						<pproTicksIn>89418288960000</pproTicksIn>
						<pproTicksOut>90604882368000</pproTicksOut>
						<alphatype>none</alphatype>
						<file id="file-12"/>
							<marker>
								<comment>Historia Porto Alegre&#13;Ciclovias&#13;Bicicleta&#13;Transporte&#13;Legislaçao&#13;Politicas publicas&#13;Planejamento urbano</comment>
								<name>Mobilidade urbana</name>
								<in>29365</in>
								<out>37196</out>
							</marker>
							<marker>
								<comment>Planejamento urbano&#13;Cidades&#13;Segurança&#13;Verticalizaçao&#13;Exemplo Balneario Camboriu&#13;Ocupaçao</comment>
								<name>Urbanizaçao</name>
								<in>18577</in>
								<out>21572</out>
							</marker>
							<marker>
								<comment>Transporte&#13;Planejamento urbano&#13;Cidades&#13;Urbanizaçao&#13;Politicas publicas&#13;Modais alternativos&#13;Segurança</comment>
								<name>Mobilidade urbana</name>
								<in>22400</in>
								<out>27669</out>
							</marker>
							<marker>
								<comment>Cidades&#13;Planejamento urbano&#13;Adensamento populacional&#13;Verticalizaçao&#13;Especulaçao imobiliaria&#13;Deficit habitacional</comment>
								<name>Urbanizaçao&#13;</name>
								<in>13812</in>
								<out>17431</out>
							</marker>
							<marker>
								<comment>Relato pessoal&#13;Historia&#13;Mobilidade urbana&#13;Transporte&#13;Legislaçao Codigo de Transito&#13;Ciclovias&#13;Exemplo Uruguai</comment>
								<name>Bicicleta</name>
								<in>37732</in>
								<out>41334</out>
							</marker>
							<marker>
								<comment>Conexao com a Natureza&#13;Urbanizaçao</comment>
								<name>Saude</name>
								<in>1725</in>
								<out>3081</out>
							</marker>
							<marker>
								<comment>Transporte&#13;Mobilidade urbana&#13;Consumismo&#13;Cidades&#13;Planejamento urbano&#13;Adensamento populacional&#13;Modais alternativos</comment>
								<name>Energia</name>
								<in>8210</in>
								<out>13374</out>
							</marker>
							<marker>
								<comment>Transporte&#13;Bicicleta&#13;Saude&#13;Reflexao filosofica&#13;Cidades&#13;Eficiencia energetica</comment>
								<name>Mobilidade urbana</name>
								<in>3396</in>
								<out>7870</out>
							</marker>
						<logginginfo>
							<description></description>
							<scene></scene>
							<shottake></shottake>
							<lognote></lognote>
							<good></good>
							<originalvideofilename></originalvideofilename>
							<originalaudiofilename></originalaudiofilename>
						</logginginfo>
						<colorinfo>
							<lut></lut>
							<lut1></lut1>
							<asc_sop></asc_sop>
							<asc_sat></asc_sat>
							<lut2></lut2>
						</colorinfo>
						<labels>
							<label2>Iris</label2>
						</labels>
					</clipitem>
					<clipitem id="clipitem-65">
						<masterclipid>masterclip-13</masterclipid>
						<name>2025-03-20 04-05-37 .mov</name>
						<enabled>TRUE</enabled>
						<duration>47458</duration>
						<rate>
							<timebase>30</timebase>
							<ntsc>TRUE</ntsc>
						</rate>
						<start>22061</start>
						<end>22218</end>
						<in>1087</in>
						<out>1244</out>
						<pproTicksIn>9213050246400</pproTicksIn>
						<pproTicksOut>10543729996800</pproTicksOut>
						<alphatype>none</alphatype>
						<pixelaspectratio>square</pixelaspectratio>
						<anamorphic>FALSE</anamorphic>
						<file id="file-13">
							<name>2025-03-20 04-05-37 .mov</name>
							<pathurl>file://localhost/Volumes/EDDMA_Pos01/EDDMA_01/BRUTAS/CENAS%20CAPTADAS/20250320/Alfredo_Aveline/2025-03-20%2004-05-37%20.mov</pathurl>
							<rate>
								<timebase>30</timebase>
								<ntsc>TRUE</ntsc>
							</rate>
							<duration>47458</duration>
							<timecode>
								<rate>
									<timebase>30</timebase>
									<ntsc>TRUE</ntsc>
								</rate>
								<string>00:00:00:00</string>
								<frame>0</frame>
								<displayformat>NDF</displayformat>
							</timecode>
							<media>
								<video>
									<samplecharacteristics>
										<rate>
											<timebase>30</timebase>
											<ntsc>TRUE</ntsc>
										</rate>
										<width>1920</width>
										<height>1080</height>
										<anamorphic>FALSE</anamorphic>
										<pixelaspectratio>square</pixelaspectratio>
										<fielddominance>none</fielddominance>
									</samplecharacteristics>
								</video>
								<audio>
									<samplecharacteristics>
										<depth>16</depth>
										<samplerate>48000</samplerate>
									</samplecharacteristics>
									<channelcount>2</channelcount>
								</audio>
							</media>
						</file>
							<marker>
								<comment>Futuro Compartilhado&#13;Perseverança&#13;Participaçao popular e ativismo&#13;Consciencia humana&#13;Energia e petroleo</comment>
								<name>Futuro</name>
								<in>16493</in>
								<out>-1</out>
							</marker>
							<marker>
								<comment>Consciencia humana&#13;Extinçoes&#13;</comment>
								<name>Desequilibrio ambiental</name>
								<in>41222</in>
								<out>-1</out>
							</marker>
							<marker>
								<comment>Lutzenberger teia de aranha&#13;Ligaçoes integradas</comment>
								<name>Desequilibrio ambiental</name>
								<in>44214</in>
								<out>-1</out>
							</marker>
							<marker>
								<comment>ESG&#13;Lobby&#13;Politicas publicas ambientais&#13;Certificados ecologicos</comment>
								<name>Politica</name>
								<in>11320</in>
								<out>-1</out>
							</marker>
							<marker>
								<comment>Trump&#13;Empresas acima do Estado&#13;Economia acima do ser humano&#13;Atraso Ultraliberalismo</comment>
								<name>Politica</name>
								<in>4927</in>
								<out>-1</out>
							</marker>
							<marker>
								<comment>Reflexao filosofica&#13;Ciencia estuda a vida&#13;Tecnologia e economia</comment>
								<name>Ciencia tecnologia</name>
								<in>24604</in>
								<out>-1</out>
							</marker>
							<marker>
								<comment>Comparaçao Lutzenberger e Ivan Illich</comment>
								<name>Precursores</name>
								<in>34594</in>
								<out>-1</out>
							</marker>
							<marker>
								<comment>Ivan Illich&#13;Educaçao&#13;Cita The Wall Pink Floyd&#13;Povos originarios indigenas&#13;Industria da Saude</comment>
								<name>Precursores</name>
								<in>35867</in>
								<out>-1</out>
							</marker>
							<marker>
								<comment>Falta de politicas para reduzir consumo combustivel fossil&#13;</comment>
								<name>Politica</name>
								<in>824</in>
								<out>-1</out>
							</marker>
						<link>
							<linkclipref>clipitem-65</linkclipref>
							<mediatype>video</mediatype>
							<trackindex>1</trackindex>
							<clipindex>65</clipindex>
						</link>
						<link>
							<linkclipref>clipitem-196</linkclipref>
							<mediatype>audio</mediatype>
							<trackindex>1</trackindex>
							<clipindex>65</clipindex>
							<groupindex>1</groupindex>
						</link>
						<link>
							<linkclipref>clipitem-294</linkclipref>
							<mediatype>audio</mediatype>
							<trackindex>2</trackindex>
							<clipindex>55</clipindex>
							<groupindex>1</groupindex>
						</link>
						<logginginfo>
							<description></description>
							<scene></scene>
							<shottake></shottake>
							<lognote></lognote>
							<good></good>
							<originalvideofilename></originalvideofilename>
							<originalaudiofilename></originalaudiofilename>
						</logginginfo>
						<colorinfo>
							<lut></lut>
							<lut1></lut1>
							<asc_sop></asc_sop>
							<asc_sat></asc_sat>
							<lut2></lut2>
						</colorinfo>
					</clipitem>
					<clipitem id="clipitem-66">
						<masterclipid>masterclip-13</masterclipid>
						<name>2025-03-20 04-05-37 .mov</name>
						<enabled>TRUE</enabled>
						<duration>47458</duration>
						<rate>
							<timebase>30</timebase>
							<ntsc>TRUE</ntsc>
						</rate>
						<start>22218</start>
						<end>23035</end>
						<in>2258</in>
						<out>3075</out>
						<pproTicksIn>19138056537600</pproTicksIn>
						<pproTicksOut>26062676640000</pproTicksOut>
						<alphatype>none</alphatype>
						<file id="file-13"/>
							<marker>
								<comment>Futuro Compartilhado&#13;Perseverança&#13;Participaçao popular e ativismo&#13;Consciencia humana&#13;Energia e petroleo</comment>
								<name>Futuro</name>
								<in>16493</in>
								<out>-1</out>
							</marker>
							<marker>
								<comment>Consciencia humana&#13;Extinçoes&#13;</comment>
								<name>Desequilibrio ambiental</name>
								<in>41222</in>
								<out>-1</out>
							</marker>
							<marker>
								<comment>Lutzenberger teia de aranha&#13;Ligaçoes integradas</comment>
								<name>Desequilibrio ambiental</name>
								<in>44214</in>
								<out>-1</out>
							</marker>
							<marker>
								<comment>ESG&#13;Lobby&#13;Politicas publicas ambientais&#13;Certificados ecologicos</comment>
								<name>Politica</name>
								<in>11320</in>
								<out>-1</out>
							</marker>
							<marker>
								<comment>Trump&#13;Empresas acima do Estado&#13;Economia acima do ser humano&#13;Atraso Ultraliberalismo</comment>
								<name>Politica</name>
								<in>4927</in>
								<out>-1</out>
							</marker>
							<marker>
								<comment>Reflexao filosofica&#13;Ciencia estuda a vida&#13;Tecnologia e economia</comment>
								<name>Ciencia tecnologia</name>
								<in>24604</in>
								<out>-1</out>
							</marker>
							<marker>
								<comment>Comparaçao Lutzenberger e Ivan Illich</comment>
								<name>Precursores</name>
								<in>34594</in>
								<out>-1</out>
							</marker>
							<marker>
								<comment>Ivan Illich&#13;Educaçao&#13;Cita The Wall Pink Floyd&#13;Povos originarios indigenas&#13;Industria da Saude</comment>
								<name>Precursores</name>
								<in>35867</in>
								<out>-1</out>
							</marker>
							<marker>
								<comment>Falta de politicas para reduzir consumo combustivel fossil&#13;</comment>
								<name>Politica</name>
								<in>824</in>
								<out>-1</out>
							</marker>
						<link>
							<linkclipref>clipitem-66</linkclipref>
							<mediatype>video</mediatype>
							<trackindex>1</trackindex>
							<clipindex>66</clipindex>
						</link>
						<link>
							<linkclipref>clipitem-197</linkclipref>
							<mediatype>audio</mediatype>
							<trackindex>1</trackindex>
							<clipindex>66</clipindex>
							<groupindex>1</groupindex>
						</link>
						<link>
							<linkclipref>clipitem-295</linkclipref>
							<mediatype>audio</mediatype>
							<trackindex>2</trackindex>
							<clipindex>56</clipindex>
							<groupindex>1</groupindex>
						</link>
						<logginginfo>
							<description></description>
							<scene></scene>
							<shottake></shottake>
							<lognote></lognote>
							<good></good>
							<originalvideofilename></originalvideofilename>
							<originalaudiofilename></originalaudiofilename>
						</logginginfo>
						<colorinfo>
							<lut></lut>
							<lut1></lut1>
							<asc_sop></asc_sop>
							<asc_sat></asc_sat>
							<lut2></lut2>
						</colorinfo>
					</clipitem>
					<clipitem id="clipitem-67">
						<masterclipid>masterclip-14</masterclipid>
						<name>2025-03-20 03-40-16 .mov</name>
						<enabled>TRUE</enabled>
						<duration>45538</duration>
						<rate>
							<timebase>30</timebase>
							<ntsc>TRUE</ntsc>
						</rate>
						<start>23035</start>
						<end>23803</end>
						<in>37453</in>
						<out>38221</out>
						<pproTicksIn>317439163641600</pproTicksIn>
						<pproTicksOut>323948476051200</pproTicksOut>
						<alphatype>none</alphatype>
						<pixelaspectratio>square</pixelaspectratio>
						<anamorphic>FALSE</anamorphic>
						<file id="file-14">
							<name>2025-03-20 03-40-16 .mov</name>
							<pathurl>file://localhost/Volumes/EDDMA_Pos01/EDDMA_01/BRUTAS/CENAS%20CAPTADAS/20250320/Alfredo_Aveline/2025-03-20%2003-40-16%20.mov</pathurl>
							<rate>
								<timebase>30</timebase>
								<ntsc>TRUE</ntsc>
							</rate>
							<duration>45538</duration>
							<timecode>
								<rate>
									<timebase>30</timebase>
									<ntsc>TRUE</ntsc>
								</rate>
								<string>00:00:00:00</string>
								<frame>0</frame>
								<displayformat>NDF</displayformat>
							</timecode>
							<media>
								<video>
									<samplecharacteristics>
										<rate>
											<timebase>30</timebase>
											<ntsc>TRUE</ntsc>
										</rate>
										<width>1920</width>
										<height>1080</height>
										<anamorphic>FALSE</anamorphic>
										<pixelaspectratio>square</pixelaspectratio>
										<fielddominance>none</fielddominance>
									</samplecharacteristics>
								</video>
								<audio>
									<samplecharacteristics>
										<depth>16</depth>
										<samplerate>48000</samplerate>
									</samplecharacteristics>
									<channelcount>2</channelcount>
								</audio>
							</media>
						</file>
							<marker>
								<comment>Reflexao filosofica&#13;Mudanças climaticas&#13;Interferencia humana&#13;Historia do planeta&#13;Cita Lutzenberger&#13;Planeta maior do que humano&#13;</comment>
								<name>Eras do Planeta</name>
								<in>2136</in>
								<out>-1</out>
							</marker>
							<marker>
								<comment>Reflexao filosofica&#13;Fosseis&#13;Historia do Planeta&#13;Dataçao de carbono&#13;Oceanos e continentes&#13;</comment>
								<name>Eras do Planeta</name>
								<in>11859</in>
								<out>-1</out>
							</marker>
							<marker>
								<comment>Reflexao filosofica&#13;Entendimento cognitivo do ser humano&#13;Movimento ecologico&#13;Desequilibrio ambiental&#13;Ser humano sem predador se torna seu proprio inimigo&#13;Conferencia mundial acordos internacionais&#13;Cita Lutzenberger&#13;Josue de Castro&#13;Aumento populacional&#13;Densidade demografica&#13;Futuro e distopia&#13;Desenvolvimento economico</comment>
								<name>Eras do Planeta</name>
								<in>13898</in>
								<out>-1</out>
							</marker>
							<marker>
								<comment></comment>
								<name>Falha de imagem e som</name>
								<in>27423</in>
								<out>-1</out>
								<pproColor>4281740498</pproColor>
							</marker>
							<marker>
								<comment>Lutzenberger&#13;</comment>
								<name>Precursores</name>
								<in>29719</in>
								<out>-1</out>
							</marker>
							<marker>
								<comment>Reflexao filosofica&#13;Extincoes&#13;Floresta Araucaria remanescente&#13;Fosseis&#13;</comment>
								<name>Eras do Planeta</name>
								<in>8880</in>
								<out>-1</out>
							</marker>
							<marker>
								<comment>Reflexao filosofica&#13;Extincoes&#13;Surgimento do ser humano</comment>
								<name>Eras do Planeta</name>
								<in>7547</in>
								<out>-1</out>
							</marker>
							<marker>
								<comment>Reflexao&#13;Governo economia lobby contra interesse publico&#13;Futuro compartilhado BRICS&#13;Exemplo China desertos&#13;Reduçao consumo petroleo&#13;Transiçao energetica&#13;Acordos internacionais Paris</comment>
								<name>Politica</name>
								<in>32011</in>
								<out>-1</out>
							</marker>
						<link>
							<linkclipref>clipitem-67</linkclipref>
							<mediatype>video</mediatype>
							<trackindex>1</trackindex>
							<clipindex>67</clipindex>
						</link>
						<link>
							<linkclipref>clipitem-198</linkclipref>
							<mediatype>audio</mediatype>
							<trackindex>1</trackindex>
							<clipindex>67</clipindex>
							<groupindex>1</groupindex>
						</link>
						<link>
							<linkclipref>clipitem-296</linkclipref>
							<mediatype>audio</mediatype>
							<trackindex>2</trackindex>
							<clipindex>57</clipindex>
							<groupindex>1</groupindex>
						</link>
						<logginginfo>
							<description></description>
							<scene></scene>
							<shottake></shottake>
							<lognote></lognote>
							<good></good>
							<originalvideofilename></originalvideofilename>
							<originalaudiofilename></originalaudiofilename>
						</logginginfo>
						<colorinfo>
							<lut></lut>
							<lut1></lut1>
							<asc_sop></asc_sop>
							<asc_sat></asc_sat>
							<lut2></lut2>
						</colorinfo>
					</clipitem>
					<clipitem id="clipitem-68">
						<masterclipid>masterclip-14</masterclipid>
						<name>2025-03-20 03-40-16 .mov</name>
						<enabled>TRUE</enabled>
						<duration>45538</duration>
						<rate>
							<timebase>30</timebase>
							<ntsc>TRUE</ntsc>
						</rate>
						<start>23803</start>
						<end>24111</end>
						<in>42866</in>
						<out>43174</out>
						<pproTicksIn>363317950195200</pproTicksIn>
						<pproTicksOut>365928455692800</pproTicksOut>
						<alphatype>none</alphatype>
						<file id="file-14"/>
							<marker>
								<comment>Reflexao filosofica&#13;Mudanças climaticas&#13;Interferencia humana&#13;Historia do planeta&#13;Cita Lutzenberger&#13;Planeta maior do que humano&#13;</comment>
								<name>Eras do Planeta</name>
								<in>2136</in>
								<out>-1</out>
							</marker>
							<marker>
								<comment>Reflexao filosofica&#13;Fosseis&#13;Historia do Planeta&#13;Dataçao de carbono&#13;Oceanos e continentes&#13;</comment>
								<name>Eras do Planeta</name>
								<in>11859</in>
								<out>-1</out>
							</marker>
							<marker>
								<comment>Reflexao filosofica&#13;Entendimento cognitivo do ser humano&#13;Movimento ecologico&#13;Desequilibrio ambiental&#13;Ser humano sem predador se torna seu proprio inimigo&#13;Conferencia mundial acordos internacionais&#13;Cita Lutzenberger&#13;Josue de Castro&#13;Aumento populacional&#13;Densidade demografica&#13;Futuro e distopia&#13;Desenvolvimento economico</comment>
								<name>Eras do Planeta</name>
								<in>13898</in>
								<out>-1</out>
							</marker>
							<marker>
								<comment></comment>
								<name>Falha de imagem e som</name>
								<in>27423</in>
								<out>-1</out>
								<pproColor>4281740498</pproColor>
							</marker>
							<marker>
								<comment>Lutzenberger&#13;</comment>
								<name>Precursores</name>
								<in>29719</in>
								<out>-1</out>
							</marker>
							<marker>
								<comment>Reflexao filosofica&#13;Extincoes&#13;Floresta Araucaria remanescente&#13;Fosseis&#13;</comment>
								<name>Eras do Planeta</name>
								<in>8880</in>
								<out>-1</out>
							</marker>
							<marker>
								<comment>Reflexao filosofica&#13;Extincoes&#13;Surgimento do ser humano</comment>
								<name>Eras do Planeta</name>
								<in>7547</in>
								<out>-1</out>
							</marker>
							<marker>
								<comment>Reflexao&#13;Governo economia lobby contra interesse publico&#13;Futuro compartilhado BRICS&#13;Exemplo China desertos&#13;Reduçao consumo petroleo&#13;Transiçao energetica&#13;Acordos internacionais Paris</comment>
								<name>Politica</name>
								<in>32011</in>
								<out>-1</out>
							</marker>
						<link>
							<linkclipref>clipitem-68</linkclipref>
							<mediatype>video</mediatype>
							<trackindex>1</trackindex>
							<clipindex>68</clipindex>
						</link>
						<link>
							<linkclipref>clipitem-199</linkclipref>
							<mediatype>audio</mediatype>
							<trackindex>1</trackindex>
							<clipindex>68</clipindex>
							<groupindex>1</groupindex>
						</link>
						<link>
							<linkclipref>clipitem-297</linkclipref>
							<mediatype>audio</mediatype>
							<trackindex>2</trackindex>
							<clipindex>58</clipindex>
							<groupindex>1</groupindex>
						</link>
						<logginginfo>
							<description></description>
							<scene></scene>
							<shottake></shottake>
							<lognote></lognote>
							<good></good>
							<originalvideofilename></originalvideofilename>
							<originalaudiofilename></originalaudiofilename>
						</logginginfo>
						<colorinfo>
							<lut></lut>
							<lut1></lut1>
							<asc_sop></asc_sop>
							<asc_sat></asc_sat>
							<lut2></lut2>
						</colorinfo>
					</clipitem>
					<clipitem id="clipitem-69">
						<masterclipid>masterclip-14</masterclipid>
						<name>2025-03-20 03-40-16 .mov</name>
						<enabled>TRUE</enabled>
						<duration>45538</duration>
						<rate>
							<timebase>30</timebase>
							<ntsc>TRUE</ntsc>
						</rate>
						<start>24111</start>
						<end>24568</end>
						<in>43624</in>
						<out>44081</out>
						<pproTicksIn>369742505932800</pproTicksIn>
						<pproTicksOut>373615885843200</pproTicksOut>
						<alphatype>none</alphatype>
						<file id="file-14"/>
							<marker>
								<comment>Reflexao filosofica&#13;Mudanças climaticas&#13;Interferencia humana&#13;Historia do planeta&#13;Cita Lutzenberger&#13;Planeta maior do que humano&#13;</comment>
								<name>Eras do Planeta</name>
								<in>2136</in>
								<out>-1</out>
							</marker>
							<marker>
								<comment>Reflexao filosofica&#13;Fosseis&#13;Historia do Planeta&#13;Dataçao de carbono&#13;Oceanos e continentes&#13;</comment>
								<name>Eras do Planeta</name>
								<in>11859</in>
								<out>-1</out>
							</marker>
							<marker>
								<comment>Reflexao filosofica&#13;Entendimento cognitivo do ser humano&#13;Movimento ecologico&#13;Desequilibrio ambiental&#13;Ser humano sem predador se torna seu proprio inimigo&#13;Conferencia mundial acordos internacionais&#13;Cita Lutzenberger&#13;Josue de Castro&#13;Aumento populacional&#13;Densidade demografica&#13;Futuro e distopia&#13;Desenvolvimento economico</comment>
								<name>Eras do Planeta</name>
								<in>13898</in>
								<out>-1</out>
							</marker>
							<marker>
								<comment></comment>
								<name>Falha de imagem e som</name>
								<in>27423</in>
								<out>-1</out>
								<pproColor>4281740498</pproColor>
							</marker>
							<marker>
								<comment>Lutzenberger&#13;</comment>
								<name>Precursores</name>
								<in>29719</in>
								<out>-1</out>
							</marker>
							<marker>
								<comment>Reflexao filosofica&#13;Extincoes&#13;Floresta Araucaria remanescente&#13;Fosseis&#13;</comment>
								<name>Eras do Planeta</name>
								<in>8880</in>
								<out>-1</out>
							</marker>
							<marker>
								<comment>Reflexao filosofica&#13;Extincoes&#13;Surgimento do ser humano</comment>
								<name>Eras do Planeta</name>
								<in>7547</in>
								<out>-1</out>
							</marker>
							<marker>
								<comment>Reflexao&#13;Governo economia lobby contra interesse publico&#13;Futuro compartilhado BRICS&#13;Exemplo China desertos&#13;Reduçao consumo petroleo&#13;Transiçao energetica&#13;Acordos internacionais Paris</comment>
								<name>Politica</name>
								<in>32011</in>
								<out>-1</out>
							</marker>
						<link>
							<linkclipref>clipitem-69</linkclipref>
							<mediatype>video</mediatype>
							<trackindex>1</trackindex>
							<clipindex>69</clipindex>
						</link>
						<link>
							<linkclipref>clipitem-200</linkclipref>
							<mediatype>audio</mediatype>
							<trackindex>1</trackindex>
							<clipindex>69</clipindex>
							<groupindex>1</groupindex>
						</link>
						<link>
							<linkclipref>clipitem-298</linkclipref>
							<mediatype>audio</mediatype>
							<trackindex>2</trackindex>
							<clipindex>59</clipindex>
							<groupindex>1</groupindex>
						</link>
						<logginginfo>
							<description></description>
							<scene></scene>
							<shottake></shottake>
							<lognote></lognote>
							<good></good>
							<originalvideofilename></originalvideofilename>
							<originalaudiofilename></originalaudiofilename>
						</logginginfo>
						<colorinfo>
							<lut></lut>
							<lut1></lut1>
							<asc_sop></asc_sop>
							<asc_sat></asc_sat>
							<lut2></lut2>
						</colorinfo>
					</clipitem>
					<clipitem id="clipitem-70">
						<masterclipid>masterclip-15</masterclipid>
						<name>A010_11052157_C001.mov</name>
						<enabled>TRUE</enabled>
						<duration>93255</duration>
						<rate>
							<timebase>30</timebase>
							<ntsc>TRUE</ntsc>
						</rate>
						<start>24568</start>
						<end>26289</end>
						<in>78746</in>
						<out>80467</out>
						<pproTicksIn>667424889331200</pproTicksIn>
						<pproTicksOut>682011512582400</pproTicksOut>
						<alphatype>none</alphatype>
						<pixelaspectratio>square</pixelaspectratio>
						<anamorphic>FALSE</anamorphic>
						<file id="file-15">
							<name>A010_11052157_C001.mov</name>
							<pathurl>file://localhost/Volumes/EDDMA_Pos01/EDDMA_01/BRUTAS/CENAS%20CAPTADAS/20250402_02de02/TRANSCODED/CAM_A/A010/A010_11052157_C001.mov</pathurl>
							<rate>
								<timebase>30</timebase>
								<ntsc>TRUE</ntsc>
							</rate>
							<duration>93255</duration>
							<timecode>
								<rate>
									<timebase>30</timebase>
									<ntsc>TRUE</ntsc>
								</rate>
								<string>16:43:40:01</string>
								<frame>1806601</frame>
								<displayformat>NDF</displayformat>
							</timecode>
							<media>
								<video>
									<samplecharacteristics>
										<rate>
											<timebase>30</timebase>
											<ntsc>TRUE</ntsc>
										</rate>
										<width>1920</width>
										<height>1080</height>
										<anamorphic>FALSE</anamorphic>
										<pixelaspectratio>square</pixelaspectratio>
										<fielddominance>none</fielddominance>
									</samplecharacteristics>
								</video>
								<audio>
									<samplecharacteristics>
										<depth>16</depth>
										<samplerate>48000</samplerate>
									</samplecharacteristics>
									<channelcount>2</channelcount>
								</audio>
							</media>
						</file>
							<marker>
								<comment>Melhorias&#13;Mercado&#13;Comite Sinos&#13;Futuro</comment>
								<name>Industria&#13;</name>
								<in>63334</in>
								<out>-1</out>
							</marker>
							<marker>
								<comment>Lutzenberger&#13;Economia&#13;Biodiversidade&#13;Ponto de nao retorno&#13;Fundaçao Gaia&#13;Ideologia politica&#13;Regeneraçao papel humano</comment>
								<name>Desenvolvimento</name>
								<in>29251</in>
								<out>-1</out>
							</marker>
							<marker>
								<comment>Historia&#13;Precursores&#13;Balduino Rambo&#13;Fundaçao Zoobotanica&#13;Jarbim Botanico&#13;Parque do Turvo&#13;Aparados da Serra&#13;AGAPAN&#13;Lutzenberger&#13;Magda Renner&#13;Giselda Castro</comment>
								<name>Luta ambientalista</name>
								<in>19621</in>
								<out>-1</out>
							</marker>
							<marker>
								<comment>Legislaçao ambiental&#13;Flexibilizaçao de leis&#13;Agrotoxicos&#13;Desenvolvimento</comment>
								<name>Politicas publicas</name>
								<in>81910</in>
								<out>-1</out>
							</marker>
							<marker>
								<comment>Microplasticos&#13;Agrotoxicos&#13;Saude&#13;Lixo reciclagem&#13;Tecnologia&#13;Catadores&#13;Desigualdade social</comment>
								<name>Plastico</name>
								<in>69392</in>
								<out>-1</out>
							</marker>
							<marker>
								<comment>Historia internacional&#13;Precursores&#13;Balduino Rambo</comment>
								<name>Luta ambientalista</name>
								<in>15487</in>
								<out>-1</out>
							</marker>
							<marker>
								<comment>Melhorias beneficios&#13;Aguas rios poluiçao&#13;FEPAM&#13;Economia&#13;Historia&#13;Urbanizaçao desigualdade</comment>
								<name>Industria</name>
								<in>55432</in>
								<out>-1</out>
							</marker>
							<marker>
								<comment>Lutzenberger&#13;Industria tecnologia&#13;Petroleo&#13;Agrotoxicos</comment>
								<name>Agro Agricultura</name>
								<in>50900</in>
								<out>-1</out>
							</marker>
							<marker>
								<comment>Historia&#13;Movimento Roessler&#13;Precursores&#13;Mare Vermelha Praia do Hermenegildo&#13;Magda Renner&#13;Uniao Protetora da Natureza UPN&#13;Augusto Carneiro</comment>
								<name>Luta ambientalista</name>
								<in>818</in>
								<out>-1</out>
							</marker>
							<marker>
								<comment>Historia&#13;Precursores&#13;Mulheres</comment>
								<name>Luta ambientalista</name>
								<in>23631</in>
								<out>-1</out>
							</marker>
							<marker>
								<comment>Combustiveis fosseis&#13;Capitalismo&#13;Monocultura&#13;Industria&#13;Rio 92&#13;Luta ambientalista&#13;Historia&#13;Aumento de eventos climaticos&#13;MST&#13;Agro Agricultura&#13;Movimentos sociais</comment>
								<name>Previsoes e negacionismo</name>
								<in>37080</in>
								<out>-1</out>
							</marker>
							<marker>
								<comment>Historia&#13;Movimento Roessler&#13;Precursores&#13;Aguas Rios&#13;Politicas publicas leis codigos&#13;Augusto Carneiro&#13;Uniao Protetora da Natureza UPN&#13;Lutzenberger&#13;Borregaard&#13;Dayrell&#13;AGAPAN</comment>
								<name>Luta ambientalista</name>
								<in>6615</in>
								<out>-1</out>
							</marker>
							<marker>
								<comment>Polo Petroquimico RS&#13;Petroleo&#13;AGAPAN&#13;Tratamento quimico&#13;Guerra&#13;Economia&#13;Acordos internacionais&#13;Combustiveis fosseis&#13;Aquecimento global</comment>
								<name></name>
								<in>76558</in>
								<out>-1</out>
							</marker>
							<marker>
								<comment>Agua&#13;Rio dos Sinos&#13;Crescimento populacional&#13;Cidade urbanizaçao&#13;Saneamento basico&#13;Juventude Futuro&#13;Aumento dos eventos climaticos&#13;Agro Agricultura&#13;Barragens&#13;Enchente RS</comment>
								<name>Poluiçao</name>
								<in>84316</in>
								<out>-1</out>
							</marker>
							<marker>
								<comment>Crise climatica&#13;Enchente RS&#13;Modelo Desenvolvimento&#13;Transporte Mobilidade&#13;Consumismo desigualdade&#13;Cidades</comment>
								<name>Impacto ambiental</name>
								<in>46192</in>
								<out>-1</out>
							</marker>
						<logginginfo>
							<description></description>
							<scene></scene>
							<shottake></shottake>
							<lognote></lognote>
							<good></good>
							<originalvideofilename></originalvideofilename>
							<originalaudiofilename></originalaudiofilename>
						</logginginfo>
						<colorinfo>
							<lut></lut>
							<lut1></lut1>
							<asc_sop></asc_sop>
							<asc_sat></asc_sat>
							<lut2></lut2>
						</colorinfo>
						<labels>
							<label2>Iris</label2>
						</labels>
					</clipitem>
					<clipitem id="clipitem-71">
						<masterclipid>masterclip-16</masterclipid>
						<name>2025-03-21 03-15-40 .mov</name>
						<enabled>TRUE</enabled>
						<duration>25397</duration>
						<rate>
							<timebase>30</timebase>
							<ntsc>TRUE</ntsc>
						</rate>
						<start>26289</start>
						<end>28175</end>
						<in>7745</in>
						<out>9631</out>
						<pproTicksIn>65644042464000</pproTicksIn>
						<pproTicksOut>81629150803200</pproTicksOut>
						<alphatype>none</alphatype>
						<pixelaspectratio>square</pixelaspectratio>
						<anamorphic>FALSE</anamorphic>
						<file id="file-16">
							<name>2025-03-21 03-15-40 .mov</name>
							<pathurl>file://localhost/Volumes/EDDMA_Pos01/EDDMA_01/BRUTAS/CENAS%20CAPTADAS/20250321/Dal_Marcondes/2025-03-21%2003-15-40%20.mov</pathurl>
							<rate>
								<timebase>30</timebase>
								<ntsc>TRUE</ntsc>
							</rate>
							<duration>25397</duration>
							<timecode>
								<rate>
									<timebase>30</timebase>
									<ntsc>TRUE</ntsc>
								</rate>
								<string>00:00:00:00</string>
								<frame>0</frame>
								<displayformat>NDF</displayformat>
							</timecode>
							<media>
								<video>
									<samplecharacteristics>
										<rate>
											<timebase>30</timebase>
											<ntsc>TRUE</ntsc>
										</rate>
										<width>1920</width>
										<height>1080</height>
										<anamorphic>FALSE</anamorphic>
										<pixelaspectratio>square</pixelaspectratio>
										<fielddominance>none</fielddominance>
									</samplecharacteristics>
								</video>
								<audio>
									<samplecharacteristics>
										<depth>16</depth>
										<samplerate>48000</samplerate>
									</samplecharacteristics>
									<channelcount>2</channelcount>
								</audio>
							</media>
						</file>
							<marker>
								<comment>Transporte mobilidade&#13;Energia combustiveis fosseis biocombustivel&#13;Plasticos&#13;Planejamento futuro&#13;Economia&#13;Desigualdade social</comment>
								<name>Petroleo</name>
								<in>7397</in>
								<out>-1</out>
							</marker>
							<marker>
								<comment>Historia Luta ambientalista&#13;Paris COP</comment>
								<name>Acordos internacionais</name>
								<in>1047</in>
								<out>-1</out>
							</marker>
							<marker>
								<comment>Minas de carvao&#13;Planejamento economico&#13;Politicas Publicas&#13;Transiçao energetica</comment>
								<name>Futuro</name>
								<in>22180</in>
								<out>-1</out>
							</marker>
						<link>
							<linkclipref>clipitem-71</linkclipref>
							<mediatype>video</mediatype>
							<trackindex>1</trackindex>
							<clipindex>71</clipindex>
						</link>
						<link>
							<linkclipref>clipitem-202</linkclipref>
							<mediatype>audio</mediatype>
							<trackindex>1</trackindex>
							<clipindex>71</clipindex>
							<groupindex>1</groupindex>
						</link>
						<link>
							<linkclipref>clipitem-300</linkclipref>
							<mediatype>audio</mediatype>
							<trackindex>2</trackindex>
							<clipindex>61</clipindex>
							<groupindex>1</groupindex>
						</link>
						<logginginfo>
							<description></description>
							<scene></scene>
							<shottake></shottake>
							<lognote></lognote>
							<good></good>
							<originalvideofilename></originalvideofilename>
							<originalaudiofilename></originalaudiofilename>
						</logginginfo>
						<colorinfo>
							<lut></lut>
							<lut1></lut1>
							<asc_sop></asc_sop>
							<asc_sat></asc_sat>
							<lut2></lut2>
						</colorinfo>
					</clipitem>
					<clipitem id="clipitem-72">
						<masterclipid>masterclip-16</masterclipid>
						<name>2025-03-21 03-15-40 .mov</name>
						<enabled>TRUE</enabled>
						<duration>25397</duration>
						<rate>
							<timebase>30</timebase>
							<ntsc>TRUE</ntsc>
						</rate>
						<start>28175</start>
						<end>28751</end>
						<in>11291</in>
						<out>11867</out>
						<pproTicksIn>95698758355200</pproTicksIn>
						<pproTicksOut>100580742662400</pproTicksOut>
						<alphatype>none</alphatype>
						<file id="file-16"/>
							<marker>
								<comment>Transporte mobilidade&#13;Energia combustiveis fosseis biocombustivel&#13;Plasticos&#13;Planejamento futuro&#13;Economia&#13;Desigualdade social</comment>
								<name>Petroleo</name>
								<in>7397</in>
								<out>-1</out>
							</marker>
							<marker>
								<comment>Historia Luta ambientalista&#13;Paris COP</comment>
								<name>Acordos internacionais</name>
								<in>1047</in>
								<out>-1</out>
							</marker>
							<marker>
								<comment>Minas de carvao&#13;Planejamento economico&#13;Politicas Publicas&#13;Transiçao energetica</comment>
								<name>Futuro</name>
								<in>22180</in>
								<out>-1</out>
							</marker>
						<link>
							<linkclipref>clipitem-72</linkclipref>
							<mediatype>video</mediatype>
							<trackindex>1</trackindex>
							<clipindex>72</clipindex>
						</link>
						<link>
							<linkclipref>clipitem-203</linkclipref>
							<mediatype>audio</mediatype>
							<trackindex>1</trackindex>
							<clipindex>72</clipindex>
							<groupindex>1</groupindex>
						</link>
						<link>
							<linkclipref>clipitem-301</linkclipref>
							<mediatype>audio</mediatype>
							<trackindex>2</trackindex>
							<clipindex>62</clipindex>
							<groupindex>1</groupindex>
						</link>
						<logginginfo>
							<description></description>
							<scene></scene>
							<shottake></shottake>
							<lognote></lognote>
							<good></good>
							<originalvideofilename></originalvideofilename>
							<originalaudiofilename></originalaudiofilename>
						</logginginfo>
						<colorinfo>
							<lut></lut>
							<lut1></lut1>
							<asc_sop></asc_sop>
							<asc_sat></asc_sat>
							<lut2></lut2>
						</colorinfo>
					</clipitem>
					<clipitem id="clipitem-73">
						<masterclipid>masterclip-8</masterclipid>
						<name>2025-03-20 08-29-14 .mov</name>
						<enabled>TRUE</enabled>
						<duration>42599</duration>
						<rate>
							<timebase>30</timebase>
							<ntsc>TRUE</ntsc>
						</rate>
						<start>28751</start>
						<end>29449</end>
						<in>38839</in>
						<out>39537</out>
						<pproTicksIn>329186438380800</pproTicksIn>
						<pproTicksOut>335102454086400</pproTicksOut>
						<alphatype>none</alphatype>
						<file id="file-8"/>
							<marker>
								<comment>Impacto na economia&#13;Ajuda na enchente do RS&#13;Energia renovavel mais barata&#13;Transiçao energetica&#13;Politicas publicas e investimentos&#13;Convençao do Clima acordo internacional&#13;Futuro</comment>
								<name>Eventos extremos</name>
								<in>34288</in>
								<out>-1</out>
							</marker>
							<marker>
								<comment>Uso de energia apos revoluçao industrial&#13;Combustiveis fosseis&#13;Carvao mineral e petroleo&#13;Desmatamento</comment>
								<name>Efeito estufa</name>
								<in>12078</in>
								<out>-1</out>
							</marker>
							<marker>
								<comment>Explica que nao e cientista nem especialista</comment>
								<name></name>
								<in>400</in>
								<out>-1</out>
							</marker>
							<marker>
								<comment>Gases da atmosfera&#13;Desequilibrio energetico&#13;Aquecimento global&#13;Previsoes</comment>
								<name>Efeito estufa</name>
								<in>2277</in>
								<out>-1</out>
							</marker>
							<marker>
								<comment>Custo beneficio do uso de energia&#13;Futuro</comment>
								<name>Energia</name>
								<in>16145</in>
								<out>-1</out>
							</marker>
							<marker>
								<comment>Lei da Termodinamica&#13;Nao existe energia limpa&#13;Pegada de carbono&#13;Matriz energetica brasileira&#13;Transiçao energetica&#13;Carvao mineral no RS&#13;Eolica e solar mais barato&#13;Hidreletricas rios e florestas&#13;Transporte mobilidade biocombustivel etanol&#13;Politicas publicas</comment>
								<name>Energia</name>
								<in>19373</in>
								<out>-1</out>
							</marker>
						<link>
							<linkclipref>clipitem-73</linkclipref>
							<mediatype>video</mediatype>
							<trackindex>1</trackindex>
							<clipindex>73</clipindex>
						</link>
						<link>
							<linkclipref>clipitem-204</linkclipref>
							<mediatype>audio</mediatype>
							<trackindex>1</trackindex>
							<clipindex>73</clipindex>
							<groupindex>1</groupindex>
						</link>
						<link>
							<linkclipref>clipitem-302</linkclipref>
							<mediatype>audio</mediatype>
							<trackindex>2</trackindex>
							<clipindex>63</clipindex>
							<groupindex>1</groupindex>
						</link>
						<logginginfo>
							<description></description>
							<scene></scene>
							<shottake></shottake>
							<lognote></lognote>
							<good></good>
							<originalvideofilename></originalvideofilename>
							<originalaudiofilename></originalaudiofilename>
						</logginginfo>
						<colorinfo>
							<lut></lut>
							<lut1></lut1>
							<asc_sop></asc_sop>
							<asc_sat></asc_sat>
							<lut2></lut2>
						</colorinfo>
					</clipitem>
					<clipitem id="clipitem-74">
						<masterclipid>masterclip-8</masterclipid>
						<name>2025-03-20 08-29-14 .mov</name>
						<enabled>TRUE</enabled>
						<duration>42599</duration>
						<rate>
							<timebase>30</timebase>
							<ntsc>TRUE</ntsc>
						</rate>
						<start>29449</start>
						<end>30218</end>
						<in>36990</in>
						<out>37759</out>
						<pproTicksIn>313514929728000</pproTicksIn>
						<pproTicksOut>320032717804800</pproTicksOut>
						<alphatype>none</alphatype>
						<file id="file-8"/>
							<marker>
								<comment>Impacto na economia&#13;Ajuda na enchente do RS&#13;Energia renovavel mais barata&#13;Transiçao energetica&#13;Politicas publicas e investimentos&#13;Convençao do Clima acordo internacional&#13;Futuro</comment>
								<name>Eventos extremos</name>
								<in>34288</in>
								<out>-1</out>
							</marker>
							<marker>
								<comment>Uso de energia apos revoluçao industrial&#13;Combustiveis fosseis&#13;Carvao mineral e petroleo&#13;Desmatamento</comment>
								<name>Efeito estufa</name>
								<in>12078</in>
								<out>-1</out>
							</marker>
							<marker>
								<comment>Explica que nao e cientista nem especialista</comment>
								<name></name>
								<in>400</in>
								<out>-1</out>
							</marker>
							<marker>
								<comment>Gases da atmosfera&#13;Desequilibrio energetico&#13;Aquecimento global&#13;Previsoes</comment>
								<name>Efeito estufa</name>
								<in>2277</in>
								<out>-1</out>
							</marker>
							<marker>
								<comment>Custo beneficio do uso de energia&#13;Futuro</comment>
								<name>Energia</name>
								<in>16145</in>
								<out>-1</out>
							</marker>
							<marker>
								<comment>Lei da Termodinamica&#13;Nao existe energia limpa&#13;Pegada de carbono&#13;Matriz energetica brasileira&#13;Transiçao energetica&#13;Carvao mineral no RS&#13;Eolica e solar mais barato&#13;Hidreletricas rios e florestas&#13;Transporte mobilidade biocombustivel etanol&#13;Politicas publicas</comment>
								<name>Energia</name>
								<in>19373</in>
								<out>-1</out>
							</marker>
						<link>
							<linkclipref>clipitem-74</linkclipref>
							<mediatype>video</mediatype>
							<trackindex>1</trackindex>
							<clipindex>74</clipindex>
						</link>
						<link>
							<linkclipref>clipitem-205</linkclipref>
							<mediatype>audio</mediatype>
							<trackindex>1</trackindex>
							<clipindex>74</clipindex>
							<groupindex>1</groupindex>
						</link>
						<link>
							<linkclipref>clipitem-303</linkclipref>
							<mediatype>audio</mediatype>
							<trackindex>2</trackindex>
							<clipindex>64</clipindex>
							<groupindex>1</groupindex>
						</link>
						<logginginfo>
							<description></description>
							<scene></scene>
							<shottake></shottake>
							<lognote></lognote>
							<good></good>
							<originalvideofilename></originalvideofilename>
							<originalaudiofilename></originalaudiofilename>
						</logginginfo>
						<colorinfo>
							<lut></lut>
							<lut1></lut1>
							<asc_sop></asc_sop>
							<asc_sat></asc_sat>
							<lut2></lut2>
						</colorinfo>
					</clipitem>
					<clipitem id="clipitem-75">
						<masterclipid>masterclip-4</masterclipid>
						<name>A076_02171014_C018.mov</name>
						<enabled>TRUE</enabled>
						<duration>84290</duration>
						<rate>
							<timebase>30</timebase>
							<ntsc>TRUE</ntsc>
						</rate>
						<start>30218</start>
						<end>30638</end>
						<in>23616</in>
						<out>24036</out>
						<pproTicksIn>200161356595200</pproTicksIn>
						<pproTicksOut>203721136819200</pproTicksOut>
						<alphatype>none</alphatype>
						<file id="file-4"/>
							<marker>
								<comment>Mudanças climaticas&#13;Fontes renovaveis&#13;Tecnologia</comment>
								<name>Transiçao energetica&#13;</name>
								<in>41104</in>
								<out>43931</out>
							</marker>
							<marker>
								<comment>COP&#13;Futuro&#13;Energia eolica&#13;Carvao&#13;Emissao de carbono&#13;Poluiçao&#13;Combustiveis fosseis vs fontes renovaveis&#13;Petroleo&#13;Mobilidade transporte</comment>
								<name>Acordos internacionais</name>
								<in>14788</in>
								<out>20458</out>
							</marker>
							<marker>
								<comment>Investimentos&#13;Combustiveis fosseis&#13;Fontes renovaveis&#13;Eolica solar hidreletrica&#13;Segurança energetica&#13;Tecnologias&#13;Hidrogenio verde&#13;Desigualdade&#13;Saude</comment>
								<name>Energia</name>
								<in>9128</in>
								<out>13946</out>
							</marker>
							<marker>
								<comment>Petroleo&#13;Combustiveis fosseis&#13;Fontes renovaveis&#13;Energia limpa&#13;Transporte mobilidade&#13;Etanol Alcool&#13;Politicas publicas&#13;Plasticos</comment>
								<name>Energia</name>
								<in>32741</in>
								<out>34426</out>
							</marker>
							<marker>
								<comment>Fontes renovaveis&#13;Energia limpa&#13;Tecnologias&#13;Politicas publicas&#13;Economia&#13;Combustiveis fosseis</comment>
								<name>Energia</name>
								<in>72795</in>
								<out>75492</out>
							</marker>
							<marker>
								<comment>Energia eolica&#13;Licenciamento ambiental</comment>
								<name>Energia</name>
								<in>54647</in>
								<out>55838</out>
							</marker>
							<marker>
								<comment>Exemplo Uruguai&#13;Energia limpa eolica</comment>
								<name>Energia</name>
								<in>53289</in>
								<out>54406</out>
							</marker>
							<marker>
								<comment>Energia eolica&#13;Energia limpa&#13;Urbanizaçao&#13;Crescimento populacional&#13;Oceanos&#13;Energia Solar&#13;Nordeste</comment>
								<name>Energia</name>
								<in>46401</in>
								<out>53161</out>
							</marker>
							<marker>
								<comment>Fontes renovaveis&#13;Alcool biomassa&#13;Arroz&#13;Economia</comment>
								<name>Energia</name>
								<in>78607</in>
								<out>82155</out>
							</marker>
							<marker>
								<comment>Impacto ser humano&#13;Aquecimento global&#13;Enchentes secas&#13;Mudanças climaticas&#13;Aumento Intensificaçao eventos climaticos&#13;Efeito estufa&#13;Combustiveis fosseis&#13;Petroleo gas natural carvao nuclear&#13;Matriz energetica Brasil&#13;Hidreletrica eolica solar biomassa&#13;Energia limpa&#13;Fontes renovaveis</comment>
								<name>Energia</name>
								<in>2189</in>
								<out>8597</out>
							</marker>
							<marker>
								<comment>Petroleo&#13;Combustiveis fosseis&#13;Fontes renovaveis&#13;Energia limpa&#13;Transporte mobilidade&#13;Etanol Alcool&#13;Politicas publicas&#13;Plasticos</comment>
								<name>Energia</name>
								<in>22169</in>
								<out>29818</out>
							</marker>
							<marker>
								<comment>Combustiveis fosseis&#13;Comparaçao alcool gasolina petroleo&#13;Economia&#13;Politicas publicas&#13;Tecnologias&#13;Acordos internacionais COP</comment>
								<name>Energia</name>
								<in>34883</in>
								<out>40571</out>
							</marker>
							<marker>
								<comment>Tucurui Itaipu&#13;Fontes renovaveis&#13;Barragens&#13;Aguas rios&#13;Mudanças climaticas&#13;Poluiçao&#13;Cita Belo Monte&#13;CGH PCH</comment>
								<name>Hidreletricas</name>
								<in>64615</in>
								<out>69866</out>
							</marker>
							<marker>
								<comment>Ciclo de Vida&#13;Energia solar&#13;Lixo residuos&#13;Politicas publicas</comment>
								<name>Reciclagem</name>
								<in>57506</in>
								<out>63652</out>
							</marker>
							<marker>
								<comment>Fontes renovaveis vs combustiveis fosseis&#13;Transiçao energetica</comment>
								<name>Energia</name>
								<in>30992</in>
								<out>32590</out>
							</marker>
							<marker>
								<comment>Transiçao energetica&#13;Combustiveis fosseis</comment>
								<name>Futuro</name>
								<in>82259</in>
								<out>-1</out>
							</marker>
						<logginginfo>
							<description></description>
							<scene></scene>
							<shottake></shottake>
							<lognote></lognote>
							<good></good>
							<originalvideofilename></originalvideofilename>
							<originalaudiofilename></originalaudiofilename>
						</logginginfo>
						<colorinfo>
							<lut></lut>
							<lut1></lut1>
							<asc_sop></asc_sop>
							<asc_sat></asc_sat>
							<lut2></lut2>
						</colorinfo>
						<labels>
							<label2>Iris</label2>
						</labels>
					</clipitem>
					<clipitem id="clipitem-76">
						<masterclipid>masterclip-8</masterclipid>
						<name>2025-03-20 08-29-14 .mov</name>
						<enabled>TRUE</enabled>
						<duration>42599</duration>
						<rate>
							<timebase>30</timebase>
							<ntsc>TRUE</ntsc>
						</rate>
						<start>30638</start>
						<end>30962</end>
						<in>28884</in>
						<out>29208</out>
						<pproTicksIn>244811171404800</pproTicksIn>
						<pproTicksOut>247557287577600</pproTicksOut>
						<alphatype>none</alphatype>
						<file id="file-8"/>
							<marker>
								<comment>Impacto na economia&#13;Ajuda na enchente do RS&#13;Energia renovavel mais barata&#13;Transiçao energetica&#13;Politicas publicas e investimentos&#13;Convençao do Clima acordo internacional&#13;Futuro</comment>
								<name>Eventos extremos</name>
								<in>34288</in>
								<out>-1</out>
							</marker>
							<marker>
								<comment>Uso de energia apos revoluçao industrial&#13;Combustiveis fosseis&#13;Carvao mineral e petroleo&#13;Desmatamento</comment>
								<name>Efeito estufa</name>
								<in>12078</in>
								<out>-1</out>
							</marker>
							<marker>
								<comment>Explica que nao e cientista nem especialista</comment>
								<name></name>
								<in>400</in>
								<out>-1</out>
							</marker>
							<marker>
								<comment>Gases da atmosfera&#13;Desequilibrio energetico&#13;Aquecimento global&#13;Previsoes</comment>
								<name>Efeito estufa</name>
								<in>2277</in>
								<out>-1</out>
							</marker>
							<marker>
								<comment>Custo beneficio do uso de energia&#13;Futuro</comment>
								<name>Energia</name>
								<in>16145</in>
								<out>-1</out>
							</marker>
							<marker>
								<comment>Lei da Termodinamica&#13;Nao existe energia limpa&#13;Pegada de carbono&#13;Matriz energetica brasileira&#13;Transiçao energetica&#13;Carvao mineral no RS&#13;Eolica e solar mais barato&#13;Hidreletricas rios e florestas&#13;Transporte mobilidade biocombustivel etanol&#13;Politicas publicas</comment>
								<name>Energia</name>
								<in>19373</in>
								<out>-1</out>
							</marker>
						<link>
							<linkclipref>clipitem-76</linkclipref>
							<mediatype>video</mediatype>
							<trackindex>1</trackindex>
							<clipindex>76</clipindex>
						</link>
						<link>
							<linkclipref>clipitem-207</linkclipref>
							<mediatype>audio</mediatype>
							<trackindex>1</trackindex>
							<clipindex>76</clipindex>
							<groupindex>1</groupindex>
						</link>
						<link>
							<linkclipref>clipitem-305</linkclipref>
							<mediatype>audio</mediatype>
							<trackindex>2</trackindex>
							<clipindex>66</clipindex>
							<groupindex>1</groupindex>
						</link>
						<logginginfo>
							<description></description>
							<scene></scene>
							<shottake></shottake>
							<lognote></lognote>
							<good></good>
							<originalvideofilename></originalvideofilename>
							<originalaudiofilename></originalaudiofilename>
						</logginginfo>
						<colorinfo>
							<lut></lut>
							<lut1></lut1>
							<asc_sop></asc_sop>
							<asc_sat></asc_sat>
							<lut2></lut2>
						</colorinfo>
					</clipitem>
					<clipitem id="clipitem-77">
						<masterclipid>masterclip-8</masterclipid>
						<name>2025-03-20 08-29-14 .mov</name>
						<enabled>TRUE</enabled>
						<duration>42599</duration>
						<rate>
							<timebase>30</timebase>
							<ntsc>TRUE</ntsc>
						</rate>
						<start>30962</start>
						<end>32552</end>
						<in>30020</in>
						<out>31610</out>
						<pproTicksIn>254439529344000</pproTicksIn>
						<pproTicksOut>267915840192000</pproTicksOut>
						<alphatype>none</alphatype>
						<file id="file-8"/>
							<marker>
								<comment>Impacto na economia&#13;Ajuda na enchente do RS&#13;Energia renovavel mais barata&#13;Transiçao energetica&#13;Politicas publicas e investimentos&#13;Convençao do Clima acordo internacional&#13;Futuro</comment>
								<name>Eventos extremos</name>
								<in>34288</in>
								<out>-1</out>
							</marker>
							<marker>
								<comment>Uso de energia apos revoluçao industrial&#13;Combustiveis fosseis&#13;Carvao mineral e petroleo&#13;Desmatamento</comment>
								<name>Efeito estufa</name>
								<in>12078</in>
								<out>-1</out>
							</marker>
							<marker>
								<comment>Explica que nao e cientista nem especialista</comment>
								<name></name>
								<in>400</in>
								<out>-1</out>
							</marker>
							<marker>
								<comment>Gases da atmosfera&#13;Desequilibrio energetico&#13;Aquecimento global&#13;Previsoes</comment>
								<name>Efeito estufa</name>
								<in>2277</in>
								<out>-1</out>
							</marker>
							<marker>
								<comment>Custo beneficio do uso de energia&#13;Futuro</comment>
								<name>Energia</name>
								<in>16145</in>
								<out>-1</out>
							</marker>
							<marker>
								<comment>Lei da Termodinamica&#13;Nao existe energia limpa&#13;Pegada de carbono&#13;Matriz energetica brasileira&#13;Transiçao energetica&#13;Carvao mineral no RS&#13;Eolica e solar mais barato&#13;Hidreletricas rios e florestas&#13;Transporte mobilidade biocombustivel etanol&#13;Politicas publicas</comment>
								<name>Energia</name>
								<in>19373</in>
								<out>-1</out>
							</marker>
						<link>
							<linkclipref>clipitem-77</linkclipref>
							<mediatype>video</mediatype>
							<trackindex>1</trackindex>
							<clipindex>77</clipindex>
						</link>
						<link>
							<linkclipref>clipitem-208</linkclipref>
							<mediatype>audio</mediatype>
							<trackindex>1</trackindex>
							<clipindex>77</clipindex>
							<groupindex>1</groupindex>
						</link>
						<link>
							<linkclipref>clipitem-306</linkclipref>
							<mediatype>audio</mediatype>
							<trackindex>2</trackindex>
							<clipindex>67</clipindex>
							<groupindex>1</groupindex>
						</link>
						<logginginfo>
							<description></description>
							<scene></scene>
							<shottake></shottake>
							<lognote></lognote>
							<good></good>
							<originalvideofilename></originalvideofilename>
							<originalaudiofilename></originalaudiofilename>
						</logginginfo>
						<colorinfo>
							<lut></lut>
							<lut1></lut1>
							<asc_sop></asc_sop>
							<asc_sat></asc_sat>
							<lut2></lut2>
						</colorinfo>
					</clipitem>
					<clipitem id="clipitem-78">
						<masterclipid>masterclip-6</masterclipid>
						<name>A048_02020538_C030.mov</name>
						<enabled>TRUE</enabled>
						<duration>74175</duration>
						<rate>
							<timebase>30</timebase>
							<ntsc>TRUE</ntsc>
						</rate>
						<start>32552</start>
						<end>32861</end>
						<in>3453</in>
						<out>3762</out>
						<pproTicksIn>29266478841600</pproTicksIn>
						<pproTicksOut>31885460006400</pproTicksOut>
						<alphatype>none</alphatype>
						<file id="file-6"/>
						<logginginfo>
							<description></description>
							<scene></scene>
							<shottake></shottake>
							<lognote></lognote>
							<good></good>
							<originalvideofilename></originalvideofilename>
							<originalaudiofilename></originalaudiofilename>
						</logginginfo>
						<colorinfo>
							<lut></lut>
							<lut1></lut1>
							<asc_sop></asc_sop>
							<asc_sat></asc_sat>
							<lut2></lut2>
						</colorinfo>
						<labels>
							<label2>Iris</label2>
						</labels>
					</clipitem>
					<clipitem id="clipitem-79">
						<masterclipid>masterclip-6</masterclipid>
						<name>A048_02020538_C030.mov</name>
						<enabled>TRUE</enabled>
						<duration>74175</duration>
						<rate>
							<timebase>30</timebase>
							<ntsc>TRUE</ntsc>
						</rate>
						<start>32861</start>
						<end>33141</end>
						<in>3827</in>
						<out>4107</out>
						<pproTicksIn>32436378374400</pproTicksIn>
						<pproTicksOut>34809565190400</pproTicksOut>
						<alphatype>none</alphatype>
						<file id="file-6"/>
						<logginginfo>
							<description></description>
							<scene></scene>
							<shottake></shottake>
							<lognote></lognote>
							<good></good>
							<originalvideofilename></originalvideofilename>
							<originalaudiofilename></originalaudiofilename>
						</logginginfo>
						<colorinfo>
							<lut></lut>
							<lut1></lut1>
							<asc_sop></asc_sop>
							<asc_sat></asc_sat>
							<lut2></lut2>
						</colorinfo>
						<labels>
							<label2>Iris</label2>
						</labels>
					</clipitem>
					<clipitem id="clipitem-80">
						<masterclipid>masterclip-4</masterclipid>
						<name>A076_02171014_C018.mov</name>
						<enabled>TRUE</enabled>
						<duration>84290</duration>
						<rate>
							<timebase>30</timebase>
							<ntsc>TRUE</ntsc>
						</rate>
						<start>33141</start>
						<end>33244</end>
						<in>25173</in>
						<out>25276</out>
						<pproTicksIn>213357970425600</pproTicksIn>
						<pproTicksOut>214230964147200</pproTicksOut>
						<alphatype>none</alphatype>
						<file id="file-4"/>
							<marker>
								<comment>Mudanças climaticas&#13;Fontes renovaveis&#13;Tecnologia</comment>
								<name>Transiçao energetica&#13;</name>
								<in>41104</in>
								<out>43931</out>
							</marker>
							<marker>
								<comment>COP&#13;Futuro&#13;Energia eolica&#13;Carvao&#13;Emissao de carbono&#13;Poluiçao&#13;Combustiveis fosseis vs fontes renovaveis&#13;Petroleo&#13;Mobilidade transporte</comment>
								<name>Acordos internacionais</name>
								<in>14788</in>
								<out>20458</out>
							</marker>
							<marker>
								<comment>Investimentos&#13;Combustiveis fosseis&#13;Fontes renovaveis&#13;Eolica solar hidreletrica&#13;Segurança energetica&#13;Tecnologias&#13;Hidrogenio verde&#13;Desigualdade&#13;Saude</comment>
								<name>Energia</name>
								<in>9128</in>
								<out>13946</out>
							</marker>
							<marker>
								<comment>Petroleo&#13;Combustiveis fosseis&#13;Fontes renovaveis&#13;Energia limpa&#13;Transporte mobilidade&#13;Etanol Alcool&#13;Politicas publicas&#13;Plasticos</comment>
								<name>Energia</name>
								<in>32741</in>
								<out>34426</out>
							</marker>
							<marker>
								<comment>Fontes renovaveis&#13;Energia limpa&#13;Tecnologias&#13;Politicas publicas&#13;Economia&#13;Combustiveis fosseis</comment>
								<name>Energia</name>
								<in>72795</in>
								<out>75492</out>
							</marker>
							<marker>
								<comment>Energia eolica&#13;Licenciamento ambiental</comment>
								<name>Energia</name>
								<in>54647</in>
								<out>55838</out>
							</marker>
							<marker>
								<comment>Exemplo Uruguai&#13;Energia limpa eolica</comment>
								<name>Energia</name>
								<in>53289</in>
								<out>54406</out>
							</marker>
							<marker>
								<comment>Energia eolica&#13;Energia limpa&#13;Urbanizaçao&#13;Crescimento populacional&#13;Oceanos&#13;Energia Solar&#13;Nordeste</comment>
								<name>Energia</name>
								<in>46401</in>
								<out>53161</out>
							</marker>
							<marker>
								<comment>Fontes renovaveis&#13;Alcool biomassa&#13;Arroz&#13;Economia</comment>
								<name>Energia</name>
								<in>78607</in>
								<out>82155</out>
							</marker>
							<marker>
								<comment>Impacto ser humano&#13;Aquecimento global&#13;Enchentes secas&#13;Mudanças climaticas&#13;Aumento Intensificaçao eventos climaticos&#13;Efeito estufa&#13;Combustiveis fosseis&#13;Petroleo gas natural carvao nuclear&#13;Matriz energetica Brasil&#13;Hidreletrica eolica solar biomassa&#13;Energia limpa&#13;Fontes renovaveis</comment>
								<name>Energia</name>
								<in>2189</in>
								<out>8597</out>
							</marker>
							<marker>
								<comment>Petroleo&#13;Combustiveis fosseis&#13;Fontes renovaveis&#13;Energia limpa&#13;Transporte mobilidade&#13;Etanol Alcool&#13;Politicas publicas&#13;Plasticos</comment>
								<name>Energia</name>
								<in>22169</in>
								<out>29818</out>
							</marker>
							<marker>
								<comment>Combustiveis fosseis&#13;Comparaçao alcool gasolina petroleo&#13;Economia&#13;Politicas publicas&#13;Tecnologias&#13;Acordos internacionais COP</comment>
								<name>Energia</name>
								<in>34883</in>
								<out>40571</out>
							</marker>
							<marker>
								<comment>Tucurui Itaipu&#13;Fontes renovaveis&#13;Barragens&#13;Aguas rios&#13;Mudanças climaticas&#13;Poluiçao&#13;Cita Belo Monte&#13;CGH PCH</comment>
								<name>Hidreletricas</name>
								<in>64615</in>
								<out>69866</out>
							</marker>
							<marker>
								<comment>Ciclo de Vida&#13;Energia solar&#13;Lixo residuos&#13;Politicas publicas</comment>
								<name>Reciclagem</name>
								<in>57506</in>
								<out>63652</out>
							</marker>
							<marker>
								<comment>Fontes renovaveis vs combustiveis fosseis&#13;Transiçao energetica</comment>
								<name>Energia</name>
								<in>30992</in>
								<out>32590</out>
							</marker>
							<marker>
								<comment>Transiçao energetica&#13;Combustiveis fosseis</comment>
								<name>Futuro</name>
								<in>82259</in>
								<out>-1</out>
							</marker>
						<logginginfo>
							<description></description>
							<scene></scene>
							<shottake></shottake>
							<lognote></lognote>
							<good></good>
							<originalvideofilename></originalvideofilename>
							<originalaudiofilename></originalaudiofilename>
						</logginginfo>
						<colorinfo>
							<lut></lut>
							<lut1></lut1>
							<asc_sop></asc_sop>
							<asc_sat></asc_sat>
							<lut2></lut2>
						</colorinfo>
						<labels>
							<label2>Iris</label2>
						</labels>
					</clipitem>
					<clipitem id="clipitem-81">
						<masterclipid>masterclip-4</masterclipid>
						<name>A076_02171014_C018.mov</name>
						<enabled>TRUE</enabled>
						<duration>84290</duration>
						<rate>
							<timebase>30</timebase>
							<ntsc>TRUE</ntsc>
						</rate>
						<start>33244</start>
						<end>33606</end>
						<in>25402</in>
						<out>25764</out>
						<pproTicksIn>215298898214400</pproTicksIn>
						<pproTicksOut>218367089740800</pproTicksOut>
						<alphatype>none</alphatype>
						<file id="file-4"/>
							<marker>
								<comment>Mudanças climaticas&#13;Fontes renovaveis&#13;Tecnologia</comment>
								<name>Transiçao energetica&#13;</name>
								<in>41104</in>
								<out>43931</out>
							</marker>
							<marker>
								<comment>COP&#13;Futuro&#13;Energia eolica&#13;Carvao&#13;Emissao de carbono&#13;Poluiçao&#13;Combustiveis fosseis vs fontes renovaveis&#13;Petroleo&#13;Mobilidade transporte</comment>
								<name>Acordos internacionais</name>
								<in>14788</in>
								<out>20458</out>
							</marker>
							<marker>
								<comment>Investimentos&#13;Combustiveis fosseis&#13;Fontes renovaveis&#13;Eolica solar hidreletrica&#13;Segurança energetica&#13;Tecnologias&#13;Hidrogenio verde&#13;Desigualdade&#13;Saude</comment>
								<name>Energia</name>
								<in>9128</in>
								<out>13946</out>
							</marker>
							<marker>
								<comment>Petroleo&#13;Combustiveis fosseis&#13;Fontes renovaveis&#13;Energia limpa&#13;Transporte mobilidade&#13;Etanol Alcool&#13;Politicas publicas&#13;Plasticos</comment>
								<name>Energia</name>
								<in>32741</in>
								<out>34426</out>
							</marker>
							<marker>
								<comment>Fontes renovaveis&#13;Energia limpa&#13;Tecnologias&#13;Politicas publicas&#13;Economia&#13;Combustiveis fosseis</comment>
								<name>Energia</name>
								<in>72795</in>
								<out>75492</out>
							</marker>
							<marker>
								<comment>Energia eolica&#13;Licenciamento ambiental</comment>
								<name>Energia</name>
								<in>54647</in>
								<out>55838</out>
							</marker>
							<marker>
								<comment>Exemplo Uruguai&#13;Energia limpa eolica</comment>
								<name>Energia</name>
								<in>53289</in>
								<out>54406</out>
							</marker>
							<marker>
								<comment>Energia eolica&#13;Energia limpa&#13;Urbanizaçao&#13;Crescimento populacional&#13;Oceanos&#13;Energia Solar&#13;Nordeste</comment>
								<name>Energia</name>
								<in>46401</in>
								<out>53161</out>
							</marker>
							<marker>
								<comment>Fontes renovaveis&#13;Alcool biomassa&#13;Arroz&#13;Economia</comment>
								<name>Energia</name>
								<in>78607</in>
								<out>82155</out>
							</marker>
							<marker>
								<comment>Impacto ser humano&#13;Aquecimento global&#13;Enchentes secas&#13;Mudanças climaticas&#13;Aumento Intensificaçao eventos climaticos&#13;Efeito estufa&#13;Combustiveis fosseis&#13;Petroleo gas natural carvao nuclear&#13;Matriz energetica Brasil&#13;Hidreletrica eolica solar biomassa&#13;Energia limpa&#13;Fontes renovaveis</comment>
								<name>Energia</name>
								<in>2189</in>
								<out>8597</out>
							</marker>
							<marker>
								<comment>Petroleo&#13;Combustiveis fosseis&#13;Fontes renovaveis&#13;Energia limpa&#13;Transporte mobilidade&#13;Etanol Alcool&#13;Politicas publicas&#13;Plasticos</comment>
								<name>Energia</name>
								<in>22169</in>
								<out>29818</out>
							</marker>
							<marker>
								<comment>Combustiveis fosseis&#13;Comparaçao alcool gasolina petroleo&#13;Economia&#13;Politicas publicas&#13;Tecnologias&#13;Acordos internacionais COP</comment>
								<name>Energia</name>
								<in>34883</in>
								<out>40571</out>
							</marker>
							<marker>
								<comment>Tucurui Itaipu&#13;Fontes renovaveis&#13;Barragens&#13;Aguas rios&#13;Mudanças climaticas&#13;Poluiçao&#13;Cita Belo Monte&#13;CGH PCH</comment>
								<name>Hidreletricas</name>
								<in>64615</in>
								<out>69866</out>
							</marker>
							<marker>
								<comment>Ciclo de Vida&#13;Energia solar&#13;Lixo residuos&#13;Politicas publicas</comment>
								<name>Reciclagem</name>
								<in>57506</in>
								<out>63652</out>
							</marker>
							<marker>
								<comment>Fontes renovaveis vs combustiveis fosseis&#13;Transiçao energetica</comment>
								<name>Energia</name>
								<in>30992</in>
								<out>32590</out>
							</marker>
							<marker>
								<comment>Transiçao energetica&#13;Combustiveis fosseis</comment>
								<name>Futuro</name>
								<in>82259</in>
								<out>-1</out>
							</marker>
						<logginginfo>
							<description></description>
							<scene></scene>
							<shottake></shottake>
							<lognote></lognote>
							<good></good>
							<originalvideofilename></originalvideofilename>
							<originalaudiofilename></originalaudiofilename>
						</logginginfo>
						<colorinfo>
							<lut></lut>
							<lut1></lut1>
							<asc_sop></asc_sop>
							<asc_sat></asc_sat>
							<lut2></lut2>
						</colorinfo>
						<labels>
							<label2>Iris</label2>
						</labels>
					</clipitem>
					<clipitem id="clipitem-82">
						<masterclipid>masterclip-8</masterclipid>
						<name>2025-03-20 08-29-14 .mov</name>
						<enabled>TRUE</enabled>
						<duration>42599</duration>
						<rate>
							<timebase>30</timebase>
							<ntsc>TRUE</ntsc>
						</rate>
						<start>33606</start>
						<end>34099</end>
						<in>25107</in>
						<out>25600</out>
						<pproTicksIn>212798576390400</pproTicksIn>
						<pproTicksOut>216977080320000</pproTicksOut>
						<alphatype>none</alphatype>
						<file id="file-8"/>
							<marker>
								<comment>Impacto na economia&#13;Ajuda na enchente do RS&#13;Energia renovavel mais barata&#13;Transiçao energetica&#13;Politicas publicas e investimentos&#13;Convençao do Clima acordo internacional&#13;Futuro</comment>
								<name>Eventos extremos</name>
								<in>34288</in>
								<out>-1</out>
							</marker>
							<marker>
								<comment>Uso de energia apos revoluçao industrial&#13;Combustiveis fosseis&#13;Carvao mineral e petroleo&#13;Desmatamento</comment>
								<name>Efeito estufa</name>
								<in>12078</in>
								<out>-1</out>
							</marker>
							<marker>
								<comment>Explica que nao e cientista nem especialista</comment>
								<name></name>
								<in>400</in>
								<out>-1</out>
							</marker>
							<marker>
								<comment>Gases da atmosfera&#13;Desequilibrio energetico&#13;Aquecimento global&#13;Previsoes</comment>
								<name>Efeito estufa</name>
								<in>2277</in>
								<out>-1</out>
							</marker>
							<marker>
								<comment>Custo beneficio do uso de energia&#13;Futuro</comment>
								<name>Energia</name>
								<in>16145</in>
								<out>-1</out>
							</marker>
							<marker>
								<comment>Lei da Termodinamica&#13;Nao existe energia limpa&#13;Pegada de carbono&#13;Matriz energetica brasileira&#13;Transiçao energetica&#13;Carvao mineral no RS&#13;Eolica e solar mais barato&#13;Hidreletricas rios e florestas&#13;Transporte mobilidade biocombustivel etanol&#13;Politicas publicas</comment>
								<name>Energia</name>
								<in>19373</in>
								<out>-1</out>
							</marker>
						<link>
							<linkclipref>clipitem-82</linkclipref>
							<mediatype>video</mediatype>
							<trackindex>1</trackindex>
							<clipindex>82</clipindex>
						</link>
						<link>
							<linkclipref>clipitem-213</linkclipref>
							<mediatype>audio</mediatype>
							<trackindex>1</trackindex>
							<clipindex>82</clipindex>
							<groupindex>1</groupindex>
						</link>
						<link>
							<linkclipref>clipitem-311</linkclipref>
							<mediatype>audio</mediatype>
							<trackindex>2</trackindex>
							<clipindex>72</clipindex>
							<groupindex>1</groupindex>
						</link>
						<logginginfo>
							<description></description>
							<scene></scene>
							<shottake></shottake>
							<lognote></lognote>
							<good></good>
							<originalvideofilename></originalvideofilename>
							<originalaudiofilename></originalaudiofilename>
						</logginginfo>
						<colorinfo>
							<lut></lut>
							<lut1></lut1>
							<asc_sop></asc_sop>
							<asc_sat></asc_sat>
							<lut2></lut2>
						</colorinfo>
					</clipitem>
					<clipitem id="clipitem-83">
						<masterclipid>masterclip-8</masterclipid>
						<name>2025-03-20 08-29-14 .mov</name>
						<enabled>TRUE</enabled>
						<duration>42599</duration>
						<rate>
							<timebase>30</timebase>
							<ntsc>TRUE</ntsc>
						</rate>
						<start>34099</start>
						<end>34895</end>
						<in>25600</in>
						<out>26396</out>
						<pproTicksIn>216977080320000</pproTicksIn>
						<pproTicksOut>223723711411200</pproTicksOut>
						<alphatype>none</alphatype>
						<file id="file-8"/>
							<marker>
								<comment>Impacto na economia&#13;Ajuda na enchente do RS&#13;Energia renovavel mais barata&#13;Transiçao energetica&#13;Politicas publicas e investimentos&#13;Convençao do Clima acordo internacional&#13;Futuro</comment>
								<name>Eventos extremos</name>
								<in>34288</in>
								<out>-1</out>
							</marker>
							<marker>
								<comment>Uso de energia apos revoluçao industrial&#13;Combustiveis fosseis&#13;Carvao mineral e petroleo&#13;Desmatamento</comment>
								<name>Efeito estufa</name>
								<in>12078</in>
								<out>-1</out>
							</marker>
							<marker>
								<comment>Explica que nao e cientista nem especialista</comment>
								<name></name>
								<in>400</in>
								<out>-1</out>
							</marker>
							<marker>
								<comment>Gases da atmosfera&#13;Desequilibrio energetico&#13;Aquecimento global&#13;Previsoes</comment>
								<name>Efeito estufa</name>
								<in>2277</in>
								<out>-1</out>
							</marker>
							<marker>
								<comment>Custo beneficio do uso de energia&#13;Futuro</comment>
								<name>Energia</name>
								<in>16145</in>
								<out>-1</out>
							</marker>
							<marker>
								<comment>Lei da Termodinamica&#13;Nao existe energia limpa&#13;Pegada de carbono&#13;Matriz energetica brasileira&#13;Transiçao energetica&#13;Carvao mineral no RS&#13;Eolica e solar mais barato&#13;Hidreletricas rios e florestas&#13;Transporte mobilidade biocombustivel etanol&#13;Politicas publicas</comment>
								<name>Energia</name>
								<in>19373</in>
								<out>-1</out>
							</marker>
						<link>
							<linkclipref>clipitem-83</linkclipref>
							<mediatype>video</mediatype>
							<trackindex>1</trackindex>
							<clipindex>83</clipindex>
						</link>
						<link>
							<linkclipref>clipitem-214</linkclipref>
							<mediatype>audio</mediatype>
							<trackindex>1</trackindex>
							<clipindex>83</clipindex>
							<groupindex>1</groupindex>
						</link>
						<link>
							<linkclipref>clipitem-312</linkclipref>
							<mediatype>audio</mediatype>
							<trackindex>2</trackindex>
							<clipindex>73</clipindex>
							<groupindex>1</groupindex>
						</link>
						<logginginfo>
							<description></description>
							<scene></scene>
							<shottake></shottake>
							<lognote></lognote>
							<good></good>
							<originalvideofilename></originalvideofilename>
							<originalaudiofilename></originalaudiofilename>
						</logginginfo>
						<colorinfo>
							<lut></lut>
							<lut1></lut1>
							<asc_sop></asc_sop>
							<asc_sat></asc_sat>
							<lut2></lut2>
						</colorinfo>
					</clipitem>
					<clipitem id="clipitem-84">
						<masterclipid>masterclip-6</masterclipid>
						<name>A048_02020538_C030.mov</name>
						<enabled>TRUE</enabled>
						<duration>74175</duration>
						<rate>
							<timebase>30</timebase>
							<ntsc>TRUE</ntsc>
						</rate>
						<start>34895</start>
						<end>35047</end>
						<in>5668</in>
						<out>5820</out>
						<pproTicksIn>48040081689600</pproTicksIn>
						<pproTicksOut>49328383104000</pproTicksOut>
						<alphatype>none</alphatype>
						<file id="file-6"/>
						<logginginfo>
							<description></description>
							<scene></scene>
							<shottake></shottake>
							<lognote></lognote>
							<good></good>
							<originalvideofilename></originalvideofilename>
							<originalaudiofilename></originalaudiofilename>
						</logginginfo>
						<colorinfo>
							<lut></lut>
							<lut1></lut1>
							<asc_sop></asc_sop>
							<asc_sat></asc_sat>
							<lut2></lut2>
						</colorinfo>
						<labels>
							<label2>Iris</label2>
						</labels>
					</clipitem>
					<clipitem id="clipitem-85">
						<masterclipid>masterclip-6</masterclipid>
						<name>A048_02020538_C030.mov</name>
						<enabled>TRUE</enabled>
						<duration>74175</duration>
						<rate>
							<timebase>30</timebase>
							<ntsc>TRUE</ntsc>
						</rate>
						<start>35047</start>
						<end>35618</end>
						<in>6953</in>
						<out>7524</out>
						<pproTicksIn>58931314041600</pproTicksIn>
						<pproTicksOut>63770920012800</pproTicksOut>
						<alphatype>none</alphatype>
						<file id="file-6"/>
						<logginginfo>
							<description></description>
							<scene></scene>
							<shottake></shottake>
							<lognote></lognote>
							<good></good>
							<originalvideofilename></originalvideofilename>
							<originalaudiofilename></originalaudiofilename>
						</logginginfo>
						<colorinfo>
							<lut></lut>
							<lut1></lut1>
							<asc_sop></asc_sop>
							<asc_sat></asc_sat>
							<lut2></lut2>
						</colorinfo>
						<labels>
							<label2>Iris</label2>
						</labels>
					</clipitem>
					<clipitem id="clipitem-86">
						<masterclipid>masterclip-6</masterclipid>
						<name>A048_02020538_C030.mov</name>
						<enabled>TRUE</enabled>
						<duration>74175</duration>
						<rate>
							<timebase>30</timebase>
							<ntsc>TRUE</ntsc>
						</rate>
						<start>35618</start>
						<end>35970</end>
						<in>8180</in>
						<out>8532</out>
						<pproTicksIn>69330957696000</pproTicksIn>
						<pproTicksOut>72314392550400</pproTicksOut>
						<alphatype>none</alphatype>
						<file id="file-6"/>
						<logginginfo>
							<description></description>
							<scene></scene>
							<shottake></shottake>
							<lognote></lognote>
							<good></good>
							<originalvideofilename></originalvideofilename>
							<originalaudiofilename></originalaudiofilename>
						</logginginfo>
						<colorinfo>
							<lut></lut>
							<lut1></lut1>
							<asc_sop></asc_sop>
							<asc_sat></asc_sat>
							<lut2></lut2>
						</colorinfo>
						<labels>
							<label2>Iris</label2>
						</labels>
					</clipitem>
					<clipitem id="clipitem-87">
						<masterclipid>masterclip-6</masterclipid>
						<name>A048_02020538_C030.mov</name>
						<enabled>TRUE</enabled>
						<duration>74175</duration>
						<rate>
							<timebase>30</timebase>
							<ntsc>TRUE</ntsc>
						</rate>
						<start>35970</start>
						<end>36184</end>
						<in>9162</in>
						<out>9376</out>
						<pproTicksIn>77654062886400</pproTicksIn>
						<pproTicksOut>79467855667200</pproTicksOut>
						<alphatype>none</alphatype>
						<file id="file-6"/>
						<logginginfo>
							<description></description>
							<scene></scene>
							<shottake></shottake>
							<lognote></lognote>
							<good></good>
							<originalvideofilename></originalvideofilename>
							<originalaudiofilename></originalaudiofilename>
						</logginginfo>
						<colorinfo>
							<lut></lut>
							<lut1></lut1>
							<asc_sop></asc_sop>
							<asc_sat></asc_sat>
							<lut2></lut2>
						</colorinfo>
						<labels>
							<label2>Iris</label2>
						</labels>
					</clipitem>
					<clipitem id="clipitem-88">
						<masterclipid>masterclip-10</masterclipid>
						<name>A074_02170310_C001.mov</name>
						<enabled>TRUE</enabled>
						<duration>88120</duration>
						<rate>
							<timebase>30</timebase>
							<ntsc>TRUE</ntsc>
						</rate>
						<start>36184</start>
						<end>36859</end>
						<in>67072</in>
						<out>67747</out>
						<pproTicksIn>568479950438400</pproTicksIn>
						<pproTicksOut>574201025798400</pproTicksOut>
						<alphatype>none</alphatype>
						<file id="file-10"/>
							<marker>
								<comment>Sistema capitalista&#13;Mudanças climaticas&#13;Enchente RS&#13;Desigualdade&#13;Solidariedade</comment>
								<name>Coletividade</name>
								<in>4155</in>
								<out>10497</out>
							</marker>
							<marker>
								<comment>COP&#13;Participaçao popular&#13;RIO+20&#13;Economia Verde&#13;Sistema Capitalista&#13;Coletividade&#13;Desigualdade Racismo ambiental&#13;Povos originarios indigenas quilombolas&#13;Pampa&#13;Industria&#13;Agro Agricultura&#13;Energia</comment>
								<name>Acordos internacionais&#13;</name>
								<in>80628</in>
								<out>88034</out>
							</marker>
							<marker>
								<comment>Luta ambientalista&#13;Atingidos&#13;CRAB MST MAB&#13;Rio Uruguai&#13;Hidreletricas&#13;Energia&#13;Rio Madeira&#13;Belo Monte&#13;Povos originarios indigenas&#13;Xingu&#13;Mineraçao ouro</comment>
								<name>Barragens</name>
								<in>73430</in>
								<out>79509</out>
							</marker>
							<marker>
								<comment>Historia&#13;ADFG&#13;Ditadura&#13;Ideologia politica&#13;Tecnologias&#13;Cita Giselda Castro Magda Renner Lutzenberger&#13;Precursores&#13;RS Pioneiro&#13;Mulheres&#13;Crescimento populacional&#13;Urbanizaçao&#13;Consumismo&#13;Inclusao</comment>
								<name>Luta ambientalista</name>
								<in>28843</in>
								<out>46650</out>
							</marker>
							<marker>
								<comment>Sistema capitalista&#13;Agrotoxicos&#13;Agro Agricultura&#13;Mudanças climaticas&#13;Transporte mobilidade&#13;Refugiados climaticos&#13;Desigualdade&#13;Enchente RS&#13;Sementes&#13;Coletividade</comment>
								<name>Economia&#13;</name>
								<in>20949</in>
								<out>26649</out>
							</marker>
							<marker>
								<comment>Fontes renovaveis&#13;Combustiveis fosseis&#13;Consumismo&#13;Solar Eolica&#13;Comunidades locais&#13;Saude mental&#13;Desigualdade&#13;Licenciamento ambiental&#13;Industria&#13;Politicas publicas</comment>
								<name>Energia</name>
								<in>65483</in>
								<out>73090</out>
							</marker>
							<marker>
								<comment>Relato pessoal&#13;Sistema de Proteçao&#13;Atingidos</comment>
								<name>Enchente RS</name>
								<in>11749</in>
								<out>13603</out>
							</marker>
							<marker>
								<comment>FEPAM&#13;Candiota&#13;Mineraçao&#13;Minas Carvao&#13;Aguas rios&#13;Poluiçao&#13;Saude&#13;Apagao&#13;Barragens&#13;Rio Uruguai&#13;Amazonia&#13;Angra III Nuclear&#13;Transiçao energetica&#13;Fontes renovaveis&#13;Emissao de carbono&#13;Efeito estufa&#13;Atingidos&#13;Politicas publicas&#13;Participaçao popular&#13;Industria&#13;Comunidades locais&#13;Economia&#13;Tecnologias</comment>
								<name>Energia</name>
								<in>48683</in>
								<out>64406</out>
							</marker>
							<marker>
								<comment>Biodiversidade&#13;Aguas rios&#13;Agro Agricultura&#13;Monocultura&#13;Povos originarios indigenas quilombolas&#13;Participaçao popular&#13;Politicas publicas&#13;Campo e Cidade</comment>
								<name>Conceito Territorio</name>
								<in>15277</in>
								<out>20534</out>
							</marker>
						<logginginfo>
							<description></description>
							<scene></scene>
							<shottake></shottake>
							<lognote></lognote>
							<good></good>
							<originalvideofilename></originalvideofilename>
							<originalaudiofilename></originalaudiofilename>
						</logginginfo>
						<colorinfo>
							<lut></lut>
							<lut1></lut1>
							<asc_sop></asc_sop>
							<asc_sat></asc_sat>
							<lut2></lut2>
						</colorinfo>
						<labels>
							<label2>Iris</label2>
						</labels>
					</clipitem>
					<clipitem id="clipitem-89">
						<masterclipid>masterclip-10</masterclipid>
						<name>A074_02170310_C001.mov</name>
						<enabled>TRUE</enabled>
						<duration>88120</duration>
						<rate>
							<timebase>30</timebase>
							<ntsc>TRUE</ntsc>
						</rate>
						<start>36859</start>
						<end>37207</end>
						<in>68614</in>
						<out>68962</out>
						<pproTicksIn>581549429260800</pproTicksIn>
						<pproTicksOut>584498961446400</pproTicksOut>
						<alphatype>none</alphatype>
						<file id="file-10"/>
							<marker>
								<comment>Sistema capitalista&#13;Mudanças climaticas&#13;Enchente RS&#13;Desigualdade&#13;Solidariedade</comment>
								<name>Coletividade</name>
								<in>4155</in>
								<out>10497</out>
							</marker>
							<marker>
								<comment>COP&#13;Participaçao popular&#13;RIO+20&#13;Economia Verde&#13;Sistema Capitalista&#13;Coletividade&#13;Desigualdade Racismo ambiental&#13;Povos originarios indigenas quilombolas&#13;Pampa&#13;Industria&#13;Agro Agricultura&#13;Energia</comment>
								<name>Acordos internacionais&#13;</name>
								<in>80628</in>
								<out>88034</out>
							</marker>
							<marker>
								<comment>Luta ambientalista&#13;Atingidos&#13;CRAB MST MAB&#13;Rio Uruguai&#13;Hidreletricas&#13;Energia&#13;Rio Madeira&#13;Belo Monte&#13;Povos originarios indigenas&#13;Xingu&#13;Mineraçao ouro</comment>
								<name>Barragens</name>
								<in>73430</in>
								<out>79509</out>
							</marker>
							<marker>
								<comment>Historia&#13;ADFG&#13;Ditadura&#13;Ideologia politica&#13;Tecnologias&#13;Cita Giselda Castro Magda Renner Lutzenberger&#13;Precursores&#13;RS Pioneiro&#13;Mulheres&#13;Crescimento populacional&#13;Urbanizaçao&#13;Consumismo&#13;Inclusao</comment>
								<name>Luta ambientalista</name>
								<in>28843</in>
								<out>46650</out>
							</marker>
							<marker>
								<comment>Sistema capitalista&#13;Agrotoxicos&#13;Agro Agricultura&#13;Mudanças climaticas&#13;Transporte mobilidade&#13;Refugiados climaticos&#13;Desigualdade&#13;Enchente RS&#13;Sementes&#13;Coletividade</comment>
								<name>Economia&#13;</name>
								<in>20949</in>
								<out>26649</out>
							</marker>
							<marker>
								<comment>Fontes renovaveis&#13;Combustiveis fosseis&#13;Consumismo&#13;Solar Eolica&#13;Comunidades locais&#13;Saude mental&#13;Desigualdade&#13;Licenciamento ambiental&#13;Industria&#13;Politicas publicas</comment>
								<name>Energia</name>
								<in>65483</in>
								<out>73090</out>
							</marker>
							<marker>
								<comment>Relato pessoal&#13;Sistema de Proteçao&#13;Atingidos</comment>
								<name>Enchente RS</name>
								<in>11749</in>
								<out>13603</out>
							</marker>
							<marker>
								<comment>FEPAM&#13;Candiota&#13;Mineraçao&#13;Minas Carvao&#13;Aguas rios&#13;Poluiçao&#13;Saude&#13;Apagao&#13;Barragens&#13;Rio Uruguai&#13;Amazonia&#13;Angra III Nuclear&#13;Transiçao energetica&#13;Fontes renovaveis&#13;Emissao de carbono&#13;Efeito estufa&#13;Atingidos&#13;Politicas publicas&#13;Participaçao popular&#13;Industria&#13;Comunidades locais&#13;Economia&#13;Tecnologias</comment>
								<name>Energia</name>
								<in>48683</in>
								<out>64406</out>
							</marker>
							<marker>
								<comment>Biodiversidade&#13;Aguas rios&#13;Agro Agricultura&#13;Monocultura&#13;Povos originarios indigenas quilombolas&#13;Participaçao popular&#13;Politicas publicas&#13;Campo e Cidade</comment>
								<name>Conceito Territorio</name>
								<in>15277</in>
								<out>20534</out>
							</marker>
						<logginginfo>
							<description></description>
							<scene></scene>
							<shottake></shottake>
							<lognote></lognote>
							<good></good>
							<originalvideofilename></originalvideofilename>
							<originalaudiofilename></originalaudiofilename>
						</logginginfo>
						<colorinfo>
							<lut></lut>
							<lut1></lut1>
							<asc_sop></asc_sop>
							<asc_sat></asc_sat>
							<lut2></lut2>
						</colorinfo>
						<labels>
							<label2>Iris</label2>
						</labels>
					</clipitem>
					<clipitem id="clipitem-90">
						<masterclipid>masterclip-8</masterclipid>
						<name>2025-03-20 08-29-14 .mov</name>
						<enabled>TRUE</enabled>
						<duration>42599</duration>
						<rate>
							<timebase>30</timebase>
							<ntsc>TRUE</ntsc>
						</rate>
						<start>37207</start>
						<end>37923</end>
						<in>27182</in>
						<out>27898</out>
						<pproTicksIn>230385585830400</pproTicksIn>
						<pproTicksOut>236454163545600</pproTicksOut>
						<alphatype>none</alphatype>
						<file id="file-8"/>
							<marker>
								<comment>Impacto na economia&#13;Ajuda na enchente do RS&#13;Energia renovavel mais barata&#13;Transiçao energetica&#13;Politicas publicas e investimentos&#13;Convençao do Clima acordo internacional&#13;Futuro</comment>
								<name>Eventos extremos</name>
								<in>34288</in>
								<out>-1</out>
							</marker>
							<marker>
								<comment>Uso de energia apos revoluçao industrial&#13;Combustiveis fosseis&#13;Carvao mineral e petroleo&#13;Desmatamento</comment>
								<name>Efeito estufa</name>
								<in>12078</in>
								<out>-1</out>
							</marker>
							<marker>
								<comment>Explica que nao e cientista nem especialista</comment>
								<name></name>
								<in>400</in>
								<out>-1</out>
							</marker>
							<marker>
								<comment>Gases da atmosfera&#13;Desequilibrio energetico&#13;Aquecimento global&#13;Previsoes</comment>
								<name>Efeito estufa</name>
								<in>2277</in>
								<out>-1</out>
							</marker>
							<marker>
								<comment>Custo beneficio do uso de energia&#13;Futuro</comment>
								<name>Energia</name>
								<in>16145</in>
								<out>-1</out>
							</marker>
							<marker>
								<comment>Lei da Termodinamica&#13;Nao existe energia limpa&#13;Pegada de carbono&#13;Matriz energetica brasileira&#13;Transiçao energetica&#13;Carvao mineral no RS&#13;Eolica e solar mais barato&#13;Hidreletricas rios e florestas&#13;Transporte mobilidade biocombustivel etanol&#13;Politicas publicas</comment>
								<name>Energia</name>
								<in>19373</in>
								<out>-1</out>
							</marker>
						<link>
							<linkclipref>clipitem-90</linkclipref>
							<mediatype>video</mediatype>
							<trackindex>1</trackindex>
							<clipindex>90</clipindex>
						</link>
						<link>
							<linkclipref>clipitem-221</linkclipref>
							<mediatype>audio</mediatype>
							<trackindex>1</trackindex>
							<clipindex>90</clipindex>
							<groupindex>1</groupindex>
						</link>
						<link>
							<linkclipref>clipitem-319</linkclipref>
							<mediatype>audio</mediatype>
							<trackindex>2</trackindex>
							<clipindex>80</clipindex>
							<groupindex>1</groupindex>
						</link>
						<logginginfo>
							<description></description>
							<scene></scene>
							<shottake></shottake>
							<lognote></lognote>
							<good></good>
							<originalvideofilename></originalvideofilename>
							<originalaudiofilename></originalaudiofilename>
						</logginginfo>
						<colorinfo>
							<lut></lut>
							<lut1></lut1>
							<asc_sop></asc_sop>
							<asc_sat></asc_sat>
							<lut2></lut2>
						</colorinfo>
					</clipitem>
					<clipitem id="clipitem-91">
						<masterclipid>masterclip-6</masterclipid>
						<name>A048_02020538_C030.mov</name>
						<enabled>TRUE</enabled>
						<duration>74175</duration>
						<rate>
							<timebase>30</timebase>
							<ntsc>TRUE</ntsc>
						</rate>
						<start>37923</start>
						<end>38380</end>
						<in>26479</in>
						<out>26936</out>
						<pproTicksIn>224427191788800</pproTicksIn>
						<pproTicksOut>228300571699200</pproTicksOut>
						<alphatype>none</alphatype>
						<file id="file-6"/>
						<logginginfo>
							<description></description>
							<scene></scene>
							<shottake></shottake>
							<lognote></lognote>
							<good></good>
							<originalvideofilename></originalvideofilename>
							<originalaudiofilename></originalaudiofilename>
						</logginginfo>
						<colorinfo>
							<lut></lut>
							<lut1></lut1>
							<asc_sop></asc_sop>
							<asc_sat></asc_sat>
							<lut2></lut2>
						</colorinfo>
						<labels>
							<label2>Iris</label2>
						</labels>
					</clipitem>
					<clipitem id="clipitem-92">
						<masterclipid>masterclip-6</masterclipid>
						<name>A048_02020538_C030.mov</name>
						<enabled>TRUE</enabled>
						<duration>74175</duration>
						<rate>
							<timebase>30</timebase>
							<ntsc>TRUE</ntsc>
						</rate>
						<start>38380</start>
						<end>38804</end>
						<in>27215</in>
						<out>27639</out>
						<pproTicksIn>230665282848000</pproTicksIn>
						<pproTicksOut>234258965740800</pproTicksOut>
						<alphatype>none</alphatype>
						<file id="file-6"/>
						<logginginfo>
							<description></description>
							<scene></scene>
							<shottake></shottake>
							<lognote></lognote>
							<good></good>
							<originalvideofilename></originalvideofilename>
							<originalaudiofilename></originalaudiofilename>
						</logginginfo>
						<colorinfo>
							<lut></lut>
							<lut1></lut1>
							<asc_sop></asc_sop>
							<asc_sat></asc_sat>
							<lut2></lut2>
						</colorinfo>
						<labels>
							<label2>Iris</label2>
						</labels>
					</clipitem>
					<clipitem id="clipitem-93">
						<masterclipid>masterclip-10</masterclipid>
						<name>A074_02170310_C001.mov</name>
						<enabled>TRUE</enabled>
						<duration>88120</duration>
						<rate>
							<timebase>30</timebase>
							<ntsc>TRUE</ntsc>
						</rate>
						<start>38804</start>
						<end>39206</end>
						<in>72341</in>
						<out>72743</out>
						<pproTicksIn>613138240915200</pproTicksIn>
						<pproTicksOut>616545459129600</pproTicksOut>
						<alphatype>none</alphatype>
						<file id="file-10"/>
							<marker>
								<comment>Sistema capitalista&#13;Mudanças climaticas&#13;Enchente RS&#13;Desigualdade&#13;Solidariedade</comment>
								<name>Coletividade</name>
								<in>4155</in>
								<out>10497</out>
							</marker>
							<marker>
								<comment>COP&#13;Participaçao popular&#13;RIO+20&#13;Economia Verde&#13;Sistema Capitalista&#13;Coletividade&#13;Desigualdade Racismo ambiental&#13;Povos originarios indigenas quilombolas&#13;Pampa&#13;Industria&#13;Agro Agricultura&#13;Energia</comment>
								<name>Acordos internacionais&#13;</name>
								<in>80628</in>
								<out>88034</out>
							</marker>
							<marker>
								<comment>Luta ambientalista&#13;Atingidos&#13;CRAB MST MAB&#13;Rio Uruguai&#13;Hidreletricas&#13;Energia&#13;Rio Madeira&#13;Belo Monte&#13;Povos originarios indigenas&#13;Xingu&#13;Mineraçao ouro</comment>
								<name>Barragens</name>
								<in>73430</in>
								<out>79509</out>
							</marker>
							<marker>
								<comment>Historia&#13;ADFG&#13;Ditadura&#13;Ideologia politica&#13;Tecnologias&#13;Cita Giselda Castro Magda Renner Lutzenberger&#13;Precursores&#13;RS Pioneiro&#13;Mulheres&#13;Crescimento populacional&#13;Urbanizaçao&#13;Consumismo&#13;Inclusao</comment>
								<name>Luta ambientalista</name>
								<in>28843</in>
								<out>46650</out>
							</marker>
							<marker>
								<comment>Sistema capitalista&#13;Agrotoxicos&#13;Agro Agricultura&#13;Mudanças climaticas&#13;Transporte mobilidade&#13;Refugiados climaticos&#13;Desigualdade&#13;Enchente RS&#13;Sementes&#13;Coletividade</comment>
								<name>Economia&#13;</name>
								<in>20949</in>
								<out>26649</out>
							</marker>
							<marker>
								<comment>Fontes renovaveis&#13;Combustiveis fosseis&#13;Consumismo&#13;Solar Eolica&#13;Comunidades locais&#13;Saude mental&#13;Desigualdade&#13;Licenciamento ambiental&#13;Industria&#13;Politicas publicas</comment>
								<name>Energia</name>
								<in>65483</in>
								<out>73090</out>
							</marker>
							<marker>
								<comment>Relato pessoal&#13;Sistema de Proteçao&#13;Atingidos</comment>
								<name>Enchente RS</name>
								<in>11749</in>
								<out>13603</out>
							</marker>
							<marker>
								<comment>FEPAM&#13;Candiota&#13;Mineraçao&#13;Minas Carvao&#13;Aguas rios&#13;Poluiçao&#13;Saude&#13;Apagao&#13;Barragens&#13;Rio Uruguai&#13;Amazonia&#13;Angra III Nuclear&#13;Transiçao energetica&#13;Fontes renovaveis&#13;Emissao de carbono&#13;Efeito estufa&#13;Atingidos&#13;Politicas publicas&#13;Participaçao popular&#13;Industria&#13;Comunidades locais&#13;Economia&#13;Tecnologias</comment>
								<name>Energia</name>
								<in>48683</in>
								<out>64406</out>
							</marker>
							<marker>
								<comment>Biodiversidade&#13;Aguas rios&#13;Agro Agricultura&#13;Monocultura&#13;Povos originarios indigenas quilombolas&#13;Participaçao popular&#13;Politicas publicas&#13;Campo e Cidade</comment>
								<name>Conceito Territorio</name>
								<in>15277</in>
								<out>20534</out>
							</marker>
						<logginginfo>
							<description></description>
							<scene></scene>
							<shottake></shottake>
							<lognote></lognote>
							<good></good>
							<originalvideofilename></originalvideofilename>
							<originalaudiofilename></originalaudiofilename>
						</logginginfo>
						<colorinfo>
							<lut></lut>
							<lut1></lut1>
							<asc_sop></asc_sop>
							<asc_sat></asc_sat>
							<lut2></lut2>
						</colorinfo>
						<labels>
							<label2>Iris</label2>
						</labels>
					</clipitem>
					<clipitem id="clipitem-94">
						<masterclipid>masterclip-6</masterclipid>
						<name>A048_02020538_C030.mov</name>
						<enabled>TRUE</enabled>
						<duration>74175</duration>
						<rate>
							<timebase>30</timebase>
							<ntsc>TRUE</ntsc>
						</rate>
						<start>39206</start>
						<end>39513</end>
						<in>57464</in>
						<out>57771</out>
						<pproTicksIn>487045739980800</pproTicksIn>
						<pproTicksOut>489647769811200</pproTicksOut>
						<alphatype>none</alphatype>
						<file id="file-6"/>
						<logginginfo>
							<description></description>
							<scene></scene>
							<shottake></shottake>
							<lognote></lognote>
							<good></good>
							<originalvideofilename></originalvideofilename>
							<originalaudiofilename></originalaudiofilename>
						</logginginfo>
						<colorinfo>
							<lut></lut>
							<lut1></lut1>
							<asc_sop></asc_sop>
							<asc_sat></asc_sat>
							<lut2></lut2>
						</colorinfo>
						<labels>
							<label2>Iris</label2>
						</labels>
					</clipitem>
					<clipitem id="clipitem-95">
						<masterclipid>masterclip-6</masterclipid>
						<name>A048_02020538_C030.mov</name>
						<enabled>TRUE</enabled>
						<duration>74175</duration>
						<rate>
							<timebase>30</timebase>
							<ntsc>TRUE</ntsc>
						</rate>
						<start>39513</start>
						<end>39930</end>
						<in>57771</in>
						<out>58188</out>
						<pproTicksIn>489647769811200</pproTicksIn>
						<pproTicksOut>493182123033600</pproTicksOut>
						<alphatype>none</alphatype>
						<file id="file-6"/>
						<logginginfo>
							<description></description>
							<scene></scene>
							<shottake></shottake>
							<lognote></lognote>
							<good></good>
							<originalvideofilename></originalvideofilename>
							<originalaudiofilename></originalaudiofilename>
						</logginginfo>
						<colorinfo>
							<lut></lut>
							<lut1></lut1>
							<asc_sop></asc_sop>
							<asc_sat></asc_sat>
							<lut2></lut2>
						</colorinfo>
						<labels>
							<label2>Iris</label2>
						</labels>
					</clipitem>
					<clipitem id="clipitem-96">
						<masterclipid>masterclip-6</masterclipid>
						<name>A048_02020538_C030.mov</name>
						<enabled>TRUE</enabled>
						<duration>74175</duration>
						<rate>
							<timebase>30</timebase>
							<ntsc>TRUE</ntsc>
						</rate>
						<start>39930</start>
						<end>40247</end>
						<in>58377</in>
						<out>58694</out>
						<pproTicksIn>494784024134400</pproTicksIn>
						<pproTicksOut>497470810636800</pproTicksOut>
						<alphatype>none</alphatype>
						<file id="file-6"/>
						<logginginfo>
							<description></description>
							<scene></scene>
							<shottake></shottake>
							<lognote></lognote>
							<good></good>
							<originalvideofilename></originalvideofilename>
							<originalaudiofilename></originalaudiofilename>
						</logginginfo>
						<colorinfo>
							<lut></lut>
							<lut1></lut1>
							<asc_sop></asc_sop>
							<asc_sat></asc_sat>
							<lut2></lut2>
						</colorinfo>
						<labels>
							<label2>Iris</label2>
						</labels>
					</clipitem>
					<clipitem id="clipitem-97">
						<masterclipid>masterclip-4</masterclipid>
						<name>A076_02171014_C018.mov</name>
						<enabled>TRUE</enabled>
						<duration>84290</duration>
						<rate>
							<timebase>30</timebase>
							<ntsc>TRUE</ntsc>
						</rate>
						<start>40247</start>
						<end>40650</end>
						<in>32185</in>
						<out>32588</out>
						<pproTicksIn>272789348832000</pproTicksIn>
						<pproTicksOut>276205042713600</pproTicksOut>
						<alphatype>none</alphatype>
						<file id="file-4"/>
							<marker>
								<comment>Mudanças climaticas&#13;Fontes renovaveis&#13;Tecnologia</comment>
								<name>Transiçao energetica&#13;</name>
								<in>41104</in>
								<out>43931</out>
							</marker>
							<marker>
								<comment>COP&#13;Futuro&#13;Energia eolica&#13;Carvao&#13;Emissao de carbono&#13;Poluiçao&#13;Combustiveis fosseis vs fontes renovaveis&#13;Petroleo&#13;Mobilidade transporte</comment>
								<name>Acordos internacionais</name>
								<in>14788</in>
								<out>20458</out>
							</marker>
							<marker>
								<comment>Investimentos&#13;Combustiveis fosseis&#13;Fontes renovaveis&#13;Eolica solar hidreletrica&#13;Segurança energetica&#13;Tecnologias&#13;Hidrogenio verde&#13;Desigualdade&#13;Saude</comment>
								<name>Energia</name>
								<in>9128</in>
								<out>13946</out>
							</marker>
							<marker>
								<comment>Petroleo&#13;Combustiveis fosseis&#13;Fontes renovaveis&#13;Energia limpa&#13;Transporte mobilidade&#13;Etanol Alcool&#13;Politicas publicas&#13;Plasticos</comment>
								<name>Energia</name>
								<in>32741</in>
								<out>34426</out>
							</marker>
							<marker>
								<comment>Fontes renovaveis&#13;Energia limpa&#13;Tecnologias&#13;Politicas publicas&#13;Economia&#13;Combustiveis fosseis</comment>
								<name>Energia</name>
								<in>72795</in>
								<out>75492</out>
							</marker>
							<marker>
								<comment>Energia eolica&#13;Licenciamento ambiental</comment>
								<name>Energia</name>
								<in>54647</in>
								<out>55838</out>
							</marker>
							<marker>
								<comment>Exemplo Uruguai&#13;Energia limpa eolica</comment>
								<name>Energia</name>
								<in>53289</in>
								<out>54406</out>
							</marker>
							<marker>
								<comment>Energia eolica&#13;Energia limpa&#13;Urbanizaçao&#13;Crescimento populacional&#13;Oceanos&#13;Energia Solar&#13;Nordeste</comment>
								<name>Energia</name>
								<in>46401</in>
								<out>53161</out>
							</marker>
							<marker>
								<comment>Fontes renovaveis&#13;Alcool biomassa&#13;Arroz&#13;Economia</comment>
								<name>Energia</name>
								<in>78607</in>
								<out>82155</out>
							</marker>
							<marker>
								<comment>Impacto ser humano&#13;Aquecimento global&#13;Enchentes secas&#13;Mudanças climaticas&#13;Aumento Intensificaçao eventos climaticos&#13;Efeito estufa&#13;Combustiveis fosseis&#13;Petroleo gas natural carvao nuclear&#13;Matriz energetica Brasil&#13;Hidreletrica eolica solar biomassa&#13;Energia limpa&#13;Fontes renovaveis</comment>
								<name>Energia</name>
								<in>2189</in>
								<out>8597</out>
							</marker>
							<marker>
								<comment>Petroleo&#13;Combustiveis fosseis&#13;Fontes renovaveis&#13;Energia limpa&#13;Transporte mobilidade&#13;Etanol Alcool&#13;Politicas publicas&#13;Plasticos</comment>
								<name>Energia</name>
								<in>22169</in>
								<out>29818</out>
							</marker>
							<marker>
								<comment>Combustiveis fosseis&#13;Comparaçao alcool gasolina petroleo&#13;Economia&#13;Politicas publicas&#13;Tecnologias&#13;Acordos internacionais COP</comment>
								<name>Energia</name>
								<in>34883</in>
								<out>40571</out>
							</marker>
							<marker>
								<comment>Tucurui Itaipu&#13;Fontes renovaveis&#13;Barragens&#13;Aguas rios&#13;Mudanças climaticas&#13;Poluiçao&#13;Cita Belo Monte&#13;CGH PCH</comment>
								<name>Hidreletricas</name>
								<in>64615</in>
								<out>69866</out>
							</marker>
							<marker>
								<comment>Ciclo de Vida&#13;Energia solar&#13;Lixo residuos&#13;Politicas publicas</comment>
								<name>Reciclagem</name>
								<in>57506</in>
								<out>63652</out>
							</marker>
							<marker>
								<comment>Fontes renovaveis vs combustiveis fosseis&#13;Transiçao energetica</comment>
								<name>Energia</name>
								<in>30992</in>
								<out>32590</out>
							</marker>
							<marker>
								<comment>Transiçao energetica&#13;Combustiveis fosseis</comment>
								<name>Futuro</name>
								<in>82259</in>
								<out>-1</out>
							</marker>
						<logginginfo>
							<description></description>
							<scene></scene>
							<shottake></shottake>
							<lognote></lognote>
							<good></good>
							<originalvideofilename></originalvideofilename>
							<originalaudiofilename></originalaudiofilename>
						</logginginfo>
						<colorinfo>
							<lut></lut>
							<lut1></lut1>
							<asc_sop></asc_sop>
							<asc_sat></asc_sat>
							<lut2></lut2>
						</colorinfo>
						<labels>
							<label2>Iris</label2>
						</labels>
					</clipitem>
					<clipitem id="clipitem-98">
						<masterclipid>masterclip-9</masterclipid>
						<name>A058_02040732_C002.mov</name>
						<enabled>TRUE</enabled>
						<duration>87895</duration>
						<rate>
							<timebase>30</timebase>
							<ntsc>TRUE</ntsc>
						</rate>
						<start>40650</start>
						<end>41483</end>
						<in>64588</in>
						<out>65421</out>
						<pproTicksIn>547426393113600</pproTicksIn>
						<pproTicksOut>554486623891200</pproTicksOut>
						<alphatype>none</alphatype>
						<file id="file-9"/>
							<marker>
								<comment>Participaçao na AGAPAN&#13;Cita Lutzenberger Augusto Carneiro&#13;Parque da Guarita Torres&#13;Parque de Itapua</comment>
								<name>Luta ambientalista</name>
								<in>30916</in>
								<out>38121</out>
							</marker>
							<marker>
								<comment>Parque da Guarita Torres&#13;Mata atlantica&#13;Cita AGAPAN&#13;Itapeva&#13;Cita Caio Lustosa Lutzenberger</comment>
								<name>Luta ambientalista</name>
								<in>39952</in>
								<out>47990</out>
							</marker>
							<marker>
								<comment>Energia&#13;Aguas rios lagos&#13;Floresta&#13;Cidades urbanizaçao&#13;Consumismo&#13;Povos originarios indigenas&#13;MST</comment>
								<name>Hidreletricas</name>
								<in>58027</in>
								<out>61753</out>
							</marker>
							<marker>
								<comment>Cita Roessler&#13;Educaçao ambiental&#13;Fundaçao da AGAPAN</comment>
								<name>Imprensa Correio do Povo</name>
								<in>49386</in>
								<out>54720</out>
							</marker>
							<marker>
								<comment>Cita Roessler e Augusto Carneiro&#13;Enfrentamentos e risco&#13;Estrutura de fiscalizaçao&#13;Politicas publicas&#13;Brigada Ambiental IBAMA FEPAM</comment>
								<name>Luta ambientalista</name>
								<in>24983</in>
								<out>28278</out>
							</marker>
							<marker>
								<comment>Monoculturas&#13;Exodo rural</comment>
								<name>Agro Agricultura</name>
								<in>77338</in>
								<out>83435</out>
							</marker>
							<marker>
								<comment>Historia luta ambiental&#13;Cita Roessler UPN UPAN&#13;Aguas Rios&#13;Cita diversas associaçoes ONGs</comment>
								<name>AGAPAN</name>
								<in>69658</in>
								<out>75794</out>
							</marker>
							<marker>
								<comment>Futuro&#13;Exodo rural</comment>
								<name>Agro Agricultura</name>
								<in>80775</in>
								<out>82736</out>
							</marker>
							<marker>
								<comment>Energia&#13;Desmatamento&#13;Aguas rios&#13;Licenciamento Barra Grande Falcatrua&#13;Flexibilizaçao das Leis&#13;Consumismo</comment>
								<name>Hidreletricas</name>
								<in>62332</in>
								<out>66439</out>
							</marker>
							<marker>
								<comment>AGAPAN&#13;Pioneiros&#13;Cita Roessler&#13;Uniao Protetora da Natureza UPN&#13;Cita Lutzenberger Augusto Carneiro&#13;Finitude do Planeta&#13;Agro Agricultura&#13;Monoculturas&#13;Agrotoxicos Guerra&#13;Povos originarios&#13;Amazonia&#13;Ditadura militar&#13;ONGs&#13;ECO 72</comment>
								<name>Luta ambientalista</name>
								<in>2899</in>
								<out>22850</out>
							</marker>
						<logginginfo>
							<description></description>
							<scene></scene>
							<shottake></shottake>
							<lognote></lognote>
							<good></good>
							<originalvideofilename></originalvideofilename>
							<originalaudiofilename></originalaudiofilename>
						</logginginfo>
						<colorinfo>
							<lut></lut>
							<lut1></lut1>
							<asc_sop></asc_sop>
							<asc_sat></asc_sat>
							<lut2></lut2>
						</colorinfo>
					</clipitem>
					<clipitem id="clipitem-99">
						<masterclipid>masterclip-9</masterclipid>
						<name>A058_02040732_C002.mov</name>
						<enabled>TRUE</enabled>
						<duration>87895</duration>
						<rate>
							<timebase>30</timebase>
							<ntsc>TRUE</ntsc>
						</rate>
						<start>41483</start>
						<end>41636</end>
						<in>65421</in>
						<out>65574</out>
						<pproTicksIn>554486623891200</pproTicksIn>
						<pproTicksOut>555783400972800</pproTicksOut>
						<alphatype>none</alphatype>
						<file id="file-9"/>
							<marker>
								<comment>Participaçao na AGAPAN&#13;Cita Lutzenberger Augusto Carneiro&#13;Parque da Guarita Torres&#13;Parque de Itapua</comment>
								<name>Luta ambientalista</name>
								<in>30916</in>
								<out>38121</out>
							</marker>
							<marker>
								<comment>Parque da Guarita Torres&#13;Mata atlantica&#13;Cita AGAPAN&#13;Itapeva&#13;Cita Caio Lustosa Lutzenberger</comment>
								<name>Luta ambientalista</name>
								<in>39952</in>
								<out>47990</out>
							</marker>
							<marker>
								<comment>Energia&#13;Aguas rios lagos&#13;Floresta&#13;Cidades urbanizaçao&#13;Consumismo&#13;Povos originarios indigenas&#13;MST</comment>
								<name>Hidreletricas</name>
								<in>58027</in>
								<out>61753</out>
							</marker>
							<marker>
								<comment>Cita Roessler&#13;Educaçao ambiental&#13;Fundaçao da AGAPAN</comment>
								<name>Imprensa Correio do Povo</name>
								<in>49386</in>
								<out>54720</out>
							</marker>
							<marker>
								<comment>Cita Roessler e Augusto Carneiro&#13;Enfrentamentos e risco&#13;Estrutura de fiscalizaçao&#13;Politicas publicas&#13;Brigada Ambiental IBAMA FEPAM</comment>
								<name>Luta ambientalista</name>
								<in>24983</in>
								<out>28278</out>
							</marker>
							<marker>
								<comment>Monoculturas&#13;Exodo rural</comment>
								<name>Agro Agricultura</name>
								<in>77338</in>
								<out>83435</out>
							</marker>
							<marker>
								<comment>Historia luta ambiental&#13;Cita Roessler UPN UPAN&#13;Aguas Rios&#13;Cita diversas associaçoes ONGs</comment>
								<name>AGAPAN</name>
								<in>69658</in>
								<out>75794</out>
							</marker>
							<marker>
								<comment>Futuro&#13;Exodo rural</comment>
								<name>Agro Agricultura</name>
								<in>80775</in>
								<out>82736</out>
							</marker>
							<marker>
								<comment>Energia&#13;Desmatamento&#13;Aguas rios&#13;Licenciamento Barra Grande Falcatrua&#13;Flexibilizaçao das Leis&#13;Consumismo</comment>
								<name>Hidreletricas</name>
								<in>62332</in>
								<out>66439</out>
							</marker>
							<marker>
								<comment>AGAPAN&#13;Pioneiros&#13;Cita Roessler&#13;Uniao Protetora da Natureza UPN&#13;Cita Lutzenberger Augusto Carneiro&#13;Finitude do Planeta&#13;Agro Agricultura&#13;Monoculturas&#13;Agrotoxicos Guerra&#13;Povos originarios&#13;Amazonia&#13;Ditadura militar&#13;ONGs&#13;ECO 72</comment>
								<name>Luta ambientalista</name>
								<in>2899</in>
								<out>22850</out>
							</marker>
						<logginginfo>
							<description></description>
							<scene></scene>
							<shottake></shottake>
							<lognote></lognote>
							<good></good>
							<originalvideofilename></originalvideofilename>
							<originalaudiofilename></originalaudiofilename>
						</logginginfo>
						<colorinfo>
							<lut></lut>
							<lut1></lut1>
							<asc_sop></asc_sop>
							<asc_sat></asc_sat>
							<lut2></lut2>
						</colorinfo>
					</clipitem>
					<clipitem id="clipitem-100">
						<masterclipid>masterclip-17</masterclipid>
						<name>A071_02150449_C002.mov</name>
						<enabled>TRUE</enabled>
						<duration>6175</duration>
						<rate>
							<timebase>30</timebase>
							<ntsc>TRUE</ntsc>
						</rate>
						<start>41636</start>
						<end>43266</end>
						<in>4439</in>
						<out>6069</out>
						<pproTicksIn>37623486700800</pproTicksIn>
						<pproTicksOut>51438824236800</pproTicksOut>
						<alphatype>none</alphatype>
						<pixelaspectratio>square</pixelaspectratio>
						<anamorphic>FALSE</anamorphic>
						<file id="file-17">
							<name>A071_02150449_C002.mov</name>
							<pathurl>file://localhost/Volumes/EDDMA_Pos02/EDDMA_02/BRUTAS/CENAS%20CAPTADAS/20250513/TRANSCODED/CAM_A/A071/A071_02150449_C002.mov</pathurl>
							<rate>
								<timebase>30</timebase>
								<ntsc>TRUE</ntsc>
							</rate>
							<duration>6175</duration>
							<timecode>
								<rate>
									<timebase>30</timebase>
									<ntsc>TRUE</ntsc>
								</rate>
								<string>10:41:46:11</string>
								<frame>1155191</frame>
								<displayformat>NDF</displayformat>
							</timecode>
							<media>
								<video>
									<samplecharacteristics>
										<rate>
											<timebase>30</timebase>
											<ntsc>TRUE</ntsc>
										</rate>
										<width>1920</width>
										<height>1080</height>
										<anamorphic>FALSE</anamorphic>
										<pixelaspectratio>square</pixelaspectratio>
										<fielddominance>none</fielddominance>
									</samplecharacteristics>
								</video>
								<audio>
									<samplecharacteristics>
										<depth>16</depth>
										<samplerate>48000</samplerate>
									</samplecharacteristics>
									<channelcount>2</channelcount>
								</audio>
							</media>
						</file>
							<marker>
								<comment>Minas carvao&#13;Explicaçao museu&#13;Historia</comment>
								<name>Mineraçao</name>
								<in>2462</in>
								<out>-1</out>
							</marker>
						<logginginfo>
							<description></description>
							<scene></scene>
							<shottake></shottake>
							<lognote></lognote>
							<good></good>
							<originalvideofilename></originalvideofilename>
							<originalaudiofilename></originalaudiofilename>
						</logginginfo>
						<colorinfo>
							<lut></lut>
							<lut1></lut1>
							<asc_sop></asc_sop>
							<asc_sat></asc_sat>
							<lut2></lut2>
						</colorinfo>
						<labels>
							<label2>Iris</label2>
						</labels>
					</clipitem>
					<clipitem id="clipitem-101">
						<masterclipid>masterclip-18</masterclipid>
						<name>A034_11142043_C002.mov</name>
						<enabled>TRUE</enabled>
						<duration>101135</duration>
						<rate>
							<timebase>30</timebase>
							<ntsc>TRUE</ntsc>
						</rate>
						<start>43266</start>
						<end>44009</end>
						<in>93361</in>
						<out>94104</out>
						<pproTicksIn>791296765459200</pproTicksIn>
						<pproTicksOut>797594186188800</pproTicksOut>
						<alphatype>none</alphatype>
						<pixelaspectratio>square</pixelaspectratio>
						<anamorphic>FALSE</anamorphic>
						<file id="file-18">
							<name>A034_11142043_C002.mov</name>
							<pathurl>file://localhost/Volumes/EDDMA_Pos01/EDDMA_01/BRUTAS/CENAS%20CAPTADAS/20250411/TRANSCODED/CAM_A/A034/A034_11142043_C002.mov</pathurl>
							<rate>
								<timebase>30</timebase>
								<ntsc>TRUE</ntsc>
							</rate>
							<duration>101135</duration>
							<timecode>
								<rate>
									<timebase>30</timebase>
									<ntsc>TRUE</ntsc>
								</rate>
								<string>15:31:28:10</string>
								<frame>1676650</frame>
								<displayformat>NDF</displayformat>
							</timecode>
							<media>
								<video>
									<samplecharacteristics>
										<rate>
											<timebase>30</timebase>
											<ntsc>TRUE</ntsc>
										</rate>
										<width>1920</width>
										<height>1080</height>
										<anamorphic>FALSE</anamorphic>
										<pixelaspectratio>square</pixelaspectratio>
										<fielddominance>none</fielddominance>
									</samplecharacteristics>
								</video>
								<audio>
									<samplecharacteristics>
										<depth>16</depth>
										<samplerate>48000</samplerate>
									</samplecharacteristics>
									<channelcount>2</channelcount>
								</audio>
							</media>
						</file>
						<logginginfo>
							<description></description>
							<scene></scene>
							<shottake></shottake>
							<lognote></lognote>
							<good></good>
							<originalvideofilename></originalvideofilename>
							<originalaudiofilename></originalaudiofilename>
						</logginginfo>
						<colorinfo>
							<lut></lut>
							<lut1></lut1>
							<asc_sop></asc_sop>
							<asc_sat></asc_sat>
							<lut2></lut2>
						</colorinfo>
						<labels>
							<label2>Iris</label2>
						</labels>
					</clipitem>
					<clipitem id="clipitem-102">
						<masterclipid>masterclip-19</masterclipid>
						<name>A017_11072030_C006.mov</name>
						<enabled>TRUE</enabled>
						<duration>6930</duration>
						<rate>
							<timebase>30</timebase>
							<ntsc>TRUE</ntsc>
						</rate>
						<start>44009</start>
						<end>45307</end>
						<in>3984</in>
						<out>5282</out>
						<pproTicksIn>33767058124800</pproTicksIn>
						<pproTicksOut>44768474150400</pproTicksOut>
						<alphatype>none</alphatype>
						<pixelaspectratio>square</pixelaspectratio>
						<anamorphic>FALSE</anamorphic>
						<file id="file-19">
							<name>A017_11072030_C006.mov</name>
							<pathurl>file://localhost/Volumes/EDDMA_Pos01/EDDMA_01/BRUTAS/CENAS%20CAPTADAS/20250404/TRANSCODED/CAM_A/A017/A017_11072030_C006.mov</pathurl>
							<rate>
								<timebase>30</timebase>
								<ntsc>TRUE</ntsc>
							</rate>
							<duration>6930</duration>
							<timecode>
								<rate>
									<timebase>30</timebase>
									<ntsc>TRUE</ntsc>
								</rate>
								<string>15:17:26:28</string>
								<frame>1651408</frame>
								<displayformat>NDF</displayformat>
							</timecode>
							<media>
								<video>
									<samplecharacteristics>
										<rate>
											<timebase>30</timebase>
											<ntsc>TRUE</ntsc>
										</rate>
										<width>1920</width>
										<height>1080</height>
										<anamorphic>FALSE</anamorphic>
										<pixelaspectratio>square</pixelaspectratio>
										<fielddominance>none</fielddominance>
									</samplecharacteristics>
								</video>
								<audio>
									<samplecharacteristics>
										<depth>16</depth>
										<samplerate>48000</samplerate>
									</samplecharacteristics>
									<channelcount>2</channelcount>
								</audio>
							</media>
						</file>
						<logginginfo>
							<description></description>
							<scene></scene>
							<shottake></shottake>
							<lognote></lognote>
							<good></good>
							<originalvideofilename></originalvideofilename>
							<originalaudiofilename></originalaudiofilename>
						</logginginfo>
						<colorinfo>
							<lut></lut>
							<lut1></lut1>
							<asc_sop></asc_sop>
							<asc_sat></asc_sat>
							<lut2></lut2>
						</colorinfo>
						<labels>
							<label2>Iris</label2>
						</labels>
					</clipitem>
					<clipitem id="clipitem-103">
						<masterclipid>masterclip-9</masterclipid>
						<name>A058_02040732_C002.mov</name>
						<enabled>TRUE</enabled>
						<duration>87895</duration>
						<rate>
							<timebase>30</timebase>
							<ntsc>TRUE</ntsc>
						</rate>
						<start>45307</start>
						<end>45501</end>
						<in>58027</in>
						<out>58221</out>
						<pproTicksIn>491817540614400</pproTicksIn>
						<pproTicksOut>493461820051200</pproTicksOut>
						<alphatype>none</alphatype>
						<file id="file-9"/>
							<marker>
								<comment>Participaçao na AGAPAN&#13;Cita Lutzenberger Augusto Carneiro&#13;Parque da Guarita Torres&#13;Parque de Itapua</comment>
								<name>Luta ambientalista</name>
								<in>30916</in>
								<out>38121</out>
							</marker>
							<marker>
								<comment>Parque da Guarita Torres&#13;Mata atlantica&#13;Cita AGAPAN&#13;Itapeva&#13;Cita Caio Lustosa Lutzenberger</comment>
								<name>Luta ambientalista</name>
								<in>39952</in>
								<out>47990</out>
							</marker>
							<marker>
								<comment>Energia&#13;Aguas rios lagos&#13;Floresta&#13;Cidades urbanizaçao&#13;Consumismo&#13;Povos originarios indigenas&#13;MST</comment>
								<name>Hidreletricas</name>
								<in>58027</in>
								<out>61753</out>
							</marker>
							<marker>
								<comment>Cita Roessler&#13;Educaçao ambiental&#13;Fundaçao da AGAPAN</comment>
								<name>Imprensa Correio do Povo</name>
								<in>49386</in>
								<out>54720</out>
							</marker>
							<marker>
								<comment>Cita Roessler e Augusto Carneiro&#13;Enfrentamentos e risco&#13;Estrutura de fiscalizaçao&#13;Politicas publicas&#13;Brigada Ambiental IBAMA FEPAM</comment>
								<name>Luta ambientalista</name>
								<in>24983</in>
								<out>28278</out>
							</marker>
							<marker>
								<comment>Monoculturas&#13;Exodo rural</comment>
								<name>Agro Agricultura</name>
								<in>77338</in>
								<out>83435</out>
							</marker>
							<marker>
								<comment>Historia luta ambiental&#13;Cita Roessler UPN UPAN&#13;Aguas Rios&#13;Cita diversas associaçoes ONGs</comment>
								<name>AGAPAN</name>
								<in>69658</in>
								<out>75794</out>
							</marker>
							<marker>
								<comment>Futuro&#13;Exodo rural</comment>
								<name>Agro Agricultura</name>
								<in>80775</in>
								<out>82736</out>
							</marker>
							<marker>
								<comment>Energia&#13;Desmatamento&#13;Aguas rios&#13;Licenciamento Barra Grande Falcatrua&#13;Flexibilizaçao das Leis&#13;Consumismo</comment>
								<name>Hidreletricas</name>
								<in>62332</in>
								<out>66439</out>
							</marker>
							<marker>
								<comment>AGAPAN&#13;Pioneiros&#13;Cita Roessler&#13;Uniao Protetora da Natureza UPN&#13;Cita Lutzenberger Augusto Carneiro&#13;Finitude do Planeta&#13;Agro Agricultura&#13;Monoculturas&#13;Agrotoxicos Guerra&#13;Povos originarios&#13;Amazonia&#13;Ditadura militar&#13;ONGs&#13;ECO 72</comment>
								<name>Luta ambientalista</name>
								<in>2899</in>
								<out>22850</out>
							</marker>
						<logginginfo>
							<description></description>
							<scene></scene>
							<shottake></shottake>
							<lognote></lognote>
							<good></good>
							<originalvideofilename></originalvideofilename>
							<originalaudiofilename></originalaudiofilename>
						</logginginfo>
						<colorinfo>
							<lut></lut>
							<lut1></lut1>
							<asc_sop></asc_sop>
							<asc_sat></asc_sat>
							<lut2></lut2>
						</colorinfo>
					</clipitem>
					<clipitem id="clipitem-104">
						<masterclipid>masterclip-9</masterclipid>
						<name>A058_02040732_C002.mov</name>
						<enabled>TRUE</enabled>
						<duration>87895</duration>
						<rate>
							<timebase>30</timebase>
							<ntsc>TRUE</ntsc>
						</rate>
						<start>45501</start>
						<end>46760</end>
						<in>59353</in>
						<out>60612</out>
						<pproTicksIn>503056275321600</pproTicksIn>
						<pproTicksOut>513727140326400</pproTicksOut>
						<alphatype>none</alphatype>
						<file id="file-9"/>
							<marker>
								<comment>Participaçao na AGAPAN&#13;Cita Lutzenberger Augusto Carneiro&#13;Parque da Guarita Torres&#13;Parque de Itapua</comment>
								<name>Luta ambientalista</name>
								<in>30916</in>
								<out>38121</out>
							</marker>
							<marker>
								<comment>Parque da Guarita Torres&#13;Mata atlantica&#13;Cita AGAPAN&#13;Itapeva&#13;Cita Caio Lustosa Lutzenberger</comment>
								<name>Luta ambientalista</name>
								<in>39952</in>
								<out>47990</out>
							</marker>
							<marker>
								<comment>Energia&#13;Aguas rios lagos&#13;Floresta&#13;Cidades urbanizaçao&#13;Consumismo&#13;Povos originarios indigenas&#13;MST</comment>
								<name>Hidreletricas</name>
								<in>58027</in>
								<out>61753</out>
							</marker>
							<marker>
								<comment>Cita Roessler&#13;Educaçao ambiental&#13;Fundaçao da AGAPAN</comment>
								<name>Imprensa Correio do Povo</name>
								<in>49386</in>
								<out>54720</out>
							</marker>
							<marker>
								<comment>Cita Roessler e Augusto Carneiro&#13;Enfrentamentos e risco&#13;Estrutura de fiscalizaçao&#13;Politicas publicas&#13;Brigada Ambiental IBAMA FEPAM</comment>
								<name>Luta ambientalista</name>
								<in>24983</in>
								<out>28278</out>
							</marker>
							<marker>
								<comment>Monoculturas&#13;Exodo rural</comment>
								<name>Agro Agricultura</name>
								<in>77338</in>
								<out>83435</out>
							</marker>
							<marker>
								<comment>Historia luta ambiental&#13;Cita Roessler UPN UPAN&#13;Aguas Rios&#13;Cita diversas associaçoes ONGs</comment>
								<name>AGAPAN</name>
								<in>69658</in>
								<out>75794</out>
							</marker>
							<marker>
								<comment>Futuro&#13;Exodo rural</comment>
								<name>Agro Agricultura</name>
								<in>80775</in>
								<out>82736</out>
							</marker>
							<marker>
								<comment>Energia&#13;Desmatamento&#13;Aguas rios&#13;Licenciamento Barra Grande Falcatrua&#13;Flexibilizaçao das Leis&#13;Consumismo</comment>
								<name>Hidreletricas</name>
								<in>62332</in>
								<out>66439</out>
							</marker>
							<marker>
								<comment>AGAPAN&#13;Pioneiros&#13;Cita Roessler&#13;Uniao Protetora da Natureza UPN&#13;Cita Lutzenberger Augusto Carneiro&#13;Finitude do Planeta&#13;Agro Agricultura&#13;Monoculturas&#13;Agrotoxicos Guerra&#13;Povos originarios&#13;Amazonia&#13;Ditadura militar&#13;ONGs&#13;ECO 72</comment>
								<name>Luta ambientalista</name>
								<in>2899</in>
								<out>22850</out>
							</marker>
						<logginginfo>
							<description></description>
							<scene></scene>
							<shottake></shottake>
							<lognote></lognote>
							<good></good>
							<originalvideofilename></originalvideofilename>
							<originalaudiofilename></originalaudiofilename>
						</logginginfo>
						<colorinfo>
							<lut></lut>
							<lut1></lut1>
							<asc_sop></asc_sop>
							<asc_sat></asc_sat>
							<lut2></lut2>
						</colorinfo>
					</clipitem>
					<clipitem id="clipitem-105">
						<masterclipid>masterclip-9</masterclipid>
						<name>A058_02040732_C002.mov</name>
						<enabled>TRUE</enabled>
						<duration>87895</duration>
						<rate>
							<timebase>30</timebase>
							<ntsc>TRUE</ntsc>
						</rate>
						<start>46760</start>
						<end>46984</end>
						<in>61527</in>
						<out>61751</out>
						<pproTicksIn>521482375814400</pproTicksIn>
						<pproTicksOut>523380925267200</pproTicksOut>
						<alphatype>none</alphatype>
						<file id="file-9"/>
							<marker>
								<comment>Participaçao na AGAPAN&#13;Cita Lutzenberger Augusto Carneiro&#13;Parque da Guarita Torres&#13;Parque de Itapua</comment>
								<name>Luta ambientalista</name>
								<in>30916</in>
								<out>38121</out>
							</marker>
							<marker>
								<comment>Parque da Guarita Torres&#13;Mata atlantica&#13;Cita AGAPAN&#13;Itapeva&#13;Cita Caio Lustosa Lutzenberger</comment>
								<name>Luta ambientalista</name>
								<in>39952</in>
								<out>47990</out>
							</marker>
							<marker>
								<comment>Energia&#13;Aguas rios lagos&#13;Floresta&#13;Cidades urbanizaçao&#13;Consumismo&#13;Povos originarios indigenas&#13;MST</comment>
								<name>Hidreletricas</name>
								<in>58027</in>
								<out>61753</out>
							</marker>
							<marker>
								<comment>Cita Roessler&#13;Educaçao ambiental&#13;Fundaçao da AGAPAN</comment>
								<name>Imprensa Correio do Povo</name>
								<in>49386</in>
								<out>54720</out>
							</marker>
							<marker>
								<comment>Cita Roessler e Augusto Carneiro&#13;Enfrentamentos e risco&#13;Estrutura de fiscalizaçao&#13;Politicas publicas&#13;Brigada Ambiental IBAMA FEPAM</comment>
								<name>Luta ambientalista</name>
								<in>24983</in>
								<out>28278</out>
							</marker>
							<marker>
								<comment>Monoculturas&#13;Exodo rural</comment>
								<name>Agro Agricultura</name>
								<in>77338</in>
								<out>83435</out>
							</marker>
							<marker>
								<comment>Historia luta ambiental&#13;Cita Roessler UPN UPAN&#13;Aguas Rios&#13;Cita diversas associaçoes ONGs</comment>
								<name>AGAPAN</name>
								<in>69658</in>
								<out>75794</out>
							</marker>
							<marker>
								<comment>Futuro&#13;Exodo rural</comment>
								<name>Agro Agricultura</name>
								<in>80775</in>
								<out>82736</out>
							</marker>
							<marker>
								<comment>Energia&#13;Desmatamento&#13;Aguas rios&#13;Licenciamento Barra Grande Falcatrua&#13;Flexibilizaçao das Leis&#13;Consumismo</comment>
								<name>Hidreletricas</name>
								<in>62332</in>
								<out>66439</out>
							</marker>
							<marker>
								<comment>AGAPAN&#13;Pioneiros&#13;Cita Roessler&#13;Uniao Protetora da Natureza UPN&#13;Cita Lutzenberger Augusto Carneiro&#13;Finitude do Planeta&#13;Agro Agricultura&#13;Monoculturas&#13;Agrotoxicos Guerra&#13;Povos originarios&#13;Amazonia&#13;Ditadura militar&#13;ONGs&#13;ECO 72</comment>
								<name>Luta ambientalista</name>
								<in>2899</in>
								<out>22850</out>
							</marker>
						<logginginfo>
							<description></description>
							<scene></scene>
							<shottake></shottake>
							<lognote></lognote>
							<good></good>
							<originalvideofilename></originalvideofilename>
							<originalaudiofilename></originalaudiofilename>
						</logginginfo>
						<colorinfo>
							<lut></lut>
							<lut1></lut1>
							<asc_sop></asc_sop>
							<asc_sat></asc_sat>
							<lut2></lut2>
						</colorinfo>
					</clipitem>
					<clipitem id="clipitem-106">
						<masterclipid>masterclip-9</masterclipid>
						<name>A058_02040732_C002.mov</name>
						<enabled>TRUE</enabled>
						<duration>87895</duration>
						<rate>
							<timebase>30</timebase>
							<ntsc>TRUE</ntsc>
						</rate>
						<start>46984</start>
						<end>47471</end>
						<in>60646</in>
						<out>61133</out>
						<pproTicksIn>514015313011200</pproTicksIn>
						<pproTicksOut>518142962937600</pproTicksOut>
						<alphatype>none</alphatype>
						<file id="file-9"/>
							<marker>
								<comment>Participaçao na AGAPAN&#13;Cita Lutzenberger Augusto Carneiro&#13;Parque da Guarita Torres&#13;Parque de Itapua</comment>
								<name>Luta ambientalista</name>
								<in>30916</in>
								<out>38121</out>
							</marker>
							<marker>
								<comment>Parque da Guarita Torres&#13;Mata atlantica&#13;Cita AGAPAN&#13;Itapeva&#13;Cita Caio Lustosa Lutzenberger</comment>
								<name>Luta ambientalista</name>
								<in>39952</in>
								<out>47990</out>
							</marker>
							<marker>
								<comment>Energia&#13;Aguas rios lagos&#13;Floresta&#13;Cidades urbanizaçao&#13;Consumismo&#13;Povos originarios indigenas&#13;MST</comment>
								<name>Hidreletricas</name>
								<in>58027</in>
								<out>61753</out>
							</marker>
							<marker>
								<comment>Cita Roessler&#13;Educaçao ambiental&#13;Fundaçao da AGAPAN</comment>
								<name>Imprensa Correio do Povo</name>
								<in>49386</in>
								<out>54720</out>
							</marker>
							<marker>
								<comment>Cita Roessler e Augusto Carneiro&#13;Enfrentamentos e risco&#13;Estrutura de fiscalizaçao&#13;Politicas publicas&#13;Brigada Ambiental IBAMA FEPAM</comment>
								<name>Luta ambientalista</name>
								<in>24983</in>
								<out>28278</out>
							</marker>
							<marker>
								<comment>Monoculturas&#13;Exodo rural</comment>
								<name>Agro Agricultura</name>
								<in>77338</in>
								<out>83435</out>
							</marker>
							<marker>
								<comment>Historia luta ambiental&#13;Cita Roessler UPN UPAN&#13;Aguas Rios&#13;Cita diversas associaçoes ONGs</comment>
								<name>AGAPAN</name>
								<in>69658</in>
								<out>75794</out>
							</marker>
							<marker>
								<comment>Futuro&#13;Exodo rural</comment>
								<name>Agro Agricultura</name>
								<in>80775</in>
								<out>82736</out>
							</marker>
							<marker>
								<comment>Energia&#13;Desmatamento&#13;Aguas rios&#13;Licenciamento Barra Grande Falcatrua&#13;Flexibilizaçao das Leis&#13;Consumismo</comment>
								<name>Hidreletricas</name>
								<in>62332</in>
								<out>66439</out>
							</marker>
							<marker>
								<comment>AGAPAN&#13;Pioneiros&#13;Cita Roessler&#13;Uniao Protetora da Natureza UPN&#13;Cita Lutzenberger Augusto Carneiro&#13;Finitude do Planeta&#13;Agro Agricultura&#13;Monoculturas&#13;Agrotoxicos Guerra&#13;Povos originarios&#13;Amazonia&#13;Ditadura militar&#13;ONGs&#13;ECO 72</comment>
								<name>Luta ambientalista</name>
								<in>2899</in>
								<out>22850</out>
							</marker>
						<logginginfo>
							<description></description>
							<scene></scene>
							<shottake></shottake>
							<lognote></lognote>
							<good></good>
							<originalvideofilename></originalvideofilename>
							<originalaudiofilename></originalaudiofilename>
						</logginginfo>
						<colorinfo>
							<lut></lut>
							<lut1></lut1>
							<asc_sop></asc_sop>
							<asc_sat></asc_sat>
							<lut2></lut2>
						</colorinfo>
					</clipitem>
					<clipitem id="clipitem-107">
						<masterclipid>masterclip-9</masterclipid>
						<name>A058_02040732_C002.mov</name>
						<enabled>TRUE</enabled>
						<duration>87895</duration>
						<rate>
							<timebase>30</timebase>
							<ntsc>TRUE</ntsc>
						</rate>
						<start>47471</start>
						<end>47606</end>
						<in>58848</in>
						<out>58983</out>
						<pproTicksIn>498776063385600</pproTicksIn>
						<pproTicksOut>499920278457600</pproTicksOut>
						<alphatype>none</alphatype>
						<file id="file-9"/>
							<marker>
								<comment>Participaçao na AGAPAN&#13;Cita Lutzenberger Augusto Carneiro&#13;Parque da Guarita Torres&#13;Parque de Itapua</comment>
								<name>Luta ambientalista</name>
								<in>30916</in>
								<out>38121</out>
							</marker>
							<marker>
								<comment>Parque da Guarita Torres&#13;Mata atlantica&#13;Cita AGAPAN&#13;Itapeva&#13;Cita Caio Lustosa Lutzenberger</comment>
								<name>Luta ambientalista</name>
								<in>39952</in>
								<out>47990</out>
							</marker>
							<marker>
								<comment>Energia&#13;Aguas rios lagos&#13;Floresta&#13;Cidades urbanizaçao&#13;Consumismo&#13;Povos originarios indigenas&#13;MST</comment>
								<name>Hidreletricas</name>
								<in>58027</in>
								<out>61753</out>
							</marker>
							<marker>
								<comment>Cita Roessler&#13;Educaçao ambiental&#13;Fundaçao da AGAPAN</comment>
								<name>Imprensa Correio do Povo</name>
								<in>49386</in>
								<out>54720</out>
							</marker>
							<marker>
								<comment>Cita Roessler e Augusto Carneiro&#13;Enfrentamentos e risco&#13;Estrutura de fiscalizaçao&#13;Politicas publicas&#13;Brigada Ambiental IBAMA FEPAM</comment>
								<name>Luta ambientalista</name>
								<in>24983</in>
								<out>28278</out>
							</marker>
							<marker>
								<comment>Monoculturas&#13;Exodo rural</comment>
								<name>Agro Agricultura</name>
								<in>77338</in>
								<out>83435</out>
							</marker>
							<marker>
								<comment>Historia luta ambiental&#13;Cita Roessler UPN UPAN&#13;Aguas Rios&#13;Cita diversas associaçoes ONGs</comment>
								<name>AGAPAN</name>
								<in>69658</in>
								<out>75794</out>
							</marker>
							<marker>
								<comment>Futuro&#13;Exodo rural</comment>
								<name>Agro Agricultura</name>
								<in>80775</in>
								<out>82736</out>
							</marker>
							<marker>
								<comment>Energia&#13;Desmatamento&#13;Aguas rios&#13;Licenciamento Barra Grande Falcatrua&#13;Flexibilizaçao das Leis&#13;Consumismo</comment>
								<name>Hidreletricas</name>
								<in>62332</in>
								<out>66439</out>
							</marker>
							<marker>
								<comment>AGAPAN&#13;Pioneiros&#13;Cita Roessler&#13;Uniao Protetora da Natureza UPN&#13;Cita Lutzenberger Augusto Carneiro&#13;Finitude do Planeta&#13;Agro Agricultura&#13;Monoculturas&#13;Agrotoxicos Guerra&#13;Povos originarios&#13;Amazonia&#13;Ditadura militar&#13;ONGs&#13;ECO 72</comment>
								<name>Luta ambientalista</name>
								<in>2899</in>
								<out>22850</out>
							</marker>
						<logginginfo>
							<description></description>
							<scene></scene>
							<shottake></shottake>
							<lognote></lognote>
							<good></good>
							<originalvideofilename></originalvideofilename>
							<originalaudiofilename></originalaudiofilename>
						</logginginfo>
						<colorinfo>
							<lut></lut>
							<lut1></lut1>
							<asc_sop></asc_sop>
							<asc_sat></asc_sat>
							<lut2></lut2>
						</colorinfo>
					</clipitem>
					<clipitem id="clipitem-108">
						<masterclipid>masterclip-7</masterclipid>
						<name>2025-03-20 08-52-56 .mov</name>
						<enabled>TRUE</enabled>
						<duration>31991</duration>
						<rate>
							<timebase>30</timebase>
							<ntsc>TRUE</ntsc>
						</rate>
						<start>47606</start>
						<end>52701</end>
						<in>9988</in>
						<out>15083</out>
						<pproTicksIn>84654963993600</pproTicksIn>
						<pproTicksOut>127838488377600</pproTicksOut>
						<alphatype>none</alphatype>
						<file id="file-7"/>
							<marker>
								<comment>Historico Hidreletricas&#13;Florestas&#13;Povos originarios indigenas&#13;Vazao dos rios</comment>
								<name>Aguas</name>
								<in>22190</in>
								<out>-1</out>
							</marker>
							<marker>
								<comment>Aquecimento global&#13;Emissao de gases&#13;Desmatamento&#13;Energia&#13;Acordos internacionais</comment>
								<name>Futuro</name>
								<in>9988</in>
								<out>-1</out>
							</marker>
							<marker>
								<comment>Custo e subsidio&#13;Politicas publicas&#13;Desmatamento florestas&#13;Agro Agricultura&#13;Transiçao energetica</comment>
								<name>Mineraçao de carvao</name>
								<in>16086</in>
								<out>-1</out>
							</marker>
							<marker>
								<comment>Hidreletricas energia&#13;Rio Tapajos&#13;Barragens</comment>
								<name>Aguas</name>
								<in>29660</in>
								<out>-1</out>
							</marker>
							<marker>
								<comment>Transiçao energetica&#13;Exemplo EUA e China&#13;Explica produçao de gas natural&#13;Aumento do consumo de energia&#13;EUA indo no sentido contrario</comment>
								<name>Energia</name>
								<in>815</in>
								<out>-1</out>
							</marker>
						<link>
							<linkclipref>clipitem-108</linkclipref>
							<mediatype>video</mediatype>
							<trackindex>1</trackindex>
							<clipindex>108</clipindex>
						</link>
						<link>
							<linkclipref>clipitem-239</linkclipref>
							<mediatype>audio</mediatype>
							<trackindex>1</trackindex>
							<clipindex>108</clipindex>
							<groupindex>1</groupindex>
						</link>
						<link>
							<linkclipref>clipitem-336</linkclipref>
							<mediatype>audio</mediatype>
							<trackindex>2</trackindex>
							<clipindex>97</clipindex>
							<groupindex>1</groupindex>
						</link>
						<logginginfo>
							<description></description>
							<scene></scene>
							<shottake></shottake>
							<lognote></lognote>
							<good></good>
							<originalvideofilename></originalvideofilename>
							<originalaudiofilename></originalaudiofilename>
						</logginginfo>
						<colorinfo>
							<lut></lut>
							<lut1></lut1>
							<asc_sop></asc_sop>
							<asc_sat></asc_sat>
							<lut2></lut2>
						</colorinfo>
					</clipitem>
					<enabled>TRUE</enabled>
					<locked>FALSE</locked>
				</track>
				<track TL.SQTrackShy="0" TL.SQTrackExpandedHeight="65" TL.SQTrackExpanded="0" MZ.TrackTargeted="1">
					<clipitem id="clipitem-109">
						<masterclipid>masterclip-20</masterclipid>
						<name>B023_01090152_C002.mov</name>
						<enabled>TRUE</enabled>
						<duration>27545</duration>
						<rate>
							<timebase>30</timebase>
							<ntsc>TRUE</ntsc>
						</rate>
						<start>0</start>
						<end>215</end>
						<in>2293</in>
						<out>2508</out>
						<pproTicksIn>19434704889600</pproTicksIn>
						<pproTicksOut>21256973337600</pproTicksOut>
						<alphatype>none</alphatype>
						<pixelaspectratio>square</pixelaspectratio>
						<anamorphic>FALSE</anamorphic>
						<file id="file-20">
							<name>B023_01090152_C002.mov</name>
							<pathurl>file://localhost/Volumes/EDDMA_Pos01/EDDMA_01/BRUTAS/CENAS%20CAPTADAS/20250506/TRANSCODED/CAM_B/B023/B023_01090152_C002.mov</pathurl>
							<rate>
								<timebase>30</timebase>
								<ntsc>TRUE</ntsc>
							</rate>
							<duration>27545</duration>
							<timecode>
								<rate>
									<timebase>30</timebase>
									<ntsc>TRUE</ntsc>
								</rate>
								<string>08:31:46:11</string>
								<frame>921191</frame>
								<displayformat>NDF</displayformat>
							</timecode>
							<media>
								<video>
									<samplecharacteristics>
										<rate>
											<timebase>30</timebase>
											<ntsc>TRUE</ntsc>
										</rate>
										<width>1920</width>
										<height>1080</height>
										<anamorphic>FALSE</anamorphic>
										<pixelaspectratio>square</pixelaspectratio>
										<fielddominance>none</fielddominance>
									</samplecharacteristics>
								</video>
								<audio>
									<samplecharacteristics>
										<depth>16</depth>
										<samplerate>48000</samplerate>
									</samplecharacteristics>
									<channelcount>2</channelcount>
								</audio>
							</media>
						</file>
							<marker>
								<comment>Intensificaçao eventos climaticos&#13;Aquecimento global&#13;Futuro&#13;Enchente RS&#13;Seca Amazonia&#13;Impacto ser humano&#13;Painel IPCC</comment>
								<name>Crise climatica</name>
								<in>1826</in>
								<out>7712</out>
							</marker>
							<marker>
								<comment>Flexibilizaçao das Leis&#13;Negacionismo&#13;Impacto ser humano&#13;Efeito Estufa&#13;Aquecimento global&#13;Participaçao popular</comment>
								<name>Politicas publicas</name>
								<in>25051</in>
								<out>26976</out>
							</marker>
							<marker>
								<comment>Leis legislaçao constituiçao&#13;Direito Difuso&#13;Coletividade&#13;Futuro&#13;Flexibilizaçao das Leis&#13;Agrotoxicos&#13;Codigo florestal&#13;Licenciamento Ambiental&#13;Autolicenciamento&#13;CONAMA&#13;Participaçao popular&#13;STF Fiscalizaçao&#13;Acordos internacionais</comment>
								<name>Sistema Juridico</name>
								<in>9047</in>
								<out>24603</out>
							</marker>
						<logginginfo>
							<description></description>
							<scene></scene>
							<shottake></shottake>
							<lognote></lognote>
							<good></good>
							<originalvideofilename></originalvideofilename>
							<originalaudiofilename></originalaudiofilename>
						</logginginfo>
						<colorinfo>
							<lut></lut>
							<lut1></lut1>
							<asc_sop></asc_sop>
							<asc_sat></asc_sat>
							<lut2></lut2>
						</colorinfo>
						<labels>
							<label2>Iris</label2>
						</labels>
					</clipitem>
					<clipitem id="clipitem-110">
						<masterclipid>masterclip-20</masterclipid>
						<name>B023_01090152_C002.mov</name>
						<enabled>TRUE</enabled>
						<duration>27545</duration>
						<rate>
							<timebase>30</timebase>
							<ntsc>TRUE</ntsc>
						</rate>
						<start>215</start>
						<end>1063</end>
						<in>2779</in>
						<out>3627</out>
						<pproTicksIn>23553879148800</pproTicksIn>
						<pproTicksOut>30741244934400</pproTicksOut>
						<alphatype>none</alphatype>
						<file id="file-20"/>
							<marker>
								<comment>Intensificaçao eventos climaticos&#13;Aquecimento global&#13;Futuro&#13;Enchente RS&#13;Seca Amazonia&#13;Impacto ser humano&#13;Painel IPCC</comment>
								<name>Crise climatica</name>
								<in>1826</in>
								<out>7712</out>
							</marker>
							<marker>
								<comment>Flexibilizaçao das Leis&#13;Negacionismo&#13;Impacto ser humano&#13;Efeito Estufa&#13;Aquecimento global&#13;Participaçao popular</comment>
								<name>Politicas publicas</name>
								<in>25051</in>
								<out>26976</out>
							</marker>
							<marker>
								<comment>Leis legislaçao constituiçao&#13;Direito Difuso&#13;Coletividade&#13;Futuro&#13;Flexibilizaçao das Leis&#13;Agrotoxicos&#13;Codigo florestal&#13;Licenciamento Ambiental&#13;Autolicenciamento&#13;CONAMA&#13;Participaçao popular&#13;STF Fiscalizaçao&#13;Acordos internacionais</comment>
								<name>Sistema Juridico</name>
								<in>9047</in>
								<out>24603</out>
							</marker>
						<logginginfo>
							<description></description>
							<scene></scene>
							<shottake></shottake>
							<lognote></lognote>
							<good></good>
							<originalvideofilename></originalvideofilename>
							<originalaudiofilename></originalaudiofilename>
						</logginginfo>
						<colorinfo>
							<lut></lut>
							<lut1></lut1>
							<asc_sop></asc_sop>
							<asc_sat></asc_sat>
							<lut2></lut2>
						</colorinfo>
						<labels>
							<label2>Iris</label2>
						</labels>
					</clipitem>
					<clipitem id="clipitem-111">
						<masterclipid>masterclip-20</masterclipid>
						<name>B023_01090152_C002.mov</name>
						<enabled>TRUE</enabled>
						<duration>27545</duration>
						<rate>
							<timebase>30</timebase>
							<ntsc>TRUE</ntsc>
						</rate>
						<start>1063</start>
						<end>1472</end>
						<in>7141</in>
						<out>7550</out>
						<pproTicksIn>60524739475200</pproTicksIn>
						<pproTicksOut>63991287360000</pproTicksOut>
						<alphatype>none</alphatype>
						<file id="file-20"/>
							<marker>
								<comment>Intensificaçao eventos climaticos&#13;Aquecimento global&#13;Futuro&#13;Enchente RS&#13;Seca Amazonia&#13;Impacto ser humano&#13;Painel IPCC</comment>
								<name>Crise climatica</name>
								<in>1826</in>
								<out>7712</out>
							</marker>
							<marker>
								<comment>Flexibilizaçao das Leis&#13;Negacionismo&#13;Impacto ser humano&#13;Efeito Estufa&#13;Aquecimento global&#13;Participaçao popular</comment>
								<name>Politicas publicas</name>
								<in>25051</in>
								<out>26976</out>
							</marker>
							<marker>
								<comment>Leis legislaçao constituiçao&#13;Direito Difuso&#13;Coletividade&#13;Futuro&#13;Flexibilizaçao das Leis&#13;Agrotoxicos&#13;Codigo florestal&#13;Licenciamento Ambiental&#13;Autolicenciamento&#13;CONAMA&#13;Participaçao popular&#13;STF Fiscalizaçao&#13;Acordos internacionais</comment>
								<name>Sistema Juridico</name>
								<in>9047</in>
								<out>24603</out>
							</marker>
						<logginginfo>
							<description></description>
							<scene></scene>
							<shottake></shottake>
							<lognote></lognote>
							<good></good>
							<originalvideofilename></originalvideofilename>
							<originalaudiofilename></originalaudiofilename>
						</logginginfo>
						<colorinfo>
							<lut></lut>
							<lut1></lut1>
							<asc_sop></asc_sop>
							<asc_sat></asc_sat>
							<lut2></lut2>
						</colorinfo>
						<labels>
							<label2>Iris</label2>
						</labels>
					</clipitem>
					<clipitem id="clipitem-112">
						<masterclipid>masterclip-21</masterclipid>
						<name>B017_01030046_C004.mov</name>
						<enabled>TRUE</enabled>
						<duration>74225</duration>
						<rate>
							<timebase>30</timebase>
							<ntsc>TRUE</ntsc>
						</rate>
						<start>8608</start>
						<end>8771</end>
						<in>34680</in>
						<out>34843</out>
						<pproTicksIn>293936138496000</pproTicksIn>
						<pproTicksOut>295317672249600</pproTicksOut>
						<alphatype>none</alphatype>
						<pixelaspectratio>square</pixelaspectratio>
						<anamorphic>FALSE</anamorphic>
						<file id="file-21">
							<name>B017_01030046_C004.mov</name>
							<pathurl>file://localhost/Volumes/EDDMA_Pos01/EDDMA_01/BRUTAS/CENAS%20CAPTADAS/20250430_01de02/TRANSCODED/CAM_B/B017/B017_01030046_C004.mov</pathurl>
							<rate>
								<timebase>30</timebase>
								<ntsc>TRUE</ntsc>
							</rate>
							<duration>74225</duration>
							<timecode>
								<rate>
									<timebase>30</timebase>
									<ntsc>TRUE</ntsc>
								</rate>
								<string>11:29:28:00</string>
								<frame>1241040</frame>
								<displayformat>NDF</displayformat>
							</timecode>
							<media>
								<video>
									<samplecharacteristics>
										<rate>
											<timebase>30</timebase>
											<ntsc>TRUE</ntsc>
										</rate>
										<width>1920</width>
										<height>1080</height>
										<anamorphic>FALSE</anamorphic>
										<pixelaspectratio>square</pixelaspectratio>
										<fielddominance>none</fielddominance>
									</samplecharacteristics>
								</video>
								<audio>
									<samplecharacteristics>
										<depth>16</depth>
										<samplerate>48000</samplerate>
									</samplecharacteristics>
									<channelcount>2</channelcount>
								</audio>
							</media>
						</file>
							<marker>
								<comment>Fontes renovaveis&#13;Pegada ecologica&#13;Industria</comment>
								<name>Energia</name>
								<in>14044</in>
								<out>16412</out>
							</marker>
							<marker>
								<comment>Fontes renovaveis&#13;Energia limpa&#13;Hidreletricas&#13;Eneegia solar eolica bioenergia&#13;Residuos Lixo&#13;Segurança energetica</comment>
								<name>Energia</name>
								<in>1709</in>
								<out>5332</out>
							</marker>
							<marker>
								<comment>Energia&#13;Explicaçao tecnica da produçao&#13;Fontes renovaveis&#13;Economia&#13;Industria&#13;Plasticos&#13;Politicas publicas</comment>
								<name>Hidrogenio verde</name>
								<in>66855</in>
								<out>71763</out>
							</marker>
							<marker>
								<comment>Energia eolica&#13;Licenciamento fiscalizaçao&#13;RS pioneiro</comment>
								<name>Energia</name>
								<in>28592</in>
								<out>32296</out>
							</marker>
							<marker>
								<comment>Minas de carvao&#13;Mineraçao&#13;Transiçao energetica&#13;Impacto social&#13;Trabalhadores</comment>
								<name>Termeletrica</name>
								<in>32717</in>
								<out>37418</out>
							</marker>
							<marker>
								<comment>Parque Eolico Osorio&#13;RS pioneiro&#13;Desenvolvimento tecnologia&#13;Reciclagem pas eolicas&#13;Mobilidade transporte&#13;Diferentes modais de transporte&#13;Logistica reversa&#13;Transiçao energetica&#13;Pegada ecologica</comment>
								<name>Energia</name>
								<in>17657</in>
								<out>-1</out>
							</marker>
							<marker>
								<comment>Produçao de energia sustentavel no RS&#13;Enchente RS</comment>
								<name>Energia</name>
								<in>11276</in>
								<out>13709</out>
							</marker>
							<marker>
								<comment>Impacto ambiental positivo vs negativo&#13;Fontes renovaveis&#13;RS pioneiro&#13;Estudo socioambiental</comment>
								<name>Energia</name>
								<in>24310</in>
								<out>27883</out>
							</marker>
							<marker>
								<comment>Demanda&#13;Politicas publicas&#13;Segurança social&#13;Fontes renovaveis&#13;Combustiveis fosseis&#13;Geradores e baterias</comment>
								<name>Energia</name>
								<in>57107</in>
								<out>59313</out>
							</marker>
							<marker>
								<comment>Hidrogenio verde&#13;Emissoes de carbono&#13;Agro Agricultura&#13;Transporte mobilidade&#13;Fertilizantes</comment>
								<name>Energia</name>
								<in>59546</in>
								<out>61693</out>
							</marker>
							<marker>
								<comment>Energia limpa&#13;Fontes renovaveis&#13;Tecnologias&#13;Experiencia internacional&#13;Emissoes de carbono</comment>
								<name>Energia</name>
								<in>51723</in>
								<out>54417</out>
							</marker>
							<marker>
								<comment>Fontes renovaveis&#13;RS pioneiro&#13;Desafios Fabricaçao e Logistica Reversa</comment>
								<name>Energia solar</name>
								<in>48275</in>
								<out>50584</out>
							</marker>
							<marker>
								<comment>Caso Honda&#13;Industria&#13;Fontes renovaveis&#13;Parque Eolico Osorio&#13;Transporte mobilidade</comment>
								<name>Energia</name>
								<in>9329</in>
								<out>-1</out>
							</marker>
							<marker>
								<comment>Energia&#13;Intensificaçao eventos climaticos</comment>
								<name>Futuro</name>
								<in>43674</in>
								<out>-1</out>
							</marker>
							<marker>
								<comment>APP Area de Preservaçao Permanente&#13;Regeneraçao biodiversidade&#13;Arvores nativas&#13;Caça</comment>
								<name>Hidreletricas</name>
								<in>44835</in>
								<out>-1</out>
							</marker>
							<marker>
								<comment>Energia&#13;Enchente RS&#13;Hidreletricas&#13;Tecnologia</comment>
								<name>Aguas rios</name>
								<in>39298</in>
								<out>43652</out>
							</marker>
							<marker>
								<comment>Explicaçao tecnica&#13;Residuo&#13;Energia&#13;Alcool</comment>
								<name>Biomassa</name>
								<in>62483</in>
								<out>-1</out>
							</marker>
							<marker>
								<comment>Sistema Interligado Nacional SIN&#13;Parque Eolico Osorio&#13;Sistemas alternativos descentralizados&#13;Fontes renovaveis</comment>
								<name>Energia</name>
								<in>5605</in>
								<out>9313</out>
							</marker>
						<logginginfo>
							<description></description>
							<scene></scene>
							<shottake></shottake>
							<lognote></lognote>
							<good></good>
							<originalvideofilename></originalvideofilename>
							<originalaudiofilename></originalaudiofilename>
						</logginginfo>
						<colorinfo>
							<lut></lut>
							<lut1></lut1>
							<asc_sop></asc_sop>
							<asc_sat></asc_sat>
							<lut2></lut2>
						</colorinfo>
					</clipitem>
					<clipitem id="clipitem-113">
						<masterclipid>masterclip-21</masterclipid>
						<name>B017_01030046_C004.mov</name>
						<enabled>TRUE</enabled>
						<duration>74225</duration>
						<rate>
							<timebase>30</timebase>
							<ntsc>TRUE</ntsc>
						</rate>
						<start>8771</start>
						<end>8905</end>
						<in>35155</in>
						<out>35289</out>
						<pproTicksIn>297962080416000</pproTicksIn>
						<pproTicksOut>299097819820800</pproTicksOut>
						<alphatype>none</alphatype>
						<file id="file-21"/>
							<marker>
								<comment>Fontes renovaveis&#13;Pegada ecologica&#13;Industria</comment>
								<name>Energia</name>
								<in>14044</in>
								<out>16412</out>
							</marker>
							<marker>
								<comment>Fontes renovaveis&#13;Energia limpa&#13;Hidreletricas&#13;Eneegia solar eolica bioenergia&#13;Residuos Lixo&#13;Segurança energetica</comment>
								<name>Energia</name>
								<in>1709</in>
								<out>5332</out>
							</marker>
							<marker>
								<comment>Energia&#13;Explicaçao tecnica da produçao&#13;Fontes renovaveis&#13;Economia&#13;Industria&#13;Plasticos&#13;Politicas publicas</comment>
								<name>Hidrogenio verde</name>
								<in>66855</in>
								<out>71763</out>
							</marker>
							<marker>
								<comment>Energia eolica&#13;Licenciamento fiscalizaçao&#13;RS pioneiro</comment>
								<name>Energia</name>
								<in>28592</in>
								<out>32296</out>
							</marker>
							<marker>
								<comment>Minas de carvao&#13;Mineraçao&#13;Transiçao energetica&#13;Impacto social&#13;Trabalhadores</comment>
								<name>Termeletrica</name>
								<in>32717</in>
								<out>37418</out>
							</marker>
							<marker>
								<comment>Parque Eolico Osorio&#13;RS pioneiro&#13;Desenvolvimento tecnologia&#13;Reciclagem pas eolicas&#13;Mobilidade transporte&#13;Diferentes modais de transporte&#13;Logistica reversa&#13;Transiçao energetica&#13;Pegada ecologica</comment>
								<name>Energia</name>
								<in>17657</in>
								<out>-1</out>
							</marker>
							<marker>
								<comment>Produçao de energia sustentavel no RS&#13;Enchente RS</comment>
								<name>Energia</name>
								<in>11276</in>
								<out>13709</out>
							</marker>
							<marker>
								<comment>Impacto ambiental positivo vs negativo&#13;Fontes renovaveis&#13;RS pioneiro&#13;Estudo socioambiental</comment>
								<name>Energia</name>
								<in>24310</in>
								<out>27883</out>
							</marker>
							<marker>
								<comment>Demanda&#13;Politicas publicas&#13;Segurança social&#13;Fontes renovaveis&#13;Combustiveis fosseis&#13;Geradores e baterias</comment>
								<name>Energia</name>
								<in>57107</in>
								<out>59313</out>
							</marker>
							<marker>
								<comment>Hidrogenio verde&#13;Emissoes de carbono&#13;Agro Agricultura&#13;Transporte mobilidade&#13;Fertilizantes</comment>
								<name>Energia</name>
								<in>59546</in>
								<out>61693</out>
							</marker>
							<marker>
								<comment>Energia limpa&#13;Fontes renovaveis&#13;Tecnologias&#13;Experiencia internacional&#13;Emissoes de carbono</comment>
								<name>Energia</name>
								<in>51723</in>
								<out>54417</out>
							</marker>
							<marker>
								<comment>Fontes renovaveis&#13;RS pioneiro&#13;Desafios Fabricaçao e Logistica Reversa</comment>
								<name>Energia solar</name>
								<in>48275</in>
								<out>50584</out>
							</marker>
							<marker>
								<comment>Caso Honda&#13;Industria&#13;Fontes renovaveis&#13;Parque Eolico Osorio&#13;Transporte mobilidade</comment>
								<name>Energia</name>
								<in>9329</in>
								<out>-1</out>
							</marker>
							<marker>
								<comment>Energia&#13;Intensificaçao eventos climaticos</comment>
								<name>Futuro</name>
								<in>43674</in>
								<out>-1</out>
							</marker>
							<marker>
								<comment>APP Area de Preservaçao Permanente&#13;Regeneraçao biodiversidade&#13;Arvores nativas&#13;Caça</comment>
								<name>Hidreletricas</name>
								<in>44835</in>
								<out>-1</out>
							</marker>
							<marker>
								<comment>Energia&#13;Enchente RS&#13;Hidreletricas&#13;Tecnologia</comment>
								<name>Aguas rios</name>
								<in>39298</in>
								<out>43652</out>
							</marker>
							<marker>
								<comment>Explicaçao tecnica&#13;Residuo&#13;Energia&#13;Alcool</comment>
								<name>Biomassa</name>
								<in>62483</in>
								<out>-1</out>
							</marker>
							<marker>
								<comment>Sistema Interligado Nacional SIN&#13;Parque Eolico Osorio&#13;Sistemas alternativos descentralizados&#13;Fontes renovaveis</comment>
								<name>Energia</name>
								<in>5605</in>
								<out>9313</out>
							</marker>
						<logginginfo>
							<description></description>
							<scene></scene>
							<shottake></shottake>
							<lognote></lognote>
							<good></good>
							<originalvideofilename></originalvideofilename>
							<originalaudiofilename></originalaudiofilename>
						</logginginfo>
						<colorinfo>
							<lut></lut>
							<lut1></lut1>
							<asc_sop></asc_sop>
							<asc_sat></asc_sat>
							<lut2></lut2>
						</colorinfo>
					</clipitem>
					<clipitem id="clipitem-114">
						<masterclipid>masterclip-21</masterclipid>
						<name>B017_01030046_C004.mov</name>
						<enabled>TRUE</enabled>
						<duration>74225</duration>
						<rate>
							<timebase>30</timebase>
							<ntsc>TRUE</ntsc>
						</rate>
						<start>8905</start>
						<end>9032</end>
						<in>35319</in>
						<out>35446</out>
						<pproTicksIn>299352089836800</pproTicksIn>
						<pproTicksOut>300428499571200</pproTicksOut>
						<alphatype>none</alphatype>
						<file id="file-21"/>
							<marker>
								<comment>Fontes renovaveis&#13;Pegada ecologica&#13;Industria</comment>
								<name>Energia</name>
								<in>14044</in>
								<out>16412</out>
							</marker>
							<marker>
								<comment>Fontes renovaveis&#13;Energia limpa&#13;Hidreletricas&#13;Eneegia solar eolica bioenergia&#13;Residuos Lixo&#13;Segurança energetica</comment>
								<name>Energia</name>
								<in>1709</in>
								<out>5332</out>
							</marker>
							<marker>
								<comment>Energia&#13;Explicaçao tecnica da produçao&#13;Fontes renovaveis&#13;Economia&#13;Industria&#13;Plasticos&#13;Politicas publicas</comment>
								<name>Hidrogenio verde</name>
								<in>66855</in>
								<out>71763</out>
							</marker>
							<marker>
								<comment>Energia eolica&#13;Licenciamento fiscalizaçao&#13;RS pioneiro</comment>
								<name>Energia</name>
								<in>28592</in>
								<out>32296</out>
							</marker>
							<marker>
								<comment>Minas de carvao&#13;Mineraçao&#13;Transiçao energetica&#13;Impacto social&#13;Trabalhadores</comment>
								<name>Termeletrica</name>
								<in>32717</in>
								<out>37418</out>
							</marker>
							<marker>
								<comment>Parque Eolico Osorio&#13;RS pioneiro&#13;Desenvolvimento tecnologia&#13;Reciclagem pas eolicas&#13;Mobilidade transporte&#13;Diferentes modais de transporte&#13;Logistica reversa&#13;Transiçao energetica&#13;Pegada ecologica</comment>
								<name>Energia</name>
								<in>17657</in>
								<out>-1</out>
							</marker>
							<marker>
								<comment>Produçao de energia sustentavel no RS&#13;Enchente RS</comment>
								<name>Energia</name>
								<in>11276</in>
								<out>13709</out>
							</marker>
							<marker>
								<comment>Impacto ambiental positivo vs negativo&#13;Fontes renovaveis&#13;RS pioneiro&#13;Estudo socioambiental</comment>
								<name>Energia</name>
								<in>24310</in>
								<out>27883</out>
							</marker>
							<marker>
								<comment>Demanda&#13;Politicas publicas&#13;Segurança social&#13;Fontes renovaveis&#13;Combustiveis fosseis&#13;Geradores e baterias</comment>
								<name>Energia</name>
								<in>57107</in>
								<out>59313</out>
							</marker>
							<marker>
								<comment>Hidrogenio verde&#13;Emissoes de carbono&#13;Agro Agricultura&#13;Transporte mobilidade&#13;Fertilizantes</comment>
								<name>Energia</name>
								<in>59546</in>
								<out>61693</out>
							</marker>
							<marker>
								<comment>Energia limpa&#13;Fontes renovaveis&#13;Tecnologias&#13;Experiencia internacional&#13;Emissoes de carbono</comment>
								<name>Energia</name>
								<in>51723</in>
								<out>54417</out>
							</marker>
							<marker>
								<comment>Fontes renovaveis&#13;RS pioneiro&#13;Desafios Fabricaçao e Logistica Reversa</comment>
								<name>Energia solar</name>
								<in>48275</in>
								<out>50584</out>
							</marker>
							<marker>
								<comment>Caso Honda&#13;Industria&#13;Fontes renovaveis&#13;Parque Eolico Osorio&#13;Transporte mobilidade</comment>
								<name>Energia</name>
								<in>9329</in>
								<out>-1</out>
							</marker>
							<marker>
								<comment>Energia&#13;Intensificaçao eventos climaticos</comment>
								<name>Futuro</name>
								<in>43674</in>
								<out>-1</out>
							</marker>
							<marker>
								<comment>APP Area de Preservaçao Permanente&#13;Regeneraçao biodiversidade&#13;Arvores nativas&#13;Caça</comment>
								<name>Hidreletricas</name>
								<in>44835</in>
								<out>-1</out>
							</marker>
							<marker>
								<comment>Energia&#13;Enchente RS&#13;Hidreletricas&#13;Tecnologia</comment>
								<name>Aguas rios</name>
								<in>39298</in>
								<out>43652</out>
							</marker>
							<marker>
								<comment>Explicaçao tecnica&#13;Residuo&#13;Energia&#13;Alcool</comment>
								<name>Biomassa</name>
								<in>62483</in>
								<out>-1</out>
							</marker>
							<marker>
								<comment>Sistema Interligado Nacional SIN&#13;Parque Eolico Osorio&#13;Sistemas alternativos descentralizados&#13;Fontes renovaveis</comment>
								<name>Energia</name>
								<in>5605</in>
								<out>9313</out>
							</marker>
						<logginginfo>
							<description></description>
							<scene></scene>
							<shottake></shottake>
							<lognote></lognote>
							<good></good>
							<originalvideofilename></originalvideofilename>
							<originalaudiofilename></originalaudiofilename>
						</logginginfo>
						<colorinfo>
							<lut></lut>
							<lut1></lut1>
							<asc_sop></asc_sop>
							<asc_sat></asc_sat>
							<lut2></lut2>
						</colorinfo>
					</clipitem>
					<clipitem id="clipitem-115">
						<masterclipid>masterclip-21</masterclipid>
						<name>B017_01030046_C004.mov</name>
						<enabled>TRUE</enabled>
						<duration>74225</duration>
						<rate>
							<timebase>30</timebase>
							<ntsc>TRUE</ntsc>
						</rate>
						<start>9032</start>
						<end>9382</end>
						<in>35693</in>
						<out>36043</out>
						<pproTicksIn>302521989369600</pproTicksIn>
						<pproTicksOut>305488472889600</pproTicksOut>
						<alphatype>none</alphatype>
						<file id="file-21"/>
							<marker>
								<comment>Fontes renovaveis&#13;Pegada ecologica&#13;Industria</comment>
								<name>Energia</name>
								<in>14044</in>
								<out>16412</out>
							</marker>
							<marker>
								<comment>Fontes renovaveis&#13;Energia limpa&#13;Hidreletricas&#13;Eneegia solar eolica bioenergia&#13;Residuos Lixo&#13;Segurança energetica</comment>
								<name>Energia</name>
								<in>1709</in>
								<out>5332</out>
							</marker>
							<marker>
								<comment>Energia&#13;Explicaçao tecnica da produçao&#13;Fontes renovaveis&#13;Economia&#13;Industria&#13;Plasticos&#13;Politicas publicas</comment>
								<name>Hidrogenio verde</name>
								<in>66855</in>
								<out>71763</out>
							</marker>
							<marker>
								<comment>Energia eolica&#13;Licenciamento fiscalizaçao&#13;RS pioneiro</comment>
								<name>Energia</name>
								<in>28592</in>
								<out>32296</out>
							</marker>
							<marker>
								<comment>Minas de carvao&#13;Mineraçao&#13;Transiçao energetica&#13;Impacto social&#13;Trabalhadores</comment>
								<name>Termeletrica</name>
								<in>32717</in>
								<out>37418</out>
							</marker>
							<marker>
								<comment>Parque Eolico Osorio&#13;RS pioneiro&#13;Desenvolvimento tecnologia&#13;Reciclagem pas eolicas&#13;Mobilidade transporte&#13;Diferentes modais de transporte&#13;Logistica reversa&#13;Transiçao energetica&#13;Pegada ecologica</comment>
								<name>Energia</name>
								<in>17657</in>
								<out>-1</out>
							</marker>
							<marker>
								<comment>Produçao de energia sustentavel no RS&#13;Enchente RS</comment>
								<name>Energia</name>
								<in>11276</in>
								<out>13709</out>
							</marker>
							<marker>
								<comment>Impacto ambiental positivo vs negativo&#13;Fontes renovaveis&#13;RS pioneiro&#13;Estudo socioambiental</comment>
								<name>Energia</name>
								<in>24310</in>
								<out>27883</out>
							</marker>
							<marker>
								<comment>Demanda&#13;Politicas publicas&#13;Segurança social&#13;Fontes renovaveis&#13;Combustiveis fosseis&#13;Geradores e baterias</comment>
								<name>Energia</name>
								<in>57107</in>
								<out>59313</out>
							</marker>
							<marker>
								<comment>Hidrogenio verde&#13;Emissoes de carbono&#13;Agro Agricultura&#13;Transporte mobilidade&#13;Fertilizantes</comment>
								<name>Energia</name>
								<in>59546</in>
								<out>61693</out>
							</marker>
							<marker>
								<comment>Energia limpa&#13;Fontes renovaveis&#13;Tecnologias&#13;Experiencia internacional&#13;Emissoes de carbono</comment>
								<name>Energia</name>
								<in>51723</in>
								<out>54417</out>
							</marker>
							<marker>
								<comment>Fontes renovaveis&#13;RS pioneiro&#13;Desafios Fabricaçao e Logistica Reversa</comment>
								<name>Energia solar</name>
								<in>48275</in>
								<out>50584</out>
							</marker>
							<marker>
								<comment>Caso Honda&#13;Industria&#13;Fontes renovaveis&#13;Parque Eolico Osorio&#13;Transporte mobilidade</comment>
								<name>Energia</name>
								<in>9329</in>
								<out>-1</out>
							</marker>
							<marker>
								<comment>Energia&#13;Intensificaçao eventos climaticos</comment>
								<name>Futuro</name>
								<in>43674</in>
								<out>-1</out>
							</marker>
							<marker>
								<comment>APP Area de Preservaçao Permanente&#13;Regeneraçao biodiversidade&#13;Arvores nativas&#13;Caça</comment>
								<name>Hidreletricas</name>
								<in>44835</in>
								<out>-1</out>
							</marker>
							<marker>
								<comment>Energia&#13;Enchente RS&#13;Hidreletricas&#13;Tecnologia</comment>
								<name>Aguas rios</name>
								<in>39298</in>
								<out>43652</out>
							</marker>
							<marker>
								<comment>Explicaçao tecnica&#13;Residuo&#13;Energia&#13;Alcool</comment>
								<name>Biomassa</name>
								<in>62483</in>
								<out>-1</out>
							</marker>
							<marker>
								<comment>Sistema Interligado Nacional SIN&#13;Parque Eolico Osorio&#13;Sistemas alternativos descentralizados&#13;Fontes renovaveis</comment>
								<name>Energia</name>
								<in>5605</in>
								<out>9313</out>
							</marker>
						<logginginfo>
							<description></description>
							<scene></scene>
							<shottake></shottake>
							<lognote></lognote>
							<good></good>
							<originalvideofilename></originalvideofilename>
							<originalaudiofilename></originalaudiofilename>
						</logginginfo>
						<colorinfo>
							<lut></lut>
							<lut1></lut1>
							<asc_sop></asc_sop>
							<asc_sat></asc_sat>
							<lut2></lut2>
						</colorinfo>
					</clipitem>
					<clipitem id="clipitem-116">
						<masterclipid>masterclip-21</masterclipid>
						<name>B017_01030046_C004.mov</name>
						<enabled>TRUE</enabled>
						<duration>74225</duration>
						<rate>
							<timebase>30</timebase>
							<ntsc>TRUE</ntsc>
						</rate>
						<start>18969</start>
						<end>19523</end>
						<in>14285</in>
						<out>14839</out>
						<pproTicksIn>121074905952000</pproTicksIn>
						<pproTicksOut>125770425580800</pproTicksOut>
						<alphatype>none</alphatype>
						<file id="file-21"/>
							<marker>
								<comment>Fontes renovaveis&#13;Pegada ecologica&#13;Industria</comment>
								<name>Energia</name>
								<in>14044</in>
								<out>16412</out>
							</marker>
							<marker>
								<comment>Fontes renovaveis&#13;Energia limpa&#13;Hidreletricas&#13;Eneegia solar eolica bioenergia&#13;Residuos Lixo&#13;Segurança energetica</comment>
								<name>Energia</name>
								<in>1709</in>
								<out>5332</out>
							</marker>
							<marker>
								<comment>Energia&#13;Explicaçao tecnica da produçao&#13;Fontes renovaveis&#13;Economia&#13;Industria&#13;Plasticos&#13;Politicas publicas</comment>
								<name>Hidrogenio verde</name>
								<in>66855</in>
								<out>71763</out>
							</marker>
							<marker>
								<comment>Energia eolica&#13;Licenciamento fiscalizaçao&#13;RS pioneiro</comment>
								<name>Energia</name>
								<in>28592</in>
								<out>32296</out>
							</marker>
							<marker>
								<comment>Minas de carvao&#13;Mineraçao&#13;Transiçao energetica&#13;Impacto social&#13;Trabalhadores</comment>
								<name>Termeletrica</name>
								<in>32717</in>
								<out>37418</out>
							</marker>
							<marker>
								<comment>Parque Eolico Osorio&#13;RS pioneiro&#13;Desenvolvimento tecnologia&#13;Reciclagem pas eolicas&#13;Mobilidade transporte&#13;Diferentes modais de transporte&#13;Logistica reversa&#13;Transiçao energetica&#13;Pegada ecologica</comment>
								<name>Energia</name>
								<in>17657</in>
								<out>-1</out>
							</marker>
							<marker>
								<comment>Produçao de energia sustentavel no RS&#13;Enchente RS</comment>
								<name>Energia</name>
								<in>11276</in>
								<out>13709</out>
							</marker>
							<marker>
								<comment>Impacto ambiental positivo vs negativo&#13;Fontes renovaveis&#13;RS pioneiro&#13;Estudo socioambiental</comment>
								<name>Energia</name>
								<in>24310</in>
								<out>27883</out>
							</marker>
							<marker>
								<comment>Demanda&#13;Politicas publicas&#13;Segurança social&#13;Fontes renovaveis&#13;Combustiveis fosseis&#13;Geradores e baterias</comment>
								<name>Energia</name>
								<in>57107</in>
								<out>59313</out>
							</marker>
							<marker>
								<comment>Hidrogenio verde&#13;Emissoes de carbono&#13;Agro Agricultura&#13;Transporte mobilidade&#13;Fertilizantes</comment>
								<name>Energia</name>
								<in>59546</in>
								<out>61693</out>
							</marker>
							<marker>
								<comment>Energia limpa&#13;Fontes renovaveis&#13;Tecnologias&#13;Experiencia internacional&#13;Emissoes de carbono</comment>
								<name>Energia</name>
								<in>51723</in>
								<out>54417</out>
							</marker>
							<marker>
								<comment>Fontes renovaveis&#13;RS pioneiro&#13;Desafios Fabricaçao e Logistica Reversa</comment>
								<name>Energia solar</name>
								<in>48275</in>
								<out>50584</out>
							</marker>
							<marker>
								<comment>Caso Honda&#13;Industria&#13;Fontes renovaveis&#13;Parque Eolico Osorio&#13;Transporte mobilidade</comment>
								<name>Energia</name>
								<in>9329</in>
								<out>-1</out>
							</marker>
							<marker>
								<comment>Energia&#13;Intensificaçao eventos climaticos</comment>
								<name>Futuro</name>
								<in>43674</in>
								<out>-1</out>
							</marker>
							<marker>
								<comment>APP Area de Preservaçao Permanente&#13;Regeneraçao biodiversidade&#13;Arvores nativas&#13;Caça</comment>
								<name>Hidreletricas</name>
								<in>44835</in>
								<out>-1</out>
							</marker>
							<marker>
								<comment>Energia&#13;Enchente RS&#13;Hidreletricas&#13;Tecnologia</comment>
								<name>Aguas rios</name>
								<in>39298</in>
								<out>43652</out>
							</marker>
							<marker>
								<comment>Explicaçao tecnica&#13;Residuo&#13;Energia&#13;Alcool</comment>
								<name>Biomassa</name>
								<in>62483</in>
								<out>-1</out>
							</marker>
							<marker>
								<comment>Sistema Interligado Nacional SIN&#13;Parque Eolico Osorio&#13;Sistemas alternativos descentralizados&#13;Fontes renovaveis</comment>
								<name>Energia</name>
								<in>5605</in>
								<out>9313</out>
							</marker>
						<logginginfo>
							<description></description>
							<scene></scene>
							<shottake></shottake>
							<lognote></lognote>
							<good></good>
							<originalvideofilename></originalvideofilename>
							<originalaudiofilename></originalaudiofilename>
						</logginginfo>
						<colorinfo>
							<lut></lut>
							<lut1></lut1>
							<asc_sop></asc_sop>
							<asc_sat></asc_sat>
							<lut2></lut2>
						</colorinfo>
					</clipitem>
					<clipitem id="clipitem-117">
						<masterclipid>masterclip-21</masterclipid>
						<name>B017_01030046_C004.mov</name>
						<enabled>TRUE</enabled>
						<duration>74225</duration>
						<rate>
							<timebase>30</timebase>
							<ntsc>TRUE</ntsc>
						</rate>
						<start>19523</start>
						<end>19651</end>
						<in>15014</in>
						<out>15142</out>
						<pproTicksIn>127253667340800</pproTicksIn>
						<pproTicksOut>128338552742400</pproTicksOut>
						<alphatype>none</alphatype>
						<file id="file-21"/>
							<marker>
								<comment>Fontes renovaveis&#13;Pegada ecologica&#13;Industria</comment>
								<name>Energia</name>
								<in>14044</in>
								<out>16412</out>
							</marker>
							<marker>
								<comment>Fontes renovaveis&#13;Energia limpa&#13;Hidreletricas&#13;Eneegia solar eolica bioenergia&#13;Residuos Lixo&#13;Segurança energetica</comment>
								<name>Energia</name>
								<in>1709</in>
								<out>5332</out>
							</marker>
							<marker>
								<comment>Energia&#13;Explicaçao tecnica da produçao&#13;Fontes renovaveis&#13;Economia&#13;Industria&#13;Plasticos&#13;Politicas publicas</comment>
								<name>Hidrogenio verde</name>
								<in>66855</in>
								<out>71763</out>
							</marker>
							<marker>
								<comment>Energia eolica&#13;Licenciamento fiscalizaçao&#13;RS pioneiro</comment>
								<name>Energia</name>
								<in>28592</in>
								<out>32296</out>
							</marker>
							<marker>
								<comment>Minas de carvao&#13;Mineraçao&#13;Transiçao energetica&#13;Impacto social&#13;Trabalhadores</comment>
								<name>Termeletrica</name>
								<in>32717</in>
								<out>37418</out>
							</marker>
							<marker>
								<comment>Parque Eolico Osorio&#13;RS pioneiro&#13;Desenvolvimento tecnologia&#13;Reciclagem pas eolicas&#13;Mobilidade transporte&#13;Diferentes modais de transporte&#13;Logistica reversa&#13;Transiçao energetica&#13;Pegada ecologica</comment>
								<name>Energia</name>
								<in>17657</in>
								<out>-1</out>
							</marker>
							<marker>
								<comment>Produçao de energia sustentavel no RS&#13;Enchente RS</comment>
								<name>Energia</name>
								<in>11276</in>
								<out>13709</out>
							</marker>
							<marker>
								<comment>Impacto ambiental positivo vs negativo&#13;Fontes renovaveis&#13;RS pioneiro&#13;Estudo socioambiental</comment>
								<name>Energia</name>
								<in>24310</in>
								<out>27883</out>
							</marker>
							<marker>
								<comment>Demanda&#13;Politicas publicas&#13;Segurança social&#13;Fontes renovaveis&#13;Combustiveis fosseis&#13;Geradores e baterias</comment>
								<name>Energia</name>
								<in>57107</in>
								<out>59313</out>
							</marker>
							<marker>
								<comment>Hidrogenio verde&#13;Emissoes de carbono&#13;Agro Agricultura&#13;Transporte mobilidade&#13;Fertilizantes</comment>
								<name>Energia</name>
								<in>59546</in>
								<out>61693</out>
							</marker>
							<marker>
								<comment>Energia limpa&#13;Fontes renovaveis&#13;Tecnologias&#13;Experiencia internacional&#13;Emissoes de carbono</comment>
								<name>Energia</name>
								<in>51723</in>
								<out>54417</out>
							</marker>
							<marker>
								<comment>Fontes renovaveis&#13;RS pioneiro&#13;Desafios Fabricaçao e Logistica Reversa</comment>
								<name>Energia solar</name>
								<in>48275</in>
								<out>50584</out>
							</marker>
							<marker>
								<comment>Caso Honda&#13;Industria&#13;Fontes renovaveis&#13;Parque Eolico Osorio&#13;Transporte mobilidade</comment>
								<name>Energia</name>
								<in>9329</in>
								<out>-1</out>
							</marker>
							<marker>
								<comment>Energia&#13;Intensificaçao eventos climaticos</comment>
								<name>Futuro</name>
								<in>43674</in>
								<out>-1</out>
							</marker>
							<marker>
								<comment>APP Area de Preservaçao Permanente&#13;Regeneraçao biodiversidade&#13;Arvores nativas&#13;Caça</comment>
								<name>Hidreletricas</name>
								<in>44835</in>
								<out>-1</out>
							</marker>
							<marker>
								<comment>Energia&#13;Enchente RS&#13;Hidreletricas&#13;Tecnologia</comment>
								<name>Aguas rios</name>
								<in>39298</in>
								<out>43652</out>
							</marker>
							<marker>
								<comment>Explicaçao tecnica&#13;Residuo&#13;Energia&#13;Alcool</comment>
								<name>Biomassa</name>
								<in>62483</in>
								<out>-1</out>
							</marker>
							<marker>
								<comment>Sistema Interligado Nacional SIN&#13;Parque Eolico Osorio&#13;Sistemas alternativos descentralizados&#13;Fontes renovaveis</comment>
								<name>Energia</name>
								<in>5605</in>
								<out>9313</out>
							</marker>
						<logginginfo>
							<description></description>
							<scene></scene>
							<shottake></shottake>
							<lognote></lognote>
							<good></good>
							<originalvideofilename></originalvideofilename>
							<originalaudiofilename></originalaudiofilename>
						</logginginfo>
						<colorinfo>
							<lut></lut>
							<lut1></lut1>
							<asc_sop></asc_sop>
							<asc_sat></asc_sat>
							<lut2></lut2>
						</colorinfo>
					</clipitem>
					<clipitem id="clipitem-118">
						<masterclipid>masterclip-22</masterclipid>
						<name>B004_01130443_C001.mov</name>
						<enabled>TRUE</enabled>
						<duration>93025</duration>
						<rate>
							<timebase>30</timebase>
							<ntsc>TRUE</ntsc>
						</rate>
						<start>24568</start>
						<end>26289</end>
						<in>78724</in>
						<out>80445</out>
						<pproTicksIn>667238424652800</pproTicksIn>
						<pproTicksOut>681825047904000</pproTicksOut>
						<alphatype>none</alphatype>
						<pixelaspectratio>square</pixelaspectratio>
						<anamorphic>FALSE</anamorphic>
						<file id="file-22">
							<name>B004_01130443_C001.mov</name>
							<pathurl>file://localhost/Volumes/EDDMA_Pos01/EDDMA_01/BRUTAS/CENAS%20CAPTADAS/20250402_01de02/TRANSCODED/CAM_B/B004/B004_01130443_C001.mov</pathurl>
							<rate>
								<timebase>30</timebase>
								<ntsc>TRUE</ntsc>
							</rate>
							<duration>93025</duration>
							<timecode>
								<rate>
									<timebase>30</timebase>
									<ntsc>TRUE</ntsc>
								</rate>
								<string>16:43:40:23</string>
								<frame>1806623</frame>
								<displayformat>NDF</displayformat>
							</timecode>
							<media>
								<video>
									<samplecharacteristics>
										<rate>
											<timebase>30</timebase>
											<ntsc>TRUE</ntsc>
										</rate>
										<width>1920</width>
										<height>1080</height>
										<anamorphic>FALSE</anamorphic>
										<pixelaspectratio>square</pixelaspectratio>
										<fielddominance>none</fielddominance>
									</samplecharacteristics>
								</video>
								<audio>
									<samplecharacteristics>
										<depth>16</depth>
										<samplerate>48000</samplerate>
									</samplecharacteristics>
									<channelcount>2</channelcount>
								</audio>
							</media>
						</file>
						<logginginfo>
							<description></description>
							<scene></scene>
							<shottake></shottake>
							<lognote></lognote>
							<good></good>
							<originalvideofilename></originalvideofilename>
							<originalaudiofilename></originalaudiofilename>
						</logginginfo>
						<colorinfo>
							<lut></lut>
							<lut1></lut1>
							<asc_sop></asc_sop>
							<asc_sat></asc_sat>
							<lut2></lut2>
						</colorinfo>
						<labels>
							<label2>Iris</label2>
						</labels>
					</clipitem>
					<clipitem id="clipitem-119">
						<masterclipid>masterclip-21</masterclipid>
						<name>B017_01030046_C004.mov</name>
						<enabled>TRUE</enabled>
						<duration>74225</duration>
						<rate>
							<timebase>30</timebase>
							<ntsc>TRUE</ntsc>
						</rate>
						<start>32552</start>
						<end>32861</end>
						<in>3390</in>
						<out>3699</out>
						<pproTicksIn>28732511808000</pproTicksIn>
						<pproTicksOut>31351492972800</pproTicksOut>
						<alphatype>none</alphatype>
						<file id="file-21"/>
							<marker>
								<comment>Fontes renovaveis&#13;Pegada ecologica&#13;Industria</comment>
								<name>Energia</name>
								<in>14044</in>
								<out>16412</out>
							</marker>
							<marker>
								<comment>Fontes renovaveis&#13;Energia limpa&#13;Hidreletricas&#13;Eneegia solar eolica bioenergia&#13;Residuos Lixo&#13;Segurança energetica</comment>
								<name>Energia</name>
								<in>1709</in>
								<out>5332</out>
							</marker>
							<marker>
								<comment>Energia&#13;Explicaçao tecnica da produçao&#13;Fontes renovaveis&#13;Economia&#13;Industria&#13;Plasticos&#13;Politicas publicas</comment>
								<name>Hidrogenio verde</name>
								<in>66855</in>
								<out>71763</out>
							</marker>
							<marker>
								<comment>Energia eolica&#13;Licenciamento fiscalizaçao&#13;RS pioneiro</comment>
								<name>Energia</name>
								<in>28592</in>
								<out>32296</out>
							</marker>
							<marker>
								<comment>Minas de carvao&#13;Mineraçao&#13;Transiçao energetica&#13;Impacto social&#13;Trabalhadores</comment>
								<name>Termeletrica</name>
								<in>32717</in>
								<out>37418</out>
							</marker>
							<marker>
								<comment>Parque Eolico Osorio&#13;RS pioneiro&#13;Desenvolvimento tecnologia&#13;Reciclagem pas eolicas&#13;Mobilidade transporte&#13;Diferentes modais de transporte&#13;Logistica reversa&#13;Transiçao energetica&#13;Pegada ecologica</comment>
								<name>Energia</name>
								<in>17657</in>
								<out>-1</out>
							</marker>
							<marker>
								<comment>Produçao de energia sustentavel no RS&#13;Enchente RS</comment>
								<name>Energia</name>
								<in>11276</in>
								<out>13709</out>
							</marker>
							<marker>
								<comment>Impacto ambiental positivo vs negativo&#13;Fontes renovaveis&#13;RS pioneiro&#13;Estudo socioambiental</comment>
								<name>Energia</name>
								<in>24310</in>
								<out>27883</out>
							</marker>
							<marker>
								<comment>Demanda&#13;Politicas publicas&#13;Segurança social&#13;Fontes renovaveis&#13;Combustiveis fosseis&#13;Geradores e baterias</comment>
								<name>Energia</name>
								<in>57107</in>
								<out>59313</out>
							</marker>
							<marker>
								<comment>Hidrogenio verde&#13;Emissoes de carbono&#13;Agro Agricultura&#13;Transporte mobilidade&#13;Fertilizantes</comment>
								<name>Energia</name>
								<in>59546</in>
								<out>61693</out>
							</marker>
							<marker>
								<comment>Energia limpa&#13;Fontes renovaveis&#13;Tecnologias&#13;Experiencia internacional&#13;Emissoes de carbono</comment>
								<name>Energia</name>
								<in>51723</in>
								<out>54417</out>
							</marker>
							<marker>
								<comment>Fontes renovaveis&#13;RS pioneiro&#13;Desafios Fabricaçao e Logistica Reversa</comment>
								<name>Energia solar</name>
								<in>48275</in>
								<out>50584</out>
							</marker>
							<marker>
								<comment>Caso Honda&#13;Industria&#13;Fontes renovaveis&#13;Parque Eolico Osorio&#13;Transporte mobilidade</comment>
								<name>Energia</name>
								<in>9329</in>
								<out>-1</out>
							</marker>
							<marker>
								<comment>Energia&#13;Intensificaçao eventos climaticos</comment>
								<name>Futuro</name>
								<in>43674</in>
								<out>-1</out>
							</marker>
							<marker>
								<comment>APP Area de Preservaçao Permanente&#13;Regeneraçao biodiversidade&#13;Arvores nativas&#13;Caça</comment>
								<name>Hidreletricas</name>
								<in>44835</in>
								<out>-1</out>
							</marker>
							<marker>
								<comment>Energia&#13;Enchente RS&#13;Hidreletricas&#13;Tecnologia</comment>
								<name>Aguas rios</name>
								<in>39298</in>
								<out>43652</out>
							</marker>
							<marker>
								<comment>Explicaçao tecnica&#13;Residuo&#13;Energia&#13;Alcool</comment>
								<name>Biomassa</name>
								<in>62483</in>
								<out>-1</out>
							</marker>
							<marker>
								<comment>Sistema Interligado Nacional SIN&#13;Parque Eolico Osorio&#13;Sistemas alternativos descentralizados&#13;Fontes renovaveis</comment>
								<name>Energia</name>
								<in>5605</in>
								<out>9313</out>
							</marker>
						<logginginfo>
							<description></description>
							<scene></scene>
							<shottake></shottake>
							<lognote></lognote>
							<good></good>
							<originalvideofilename></originalvideofilename>
							<originalaudiofilename></originalaudiofilename>
						</logginginfo>
						<colorinfo>
							<lut></lut>
							<lut1></lut1>
							<asc_sop></asc_sop>
							<asc_sat></asc_sat>
							<lut2></lut2>
						</colorinfo>
					</clipitem>
					<clipitem id="clipitem-120">
						<masterclipid>masterclip-21</masterclipid>
						<name>B017_01030046_C004.mov</name>
						<enabled>TRUE</enabled>
						<duration>74225</duration>
						<rate>
							<timebase>30</timebase>
							<ntsc>TRUE</ntsc>
						</rate>
						<start>32861</start>
						<end>33141</end>
						<in>3764</in>
						<out>4044</out>
						<pproTicksIn>31902411340800</pproTicksIn>
						<pproTicksOut>34275598156800</pproTicksOut>
						<alphatype>none</alphatype>
						<file id="file-21"/>
							<marker>
								<comment>Fontes renovaveis&#13;Pegada ecologica&#13;Industria</comment>
								<name>Energia</name>
								<in>14044</in>
								<out>16412</out>
							</marker>
							<marker>
								<comment>Fontes renovaveis&#13;Energia limpa&#13;Hidreletricas&#13;Eneegia solar eolica bioenergia&#13;Residuos Lixo&#13;Segurança energetica</comment>
								<name>Energia</name>
								<in>1709</in>
								<out>5332</out>
							</marker>
							<marker>
								<comment>Energia&#13;Explicaçao tecnica da produçao&#13;Fontes renovaveis&#13;Economia&#13;Industria&#13;Plasticos&#13;Politicas publicas</comment>
								<name>Hidrogenio verde</name>
								<in>66855</in>
								<out>71763</out>
							</marker>
							<marker>
								<comment>Energia eolica&#13;Licenciamento fiscalizaçao&#13;RS pioneiro</comment>
								<name>Energia</name>
								<in>28592</in>
								<out>32296</out>
							</marker>
							<marker>
								<comment>Minas de carvao&#13;Mineraçao&#13;Transiçao energetica&#13;Impacto social&#13;Trabalhadores</comment>
								<name>Termeletrica</name>
								<in>32717</in>
								<out>37418</out>
							</marker>
							<marker>
								<comment>Parque Eolico Osorio&#13;RS pioneiro&#13;Desenvolvimento tecnologia&#13;Reciclagem pas eolicas&#13;Mobilidade transporte&#13;Diferentes modais de transporte&#13;Logistica reversa&#13;Transiçao energetica&#13;Pegada ecologica</comment>
								<name>Energia</name>
								<in>17657</in>
								<out>-1</out>
							</marker>
							<marker>
								<comment>Produçao de energia sustentavel no RS&#13;Enchente RS</comment>
								<name>Energia</name>
								<in>11276</in>
								<out>13709</out>
							</marker>
							<marker>
								<comment>Impacto ambiental positivo vs negativo&#13;Fontes renovaveis&#13;RS pioneiro&#13;Estudo socioambiental</comment>
								<name>Energia</name>
								<in>24310</in>
								<out>27883</out>
							</marker>
							<marker>
								<comment>Demanda&#13;Politicas publicas&#13;Segurança social&#13;Fontes renovaveis&#13;Combustiveis fosseis&#13;Geradores e baterias</comment>
								<name>Energia</name>
								<in>57107</in>
								<out>59313</out>
							</marker>
							<marker>
								<comment>Hidrogenio verde&#13;Emissoes de carbono&#13;Agro Agricultura&#13;Transporte mobilidade&#13;Fertilizantes</comment>
								<name>Energia</name>
								<in>59546</in>
								<out>61693</out>
							</marker>
							<marker>
								<comment>Energia limpa&#13;Fontes renovaveis&#13;Tecnologias&#13;Experiencia internacional&#13;Emissoes de carbono</comment>
								<name>Energia</name>
								<in>51723</in>
								<out>54417</out>
							</marker>
							<marker>
								<comment>Fontes renovaveis&#13;RS pioneiro&#13;Desafios Fabricaçao e Logistica Reversa</comment>
								<name>Energia solar</name>
								<in>48275</in>
								<out>50584</out>
							</marker>
							<marker>
								<comment>Caso Honda&#13;Industria&#13;Fontes renovaveis&#13;Parque Eolico Osorio&#13;Transporte mobilidade</comment>
								<name>Energia</name>
								<in>9329</in>
								<out>-1</out>
							</marker>
							<marker>
								<comment>Energia&#13;Intensificaçao eventos climaticos</comment>
								<name>Futuro</name>
								<in>43674</in>
								<out>-1</out>
							</marker>
							<marker>
								<comment>APP Area de Preservaçao Permanente&#13;Regeneraçao biodiversidade&#13;Arvores nativas&#13;Caça</comment>
								<name>Hidreletricas</name>
								<in>44835</in>
								<out>-1</out>
							</marker>
							<marker>
								<comment>Energia&#13;Enchente RS&#13;Hidreletricas&#13;Tecnologia</comment>
								<name>Aguas rios</name>
								<in>39298</in>
								<out>43652</out>
							</marker>
							<marker>
								<comment>Explicaçao tecnica&#13;Residuo&#13;Energia&#13;Alcool</comment>
								<name>Biomassa</name>
								<in>62483</in>
								<out>-1</out>
							</marker>
							<marker>
								<comment>Sistema Interligado Nacional SIN&#13;Parque Eolico Osorio&#13;Sistemas alternativos descentralizados&#13;Fontes renovaveis</comment>
								<name>Energia</name>
								<in>5605</in>
								<out>9313</out>
							</marker>
						<logginginfo>
							<description></description>
							<scene></scene>
							<shottake></shottake>
							<lognote></lognote>
							<good></good>
							<originalvideofilename></originalvideofilename>
							<originalaudiofilename></originalaudiofilename>
						</logginginfo>
						<colorinfo>
							<lut></lut>
							<lut1></lut1>
							<asc_sop></asc_sop>
							<asc_sat></asc_sat>
							<lut2></lut2>
						</colorinfo>
					</clipitem>
					<clipitem id="clipitem-121">
						<masterclipid>masterclip-21</masterclipid>
						<name>B017_01030046_C004.mov</name>
						<enabled>TRUE</enabled>
						<duration>74225</duration>
						<rate>
							<timebase>30</timebase>
							<ntsc>TRUE</ntsc>
						</rate>
						<start>34895</start>
						<end>35047</end>
						<in>5605</in>
						<out>5757</out>
						<pproTicksIn>47506114656000</pproTicksIn>
						<pproTicksOut>48794416070400</pproTicksOut>
						<alphatype>none</alphatype>
						<file id="file-21"/>
							<marker>
								<comment>Fontes renovaveis&#13;Pegada ecologica&#13;Industria</comment>
								<name>Energia</name>
								<in>14044</in>
								<out>16412</out>
							</marker>
							<marker>
								<comment>Fontes renovaveis&#13;Energia limpa&#13;Hidreletricas&#13;Eneegia solar eolica bioenergia&#13;Residuos Lixo&#13;Segurança energetica</comment>
								<name>Energia</name>
								<in>1709</in>
								<out>5332</out>
							</marker>
							<marker>
								<comment>Energia&#13;Explicaçao tecnica da produçao&#13;Fontes renovaveis&#13;Economia&#13;Industria&#13;Plasticos&#13;Politicas publicas</comment>
								<name>Hidrogenio verde</name>
								<in>66855</in>
								<out>71763</out>
							</marker>
							<marker>
								<comment>Energia eolica&#13;Licenciamento fiscalizaçao&#13;RS pioneiro</comment>
								<name>Energia</name>
								<in>28592</in>
								<out>32296</out>
							</marker>
							<marker>
								<comment>Minas de carvao&#13;Mineraçao&#13;Transiçao energetica&#13;Impacto social&#13;Trabalhadores</comment>
								<name>Termeletrica</name>
								<in>32717</in>
								<out>37418</out>
							</marker>
							<marker>
								<comment>Parque Eolico Osorio&#13;RS pioneiro&#13;Desenvolvimento tecnologia&#13;Reciclagem pas eolicas&#13;Mobilidade transporte&#13;Diferentes modais de transporte&#13;Logistica reversa&#13;Transiçao energetica&#13;Pegada ecologica</comment>
								<name>Energia</name>
								<in>17657</in>
								<out>-1</out>
							</marker>
							<marker>
								<comment>Produçao de energia sustentavel no RS&#13;Enchente RS</comment>
								<name>Energia</name>
								<in>11276</in>
								<out>13709</out>
							</marker>
							<marker>
								<comment>Impacto ambiental positivo vs negativo&#13;Fontes renovaveis&#13;RS pioneiro&#13;Estudo socioambiental</comment>
								<name>Energia</name>
								<in>24310</in>
								<out>27883</out>
							</marker>
							<marker>
								<comment>Demanda&#13;Politicas publicas&#13;Segurança social&#13;Fontes renovaveis&#13;Combustiveis fosseis&#13;Geradores e baterias</comment>
								<name>Energia</name>
								<in>57107</in>
								<out>59313</out>
							</marker>
							<marker>
								<comment>Hidrogenio verde&#13;Emissoes de carbono&#13;Agro Agricultura&#13;Transporte mobilidade&#13;Fertilizantes</comment>
								<name>Energia</name>
								<in>59546</in>
								<out>61693</out>
							</marker>
							<marker>
								<comment>Energia limpa&#13;Fontes renovaveis&#13;Tecnologias&#13;Experiencia internacional&#13;Emissoes de carbono</comment>
								<name>Energia</name>
								<in>51723</in>
								<out>54417</out>
							</marker>
							<marker>
								<comment>Fontes renovaveis&#13;RS pioneiro&#13;Desafios Fabricaçao e Logistica Reversa</comment>
								<name>Energia solar</name>
								<in>48275</in>
								<out>50584</out>
							</marker>
							<marker>
								<comment>Caso Honda&#13;Industria&#13;Fontes renovaveis&#13;Parque Eolico Osorio&#13;Transporte mobilidade</comment>
								<name>Energia</name>
								<in>9329</in>
								<out>-1</out>
							</marker>
							<marker>
								<comment>Energia&#13;Intensificaçao eventos climaticos</comment>
								<name>Futuro</name>
								<in>43674</in>
								<out>-1</out>
							</marker>
							<marker>
								<comment>APP Area de Preservaçao Permanente&#13;Regeneraçao biodiversidade&#13;Arvores nativas&#13;Caça</comment>
								<name>Hidreletricas</name>
								<in>44835</in>
								<out>-1</out>
							</marker>
							<marker>
								<comment>Energia&#13;Enchente RS&#13;Hidreletricas&#13;Tecnologia</comment>
								<name>Aguas rios</name>
								<in>39298</in>
								<out>43652</out>
							</marker>
							<marker>
								<comment>Explicaçao tecnica&#13;Residuo&#13;Energia&#13;Alcool</comment>
								<name>Biomassa</name>
								<in>62483</in>
								<out>-1</out>
							</marker>
							<marker>
								<comment>Sistema Interligado Nacional SIN&#13;Parque Eolico Osorio&#13;Sistemas alternativos descentralizados&#13;Fontes renovaveis</comment>
								<name>Energia</name>
								<in>5605</in>
								<out>9313</out>
							</marker>
						<logginginfo>
							<description></description>
							<scene></scene>
							<shottake></shottake>
							<lognote></lognote>
							<good></good>
							<originalvideofilename></originalvideofilename>
							<originalaudiofilename></originalaudiofilename>
						</logginginfo>
						<colorinfo>
							<lut></lut>
							<lut1></lut1>
							<asc_sop></asc_sop>
							<asc_sat></asc_sat>
							<lut2></lut2>
						</colorinfo>
					</clipitem>
					<clipitem id="clipitem-122">
						<masterclipid>masterclip-21</masterclipid>
						<name>B017_01030046_C004.mov</name>
						<enabled>TRUE</enabled>
						<duration>74225</duration>
						<rate>
							<timebase>30</timebase>
							<ntsc>TRUE</ntsc>
						</rate>
						<start>35047</start>
						<end>35618</end>
						<in>6890</in>
						<out>7461</out>
						<pproTicksIn>58397347008000</pproTicksIn>
						<pproTicksOut>63236952979200</pproTicksOut>
						<alphatype>none</alphatype>
						<file id="file-21"/>
							<marker>
								<comment>Fontes renovaveis&#13;Pegada ecologica&#13;Industria</comment>
								<name>Energia</name>
								<in>14044</in>
								<out>16412</out>
							</marker>
							<marker>
								<comment>Fontes renovaveis&#13;Energia limpa&#13;Hidreletricas&#13;Eneegia solar eolica bioenergia&#13;Residuos Lixo&#13;Segurança energetica</comment>
								<name>Energia</name>
								<in>1709</in>
								<out>5332</out>
							</marker>
							<marker>
								<comment>Energia&#13;Explicaçao tecnica da produçao&#13;Fontes renovaveis&#13;Economia&#13;Industria&#13;Plasticos&#13;Politicas publicas</comment>
								<name>Hidrogenio verde</name>
								<in>66855</in>
								<out>71763</out>
							</marker>
							<marker>
								<comment>Energia eolica&#13;Licenciamento fiscalizaçao&#13;RS pioneiro</comment>
								<name>Energia</name>
								<in>28592</in>
								<out>32296</out>
							</marker>
							<marker>
								<comment>Minas de carvao&#13;Mineraçao&#13;Transiçao energetica&#13;Impacto social&#13;Trabalhadores</comment>
								<name>Termeletrica</name>
								<in>32717</in>
								<out>37418</out>
							</marker>
							<marker>
								<comment>Parque Eolico Osorio&#13;RS pioneiro&#13;Desenvolvimento tecnologia&#13;Reciclagem pas eolicas&#13;Mobilidade transporte&#13;Diferentes modais de transporte&#13;Logistica reversa&#13;Transiçao energetica&#13;Pegada ecologica</comment>
								<name>Energia</name>
								<in>17657</in>
								<out>-1</out>
							</marker>
							<marker>
								<comment>Produçao de energia sustentavel no RS&#13;Enchente RS</comment>
								<name>Energia</name>
								<in>11276</in>
								<out>13709</out>
							</marker>
							<marker>
								<comment>Impacto ambiental positivo vs negativo&#13;Fontes renovaveis&#13;RS pioneiro&#13;Estudo socioambiental</comment>
								<name>Energia</name>
								<in>24310</in>
								<out>27883</out>
							</marker>
							<marker>
								<comment>Demanda&#13;Politicas publicas&#13;Segurança social&#13;Fontes renovaveis&#13;Combustiveis fosseis&#13;Geradores e baterias</comment>
								<name>Energia</name>
								<in>57107</in>
								<out>59313</out>
							</marker>
							<marker>
								<comment>Hidrogenio verde&#13;Emissoes de carbono&#13;Agro Agricultura&#13;Transporte mobilidade&#13;Fertilizantes</comment>
								<name>Energia</name>
								<in>59546</in>
								<out>61693</out>
							</marker>
							<marker>
								<comment>Energia limpa&#13;Fontes renovaveis&#13;Tecnologias&#13;Experiencia internacional&#13;Emissoes de carbono</comment>
								<name>Energia</name>
								<in>51723</in>
								<out>54417</out>
							</marker>
							<marker>
								<comment>Fontes renovaveis&#13;RS pioneiro&#13;Desafios Fabricaçao e Logistica Reversa</comment>
								<name>Energia solar</name>
								<in>48275</in>
								<out>50584</out>
							</marker>
							<marker>
								<comment>Caso Honda&#13;Industria&#13;Fontes renovaveis&#13;Parque Eolico Osorio&#13;Transporte mobilidade</comment>
								<name>Energia</name>
								<in>9329</in>
								<out>-1</out>
							</marker>
							<marker>
								<comment>Energia&#13;Intensificaçao eventos climaticos</comment>
								<name>Futuro</name>
								<in>43674</in>
								<out>-1</out>
							</marker>
							<marker>
								<comment>APP Area de Preservaçao Permanente&#13;Regeneraçao biodiversidade&#13;Arvores nativas&#13;Caça</comment>
								<name>Hidreletricas</name>
								<in>44835</in>
								<out>-1</out>
							</marker>
							<marker>
								<comment>Energia&#13;Enchente RS&#13;Hidreletricas&#13;Tecnologia</comment>
								<name>Aguas rios</name>
								<in>39298</in>
								<out>43652</out>
							</marker>
							<marker>
								<comment>Explicaçao tecnica&#13;Residuo&#13;Energia&#13;Alcool</comment>
								<name>Biomassa</name>
								<in>62483</in>
								<out>-1</out>
							</marker>
							<marker>
								<comment>Sistema Interligado Nacional SIN&#13;Parque Eolico Osorio&#13;Sistemas alternativos descentralizados&#13;Fontes renovaveis</comment>
								<name>Energia</name>
								<in>5605</in>
								<out>9313</out>
							</marker>
						<logginginfo>
							<description></description>
							<scene></scene>
							<shottake></shottake>
							<lognote></lognote>
							<good></good>
							<originalvideofilename></originalvideofilename>
							<originalaudiofilename></originalaudiofilename>
						</logginginfo>
						<colorinfo>
							<lut></lut>
							<lut1></lut1>
							<asc_sop></asc_sop>
							<asc_sat></asc_sat>
							<lut2></lut2>
						</colorinfo>
					</clipitem>
					<clipitem id="clipitem-123">
						<masterclipid>masterclip-21</masterclipid>
						<name>B017_01030046_C004.mov</name>
						<enabled>TRUE</enabled>
						<duration>74225</duration>
						<rate>
							<timebase>30</timebase>
							<ntsc>TRUE</ntsc>
						</rate>
						<start>35618</start>
						<end>35970</end>
						<in>8117</in>
						<out>8469</out>
						<pproTicksIn>68796990662400</pproTicksIn>
						<pproTicksOut>71780425516800</pproTicksOut>
						<alphatype>none</alphatype>
						<file id="file-21"/>
							<marker>
								<comment>Fontes renovaveis&#13;Pegada ecologica&#13;Industria</comment>
								<name>Energia</name>
								<in>14044</in>
								<out>16412</out>
							</marker>
							<marker>
								<comment>Fontes renovaveis&#13;Energia limpa&#13;Hidreletricas&#13;Eneegia solar eolica bioenergia&#13;Residuos Lixo&#13;Segurança energetica</comment>
								<name>Energia</name>
								<in>1709</in>
								<out>5332</out>
							</marker>
							<marker>
								<comment>Energia&#13;Explicaçao tecnica da produçao&#13;Fontes renovaveis&#13;Economia&#13;Industria&#13;Plasticos&#13;Politicas publicas</comment>
								<name>Hidrogenio verde</name>
								<in>66855</in>
								<out>71763</out>
							</marker>
							<marker>
								<comment>Energia eolica&#13;Licenciamento fiscalizaçao&#13;RS pioneiro</comment>
								<name>Energia</name>
								<in>28592</in>
								<out>32296</out>
							</marker>
							<marker>
								<comment>Minas de carvao&#13;Mineraçao&#13;Transiçao energetica&#13;Impacto social&#13;Trabalhadores</comment>
								<name>Termeletrica</name>
								<in>32717</in>
								<out>37418</out>
							</marker>
							<marker>
								<comment>Parque Eolico Osorio&#13;RS pioneiro&#13;Desenvolvimento tecnologia&#13;Reciclagem pas eolicas&#13;Mobilidade transporte&#13;Diferentes modais de transporte&#13;Logistica reversa&#13;Transiçao energetica&#13;Pegada ecologica</comment>
								<name>Energia</name>
								<in>17657</in>
								<out>-1</out>
							</marker>
							<marker>
								<comment>Produçao de energia sustentavel no RS&#13;Enchente RS</comment>
								<name>Energia</name>
								<in>11276</in>
								<out>13709</out>
							</marker>
							<marker>
								<comment>Impacto ambiental positivo vs negativo&#13;Fontes renovaveis&#13;RS pioneiro&#13;Estudo socioambiental</comment>
								<name>Energia</name>
								<in>24310</in>
								<out>27883</out>
							</marker>
							<marker>
								<comment>Demanda&#13;Politicas publicas&#13;Segurança social&#13;Fontes renovaveis&#13;Combustiveis fosseis&#13;Geradores e baterias</comment>
								<name>Energia</name>
								<in>57107</in>
								<out>59313</out>
							</marker>
							<marker>
								<comment>Hidrogenio verde&#13;Emissoes de carbono&#13;Agro Agricultura&#13;Transporte mobilidade&#13;Fertilizantes</comment>
								<name>Energia</name>
								<in>59546</in>
								<out>61693</out>
							</marker>
							<marker>
								<comment>Energia limpa&#13;Fontes renovaveis&#13;Tecnologias&#13;Experiencia internacional&#13;Emissoes de carbono</comment>
								<name>Energia</name>
								<in>51723</in>
								<out>54417</out>
							</marker>
							<marker>
								<comment>Fontes renovaveis&#13;RS pioneiro&#13;Desafios Fabricaçao e Logistica Reversa</comment>
								<name>Energia solar</name>
								<in>48275</in>
								<out>50584</out>
							</marker>
							<marker>
								<comment>Caso Honda&#13;Industria&#13;Fontes renovaveis&#13;Parque Eolico Osorio&#13;Transporte mobilidade</comment>
								<name>Energia</name>
								<in>9329</in>
								<out>-1</out>
							</marker>
							<marker>
								<comment>Energia&#13;Intensificaçao eventos climaticos</comment>
								<name>Futuro</name>
								<in>43674</in>
								<out>-1</out>
							</marker>
							<marker>
								<comment>APP Area de Preservaçao Permanente&#13;Regeneraçao biodiversidade&#13;Arvores nativas&#13;Caça</comment>
								<name>Hidreletricas</name>
								<in>44835</in>
								<out>-1</out>
							</marker>
							<marker>
								<comment>Energia&#13;Enchente RS&#13;Hidreletricas&#13;Tecnologia</comment>
								<name>Aguas rios</name>
								<in>39298</in>
								<out>43652</out>
							</marker>
							<marker>
								<comment>Explicaçao tecnica&#13;Residuo&#13;Energia&#13;Alcool</comment>
								<name>Biomassa</name>
								<in>62483</in>
								<out>-1</out>
							</marker>
							<marker>
								<comment>Sistema Interligado Nacional SIN&#13;Parque Eolico Osorio&#13;Sistemas alternativos descentralizados&#13;Fontes renovaveis</comment>
								<name>Energia</name>
								<in>5605</in>
								<out>9313</out>
							</marker>
						<logginginfo>
							<description></description>
							<scene></scene>
							<shottake></shottake>
							<lognote></lognote>
							<good></good>
							<originalvideofilename></originalvideofilename>
							<originalaudiofilename></originalaudiofilename>
						</logginginfo>
						<colorinfo>
							<lut></lut>
							<lut1></lut1>
							<asc_sop></asc_sop>
							<asc_sat></asc_sat>
							<lut2></lut2>
						</colorinfo>
					</clipitem>
					<clipitem id="clipitem-124">
						<masterclipid>masterclip-21</masterclipid>
						<name>B017_01030046_C004.mov</name>
						<enabled>TRUE</enabled>
						<duration>74225</duration>
						<rate>
							<timebase>30</timebase>
							<ntsc>TRUE</ntsc>
						</rate>
						<start>35970</start>
						<end>36184</end>
						<in>9099</in>
						<out>9313</out>
						<pproTicksIn>77120095852800</pproTicksIn>
						<pproTicksOut>78933888633600</pproTicksOut>
						<alphatype>none</alphatype>
						<file id="file-21"/>
							<marker>
								<comment>Fontes renovaveis&#13;Pegada ecologica&#13;Industria</comment>
								<name>Energia</name>
								<in>14044</in>
								<out>16412</out>
							</marker>
							<marker>
								<comment>Fontes renovaveis&#13;Energia limpa&#13;Hidreletricas&#13;Eneegia solar eolica bioenergia&#13;Residuos Lixo&#13;Segurança energetica</comment>
								<name>Energia</name>
								<in>1709</in>
								<out>5332</out>
							</marker>
							<marker>
								<comment>Energia&#13;Explicaçao tecnica da produçao&#13;Fontes renovaveis&#13;Economia&#13;Industria&#13;Plasticos&#13;Politicas publicas</comment>
								<name>Hidrogenio verde</name>
								<in>66855</in>
								<out>71763</out>
							</marker>
							<marker>
								<comment>Energia eolica&#13;Licenciamento fiscalizaçao&#13;RS pioneiro</comment>
								<name>Energia</name>
								<in>28592</in>
								<out>32296</out>
							</marker>
							<marker>
								<comment>Minas de carvao&#13;Mineraçao&#13;Transiçao energetica&#13;Impacto social&#13;Trabalhadores</comment>
								<name>Termeletrica</name>
								<in>32717</in>
								<out>37418</out>
							</marker>
							<marker>
								<comment>Parque Eolico Osorio&#13;RS pioneiro&#13;Desenvolvimento tecnologia&#13;Reciclagem pas eolicas&#13;Mobilidade transporte&#13;Diferentes modais de transporte&#13;Logistica reversa&#13;Transiçao energetica&#13;Pegada ecologica</comment>
								<name>Energia</name>
								<in>17657</in>
								<out>-1</out>
							</marker>
							<marker>
								<comment>Produçao de energia sustentavel no RS&#13;Enchente RS</comment>
								<name>Energia</name>
								<in>11276</in>
								<out>13709</out>
							</marker>
							<marker>
								<comment>Impacto ambiental positivo vs negativo&#13;Fontes renovaveis&#13;RS pioneiro&#13;Estudo socioambiental</comment>
								<name>Energia</name>
								<in>24310</in>
								<out>27883</out>
							</marker>
							<marker>
								<comment>Demanda&#13;Politicas publicas&#13;Segurança social&#13;Fontes renovaveis&#13;Combustiveis fosseis&#13;Geradores e baterias</comment>
								<name>Energia</name>
								<in>57107</in>
								<out>59313</out>
							</marker>
							<marker>
								<comment>Hidrogenio verde&#13;Emissoes de carbono&#13;Agro Agricultura&#13;Transporte mobilidade&#13;Fertilizantes</comment>
								<name>Energia</name>
								<in>59546</in>
								<out>61693</out>
							</marker>
							<marker>
								<comment>Energia limpa&#13;Fontes renovaveis&#13;Tecnologias&#13;Experiencia internacional&#13;Emissoes de carbono</comment>
								<name>Energia</name>
								<in>51723</in>
								<out>54417</out>
							</marker>
							<marker>
								<comment>Fontes renovaveis&#13;RS pioneiro&#13;Desafios Fabricaçao e Logistica Reversa</comment>
								<name>Energia solar</name>
								<in>48275</in>
								<out>50584</out>
							</marker>
							<marker>
								<comment>Caso Honda&#13;Industria&#13;Fontes renovaveis&#13;Parque Eolico Osorio&#13;Transporte mobilidade</comment>
								<name>Energia</name>
								<in>9329</in>
								<out>-1</out>
							</marker>
							<marker>
								<comment>Energia&#13;Intensificaçao eventos climaticos</comment>
								<name>Futuro</name>
								<in>43674</in>
								<out>-1</out>
							</marker>
							<marker>
								<comment>APP Area de Preservaçao Permanente&#13;Regeneraçao biodiversidade&#13;Arvores nativas&#13;Caça</comment>
								<name>Hidreletricas</name>
								<in>44835</in>
								<out>-1</out>
							</marker>
							<marker>
								<comment>Energia&#13;Enchente RS&#13;Hidreletricas&#13;Tecnologia</comment>
								<name>Aguas rios</name>
								<in>39298</in>
								<out>43652</out>
							</marker>
							<marker>
								<comment>Explicaçao tecnica&#13;Residuo&#13;Energia&#13;Alcool</comment>
								<name>Biomassa</name>
								<in>62483</in>
								<out>-1</out>
							</marker>
							<marker>
								<comment>Sistema Interligado Nacional SIN&#13;Parque Eolico Osorio&#13;Sistemas alternativos descentralizados&#13;Fontes renovaveis</comment>
								<name>Energia</name>
								<in>5605</in>
								<out>9313</out>
							</marker>
						<logginginfo>
							<description></description>
							<scene></scene>
							<shottake></shottake>
							<lognote></lognote>
							<good></good>
							<originalvideofilename></originalvideofilename>
							<originalaudiofilename></originalaudiofilename>
						</logginginfo>
						<colorinfo>
							<lut></lut>
							<lut1></lut1>
							<asc_sop></asc_sop>
							<asc_sat></asc_sat>
							<lut2></lut2>
						</colorinfo>
					</clipitem>
					<clipitem id="clipitem-125">
						<masterclipid>masterclip-21</masterclipid>
						<name>B017_01030046_C004.mov</name>
						<enabled>TRUE</enabled>
						<duration>74225</duration>
						<rate>
							<timebase>30</timebase>
							<ntsc>TRUE</ntsc>
						</rate>
						<start>37923</start>
						<end>38380</end>
						<in>26416</in>
						<out>26873</out>
						<pproTicksIn>223893224755200</pproTicksIn>
						<pproTicksOut>227766604665600</pproTicksOut>
						<alphatype>none</alphatype>
						<file id="file-21"/>
							<marker>
								<comment>Fontes renovaveis&#13;Pegada ecologica&#13;Industria</comment>
								<name>Energia</name>
								<in>14044</in>
								<out>16412</out>
							</marker>
							<marker>
								<comment>Fontes renovaveis&#13;Energia limpa&#13;Hidreletricas&#13;Eneegia solar eolica bioenergia&#13;Residuos Lixo&#13;Segurança energetica</comment>
								<name>Energia</name>
								<in>1709</in>
								<out>5332</out>
							</marker>
							<marker>
								<comment>Energia&#13;Explicaçao tecnica da produçao&#13;Fontes renovaveis&#13;Economia&#13;Industria&#13;Plasticos&#13;Politicas publicas</comment>
								<name>Hidrogenio verde</name>
								<in>66855</in>
								<out>71763</out>
							</marker>
							<marker>
								<comment>Energia eolica&#13;Licenciamento fiscalizaçao&#13;RS pioneiro</comment>
								<name>Energia</name>
								<in>28592</in>
								<out>32296</out>
							</marker>
							<marker>
								<comment>Minas de carvao&#13;Mineraçao&#13;Transiçao energetica&#13;Impacto social&#13;Trabalhadores</comment>
								<name>Termeletrica</name>
								<in>32717</in>
								<out>37418</out>
							</marker>
							<marker>
								<comment>Parque Eolico Osorio&#13;RS pioneiro&#13;Desenvolvimento tecnologia&#13;Reciclagem pas eolicas&#13;Mobilidade transporte&#13;Diferentes modais de transporte&#13;Logistica reversa&#13;Transiçao energetica&#13;Pegada ecologica</comment>
								<name>Energia</name>
								<in>17657</in>
								<out>-1</out>
							</marker>
							<marker>
								<comment>Produçao de energia sustentavel no RS&#13;Enchente RS</comment>
								<name>Energia</name>
								<in>11276</in>
								<out>13709</out>
							</marker>
							<marker>
								<comment>Impacto ambiental positivo vs negativo&#13;Fontes renovaveis&#13;RS pioneiro&#13;Estudo socioambiental</comment>
								<name>Energia</name>
								<in>24310</in>
								<out>27883</out>
							</marker>
							<marker>
								<comment>Demanda&#13;Politicas publicas&#13;Segurança social&#13;Fontes renovaveis&#13;Combustiveis fosseis&#13;Geradores e baterias</comment>
								<name>Energia</name>
								<in>57107</in>
								<out>59313</out>
							</marker>
							<marker>
								<comment>Hidrogenio verde&#13;Emissoes de carbono&#13;Agro Agricultura&#13;Transporte mobilidade&#13;Fertilizantes</comment>
								<name>Energia</name>
								<in>59546</in>
								<out>61693</out>
							</marker>
							<marker>
								<comment>Energia limpa&#13;Fontes renovaveis&#13;Tecnologias&#13;Experiencia internacional&#13;Emissoes de carbono</comment>
								<name>Energia</name>
								<in>51723</in>
								<out>54417</out>
							</marker>
							<marker>
								<comment>Fontes renovaveis&#13;RS pioneiro&#13;Desafios Fabricaçao e Logistica Reversa</comment>
								<name>Energia solar</name>
								<in>48275</in>
								<out>50584</out>
							</marker>
							<marker>
								<comment>Caso Honda&#13;Industria&#13;Fontes renovaveis&#13;Parque Eolico Osorio&#13;Transporte mobilidade</comment>
								<name>Energia</name>
								<in>9329</in>
								<out>-1</out>
							</marker>
							<marker>
								<comment>Energia&#13;Intensificaçao eventos climaticos</comment>
								<name>Futuro</name>
								<in>43674</in>
								<out>-1</out>
							</marker>
							<marker>
								<comment>APP Area de Preservaçao Permanente&#13;Regeneraçao biodiversidade&#13;Arvores nativas&#13;Caça</comment>
								<name>Hidreletricas</name>
								<in>44835</in>
								<out>-1</out>
							</marker>
							<marker>
								<comment>Energia&#13;Enchente RS&#13;Hidreletricas&#13;Tecnologia</comment>
								<name>Aguas rios</name>
								<in>39298</in>
								<out>43652</out>
							</marker>
							<marker>
								<comment>Explicaçao tecnica&#13;Residuo&#13;Energia&#13;Alcool</comment>
								<name>Biomassa</name>
								<in>62483</in>
								<out>-1</out>
							</marker>
							<marker>
								<comment>Sistema Interligado Nacional SIN&#13;Parque Eolico Osorio&#13;Sistemas alternativos descentralizados&#13;Fontes renovaveis</comment>
								<name>Energia</name>
								<in>5605</in>
								<out>9313</out>
							</marker>
						<logginginfo>
							<description></description>
							<scene></scene>
							<shottake></shottake>
							<lognote></lognote>
							<good></good>
							<originalvideofilename></originalvideofilename>
							<originalaudiofilename></originalaudiofilename>
						</logginginfo>
						<colorinfo>
							<lut></lut>
							<lut1></lut1>
							<asc_sop></asc_sop>
							<asc_sat></asc_sat>
							<lut2></lut2>
						</colorinfo>
					</clipitem>
					<clipitem id="clipitem-126">
						<masterclipid>masterclip-21</masterclipid>
						<name>B017_01030046_C004.mov</name>
						<enabled>TRUE</enabled>
						<duration>74225</duration>
						<rate>
							<timebase>30</timebase>
							<ntsc>TRUE</ntsc>
						</rate>
						<start>38380</start>
						<end>38804</end>
						<in>27152</in>
						<out>27576</out>
						<pproTicksIn>230131315814400</pproTicksIn>
						<pproTicksOut>233724998707200</pproTicksOut>
						<alphatype>none</alphatype>
						<file id="file-21"/>
							<marker>
								<comment>Fontes renovaveis&#13;Pegada ecologica&#13;Industria</comment>
								<name>Energia</name>
								<in>14044</in>
								<out>16412</out>
							</marker>
							<marker>
								<comment>Fontes renovaveis&#13;Energia limpa&#13;Hidreletricas&#13;Eneegia solar eolica bioenergia&#13;Residuos Lixo&#13;Segurança energetica</comment>
								<name>Energia</name>
								<in>1709</in>
								<out>5332</out>
							</marker>
							<marker>
								<comment>Energia&#13;Explicaçao tecnica da produçao&#13;Fontes renovaveis&#13;Economia&#13;Industria&#13;Plasticos&#13;Politicas publicas</comment>
								<name>Hidrogenio verde</name>
								<in>66855</in>
								<out>71763</out>
							</marker>
							<marker>
								<comment>Energia eolica&#13;Licenciamento fiscalizaçao&#13;RS pioneiro</comment>
								<name>Energia</name>
								<in>28592</in>
								<out>32296</out>
							</marker>
							<marker>
								<comment>Minas de carvao&#13;Mineraçao&#13;Transiçao energetica&#13;Impacto social&#13;Trabalhadores</comment>
								<name>Termeletrica</name>
								<in>32717</in>
								<out>37418</out>
							</marker>
							<marker>
								<comment>Parque Eolico Osorio&#13;RS pioneiro&#13;Desenvolvimento tecnologia&#13;Reciclagem pas eolicas&#13;Mobilidade transporte&#13;Diferentes modais de transporte&#13;Logistica reversa&#13;Transiçao energetica&#13;Pegada ecologica</comment>
								<name>Energia</name>
								<in>17657</in>
								<out>-1</out>
							</marker>
							<marker>
								<comment>Produçao de energia sustentavel no RS&#13;Enchente RS</comment>
								<name>Energia</name>
								<in>11276</in>
								<out>13709</out>
							</marker>
							<marker>
								<comment>Impacto ambiental positivo vs negativo&#13;Fontes renovaveis&#13;RS pioneiro&#13;Estudo socioambiental</comment>
								<name>Energia</name>
								<in>24310</in>
								<out>27883</out>
							</marker>
							<marker>
								<comment>Demanda&#13;Politicas publicas&#13;Segurança social&#13;Fontes renovaveis&#13;Combustiveis fosseis&#13;Geradores e baterias</comment>
								<name>Energia</name>
								<in>57107</in>
								<out>59313</out>
							</marker>
							<marker>
								<comment>Hidrogenio verde&#13;Emissoes de carbono&#13;Agro Agricultura&#13;Transporte mobilidade&#13;Fertilizantes</comment>
								<name>Energia</name>
								<in>59546</in>
								<out>61693</out>
							</marker>
							<marker>
								<comment>Energia limpa&#13;Fontes renovaveis&#13;Tecnologias&#13;Experiencia internacional&#13;Emissoes de carbono</comment>
								<name>Energia</name>
								<in>51723</in>
								<out>54417</out>
							</marker>
							<marker>
								<comment>Fontes renovaveis&#13;RS pioneiro&#13;Desafios Fabricaçao e Logistica Reversa</comment>
								<name>Energia solar</name>
								<in>48275</in>
								<out>50584</out>
							</marker>
							<marker>
								<comment>Caso Honda&#13;Industria&#13;Fontes renovaveis&#13;Parque Eolico Osorio&#13;Transporte mobilidade</comment>
								<name>Energia</name>
								<in>9329</in>
								<out>-1</out>
							</marker>
							<marker>
								<comment>Energia&#13;Intensificaçao eventos climaticos</comment>
								<name>Futuro</name>
								<in>43674</in>
								<out>-1</out>
							</marker>
							<marker>
								<comment>APP Area de Preservaçao Permanente&#13;Regeneraçao biodiversidade&#13;Arvores nativas&#13;Caça</comment>
								<name>Hidreletricas</name>
								<in>44835</in>
								<out>-1</out>
							</marker>
							<marker>
								<comment>Energia&#13;Enchente RS&#13;Hidreletricas&#13;Tecnologia</comment>
								<name>Aguas rios</name>
								<in>39298</in>
								<out>43652</out>
							</marker>
							<marker>
								<comment>Explicaçao tecnica&#13;Residuo&#13;Energia&#13;Alcool</comment>
								<name>Biomassa</name>
								<in>62483</in>
								<out>-1</out>
							</marker>
							<marker>
								<comment>Sistema Interligado Nacional SIN&#13;Parque Eolico Osorio&#13;Sistemas alternativos descentralizados&#13;Fontes renovaveis</comment>
								<name>Energia</name>
								<in>5605</in>
								<out>9313</out>
							</marker>
						<logginginfo>
							<description></description>
							<scene></scene>
							<shottake></shottake>
							<lognote></lognote>
							<good></good>
							<originalvideofilename></originalvideofilename>
							<originalaudiofilename></originalaudiofilename>
						</logginginfo>
						<colorinfo>
							<lut></lut>
							<lut1></lut1>
							<asc_sop></asc_sop>
							<asc_sat></asc_sat>
							<lut2></lut2>
						</colorinfo>
					</clipitem>
					<clipitem id="clipitem-127">
						<masterclipid>masterclip-21</masterclipid>
						<name>B017_01030046_C004.mov</name>
						<enabled>TRUE</enabled>
						<duration>74225</duration>
						<rate>
							<timebase>30</timebase>
							<ntsc>TRUE</ntsc>
						</rate>
						<start>39206</start>
						<end>39513</end>
						<in>57401</in>
						<out>57708</out>
						<pproTicksIn>486511772947200</pproTicksIn>
						<pproTicksOut>489113802777600</pproTicksOut>
						<alphatype>none</alphatype>
						<file id="file-21"/>
							<marker>
								<comment>Fontes renovaveis&#13;Pegada ecologica&#13;Industria</comment>
								<name>Energia</name>
								<in>14044</in>
								<out>16412</out>
							</marker>
							<marker>
								<comment>Fontes renovaveis&#13;Energia limpa&#13;Hidreletricas&#13;Eneegia solar eolica bioenergia&#13;Residuos Lixo&#13;Segurança energetica</comment>
								<name>Energia</name>
								<in>1709</in>
								<out>5332</out>
							</marker>
							<marker>
								<comment>Energia&#13;Explicaçao tecnica da produçao&#13;Fontes renovaveis&#13;Economia&#13;Industria&#13;Plasticos&#13;Politicas publicas</comment>
								<name>Hidrogenio verde</name>
								<in>66855</in>
								<out>71763</out>
							</marker>
							<marker>
								<comment>Energia eolica&#13;Licenciamento fiscalizaçao&#13;RS pioneiro</comment>
								<name>Energia</name>
								<in>28592</in>
								<out>32296</out>
							</marker>
							<marker>
								<comment>Minas de carvao&#13;Mineraçao&#13;Transiçao energetica&#13;Impacto social&#13;Trabalhadores</comment>
								<name>Termeletrica</name>
								<in>32717</in>
								<out>37418</out>
							</marker>
							<marker>
								<comment>Parque Eolico Osorio&#13;RS pioneiro&#13;Desenvolvimento tecnologia&#13;Reciclagem pas eolicas&#13;Mobilidade transporte&#13;Diferentes modais de transporte&#13;Logistica reversa&#13;Transiçao energetica&#13;Pegada ecologica</comment>
								<name>Energia</name>
								<in>17657</in>
								<out>-1</out>
							</marker>
							<marker>
								<comment>Produçao de energia sustentavel no RS&#13;Enchente RS</comment>
								<name>Energia</name>
								<in>11276</in>
								<out>13709</out>
							</marker>
							<marker>
								<comment>Impacto ambiental positivo vs negativo&#13;Fontes renovaveis&#13;RS pioneiro&#13;Estudo socioambiental</comment>
								<name>Energia</name>
								<in>24310</in>
								<out>27883</out>
							</marker>
							<marker>
								<comment>Demanda&#13;Politicas publicas&#13;Segurança social&#13;Fontes renovaveis&#13;Combustiveis fosseis&#13;Geradores e baterias</comment>
								<name>Energia</name>
								<in>57107</in>
								<out>59313</out>
							</marker>
							<marker>
								<comment>Hidrogenio verde&#13;Emissoes de carbono&#13;Agro Agricultura&#13;Transporte mobilidade&#13;Fertilizantes</comment>
								<name>Energia</name>
								<in>59546</in>
								<out>61693</out>
							</marker>
							<marker>
								<comment>Energia limpa&#13;Fontes renovaveis&#13;Tecnologias&#13;Experiencia internacional&#13;Emissoes de carbono</comment>
								<name>Energia</name>
								<in>51723</in>
								<out>54417</out>
							</marker>
							<marker>
								<comment>Fontes renovaveis&#13;RS pioneiro&#13;Desafios Fabricaçao e Logistica Reversa</comment>
								<name>Energia solar</name>
								<in>48275</in>
								<out>50584</out>
							</marker>
							<marker>
								<comment>Caso Honda&#13;Industria&#13;Fontes renovaveis&#13;Parque Eolico Osorio&#13;Transporte mobilidade</comment>
								<name>Energia</name>
								<in>9329</in>
								<out>-1</out>
							</marker>
							<marker>
								<comment>Energia&#13;Intensificaçao eventos climaticos</comment>
								<name>Futuro</name>
								<in>43674</in>
								<out>-1</out>
							</marker>
							<marker>
								<comment>APP Area de Preservaçao Permanente&#13;Regeneraçao biodiversidade&#13;Arvores nativas&#13;Caça</comment>
								<name>Hidreletricas</name>
								<in>44835</in>
								<out>-1</out>
							</marker>
							<marker>
								<comment>Energia&#13;Enchente RS&#13;Hidreletricas&#13;Tecnologia</comment>
								<name>Aguas rios</name>
								<in>39298</in>
								<out>43652</out>
							</marker>
							<marker>
								<comment>Explicaçao tecnica&#13;Residuo&#13;Energia&#13;Alcool</comment>
								<name>Biomassa</name>
								<in>62483</in>
								<out>-1</out>
							</marker>
							<marker>
								<comment>Sistema Interligado Nacional SIN&#13;Parque Eolico Osorio&#13;Sistemas alternativos descentralizados&#13;Fontes renovaveis</comment>
								<name>Energia</name>
								<in>5605</in>
								<out>9313</out>
							</marker>
						<logginginfo>
							<description></description>
							<scene></scene>
							<shottake></shottake>
							<lognote></lognote>
							<good></good>
							<originalvideofilename></originalvideofilename>
							<originalaudiofilename></originalaudiofilename>
						</logginginfo>
						<colorinfo>
							<lut></lut>
							<lut1></lut1>
							<asc_sop></asc_sop>
							<asc_sat></asc_sat>
							<lut2></lut2>
						</colorinfo>
					</clipitem>
					<clipitem id="clipitem-128">
						<masterclipid>masterclip-21</masterclipid>
						<name>B017_01030046_C004.mov</name>
						<enabled>TRUE</enabled>
						<duration>74225</duration>
						<rate>
							<timebase>30</timebase>
							<ntsc>TRUE</ntsc>
						</rate>
						<start>39513</start>
						<end>39930</end>
						<in>57708</in>
						<out>58125</out>
						<pproTicksIn>489113802777600</pproTicksIn>
						<pproTicksOut>492648156000000</pproTicksOut>
						<alphatype>none</alphatype>
						<file id="file-21"/>
							<marker>
								<comment>Fontes renovaveis&#13;Pegada ecologica&#13;Industria</comment>
								<name>Energia</name>
								<in>14044</in>
								<out>16412</out>
							</marker>
							<marker>
								<comment>Fontes renovaveis&#13;Energia limpa&#13;Hidreletricas&#13;Eneegia solar eolica bioenergia&#13;Residuos Lixo&#13;Segurança energetica</comment>
								<name>Energia</name>
								<in>1709</in>
								<out>5332</out>
							</marker>
							<marker>
								<comment>Energia&#13;Explicaçao tecnica da produçao&#13;Fontes renovaveis&#13;Economia&#13;Industria&#13;Plasticos&#13;Politicas publicas</comment>
								<name>Hidrogenio verde</name>
								<in>66855</in>
								<out>71763</out>
							</marker>
							<marker>
								<comment>Energia eolica&#13;Licenciamento fiscalizaçao&#13;RS pioneiro</comment>
								<name>Energia</name>
								<in>28592</in>
								<out>32296</out>
							</marker>
							<marker>
								<comment>Minas de carvao&#13;Mineraçao&#13;Transiçao energetica&#13;Impacto social&#13;Trabalhadores</comment>
								<name>Termeletrica</name>
								<in>32717</in>
								<out>37418</out>
							</marker>
							<marker>
								<comment>Parque Eolico Osorio&#13;RS pioneiro&#13;Desenvolvimento tecnologia&#13;Reciclagem pas eolicas&#13;Mobilidade transporte&#13;Diferentes modais de transporte&#13;Logistica reversa&#13;Transiçao energetica&#13;Pegada ecologica</comment>
								<name>Energia</name>
								<in>17657</in>
								<out>-1</out>
							</marker>
							<marker>
								<comment>Produçao de energia sustentavel no RS&#13;Enchente RS</comment>
								<name>Energia</name>
								<in>11276</in>
								<out>13709</out>
							</marker>
							<marker>
								<comment>Impacto ambiental positivo vs negativo&#13;Fontes renovaveis&#13;RS pioneiro&#13;Estudo socioambiental</comment>
								<name>Energia</name>
								<in>24310</in>
								<out>27883</out>
							</marker>
							<marker>
								<comment>Demanda&#13;Politicas publicas&#13;Segurança social&#13;Fontes renovaveis&#13;Combustiveis fosseis&#13;Geradores e baterias</comment>
								<name>Energia</name>
								<in>57107</in>
								<out>59313</out>
							</marker>
							<marker>
								<comment>Hidrogenio verde&#13;Emissoes de carbono&#13;Agro Agricultura&#13;Transporte mobilidade&#13;Fertilizantes</comment>
								<name>Energia</name>
								<in>59546</in>
								<out>61693</out>
							</marker>
							<marker>
								<comment>Energia limpa&#13;Fontes renovaveis&#13;Tecnologias&#13;Experiencia internacional&#13;Emissoes de carbono</comment>
								<name>Energia</name>
								<in>51723</in>
								<out>54417</out>
							</marker>
							<marker>
								<comment>Fontes renovaveis&#13;RS pioneiro&#13;Desafios Fabricaçao e Logistica Reversa</comment>
								<name>Energia solar</name>
								<in>48275</in>
								<out>50584</out>
							</marker>
							<marker>
								<comment>Caso Honda&#13;Industria&#13;Fontes renovaveis&#13;Parque Eolico Osorio&#13;Transporte mobilidade</comment>
								<name>Energia</name>
								<in>9329</in>
								<out>-1</out>
							</marker>
							<marker>
								<comment>Energia&#13;Intensificaçao eventos climaticos</comment>
								<name>Futuro</name>
								<in>43674</in>
								<out>-1</out>
							</marker>
							<marker>
								<comment>APP Area de Preservaçao Permanente&#13;Regeneraçao biodiversidade&#13;Arvores nativas&#13;Caça</comment>
								<name>Hidreletricas</name>
								<in>44835</in>
								<out>-1</out>
							</marker>
							<marker>
								<comment>Energia&#13;Enchente RS&#13;Hidreletricas&#13;Tecnologia</comment>
								<name>Aguas rios</name>
								<in>39298</in>
								<out>43652</out>
							</marker>
							<marker>
								<comment>Explicaçao tecnica&#13;Residuo&#13;Energia&#13;Alcool</comment>
								<name>Biomassa</name>
								<in>62483</in>
								<out>-1</out>
							</marker>
							<marker>
								<comment>Sistema Interligado Nacional SIN&#13;Parque Eolico Osorio&#13;Sistemas alternativos descentralizados&#13;Fontes renovaveis</comment>
								<name>Energia</name>
								<in>5605</in>
								<out>9313</out>
							</marker>
						<logginginfo>
							<description></description>
							<scene></scene>
							<shottake></shottake>
							<lognote></lognote>
							<good></good>
							<originalvideofilename></originalvideofilename>
							<originalaudiofilename></originalaudiofilename>
						</logginginfo>
						<colorinfo>
							<lut></lut>
							<lut1></lut1>
							<asc_sop></asc_sop>
							<asc_sat></asc_sat>
							<lut2></lut2>
						</colorinfo>
					</clipitem>
					<clipitem id="clipitem-129">
						<masterclipid>masterclip-21</masterclipid>
						<name>B017_01030046_C004.mov</name>
						<enabled>TRUE</enabled>
						<duration>74225</duration>
						<rate>
							<timebase>30</timebase>
							<ntsc>TRUE</ntsc>
						</rate>
						<start>39930</start>
						<end>40247</end>
						<in>58314</in>
						<out>58631</out>
						<pproTicksIn>494250057100800</pproTicksIn>
						<pproTicksOut>496936843603200</pproTicksOut>
						<alphatype>none</alphatype>
						<file id="file-21"/>
							<marker>
								<comment>Fontes renovaveis&#13;Pegada ecologica&#13;Industria</comment>
								<name>Energia</name>
								<in>14044</in>
								<out>16412</out>
							</marker>
							<marker>
								<comment>Fontes renovaveis&#13;Energia limpa&#13;Hidreletricas&#13;Eneegia solar eolica bioenergia&#13;Residuos Lixo&#13;Segurança energetica</comment>
								<name>Energia</name>
								<in>1709</in>
								<out>5332</out>
							</marker>
							<marker>
								<comment>Energia&#13;Explicaçao tecnica da produçao&#13;Fontes renovaveis&#13;Economia&#13;Industria&#13;Plasticos&#13;Politicas publicas</comment>
								<name>Hidrogenio verde</name>
								<in>66855</in>
								<out>71763</out>
							</marker>
							<marker>
								<comment>Energia eolica&#13;Licenciamento fiscalizaçao&#13;RS pioneiro</comment>
								<name>Energia</name>
								<in>28592</in>
								<out>32296</out>
							</marker>
							<marker>
								<comment>Minas de carvao&#13;Mineraçao&#13;Transiçao energetica&#13;Impacto social&#13;Trabalhadores</comment>
								<name>Termeletrica</name>
								<in>32717</in>
								<out>37418</out>
							</marker>
							<marker>
								<comment>Parque Eolico Osorio&#13;RS pioneiro&#13;Desenvolvimento tecnologia&#13;Reciclagem pas eolicas&#13;Mobilidade transporte&#13;Diferentes modais de transporte&#13;Logistica reversa&#13;Transiçao energetica&#13;Pegada ecologica</comment>
								<name>Energia</name>
								<in>17657</in>
								<out>-1</out>
							</marker>
							<marker>
								<comment>Produçao de energia sustentavel no RS&#13;Enchente RS</comment>
								<name>Energia</name>
								<in>11276</in>
								<out>13709</out>
							</marker>
							<marker>
								<comment>Impacto ambiental positivo vs negativo&#13;Fontes renovaveis&#13;RS pioneiro&#13;Estudo socioambiental</comment>
								<name>Energia</name>
								<in>24310</in>
								<out>27883</out>
							</marker>
							<marker>
								<comment>Demanda&#13;Politicas publicas&#13;Segurança social&#13;Fontes renovaveis&#13;Combustiveis fosseis&#13;Geradores e baterias</comment>
								<name>Energia</name>
								<in>57107</in>
								<out>59313</out>
							</marker>
							<marker>
								<comment>Hidrogenio verde&#13;Emissoes de carbono&#13;Agro Agricultura&#13;Transporte mobilidade&#13;Fertilizantes</comment>
								<name>Energia</name>
								<in>59546</in>
								<out>61693</out>
							</marker>
							<marker>
								<comment>Energia limpa&#13;Fontes renovaveis&#13;Tecnologias&#13;Experiencia internacional&#13;Emissoes de carbono</comment>
								<name>Energia</name>
								<in>51723</in>
								<out>54417</out>
							</marker>
							<marker>
								<comment>Fontes renovaveis&#13;RS pioneiro&#13;Desafios Fabricaçao e Logistica Reversa</comment>
								<name>Energia solar</name>
								<in>48275</in>
								<out>50584</out>
							</marker>
							<marker>
								<comment>Caso Honda&#13;Industria&#13;Fontes renovaveis&#13;Parque Eolico Osorio&#13;Transporte mobilidade</comment>
								<name>Energia</name>
								<in>9329</in>
								<out>-1</out>
							</marker>
							<marker>
								<comment>Energia&#13;Intensificaçao eventos climaticos</comment>
								<name>Futuro</name>
								<in>43674</in>
								<out>-1</out>
							</marker>
							<marker>
								<comment>APP Area de Preservaçao Permanente&#13;Regeneraçao biodiversidade&#13;Arvores nativas&#13;Caça</comment>
								<name>Hidreletricas</name>
								<in>44835</in>
								<out>-1</out>
							</marker>
							<marker>
								<comment>Energia&#13;Enchente RS&#13;Hidreletricas&#13;Tecnologia</comment>
								<name>Aguas rios</name>
								<in>39298</in>
								<out>43652</out>
							</marker>
							<marker>
								<comment>Explicaçao tecnica&#13;Residuo&#13;Energia&#13;Alcool</comment>
								<name>Biomassa</name>
								<in>62483</in>
								<out>-1</out>
							</marker>
							<marker>
								<comment>Sistema Interligado Nacional SIN&#13;Parque Eolico Osorio&#13;Sistemas alternativos descentralizados&#13;Fontes renovaveis</comment>
								<name>Energia</name>
								<in>5605</in>
								<out>9313</out>
							</marker>
						<logginginfo>
							<description></description>
							<scene></scene>
							<shottake></shottake>
							<lognote></lognote>
							<good></good>
							<originalvideofilename></originalvideofilename>
							<originalaudiofilename></originalaudiofilename>
						</logginginfo>
						<colorinfo>
							<lut></lut>
							<lut1></lut1>
							<asc_sop></asc_sop>
							<asc_sat></asc_sat>
							<lut2></lut2>
						</colorinfo>
					</clipitem>
					<clipitem id="clipitem-130">
						<masterclipid>masterclip-23</masterclipid>
						<name>B013_01220330_C002.mov</name>
						<enabled>TRUE</enabled>
						<duration>101580</duration>
						<rate>
							<timebase>30</timebase>
							<ntsc>TRUE</ntsc>
						</rate>
						<start>43266</start>
						<end>44009</end>
						<in>93442</in>
						<out>94185</out>
						<pproTicksIn>791983294502400</pproTicksIn>
						<pproTicksOut>798280715232000</pproTicksOut>
						<alphatype>none</alphatype>
						<pixelaspectratio>square</pixelaspectratio>
						<anamorphic>FALSE</anamorphic>
						<file id="file-23">
							<name>B013_01220330_C002.mov</name>
							<pathurl>file://localhost/Volumes/EDDMA_Pos01/EDDMA_01/BRUTAS/CENAS%20CAPTADAS/20250411/TRANSCODED/CAM_B/B013/B013_01220330_C002.mov</pathurl>
							<rate>
								<timebase>30</timebase>
								<ntsc>TRUE</ntsc>
							</rate>
							<duration>101580</duration>
							<timecode>
								<rate>
									<timebase>30</timebase>
									<ntsc>TRUE</ntsc>
								</rate>
								<string>15:31:25:19</string>
								<frame>1676569</frame>
								<displayformat>NDF</displayformat>
							</timecode>
							<media>
								<video>
									<samplecharacteristics>
										<rate>
											<timebase>30</timebase>
											<ntsc>TRUE</ntsc>
										</rate>
										<width>1920</width>
										<height>1080</height>
										<anamorphic>FALSE</anamorphic>
										<pixelaspectratio>square</pixelaspectratio>
										<fielddominance>none</fielddominance>
									</samplecharacteristics>
								</video>
								<audio>
									<samplecharacteristics>
										<depth>16</depth>
										<samplerate>48000</samplerate>
									</samplecharacteristics>
									<channelcount>2</channelcount>
								</audio>
							</media>
						</file>
							<marker>
								<comment>Explicaçao tecnica&#13;Aguas oceanos&#13;Aquecimento global&#13;Intensificaçao eventos climaticos&#13;Efeito para o RS&#13;Secas enchentes&#13;Previsoes Futuro</comment>
								<name>El Nino La Nina</name>
								<in>31237</in>
								<out>42777</out>
							</marker>
							<marker>
								<comment>Pesquisa cientifica&#13;Circunavegaçao&#13;Geleiras&#13;Oceanos&#13;Rios voadores</comment>
								<name>Antartica</name>
								<in>43686</in>
								<out>60341</out>
							</marker>
							<marker>
								<comment>Derretimento das geleiras&#13;Aguas oceanos&#13;Previsoes Futuro&#13;Biodiversidade&#13;Efeito estufa&#13;Impacto ser humano&#13;Industria&#13;Aumento intensificaçao eventos climaticos</comment>
								<name>Aquecimento global</name>
								<in>13644</in>
								<out>-1</out>
							</marker>
							<marker>
								<comment>Tecnologia&#13;Florestas Biodiversidade&#13;Desenvolvimento&#13;Futuro&#13;Acordos internacionais&#13;Transiçao energetica&#13;Combustiveis fosseis&#13;Agro Agricultura&#13;Desmatamento</comment>
								<name>Politicas publicas</name>
								<in>92985</in>
								<out>100548</out>
							</marker>
							<marker>
								<comment>Explicaçao tecnica&#13;Historia do planeta&#13;Aquecimento global&#13;Aguas oceanos&#13;Intensificaçao eventos climaticos</comment>
								<name>Clima</name>
								<in>26799</in>
								<out>30887</out>
							</marker>
							<marker>
								<comment>Aumento intensificaçao de eventos climaticos&#13;Secas enchentes&#13;Destaque RS&#13;Aquecimento global&#13;Previsoes e Futuro&#13;Acordo de Paris&#13;Industria Combustiveis fosseis</comment>
								<name>Mudança climatica</name>
								<in>1091</in>
								<out>-1</out>
							</marker>
							<marker>
								<comment>Explicaçao tecnica&#13;Industria&#13;Combustiveis fosseis&#13;Desmatamento&#13;Impacto ser humano&#13;Mudançå climatica&#13;Previsoes Futuro&#13;Acordos internacionais&#13;Transiçao energetica</comment>
								<name>Efeito estufa</name>
								<in>8988</in>
								<out>-1</out>
							</marker>
							<marker>
								<comment>Explicaçao tecnica&#13;Amazonia&#13;Desmatamento&#13;Cerrado Pantanal&#13;Aumento eventos climaticos&#13;Previsoes Futuro&#13;Geleiras Antartica&#13;Politicas publicas</comment>
								<name>Rios voadores</name>
								<in>75625</in>
								<out>91977</out>
							</marker>
						<logginginfo>
							<description></description>
							<scene></scene>
							<shottake></shottake>
							<lognote></lognote>
							<good></good>
							<originalvideofilename></originalvideofilename>
							<originalaudiofilename></originalaudiofilename>
						</logginginfo>
						<colorinfo>
							<lut></lut>
							<lut1></lut1>
							<asc_sop></asc_sop>
							<asc_sat></asc_sat>
							<lut2></lut2>
						</colorinfo>
					</clipitem>
					<clipitem id="clipitem-131">
						<masterclipid>masterclip-24</masterclipid>
						<name>B006_01150317_C005.mov</name>
						<enabled>TRUE</enabled>
						<duration>6980</duration>
						<rate>
							<timebase>30</timebase>
							<ntsc>TRUE</ntsc>
						</rate>
						<start>44009</start>
						<end>45307</end>
						<in>3966</in>
						<out>5264</out>
						<pproTicksIn>33614496115200</pproTicksIn>
						<pproTicksOut>44615912140800</pproTicksOut>
						<alphatype>none</alphatype>
						<pixelaspectratio>square</pixelaspectratio>
						<anamorphic>FALSE</anamorphic>
						<file id="file-24">
							<name>B006_01150317_C005.mov</name>
							<pathurl>file://localhost/Volumes/EDDMA_Pos01/EDDMA_01/BRUTAS/CENAS%20CAPTADAS/20250404/TRANSCODED/CAM_B/B006/B006_01150317_C005.mov</pathurl>
							<rate>
								<timebase>30</timebase>
								<ntsc>TRUE</ntsc>
							</rate>
							<duration>6980</duration>
							<timecode>
								<rate>
									<timebase>30</timebase>
									<ntsc>TRUE</ntsc>
								</rate>
								<string>15:17:27:16</string>
								<frame>1651426</frame>
								<displayformat>NDF</displayformat>
							</timecode>
							<media>
								<video>
									<samplecharacteristics>
										<rate>
											<timebase>30</timebase>
											<ntsc>TRUE</ntsc>
										</rate>
										<width>1920</width>
										<height>1080</height>
										<anamorphic>FALSE</anamorphic>
										<pixelaspectratio>square</pixelaspectratio>
										<fielddominance>none</fielddominance>
									</samplecharacteristics>
								</video>
								<audio>
									<samplecharacteristics>
										<depth>16</depth>
										<samplerate>48000</samplerate>
									</samplecharacteristics>
									<channelcount>2</channelcount>
								</audio>
							</media>
						</file>
							<marker>
								<comment>Petroleo&#13;Biomas Amazonia Pampa&#13;Queimadas efeito estufa&#13;Industrias&#13;Modelo de produçao&#13;Futuro</comment>
								<name>Economia</name>
								<in>68</in>
								<out>-1</out>
							</marker>
						<logginginfo>
							<description></description>
							<scene></scene>
							<shottake></shottake>
							<lognote></lognote>
							<good></good>
							<originalvideofilename></originalvideofilename>
							<originalaudiofilename></originalaudiofilename>
						</logginginfo>
						<colorinfo>
							<lut></lut>
							<lut1></lut1>
							<asc_sop></asc_sop>
							<asc_sat></asc_sat>
							<lut2></lut2>
						</colorinfo>
						<labels>
							<label2>Iris</label2>
						</labels>
					</clipitem>
					<enabled>TRUE</enabled>
					<locked>FALSE</locked>
				</track>
			</video>
			<audio>
				<numOutputChannels>2</numOutputChannels>
				<format>
					<samplecharacteristics>
						<depth>16</depth>
						<samplerate>48000</samplerate>
					</samplecharacteristics>
				</format>
				<outputs>
					<group>
						<index>1</index>
						<numchannels>1</numchannels>
						<downmix>0</downmix>
						<channel>
							<index>1</index>
						</channel>
					</group>
					<group>
						<index>2</index>
						<numchannels>1</numchannels>
						<downmix>0</downmix>
						<channel>
							<index>2</index>
						</channel>
					</group>
				</outputs>
				<track TL.SQTrackAudioKeyframeStyle="0" TL.SQTrackShy="0" TL.SQTrackExpandedHeight="65" TL.SQTrackExpanded="0" MZ.TrackTargeted="1" PannerCurrentValue="0.5" PannerIsInverted="true" PannerStartKeyframe="-91445760000000000,0.5,0,0,0,0,0,0" PannerName="Balance" currentExplodedTrackIndex="0" totalExplodedTrackCount="2" premiereTrackType="Stereo">
					<clipitem id="clipitem-132" premiereChannelType="stereo">
						<masterclipid>masterclip-25</masterclipid>
						<name>250506-T001.WAV</name>
						<enabled>TRUE</enabled>
						<duration>27540</duration>
						<rate>
							<timebase>30</timebase>
							<ntsc>TRUE</ntsc>
						</rate>
						<start>0</start>
						<end>215</end>
						<in>2274</in>
						<out>2489</out>
						<pproTicksIn>19273667212800</pproTicksIn>
						<pproTicksOut>21095935660800</pproTicksOut>
						<file id="file-25">
							<name>250506-T001.wav</name>
							<pathurl>file://localhost/Volumes/EDDMA_Pos01/EDDMA_01/BRUTAS/CENAS%20CAPTADAS/20250506/AUDIO/250506/250506-T001.wav</pathurl>
							<rate>
								<timebase>30</timebase>
								<ntsc>TRUE</ntsc>
							</rate>
							<duration>27540</duration>
							<timecode>
								<rate>
									<timebase>30</timebase>
									<ntsc>TRUE</ntsc>
								</rate>
								<string>08;32;17;22</string>
								<frame>921210</frame>
								<displayformat>DF</displayformat>
								<reel>
									<name>250506</name>
								</reel>
							</timecode>
							<media>
								<audio>
									<samplecharacteristics>
										<depth>16</depth>
										<samplerate>48000</samplerate>
									</samplecharacteristics>
									<channelcount>2</channelcount>
								</audio>
							</media>
						</file>
						<sourcetrack>
							<mediatype>audio</mediatype>
							<trackindex>1</trackindex>
						</sourcetrack>
						<filter>
							<effect>
								<name>Audio Levels</name>
								<effectid>audiolevels</effectid>
								<effectcategory>audiolevels</effectcategory>
								<effecttype>audiolevels</effecttype>
								<mediatype>audio</mediatype>
								<pproBypass>false</pproBypass>
								<parameter authoringApp="PremierePro">
									<parameterid>level</parameterid>
									<name>Level</name>
									<valuemin>0</valuemin>
									<valuemax>3.98109</valuemax>
									<value>3.16228</value>
								</parameter>
							</effect>
						</filter>
						<link>
							<linkclipref>clipitem-132</linkclipref>
							<mediatype>audio</mediatype>
							<trackindex>1</trackindex>
							<clipindex>1</clipindex>
							<groupindex>1</groupindex>
						</link>
						<link>
							<linkclipref>clipitem-240</linkclipref>
							<mediatype>audio</mediatype>
							<trackindex>2</trackindex>
							<clipindex>1</clipindex>
							<groupindex>1</groupindex>
						</link>
						<logginginfo>
							<description>Rafaela Rosa</description>
							<scene>250506</scene>
							<shottake></shottake>
							<lognote></lognote>
							<good></good>
							<originalvideofilename></originalvideofilename>
							<originalaudiofilename></originalaudiofilename>
						</logginginfo>
						<colorinfo>
							<lut></lut>
							<lut1></lut1>
							<asc_sop></asc_sop>
							<asc_sat></asc_sat>
							<lut2></lut2>
						</colorinfo>
					</clipitem>
					<clipitem id="clipitem-133" premiereChannelType="stereo">
						<masterclipid>masterclip-25</masterclipid>
						<name>250506-T001.WAV</name>
						<enabled>TRUE</enabled>
						<duration>27540</duration>
						<rate>
							<timebase>30</timebase>
							<ntsc>TRUE</ntsc>
						</rate>
						<start>215</start>
						<end>1063</end>
						<in>2760</in>
						<out>3608</out>
						<pproTicksIn>23392841472000</pproTicksIn>
						<pproTicksOut>30580207257600</pproTicksOut>
						<file id="file-25"/>
						<sourcetrack>
							<mediatype>audio</mediatype>
							<trackindex>1</trackindex>
						</sourcetrack>
						<filter>
							<effect>
								<name>Audio Levels</name>
								<effectid>audiolevels</effectid>
								<effectcategory>audiolevels</effectcategory>
								<effecttype>audiolevels</effecttype>
								<mediatype>audio</mediatype>
								<pproBypass>false</pproBypass>
								<parameter authoringApp="PremierePro">
									<parameterid>level</parameterid>
									<name>Level</name>
									<valuemin>0</valuemin>
									<valuemax>3.98109</valuemax>
									<value>3.16228</value>
								</parameter>
							</effect>
						</filter>
						<link>
							<linkclipref>clipitem-133</linkclipref>
							<mediatype>audio</mediatype>
							<trackindex>1</trackindex>
							<clipindex>2</clipindex>
							<groupindex>1</groupindex>
						</link>
						<link>
							<linkclipref>clipitem-241</linkclipref>
							<mediatype>audio</mediatype>
							<trackindex>2</trackindex>
							<clipindex>2</clipindex>
							<groupindex>1</groupindex>
						</link>
						<logginginfo>
							<description>Rafaela Rosa</description>
							<scene>250506</scene>
							<shottake></shottake>
							<lognote></lognote>
							<good></good>
							<originalvideofilename></originalvideofilename>
							<originalaudiofilename></originalaudiofilename>
						</logginginfo>
						<colorinfo>
							<lut></lut>
							<lut1></lut1>
							<asc_sop></asc_sop>
							<asc_sat></asc_sat>
							<lut2></lut2>
						</colorinfo>
					</clipitem>
					<clipitem id="clipitem-134" premiereChannelType="stereo">
						<masterclipid>masterclip-25</masterclipid>
						<name>250506-T001.WAV</name>
						<enabled>TRUE</enabled>
						<duration>27540</duration>
						<rate>
							<timebase>30</timebase>
							<ntsc>TRUE</ntsc>
						</rate>
						<start>1063</start>
						<end>1472</end>
						<in>7122</in>
						<out>7531</out>
						<pproTicksIn>60363701798400</pproTicksIn>
						<pproTicksOut>63830249683200</pproTicksOut>
						<file id="file-25"/>
						<sourcetrack>
							<mediatype>audio</mediatype>
							<trackindex>1</trackindex>
						</sourcetrack>
						<filter>
							<effect>
								<name>Audio Levels</name>
								<effectid>audiolevels</effectid>
								<effectcategory>audiolevels</effectcategory>
								<effecttype>audiolevels</effecttype>
								<mediatype>audio</mediatype>
								<pproBypass>false</pproBypass>
								<parameter authoringApp="PremierePro">
									<parameterid>level</parameterid>
									<name>Level</name>
									<valuemin>0</valuemin>
									<valuemax>3.98109</valuemax>
									<value>3.16228</value>
								</parameter>
							</effect>
						</filter>
						<link>
							<linkclipref>clipitem-134</linkclipref>
							<mediatype>audio</mediatype>
							<trackindex>1</trackindex>
							<clipindex>3</clipindex>
							<groupindex>1</groupindex>
						</link>
						<link>
							<linkclipref>clipitem-242</linkclipref>
							<mediatype>audio</mediatype>
							<trackindex>2</trackindex>
							<clipindex>3</clipindex>
							<groupindex>1</groupindex>
						</link>
						<logginginfo>
							<description>Rafaela Rosa</description>
							<scene>250506</scene>
							<shottake></shottake>
							<lognote></lognote>
							<good></good>
							<originalvideofilename></originalvideofilename>
							<originalaudiofilename></originalaudiofilename>
						</logginginfo>
						<colorinfo>
							<lut></lut>
							<lut1></lut1>
							<asc_sop></asc_sop>
							<asc_sat></asc_sat>
							<lut2></lut2>
						</colorinfo>
					</clipitem>
					<clipitem id="clipitem-135" premiereChannelType="mono">
						<masterclipid>masterclip-26</masterclipid>
						<name>250513-T001.WAV</name>
						<enabled>TRUE</enabled>
						<duration>68370</duration>
						<rate>
							<timebase>30</timebase>
							<ntsc>TRUE</ntsc>
						</rate>
						<start>1472</start>
						<end>2227</end>
						<in>46528</in>
						<out>47283</out>
						<pproTicksIn>394355843481600</pproTicksIn>
						<pproTicksOut>400754972217600</pproTicksOut>
						<file id="file-26">
							<name>250513-T001.wav</name>
							<pathurl>file://localhost/Volumes/EDDMA_Pos02/EDDMA_02/BRUTAS/CENAS%20CAPTADAS/20250513/AUDIO/250513/250513-T001.wav</pathurl>
							<rate>
								<timebase>30</timebase>
								<ntsc>TRUE</ntsc>
							</rate>
							<duration>68370</duration>
							<timecode>
								<rate>
									<timebase>30</timebase>
									<ntsc>TRUE</ntsc>
								</rate>
								<string>09;50;47;12</string>
								<frame>1062360</frame>
								<displayformat>DF</displayformat>
								<reel>
									<name>250513</name>
								</reel>
							</timecode>
							<media>
								<audio>
									<samplecharacteristics>
										<depth>16</depth>
										<samplerate>48000</samplerate>
									</samplecharacteristics>
									<channelcount>1</channelcount>
									<audiochannel>
										<sourcechannel>1</sourcechannel>
									</audiochannel>
								</audio>
								<audio>
									<samplecharacteristics>
										<depth>16</depth>
										<samplerate>48000</samplerate>
									</samplecharacteristics>
									<channelcount>1</channelcount>
									<audiochannel>
										<sourcechannel>2</sourcechannel>
									</audiochannel>
								</audio>
								<audio>
									<samplecharacteristics>
										<depth>16</depth>
										<samplerate>48000</samplerate>
									</samplecharacteristics>
									<channelcount>1</channelcount>
									<audiochannel>
										<sourcechannel>3</sourcechannel>
									</audiochannel>
								</audio>
							</media>
						</file>
						<sourcetrack>
							<mediatype>audio</mediatype>
							<trackindex>1</trackindex>
						</sourcetrack>
						<filter>
							<effect>
								<name>Audio Levels</name>
								<effectid>audiolevels</effectid>
								<effectcategory>audiolevels</effectcategory>
								<effecttype>audiolevels</effecttype>
								<mediatype>audio</mediatype>
								<pproBypass>false</pproBypass>
								<parameter authoringApp="PremierePro">
									<parameterid>level</parameterid>
									<name>Level</name>
									<valuemin>0</valuemin>
									<valuemax>3.98109</valuemax>
									<value>3.98109</value>
								</parameter>
							</effect>
						</filter>
						<logginginfo>
							<description></description>
							<scene>250513</scene>
							<shottake></shottake>
							<lognote></lognote>
							<good></good>
							<originalvideofilename></originalvideofilename>
							<originalaudiofilename></originalaudiofilename>
						</logginginfo>
						<colorinfo>
							<lut></lut>
							<lut1></lut1>
							<asc_sop></asc_sop>
							<asc_sat></asc_sat>
							<lut2></lut2>
						</colorinfo>
						<labels>
							<label2>Lavender</label2>
						</labels>
					</clipitem>
					<clipitem id="clipitem-136" premiereChannelType="mono">
						<masterclipid>masterclip-26</masterclipid>
						<name>250513-T001.WAV</name>
						<enabled>TRUE</enabled>
						<duration>68370</duration>
						<rate>
							<timebase>30</timebase>
							<ntsc>TRUE</ntsc>
						</rate>
						<start>2227</start>
						<end>2625</end>
						<in>43636</in>
						<out>44034</out>
						<pproTicksIn>369844213939200</pproTicksIn>
						<pproTicksOut>373217529484800</pproTicksOut>
						<file id="file-26"/>
						<sourcetrack>
							<mediatype>audio</mediatype>
							<trackindex>1</trackindex>
						</sourcetrack>
						<filter>
							<effect>
								<name>Audio Levels</name>
								<effectid>audiolevels</effectid>
								<effectcategory>audiolevels</effectcategory>
								<effecttype>audiolevels</effecttype>
								<mediatype>audio</mediatype>
								<pproBypass>false</pproBypass>
								<parameter authoringApp="PremierePro">
									<parameterid>level</parameterid>
									<name>Level</name>
									<valuemin>0</valuemin>
									<valuemax>3.98109</valuemax>
									<value>3.98109</value>
								</parameter>
							</effect>
						</filter>
						<logginginfo>
							<description></description>
							<scene>250513</scene>
							<shottake></shottake>
							<lognote></lognote>
							<good></good>
							<originalvideofilename></originalvideofilename>
							<originalaudiofilename></originalaudiofilename>
						</logginginfo>
						<colorinfo>
							<lut></lut>
							<lut1></lut1>
							<asc_sop></asc_sop>
							<asc_sat></asc_sat>
							<lut2></lut2>
						</colorinfo>
						<labels>
							<label2>Lavender</label2>
						</labels>
					</clipitem>
					<clipitem id="clipitem-137" premiereChannelType="stereo">
						<masterclipid>masterclip-27</masterclipid>
						<name>250513-T004.WAV</name>
						<enabled>TRUE</enabled>
						<duration>22380</duration>
						<rate>
							<timebase>30</timebase>
							<ntsc>TRUE</ntsc>
						</rate>
						<start>2625</start>
						<end>2961</end>
						<in>3848</in>
						<out>4184</out>
						<pproTicksIn>32614367385600</pproTicksIn>
						<pproTicksOut>35462191564800</pproTicksOut>
						<file id="file-27">
							<name>250513-T004.wav</name>
							<pathurl>file://localhost/Volumes/EDDMA_Pos02/EDDMA_02/BRUTAS/CENAS%20CAPTADAS/20250513/AUDIO/250513/250513-T004.wav</pathurl>
							<rate>
								<timebase>30</timebase>
								<ntsc>TRUE</ntsc>
							</rate>
							<duration>22380</duration>
							<timecode>
								<rate>
									<timebase>30</timebase>
									<ntsc>TRUE</ntsc>
								</rate>
								<string>14;01;13;14</string>
								<frame>1512690</frame>
								<displayformat>DF</displayformat>
								<reel>
									<name>250513</name>
								</reel>
							</timecode>
							<media>
								<audio>
									<samplecharacteristics>
										<depth>16</depth>
										<samplerate>48000</samplerate>
									</samplecharacteristics>
									<channelcount>2</channelcount>
								</audio>
							</media>
						</file>
						<sourcetrack>
							<mediatype>audio</mediatype>
							<trackindex>1</trackindex>
						</sourcetrack>
						<link>
							<linkclipref>clipitem-137</linkclipref>
							<mediatype>audio</mediatype>
							<trackindex>1</trackindex>
							<clipindex>6</clipindex>
							<groupindex>1</groupindex>
						</link>
						<link>
							<linkclipref>clipitem-243</linkclipref>
							<mediatype>audio</mediatype>
							<trackindex>2</trackindex>
							<clipindex>4</clipindex>
							<groupindex>1</groupindex>
						</link>
						<logginginfo>
							<description>Adão Oliveira</description>
							<scene>250513</scene>
							<shottake></shottake>
							<lognote></lognote>
							<good></good>
							<originalvideofilename></originalvideofilename>
							<originalaudiofilename></originalaudiofilename>
						</logginginfo>
						<colorinfo>
							<lut></lut>
							<lut1></lut1>
							<asc_sop></asc_sop>
							<asc_sat></asc_sat>
							<lut2></lut2>
						</colorinfo>
						<labels>
							<label2>Caribbean</label2>
						</labels>
					</clipitem>
					<clipitem id="clipitem-138" premiereChannelType="stereo">
						<masterclipid>masterclip-27</masterclipid>
						<name>250513-T004.WAV</name>
						<enabled>TRUE</enabled>
						<duration>22380</duration>
						<rate>
							<timebase>30</timebase>
							<ntsc>TRUE</ntsc>
						</rate>
						<start>2961</start>
						<end>3274</end>
						<in>2192</in>
						<out>2505</out>
						<pproTicksIn>18578662502400</pproTicksIn>
						<pproTicksOut>21231546336000</pproTicksOut>
						<file id="file-27"/>
						<sourcetrack>
							<mediatype>audio</mediatype>
							<trackindex>1</trackindex>
						</sourcetrack>
						<link>
							<linkclipref>clipitem-138</linkclipref>
							<mediatype>audio</mediatype>
							<trackindex>1</trackindex>
							<clipindex>7</clipindex>
							<groupindex>1</groupindex>
						</link>
						<link>
							<linkclipref>clipitem-244</linkclipref>
							<mediatype>audio</mediatype>
							<trackindex>2</trackindex>
							<clipindex>5</clipindex>
							<groupindex>1</groupindex>
						</link>
						<logginginfo>
							<description>Adão Oliveira</description>
							<scene>250513</scene>
							<shottake></shottake>
							<lognote></lognote>
							<good></good>
							<originalvideofilename></originalvideofilename>
							<originalaudiofilename></originalaudiofilename>
						</logginginfo>
						<colorinfo>
							<lut></lut>
							<lut1></lut1>
							<asc_sop></asc_sop>
							<asc_sat></asc_sat>
							<lut2></lut2>
						</colorinfo>
						<labels>
							<label2>Caribbean</label2>
						</labels>
					</clipitem>
					<clipitem id="clipitem-139" premiereChannelType="mono">
						<masterclipid>masterclip-26</masterclipid>
						<name>250513-T001.WAV</name>
						<enabled>TRUE</enabled>
						<duration>68370</duration>
						<rate>
							<timebase>30</timebase>
							<ntsc>TRUE</ntsc>
						</rate>
						<start>3274</start>
						<end>3784</end>
						<in>15873</in>
						<out>16383</out>
						<pproTicksIn>134534265465600</pproTicksIn>
						<pproTicksOut>138856855737600</pproTicksOut>
						<file id="file-26"/>
						<sourcetrack>
							<mediatype>audio</mediatype>
							<trackindex>1</trackindex>
						</sourcetrack>
						<filter>
							<effect>
								<name>Audio Levels</name>
								<effectid>audiolevels</effectid>
								<effectcategory>audiolevels</effectcategory>
								<effecttype>audiolevels</effecttype>
								<mediatype>audio</mediatype>
								<pproBypass>false</pproBypass>
								<parameter authoringApp="PremierePro">
									<parameterid>level</parameterid>
									<name>Level</name>
									<valuemin>0</valuemin>
									<valuemax>3.98109</valuemax>
									<value>3.98109</value>
								</parameter>
							</effect>
						</filter>
						<logginginfo>
							<description></description>
							<scene>250513</scene>
							<shottake></shottake>
							<lognote></lognote>
							<good></good>
							<originalvideofilename></originalvideofilename>
							<originalaudiofilename></originalaudiofilename>
						</logginginfo>
						<colorinfo>
							<lut></lut>
							<lut1></lut1>
							<asc_sop></asc_sop>
							<asc_sat></asc_sat>
							<lut2></lut2>
						</colorinfo>
						<labels>
							<label2>Lavender</label2>
						</labels>
					</clipitem>
					<clipitem id="clipitem-140" premiereChannelType="mono">
						<masterclipid>masterclip-26</masterclipid>
						<name>250513-T001.WAV</name>
						<enabled>TRUE</enabled>
						<duration>68370</duration>
						<rate>
							<timebase>30</timebase>
							<ntsc>TRUE</ntsc>
						</rate>
						<start>3784</start>
						<end>4122</end>
						<in>17887</in>
						<out>18225</out>
						<pproTicksIn>151604259206400</pproTicksIn>
						<pproTicksOut>154469034720000</pproTicksOut>
						<file id="file-26"/>
						<sourcetrack>
							<mediatype>audio</mediatype>
							<trackindex>1</trackindex>
						</sourcetrack>
						<filter>
							<effect>
								<name>Audio Levels</name>
								<effectid>audiolevels</effectid>
								<effectcategory>audiolevels</effectcategory>
								<effecttype>audiolevels</effecttype>
								<mediatype>audio</mediatype>
								<pproBypass>false</pproBypass>
								<parameter authoringApp="PremierePro">
									<parameterid>level</parameterid>
									<name>Level</name>
									<valuemin>0</valuemin>
									<valuemax>3.98109</valuemax>
									<value>3.98109</value>
								</parameter>
							</effect>
						</filter>
						<logginginfo>
							<description></description>
							<scene>250513</scene>
							<shottake></shottake>
							<lognote></lognote>
							<good></good>
							<originalvideofilename></originalvideofilename>
							<originalaudiofilename></originalaudiofilename>
						</logginginfo>
						<colorinfo>
							<lut></lut>
							<lut1></lut1>
							<asc_sop></asc_sop>
							<asc_sat></asc_sat>
							<lut2></lut2>
						</colorinfo>
						<labels>
							<label2>Lavender</label2>
						</labels>
					</clipitem>
					<clipitem id="clipitem-141" premiereChannelType="mono">
						<masterclipid>masterclip-26</masterclipid>
						<name>250513-T001.WAV</name>
						<enabled>TRUE</enabled>
						<duration>68370</duration>
						<rate>
							<timebase>30</timebase>
							<ntsc>TRUE</ntsc>
						</rate>
						<start>4122</start>
						<end>4222</end>
						<in>62607</in>
						<out>62707</out>
						<pproTicksIn>530636096390400</pproTicksIn>
						<pproTicksOut>531483663110400</pproTicksOut>
						<file id="file-26"/>
						<sourcetrack>
							<mediatype>audio</mediatype>
							<trackindex>1</trackindex>
						</sourcetrack>
						<filter>
							<effect>
								<name>Audio Levels</name>
								<effectid>audiolevels</effectid>
								<effectcategory>audiolevels</effectcategory>
								<effecttype>audiolevels</effecttype>
								<mediatype>audio</mediatype>
								<pproBypass>false</pproBypass>
								<parameter authoringApp="PremierePro">
									<parameterid>level</parameterid>
									<name>Level</name>
									<valuemin>0</valuemin>
									<valuemax>3.98109</valuemax>
									<value>3.98109</value>
								</parameter>
							</effect>
						</filter>
						<logginginfo>
							<description></description>
							<scene>250513</scene>
							<shottake></shottake>
							<lognote></lognote>
							<good></good>
							<originalvideofilename></originalvideofilename>
							<originalaudiofilename></originalaudiofilename>
						</logginginfo>
						<colorinfo>
							<lut></lut>
							<lut1></lut1>
							<asc_sop></asc_sop>
							<asc_sat></asc_sat>
							<lut2></lut2>
						</colorinfo>
						<labels>
							<label2>Lavender</label2>
						</labels>
					</clipitem>
					<clipitem id="clipitem-142" premiereChannelType="mono">
						<masterclipid>masterclip-26</masterclipid>
						<name>250513-T001.WAV</name>
						<enabled>TRUE</enabled>
						<duration>68370</duration>
						<rate>
							<timebase>30</timebase>
							<ntsc>TRUE</ntsc>
						</rate>
						<start>4222</start>
						<end>4386</end>
						<in>65702</in>
						<out>65866</out>
						<pproTicksIn>556868286374400</pproTicksIn>
						<pproTicksOut>558258295795200</pproTicksOut>
						<file id="file-26"/>
						<sourcetrack>
							<mediatype>audio</mediatype>
							<trackindex>1</trackindex>
						</sourcetrack>
						<filter>
							<effect>
								<name>Audio Levels</name>
								<effectid>audiolevels</effectid>
								<effectcategory>audiolevels</effectcategory>
								<effecttype>audiolevels</effecttype>
								<mediatype>audio</mediatype>
								<pproBypass>false</pproBypass>
								<parameter authoringApp="PremierePro">
									<parameterid>level</parameterid>
									<name>Level</name>
									<valuemin>0</valuemin>
									<valuemax>3.98109</valuemax>
									<value>3.98109</value>
								</parameter>
							</effect>
						</filter>
						<logginginfo>
							<description></description>
							<scene>250513</scene>
							<shottake></shottake>
							<lognote></lognote>
							<good></good>
							<originalvideofilename></originalvideofilename>
							<originalaudiofilename></originalaudiofilename>
						</logginginfo>
						<colorinfo>
							<lut></lut>
							<lut1></lut1>
							<asc_sop></asc_sop>
							<asc_sat></asc_sat>
							<lut2></lut2>
						</colorinfo>
						<labels>
							<label2>Lavender</label2>
						</labels>
					</clipitem>
					<clipitem id="clipitem-143" premiereChannelType="mono">
						<masterclipid>masterclip-26</masterclipid>
						<name>250513-T001.WAV</name>
						<enabled>TRUE</enabled>
						<duration>68370</duration>
						<rate>
							<timebase>30</timebase>
							<ntsc>TRUE</ntsc>
						</rate>
						<start>4386</start>
						<end>4807</end>
						<in>27771</in>
						<out>28192</out>
						<pproTicksIn>235377753811200</pproTicksIn>
						<pproTicksOut>238946009702400</pproTicksOut>
						<file id="file-26"/>
						<sourcetrack>
							<mediatype>audio</mediatype>
							<trackindex>1</trackindex>
						</sourcetrack>
						<filter>
							<effect>
								<name>Audio Levels</name>
								<effectid>audiolevels</effectid>
								<effectcategory>audiolevels</effectcategory>
								<effecttype>audiolevels</effecttype>
								<mediatype>audio</mediatype>
								<pproBypass>false</pproBypass>
								<parameter authoringApp="PremierePro">
									<parameterid>level</parameterid>
									<name>Level</name>
									<valuemin>0</valuemin>
									<valuemax>3.98109</valuemax>
									<value>3.98109</value>
								</parameter>
							</effect>
						</filter>
						<logginginfo>
							<description></description>
							<scene>250513</scene>
							<shottake></shottake>
							<lognote></lognote>
							<good></good>
							<originalvideofilename></originalvideofilename>
							<originalaudiofilename></originalaudiofilename>
						</logginginfo>
						<colorinfo>
							<lut></lut>
							<lut1></lut1>
							<asc_sop></asc_sop>
							<asc_sat></asc_sat>
							<lut2></lut2>
						</colorinfo>
						<labels>
							<label2>Lavender</label2>
						</labels>
					</clipitem>
					<clipitem id="clipitem-144" premiereChannelType="mono">
						<masterclipid>masterclip-26</masterclipid>
						<name>250513-T001.WAV</name>
						<enabled>TRUE</enabled>
						<duration>68370</duration>
						<rate>
							<timebase>30</timebase>
							<ntsc>TRUE</ntsc>
						</rate>
						<start>4807</start>
						<end>4982</end>
						<in>28332</in>
						<out>28507</out>
						<pproTicksIn>240132603110400</pproTicksIn>
						<pproTicksOut>241615844870400</pproTicksOut>
						<file id="file-26"/>
						<sourcetrack>
							<mediatype>audio</mediatype>
							<trackindex>1</trackindex>
						</sourcetrack>
						<filter>
							<effect>
								<name>Audio Levels</name>
								<effectid>audiolevels</effectid>
								<effectcategory>audiolevels</effectcategory>
								<effecttype>audiolevels</effecttype>
								<mediatype>audio</mediatype>
								<pproBypass>false</pproBypass>
								<parameter authoringApp="PremierePro">
									<parameterid>level</parameterid>
									<name>Level</name>
									<valuemin>0</valuemin>
									<valuemax>3.98109</valuemax>
									<value>3.98109</value>
								</parameter>
							</effect>
						</filter>
						<logginginfo>
							<description></description>
							<scene>250513</scene>
							<shottake></shottake>
							<lognote></lognote>
							<good></good>
							<originalvideofilename></originalvideofilename>
							<originalaudiofilename></originalaudiofilename>
						</logginginfo>
						<colorinfo>
							<lut></lut>
							<lut1></lut1>
							<asc_sop></asc_sop>
							<asc_sat></asc_sat>
							<lut2></lut2>
						</colorinfo>
						<labels>
							<label2>Lavender</label2>
						</labels>
					</clipitem>
					<clipitem id="clipitem-145" premiereChannelType="mono">
						<masterclipid>masterclip-26</masterclipid>
						<name>250513-T001.WAV</name>
						<enabled>TRUE</enabled>
						<duration>68370</duration>
						<rate>
							<timebase>30</timebase>
							<ntsc>TRUE</ntsc>
						</rate>
						<start>4982</start>
						<end>5346</end>
						<in>28832</in>
						<out>29196</out>
						<pproTicksIn>244370436710400</pproTicksIn>
						<pproTicksOut>247455579571200</pproTicksOut>
						<file id="file-26"/>
						<sourcetrack>
							<mediatype>audio</mediatype>
							<trackindex>1</trackindex>
						</sourcetrack>
						<filter>
							<effect>
								<name>Audio Levels</name>
								<effectid>audiolevels</effectid>
								<effectcategory>audiolevels</effectcategory>
								<effecttype>audiolevels</effecttype>
								<mediatype>audio</mediatype>
								<pproBypass>false</pproBypass>
								<parameter authoringApp="PremierePro">
									<parameterid>level</parameterid>
									<name>Level</name>
									<valuemin>0</valuemin>
									<valuemax>3.98109</valuemax>
									<value>3.98109</value>
								</parameter>
							</effect>
						</filter>
						<logginginfo>
							<description></description>
							<scene>250513</scene>
							<shottake></shottake>
							<lognote></lognote>
							<good></good>
							<originalvideofilename></originalvideofilename>
							<originalaudiofilename></originalaudiofilename>
						</logginginfo>
						<colorinfo>
							<lut></lut>
							<lut1></lut1>
							<asc_sop></asc_sop>
							<asc_sat></asc_sat>
							<lut2></lut2>
						</colorinfo>
						<labels>
							<label2>Lavender</label2>
						</labels>
					</clipitem>
					<clipitem id="clipitem-146" premiereChannelType="stereo">
						<masterclipid>masterclip-27</masterclipid>
						<name>250513-T004.WAV</name>
						<enabled>TRUE</enabled>
						<duration>22380</duration>
						<rate>
							<timebase>30</timebase>
							<ntsc>TRUE</ntsc>
						</rate>
						<start>5346</start>
						<end>5689</end>
						<in>4948</in>
						<out>5291</out>
						<pproTicksIn>41937601305600</pproTicksIn>
						<pproTicksOut>44844755155200</pproTicksOut>
						<file id="file-27"/>
						<sourcetrack>
							<mediatype>audio</mediatype>
							<trackindex>1</trackindex>
						</sourcetrack>
						<link>
							<linkclipref>clipitem-146</linkclipref>
							<mediatype>audio</mediatype>
							<trackindex>1</trackindex>
							<clipindex>15</clipindex>
							<groupindex>1</groupindex>
						</link>
						<link>
							<linkclipref>clipitem-245</linkclipref>
							<mediatype>audio</mediatype>
							<trackindex>2</trackindex>
							<clipindex>6</clipindex>
							<groupindex>1</groupindex>
						</link>
						<logginginfo>
							<description>Adão Oliveira</description>
							<scene>250513</scene>
							<shottake></shottake>
							<lognote></lognote>
							<good></good>
							<originalvideofilename></originalvideofilename>
							<originalaudiofilename></originalaudiofilename>
						</logginginfo>
						<colorinfo>
							<lut></lut>
							<lut1></lut1>
							<asc_sop></asc_sop>
							<asc_sat></asc_sat>
							<lut2></lut2>
						</colorinfo>
						<labels>
							<label2>Caribbean</label2>
						</labels>
					</clipitem>
					<clipitem id="clipitem-147" premiereChannelType="stereo">
						<masterclipid>masterclip-27</masterclipid>
						<name>250513-T004.WAV</name>
						<enabled>TRUE</enabled>
						<duration>22380</duration>
						<rate>
							<timebase>30</timebase>
							<ntsc>TRUE</ntsc>
						</rate>
						<start>5689</start>
						<end>5866</end>
						<in>8294</in>
						<out>8471</out>
						<pproTicksIn>70297183756800</pproTicksIn>
						<pproTicksOut>71797376851200</pproTicksOut>
						<file id="file-27"/>
						<sourcetrack>
							<mediatype>audio</mediatype>
							<trackindex>1</trackindex>
						</sourcetrack>
						<link>
							<linkclipref>clipitem-147</linkclipref>
							<mediatype>audio</mediatype>
							<trackindex>1</trackindex>
							<clipindex>16</clipindex>
							<groupindex>1</groupindex>
						</link>
						<link>
							<linkclipref>clipitem-246</linkclipref>
							<mediatype>audio</mediatype>
							<trackindex>2</trackindex>
							<clipindex>7</clipindex>
							<groupindex>1</groupindex>
						</link>
						<logginginfo>
							<description>Adão Oliveira</description>
							<scene>250513</scene>
							<shottake></shottake>
							<lognote></lognote>
							<good></good>
							<originalvideofilename></originalvideofilename>
							<originalaudiofilename></originalaudiofilename>
						</logginginfo>
						<colorinfo>
							<lut></lut>
							<lut1></lut1>
							<asc_sop></asc_sop>
							<asc_sat></asc_sat>
							<lut2></lut2>
						</colorinfo>
						<labels>
							<label2>Caribbean</label2>
						</labels>
					</clipitem>
					<clipitem id="clipitem-148" premiereChannelType="mono">
						<masterclipid>masterclip-26</masterclipid>
						<name>250513-T001.WAV</name>
						<enabled>TRUE</enabled>
						<duration>68370</duration>
						<rate>
							<timebase>30</timebase>
							<ntsc>TRUE</ntsc>
						</rate>
						<start>5866</start>
						<end>6415</end>
						<in>54639</in>
						<out>55188</out>
						<pproTicksIn>463101980140800</pproTicksIn>
						<pproTicksOut>467755121433600</pproTicksOut>
						<file id="file-26"/>
						<sourcetrack>
							<mediatype>audio</mediatype>
							<trackindex>1</trackindex>
						</sourcetrack>
						<filter>
							<effect>
								<name>Audio Levels</name>
								<effectid>audiolevels</effectid>
								<effectcategory>audiolevels</effectcategory>
								<effecttype>audiolevels</effecttype>
								<mediatype>audio</mediatype>
								<pproBypass>false</pproBypass>
								<parameter authoringApp="PremierePro">
									<parameterid>level</parameterid>
									<name>Level</name>
									<valuemin>0</valuemin>
									<valuemax>3.98109</valuemax>
									<value>3.98109</value>
								</parameter>
							</effect>
						</filter>
						<logginginfo>
							<description></description>
							<scene>250513</scene>
							<shottake></shottake>
							<lognote></lognote>
							<good></good>
							<originalvideofilename></originalvideofilename>
							<originalaudiofilename></originalaudiofilename>
						</logginginfo>
						<colorinfo>
							<lut></lut>
							<lut1></lut1>
							<asc_sop></asc_sop>
							<asc_sat></asc_sat>
							<lut2></lut2>
						</colorinfo>
						<labels>
							<label2>Lavender</label2>
						</labels>
					</clipitem>
					<clipitem id="clipitem-149" premiereChannelType="stereo">
						<masterclipid>masterclip-28</masterclipid>
						<name>250515-T014.WAV</name>
						<enabled>TRUE</enabled>
						<duration>84540</duration>
						<rate>
							<timebase>30</timebase>
							<ntsc>TRUE</ntsc>
						</rate>
						<start>6415</start>
						<end>7038</end>
						<in>6075</in>
						<out>6698</out>
						<pproTicksIn>51489678240000</pproTicksIn>
						<pproTicksOut>56770018905600</pproTicksOut>
						<file id="file-28">
							<name>250515-T014.wav</name>
							<pathurl>file://localhost/Volumes/EDDMA_Pos02/EDDMA_02/BRUTAS/CENAS%20CAPTADAS/20250515_01de02/AUDIO/250515/250515-T014.wav</pathurl>
							<rate>
								<timebase>30</timebase>
								<ntsc>TRUE</ntsc>
							</rate>
							<duration>84540</duration>
							<timecode>
								<rate>
									<timebase>30</timebase>
									<ntsc>TRUE</ntsc>
								</rate>
								<string>16;08;30;04</string>
								<frame>1741560</frame>
								<displayformat>DF</displayformat>
								<reel>
									<name>250515</name>
								</reel>
							</timecode>
							<media>
								<audio>
									<samplecharacteristics>
										<depth>16</depth>
										<samplerate>48000</samplerate>
									</samplecharacteristics>
									<channelcount>2</channelcount>
								</audio>
							</media>
						</file>
						<sourcetrack>
							<mediatype>audio</mediatype>
							<trackindex>1</trackindex>
						</sourcetrack>
						<link>
							<linkclipref>clipitem-149</linkclipref>
							<mediatype>audio</mediatype>
							<trackindex>1</trackindex>
							<clipindex>18</clipindex>
							<groupindex>1</groupindex>
						</link>
						<link>
							<linkclipref>clipitem-247</linkclipref>
							<mediatype>audio</mediatype>
							<trackindex>2</trackindex>
							<clipindex>8</clipindex>
							<groupindex>1</groupindex>
						</link>
						<logginginfo>
							<description></description>
							<scene>250515</scene>
							<shottake></shottake>
							<lognote></lognote>
							<good></good>
							<originalvideofilename></originalvideofilename>
							<originalaudiofilename></originalaudiofilename>
						</logginginfo>
						<colorinfo>
							<lut></lut>
							<lut1></lut1>
							<asc_sop></asc_sop>
							<asc_sat></asc_sat>
							<lut2></lut2>
						</colorinfo>
						<labels>
							<label2>Caribbean</label2>
						</labels>
					</clipitem>
					<clipitem id="clipitem-150" premiereChannelType="stereo">
						<masterclipid>masterclip-28</masterclipid>
						<name>250515-T014.WAV</name>
						<enabled>TRUE</enabled>
						<duration>84540</duration>
						<rate>
							<timebase>30</timebase>
							<ntsc>TRUE</ntsc>
						</rate>
						<start>7038</start>
						<end>7129</end>
						<in>2439</in>
						<out>2530</out>
						<pproTicksIn>20672152300800</pproTicksIn>
						<pproTicksOut>21443438016000</pproTicksOut>
						<file id="file-28"/>
						<sourcetrack>
							<mediatype>audio</mediatype>
							<trackindex>1</trackindex>
						</sourcetrack>
						<link>
							<linkclipref>clipitem-150</linkclipref>
							<mediatype>audio</mediatype>
							<trackindex>1</trackindex>
							<clipindex>19</clipindex>
							<groupindex>1</groupindex>
						</link>
						<link>
							<linkclipref>clipitem-248</linkclipref>
							<mediatype>audio</mediatype>
							<trackindex>2</trackindex>
							<clipindex>9</clipindex>
							<groupindex>1</groupindex>
						</link>
						<logginginfo>
							<description></description>
							<scene>250515</scene>
							<shottake></shottake>
							<lognote></lognote>
							<good></good>
							<originalvideofilename></originalvideofilename>
							<originalaudiofilename></originalaudiofilename>
						</logginginfo>
						<colorinfo>
							<lut></lut>
							<lut1></lut1>
							<asc_sop></asc_sop>
							<asc_sat></asc_sat>
							<lut2></lut2>
						</colorinfo>
						<labels>
							<label2>Caribbean</label2>
						</labels>
					</clipitem>
					<clipitem id="clipitem-151" premiereChannelType="stereo">
						<masterclipid>masterclip-28</masterclipid>
						<name>250515-T014.WAV</name>
						<enabled>TRUE</enabled>
						<duration>84540</duration>
						<rate>
							<timebase>30</timebase>
							<ntsc>TRUE</ntsc>
						</rate>
						<start>7129</start>
						<end>7403</end>
						<in>6698</in>
						<out>6972</out>
						<pproTicksIn>56770018905600</pproTicksIn>
						<pproTicksOut>59092351718400</pproTicksOut>
						<file id="file-28"/>
						<sourcetrack>
							<mediatype>audio</mediatype>
							<trackindex>1</trackindex>
						</sourcetrack>
						<link>
							<linkclipref>clipitem-151</linkclipref>
							<mediatype>audio</mediatype>
							<trackindex>1</trackindex>
							<clipindex>20</clipindex>
							<groupindex>1</groupindex>
						</link>
						<link>
							<linkclipref>clipitem-249</linkclipref>
							<mediatype>audio</mediatype>
							<trackindex>2</trackindex>
							<clipindex>10</clipindex>
							<groupindex>1</groupindex>
						</link>
						<logginginfo>
							<description></description>
							<scene>250515</scene>
							<shottake></shottake>
							<lognote></lognote>
							<good></good>
							<originalvideofilename></originalvideofilename>
							<originalaudiofilename></originalaudiofilename>
						</logginginfo>
						<colorinfo>
							<lut></lut>
							<lut1></lut1>
							<asc_sop></asc_sop>
							<asc_sat></asc_sat>
							<lut2></lut2>
						</colorinfo>
						<labels>
							<label2>Caribbean</label2>
						</labels>
					</clipitem>
					<clipitem id="clipitem-152" premiereChannelType="stereo">
						<masterclipid>masterclip-28</masterclipid>
						<name>250515-T014.WAV</name>
						<enabled>TRUE</enabled>
						<duration>84540</duration>
						<rate>
							<timebase>30</timebase>
							<ntsc>TRUE</ntsc>
						</rate>
						<start>7403</start>
						<end>7655</end>
						<in>6972</in>
						<out>7224</out>
						<pproTicksIn>59092351718400</pproTicksIn>
						<pproTicksOut>61228219852800</pproTicksOut>
						<file id="file-28"/>
						<sourcetrack>
							<mediatype>audio</mediatype>
							<trackindex>1</trackindex>
						</sourcetrack>
						<link>
							<linkclipref>clipitem-152</linkclipref>
							<mediatype>audio</mediatype>
							<trackindex>1</trackindex>
							<clipindex>21</clipindex>
							<groupindex>1</groupindex>
						</link>
						<link>
							<linkclipref>clipitem-250</linkclipref>
							<mediatype>audio</mediatype>
							<trackindex>2</trackindex>
							<clipindex>11</clipindex>
							<groupindex>1</groupindex>
						</link>
						<logginginfo>
							<description></description>
							<scene>250515</scene>
							<shottake></shottake>
							<lognote></lognote>
							<good></good>
							<originalvideofilename></originalvideofilename>
							<originalaudiofilename></originalaudiofilename>
						</logginginfo>
						<colorinfo>
							<lut></lut>
							<lut1></lut1>
							<asc_sop></asc_sop>
							<asc_sat></asc_sat>
							<lut2></lut2>
						</colorinfo>
						<labels>
							<label2>Caribbean</label2>
						</labels>
					</clipitem>
					<clipitem id="clipitem-153" premiereChannelType="stereo">
						<masterclipid>masterclip-29</masterclipid>
						<name>250512-T010.WAV</name>
						<enabled>TRUE</enabled>
						<duration>32520</duration>
						<rate>
							<timebase>30</timebase>
							<ntsc>TRUE</ntsc>
						</rate>
						<start>7655</start>
						<end>8018</end>
						<in>16926</in>
						<out>17289</out>
						<pproTicksIn>143459143027200</pproTicksIn>
						<pproTicksOut>146535810220800</pproTicksOut>
						<file id="file-29">
							<name>250512-T010.wav</name>
							<pathurl>file://localhost/Volumes/EDDMA_Pos02/EDDMA_02/BRUTAS/CENAS%20CAPTADAS/20250512/AUDIO/250512/250512-T010.wav</pathurl>
							<rate>
								<timebase>30</timebase>
								<ntsc>TRUE</ntsc>
							</rate>
							<duration>32520</duration>
							<timecode>
								<rate>
									<timebase>30</timebase>
									<ntsc>TRUE</ntsc>
								</rate>
								<string>14;25;20;28</string>
								<frame>1556070</frame>
								<displayformat>DF</displayformat>
								<reel>
									<name>250512(1)</name>
								</reel>
							</timecode>
							<media>
								<audio>
									<samplecharacteristics>
										<depth>16</depth>
										<samplerate>48000</samplerate>
									</samplecharacteristics>
									<channelcount>2</channelcount>
								</audio>
							</media>
						</file>
						<sourcetrack>
							<mediatype>audio</mediatype>
							<trackindex>1</trackindex>
						</sourcetrack>
						<filter>
							<effect>
								<name>Audio Levels</name>
								<effectid>audiolevels</effectid>
								<effectcategory>audiolevels</effectcategory>
								<effecttype>audiolevels</effecttype>
								<mediatype>audio</mediatype>
								<pproBypass>false</pproBypass>
								<parameter authoringApp="PremierePro">
									<parameterid>level</parameterid>
									<name>Level</name>
									<valuemin>0</valuemin>
									<valuemax>3.98109</valuemax>
									<value>3.16228</value>
								</parameter>
							</effect>
						</filter>
						<link>
							<linkclipref>clipitem-153</linkclipref>
							<mediatype>audio</mediatype>
							<trackindex>1</trackindex>
							<clipindex>22</clipindex>
							<groupindex>1</groupindex>
						</link>
						<link>
							<linkclipref>clipitem-251</linkclipref>
							<mediatype>audio</mediatype>
							<trackindex>2</trackindex>
							<clipindex>12</clipindex>
							<groupindex>1</groupindex>
						</link>
						<logginginfo>
							<description></description>
							<scene>250512</scene>
							<shottake></shottake>
							<lognote></lognote>
							<good></good>
							<originalvideofilename></originalvideofilename>
							<originalaudiofilename></originalaudiofilename>
						</logginginfo>
						<colorinfo>
							<lut></lut>
							<lut1></lut1>
							<asc_sop></asc_sop>
							<asc_sat></asc_sat>
							<lut2></lut2>
						</colorinfo>
						<labels>
							<label2>Caribbean</label2>
						</labels>
					</clipitem>
					<clipitem id="clipitem-154" premiereChannelType="stereo">
						<masterclipid>masterclip-29</masterclipid>
						<name>250512-T010.WAV</name>
						<enabled>TRUE</enabled>
						<duration>32520</duration>
						<rate>
							<timebase>30</timebase>
							<ntsc>TRUE</ntsc>
						</rate>
						<start>8018</start>
						<end>8608</end>
						<in>17342</in>
						<out>17932</out>
						<pproTicksIn>146985020582400</pproTicksIn>
						<pproTicksOut>151985664230400</pproTicksOut>
						<file id="file-29"/>
						<sourcetrack>
							<mediatype>audio</mediatype>
							<trackindex>1</trackindex>
						</sourcetrack>
						<filter>
							<effect>
								<name>Audio Levels</name>
								<effectid>audiolevels</effectid>
								<effectcategory>audiolevels</effectcategory>
								<effecttype>audiolevels</effecttype>
								<mediatype>audio</mediatype>
								<pproBypass>false</pproBypass>
								<parameter authoringApp="PremierePro">
									<parameterid>level</parameterid>
									<name>Level</name>
									<valuemin>0</valuemin>
									<valuemax>3.98109</valuemax>
									<value>3.16228</value>
								</parameter>
							</effect>
						</filter>
						<link>
							<linkclipref>clipitem-154</linkclipref>
							<mediatype>audio</mediatype>
							<trackindex>1</trackindex>
							<clipindex>23</clipindex>
							<groupindex>1</groupindex>
						</link>
						<link>
							<linkclipref>clipitem-252</linkclipref>
							<mediatype>audio</mediatype>
							<trackindex>2</trackindex>
							<clipindex>13</clipindex>
							<groupindex>1</groupindex>
						</link>
						<logginginfo>
							<description></description>
							<scene>250512</scene>
							<shottake></shottake>
							<lognote></lognote>
							<good></good>
							<originalvideofilename></originalvideofilename>
							<originalaudiofilename></originalaudiofilename>
						</logginginfo>
						<colorinfo>
							<lut></lut>
							<lut1></lut1>
							<asc_sop></asc_sop>
							<asc_sat></asc_sat>
							<lut2></lut2>
						</colorinfo>
						<labels>
							<label2>Caribbean</label2>
						</labels>
					</clipitem>
					<clipitem id="clipitem-155" premiereChannelType="stereo">
						<masterclipid>masterclip-30</masterclipid>
						<name>250430-T003.WAV</name>
						<enabled>TRUE</enabled>
						<duration>76170</duration>
						<rate>
							<timebase>30</timebase>
							<ntsc>TRUE</ntsc>
						</rate>
						<start>8608</start>
						<end>8771</end>
						<in>35700</in>
						<out>35863</out>
						<pproTicksIn>302581319040000</pproTicksIn>
						<pproTicksOut>303962852793600</pproTicksOut>
						<file id="file-30">
							<name>250430-T003.wav</name>
							<pathurl>file://localhost/Volumes/EDDMA_Pos01/EDDMA_01/BRUTAS/CENAS%20CAPTADAS/20250430_01de02/AUDIO/250430/250430-T003.wav</pathurl>
							<rate>
								<timebase>30</timebase>
								<ntsc>TRUE</ntsc>
							</rate>
							<duration>76170</duration>
							<timecode>
								<rate>
									<timebase>30</timebase>
									<ntsc>TRUE</ntsc>
								</rate>
								<string>11;29;35;12</string>
								<frame>1240020</frame>
								<displayformat>DF</displayformat>
								<reel>
									<name>250430</name>
								</reel>
							</timecode>
							<media>
								<audio>
									<samplecharacteristics>
										<depth>16</depth>
										<samplerate>48000</samplerate>
									</samplecharacteristics>
									<channelcount>2</channelcount>
								</audio>
							</media>
						</file>
						<sourcetrack>
							<mediatype>audio</mediatype>
							<trackindex>1</trackindex>
						</sourcetrack>
						<link>
							<linkclipref>clipitem-155</linkclipref>
							<mediatype>audio</mediatype>
							<trackindex>1</trackindex>
							<clipindex>24</clipindex>
							<groupindex>1</groupindex>
						</link>
						<link>
							<linkclipref>clipitem-253</linkclipref>
							<mediatype>audio</mediatype>
							<trackindex>2</trackindex>
							<clipindex>14</clipindex>
							<groupindex>1</groupindex>
						</link>
						<logginginfo>
							<description></description>
							<scene>250430</scene>
							<shottake></shottake>
							<lognote></lognote>
							<good></good>
							<originalvideofilename></originalvideofilename>
							<originalaudiofilename></originalaudiofilename>
						</logginginfo>
						<colorinfo>
							<lut></lut>
							<lut1></lut1>
							<asc_sop></asc_sop>
							<asc_sat></asc_sat>
							<lut2></lut2>
						</colorinfo>
					</clipitem>
					<clipitem id="clipitem-156" premiereChannelType="stereo">
						<masterclipid>masterclip-30</masterclipid>
						<name>250430-T003.WAV</name>
						<enabled>TRUE</enabled>
						<duration>76170</duration>
						<rate>
							<timebase>30</timebase>
							<ntsc>TRUE</ntsc>
						</rate>
						<start>8771</start>
						<end>8905</end>
						<in>36175</in>
						<out>36309</out>
						<pproTicksIn>306607260960000</pproTicksIn>
						<pproTicksOut>307743000364800</pproTicksOut>
						<file id="file-30"/>
						<sourcetrack>
							<mediatype>audio</mediatype>
							<trackindex>1</trackindex>
						</sourcetrack>
						<link>
							<linkclipref>clipitem-156</linkclipref>
							<mediatype>audio</mediatype>
							<trackindex>1</trackindex>
							<clipindex>25</clipindex>
							<groupindex>1</groupindex>
						</link>
						<link>
							<linkclipref>clipitem-254</linkclipref>
							<mediatype>audio</mediatype>
							<trackindex>2</trackindex>
							<clipindex>15</clipindex>
							<groupindex>1</groupindex>
						</link>
						<logginginfo>
							<description></description>
							<scene>250430</scene>
							<shottake></shottake>
							<lognote></lognote>
							<good></good>
							<originalvideofilename></originalvideofilename>
							<originalaudiofilename></originalaudiofilename>
						</logginginfo>
						<colorinfo>
							<lut></lut>
							<lut1></lut1>
							<asc_sop></asc_sop>
							<asc_sat></asc_sat>
							<lut2></lut2>
						</colorinfo>
					</clipitem>
					<clipitem id="clipitem-157" premiereChannelType="stereo">
						<masterclipid>masterclip-30</masterclipid>
						<name>250430-T003.WAV</name>
						<enabled>TRUE</enabled>
						<duration>76170</duration>
						<rate>
							<timebase>30</timebase>
							<ntsc>TRUE</ntsc>
						</rate>
						<start>8905</start>
						<end>9032</end>
						<in>36339</in>
						<out>36466</out>
						<pproTicksIn>307997270380800</pproTicksIn>
						<pproTicksOut>309073680115200</pproTicksOut>
						<file id="file-30"/>
						<sourcetrack>
							<mediatype>audio</mediatype>
							<trackindex>1</trackindex>
						</sourcetrack>
						<link>
							<linkclipref>clipitem-157</linkclipref>
							<mediatype>audio</mediatype>
							<trackindex>1</trackindex>
							<clipindex>26</clipindex>
							<groupindex>1</groupindex>
						</link>
						<link>
							<linkclipref>clipitem-255</linkclipref>
							<mediatype>audio</mediatype>
							<trackindex>2</trackindex>
							<clipindex>16</clipindex>
							<groupindex>1</groupindex>
						</link>
						<logginginfo>
							<description></description>
							<scene>250430</scene>
							<shottake></shottake>
							<lognote></lognote>
							<good></good>
							<originalvideofilename></originalvideofilename>
							<originalaudiofilename></originalaudiofilename>
						</logginginfo>
						<colorinfo>
							<lut></lut>
							<lut1></lut1>
							<asc_sop></asc_sop>
							<asc_sat></asc_sat>
							<lut2></lut2>
						</colorinfo>
					</clipitem>
					<clipitem id="clipitem-158" premiereChannelType="stereo">
						<masterclipid>masterclip-30</masterclipid>
						<name>250430-T003.WAV</name>
						<enabled>TRUE</enabled>
						<duration>76170</duration>
						<rate>
							<timebase>30</timebase>
							<ntsc>TRUE</ntsc>
						</rate>
						<start>9032</start>
						<end>9382</end>
						<in>36713</in>
						<out>37063</out>
						<pproTicksIn>311167169913600</pproTicksIn>
						<pproTicksOut>314133653433600</pproTicksOut>
						<file id="file-30"/>
						<sourcetrack>
							<mediatype>audio</mediatype>
							<trackindex>1</trackindex>
						</sourcetrack>
						<link>
							<linkclipref>clipitem-158</linkclipref>
							<mediatype>audio</mediatype>
							<trackindex>1</trackindex>
							<clipindex>27</clipindex>
							<groupindex>1</groupindex>
						</link>
						<link>
							<linkclipref>clipitem-256</linkclipref>
							<mediatype>audio</mediatype>
							<trackindex>2</trackindex>
							<clipindex>17</clipindex>
							<groupindex>1</groupindex>
						</link>
						<logginginfo>
							<description></description>
							<scene>250430</scene>
							<shottake></shottake>
							<lognote></lognote>
							<good></good>
							<originalvideofilename></originalvideofilename>
							<originalaudiofilename></originalaudiofilename>
						</logginginfo>
						<colorinfo>
							<lut></lut>
							<lut1></lut1>
							<asc_sop></asc_sop>
							<asc_sat></asc_sat>
							<lut2></lut2>
						</colorinfo>
					</clipitem>
					<clipitem id="clipitem-159" premiereChannelType="stereo">
						<masterclipid>masterclip-7</masterclipid>
						<name>2025-03-20 08-52-56 .mov</name>
						<enabled>TRUE</enabled>
						<duration>31991</duration>
						<rate>
							<timebase>30</timebase>
							<ntsc>TRUE</ntsc>
						</rate>
						<start>9382</start>
						<end>9493</end>
						<in>16893</in>
						<out>17004</out>
						<pproTicksIn>143179446009600</pproTicksIn>
						<pproTicksOut>144120245068800</pproTicksOut>
						<file id="file-7"/>
						<sourcetrack>
							<mediatype>audio</mediatype>
							<trackindex>1</trackindex>
						</sourcetrack>
							<marker>
								<comment>Historico Hidreletricas&#13;Florestas&#13;Povos originarios indigenas&#13;Vazao dos rios</comment>
								<name>Aguas</name>
								<in>22190</in>
								<out>-1</out>
							</marker>
							<marker>
								<comment>Aquecimento global&#13;Emissao de gases&#13;Desmatamento&#13;Energia&#13;Acordos internacionais</comment>
								<name>Futuro</name>
								<in>9988</in>
								<out>-1</out>
							</marker>
							<marker>
								<comment>Custo e subsidio&#13;Politicas publicas&#13;Desmatamento florestas&#13;Agro Agricultura&#13;Transiçao energetica</comment>
								<name>Mineraçao de carvao</name>
								<in>16086</in>
								<out>-1</out>
							</marker>
							<marker>
								<comment>Hidreletricas energia&#13;Rio Tapajos&#13;Barragens</comment>
								<name>Aguas</name>
								<in>29660</in>
								<out>-1</out>
							</marker>
							<marker>
								<comment>Transiçao energetica&#13;Exemplo EUA e China&#13;Explica produçao de gas natural&#13;Aumento do consumo de energia&#13;EUA indo no sentido contrario</comment>
								<name>Energia</name>
								<in>815</in>
								<out>-1</out>
							</marker>
						<link>
							<linkclipref>clipitem-28</linkclipref>
							<mediatype>video</mediatype>
							<trackindex>1</trackindex>
							<clipindex>28</clipindex>
						</link>
						<link>
							<linkclipref>clipitem-159</linkclipref>
							<mediatype>audio</mediatype>
							<trackindex>1</trackindex>
							<clipindex>28</clipindex>
							<groupindex>1</groupindex>
						</link>
						<link>
							<linkclipref>clipitem-257</linkclipref>
							<mediatype>audio</mediatype>
							<trackindex>2</trackindex>
							<clipindex>18</clipindex>
							<groupindex>1</groupindex>
						</link>
						<logginginfo>
							<description></description>
							<scene></scene>
							<shottake></shottake>
							<lognote></lognote>
							<good></good>
							<originalvideofilename></originalvideofilename>
							<originalaudiofilename></originalaudiofilename>
						</logginginfo>
						<colorinfo>
							<lut></lut>
							<lut1></lut1>
							<asc_sop></asc_sop>
							<asc_sat></asc_sat>
							<lut2></lut2>
						</colorinfo>
					</clipitem>
					<clipitem id="clipitem-160" premiereChannelType="stereo">
						<masterclipid>masterclip-7</masterclipid>
						<name>2025-03-20 08-52-56 .mov</name>
						<enabled>TRUE</enabled>
						<duration>31991</duration>
						<rate>
							<timebase>30</timebase>
							<ntsc>TRUE</ntsc>
						</rate>
						<start>9493</start>
						<end>9801</end>
						<in>17103</in>
						<out>17411</out>
						<pproTicksIn>144959336121600</pproTicksIn>
						<pproTicksOut>147569841619200</pproTicksOut>
						<file id="file-7"/>
						<sourcetrack>
							<mediatype>audio</mediatype>
							<trackindex>1</trackindex>
						</sourcetrack>
							<marker>
								<comment>Historico Hidreletricas&#13;Florestas&#13;Povos originarios indigenas&#13;Vazao dos rios</comment>
								<name>Aguas</name>
								<in>22190</in>
								<out>-1</out>
							</marker>
							<marker>
								<comment>Aquecimento global&#13;Emissao de gases&#13;Desmatamento&#13;Energia&#13;Acordos internacionais</comment>
								<name>Futuro</name>
								<in>9988</in>
								<out>-1</out>
							</marker>
							<marker>
								<comment>Custo e subsidio&#13;Politicas publicas&#13;Desmatamento florestas&#13;Agro Agricultura&#13;Transiçao energetica</comment>
								<name>Mineraçao de carvao</name>
								<in>16086</in>
								<out>-1</out>
							</marker>
							<marker>
								<comment>Hidreletricas energia&#13;Rio Tapajos&#13;Barragens</comment>
								<name>Aguas</name>
								<in>29660</in>
								<out>-1</out>
							</marker>
							<marker>
								<comment>Transiçao energetica&#13;Exemplo EUA e China&#13;Explica produçao de gas natural&#13;Aumento do consumo de energia&#13;EUA indo no sentido contrario</comment>
								<name>Energia</name>
								<in>815</in>
								<out>-1</out>
							</marker>
						<link>
							<linkclipref>clipitem-29</linkclipref>
							<mediatype>video</mediatype>
							<trackindex>1</trackindex>
							<clipindex>29</clipindex>
						</link>
						<link>
							<linkclipref>clipitem-160</linkclipref>
							<mediatype>audio</mediatype>
							<trackindex>1</trackindex>
							<clipindex>29</clipindex>
							<groupindex>1</groupindex>
						</link>
						<link>
							<linkclipref>clipitem-258</linkclipref>
							<mediatype>audio</mediatype>
							<trackindex>2</trackindex>
							<clipindex>19</clipindex>
							<groupindex>1</groupindex>
						</link>
						<logginginfo>
							<description></description>
							<scene></scene>
							<shottake></shottake>
							<lognote></lognote>
							<good></good>
							<originalvideofilename></originalvideofilename>
							<originalaudiofilename></originalaudiofilename>
						</logginginfo>
						<colorinfo>
							<lut></lut>
							<lut1></lut1>
							<asc_sop></asc_sop>
							<asc_sat></asc_sat>
							<lut2></lut2>
						</colorinfo>
					</clipitem>
					<clipitem id="clipitem-161" premiereChannelType="stereo">
						<masterclipid>masterclip-7</masterclipid>
						<name>2025-03-20 08-52-56 .mov</name>
						<enabled>TRUE</enabled>
						<duration>31991</duration>
						<rate>
							<timebase>30</timebase>
							<ntsc>TRUE</ntsc>
						</rate>
						<start>9801</start>
						<end>10368</end>
						<in>17565</in>
						<out>18132</out>
						<pproTicksIn>148875094368000</pproTicksIn>
						<pproTicksOut>153680797670400</pproTicksOut>
						<file id="file-7"/>
						<sourcetrack>
							<mediatype>audio</mediatype>
							<trackindex>1</trackindex>
						</sourcetrack>
							<marker>
								<comment>Historico Hidreletricas&#13;Florestas&#13;Povos originarios indigenas&#13;Vazao dos rios</comment>
								<name>Aguas</name>
								<in>22190</in>
								<out>-1</out>
							</marker>
							<marker>
								<comment>Aquecimento global&#13;Emissao de gases&#13;Desmatamento&#13;Energia&#13;Acordos internacionais</comment>
								<name>Futuro</name>
								<in>9988</in>
								<out>-1</out>
							</marker>
							<marker>
								<comment>Custo e subsidio&#13;Politicas publicas&#13;Desmatamento florestas&#13;Agro Agricultura&#13;Transiçao energetica</comment>
								<name>Mineraçao de carvao</name>
								<in>16086</in>
								<out>-1</out>
							</marker>
							<marker>
								<comment>Hidreletricas energia&#13;Rio Tapajos&#13;Barragens</comment>
								<name>Aguas</name>
								<in>29660</in>
								<out>-1</out>
							</marker>
							<marker>
								<comment>Transiçao energetica&#13;Exemplo EUA e China&#13;Explica produçao de gas natural&#13;Aumento do consumo de energia&#13;EUA indo no sentido contrario</comment>
								<name>Energia</name>
								<in>815</in>
								<out>-1</out>
							</marker>
						<link>
							<linkclipref>clipitem-30</linkclipref>
							<mediatype>video</mediatype>
							<trackindex>1</trackindex>
							<clipindex>30</clipindex>
						</link>
						<link>
							<linkclipref>clipitem-161</linkclipref>
							<mediatype>audio</mediatype>
							<trackindex>1</trackindex>
							<clipindex>30</clipindex>
							<groupindex>1</groupindex>
						</link>
						<link>
							<linkclipref>clipitem-259</linkclipref>
							<mediatype>audio</mediatype>
							<trackindex>2</trackindex>
							<clipindex>20</clipindex>
							<groupindex>1</groupindex>
						</link>
						<logginginfo>
							<description></description>
							<scene></scene>
							<shottake></shottake>
							<lognote></lognote>
							<good></good>
							<originalvideofilename></originalvideofilename>
							<originalaudiofilename></originalaudiofilename>
						</logginginfo>
						<colorinfo>
							<lut></lut>
							<lut1></lut1>
							<asc_sop></asc_sop>
							<asc_sat></asc_sat>
							<lut2></lut2>
						</colorinfo>
					</clipitem>
					<clipitem id="clipitem-162" premiereChannelType="stereo">
						<masterclipid>masterclip-27</masterclipid>
						<name>250513-T004.WAV</name>
						<enabled>TRUE</enabled>
						<duration>22380</duration>
						<rate>
							<timebase>30</timebase>
							<ntsc>TRUE</ntsc>
						</rate>
						<start>10368</start>
						<end>10769</end>
						<in>8746</in>
						<out>9147</out>
						<pproTicksIn>74128185331200</pproTicksIn>
						<pproTicksOut>77526927878400</pproTicksOut>
						<file id="file-27"/>
						<sourcetrack>
							<mediatype>audio</mediatype>
							<trackindex>1</trackindex>
						</sourcetrack>
						<link>
							<linkclipref>clipitem-162</linkclipref>
							<mediatype>audio</mediatype>
							<trackindex>1</trackindex>
							<clipindex>31</clipindex>
							<groupindex>1</groupindex>
						</link>
						<link>
							<linkclipref>clipitem-260</linkclipref>
							<mediatype>audio</mediatype>
							<trackindex>2</trackindex>
							<clipindex>21</clipindex>
							<groupindex>1</groupindex>
						</link>
						<logginginfo>
							<description>Adão Oliveira</description>
							<scene>250513</scene>
							<shottake></shottake>
							<lognote></lognote>
							<good></good>
							<originalvideofilename></originalvideofilename>
							<originalaudiofilename></originalaudiofilename>
						</logginginfo>
						<colorinfo>
							<lut></lut>
							<lut1></lut1>
							<asc_sop></asc_sop>
							<asc_sat></asc_sat>
							<lut2></lut2>
						</colorinfo>
						<labels>
							<label2>Caribbean</label2>
						</labels>
					</clipitem>
					<clipitem id="clipitem-163" premiereChannelType="stereo">
						<masterclipid>masterclip-27</masterclipid>
						<name>250513-T004.WAV</name>
						<enabled>TRUE</enabled>
						<duration>22380</duration>
						<rate>
							<timebase>30</timebase>
							<ntsc>TRUE</ntsc>
						</rate>
						<start>10769</start>
						<end>10852</end>
						<in>20568</in>
						<out>20651</out>
						<pproTicksIn>174327522969600</pproTicksIn>
						<pproTicksOut>175031003347200</pproTicksOut>
						<file id="file-27"/>
						<sourcetrack>
							<mediatype>audio</mediatype>
							<trackindex>1</trackindex>
						</sourcetrack>
						<link>
							<linkclipref>clipitem-163</linkclipref>
							<mediatype>audio</mediatype>
							<trackindex>1</trackindex>
							<clipindex>32</clipindex>
							<groupindex>1</groupindex>
						</link>
						<link>
							<linkclipref>clipitem-261</linkclipref>
							<mediatype>audio</mediatype>
							<trackindex>2</trackindex>
							<clipindex>22</clipindex>
							<groupindex>1</groupindex>
						</link>
						<logginginfo>
							<description>Adão Oliveira</description>
							<scene>250513</scene>
							<shottake></shottake>
							<lognote></lognote>
							<good></good>
							<originalvideofilename></originalvideofilename>
							<originalaudiofilename></originalaudiofilename>
						</logginginfo>
						<colorinfo>
							<lut></lut>
							<lut1></lut1>
							<asc_sop></asc_sop>
							<asc_sat></asc_sat>
							<lut2></lut2>
						</colorinfo>
						<labels>
							<label2>Caribbean</label2>
						</labels>
					</clipitem>
					<clipitem id="clipitem-164" premiereChannelType="stereo">
						<masterclipid>masterclip-27</masterclipid>
						<name>250513-T004.WAV</name>
						<enabled>TRUE</enabled>
						<duration>22380</duration>
						<rate>
							<timebase>30</timebase>
							<ntsc>TRUE</ntsc>
						</rate>
						<start>10852</start>
						<end>11052</end>
						<in>20825</in>
						<out>21025</out>
						<pproTicksIn>176505769440000</pproTicksIn>
						<pproTicksOut>178200902880000</pproTicksOut>
						<file id="file-27"/>
						<sourcetrack>
							<mediatype>audio</mediatype>
							<trackindex>1</trackindex>
						</sourcetrack>
						<link>
							<linkclipref>clipitem-164</linkclipref>
							<mediatype>audio</mediatype>
							<trackindex>1</trackindex>
							<clipindex>33</clipindex>
							<groupindex>1</groupindex>
						</link>
						<link>
							<linkclipref>clipitem-262</linkclipref>
							<mediatype>audio</mediatype>
							<trackindex>2</trackindex>
							<clipindex>23</clipindex>
							<groupindex>1</groupindex>
						</link>
						<logginginfo>
							<description>Adão Oliveira</description>
							<scene>250513</scene>
							<shottake></shottake>
							<lognote></lognote>
							<good></good>
							<originalvideofilename></originalvideofilename>
							<originalaudiofilename></originalaudiofilename>
						</logginginfo>
						<colorinfo>
							<lut></lut>
							<lut1></lut1>
							<asc_sop></asc_sop>
							<asc_sat></asc_sat>
							<lut2></lut2>
						</colorinfo>
						<labels>
							<label2>Caribbean</label2>
						</labels>
					</clipitem>
					<clipitem id="clipitem-165" premiereChannelType="stereo">
						<masterclipid>masterclip-7</masterclipid>
						<name>2025-03-20 08-52-56 .mov</name>
						<enabled>TRUE</enabled>
						<duration>31991</duration>
						<rate>
							<timebase>30</timebase>
							<ntsc>TRUE</ntsc>
						</rate>
						<start>11052</start>
						<end>11365</end>
						<in>16086</in>
						<out>16399</out>
						<pproTicksIn>136339582579200</pproTicksIn>
						<pproTicksOut>138992466412800</pproTicksOut>
						<file id="file-7"/>
						<sourcetrack>
							<mediatype>audio</mediatype>
							<trackindex>1</trackindex>
						</sourcetrack>
							<marker>
								<comment>Historico Hidreletricas&#13;Florestas&#13;Povos originarios indigenas&#13;Vazao dos rios</comment>
								<name>Aguas</name>
								<in>22190</in>
								<out>-1</out>
							</marker>
							<marker>
								<comment>Aquecimento global&#13;Emissao de gases&#13;Desmatamento&#13;Energia&#13;Acordos internacionais</comment>
								<name>Futuro</name>
								<in>9988</in>
								<out>-1</out>
							</marker>
							<marker>
								<comment>Custo e subsidio&#13;Politicas publicas&#13;Desmatamento florestas&#13;Agro Agricultura&#13;Transiçao energetica</comment>
								<name>Mineraçao de carvao</name>
								<in>16086</in>
								<out>-1</out>
							</marker>
							<marker>
								<comment>Hidreletricas energia&#13;Rio Tapajos&#13;Barragens</comment>
								<name>Aguas</name>
								<in>29660</in>
								<out>-1</out>
							</marker>
							<marker>
								<comment>Transiçao energetica&#13;Exemplo EUA e China&#13;Explica produçao de gas natural&#13;Aumento do consumo de energia&#13;EUA indo no sentido contrario</comment>
								<name>Energia</name>
								<in>815</in>
								<out>-1</out>
							</marker>
						<link>
							<linkclipref>clipitem-34</linkclipref>
							<mediatype>video</mediatype>
							<trackindex>1</trackindex>
							<clipindex>34</clipindex>
						</link>
						<link>
							<linkclipref>clipitem-165</linkclipref>
							<mediatype>audio</mediatype>
							<trackindex>1</trackindex>
							<clipindex>34</clipindex>
							<groupindex>1</groupindex>
						</link>
						<link>
							<linkclipref>clipitem-263</linkclipref>
							<mediatype>audio</mediatype>
							<trackindex>2</trackindex>
							<clipindex>24</clipindex>
							<groupindex>1</groupindex>
						</link>
						<logginginfo>
							<description></description>
							<scene></scene>
							<shottake></shottake>
							<lognote></lognote>
							<good></good>
							<originalvideofilename></originalvideofilename>
							<originalaudiofilename></originalaudiofilename>
						</logginginfo>
						<colorinfo>
							<lut></lut>
							<lut1></lut1>
							<asc_sop></asc_sop>
							<asc_sat></asc_sat>
							<lut2></lut2>
						</colorinfo>
					</clipitem>
					<clipitem id="clipitem-166" premiereChannelType="stereo">
						<masterclipid>masterclip-28</masterclipid>
						<name>250515-T014.WAV</name>
						<enabled>TRUE</enabled>
						<duration>84540</duration>
						<rate>
							<timebase>30</timebase>
							<ntsc>TRUE</ntsc>
						</rate>
						<start>11365</start>
						<end>11856</end>
						<in>17307</in>
						<out>17798</out>
						<pproTicksIn>146688372230400</pproTicksIn>
						<pproTicksOut>150849924825600</pproTicksOut>
						<file id="file-28"/>
						<sourcetrack>
							<mediatype>audio</mediatype>
							<trackindex>1</trackindex>
						</sourcetrack>
						<link>
							<linkclipref>clipitem-166</linkclipref>
							<mediatype>audio</mediatype>
							<trackindex>1</trackindex>
							<clipindex>35</clipindex>
							<groupindex>1</groupindex>
						</link>
						<link>
							<linkclipref>clipitem-264</linkclipref>
							<mediatype>audio</mediatype>
							<trackindex>2</trackindex>
							<clipindex>25</clipindex>
							<groupindex>1</groupindex>
						</link>
						<logginginfo>
							<description></description>
							<scene>250515</scene>
							<shottake></shottake>
							<lognote></lognote>
							<good></good>
							<originalvideofilename></originalvideofilename>
							<originalaudiofilename></originalaudiofilename>
						</logginginfo>
						<colorinfo>
							<lut></lut>
							<lut1></lut1>
							<asc_sop></asc_sop>
							<asc_sat></asc_sat>
							<lut2></lut2>
						</colorinfo>
						<labels>
							<label2>Caribbean</label2>
						</labels>
					</clipitem>
					<clipitem id="clipitem-167" premiereChannelType="stereo">
						<masterclipid>masterclip-8</masterclipid>
						<name>2025-03-20 08-29-14 .mov</name>
						<enabled>TRUE</enabled>
						<duration>42599</duration>
						<rate>
							<timebase>30</timebase>
							<ntsc>TRUE</ntsc>
						</rate>
						<start>11856</start>
						<end>13448</end>
						<in>12293</in>
						<out>13885</out>
						<pproTicksIn>104191376889600</pproTicksIn>
						<pproTicksOut>117684639072000</pproTicksOut>
						<file id="file-8"/>
						<sourcetrack>
							<mediatype>audio</mediatype>
							<trackindex>1</trackindex>
						</sourcetrack>
							<marker>
								<comment>Impacto na economia&#13;Ajuda na enchente do RS&#13;Energia renovavel mais barata&#13;Transiçao energetica&#13;Politicas publicas e investimentos&#13;Convençao do Clima acordo internacional&#13;Futuro</comment>
								<name>Eventos extremos</name>
								<in>34288</in>
								<out>-1</out>
							</marker>
							<marker>
								<comment>Uso de energia apos revoluçao industrial&#13;Combustiveis fosseis&#13;Carvao mineral e petroleo&#13;Desmatamento</comment>
								<name>Efeito estufa</name>
								<in>12078</in>
								<out>-1</out>
							</marker>
							<marker>
								<comment>Explica que nao e cientista nem especialista</comment>
								<name></name>
								<in>400</in>
								<out>-1</out>
							</marker>
							<marker>
								<comment>Gases da atmosfera&#13;Desequilibrio energetico&#13;Aquecimento global&#13;Previsoes</comment>
								<name>Efeito estufa</name>
								<in>2277</in>
								<out>-1</out>
							</marker>
							<marker>
								<comment>Custo beneficio do uso de energia&#13;Futuro</comment>
								<name>Energia</name>
								<in>16145</in>
								<out>-1</out>
							</marker>
							<marker>
								<comment>Lei da Termodinamica&#13;Nao existe energia limpa&#13;Pegada de carbono&#13;Matriz energetica brasileira&#13;Transiçao energetica&#13;Carvao mineral no RS&#13;Eolica e solar mais barato&#13;Hidreletricas rios e florestas&#13;Transporte mobilidade biocombustivel etanol&#13;Politicas publicas</comment>
								<name>Energia</name>
								<in>19373</in>
								<out>-1</out>
							</marker>
						<link>
							<linkclipref>clipitem-36</linkclipref>
							<mediatype>video</mediatype>
							<trackindex>1</trackindex>
							<clipindex>36</clipindex>
						</link>
						<link>
							<linkclipref>clipitem-167</linkclipref>
							<mediatype>audio</mediatype>
							<trackindex>1</trackindex>
							<clipindex>36</clipindex>
							<groupindex>1</groupindex>
						</link>
						<link>
							<linkclipref>clipitem-265</linkclipref>
							<mediatype>audio</mediatype>
							<trackindex>2</trackindex>
							<clipindex>26</clipindex>
							<groupindex>1</groupindex>
						</link>
						<logginginfo>
							<description></description>
							<scene></scene>
							<shottake></shottake>
							<lognote></lognote>
							<good></good>
							<originalvideofilename></originalvideofilename>
							<originalaudiofilename></originalaudiofilename>
						</logginginfo>
						<colorinfo>
							<lut></lut>
							<lut1></lut1>
							<asc_sop></asc_sop>
							<asc_sat></asc_sat>
							<lut2></lut2>
						</colorinfo>
					</clipitem>
					<clipitem id="clipitem-168" premiereChannelType="stereo">
						<masterclipid>masterclip-8</masterclipid>
						<name>2025-03-20 08-29-14 .mov</name>
						<enabled>TRUE</enabled>
						<duration>42599</duration>
						<rate>
							<timebase>30</timebase>
							<ntsc>TRUE</ntsc>
						</rate>
						<start>13448</start>
						<end>13492</end>
						<in>14473</in>
						<out>14517</out>
						<pproTicksIn>122668331385600</pproTicksIn>
						<pproTicksOut>123041260742400</pproTicksOut>
						<file id="file-8"/>
						<sourcetrack>
							<mediatype>audio</mediatype>
							<trackindex>1</trackindex>
						</sourcetrack>
							<marker>
								<comment>Impacto na economia&#13;Ajuda na enchente do RS&#13;Energia renovavel mais barata&#13;Transiçao energetica&#13;Politicas publicas e investimentos&#13;Convençao do Clima acordo internacional&#13;Futuro</comment>
								<name>Eventos extremos</name>
								<in>34288</in>
								<out>-1</out>
							</marker>
							<marker>
								<comment>Uso de energia apos revoluçao industrial&#13;Combustiveis fosseis&#13;Carvao mineral e petroleo&#13;Desmatamento</comment>
								<name>Efeito estufa</name>
								<in>12078</in>
								<out>-1</out>
							</marker>
							<marker>
								<comment>Explica que nao e cientista nem especialista</comment>
								<name></name>
								<in>400</in>
								<out>-1</out>
							</marker>
							<marker>
								<comment>Gases da atmosfera&#13;Desequilibrio energetico&#13;Aquecimento global&#13;Previsoes</comment>
								<name>Efeito estufa</name>
								<in>2277</in>
								<out>-1</out>
							</marker>
							<marker>
								<comment>Custo beneficio do uso de energia&#13;Futuro</comment>
								<name>Energia</name>
								<in>16145</in>
								<out>-1</out>
							</marker>
							<marker>
								<comment>Lei da Termodinamica&#13;Nao existe energia limpa&#13;Pegada de carbono&#13;Matriz energetica brasileira&#13;Transiçao energetica&#13;Carvao mineral no RS&#13;Eolica e solar mais barato&#13;Hidreletricas rios e florestas&#13;Transporte mobilidade biocombustivel etanol&#13;Politicas publicas</comment>
								<name>Energia</name>
								<in>19373</in>
								<out>-1</out>
							</marker>
						<link>
							<linkclipref>clipitem-37</linkclipref>
							<mediatype>video</mediatype>
							<trackindex>1</trackindex>
							<clipindex>37</clipindex>
						</link>
						<link>
							<linkclipref>clipitem-168</linkclipref>
							<mediatype>audio</mediatype>
							<trackindex>1</trackindex>
							<clipindex>37</clipindex>
							<groupindex>1</groupindex>
						</link>
						<link>
							<linkclipref>clipitem-266</linkclipref>
							<mediatype>audio</mediatype>
							<trackindex>2</trackindex>
							<clipindex>27</clipindex>
							<groupindex>1</groupindex>
						</link>
						<logginginfo>
							<description></description>
							<scene></scene>
							<shottake></shottake>
							<lognote></lognote>
							<good></good>
							<originalvideofilename></originalvideofilename>
							<originalaudiofilename></originalaudiofilename>
						</logginginfo>
						<colorinfo>
							<lut></lut>
							<lut1></lut1>
							<asc_sop></asc_sop>
							<asc_sat></asc_sat>
							<lut2></lut2>
						</colorinfo>
					</clipitem>
					<clipitem id="clipitem-169" premiereChannelType="stereo">
						<masterclipid>masterclip-8</masterclipid>
						<name>2025-03-20 08-29-14 .mov</name>
						<enabled>TRUE</enabled>
						<duration>42599</duration>
						<rate>
							<timebase>30</timebase>
							<ntsc>TRUE</ntsc>
						</rate>
						<start>13492</start>
						<end>13914</end>
						<in>15032</in>
						<out>15454</out>
						<pproTicksIn>127406229350400</pproTicksIn>
						<pproTicksOut>130982960908800</pproTicksOut>
						<file id="file-8"/>
						<sourcetrack>
							<mediatype>audio</mediatype>
							<trackindex>1</trackindex>
						</sourcetrack>
							<marker>
								<comment>Impacto na economia&#13;Ajuda na enchente do RS&#13;Energia renovavel mais barata&#13;Transiçao energetica&#13;Politicas publicas e investimentos&#13;Convençao do Clima acordo internacional&#13;Futuro</comment>
								<name>Eventos extremos</name>
								<in>34288</in>
								<out>-1</out>
							</marker>
							<marker>
								<comment>Uso de energia apos revoluçao industrial&#13;Combustiveis fosseis&#13;Carvao mineral e petroleo&#13;Desmatamento</comment>
								<name>Efeito estufa</name>
								<in>12078</in>
								<out>-1</out>
							</marker>
							<marker>
								<comment>Explica que nao e cientista nem especialista</comment>
								<name></name>
								<in>400</in>
								<out>-1</out>
							</marker>
							<marker>
								<comment>Gases da atmosfera&#13;Desequilibrio energetico&#13;Aquecimento global&#13;Previsoes</comment>
								<name>Efeito estufa</name>
								<in>2277</in>
								<out>-1</out>
							</marker>
							<marker>
								<comment>Custo beneficio do uso de energia&#13;Futuro</comment>
								<name>Energia</name>
								<in>16145</in>
								<out>-1</out>
							</marker>
							<marker>
								<comment>Lei da Termodinamica&#13;Nao existe energia limpa&#13;Pegada de carbono&#13;Matriz energetica brasileira&#13;Transiçao energetica&#13;Carvao mineral no RS&#13;Eolica e solar mais barato&#13;Hidreletricas rios e florestas&#13;Transporte mobilidade biocombustivel etanol&#13;Politicas publicas</comment>
								<name>Energia</name>
								<in>19373</in>
								<out>-1</out>
							</marker>
						<link>
							<linkclipref>clipitem-38</linkclipref>
							<mediatype>video</mediatype>
							<trackindex>1</trackindex>
							<clipindex>38</clipindex>
						</link>
						<link>
							<linkclipref>clipitem-169</linkclipref>
							<mediatype>audio</mediatype>
							<trackindex>1</trackindex>
							<clipindex>38</clipindex>
							<groupindex>1</groupindex>
						</link>
						<link>
							<linkclipref>clipitem-267</linkclipref>
							<mediatype>audio</mediatype>
							<trackindex>2</trackindex>
							<clipindex>28</clipindex>
							<groupindex>1</groupindex>
						</link>
						<logginginfo>
							<description></description>
							<scene></scene>
							<shottake></shottake>
							<lognote></lognote>
							<good></good>
							<originalvideofilename></originalvideofilename>
							<originalaudiofilename></originalaudiofilename>
						</logginginfo>
						<colorinfo>
							<lut></lut>
							<lut1></lut1>
							<asc_sop></asc_sop>
							<asc_sat></asc_sat>
							<lut2></lut2>
						</colorinfo>
					</clipitem>
					<clipitem id="clipitem-170" premiereChannelType="stereo">
						<masterclipid>masterclip-28</masterclipid>
						<name>250515-T014.WAV</name>
						<enabled>TRUE</enabled>
						<duration>84540</duration>
						<rate>
							<timebase>30</timebase>
							<ntsc>TRUE</ntsc>
						</rate>
						<start>13914</start>
						<end>15026</end>
						<in>65244</in>
						<out>66356</out>
						<pproTicksIn>552986430796800</pproTicksIn>
						<pproTicksOut>562411372723200</pproTicksOut>
						<file id="file-28"/>
						<sourcetrack>
							<mediatype>audio</mediatype>
							<trackindex>1</trackindex>
						</sourcetrack>
						<link>
							<linkclipref>clipitem-170</linkclipref>
							<mediatype>audio</mediatype>
							<trackindex>1</trackindex>
							<clipindex>39</clipindex>
							<groupindex>1</groupindex>
						</link>
						<link>
							<linkclipref>clipitem-268</linkclipref>
							<mediatype>audio</mediatype>
							<trackindex>2</trackindex>
							<clipindex>29</clipindex>
							<groupindex>1</groupindex>
						</link>
						<logginginfo>
							<description></description>
							<scene>250515</scene>
							<shottake></shottake>
							<lognote></lognote>
							<good></good>
							<originalvideofilename></originalvideofilename>
							<originalaudiofilename></originalaudiofilename>
						</logginginfo>
						<colorinfo>
							<lut></lut>
							<lut1></lut1>
							<asc_sop></asc_sop>
							<asc_sat></asc_sat>
							<lut2></lut2>
						</colorinfo>
						<labels>
							<label2>Caribbean</label2>
						</labels>
					</clipitem>
					<clipitem id="clipitem-171" premiereChannelType="stereo">
						<masterclipid>masterclip-28</masterclipid>
						<name>250515-T014.WAV</name>
						<enabled>TRUE</enabled>
						<duration>84540</duration>
						<rate>
							<timebase>30</timebase>
							<ntsc>TRUE</ntsc>
						</rate>
						<start>15026</start>
						<end>15176</end>
						<in>66517</in>
						<out>66667</out>
						<pproTicksIn>563775955142400</pproTicksIn>
						<pproTicksOut>565047305222400</pproTicksOut>
						<file id="file-28"/>
						<sourcetrack>
							<mediatype>audio</mediatype>
							<trackindex>1</trackindex>
						</sourcetrack>
						<link>
							<linkclipref>clipitem-171</linkclipref>
							<mediatype>audio</mediatype>
							<trackindex>1</trackindex>
							<clipindex>40</clipindex>
							<groupindex>1</groupindex>
						</link>
						<link>
							<linkclipref>clipitem-269</linkclipref>
							<mediatype>audio</mediatype>
							<trackindex>2</trackindex>
							<clipindex>30</clipindex>
							<groupindex>1</groupindex>
						</link>
						<logginginfo>
							<description></description>
							<scene>250515</scene>
							<shottake></shottake>
							<lognote></lognote>
							<good></good>
							<originalvideofilename></originalvideofilename>
							<originalaudiofilename></originalaudiofilename>
						</logginginfo>
						<colorinfo>
							<lut></lut>
							<lut1></lut1>
							<asc_sop></asc_sop>
							<asc_sat></asc_sat>
							<lut2></lut2>
						</colorinfo>
						<labels>
							<label2>Caribbean</label2>
						</labels>
					</clipitem>
					<clipitem id="clipitem-172" premiereChannelType="stereo">
						<masterclipid>masterclip-28</masterclipid>
						<name>250515-T014.WAV</name>
						<enabled>TRUE</enabled>
						<duration>84540</duration>
						<rate>
							<timebase>30</timebase>
							<ntsc>TRUE</ntsc>
						</rate>
						<start>15176</start>
						<end>15340</end>
						<in>66751</in>
						<out>66915</out>
						<pproTicksIn>565759261267200</pproTicksIn>
						<pproTicksOut>567149270688000</pproTicksOut>
						<file id="file-28"/>
						<sourcetrack>
							<mediatype>audio</mediatype>
							<trackindex>1</trackindex>
						</sourcetrack>
						<link>
							<linkclipref>clipitem-172</linkclipref>
							<mediatype>audio</mediatype>
							<trackindex>1</trackindex>
							<clipindex>41</clipindex>
							<groupindex>1</groupindex>
						</link>
						<link>
							<linkclipref>clipitem-270</linkclipref>
							<mediatype>audio</mediatype>
							<trackindex>2</trackindex>
							<clipindex>31</clipindex>
							<groupindex>1</groupindex>
						</link>
						<logginginfo>
							<description></description>
							<scene>250515</scene>
							<shottake></shottake>
							<lognote></lognote>
							<good></good>
							<originalvideofilename></originalvideofilename>
							<originalaudiofilename></originalaudiofilename>
						</logginginfo>
						<colorinfo>
							<lut></lut>
							<lut1></lut1>
							<asc_sop></asc_sop>
							<asc_sat></asc_sat>
							<lut2></lut2>
						</colorinfo>
						<labels>
							<label2>Caribbean</label2>
						</labels>
					</clipitem>
					<clipitem id="clipitem-173" premiereChannelType="stereo">
						<masterclipid>masterclip-28</masterclipid>
						<name>250515-T014.WAV</name>
						<enabled>TRUE</enabled>
						<duration>84540</duration>
						<rate>
							<timebase>30</timebase>
							<ntsc>TRUE</ntsc>
						</rate>
						<start>15340</start>
						<end>15494</end>
						<in>67939</in>
						<out>68093</out>
						<pproTicksIn>575828353900800</pproTicksIn>
						<pproTicksOut>577133606649600</pproTicksOut>
						<file id="file-28"/>
						<sourcetrack>
							<mediatype>audio</mediatype>
							<trackindex>1</trackindex>
						</sourcetrack>
						<link>
							<linkclipref>clipitem-173</linkclipref>
							<mediatype>audio</mediatype>
							<trackindex>1</trackindex>
							<clipindex>42</clipindex>
							<groupindex>1</groupindex>
						</link>
						<link>
							<linkclipref>clipitem-271</linkclipref>
							<mediatype>audio</mediatype>
							<trackindex>2</trackindex>
							<clipindex>32</clipindex>
							<groupindex>1</groupindex>
						</link>
						<logginginfo>
							<description></description>
							<scene>250515</scene>
							<shottake></shottake>
							<lognote></lognote>
							<good></good>
							<originalvideofilename></originalvideofilename>
							<originalaudiofilename></originalaudiofilename>
						</logginginfo>
						<colorinfo>
							<lut></lut>
							<lut1></lut1>
							<asc_sop></asc_sop>
							<asc_sat></asc_sat>
							<lut2></lut2>
						</colorinfo>
						<labels>
							<label2>Caribbean</label2>
						</labels>
					</clipitem>
					<clipitem id="clipitem-174" premiereChannelType="stereo">
						<masterclipid>masterclip-28</masterclipid>
						<name>250515-T014.WAV</name>
						<enabled>TRUE</enabled>
						<duration>84540</duration>
						<rate>
							<timebase>30</timebase>
							<ntsc>TRUE</ntsc>
						</rate>
						<start>15494</start>
						<end>16016</end>
						<in>66915</in>
						<out>67437</out>
						<pproTicksIn>567149270688000</pproTicksIn>
						<pproTicksOut>571573568966400</pproTicksOut>
						<file id="file-28"/>
						<sourcetrack>
							<mediatype>audio</mediatype>
							<trackindex>1</trackindex>
						</sourcetrack>
						<link>
							<linkclipref>clipitem-174</linkclipref>
							<mediatype>audio</mediatype>
							<trackindex>1</trackindex>
							<clipindex>43</clipindex>
							<groupindex>1</groupindex>
						</link>
						<link>
							<linkclipref>clipitem-272</linkclipref>
							<mediatype>audio</mediatype>
							<trackindex>2</trackindex>
							<clipindex>33</clipindex>
							<groupindex>1</groupindex>
						</link>
						<logginginfo>
							<description></description>
							<scene>250515</scene>
							<shottake></shottake>
							<lognote></lognote>
							<good></good>
							<originalvideofilename></originalvideofilename>
							<originalaudiofilename></originalaudiofilename>
						</logginginfo>
						<colorinfo>
							<lut></lut>
							<lut1></lut1>
							<asc_sop></asc_sop>
							<asc_sat></asc_sat>
							<lut2></lut2>
						</colorinfo>
						<labels>
							<label2>Caribbean</label2>
						</labels>
					</clipitem>
					<clipitem id="clipitem-175" premiereChannelType="stereo">
						<masterclipid>masterclip-28</masterclipid>
						<name>250515-T014.WAV</name>
						<enabled>TRUE</enabled>
						<duration>84540</duration>
						<rate>
							<timebase>30</timebase>
							<ntsc>TRUE</ntsc>
						</rate>
						<start>16016</start>
						<end>16360</end>
						<in>69704</in>
						<out>70048</out>
						<pproTicksIn>590787906508800</pproTicksIn>
						<pproTicksOut>593703536025600</pproTicksOut>
						<file id="file-28"/>
						<sourcetrack>
							<mediatype>audio</mediatype>
							<trackindex>1</trackindex>
						</sourcetrack>
						<link>
							<linkclipref>clipitem-175</linkclipref>
							<mediatype>audio</mediatype>
							<trackindex>1</trackindex>
							<clipindex>44</clipindex>
							<groupindex>1</groupindex>
						</link>
						<link>
							<linkclipref>clipitem-273</linkclipref>
							<mediatype>audio</mediatype>
							<trackindex>2</trackindex>
							<clipindex>34</clipindex>
							<groupindex>1</groupindex>
						</link>
						<logginginfo>
							<description></description>
							<scene>250515</scene>
							<shottake></shottake>
							<lognote></lognote>
							<good></good>
							<originalvideofilename></originalvideofilename>
							<originalaudiofilename></originalaudiofilename>
						</logginginfo>
						<colorinfo>
							<lut></lut>
							<lut1></lut1>
							<asc_sop></asc_sop>
							<asc_sat></asc_sat>
							<lut2></lut2>
						</colorinfo>
						<labels>
							<label2>Caribbean</label2>
						</labels>
					</clipitem>
					<clipitem id="clipitem-176" premiereChannelType="stereo">
						<masterclipid>masterclip-31</masterclipid>
						<name>250502-T009.WAV</name>
						<enabled>TRUE</enabled>
						<duration>88020</duration>
						<rate>
							<timebase>30</timebase>
							<ntsc>TRUE</ntsc>
						</rate>
						<start>16360</start>
						<end>16442</end>
						<in>62453</in>
						<out>62535</out>
						<pproTicksIn>529330843641600</pproTicksIn>
						<pproTicksOut>530025848352000</pproTicksOut>
						<file id="file-31">
							<name>250502-T009.wav</name>
							<pathurl>file://localhost/Volumes/EDDMA_Pos01/EDDMA_01/BRUTAS/CENAS%20CAPTADAS/20250502/AUDIO/250502/250502-T009.wav</pathurl>
							<rate>
								<timebase>30</timebase>
								<ntsc>TRUE</ntsc>
							</rate>
							<duration>88020</duration>
							<timecode>
								<rate>
									<timebase>30</timebase>
									<ntsc>TRUE</ntsc>
								</rate>
								<string>13;31;39;20</string>
								<frame>1459530</frame>
								<displayformat>DF</displayformat>
								<reel>
									<name>250502</name>
								</reel>
							</timecode>
							<media>
								<audio>
									<samplecharacteristics>
										<depth>16</depth>
										<samplerate>48000</samplerate>
									</samplecharacteristics>
									<channelcount>2</channelcount>
								</audio>
							</media>
						</file>
						<sourcetrack>
							<mediatype>audio</mediatype>
							<trackindex>1</trackindex>
						</sourcetrack>
						<filter>
							<effect>
								<name>Audio Levels</name>
								<effectid>audiolevels</effectid>
								<effectcategory>audiolevels</effectcategory>
								<effecttype>audiolevels</effecttype>
								<mediatype>audio</mediatype>
								<pproBypass>false</pproBypass>
								<parameter authoringApp="PremierePro">
									<parameterid>level</parameterid>
									<name>Level</name>
									<valuemin>0</valuemin>
									<valuemax>3.98109</valuemax>
									<value>1</value>
									<keyframe>
										<when>88019</when>
										<value>1</value>
									</keyframe>
								</parameter>
							</effect>
						</filter>
						<link>
							<linkclipref>clipitem-176</linkclipref>
							<mediatype>audio</mediatype>
							<trackindex>1</trackindex>
							<clipindex>45</clipindex>
							<groupindex>1</groupindex>
						</link>
						<link>
							<linkclipref>clipitem-274</linkclipref>
							<mediatype>audio</mediatype>
							<trackindex>2</trackindex>
							<clipindex>35</clipindex>
							<groupindex>1</groupindex>
						</link>
						<logginginfo>
							<description></description>
							<scene>250502</scene>
							<shottake></shottake>
							<lognote></lognote>
							<good></good>
							<originalvideofilename></originalvideofilename>
							<originalaudiofilename></originalaudiofilename>
						</logginginfo>
						<colorinfo>
							<lut></lut>
							<lut1></lut1>
							<asc_sop></asc_sop>
							<asc_sat></asc_sat>
							<lut2></lut2>
						</colorinfo>
					</clipitem>
					<clipitem id="clipitem-177" premiereChannelType="stereo">
						<masterclipid>masterclip-31</masterclipid>
						<name>250502-T009.WAV</name>
						<enabled>TRUE</enabled>
						<duration>88020</duration>
						<rate>
							<timebase>30</timebase>
							<ntsc>TRUE</ntsc>
						</rate>
						<start>16442</start>
						<end>16784</end>
						<in>62624</in>
						<out>62966</out>
						<pproTicksIn>530780182732800</pproTicksIn>
						<pproTicksOut>533678860915200</pproTicksOut>
						<file id="file-31"/>
						<sourcetrack>
							<mediatype>audio</mediatype>
							<trackindex>1</trackindex>
						</sourcetrack>
						<filter>
							<effect>
								<name>Audio Levels</name>
								<effectid>audiolevels</effectid>
								<effectcategory>audiolevels</effectcategory>
								<effecttype>audiolevels</effecttype>
								<mediatype>audio</mediatype>
								<pproBypass>false</pproBypass>
								<parameter authoringApp="PremierePro">
									<parameterid>level</parameterid>
									<name>Level</name>
									<valuemin>0</valuemin>
									<valuemax>3.98109</valuemax>
									<value>1</value>
									<keyframe>
										<when>88019</when>
										<value>1</value>
									</keyframe>
								</parameter>
							</effect>
						</filter>
						<link>
							<linkclipref>clipitem-177</linkclipref>
							<mediatype>audio</mediatype>
							<trackindex>1</trackindex>
							<clipindex>46</clipindex>
							<groupindex>1</groupindex>
						</link>
						<link>
							<linkclipref>clipitem-275</linkclipref>
							<mediatype>audio</mediatype>
							<trackindex>2</trackindex>
							<clipindex>36</clipindex>
							<groupindex>1</groupindex>
						</link>
						<logginginfo>
							<description></description>
							<scene>250502</scene>
							<shottake></shottake>
							<lognote></lognote>
							<good></good>
							<originalvideofilename></originalvideofilename>
							<originalaudiofilename></originalaudiofilename>
						</logginginfo>
						<colorinfo>
							<lut></lut>
							<lut1></lut1>
							<asc_sop></asc_sop>
							<asc_sat></asc_sat>
							<lut2></lut2>
						</colorinfo>
					</clipitem>
					<clipitem id="clipitem-178" premiereChannelType="stereo">
						<masterclipid>masterclip-31</masterclipid>
						<name>250502-T009.WAV</name>
						<enabled>TRUE</enabled>
						<duration>88020</duration>
						<rate>
							<timebase>30</timebase>
							<ntsc>TRUE</ntsc>
						</rate>
						<start>16784</start>
						<end>17557</end>
						<in>63517</in>
						<out>64290</out>
						<pproTicksIn>538348953542400</pproTicksIn>
						<pproTicksOut>544900644288000</pproTicksOut>
						<file id="file-31"/>
						<sourcetrack>
							<mediatype>audio</mediatype>
							<trackindex>1</trackindex>
						</sourcetrack>
						<filter>
							<effect>
								<name>Audio Levels</name>
								<effectid>audiolevels</effectid>
								<effectcategory>audiolevels</effectcategory>
								<effecttype>audiolevels</effecttype>
								<mediatype>audio</mediatype>
								<pproBypass>false</pproBypass>
								<parameter authoringApp="PremierePro">
									<parameterid>level</parameterid>
									<name>Level</name>
									<valuemin>0</valuemin>
									<valuemax>3.98109</valuemax>
									<value>1</value>
									<keyframe>
										<when>88019</when>
										<value>1</value>
									</keyframe>
								</parameter>
							</effect>
						</filter>
						<link>
							<linkclipref>clipitem-178</linkclipref>
							<mediatype>audio</mediatype>
							<trackindex>1</trackindex>
							<clipindex>47</clipindex>
							<groupindex>1</groupindex>
						</link>
						<link>
							<linkclipref>clipitem-276</linkclipref>
							<mediatype>audio</mediatype>
							<trackindex>2</trackindex>
							<clipindex>37</clipindex>
							<groupindex>1</groupindex>
						</link>
						<logginginfo>
							<description></description>
							<scene>250502</scene>
							<shottake></shottake>
							<lognote></lognote>
							<good></good>
							<originalvideofilename></originalvideofilename>
							<originalaudiofilename></originalaudiofilename>
						</logginginfo>
						<colorinfo>
							<lut></lut>
							<lut1></lut1>
							<asc_sop></asc_sop>
							<asc_sat></asc_sat>
							<lut2></lut2>
						</colorinfo>
					</clipitem>
					<clipitem id="clipitem-179" premiereChannelType="stereo">
						<masterclipid>masterclip-31</masterclipid>
						<name>250502-T009.WAV</name>
						<enabled>TRUE</enabled>
						<duration>88020</duration>
						<rate>
							<timebase>30</timebase>
							<ntsc>TRUE</ntsc>
						</rate>
						<start>17557</start>
						<end>17782</end>
						<in>65687</in>
						<out>65912</out>
						<pproTicksIn>556741151366400</pproTicksIn>
						<pproTicksOut>558648176486400</pproTicksOut>
						<file id="file-31"/>
						<sourcetrack>
							<mediatype>audio</mediatype>
							<trackindex>1</trackindex>
						</sourcetrack>
						<filter>
							<effect>
								<name>Audio Levels</name>
								<effectid>audiolevels</effectid>
								<effectcategory>audiolevels</effectcategory>
								<effecttype>audiolevels</effecttype>
								<mediatype>audio</mediatype>
								<pproBypass>false</pproBypass>
								<parameter authoringApp="PremierePro">
									<parameterid>level</parameterid>
									<name>Level</name>
									<valuemin>0</valuemin>
									<valuemax>3.98109</valuemax>
									<value>1</value>
									<keyframe>
										<when>88019</when>
										<value>1</value>
									</keyframe>
								</parameter>
							</effect>
						</filter>
						<link>
							<linkclipref>clipitem-179</linkclipref>
							<mediatype>audio</mediatype>
							<trackindex>1</trackindex>
							<clipindex>48</clipindex>
							<groupindex>1</groupindex>
						</link>
						<link>
							<linkclipref>clipitem-277</linkclipref>
							<mediatype>audio</mediatype>
							<trackindex>2</trackindex>
							<clipindex>38</clipindex>
							<groupindex>1</groupindex>
						</link>
						<logginginfo>
							<description></description>
							<scene>250502</scene>
							<shottake></shottake>
							<lognote></lognote>
							<good></good>
							<originalvideofilename></originalvideofilename>
							<originalaudiofilename></originalaudiofilename>
						</logginginfo>
						<colorinfo>
							<lut></lut>
							<lut1></lut1>
							<asc_sop></asc_sop>
							<asc_sat></asc_sat>
							<lut2></lut2>
						</colorinfo>
					</clipitem>
					<clipitem id="clipitem-180" premiereChannelType="stereo">
						<masterclipid>masterclip-31</masterclipid>
						<name>250502-T009.WAV</name>
						<enabled>TRUE</enabled>
						<duration>88020</duration>
						<rate>
							<timebase>30</timebase>
							<ntsc>TRUE</ntsc>
						</rate>
						<start>17782</start>
						<end>17880</end>
						<in>66103</in>
						<out>66201</out>
						<pproTicksIn>560267028921600</pproTicksIn>
						<pproTicksOut>561097644307200</pproTicksOut>
						<file id="file-31"/>
						<sourcetrack>
							<mediatype>audio</mediatype>
							<trackindex>1</trackindex>
						</sourcetrack>
						<filter>
							<effect>
								<name>Audio Levels</name>
								<effectid>audiolevels</effectid>
								<effectcategory>audiolevels</effectcategory>
								<effecttype>audiolevels</effecttype>
								<mediatype>audio</mediatype>
								<pproBypass>false</pproBypass>
								<parameter authoringApp="PremierePro">
									<parameterid>level</parameterid>
									<name>Level</name>
									<valuemin>0</valuemin>
									<valuemax>3.98109</valuemax>
									<value>1</value>
									<keyframe>
										<when>88019</when>
										<value>1</value>
									</keyframe>
								</parameter>
							</effect>
						</filter>
						<link>
							<linkclipref>clipitem-180</linkclipref>
							<mediatype>audio</mediatype>
							<trackindex>1</trackindex>
							<clipindex>49</clipindex>
							<groupindex>1</groupindex>
						</link>
						<link>
							<linkclipref>clipitem-278</linkclipref>
							<mediatype>audio</mediatype>
							<trackindex>2</trackindex>
							<clipindex>39</clipindex>
							<groupindex>1</groupindex>
						</link>
						<logginginfo>
							<description></description>
							<scene>250502</scene>
							<shottake></shottake>
							<lognote></lognote>
							<good></good>
							<originalvideofilename></originalvideofilename>
							<originalaudiofilename></originalaudiofilename>
						</logginginfo>
						<colorinfo>
							<lut></lut>
							<lut1></lut1>
							<asc_sop></asc_sop>
							<asc_sat></asc_sat>
							<lut2></lut2>
						</colorinfo>
					</clipitem>
					<clipitem id="clipitem-181" premiereChannelType="stereo">
						<masterclipid>masterclip-32</masterclipid>
						<name>250515-T001.WAV</name>
						<enabled>TRUE</enabled>
						<duration>88650</duration>
						<rate>
							<timebase>30</timebase>
							<ntsc>TRUE</ntsc>
						</rate>
						<start>17880</start>
						<end>17961</end>
						<in>51731</in>
						<out>51812</out>
						<pproTicksIn>438454739923200</pproTicksIn>
						<pproTicksOut>439141268966400</pproTicksOut>
						<file id="file-32">
							<name>250515-T001.wav</name>
							<pathurl>file://localhost/Volumes/EDDMA_Pos02/EDDMA_02/BRUTAS/CENAS%20CAPTADAS/20250515_01de02/AUDIO/250515/250515-T001.wav</pathurl>
							<rate>
								<timebase>30</timebase>
								<ntsc>TRUE</ntsc>
							</rate>
							<duration>88650</duration>
							<timecode>
								<rate>
									<timebase>30</timebase>
									<ntsc>TRUE</ntsc>
								</rate>
								<string>09;03;33;18</string>
								<frame>977430</frame>
								<displayformat>DF</displayformat>
								<reel>
									<name>250515</name>
								</reel>
							</timecode>
							<media>
								<audio>
									<samplecharacteristics>
										<depth>16</depth>
										<samplerate>48000</samplerate>
									</samplecharacteristics>
									<channelcount>2</channelcount>
								</audio>
							</media>
						</file>
						<sourcetrack>
							<mediatype>audio</mediatype>
							<trackindex>1</trackindex>
						</sourcetrack>
						<link>
							<linkclipref>clipitem-181</linkclipref>
							<mediatype>audio</mediatype>
							<trackindex>1</trackindex>
							<clipindex>50</clipindex>
							<groupindex>1</groupindex>
						</link>
						<link>
							<linkclipref>clipitem-279</linkclipref>
							<mediatype>audio</mediatype>
							<trackindex>2</trackindex>
							<clipindex>40</clipindex>
							<groupindex>1</groupindex>
						</link>
						<logginginfo>
							<description></description>
							<scene>250515</scene>
							<shottake></shottake>
							<lognote></lognote>
							<good></good>
							<originalvideofilename></originalvideofilename>
							<originalaudiofilename></originalaudiofilename>
						</logginginfo>
						<colorinfo>
							<lut></lut>
							<lut1></lut1>
							<asc_sop></asc_sop>
							<asc_sat></asc_sat>
							<lut2></lut2>
						</colorinfo>
						<labels>
							<label2>Caribbean</label2>
						</labels>
					</clipitem>
					<clipitem id="clipitem-182" premiereChannelType="stereo">
						<masterclipid>masterclip-32</masterclipid>
						<name>250515-T001.WAV</name>
						<enabled>TRUE</enabled>
						<duration>88650</duration>
						<rate>
							<timebase>30</timebase>
							<ntsc>TRUE</ntsc>
						</rate>
						<start>17961</start>
						<end>18317</end>
						<in>52008</in>
						<out>52364</out>
						<pproTicksIn>440802499737600</pproTicksIn>
						<pproTicksOut>443819837260800</pproTicksOut>
						<file id="file-32"/>
						<sourcetrack>
							<mediatype>audio</mediatype>
							<trackindex>1</trackindex>
						</sourcetrack>
						<link>
							<linkclipref>clipitem-182</linkclipref>
							<mediatype>audio</mediatype>
							<trackindex>1</trackindex>
							<clipindex>51</clipindex>
							<groupindex>1</groupindex>
						</link>
						<link>
							<linkclipref>clipitem-280</linkclipref>
							<mediatype>audio</mediatype>
							<trackindex>2</trackindex>
							<clipindex>41</clipindex>
							<groupindex>1</groupindex>
						</link>
						<logginginfo>
							<description></description>
							<scene>250515</scene>
							<shottake></shottake>
							<lognote></lognote>
							<good></good>
							<originalvideofilename></originalvideofilename>
							<originalaudiofilename></originalaudiofilename>
						</logginginfo>
						<colorinfo>
							<lut></lut>
							<lut1></lut1>
							<asc_sop></asc_sop>
							<asc_sat></asc_sat>
							<lut2></lut2>
						</colorinfo>
						<labels>
							<label2>Caribbean</label2>
						</labels>
					</clipitem>
					<clipitem id="clipitem-183" premiereChannelType="stereo">
						<masterclipid>masterclip-32</masterclipid>
						<name>250515-T001.WAV</name>
						<enabled>TRUE</enabled>
						<duration>88650</duration>
						<rate>
							<timebase>30</timebase>
							<ntsc>TRUE</ntsc>
						</rate>
						<start>18317</start>
						<end>18647</end>
						<in>54198</in>
						<out>54528</out>
						<pproTicksIn>459364210905600</pproTicksIn>
						<pproTicksOut>462161181081600</pproTicksOut>
						<file id="file-32"/>
						<sourcetrack>
							<mediatype>audio</mediatype>
							<trackindex>1</trackindex>
						</sourcetrack>
						<link>
							<linkclipref>clipitem-183</linkclipref>
							<mediatype>audio</mediatype>
							<trackindex>1</trackindex>
							<clipindex>52</clipindex>
							<groupindex>1</groupindex>
						</link>
						<link>
							<linkclipref>clipitem-281</linkclipref>
							<mediatype>audio</mediatype>
							<trackindex>2</trackindex>
							<clipindex>42</clipindex>
							<groupindex>1</groupindex>
						</link>
						<logginginfo>
							<description></description>
							<scene>250515</scene>
							<shottake></shottake>
							<lognote></lognote>
							<good></good>
							<originalvideofilename></originalvideofilename>
							<originalaudiofilename></originalaudiofilename>
						</logginginfo>
						<colorinfo>
							<lut></lut>
							<lut1></lut1>
							<asc_sop></asc_sop>
							<asc_sat></asc_sat>
							<lut2></lut2>
						</colorinfo>
						<labels>
							<label2>Caribbean</label2>
						</labels>
					</clipitem>
					<clipitem id="clipitem-184" premiereChannelType="stereo">
						<masterclipid>masterclip-32</masterclipid>
						<name>250515-T001.WAV</name>
						<enabled>TRUE</enabled>
						<duration>88650</duration>
						<rate>
							<timebase>30</timebase>
							<ntsc>TRUE</ntsc>
						</rate>
						<start>18647</start>
						<end>18969</end>
						<in>54536</in>
						<out>54858</out>
						<pproTicksIn>462228986419200</pproTicksIn>
						<pproTicksOut>464958151257600</pproTicksOut>
						<file id="file-32"/>
						<sourcetrack>
							<mediatype>audio</mediatype>
							<trackindex>1</trackindex>
						</sourcetrack>
						<link>
							<linkclipref>clipitem-184</linkclipref>
							<mediatype>audio</mediatype>
							<trackindex>1</trackindex>
							<clipindex>53</clipindex>
							<groupindex>1</groupindex>
						</link>
						<link>
							<linkclipref>clipitem-282</linkclipref>
							<mediatype>audio</mediatype>
							<trackindex>2</trackindex>
							<clipindex>43</clipindex>
							<groupindex>1</groupindex>
						</link>
						<logginginfo>
							<description></description>
							<scene>250515</scene>
							<shottake></shottake>
							<lognote></lognote>
							<good></good>
							<originalvideofilename></originalvideofilename>
							<originalaudiofilename></originalaudiofilename>
						</logginginfo>
						<colorinfo>
							<lut></lut>
							<lut1></lut1>
							<asc_sop></asc_sop>
							<asc_sat></asc_sat>
							<lut2></lut2>
						</colorinfo>
						<labels>
							<label2>Caribbean</label2>
						</labels>
					</clipitem>
					<clipitem id="clipitem-185" premiereChannelType="stereo">
						<masterclipid>masterclip-30</masterclipid>
						<name>250430-T003.WAV</name>
						<enabled>TRUE</enabled>
						<duration>76170</duration>
						<rate>
							<timebase>30</timebase>
							<ntsc>TRUE</ntsc>
						</rate>
						<start>18969</start>
						<end>19523</end>
						<in>15305</in>
						<out>15859</out>
						<pproTicksIn>129720086496000</pproTicksIn>
						<pproTicksOut>134415606124800</pproTicksOut>
						<file id="file-30"/>
						<sourcetrack>
							<mediatype>audio</mediatype>
							<trackindex>1</trackindex>
						</sourcetrack>
						<link>
							<linkclipref>clipitem-185</linkclipref>
							<mediatype>audio</mediatype>
							<trackindex>1</trackindex>
							<clipindex>54</clipindex>
							<groupindex>1</groupindex>
						</link>
						<link>
							<linkclipref>clipitem-283</linkclipref>
							<mediatype>audio</mediatype>
							<trackindex>2</trackindex>
							<clipindex>44</clipindex>
							<groupindex>1</groupindex>
						</link>
						<logginginfo>
							<description></description>
							<scene>250430</scene>
							<shottake></shottake>
							<lognote></lognote>
							<good></good>
							<originalvideofilename></originalvideofilename>
							<originalaudiofilename></originalaudiofilename>
						</logginginfo>
						<colorinfo>
							<lut></lut>
							<lut1></lut1>
							<asc_sop></asc_sop>
							<asc_sat></asc_sat>
							<lut2></lut2>
						</colorinfo>
					</clipitem>
					<clipitem id="clipitem-186" premiereChannelType="stereo">
						<masterclipid>masterclip-30</masterclipid>
						<name>250430-T003.WAV</name>
						<enabled>TRUE</enabled>
						<duration>76170</duration>
						<rate>
							<timebase>30</timebase>
							<ntsc>TRUE</ntsc>
						</rate>
						<start>19523</start>
						<end>19651</end>
						<in>16034</in>
						<out>16162</out>
						<pproTicksIn>135898847884800</pproTicksIn>
						<pproTicksOut>136983733286400</pproTicksOut>
						<file id="file-30"/>
						<sourcetrack>
							<mediatype>audio</mediatype>
							<trackindex>1</trackindex>
						</sourcetrack>
						<link>
							<linkclipref>clipitem-186</linkclipref>
							<mediatype>audio</mediatype>
							<trackindex>1</trackindex>
							<clipindex>55</clipindex>
							<groupindex>1</groupindex>
						</link>
						<link>
							<linkclipref>clipitem-284</linkclipref>
							<mediatype>audio</mediatype>
							<trackindex>2</trackindex>
							<clipindex>45</clipindex>
							<groupindex>1</groupindex>
						</link>
						<logginginfo>
							<description></description>
							<scene>250430</scene>
							<shottake></shottake>
							<lognote></lognote>
							<good></good>
							<originalvideofilename></originalvideofilename>
							<originalaudiofilename></originalaudiofilename>
						</logginginfo>
						<colorinfo>
							<lut></lut>
							<lut1></lut1>
							<asc_sop></asc_sop>
							<asc_sat></asc_sat>
							<lut2></lut2>
						</colorinfo>
					</clipitem>
					<clipitem id="clipitem-187" premiereChannelType="stereo">
						<masterclipid>masterclip-28</masterclipid>
						<name>250515-T014.WAV</name>
						<enabled>TRUE</enabled>
						<duration>84540</duration>
						<rate>
							<timebase>30</timebase>
							<ntsc>TRUE</ntsc>
						</rate>
						<start>19651</start>
						<end>19972</end>
						<in>73091</in>
						<out>73412</out>
						<pproTicksIn>619494991315200</pproTicksIn>
						<pproTicksOut>622215680486400</pproTicksOut>
						<file id="file-28"/>
						<sourcetrack>
							<mediatype>audio</mediatype>
							<trackindex>1</trackindex>
						</sourcetrack>
						<link>
							<linkclipref>clipitem-187</linkclipref>
							<mediatype>audio</mediatype>
							<trackindex>1</trackindex>
							<clipindex>56</clipindex>
							<groupindex>1</groupindex>
						</link>
						<link>
							<linkclipref>clipitem-285</linkclipref>
							<mediatype>audio</mediatype>
							<trackindex>2</trackindex>
							<clipindex>46</clipindex>
							<groupindex>1</groupindex>
						</link>
						<logginginfo>
							<description></description>
							<scene>250515</scene>
							<shottake></shottake>
							<lognote></lognote>
							<good></good>
							<originalvideofilename></originalvideofilename>
							<originalaudiofilename></originalaudiofilename>
						</logginginfo>
						<colorinfo>
							<lut></lut>
							<lut1></lut1>
							<asc_sop></asc_sop>
							<asc_sat></asc_sat>
							<lut2></lut2>
						</colorinfo>
						<labels>
							<label2>Caribbean</label2>
						</labels>
					</clipitem>
					<clipitem id="clipitem-188" premiereChannelType="stereo">
						<masterclipid>masterclip-28</masterclipid>
						<name>250515-T014.WAV</name>
						<enabled>TRUE</enabled>
						<duration>84540</duration>
						<rate>
							<timebase>30</timebase>
							<ntsc>TRUE</ntsc>
						</rate>
						<start>19972</start>
						<end>20691</end>
						<in>73782</in>
						<out>74501</out>
						<pproTicksIn>625351677350400</pproTicksIn>
						<pproTicksOut>631445682067200</pproTicksOut>
						<file id="file-28"/>
						<sourcetrack>
							<mediatype>audio</mediatype>
							<trackindex>1</trackindex>
						</sourcetrack>
						<link>
							<linkclipref>clipitem-188</linkclipref>
							<mediatype>audio</mediatype>
							<trackindex>1</trackindex>
							<clipindex>57</clipindex>
							<groupindex>1</groupindex>
						</link>
						<link>
							<linkclipref>clipitem-286</linkclipref>
							<mediatype>audio</mediatype>
							<trackindex>2</trackindex>
							<clipindex>47</clipindex>
							<groupindex>1</groupindex>
						</link>
						<logginginfo>
							<description></description>
							<scene>250515</scene>
							<shottake></shottake>
							<lognote></lognote>
							<good></good>
							<originalvideofilename></originalvideofilename>
							<originalaudiofilename></originalaudiofilename>
						</logginginfo>
						<colorinfo>
							<lut></lut>
							<lut1></lut1>
							<asc_sop></asc_sop>
							<asc_sat></asc_sat>
							<lut2></lut2>
						</colorinfo>
						<labels>
							<label2>Caribbean</label2>
						</labels>
					</clipitem>
					<clipitem id="clipitem-189" premiereChannelType="stereo">
						<masterclipid>masterclip-28</masterclipid>
						<name>250515-T014.WAV</name>
						<enabled>TRUE</enabled>
						<duration>84540</duration>
						<rate>
							<timebase>30</timebase>
							<ntsc>TRUE</ntsc>
						</rate>
						<start>20691</start>
						<end>20918</end>
						<in>75447</in>
						<out>75674</out>
						<pproTicksIn>639463663238400</pproTicksIn>
						<pproTicksOut>641387639692800</pproTicksOut>
						<file id="file-28"/>
						<sourcetrack>
							<mediatype>audio</mediatype>
							<trackindex>1</trackindex>
						</sourcetrack>
						<link>
							<linkclipref>clipitem-189</linkclipref>
							<mediatype>audio</mediatype>
							<trackindex>1</trackindex>
							<clipindex>58</clipindex>
							<groupindex>1</groupindex>
						</link>
						<link>
							<linkclipref>clipitem-287</linkclipref>
							<mediatype>audio</mediatype>
							<trackindex>2</trackindex>
							<clipindex>48</clipindex>
							<groupindex>1</groupindex>
						</link>
						<logginginfo>
							<description></description>
							<scene>250515</scene>
							<shottake></shottake>
							<lognote></lognote>
							<good></good>
							<originalvideofilename></originalvideofilename>
							<originalaudiofilename></originalaudiofilename>
						</logginginfo>
						<colorinfo>
							<lut></lut>
							<lut1></lut1>
							<asc_sop></asc_sop>
							<asc_sat></asc_sat>
							<lut2></lut2>
						</colorinfo>
						<labels>
							<label2>Caribbean</label2>
						</labels>
					</clipitem>
					<clipitem id="clipitem-190" premiereChannelType="stereo">
						<masterclipid>masterclip-33</masterclipid>
						<name>250516-T014.WAV</name>
						<enabled>TRUE</enabled>
						<duration>22800</duration>
						<rate>
							<timebase>30</timebase>
							<ntsc>TRUE</ntsc>
						</rate>
						<start>20918</start>
						<end>21217</end>
						<in>10608</in>
						<out>10907</out>
						<pproTicksIn>89909877657600</pproTicksIn>
						<pproTicksOut>92444102150400</pproTicksOut>
						<file id="file-33">
							<name>250516-T014.wav</name>
							<pathurl>file://localhost/Volumes/EDDMA_Pos02/EDDMA_02/BRUTAS/CENAS%20CAPTADAS/20250516/AUDIO/250516/250516-T014.wav</pathurl>
							<rate>
								<timebase>30</timebase>
								<ntsc>TRUE</ntsc>
							</rate>
							<duration>22800</duration>
							<timecode>
								<rate>
									<timebase>30</timebase>
									<ntsc>TRUE</ntsc>
								</rate>
								<string>20;16;25;00</string>
								<frame>2187360</frame>
								<displayformat>DF</displayformat>
								<reel>
									<name>250516</name>
								</reel>
							</timecode>
							<media>
								<audio>
									<samplecharacteristics>
										<depth>16</depth>
										<samplerate>48000</samplerate>
									</samplecharacteristics>
									<channelcount>2</channelcount>
								</audio>
							</media>
						</file>
						<sourcetrack>
							<mediatype>audio</mediatype>
							<trackindex>1</trackindex>
						</sourcetrack>
						<link>
							<linkclipref>clipitem-190</linkclipref>
							<mediatype>audio</mediatype>
							<trackindex>1</trackindex>
							<clipindex>59</clipindex>
							<groupindex>1</groupindex>
						</link>
						<link>
							<linkclipref>clipitem-288</linkclipref>
							<mediatype>audio</mediatype>
							<trackindex>2</trackindex>
							<clipindex>49</clipindex>
							<groupindex>1</groupindex>
						</link>
						<logginginfo>
							<description></description>
							<scene>250516</scene>
							<shottake></shottake>
							<lognote></lognote>
							<good></good>
							<originalvideofilename></originalvideofilename>
							<originalaudiofilename></originalaudiofilename>
						</logginginfo>
						<colorinfo>
							<lut></lut>
							<lut1></lut1>
							<asc_sop></asc_sop>
							<asc_sat></asc_sat>
							<lut2></lut2>
						</colorinfo>
						<labels>
							<label2>Caribbean</label2>
						</labels>
					</clipitem>
					<clipitem id="clipitem-191" premiereChannelType="stereo">
						<masterclipid>masterclip-34</masterclipid>
						<name>250516-T015.WAV</name>
						<enabled>TRUE</enabled>
						<duration>41790</duration>
						<rate>
							<timebase>30</timebase>
							<ntsc>TRUE</ntsc>
						</rate>
						<start>21217</start>
						<end>21396</end>
						<in>8507</in>
						<out>8686</out>
						<pproTicksIn>72102500870400</pproTicksIn>
						<pproTicksOut>73619645299200</pproTicksOut>
						<file id="file-34">
							<name>250516-T015.wav</name>
							<pathurl>file://localhost/Volumes/EDDMA_Pos02/EDDMA_02/BRUTAS/CENAS%20CAPTADAS/20250516/AUDIO/250516/250516-T015.wav</pathurl>
							<rate>
								<timebase>30</timebase>
								<ntsc>TRUE</ntsc>
							</rate>
							<duration>41790</duration>
							<timecode>
								<rate>
									<timebase>30</timebase>
									<ntsc>TRUE</ntsc>
								</rate>
								<string>20;29;07;24</string>
								<frame>2210220</frame>
								<displayformat>DF</displayformat>
								<reel>
									<name>250516</name>
								</reel>
							</timecode>
							<media>
								<audio>
									<samplecharacteristics>
										<depth>16</depth>
										<samplerate>48000</samplerate>
									</samplecharacteristics>
									<channelcount>2</channelcount>
								</audio>
							</media>
						</file>
						<sourcetrack>
							<mediatype>audio</mediatype>
							<trackindex>1</trackindex>
						</sourcetrack>
						<link>
							<linkclipref>clipitem-191</linkclipref>
							<mediatype>audio</mediatype>
							<trackindex>1</trackindex>
							<clipindex>60</clipindex>
							<groupindex>1</groupindex>
						</link>
						<link>
							<linkclipref>clipitem-289</linkclipref>
							<mediatype>audio</mediatype>
							<trackindex>2</trackindex>
							<clipindex>50</clipindex>
							<groupindex>1</groupindex>
						</link>
						<logginginfo>
							<description></description>
							<scene>250516</scene>
							<shottake></shottake>
							<lognote></lognote>
							<good></good>
							<originalvideofilename></originalvideofilename>
							<originalaudiofilename></originalaudiofilename>
						</logginginfo>
						<colorinfo>
							<lut></lut>
							<lut1></lut1>
							<asc_sop></asc_sop>
							<asc_sat></asc_sat>
							<lut2></lut2>
						</colorinfo>
						<labels>
							<label2>Caribbean</label2>
						</labels>
					</clipitem>
					<clipitem id="clipitem-192" premiereChannelType="stereo">
						<masterclipid>masterclip-34</masterclipid>
						<name>250516-T015.WAV</name>
						<enabled>TRUE</enabled>
						<duration>41790</duration>
						<rate>
							<timebase>30</timebase>
							<ntsc>TRUE</ntsc>
						</rate>
						<start>21396</start>
						<end>21674</end>
						<in>9683</in>
						<out>9961</out>
						<pproTicksIn>82069885497600</pproTicksIn>
						<pproTicksOut>84426120979200</pproTicksOut>
						<file id="file-34"/>
						<sourcetrack>
							<mediatype>audio</mediatype>
							<trackindex>1</trackindex>
						</sourcetrack>
						<link>
							<linkclipref>clipitem-192</linkclipref>
							<mediatype>audio</mediatype>
							<trackindex>1</trackindex>
							<clipindex>61</clipindex>
							<groupindex>1</groupindex>
						</link>
						<link>
							<linkclipref>clipitem-290</linkclipref>
							<mediatype>audio</mediatype>
							<trackindex>2</trackindex>
							<clipindex>51</clipindex>
							<groupindex>1</groupindex>
						</link>
						<logginginfo>
							<description></description>
							<scene>250516</scene>
							<shottake></shottake>
							<lognote></lognote>
							<good></good>
							<originalvideofilename></originalvideofilename>
							<originalaudiofilename></originalaudiofilename>
						</logginginfo>
						<colorinfo>
							<lut></lut>
							<lut1></lut1>
							<asc_sop></asc_sop>
							<asc_sat></asc_sat>
							<lut2></lut2>
						</colorinfo>
						<labels>
							<label2>Caribbean</label2>
						</labels>
					</clipitem>
					<clipitem id="clipitem-193" premiereChannelType="stereo">
						<masterclipid>masterclip-34</masterclipid>
						<name>250516-T015.WAV</name>
						<enabled>TRUE</enabled>
						<duration>41790</duration>
						<rate>
							<timebase>30</timebase>
							<ntsc>TRUE</ntsc>
						</rate>
						<start>21674</start>
						<end>21793</end>
						<in>10404</in>
						<out>10523</out>
						<pproTicksIn>88180841548800</pproTicksIn>
						<pproTicksOut>89189445945600</pproTicksOut>
						<file id="file-34"/>
						<sourcetrack>
							<mediatype>audio</mediatype>
							<trackindex>1</trackindex>
						</sourcetrack>
						<link>
							<linkclipref>clipitem-193</linkclipref>
							<mediatype>audio</mediatype>
							<trackindex>1</trackindex>
							<clipindex>62</clipindex>
							<groupindex>1</groupindex>
						</link>
						<link>
							<linkclipref>clipitem-291</linkclipref>
							<mediatype>audio</mediatype>
							<trackindex>2</trackindex>
							<clipindex>52</clipindex>
							<groupindex>1</groupindex>
						</link>
						<logginginfo>
							<description></description>
							<scene>250516</scene>
							<shottake></shottake>
							<lognote></lognote>
							<good></good>
							<originalvideofilename></originalvideofilename>
							<originalaudiofilename></originalaudiofilename>
						</logginginfo>
						<colorinfo>
							<lut></lut>
							<lut1></lut1>
							<asc_sop></asc_sop>
							<asc_sat></asc_sat>
							<lut2></lut2>
						</colorinfo>
						<labels>
							<label2>Caribbean</label2>
						</labels>
					</clipitem>
					<clipitem id="clipitem-194" premiereChannelType="stereo">
						<masterclipid>masterclip-34</masterclipid>
						<name>250516-T015.WAV</name>
						<enabled>TRUE</enabled>
						<duration>41790</duration>
						<rate>
							<timebase>30</timebase>
							<ntsc>TRUE</ntsc>
						</rate>
						<start>21793</start>
						<end>21921</end>
						<in>10688</in>
						<out>10816</out>
						<pproTicksIn>90587931033600</pproTicksIn>
						<pproTicksOut>91672816435200</pproTicksOut>
						<file id="file-34"/>
						<sourcetrack>
							<mediatype>audio</mediatype>
							<trackindex>1</trackindex>
						</sourcetrack>
						<link>
							<linkclipref>clipitem-194</linkclipref>
							<mediatype>audio</mediatype>
							<trackindex>1</trackindex>
							<clipindex>63</clipindex>
							<groupindex>1</groupindex>
						</link>
						<link>
							<linkclipref>clipitem-292</linkclipref>
							<mediatype>audio</mediatype>
							<trackindex>2</trackindex>
							<clipindex>53</clipindex>
							<groupindex>1</groupindex>
						</link>
						<logginginfo>
							<description></description>
							<scene>250516</scene>
							<shottake></shottake>
							<lognote></lognote>
							<good></good>
							<originalvideofilename></originalvideofilename>
							<originalaudiofilename></originalaudiofilename>
						</logginginfo>
						<colorinfo>
							<lut></lut>
							<lut1></lut1>
							<asc_sop></asc_sop>
							<asc_sat></asc_sat>
							<lut2></lut2>
						</colorinfo>
						<labels>
							<label2>Caribbean</label2>
						</labels>
					</clipitem>
					<clipitem id="clipitem-195" premiereChannelType="stereo">
						<masterclipid>masterclip-34</masterclipid>
						<name>250516-T015.WAV</name>
						<enabled>TRUE</enabled>
						<duration>41790</duration>
						<rate>
							<timebase>30</timebase>
							<ntsc>TRUE</ntsc>
						</rate>
						<start>21921</start>
						<end>22061</end>
						<in>10847</in>
						<out>10987</out>
						<pproTicksIn>91935562118400</pproTicksIn>
						<pproTicksOut>93122155526400</pproTicksOut>
						<file id="file-34"/>
						<sourcetrack>
							<mediatype>audio</mediatype>
							<trackindex>1</trackindex>
						</sourcetrack>
						<link>
							<linkclipref>clipitem-195</linkclipref>
							<mediatype>audio</mediatype>
							<trackindex>1</trackindex>
							<clipindex>64</clipindex>
							<groupindex>1</groupindex>
						</link>
						<link>
							<linkclipref>clipitem-293</linkclipref>
							<mediatype>audio</mediatype>
							<trackindex>2</trackindex>
							<clipindex>54</clipindex>
							<groupindex>1</groupindex>
						</link>
						<logginginfo>
							<description></description>
							<scene>250516</scene>
							<shottake></shottake>
							<lognote></lognote>
							<good></good>
							<originalvideofilename></originalvideofilename>
							<originalaudiofilename></originalaudiofilename>
						</logginginfo>
						<colorinfo>
							<lut></lut>
							<lut1></lut1>
							<asc_sop></asc_sop>
							<asc_sat></asc_sat>
							<lut2></lut2>
						</colorinfo>
						<labels>
							<label2>Caribbean</label2>
						</labels>
					</clipitem>
					<clipitem id="clipitem-196" premiereChannelType="stereo">
						<masterclipid>masterclip-13</masterclipid>
						<name>2025-03-20 04-05-37 .mov</name>
						<enabled>TRUE</enabled>
						<duration>47458</duration>
						<rate>
							<timebase>30</timebase>
							<ntsc>TRUE</ntsc>
						</rate>
						<start>22061</start>
						<end>22218</end>
						<in>1087</in>
						<out>1244</out>
						<pproTicksIn>9213050246400</pproTicksIn>
						<pproTicksOut>10543729996800</pproTicksOut>
						<file id="file-13"/>
						<sourcetrack>
							<mediatype>audio</mediatype>
							<trackindex>1</trackindex>
						</sourcetrack>
							<marker>
								<comment>Futuro Compartilhado&#13;Perseverança&#13;Participaçao popular e ativismo&#13;Consciencia humana&#13;Energia e petroleo</comment>
								<name>Futuro</name>
								<in>16493</in>
								<out>-1</out>
							</marker>
							<marker>
								<comment>Consciencia humana&#13;Extinçoes&#13;</comment>
								<name>Desequilibrio ambiental</name>
								<in>41222</in>
								<out>-1</out>
							</marker>
							<marker>
								<comment>Lutzenberger teia de aranha&#13;Ligaçoes integradas</comment>
								<name>Desequilibrio ambiental</name>
								<in>44214</in>
								<out>-1</out>
							</marker>
							<marker>
								<comment>ESG&#13;Lobby&#13;Politicas publicas ambientais&#13;Certificados ecologicos</comment>
								<name>Politica</name>
								<in>11320</in>
								<out>-1</out>
							</marker>
							<marker>
								<comment>Trump&#13;Empresas acima do Estado&#13;Economia acima do ser humano&#13;Atraso Ultraliberalismo</comment>
								<name>Politica</name>
								<in>4927</in>
								<out>-1</out>
							</marker>
							<marker>
								<comment>Reflexao filosofica&#13;Ciencia estuda a vida&#13;Tecnologia e economia</comment>
								<name>Ciencia tecnologia</name>
								<in>24604</in>
								<out>-1</out>
							</marker>
							<marker>
								<comment>Comparaçao Lutzenberger e Ivan Illich</comment>
								<name>Precursores</name>
								<in>34594</in>
								<out>-1</out>
							</marker>
							<marker>
								<comment>Ivan Illich&#13;Educaçao&#13;Cita The Wall Pink Floyd&#13;Povos originarios indigenas&#13;Industria da Saude</comment>
								<name>Precursores</name>
								<in>35867</in>
								<out>-1</out>
							</marker>
							<marker>
								<comment>Falta de politicas para reduzir consumo combustivel fossil&#13;</comment>
								<name>Politica</name>
								<in>824</in>
								<out>-1</out>
							</marker>
						<link>
							<linkclipref>clipitem-65</linkclipref>
							<mediatype>video</mediatype>
							<trackindex>1</trackindex>
							<clipindex>65</clipindex>
						</link>
						<link>
							<linkclipref>clipitem-196</linkclipref>
							<mediatype>audio</mediatype>
							<trackindex>1</trackindex>
							<clipindex>65</clipindex>
							<groupindex>1</groupindex>
						</link>
						<link>
							<linkclipref>clipitem-294</linkclipref>
							<mediatype>audio</mediatype>
							<trackindex>2</trackindex>
							<clipindex>55</clipindex>
							<groupindex>1</groupindex>
						</link>
						<logginginfo>
							<description></description>
							<scene></scene>
							<shottake></shottake>
							<lognote></lognote>
							<good></good>
							<originalvideofilename></originalvideofilename>
							<originalaudiofilename></originalaudiofilename>
						</logginginfo>
						<colorinfo>
							<lut></lut>
							<lut1></lut1>
							<asc_sop></asc_sop>
							<asc_sat></asc_sat>
							<lut2></lut2>
						</colorinfo>
					</clipitem>
					<clipitem id="clipitem-197" premiereChannelType="stereo">
						<masterclipid>masterclip-13</masterclipid>
						<name>2025-03-20 04-05-37 .mov</name>
						<enabled>TRUE</enabled>
						<duration>47458</duration>
						<rate>
							<timebase>30</timebase>
							<ntsc>TRUE</ntsc>
						</rate>
						<start>22218</start>
						<end>23035</end>
						<in>2258</in>
						<out>3075</out>
						<pproTicksIn>19138056537600</pproTicksIn>
						<pproTicksOut>26062676640000</pproTicksOut>
						<file id="file-13"/>
						<sourcetrack>
							<mediatype>audio</mediatype>
							<trackindex>1</trackindex>
						</sourcetrack>
							<marker>
								<comment>Futuro Compartilhado&#13;Perseverança&#13;Participaçao popular e ativismo&#13;Consciencia humana&#13;Energia e petroleo</comment>
								<name>Futuro</name>
								<in>16493</in>
								<out>-1</out>
							</marker>
							<marker>
								<comment>Consciencia humana&#13;Extinçoes&#13;</comment>
								<name>Desequilibrio ambiental</name>
								<in>41222</in>
								<out>-1</out>
							</marker>
							<marker>
								<comment>Lutzenberger teia de aranha&#13;Ligaçoes integradas</comment>
								<name>Desequilibrio ambiental</name>
								<in>44214</in>
								<out>-1</out>
							</marker>
							<marker>
								<comment>ESG&#13;Lobby&#13;Politicas publicas ambientais&#13;Certificados ecologicos</comment>
								<name>Politica</name>
								<in>11320</in>
								<out>-1</out>
							</marker>
							<marker>
								<comment>Trump&#13;Empresas acima do Estado&#13;Economia acima do ser humano&#13;Atraso Ultraliberalismo</comment>
								<name>Politica</name>
								<in>4927</in>
								<out>-1</out>
							</marker>
							<marker>
								<comment>Reflexao filosofica&#13;Ciencia estuda a vida&#13;Tecnologia e economia</comment>
								<name>Ciencia tecnologia</name>
								<in>24604</in>
								<out>-1</out>
							</marker>
							<marker>
								<comment>Comparaçao Lutzenberger e Ivan Illich</comment>
								<name>Precursores</name>
								<in>34594</in>
								<out>-1</out>
							</marker>
							<marker>
								<comment>Ivan Illich&#13;Educaçao&#13;Cita The Wall Pink Floyd&#13;Povos originarios indigenas&#13;Industria da Saude</comment>
								<name>Precursores</name>
								<in>35867</in>
								<out>-1</out>
							</marker>
							<marker>
								<comment>Falta de politicas para reduzir consumo combustivel fossil&#13;</comment>
								<name>Politica</name>
								<in>824</in>
								<out>-1</out>
							</marker>
						<link>
							<linkclipref>clipitem-66</linkclipref>
							<mediatype>video</mediatype>
							<trackindex>1</trackindex>
							<clipindex>66</clipindex>
						</link>
						<link>
							<linkclipref>clipitem-197</linkclipref>
							<mediatype>audio</mediatype>
							<trackindex>1</trackindex>
							<clipindex>66</clipindex>
							<groupindex>1</groupindex>
						</link>
						<link>
							<linkclipref>clipitem-295</linkclipref>
							<mediatype>audio</mediatype>
							<trackindex>2</trackindex>
							<clipindex>56</clipindex>
							<groupindex>1</groupindex>
						</link>
						<logginginfo>
							<description></description>
							<scene></scene>
							<shottake></shottake>
							<lognote></lognote>
							<good></good>
							<originalvideofilename></originalvideofilename>
							<originalaudiofilename></originalaudiofilename>
						</logginginfo>
						<colorinfo>
							<lut></lut>
							<lut1></lut1>
							<asc_sop></asc_sop>
							<asc_sat></asc_sat>
							<lut2></lut2>
						</colorinfo>
					</clipitem>
					<clipitem id="clipitem-198" premiereChannelType="stereo">
						<masterclipid>masterclip-14</masterclipid>
						<name>2025-03-20 03-40-16 .mov</name>
						<enabled>TRUE</enabled>
						<duration>45538</duration>
						<rate>
							<timebase>30</timebase>
							<ntsc>TRUE</ntsc>
						</rate>
						<start>23035</start>
						<end>23803</end>
						<in>37453</in>
						<out>38221</out>
						<pproTicksIn>317439163641600</pproTicksIn>
						<pproTicksOut>323948476051200</pproTicksOut>
						<file id="file-14"/>
						<sourcetrack>
							<mediatype>audio</mediatype>
							<trackindex>1</trackindex>
						</sourcetrack>
							<marker>
								<comment>Reflexao filosofica&#13;Mudanças climaticas&#13;Interferencia humana&#13;Historia do planeta&#13;Cita Lutzenberger&#13;Planeta maior do que humano&#13;</comment>
								<name>Eras do Planeta</name>
								<in>2136</in>
								<out>-1</out>
							</marker>
							<marker>
								<comment>Reflexao filosofica&#13;Fosseis&#13;Historia do Planeta&#13;Dataçao de carbono&#13;Oceanos e continentes&#13;</comment>
								<name>Eras do Planeta</name>
								<in>11859</in>
								<out>-1</out>
							</marker>
							<marker>
								<comment>Reflexao filosofica&#13;Entendimento cognitivo do ser humano&#13;Movimento ecologico&#13;Desequilibrio ambiental&#13;Ser humano sem predador se torna seu proprio inimigo&#13;Conferencia mundial acordos internacionais&#13;Cita Lutzenberger&#13;Josue de Castro&#13;Aumento populacional&#13;Densidade demografica&#13;Futuro e distopia&#13;Desenvolvimento economico</comment>
								<name>Eras do Planeta</name>
								<in>13898</in>
								<out>-1</out>
							</marker>
							<marker>
								<comment></comment>
								<name>Falha de imagem e som</name>
								<in>27423</in>
								<out>-1</out>
								<pproColor>4281740498</pproColor>
							</marker>
							<marker>
								<comment>Lutzenberger&#13;</comment>
								<name>Precursores</name>
								<in>29719</in>
								<out>-1</out>
							</marker>
							<marker>
								<comment>Reflexao filosofica&#13;Extincoes&#13;Floresta Araucaria remanescente&#13;Fosseis&#13;</comment>
								<name>Eras do Planeta</name>
								<in>8880</in>
								<out>-1</out>
							</marker>
							<marker>
								<comment>Reflexao filosofica&#13;Extincoes&#13;Surgimento do ser humano</comment>
								<name>Eras do Planeta</name>
								<in>7547</in>
								<out>-1</out>
							</marker>
							<marker>
								<comment>Reflexao&#13;Governo economia lobby contra interesse publico&#13;Futuro compartilhado BRICS&#13;Exemplo China desertos&#13;Reduçao consumo petroleo&#13;Transiçao energetica&#13;Acordos internacionais Paris</comment>
								<name>Politica</name>
								<in>32011</in>
								<out>-1</out>
							</marker>
						<link>
							<linkclipref>clipitem-67</linkclipref>
							<mediatype>video</mediatype>
							<trackindex>1</trackindex>
							<clipindex>67</clipindex>
						</link>
						<link>
							<linkclipref>clipitem-198</linkclipref>
							<mediatype>audio</mediatype>
							<trackindex>1</trackindex>
							<clipindex>67</clipindex>
							<groupindex>1</groupindex>
						</link>
						<link>
							<linkclipref>clipitem-296</linkclipref>
							<mediatype>audio</mediatype>
							<trackindex>2</trackindex>
							<clipindex>57</clipindex>
							<groupindex>1</groupindex>
						</link>
						<logginginfo>
							<description></description>
							<scene></scene>
							<shottake></shottake>
							<lognote></lognote>
							<good></good>
							<originalvideofilename></originalvideofilename>
							<originalaudiofilename></originalaudiofilename>
						</logginginfo>
						<colorinfo>
							<lut></lut>
							<lut1></lut1>
							<asc_sop></asc_sop>
							<asc_sat></asc_sat>
							<lut2></lut2>
						</colorinfo>
					</clipitem>
					<clipitem id="clipitem-199" premiereChannelType="stereo">
						<masterclipid>masterclip-14</masterclipid>
						<name>2025-03-20 03-40-16 .mov</name>
						<enabled>TRUE</enabled>
						<duration>45538</duration>
						<rate>
							<timebase>30</timebase>
							<ntsc>TRUE</ntsc>
						</rate>
						<start>23803</start>
						<end>24111</end>
						<in>42866</in>
						<out>43174</out>
						<pproTicksIn>363317950195200</pproTicksIn>
						<pproTicksOut>365928455692800</pproTicksOut>
						<file id="file-14"/>
						<sourcetrack>
							<mediatype>audio</mediatype>
							<trackindex>1</trackindex>
						</sourcetrack>
							<marker>
								<comment>Reflexao filosofica&#13;Mudanças climaticas&#13;Interferencia humana&#13;Historia do planeta&#13;Cita Lutzenberger&#13;Planeta maior do que humano&#13;</comment>
								<name>Eras do Planeta</name>
								<in>2136</in>
								<out>-1</out>
							</marker>
							<marker>
								<comment>Reflexao filosofica&#13;Fosseis&#13;Historia do Planeta&#13;Dataçao de carbono&#13;Oceanos e continentes&#13;</comment>
								<name>Eras do Planeta</name>
								<in>11859</in>
								<out>-1</out>
							</marker>
							<marker>
								<comment>Reflexao filosofica&#13;Entendimento cognitivo do ser humano&#13;Movimento ecologico&#13;Desequilibrio ambiental&#13;Ser humano sem predador se torna seu proprio inimigo&#13;Conferencia mundial acordos internacionais&#13;Cita Lutzenberger&#13;Josue de Castro&#13;Aumento populacional&#13;Densidade demografica&#13;Futuro e distopia&#13;Desenvolvimento economico</comment>
								<name>Eras do Planeta</name>
								<in>13898</in>
								<out>-1</out>
							</marker>
							<marker>
								<comment></comment>
								<name>Falha de imagem e som</name>
								<in>27423</in>
								<out>-1</out>
								<pproColor>4281740498</pproColor>
							</marker>
							<marker>
								<comment>Lutzenberger&#13;</comment>
								<name>Precursores</name>
								<in>29719</in>
								<out>-1</out>
							</marker>
							<marker>
								<comment>Reflexao filosofica&#13;Extincoes&#13;Floresta Araucaria remanescente&#13;Fosseis&#13;</comment>
								<name>Eras do Planeta</name>
								<in>8880</in>
								<out>-1</out>
							</marker>
							<marker>
								<comment>Reflexao filosofica&#13;Extincoes&#13;Surgimento do ser humano</comment>
								<name>Eras do Planeta</name>
								<in>7547</in>
								<out>-1</out>
							</marker>
							<marker>
								<comment>Reflexao&#13;Governo economia lobby contra interesse publico&#13;Futuro compartilhado BRICS&#13;Exemplo China desertos&#13;Reduçao consumo petroleo&#13;Transiçao energetica&#13;Acordos internacionais Paris</comment>
								<name>Politica</name>
								<in>32011</in>
								<out>-1</out>
							</marker>
						<link>
							<linkclipref>clipitem-68</linkclipref>
							<mediatype>video</mediatype>
							<trackindex>1</trackindex>
							<clipindex>68</clipindex>
						</link>
						<link>
							<linkclipref>clipitem-199</linkclipref>
							<mediatype>audio</mediatype>
							<trackindex>1</trackindex>
							<clipindex>68</clipindex>
							<groupindex>1</groupindex>
						</link>
						<link>
							<linkclipref>clipitem-297</linkclipref>
							<mediatype>audio</mediatype>
							<trackindex>2</trackindex>
							<clipindex>58</clipindex>
							<groupindex>1</groupindex>
						</link>
						<logginginfo>
							<description></description>
							<scene></scene>
							<shottake></shottake>
							<lognote></lognote>
							<good></good>
							<originalvideofilename></originalvideofilename>
							<originalaudiofilename></originalaudiofilename>
						</logginginfo>
						<colorinfo>
							<lut></lut>
							<lut1></lut1>
							<asc_sop></asc_sop>
							<asc_sat></asc_sat>
							<lut2></lut2>
						</colorinfo>
					</clipitem>
					<clipitem id="clipitem-200" premiereChannelType="stereo">
						<masterclipid>masterclip-14</masterclipid>
						<name>2025-03-20 03-40-16 .mov</name>
						<enabled>TRUE</enabled>
						<duration>45538</duration>
						<rate>
							<timebase>30</timebase>
							<ntsc>TRUE</ntsc>
						</rate>
						<start>24111</start>
						<end>24568</end>
						<in>43624</in>
						<out>44081</out>
						<pproTicksIn>369742505932800</pproTicksIn>
						<pproTicksOut>373615885843200</pproTicksOut>
						<file id="file-14"/>
						<sourcetrack>
							<mediatype>audio</mediatype>
							<trackindex>1</trackindex>
						</sourcetrack>
							<marker>
								<comment>Reflexao filosofica&#13;Mudanças climaticas&#13;Interferencia humana&#13;Historia do planeta&#13;Cita Lutzenberger&#13;Planeta maior do que humano&#13;</comment>
								<name>Eras do Planeta</name>
								<in>2136</in>
								<out>-1</out>
							</marker>
							<marker>
								<comment>Reflexao filosofica&#13;Fosseis&#13;Historia do Planeta&#13;Dataçao de carbono&#13;Oceanos e continentes&#13;</comment>
								<name>Eras do Planeta</name>
								<in>11859</in>
								<out>-1</out>
							</marker>
							<marker>
								<comment>Reflexao filosofica&#13;Entendimento cognitivo do ser humano&#13;Movimento ecologico&#13;Desequilibrio ambiental&#13;Ser humano sem predador se torna seu proprio inimigo&#13;Conferencia mundial acordos internacionais&#13;Cita Lutzenberger&#13;Josue de Castro&#13;Aumento populacional&#13;Densidade demografica&#13;Futuro e distopia&#13;Desenvolvimento economico</comment>
								<name>Eras do Planeta</name>
								<in>13898</in>
								<out>-1</out>
							</marker>
							<marker>
								<comment></comment>
								<name>Falha de imagem e som</name>
								<in>27423</in>
								<out>-1</out>
								<pproColor>4281740498</pproColor>
							</marker>
							<marker>
								<comment>Lutzenberger&#13;</comment>
								<name>Precursores</name>
								<in>29719</in>
								<out>-1</out>
							</marker>
							<marker>
								<comment>Reflexao filosofica&#13;Extincoes&#13;Floresta Araucaria remanescente&#13;Fosseis&#13;</comment>
								<name>Eras do Planeta</name>
								<in>8880</in>
								<out>-1</out>
							</marker>
							<marker>
								<comment>Reflexao filosofica&#13;Extincoes&#13;Surgimento do ser humano</comment>
								<name>Eras do Planeta</name>
								<in>7547</in>
								<out>-1</out>
							</marker>
							<marker>
								<comment>Reflexao&#13;Governo economia lobby contra interesse publico&#13;Futuro compartilhado BRICS&#13;Exemplo China desertos&#13;Reduçao consumo petroleo&#13;Transiçao energetica&#13;Acordos internacionais Paris</comment>
								<name>Politica</name>
								<in>32011</in>
								<out>-1</out>
							</marker>
						<link>
							<linkclipref>clipitem-69</linkclipref>
							<mediatype>video</mediatype>
							<trackindex>1</trackindex>
							<clipindex>69</clipindex>
						</link>
						<link>
							<linkclipref>clipitem-200</linkclipref>
							<mediatype>audio</mediatype>
							<trackindex>1</trackindex>
							<clipindex>69</clipindex>
							<groupindex>1</groupindex>
						</link>
						<link>
							<linkclipref>clipitem-298</linkclipref>
							<mediatype>audio</mediatype>
							<trackindex>2</trackindex>
							<clipindex>59</clipindex>
							<groupindex>1</groupindex>
						</link>
						<logginginfo>
							<description></description>
							<scene></scene>
							<shottake></shottake>
							<lognote></lognote>
							<good></good>
							<originalvideofilename></originalvideofilename>
							<originalaudiofilename></originalaudiofilename>
						</logginginfo>
						<colorinfo>
							<lut></lut>
							<lut1></lut1>
							<asc_sop></asc_sop>
							<asc_sat></asc_sat>
							<lut2></lut2>
						</colorinfo>
					</clipitem>
					<clipitem id="clipitem-201" premiereChannelType="stereo">
						<masterclipid>masterclip-35</masterclipid>
						<name>250402-T016.WAV</name>
						<enabled>TRUE</enabled>
						<duration>93120</duration>
						<rate>
							<timebase>30</timebase>
							<ntsc>TRUE</ntsc>
						</rate>
						<start>24568</start>
						<end>26289</end>
						<in>78777</in>
						<out>80498</out>
						<pproTicksIn>667687635014400</pproTicksIn>
						<pproTicksOut>682274258265600</pproTicksOut>
						<file id="file-35">
							<name>250402-T016.wav</name>
							<pathurl>file://localhost/Volumes/EDDMA_Pos01/EDDMA_01/BRUTAS/CENAS%20CAPTADAS/20250402_02de02/AUDIO/250402/250402-T016.wav</pathurl>
							<rate>
								<timebase>30</timebase>
								<ntsc>TRUE</ntsc>
							</rate>
							<duration>93120</duration>
							<timecode>
								<rate>
									<timebase>30</timebase>
									<ntsc>TRUE</ntsc>
								</rate>
								<string>16;44;39;08</string>
								<frame>1806570</frame>
								<displayformat>DF</displayformat>
								<reel>
									<name>250402</name>
								</reel>
							</timecode>
							<media>
								<audio>
									<samplecharacteristics>
										<depth>16</depth>
										<samplerate>48000</samplerate>
									</samplecharacteristics>
									<channelcount>2</channelcount>
								</audio>
							</media>
						</file>
						<sourcetrack>
							<mediatype>audio</mediatype>
							<trackindex>1</trackindex>
						</sourcetrack>
						<link>
							<linkclipref>clipitem-201</linkclipref>
							<mediatype>audio</mediatype>
							<trackindex>1</trackindex>
							<clipindex>70</clipindex>
							<groupindex>1</groupindex>
						</link>
						<link>
							<linkclipref>clipitem-299</linkclipref>
							<mediatype>audio</mediatype>
							<trackindex>2</trackindex>
							<clipindex>60</clipindex>
							<groupindex>1</groupindex>
						</link>
						<logginginfo>
							<description></description>
							<scene>250402</scene>
							<shottake></shottake>
							<lognote></lognote>
							<good></good>
							<originalvideofilename></originalvideofilename>
							<originalaudiofilename></originalaudiofilename>
						</logginginfo>
						<colorinfo>
							<lut></lut>
							<lut1></lut1>
							<asc_sop></asc_sop>
							<asc_sat></asc_sat>
							<lut2></lut2>
						</colorinfo>
						<labels>
							<label2>Caribbean</label2>
						</labels>
					</clipitem>
					<clipitem id="clipitem-202" premiereChannelType="stereo">
						<masterclipid>masterclip-16</masterclipid>
						<name>2025-03-21 03-15-40 .mov</name>
						<enabled>TRUE</enabled>
						<duration>25397</duration>
						<rate>
							<timebase>30</timebase>
							<ntsc>TRUE</ntsc>
						</rate>
						<start>26289</start>
						<end>28175</end>
						<in>7745</in>
						<out>9631</out>
						<pproTicksIn>65644042464000</pproTicksIn>
						<pproTicksOut>81629150803200</pproTicksOut>
						<file id="file-16"/>
						<sourcetrack>
							<mediatype>audio</mediatype>
							<trackindex>1</trackindex>
						</sourcetrack>
							<marker>
								<comment>Transporte mobilidade&#13;Energia combustiveis fosseis biocombustivel&#13;Plasticos&#13;Planejamento futuro&#13;Economia&#13;Desigualdade social</comment>
								<name>Petroleo</name>
								<in>7397</in>
								<out>-1</out>
							</marker>
							<marker>
								<comment>Historia Luta ambientalista&#13;Paris COP</comment>
								<name>Acordos internacionais</name>
								<in>1047</in>
								<out>-1</out>
							</marker>
							<marker>
								<comment>Minas de carvao&#13;Planejamento economico&#13;Politicas Publicas&#13;Transiçao energetica</comment>
								<name>Futuro</name>
								<in>22180</in>
								<out>-1</out>
							</marker>
						<link>
							<linkclipref>clipitem-71</linkclipref>
							<mediatype>video</mediatype>
							<trackindex>1</trackindex>
							<clipindex>71</clipindex>
						</link>
						<link>
							<linkclipref>clipitem-202</linkclipref>
							<mediatype>audio</mediatype>
							<trackindex>1</trackindex>
							<clipindex>71</clipindex>
							<groupindex>1</groupindex>
						</link>
						<link>
							<linkclipref>clipitem-300</linkclipref>
							<mediatype>audio</mediatype>
							<trackindex>2</trackindex>
							<clipindex>61</clipindex>
							<groupindex>1</groupindex>
						</link>
						<logginginfo>
							<description></description>
							<scene></scene>
							<shottake></shottake>
							<lognote></lognote>
							<good></good>
							<originalvideofilename></originalvideofilename>
							<originalaudiofilename></originalaudiofilename>
						</logginginfo>
						<colorinfo>
							<lut></lut>
							<lut1></lut1>
							<asc_sop></asc_sop>
							<asc_sat></asc_sat>
							<lut2></lut2>
						</colorinfo>
					</clipitem>
					<clipitem id="clipitem-203" premiereChannelType="stereo">
						<masterclipid>masterclip-16</masterclipid>
						<name>2025-03-21 03-15-40 .mov</name>
						<enabled>TRUE</enabled>
						<duration>25397</duration>
						<rate>
							<timebase>30</timebase>
							<ntsc>TRUE</ntsc>
						</rate>
						<start>28175</start>
						<end>28751</end>
						<in>11291</in>
						<out>11867</out>
						<pproTicksIn>95698758355200</pproTicksIn>
						<pproTicksOut>100580742662400</pproTicksOut>
						<file id="file-16"/>
						<sourcetrack>
							<mediatype>audio</mediatype>
							<trackindex>1</trackindex>
						</sourcetrack>
							<marker>
								<comment>Transporte mobilidade&#13;Energia combustiveis fosseis biocombustivel&#13;Plasticos&#13;Planejamento futuro&#13;Economia&#13;Desigualdade social</comment>
								<name>Petroleo</name>
								<in>7397</in>
								<out>-1</out>
							</marker>
							<marker>
								<comment>Historia Luta ambientalista&#13;Paris COP</comment>
								<name>Acordos internacionais</name>
								<in>1047</in>
								<out>-1</out>
							</marker>
							<marker>
								<comment>Minas de carvao&#13;Planejamento economico&#13;Politicas Publicas&#13;Transiçao energetica</comment>
								<name>Futuro</name>
								<in>22180</in>
								<out>-1</out>
							</marker>
						<link>
							<linkclipref>clipitem-72</linkclipref>
							<mediatype>video</mediatype>
							<trackindex>1</trackindex>
							<clipindex>72</clipindex>
						</link>
						<link>
							<linkclipref>clipitem-203</linkclipref>
							<mediatype>audio</mediatype>
							<trackindex>1</trackindex>
							<clipindex>72</clipindex>
							<groupindex>1</groupindex>
						</link>
						<link>
							<linkclipref>clipitem-301</linkclipref>
							<mediatype>audio</mediatype>
							<trackindex>2</trackindex>
							<clipindex>62</clipindex>
							<groupindex>1</groupindex>
						</link>
						<logginginfo>
							<description></description>
							<scene></scene>
							<shottake></shottake>
							<lognote></lognote>
							<good></good>
							<originalvideofilename></originalvideofilename>
							<originalaudiofilename></originalaudiofilename>
						</logginginfo>
						<colorinfo>
							<lut></lut>
							<lut1></lut1>
							<asc_sop></asc_sop>
							<asc_sat></asc_sat>
							<lut2></lut2>
						</colorinfo>
					</clipitem>
					<clipitem id="clipitem-204" premiereChannelType="stereo">
						<masterclipid>masterclip-8</masterclipid>
						<name>2025-03-20 08-29-14 .mov</name>
						<enabled>TRUE</enabled>
						<duration>42599</duration>
						<rate>
							<timebase>30</timebase>
							<ntsc>TRUE</ntsc>
						</rate>
						<start>28751</start>
						<end>29449</end>
						<in>38839</in>
						<out>39537</out>
						<pproTicksIn>329186438380800</pproTicksIn>
						<pproTicksOut>335102454086400</pproTicksOut>
						<file id="file-8"/>
						<sourcetrack>
							<mediatype>audio</mediatype>
							<trackindex>1</trackindex>
						</sourcetrack>
							<marker>
								<comment>Impacto na economia&#13;Ajuda na enchente do RS&#13;Energia renovavel mais barata&#13;Transiçao energetica&#13;Politicas publicas e investimentos&#13;Convençao do Clima acordo internacional&#13;Futuro</comment>
								<name>Eventos extremos</name>
								<in>34288</in>
								<out>-1</out>
							</marker>
							<marker>
								<comment>Uso de energia apos revoluçao industrial&#13;Combustiveis fosseis&#13;Carvao mineral e petroleo&#13;Desmatamento</comment>
								<name>Efeito estufa</name>
								<in>12078</in>
								<out>-1</out>
							</marker>
							<marker>
								<comment>Explica que nao e cientista nem especialista</comment>
								<name></name>
								<in>400</in>
								<out>-1</out>
							</marker>
							<marker>
								<comment>Gases da atmosfera&#13;Desequilibrio energetico&#13;Aquecimento global&#13;Previsoes</comment>
								<name>Efeito estufa</name>
								<in>2277</in>
								<out>-1</out>
							</marker>
							<marker>
								<comment>Custo beneficio do uso de energia&#13;Futuro</comment>
								<name>Energia</name>
								<in>16145</in>
								<out>-1</out>
							</marker>
							<marker>
								<comment>Lei da Termodinamica&#13;Nao existe energia limpa&#13;Pegada de carbono&#13;Matriz energetica brasileira&#13;Transiçao energetica&#13;Carvao mineral no RS&#13;Eolica e solar mais barato&#13;Hidreletricas rios e florestas&#13;Transporte mobilidade biocombustivel etanol&#13;Politicas publicas</comment>
								<name>Energia</name>
								<in>19373</in>
								<out>-1</out>
							</marker>
						<link>
							<linkclipref>clipitem-73</linkclipref>
							<mediatype>video</mediatype>
							<trackindex>1</trackindex>
							<clipindex>73</clipindex>
						</link>
						<link>
							<linkclipref>clipitem-204</linkclipref>
							<mediatype>audio</mediatype>
							<trackindex>1</trackindex>
							<clipindex>73</clipindex>
							<groupindex>1</groupindex>
						</link>
						<link>
							<linkclipref>clipitem-302</linkclipref>
							<mediatype>audio</mediatype>
							<trackindex>2</trackindex>
							<clipindex>63</clipindex>
							<groupindex>1</groupindex>
						</link>
						<logginginfo>
							<description></description>
							<scene></scene>
							<shottake></shottake>
							<lognote></lognote>
							<good></good>
							<originalvideofilename></originalvideofilename>
							<originalaudiofilename></originalaudiofilename>
						</logginginfo>
						<colorinfo>
							<lut></lut>
							<lut1></lut1>
							<asc_sop></asc_sop>
							<asc_sat></asc_sat>
							<lut2></lut2>
						</colorinfo>
					</clipitem>
					<clipitem id="clipitem-205" premiereChannelType="stereo">
						<masterclipid>masterclip-8</masterclipid>
						<name>2025-03-20 08-29-14 .mov</name>
						<enabled>TRUE</enabled>
						<duration>42599</duration>
						<rate>
							<timebase>30</timebase>
							<ntsc>TRUE</ntsc>
						</rate>
						<start>29449</start>
						<end>30218</end>
						<in>36990</in>
						<out>37759</out>
						<pproTicksIn>313514929728000</pproTicksIn>
						<pproTicksOut>320032717804800</pproTicksOut>
						<file id="file-8"/>
						<sourcetrack>
							<mediatype>audio</mediatype>
							<trackindex>1</trackindex>
						</sourcetrack>
							<marker>
								<comment>Impacto na economia&#13;Ajuda na enchente do RS&#13;Energia renovavel mais barata&#13;Transiçao energetica&#13;Politicas publicas e investimentos&#13;Convençao do Clima acordo internacional&#13;Futuro</comment>
								<name>Eventos extremos</name>
								<in>34288</in>
								<out>-1</out>
							</marker>
							<marker>
								<comment>Uso de energia apos revoluçao industrial&#13;Combustiveis fosseis&#13;Carvao mineral e petroleo&#13;Desmatamento</comment>
								<name>Efeito estufa</name>
								<in>12078</in>
								<out>-1</out>
							</marker>
							<marker>
								<comment>Explica que nao e cientista nem especialista</comment>
								<name></name>
								<in>400</in>
								<out>-1</out>
							</marker>
							<marker>
								<comment>Gases da atmosfera&#13;Desequilibrio energetico&#13;Aquecimento global&#13;Previsoes</comment>
								<name>Efeito estufa</name>
								<in>2277</in>
								<out>-1</out>
							</marker>
							<marker>
								<comment>Custo beneficio do uso de energia&#13;Futuro</comment>
								<name>Energia</name>
								<in>16145</in>
								<out>-1</out>
							</marker>
							<marker>
								<comment>Lei da Termodinamica&#13;Nao existe energia limpa&#13;Pegada de carbono&#13;Matriz energetica brasileira&#13;Transiçao energetica&#13;Carvao mineral no RS&#13;Eolica e solar mais barato&#13;Hidreletricas rios e florestas&#13;Transporte mobilidade biocombustivel etanol&#13;Politicas publicas</comment>
								<name>Energia</name>
								<in>19373</in>
								<out>-1</out>
							</marker>
						<link>
							<linkclipref>clipitem-74</linkclipref>
							<mediatype>video</mediatype>
							<trackindex>1</trackindex>
							<clipindex>74</clipindex>
						</link>
						<link>
							<linkclipref>clipitem-205</linkclipref>
							<mediatype>audio</mediatype>
							<trackindex>1</trackindex>
							<clipindex>74</clipindex>
							<groupindex>1</groupindex>
						</link>
						<link>
							<linkclipref>clipitem-303</linkclipref>
							<mediatype>audio</mediatype>
							<trackindex>2</trackindex>
							<clipindex>64</clipindex>
							<groupindex>1</groupindex>
						</link>
						<logginginfo>
							<description></description>
							<scene></scene>
							<shottake></shottake>
							<lognote></lognote>
							<good></good>
							<originalvideofilename></originalvideofilename>
							<originalaudiofilename></originalaudiofilename>
						</logginginfo>
						<colorinfo>
							<lut></lut>
							<lut1></lut1>
							<asc_sop></asc_sop>
							<asc_sat></asc_sat>
							<lut2></lut2>
						</colorinfo>
					</clipitem>
					<clipitem id="clipitem-206" premiereChannelType="stereo">
						<masterclipid>masterclip-28</masterclipid>
						<name>250515-T014.WAV</name>
						<enabled>TRUE</enabled>
						<duration>84540</duration>
						<rate>
							<timebase>30</timebase>
							<ntsc>TRUE</ntsc>
						</rate>
						<start>30218</start>
						<end>30638</end>
						<in>23812</in>
						<out>24232</out>
						<pproTicksIn>201822587366400</pproTicksIn>
						<pproTicksOut>205382367590400</pproTicksOut>
						<file id="file-28"/>
						<sourcetrack>
							<mediatype>audio</mediatype>
							<trackindex>1</trackindex>
						</sourcetrack>
						<link>
							<linkclipref>clipitem-206</linkclipref>
							<mediatype>audio</mediatype>
							<trackindex>1</trackindex>
							<clipindex>75</clipindex>
							<groupindex>1</groupindex>
						</link>
						<link>
							<linkclipref>clipitem-304</linkclipref>
							<mediatype>audio</mediatype>
							<trackindex>2</trackindex>
							<clipindex>65</clipindex>
							<groupindex>1</groupindex>
						</link>
						<logginginfo>
							<description></description>
							<scene>250515</scene>
							<shottake></shottake>
							<lognote></lognote>
							<good></good>
							<originalvideofilename></originalvideofilename>
							<originalaudiofilename></originalaudiofilename>
						</logginginfo>
						<colorinfo>
							<lut></lut>
							<lut1></lut1>
							<asc_sop></asc_sop>
							<asc_sat></asc_sat>
							<lut2></lut2>
						</colorinfo>
						<labels>
							<label2>Caribbean</label2>
						</labels>
					</clipitem>
					<clipitem id="clipitem-207" premiereChannelType="stereo">
						<masterclipid>masterclip-8</masterclipid>
						<name>2025-03-20 08-29-14 .mov</name>
						<enabled>TRUE</enabled>
						<duration>42599</duration>
						<rate>
							<timebase>30</timebase>
							<ntsc>TRUE</ntsc>
						</rate>
						<start>30638</start>
						<end>30962</end>
						<in>28884</in>
						<out>29208</out>
						<pproTicksIn>244811171404800</pproTicksIn>
						<pproTicksOut>247557287577600</pproTicksOut>
						<file id="file-8"/>
						<sourcetrack>
							<mediatype>audio</mediatype>
							<trackindex>1</trackindex>
						</sourcetrack>
							<marker>
								<comment>Impacto na economia&#13;Ajuda na enchente do RS&#13;Energia renovavel mais barata&#13;Transiçao energetica&#13;Politicas publicas e investimentos&#13;Convençao do Clima acordo internacional&#13;Futuro</comment>
								<name>Eventos extremos</name>
								<in>34288</in>
								<out>-1</out>
							</marker>
							<marker>
								<comment>Uso de energia apos revoluçao industrial&#13;Combustiveis fosseis&#13;Carvao mineral e petroleo&#13;Desmatamento</comment>
								<name>Efeito estufa</name>
								<in>12078</in>
								<out>-1</out>
							</marker>
							<marker>
								<comment>Explica que nao e cientista nem especialista</comment>
								<name></name>
								<in>400</in>
								<out>-1</out>
							</marker>
							<marker>
								<comment>Gases da atmosfera&#13;Desequilibrio energetico&#13;Aquecimento global&#13;Previsoes</comment>
								<name>Efeito estufa</name>
								<in>2277</in>
								<out>-1</out>
							</marker>
							<marker>
								<comment>Custo beneficio do uso de energia&#13;Futuro</comment>
								<name>Energia</name>
								<in>16145</in>
								<out>-1</out>
							</marker>
							<marker>
								<comment>Lei da Termodinamica&#13;Nao existe energia limpa&#13;Pegada de carbono&#13;Matriz energetica brasileira&#13;Transiçao energetica&#13;Carvao mineral no RS&#13;Eolica e solar mais barato&#13;Hidreletricas rios e florestas&#13;Transporte mobilidade biocombustivel etanol&#13;Politicas publicas</comment>
								<name>Energia</name>
								<in>19373</in>
								<out>-1</out>
							</marker>
						<link>
							<linkclipref>clipitem-76</linkclipref>
							<mediatype>video</mediatype>
							<trackindex>1</trackindex>
							<clipindex>76</clipindex>
						</link>
						<link>
							<linkclipref>clipitem-207</linkclipref>
							<mediatype>audio</mediatype>
							<trackindex>1</trackindex>
							<clipindex>76</clipindex>
							<groupindex>1</groupindex>
						</link>
						<link>
							<linkclipref>clipitem-305</linkclipref>
							<mediatype>audio</mediatype>
							<trackindex>2</trackindex>
							<clipindex>66</clipindex>
							<groupindex>1</groupindex>
						</link>
						<logginginfo>
							<description></description>
							<scene></scene>
							<shottake></shottake>
							<lognote></lognote>
							<good></good>
							<originalvideofilename></originalvideofilename>
							<originalaudiofilename></originalaudiofilename>
						</logginginfo>
						<colorinfo>
							<lut></lut>
							<lut1></lut1>
							<asc_sop></asc_sop>
							<asc_sat></asc_sat>
							<lut2></lut2>
						</colorinfo>
					</clipitem>
					<clipitem id="clipitem-208" premiereChannelType="stereo">
						<masterclipid>masterclip-8</masterclipid>
						<name>2025-03-20 08-29-14 .mov</name>
						<enabled>TRUE</enabled>
						<duration>42599</duration>
						<rate>
							<timebase>30</timebase>
							<ntsc>TRUE</ntsc>
						</rate>
						<start>30962</start>
						<end>32552</end>
						<in>30020</in>
						<out>31610</out>
						<pproTicksIn>254439529344000</pproTicksIn>
						<pproTicksOut>267915840192000</pproTicksOut>
						<file id="file-8"/>
						<sourcetrack>
							<mediatype>audio</mediatype>
							<trackindex>1</trackindex>
						</sourcetrack>
							<marker>
								<comment>Impacto na economia&#13;Ajuda na enchente do RS&#13;Energia renovavel mais barata&#13;Transiçao energetica&#13;Politicas publicas e investimentos&#13;Convençao do Clima acordo internacional&#13;Futuro</comment>
								<name>Eventos extremos</name>
								<in>34288</in>
								<out>-1</out>
							</marker>
							<marker>
								<comment>Uso de energia apos revoluçao industrial&#13;Combustiveis fosseis&#13;Carvao mineral e petroleo&#13;Desmatamento</comment>
								<name>Efeito estufa</name>
								<in>12078</in>
								<out>-1</out>
							</marker>
							<marker>
								<comment>Explica que nao e cientista nem especialista</comment>
								<name></name>
								<in>400</in>
								<out>-1</out>
							</marker>
							<marker>
								<comment>Gases da atmosfera&#13;Desequilibrio energetico&#13;Aquecimento global&#13;Previsoes</comment>
								<name>Efeito estufa</name>
								<in>2277</in>
								<out>-1</out>
							</marker>
							<marker>
								<comment>Custo beneficio do uso de energia&#13;Futuro</comment>
								<name>Energia</name>
								<in>16145</in>
								<out>-1</out>
							</marker>
							<marker>
								<comment>Lei da Termodinamica&#13;Nao existe energia limpa&#13;Pegada de carbono&#13;Matriz energetica brasileira&#13;Transiçao energetica&#13;Carvao mineral no RS&#13;Eolica e solar mais barato&#13;Hidreletricas rios e florestas&#13;Transporte mobilidade biocombustivel etanol&#13;Politicas publicas</comment>
								<name>Energia</name>
								<in>19373</in>
								<out>-1</out>
							</marker>
						<link>
							<linkclipref>clipitem-77</linkclipref>
							<mediatype>video</mediatype>
							<trackindex>1</trackindex>
							<clipindex>77</clipindex>
						</link>
						<link>
							<linkclipref>clipitem-208</linkclipref>
							<mediatype>audio</mediatype>
							<trackindex>1</trackindex>
							<clipindex>77</clipindex>
							<groupindex>1</groupindex>
						</link>
						<link>
							<linkclipref>clipitem-306</linkclipref>
							<mediatype>audio</mediatype>
							<trackindex>2</trackindex>
							<clipindex>67</clipindex>
							<groupindex>1</groupindex>
						</link>
						<logginginfo>
							<description></description>
							<scene></scene>
							<shottake></shottake>
							<lognote></lognote>
							<good></good>
							<originalvideofilename></originalvideofilename>
							<originalaudiofilename></originalaudiofilename>
						</logginginfo>
						<colorinfo>
							<lut></lut>
							<lut1></lut1>
							<asc_sop></asc_sop>
							<asc_sat></asc_sat>
							<lut2></lut2>
						</colorinfo>
					</clipitem>
					<clipitem id="clipitem-209" premiereChannelType="stereo">
						<masterclipid>masterclip-30</masterclipid>
						<name>250430-T003.WAV</name>
						<enabled>TRUE</enabled>
						<duration>76170</duration>
						<rate>
							<timebase>30</timebase>
							<ntsc>TRUE</ntsc>
						</rate>
						<start>32552</start>
						<end>32861</end>
						<in>4410</in>
						<out>4719</out>
						<pproTicksIn>37377692352000</pproTicksIn>
						<pproTicksOut>39996673516800</pproTicksOut>
						<file id="file-30"/>
						<sourcetrack>
							<mediatype>audio</mediatype>
							<trackindex>1</trackindex>
						</sourcetrack>
						<link>
							<linkclipref>clipitem-209</linkclipref>
							<mediatype>audio</mediatype>
							<trackindex>1</trackindex>
							<clipindex>78</clipindex>
							<groupindex>1</groupindex>
						</link>
						<link>
							<linkclipref>clipitem-307</linkclipref>
							<mediatype>audio</mediatype>
							<trackindex>2</trackindex>
							<clipindex>68</clipindex>
							<groupindex>1</groupindex>
						</link>
						<logginginfo>
							<description></description>
							<scene>250430</scene>
							<shottake></shottake>
							<lognote></lognote>
							<good></good>
							<originalvideofilename></originalvideofilename>
							<originalaudiofilename></originalaudiofilename>
						</logginginfo>
						<colorinfo>
							<lut></lut>
							<lut1></lut1>
							<asc_sop></asc_sop>
							<asc_sat></asc_sat>
							<lut2></lut2>
						</colorinfo>
					</clipitem>
					<clipitem id="clipitem-210" premiereChannelType="stereo">
						<masterclipid>masterclip-30</masterclipid>
						<name>250430-T003.WAV</name>
						<enabled>TRUE</enabled>
						<duration>76170</duration>
						<rate>
							<timebase>30</timebase>
							<ntsc>TRUE</ntsc>
						</rate>
						<start>32861</start>
						<end>33141</end>
						<in>4784</in>
						<out>5064</out>
						<pproTicksIn>40547591884800</pproTicksIn>
						<pproTicksOut>42920778700800</pproTicksOut>
						<file id="file-30"/>
						<sourcetrack>
							<mediatype>audio</mediatype>
							<trackindex>1</trackindex>
						</sourcetrack>
						<link>
							<linkclipref>clipitem-210</linkclipref>
							<mediatype>audio</mediatype>
							<trackindex>1</trackindex>
							<clipindex>79</clipindex>
							<groupindex>1</groupindex>
						</link>
						<link>
							<linkclipref>clipitem-308</linkclipref>
							<mediatype>audio</mediatype>
							<trackindex>2</trackindex>
							<clipindex>69</clipindex>
							<groupindex>1</groupindex>
						</link>
						<logginginfo>
							<description></description>
							<scene>250430</scene>
							<shottake></shottake>
							<lognote></lognote>
							<good></good>
							<originalvideofilename></originalvideofilename>
							<originalaudiofilename></originalaudiofilename>
						</logginginfo>
						<colorinfo>
							<lut></lut>
							<lut1></lut1>
							<asc_sop></asc_sop>
							<asc_sat></asc_sat>
							<lut2></lut2>
						</colorinfo>
					</clipitem>
					<clipitem id="clipitem-211" premiereChannelType="stereo">
						<masterclipid>masterclip-28</masterclipid>
						<name>250515-T014.WAV</name>
						<enabled>TRUE</enabled>
						<duration>84540</duration>
						<rate>
							<timebase>30</timebase>
							<ntsc>TRUE</ntsc>
						</rate>
						<start>33141</start>
						<end>33244</end>
						<in>25369</in>
						<out>25472</out>
						<pproTicksIn>215019201196800</pproTicksIn>
						<pproTicksOut>215892194918400</pproTicksOut>
						<file id="file-28"/>
						<sourcetrack>
							<mediatype>audio</mediatype>
							<trackindex>1</trackindex>
						</sourcetrack>
						<link>
							<linkclipref>clipitem-211</linkclipref>
							<mediatype>audio</mediatype>
							<trackindex>1</trackindex>
							<clipindex>80</clipindex>
							<groupindex>1</groupindex>
						</link>
						<link>
							<linkclipref>clipitem-309</linkclipref>
							<mediatype>audio</mediatype>
							<trackindex>2</trackindex>
							<clipindex>70</clipindex>
							<groupindex>1</groupindex>
						</link>
						<logginginfo>
							<description></description>
							<scene>250515</scene>
							<shottake></shottake>
							<lognote></lognote>
							<good></good>
							<originalvideofilename></originalvideofilename>
							<originalaudiofilename></originalaudiofilename>
						</logginginfo>
						<colorinfo>
							<lut></lut>
							<lut1></lut1>
							<asc_sop></asc_sop>
							<asc_sat></asc_sat>
							<lut2></lut2>
						</colorinfo>
						<labels>
							<label2>Caribbean</label2>
						</labels>
					</clipitem>
					<clipitem id="clipitem-212" premiereChannelType="stereo">
						<masterclipid>masterclip-28</masterclipid>
						<name>250515-T014.WAV</name>
						<enabled>TRUE</enabled>
						<duration>84540</duration>
						<rate>
							<timebase>30</timebase>
							<ntsc>TRUE</ntsc>
						</rate>
						<start>33244</start>
						<end>33606</end>
						<in>25598</in>
						<out>25960</out>
						<pproTicksIn>216960128985600</pproTicksIn>
						<pproTicksOut>220028320512000</pproTicksOut>
						<file id="file-28"/>
						<sourcetrack>
							<mediatype>audio</mediatype>
							<trackindex>1</trackindex>
						</sourcetrack>
						<link>
							<linkclipref>clipitem-212</linkclipref>
							<mediatype>audio</mediatype>
							<trackindex>1</trackindex>
							<clipindex>81</clipindex>
							<groupindex>1</groupindex>
						</link>
						<link>
							<linkclipref>clipitem-310</linkclipref>
							<mediatype>audio</mediatype>
							<trackindex>2</trackindex>
							<clipindex>71</clipindex>
							<groupindex>1</groupindex>
						</link>
						<logginginfo>
							<description></description>
							<scene>250515</scene>
							<shottake></shottake>
							<lognote></lognote>
							<good></good>
							<originalvideofilename></originalvideofilename>
							<originalaudiofilename></originalaudiofilename>
						</logginginfo>
						<colorinfo>
							<lut></lut>
							<lut1></lut1>
							<asc_sop></asc_sop>
							<asc_sat></asc_sat>
							<lut2></lut2>
						</colorinfo>
						<labels>
							<label2>Caribbean</label2>
						</labels>
					</clipitem>
					<clipitem id="clipitem-213" premiereChannelType="stereo">
						<masterclipid>masterclip-8</masterclipid>
						<name>2025-03-20 08-29-14 .mov</name>
						<enabled>TRUE</enabled>
						<duration>42599</duration>
						<rate>
							<timebase>30</timebase>
							<ntsc>TRUE</ntsc>
						</rate>
						<start>33606</start>
						<end>34099</end>
						<in>25107</in>
						<out>25600</out>
						<pproTicksIn>212798576390400</pproTicksIn>
						<pproTicksOut>216977080320000</pproTicksOut>
						<file id="file-8"/>
						<sourcetrack>
							<mediatype>audio</mediatype>
							<trackindex>1</trackindex>
						</sourcetrack>
							<marker>
								<comment>Impacto na economia&#13;Ajuda na enchente do RS&#13;Energia renovavel mais barata&#13;Transiçao energetica&#13;Politicas publicas e investimentos&#13;Convençao do Clima acordo internacional&#13;Futuro</comment>
								<name>Eventos extremos</name>
								<in>34288</in>
								<out>-1</out>
							</marker>
							<marker>
								<comment>Uso de energia apos revoluçao industrial&#13;Combustiveis fosseis&#13;Carvao mineral e petroleo&#13;Desmatamento</comment>
								<name>Efeito estufa</name>
								<in>12078</in>
								<out>-1</out>
							</marker>
							<marker>
								<comment>Explica que nao e cientista nem especialista</comment>
								<name></name>
								<in>400</in>
								<out>-1</out>
							</marker>
							<marker>
								<comment>Gases da atmosfera&#13;Desequilibrio energetico&#13;Aquecimento global&#13;Previsoes</comment>
								<name>Efeito estufa</name>
								<in>2277</in>
								<out>-1</out>
							</marker>
							<marker>
								<comment>Custo beneficio do uso de energia&#13;Futuro</comment>
								<name>Energia</name>
								<in>16145</in>
								<out>-1</out>
							</marker>
							<marker>
								<comment>Lei da Termodinamica&#13;Nao existe energia limpa&#13;Pegada de carbono&#13;Matriz energetica brasileira&#13;Transiçao energetica&#13;Carvao mineral no RS&#13;Eolica e solar mais barato&#13;Hidreletricas rios e florestas&#13;Transporte mobilidade biocombustivel etanol&#13;Politicas publicas</comment>
								<name>Energia</name>
								<in>19373</in>
								<out>-1</out>
							</marker>
						<link>
							<linkclipref>clipitem-82</linkclipref>
							<mediatype>video</mediatype>
							<trackindex>1</trackindex>
							<clipindex>82</clipindex>
						</link>
						<link>
							<linkclipref>clipitem-213</linkclipref>
							<mediatype>audio</mediatype>
							<trackindex>1</trackindex>
							<clipindex>82</clipindex>
							<groupindex>1</groupindex>
						</link>
						<link>
							<linkclipref>clipitem-311</linkclipref>
							<mediatype>audio</mediatype>
							<trackindex>2</trackindex>
							<clipindex>72</clipindex>
							<groupindex>1</groupindex>
						</link>
						<logginginfo>
							<description></description>
							<scene></scene>
							<shottake></shottake>
							<lognote></lognote>
							<good></good>
							<originalvideofilename></originalvideofilename>
							<originalaudiofilename></originalaudiofilename>
						</logginginfo>
						<colorinfo>
							<lut></lut>
							<lut1></lut1>
							<asc_sop></asc_sop>
							<asc_sat></asc_sat>
							<lut2></lut2>
						</colorinfo>
					</clipitem>
					<clipitem id="clipitem-214" premiereChannelType="stereo">
						<masterclipid>masterclip-8</masterclipid>
						<name>2025-03-20 08-29-14 .mov</name>
						<enabled>TRUE</enabled>
						<duration>42599</duration>
						<rate>
							<timebase>30</timebase>
							<ntsc>TRUE</ntsc>
						</rate>
						<start>34099</start>
						<end>34895</end>
						<in>25600</in>
						<out>26396</out>
						<pproTicksIn>216977080320000</pproTicksIn>
						<pproTicksOut>223723711411200</pproTicksOut>
						<file id="file-8"/>
						<sourcetrack>
							<mediatype>audio</mediatype>
							<trackindex>1</trackindex>
						</sourcetrack>
							<marker>
								<comment>Impacto na economia&#13;Ajuda na enchente do RS&#13;Energia renovavel mais barata&#13;Transiçao energetica&#13;Politicas publicas e investimentos&#13;Convençao do Clima acordo internacional&#13;Futuro</comment>
								<name>Eventos extremos</name>
								<in>34288</in>
								<out>-1</out>
							</marker>
							<marker>
								<comment>Uso de energia apos revoluçao industrial&#13;Combustiveis fosseis&#13;Carvao mineral e petroleo&#13;Desmatamento</comment>
								<name>Efeito estufa</name>
								<in>12078</in>
								<out>-1</out>
							</marker>
							<marker>
								<comment>Explica que nao e cientista nem especialista</comment>
								<name></name>
								<in>400</in>
								<out>-1</out>
							</marker>
							<marker>
								<comment>Gases da atmosfera&#13;Desequilibrio energetico&#13;Aquecimento global&#13;Previsoes</comment>
								<name>Efeito estufa</name>
								<in>2277</in>
								<out>-1</out>
							</marker>
							<marker>
								<comment>Custo beneficio do uso de energia&#13;Futuro</comment>
								<name>Energia</name>
								<in>16145</in>
								<out>-1</out>
							</marker>
							<marker>
								<comment>Lei da Termodinamica&#13;Nao existe energia limpa&#13;Pegada de carbono&#13;Matriz energetica brasileira&#13;Transiçao energetica&#13;Carvao mineral no RS&#13;Eolica e solar mais barato&#13;Hidreletricas rios e florestas&#13;Transporte mobilidade biocombustivel etanol&#13;Politicas publicas</comment>
								<name>Energia</name>
								<in>19373</in>
								<out>-1</out>
							</marker>
						<link>
							<linkclipref>clipitem-83</linkclipref>
							<mediatype>video</mediatype>
							<trackindex>1</trackindex>
							<clipindex>83</clipindex>
						</link>
						<link>
							<linkclipref>clipitem-214</linkclipref>
							<mediatype>audio</mediatype>
							<trackindex>1</trackindex>
							<clipindex>83</clipindex>
							<groupindex>1</groupindex>
						</link>
						<link>
							<linkclipref>clipitem-312</linkclipref>
							<mediatype>audio</mediatype>
							<trackindex>2</trackindex>
							<clipindex>73</clipindex>
							<groupindex>1</groupindex>
						</link>
						<logginginfo>
							<description></description>
							<scene></scene>
							<shottake></shottake>
							<lognote></lognote>
							<good></good>
							<originalvideofilename></originalvideofilename>
							<originalaudiofilename></originalaudiofilename>
						</logginginfo>
						<colorinfo>
							<lut></lut>
							<lut1></lut1>
							<asc_sop></asc_sop>
							<asc_sat></asc_sat>
							<lut2></lut2>
						</colorinfo>
					</clipitem>
					<clipitem id="clipitem-215" premiereChannelType="stereo">
						<masterclipid>masterclip-30</masterclipid>
						<name>250430-T003.WAV</name>
						<enabled>TRUE</enabled>
						<duration>76170</duration>
						<rate>
							<timebase>30</timebase>
							<ntsc>TRUE</ntsc>
						</rate>
						<start>34895</start>
						<end>35047</end>
						<in>6625</in>
						<out>6777</out>
						<pproTicksIn>56151295200000</pproTicksIn>
						<pproTicksOut>57439596614400</pproTicksOut>
						<file id="file-30"/>
						<sourcetrack>
							<mediatype>audio</mediatype>
							<trackindex>1</trackindex>
						</sourcetrack>
						<link>
							<linkclipref>clipitem-215</linkclipref>
							<mediatype>audio</mediatype>
							<trackindex>1</trackindex>
							<clipindex>84</clipindex>
							<groupindex>1</groupindex>
						</link>
						<link>
							<linkclipref>clipitem-313</linkclipref>
							<mediatype>audio</mediatype>
							<trackindex>2</trackindex>
							<clipindex>74</clipindex>
							<groupindex>1</groupindex>
						</link>
						<logginginfo>
							<description></description>
							<scene>250430</scene>
							<shottake></shottake>
							<lognote></lognote>
							<good></good>
							<originalvideofilename></originalvideofilename>
							<originalaudiofilename></originalaudiofilename>
						</logginginfo>
						<colorinfo>
							<lut></lut>
							<lut1></lut1>
							<asc_sop></asc_sop>
							<asc_sat></asc_sat>
							<lut2></lut2>
						</colorinfo>
					</clipitem>
					<clipitem id="clipitem-216" premiereChannelType="stereo">
						<masterclipid>masterclip-30</masterclipid>
						<name>250430-T003.WAV</name>
						<enabled>TRUE</enabled>
						<duration>76170</duration>
						<rate>
							<timebase>30</timebase>
							<ntsc>TRUE</ntsc>
						</rate>
						<start>35047</start>
						<end>35618</end>
						<in>7910</in>
						<out>8481</out>
						<pproTicksIn>67042527552000</pproTicksIn>
						<pproTicksOut>71882133523200</pproTicksOut>
						<file id="file-30"/>
						<sourcetrack>
							<mediatype>audio</mediatype>
							<trackindex>1</trackindex>
						</sourcetrack>
						<link>
							<linkclipref>clipitem-216</linkclipref>
							<mediatype>audio</mediatype>
							<trackindex>1</trackindex>
							<clipindex>85</clipindex>
							<groupindex>1</groupindex>
						</link>
						<link>
							<linkclipref>clipitem-314</linkclipref>
							<mediatype>audio</mediatype>
							<trackindex>2</trackindex>
							<clipindex>75</clipindex>
							<groupindex>1</groupindex>
						</link>
						<logginginfo>
							<description></description>
							<scene>250430</scene>
							<shottake></shottake>
							<lognote></lognote>
							<good></good>
							<originalvideofilename></originalvideofilename>
							<originalaudiofilename></originalaudiofilename>
						</logginginfo>
						<colorinfo>
							<lut></lut>
							<lut1></lut1>
							<asc_sop></asc_sop>
							<asc_sat></asc_sat>
							<lut2></lut2>
						</colorinfo>
					</clipitem>
					<clipitem id="clipitem-217" premiereChannelType="stereo">
						<masterclipid>masterclip-30</masterclipid>
						<name>250430-T003.WAV</name>
						<enabled>TRUE</enabled>
						<duration>76170</duration>
						<rate>
							<timebase>30</timebase>
							<ntsc>TRUE</ntsc>
						</rate>
						<start>35618</start>
						<end>35970</end>
						<in>9137</in>
						<out>9489</out>
						<pproTicksIn>77442171206400</pproTicksIn>
						<pproTicksOut>80425606060800</pproTicksOut>
						<file id="file-30"/>
						<sourcetrack>
							<mediatype>audio</mediatype>
							<trackindex>1</trackindex>
						</sourcetrack>
						<link>
							<linkclipref>clipitem-217</linkclipref>
							<mediatype>audio</mediatype>
							<trackindex>1</trackindex>
							<clipindex>86</clipindex>
							<groupindex>1</groupindex>
						</link>
						<link>
							<linkclipref>clipitem-315</linkclipref>
							<mediatype>audio</mediatype>
							<trackindex>2</trackindex>
							<clipindex>76</clipindex>
							<groupindex>1</groupindex>
						</link>
						<logginginfo>
							<description></description>
							<scene>250430</scene>
							<shottake></shottake>
							<lognote></lognote>
							<good></good>
							<originalvideofilename></originalvideofilename>
							<originalaudiofilename></originalaudiofilename>
						</logginginfo>
						<colorinfo>
							<lut></lut>
							<lut1></lut1>
							<asc_sop></asc_sop>
							<asc_sat></asc_sat>
							<lut2></lut2>
						</colorinfo>
					</clipitem>
					<clipitem id="clipitem-218" premiereChannelType="stereo">
						<masterclipid>masterclip-30</masterclipid>
						<name>250430-T003.WAV</name>
						<enabled>TRUE</enabled>
						<duration>76170</duration>
						<rate>
							<timebase>30</timebase>
							<ntsc>TRUE</ntsc>
						</rate>
						<start>35970</start>
						<end>36184</end>
						<in>10119</in>
						<out>10333</out>
						<pproTicksIn>85765276396800</pproTicksIn>
						<pproTicksOut>87579069177600</pproTicksOut>
						<file id="file-30"/>
						<sourcetrack>
							<mediatype>audio</mediatype>
							<trackindex>1</trackindex>
						</sourcetrack>
						<link>
							<linkclipref>clipitem-218</linkclipref>
							<mediatype>audio</mediatype>
							<trackindex>1</trackindex>
							<clipindex>87</clipindex>
							<groupindex>1</groupindex>
						</link>
						<link>
							<linkclipref>clipitem-316</linkclipref>
							<mediatype>audio</mediatype>
							<trackindex>2</trackindex>
							<clipindex>77</clipindex>
							<groupindex>1</groupindex>
						</link>
						<logginginfo>
							<description></description>
							<scene>250430</scene>
							<shottake></shottake>
							<lognote></lognote>
							<good></good>
							<originalvideofilename></originalvideofilename>
							<originalaudiofilename></originalaudiofilename>
						</logginginfo>
						<colorinfo>
							<lut></lut>
							<lut1></lut1>
							<asc_sop></asc_sop>
							<asc_sat></asc_sat>
							<lut2></lut2>
						</colorinfo>
					</clipitem>
					<clipitem id="clipitem-219" premiereChannelType="stereo">
						<masterclipid>masterclip-32</masterclipid>
						<name>250515-T001.WAV</name>
						<enabled>TRUE</enabled>
						<duration>88650</duration>
						<rate>
							<timebase>30</timebase>
							<ntsc>TRUE</ntsc>
						</rate>
						<start>36184</start>
						<end>36859</end>
						<in>67591</in>
						<out>68266</out>
						<pproTicksIn>572878821715200</pproTicksIn>
						<pproTicksOut>578599897075200</pproTicksOut>
						<file id="file-32"/>
						<sourcetrack>
							<mediatype>audio</mediatype>
							<trackindex>1</trackindex>
						</sourcetrack>
						<link>
							<linkclipref>clipitem-219</linkclipref>
							<mediatype>audio</mediatype>
							<trackindex>1</trackindex>
							<clipindex>88</clipindex>
							<groupindex>1</groupindex>
						</link>
						<link>
							<linkclipref>clipitem-317</linkclipref>
							<mediatype>audio</mediatype>
							<trackindex>2</trackindex>
							<clipindex>78</clipindex>
							<groupindex>1</groupindex>
						</link>
						<logginginfo>
							<description></description>
							<scene>250515</scene>
							<shottake></shottake>
							<lognote></lognote>
							<good></good>
							<originalvideofilename></originalvideofilename>
							<originalaudiofilename></originalaudiofilename>
						</logginginfo>
						<colorinfo>
							<lut></lut>
							<lut1></lut1>
							<asc_sop></asc_sop>
							<asc_sat></asc_sat>
							<lut2></lut2>
						</colorinfo>
						<labels>
							<label2>Caribbean</label2>
						</labels>
					</clipitem>
					<clipitem id="clipitem-220" premiereChannelType="stereo">
						<masterclipid>masterclip-32</masterclipid>
						<name>250515-T001.WAV</name>
						<enabled>TRUE</enabled>
						<duration>88650</duration>
						<rate>
							<timebase>30</timebase>
							<ntsc>TRUE</ntsc>
						</rate>
						<start>36859</start>
						<end>37207</end>
						<in>69133</in>
						<out>69481</out>
						<pproTicksIn>585948300537600</pproTicksIn>
						<pproTicksOut>588897832723200</pproTicksOut>
						<file id="file-32"/>
						<sourcetrack>
							<mediatype>audio</mediatype>
							<trackindex>1</trackindex>
						</sourcetrack>
						<link>
							<linkclipref>clipitem-220</linkclipref>
							<mediatype>audio</mediatype>
							<trackindex>1</trackindex>
							<clipindex>89</clipindex>
							<groupindex>1</groupindex>
						</link>
						<link>
							<linkclipref>clipitem-318</linkclipref>
							<mediatype>audio</mediatype>
							<trackindex>2</trackindex>
							<clipindex>79</clipindex>
							<groupindex>1</groupindex>
						</link>
						<logginginfo>
							<description></description>
							<scene>250515</scene>
							<shottake></shottake>
							<lognote></lognote>
							<good></good>
							<originalvideofilename></originalvideofilename>
							<originalaudiofilename></originalaudiofilename>
						</logginginfo>
						<colorinfo>
							<lut></lut>
							<lut1></lut1>
							<asc_sop></asc_sop>
							<asc_sat></asc_sat>
							<lut2></lut2>
						</colorinfo>
						<labels>
							<label2>Caribbean</label2>
						</labels>
					</clipitem>
					<clipitem id="clipitem-221" premiereChannelType="stereo">
						<masterclipid>masterclip-8</masterclipid>
						<name>2025-03-20 08-29-14 .mov</name>
						<enabled>TRUE</enabled>
						<duration>42599</duration>
						<rate>
							<timebase>30</timebase>
							<ntsc>TRUE</ntsc>
						</rate>
						<start>37207</start>
						<end>37923</end>
						<in>27182</in>
						<out>27898</out>
						<pproTicksIn>230385585830400</pproTicksIn>
						<pproTicksOut>236454163545600</pproTicksOut>
						<file id="file-8"/>
						<sourcetrack>
							<mediatype>audio</mediatype>
							<trackindex>1</trackindex>
						</sourcetrack>
							<marker>
								<comment>Impacto na economia&#13;Ajuda na enchente do RS&#13;Energia renovavel mais barata&#13;Transiçao energetica&#13;Politicas publicas e investimentos&#13;Convençao do Clima acordo internacional&#13;Futuro</comment>
								<name>Eventos extremos</name>
								<in>34288</in>
								<out>-1</out>
							</marker>
							<marker>
								<comment>Uso de energia apos revoluçao industrial&#13;Combustiveis fosseis&#13;Carvao mineral e petroleo&#13;Desmatamento</comment>
								<name>Efeito estufa</name>
								<in>12078</in>
								<out>-1</out>
							</marker>
							<marker>
								<comment>Explica que nao e cientista nem especialista</comment>
								<name></name>
								<in>400</in>
								<out>-1</out>
							</marker>
							<marker>
								<comment>Gases da atmosfera&#13;Desequilibrio energetico&#13;Aquecimento global&#13;Previsoes</comment>
								<name>Efeito estufa</name>
								<in>2277</in>
								<out>-1</out>
							</marker>
							<marker>
								<comment>Custo beneficio do uso de energia&#13;Futuro</comment>
								<name>Energia</name>
								<in>16145</in>
								<out>-1</out>
							</marker>
							<marker>
								<comment>Lei da Termodinamica&#13;Nao existe energia limpa&#13;Pegada de carbono&#13;Matriz energetica brasileira&#13;Transiçao energetica&#13;Carvao mineral no RS&#13;Eolica e solar mais barato&#13;Hidreletricas rios e florestas&#13;Transporte mobilidade biocombustivel etanol&#13;Politicas publicas</comment>
								<name>Energia</name>
								<in>19373</in>
								<out>-1</out>
							</marker>
						<link>
							<linkclipref>clipitem-90</linkclipref>
							<mediatype>video</mediatype>
							<trackindex>1</trackindex>
							<clipindex>90</clipindex>
						</link>
						<link>
							<linkclipref>clipitem-221</linkclipref>
							<mediatype>audio</mediatype>
							<trackindex>1</trackindex>
							<clipindex>90</clipindex>
							<groupindex>1</groupindex>
						</link>
						<link>
							<linkclipref>clipitem-319</linkclipref>
							<mediatype>audio</mediatype>
							<trackindex>2</trackindex>
							<clipindex>80</clipindex>
							<groupindex>1</groupindex>
						</link>
						<logginginfo>
							<description></description>
							<scene></scene>
							<shottake></shottake>
							<lognote></lognote>
							<good></good>
							<originalvideofilename></originalvideofilename>
							<originalaudiofilename></originalaudiofilename>
						</logginginfo>
						<colorinfo>
							<lut></lut>
							<lut1></lut1>
							<asc_sop></asc_sop>
							<asc_sat></asc_sat>
							<lut2></lut2>
						</colorinfo>
					</clipitem>
					<clipitem id="clipitem-222" premiereChannelType="stereo">
						<masterclipid>masterclip-30</masterclipid>
						<name>250430-T003.WAV</name>
						<enabled>TRUE</enabled>
						<duration>76170</duration>
						<rate>
							<timebase>30</timebase>
							<ntsc>TRUE</ntsc>
						</rate>
						<start>37923</start>
						<end>38380</end>
						<in>27436</in>
						<out>27893</out>
						<pproTicksIn>232538405299200</pproTicksIn>
						<pproTicksOut>236411785209600</pproTicksOut>
						<file id="file-30"/>
						<sourcetrack>
							<mediatype>audio</mediatype>
							<trackindex>1</trackindex>
						</sourcetrack>
						<link>
							<linkclipref>clipitem-222</linkclipref>
							<mediatype>audio</mediatype>
							<trackindex>1</trackindex>
							<clipindex>91</clipindex>
							<groupindex>1</groupindex>
						</link>
						<link>
							<linkclipref>clipitem-320</linkclipref>
							<mediatype>audio</mediatype>
							<trackindex>2</trackindex>
							<clipindex>81</clipindex>
							<groupindex>1</groupindex>
						</link>
						<logginginfo>
							<description></description>
							<scene>250430</scene>
							<shottake></shottake>
							<lognote></lognote>
							<good></good>
							<originalvideofilename></originalvideofilename>
							<originalaudiofilename></originalaudiofilename>
						</logginginfo>
						<colorinfo>
							<lut></lut>
							<lut1></lut1>
							<asc_sop></asc_sop>
							<asc_sat></asc_sat>
							<lut2></lut2>
						</colorinfo>
					</clipitem>
					<clipitem id="clipitem-223" premiereChannelType="stereo">
						<masterclipid>masterclip-30</masterclipid>
						<name>250430-T003.WAV</name>
						<enabled>TRUE</enabled>
						<duration>76170</duration>
						<rate>
							<timebase>30</timebase>
							<ntsc>TRUE</ntsc>
						</rate>
						<start>38380</start>
						<end>38804</end>
						<in>28172</in>
						<out>28596</out>
						<pproTicksIn>238776496358400</pproTicksIn>
						<pproTicksOut>242370179251200</pproTicksOut>
						<file id="file-30"/>
						<sourcetrack>
							<mediatype>audio</mediatype>
							<trackindex>1</trackindex>
						</sourcetrack>
						<link>
							<linkclipref>clipitem-223</linkclipref>
							<mediatype>audio</mediatype>
							<trackindex>1</trackindex>
							<clipindex>92</clipindex>
							<groupindex>1</groupindex>
						</link>
						<link>
							<linkclipref>clipitem-321</linkclipref>
							<mediatype>audio</mediatype>
							<trackindex>2</trackindex>
							<clipindex>82</clipindex>
							<groupindex>1</groupindex>
						</link>
						<logginginfo>
							<description></description>
							<scene>250430</scene>
							<shottake></shottake>
							<lognote></lognote>
							<good></good>
							<originalvideofilename></originalvideofilename>
							<originalaudiofilename></originalaudiofilename>
						</logginginfo>
						<colorinfo>
							<lut></lut>
							<lut1></lut1>
							<asc_sop></asc_sop>
							<asc_sat></asc_sat>
							<lut2></lut2>
						</colorinfo>
					</clipitem>
					<clipitem id="clipitem-224" premiereChannelType="stereo">
						<masterclipid>masterclip-32</masterclipid>
						<name>250515-T001.WAV</name>
						<enabled>TRUE</enabled>
						<duration>88650</duration>
						<rate>
							<timebase>30</timebase>
							<ntsc>TRUE</ntsc>
						</rate>
						<start>38804</start>
						<end>39206</end>
						<in>72860</in>
						<out>73262</out>
						<pproTicksIn>617537112192000</pproTicksIn>
						<pproTicksOut>620944330406400</pproTicksOut>
						<file id="file-32"/>
						<sourcetrack>
							<mediatype>audio</mediatype>
							<trackindex>1</trackindex>
						</sourcetrack>
						<link>
							<linkclipref>clipitem-224</linkclipref>
							<mediatype>audio</mediatype>
							<trackindex>1</trackindex>
							<clipindex>93</clipindex>
							<groupindex>1</groupindex>
						</link>
						<link>
							<linkclipref>clipitem-322</linkclipref>
							<mediatype>audio</mediatype>
							<trackindex>2</trackindex>
							<clipindex>83</clipindex>
							<groupindex>1</groupindex>
						</link>
						<logginginfo>
							<description></description>
							<scene>250515</scene>
							<shottake></shottake>
							<lognote></lognote>
							<good></good>
							<originalvideofilename></originalvideofilename>
							<originalaudiofilename></originalaudiofilename>
						</logginginfo>
						<colorinfo>
							<lut></lut>
							<lut1></lut1>
							<asc_sop></asc_sop>
							<asc_sat></asc_sat>
							<lut2></lut2>
						</colorinfo>
						<labels>
							<label2>Caribbean</label2>
						</labels>
					</clipitem>
					<clipitem id="clipitem-225" premiereChannelType="stereo">
						<masterclipid>masterclip-30</masterclipid>
						<name>250430-T003.WAV</name>
						<enabled>TRUE</enabled>
						<duration>76170</duration>
						<rate>
							<timebase>30</timebase>
							<ntsc>TRUE</ntsc>
						</rate>
						<start>39206</start>
						<end>39513</end>
						<in>58421</in>
						<out>58728</out>
						<pproTicksIn>495156953491200</pproTicksIn>
						<pproTicksOut>497758983321600</pproTicksOut>
						<file id="file-30"/>
						<sourcetrack>
							<mediatype>audio</mediatype>
							<trackindex>1</trackindex>
						</sourcetrack>
						<link>
							<linkclipref>clipitem-225</linkclipref>
							<mediatype>audio</mediatype>
							<trackindex>1</trackindex>
							<clipindex>94</clipindex>
							<groupindex>1</groupindex>
						</link>
						<link>
							<linkclipref>clipitem-323</linkclipref>
							<mediatype>audio</mediatype>
							<trackindex>2</trackindex>
							<clipindex>84</clipindex>
							<groupindex>1</groupindex>
						</link>
						<logginginfo>
							<description></description>
							<scene>250430</scene>
							<shottake></shottake>
							<lognote></lognote>
							<good></good>
							<originalvideofilename></originalvideofilename>
							<originalaudiofilename></originalaudiofilename>
						</logginginfo>
						<colorinfo>
							<lut></lut>
							<lut1></lut1>
							<asc_sop></asc_sop>
							<asc_sat></asc_sat>
							<lut2></lut2>
						</colorinfo>
					</clipitem>
					<clipitem id="clipitem-226" premiereChannelType="stereo">
						<masterclipid>masterclip-30</masterclipid>
						<name>250430-T003.WAV</name>
						<enabled>TRUE</enabled>
						<duration>76170</duration>
						<rate>
							<timebase>30</timebase>
							<ntsc>TRUE</ntsc>
						</rate>
						<start>39513</start>
						<end>39930</end>
						<in>58728</in>
						<out>59145</out>
						<pproTicksIn>497758983321600</pproTicksIn>
						<pproTicksOut>501293336544000</pproTicksOut>
						<file id="file-30"/>
						<sourcetrack>
							<mediatype>audio</mediatype>
							<trackindex>1</trackindex>
						</sourcetrack>
						<link>
							<linkclipref>clipitem-226</linkclipref>
							<mediatype>audio</mediatype>
							<trackindex>1</trackindex>
							<clipindex>95</clipindex>
							<groupindex>1</groupindex>
						</link>
						<link>
							<linkclipref>clipitem-324</linkclipref>
							<mediatype>audio</mediatype>
							<trackindex>2</trackindex>
							<clipindex>85</clipindex>
							<groupindex>1</groupindex>
						</link>
						<logginginfo>
							<description></description>
							<scene>250430</scene>
							<shottake></shottake>
							<lognote></lognote>
							<good></good>
							<originalvideofilename></originalvideofilename>
							<originalaudiofilename></originalaudiofilename>
						</logginginfo>
						<colorinfo>
							<lut></lut>
							<lut1></lut1>
							<asc_sop></asc_sop>
							<asc_sat></asc_sat>
							<lut2></lut2>
						</colorinfo>
					</clipitem>
					<clipitem id="clipitem-227" premiereChannelType="stereo">
						<masterclipid>masterclip-30</masterclipid>
						<name>250430-T003.WAV</name>
						<enabled>TRUE</enabled>
						<duration>76170</duration>
						<rate>
							<timebase>30</timebase>
							<ntsc>TRUE</ntsc>
						</rate>
						<start>39930</start>
						<end>40247</end>
						<in>59334</in>
						<out>59651</out>
						<pproTicksIn>502895237644800</pproTicksIn>
						<pproTicksOut>505582024147200</pproTicksOut>
						<file id="file-30"/>
						<sourcetrack>
							<mediatype>audio</mediatype>
							<trackindex>1</trackindex>
						</sourcetrack>
						<link>
							<linkclipref>clipitem-227</linkclipref>
							<mediatype>audio</mediatype>
							<trackindex>1</trackindex>
							<clipindex>96</clipindex>
							<groupindex>1</groupindex>
						</link>
						<link>
							<linkclipref>clipitem-325</linkclipref>
							<mediatype>audio</mediatype>
							<trackindex>2</trackindex>
							<clipindex>86</clipindex>
							<groupindex>1</groupindex>
						</link>
						<logginginfo>
							<description></description>
							<scene>250430</scene>
							<shottake></shottake>
							<lognote></lognote>
							<good></good>
							<originalvideofilename></originalvideofilename>
							<originalaudiofilename></originalaudiofilename>
						</logginginfo>
						<colorinfo>
							<lut></lut>
							<lut1></lut1>
							<asc_sop></asc_sop>
							<asc_sat></asc_sat>
							<lut2></lut2>
						</colorinfo>
					</clipitem>
					<clipitem id="clipitem-228" premiereChannelType="stereo">
						<masterclipid>masterclip-28</masterclipid>
						<name>250515-T014.WAV</name>
						<enabled>TRUE</enabled>
						<duration>84540</duration>
						<rate>
							<timebase>30</timebase>
							<ntsc>TRUE</ntsc>
						</rate>
						<start>40247</start>
						<end>40650</end>
						<in>32381</in>
						<out>32784</out>
						<pproTicksIn>274450579603200</pproTicksIn>
						<pproTicksOut>277866273484800</pproTicksOut>
						<file id="file-28"/>
						<sourcetrack>
							<mediatype>audio</mediatype>
							<trackindex>1</trackindex>
						</sourcetrack>
						<link>
							<linkclipref>clipitem-228</linkclipref>
							<mediatype>audio</mediatype>
							<trackindex>1</trackindex>
							<clipindex>97</clipindex>
							<groupindex>1</groupindex>
						</link>
						<link>
							<linkclipref>clipitem-326</linkclipref>
							<mediatype>audio</mediatype>
							<trackindex>2</trackindex>
							<clipindex>87</clipindex>
							<groupindex>1</groupindex>
						</link>
						<logginginfo>
							<description></description>
							<scene>250515</scene>
							<shottake></shottake>
							<lognote></lognote>
							<good></good>
							<originalvideofilename></originalvideofilename>
							<originalaudiofilename></originalaudiofilename>
						</logginginfo>
						<colorinfo>
							<lut></lut>
							<lut1></lut1>
							<asc_sop></asc_sop>
							<asc_sat></asc_sat>
							<lut2></lut2>
						</colorinfo>
						<labels>
							<label2>Caribbean</label2>
						</labels>
					</clipitem>
					<clipitem id="clipitem-229" premiereChannelType="stereo">
						<masterclipid>masterclip-31</masterclipid>
						<name>250502-T009.WAV</name>
						<enabled>TRUE</enabled>
						<duration>88020</duration>
						<rate>
							<timebase>30</timebase>
							<ntsc>TRUE</ntsc>
						</rate>
						<start>40650</start>
						<end>41483</end>
						<in>64701</in>
						<out>65534</out>
						<pproTicksIn>548384143507200</pproTicksIn>
						<pproTicksOut>555444374284800</pproTicksOut>
						<file id="file-31"/>
						<sourcetrack>
							<mediatype>audio</mediatype>
							<trackindex>1</trackindex>
						</sourcetrack>
						<filter>
							<effect>
								<name>Audio Levels</name>
								<effectid>audiolevels</effectid>
								<effectcategory>audiolevels</effectcategory>
								<effecttype>audiolevels</effecttype>
								<mediatype>audio</mediatype>
								<pproBypass>false</pproBypass>
								<parameter authoringApp="PremierePro">
									<parameterid>level</parameterid>
									<name>Level</name>
									<valuemin>0</valuemin>
									<valuemax>3.98109</valuemax>
									<value>1</value>
									<keyframe>
										<when>88019</when>
										<value>1</value>
									</keyframe>
								</parameter>
							</effect>
						</filter>
						<link>
							<linkclipref>clipitem-229</linkclipref>
							<mediatype>audio</mediatype>
							<trackindex>1</trackindex>
							<clipindex>98</clipindex>
							<groupindex>1</groupindex>
						</link>
						<link>
							<linkclipref>clipitem-327</linkclipref>
							<mediatype>audio</mediatype>
							<trackindex>2</trackindex>
							<clipindex>88</clipindex>
							<groupindex>1</groupindex>
						</link>
						<logginginfo>
							<description></description>
							<scene>250502</scene>
							<shottake></shottake>
							<lognote></lognote>
							<good></good>
							<originalvideofilename></originalvideofilename>
							<originalaudiofilename></originalaudiofilename>
						</logginginfo>
						<colorinfo>
							<lut></lut>
							<lut1></lut1>
							<asc_sop></asc_sop>
							<asc_sat></asc_sat>
							<lut2></lut2>
						</colorinfo>
					</clipitem>
					<clipitem id="clipitem-230" premiereChannelType="stereo">
						<masterclipid>masterclip-31</masterclipid>
						<name>250502-T009.WAV</name>
						<enabled>TRUE</enabled>
						<duration>88020</duration>
						<rate>
							<timebase>30</timebase>
							<ntsc>TRUE</ntsc>
						</rate>
						<start>41483</start>
						<end>41636</end>
						<in>65534</in>
						<out>65687</out>
						<pproTicksIn>555444374284800</pproTicksIn>
						<pproTicksOut>556741151366400</pproTicksOut>
						<file id="file-31"/>
						<sourcetrack>
							<mediatype>audio</mediatype>
							<trackindex>1</trackindex>
						</sourcetrack>
						<filter>
							<effect>
								<name>Audio Levels</name>
								<effectid>audiolevels</effectid>
								<effectcategory>audiolevels</effectcategory>
								<effecttype>audiolevels</effecttype>
								<mediatype>audio</mediatype>
								<pproBypass>false</pproBypass>
								<parameter authoringApp="PremierePro">
									<parameterid>level</parameterid>
									<name>Level</name>
									<valuemin>0</valuemin>
									<valuemax>3.98109</valuemax>
									<value>1</value>
									<keyframe>
										<when>88019</when>
										<value>1</value>
									</keyframe>
								</parameter>
							</effect>
						</filter>
						<link>
							<linkclipref>clipitem-230</linkclipref>
							<mediatype>audio</mediatype>
							<trackindex>1</trackindex>
							<clipindex>99</clipindex>
							<groupindex>1</groupindex>
						</link>
						<link>
							<linkclipref>clipitem-328</linkclipref>
							<mediatype>audio</mediatype>
							<trackindex>2</trackindex>
							<clipindex>89</clipindex>
							<groupindex>1</groupindex>
						</link>
						<logginginfo>
							<description></description>
							<scene>250502</scene>
							<shottake></shottake>
							<lognote></lognote>
							<good></good>
							<originalvideofilename></originalvideofilename>
							<originalaudiofilename></originalaudiofilename>
						</logginginfo>
						<colorinfo>
							<lut></lut>
							<lut1></lut1>
							<asc_sop></asc_sop>
							<asc_sat></asc_sat>
							<lut2></lut2>
						</colorinfo>
					</clipitem>
					<clipitem id="clipitem-231" premiereChannelType="mono">
						<masterclipid>masterclip-36</masterclipid>
						<name>250513-T003.WAV</name>
						<enabled>TRUE</enabled>
						<duration>6360</duration>
						<rate>
							<timebase>30</timebase>
							<ntsc>TRUE</ntsc>
						</rate>
						<start>41636</start>
						<end>43266</end>
						<in>4600</in>
						<out>6230</out>
						<pproTicksIn>38988069120000</pproTicksIn>
						<pproTicksOut>52803406656000</pproTicksOut>
						<file id="file-36">
							<name>250513-T003.wav</name>
							<pathurl>file://localhost/Volumes/EDDMA_Pos02/EDDMA_02/BRUTAS/CENAS%20CAPTADAS/20250513/AUDIO/250513/250513-T003.wav</pathurl>
							<rate>
								<timebase>30</timebase>
								<ntsc>TRUE</ntsc>
							</rate>
							<duration>6360</duration>
							<timecode>
								<rate>
									<timebase>30</timebase>
									<ntsc>TRUE</ntsc>
								</rate>
								<string>10;42;19;16</string>
								<frame>1155030</frame>
								<displayformat>DF</displayformat>
								<reel>
									<name>250513</name>
								</reel>
							</timecode>
							<media>
								<audio>
									<samplecharacteristics>
										<depth>16</depth>
										<samplerate>48000</samplerate>
									</samplecharacteristics>
									<channelcount>1</channelcount>
									<audiochannel>
										<sourcechannel>1</sourcechannel>
									</audiochannel>
								</audio>
								<audio>
									<samplecharacteristics>
										<depth>16</depth>
										<samplerate>48000</samplerate>
									</samplecharacteristics>
									<channelcount>1</channelcount>
									<audiochannel>
										<sourcechannel>2</sourcechannel>
									</audiochannel>
								</audio>
								<audio>
									<samplecharacteristics>
										<depth>16</depth>
										<samplerate>48000</samplerate>
									</samplecharacteristics>
									<channelcount>1</channelcount>
									<audiochannel>
										<sourcechannel>3</sourcechannel>
									</audiochannel>
								</audio>
							</media>
						</file>
						<sourcetrack>
							<mediatype>audio</mediatype>
							<trackindex>1</trackindex>
						</sourcetrack>
						<filter>
							<effect>
								<name>Audio Levels</name>
								<effectid>audiolevels</effectid>
								<effectcategory>audiolevels</effectcategory>
								<effecttype>audiolevels</effecttype>
								<mediatype>audio</mediatype>
								<pproBypass>false</pproBypass>
								<parameter authoringApp="PremierePro">
									<parameterid>level</parameterid>
									<name>Level</name>
									<valuemin>0</valuemin>
									<valuemax>3.98109</valuemax>
									<value>3.98109</value>
								</parameter>
							</effect>
						</filter>
						<logginginfo>
							<description></description>
							<scene>250513</scene>
							<shottake></shottake>
							<lognote></lognote>
							<good></good>
							<originalvideofilename></originalvideofilename>
							<originalaudiofilename></originalaudiofilename>
						</logginginfo>
						<colorinfo>
							<lut></lut>
							<lut1></lut1>
							<asc_sop></asc_sop>
							<asc_sat></asc_sat>
							<lut2></lut2>
						</colorinfo>
						<labels>
							<label2>Lavender</label2>
						</labels>
					</clipitem>
					<clipitem id="clipitem-232" premiereChannelType="stereo">
						<masterclipid>masterclip-37</masterclipid>
						<name>250411-T011.WAV</name>
						<enabled>TRUE</enabled>
						<duration>101310</duration>
						<rate>
							<timebase>30</timebase>
							<ntsc>TRUE</ntsc>
						</rate>
						<start>43266</start>
						<end>44009</end>
						<in>93431</in>
						<out>94174</out>
						<pproTicksIn>791890062163200</pproTicksIn>
						<pproTicksOut>798187482892800</pproTicksOut>
						<file id="file-37">
							<name>250411-T011.wav</name>
							<pathurl>file://localhost/Volumes/EDDMA_Pos01/EDDMA_01/BRUTAS/CENAS%20CAPTADAS/20250411/AUDIO/250411/250411-T011.wav</pathurl>
							<rate>
								<timebase>30</timebase>
								<ntsc>TRUE</ntsc>
							</rate>
							<duration>101310</duration>
							<timecode>
								<rate>
									<timebase>30</timebase>
									<ntsc>TRUE</ntsc>
								</rate>
								<string>15;32;21;28</string>
								<frame>1676580</frame>
								<displayformat>DF</displayformat>
								<reel>
									<name>250411(2)</name>
								</reel>
							</timecode>
							<media>
								<audio>
									<samplecharacteristics>
										<depth>16</depth>
										<samplerate>48000</samplerate>
									</samplecharacteristics>
									<channelcount>2</channelcount>
								</audio>
							</media>
						</file>
						<sourcetrack>
							<mediatype>audio</mediatype>
							<trackindex>1</trackindex>
						</sourcetrack>
						<link>
							<linkclipref>clipitem-232</linkclipref>
							<mediatype>audio</mediatype>
							<trackindex>1</trackindex>
							<clipindex>101</clipindex>
							<groupindex>1</groupindex>
						</link>
						<link>
							<linkclipref>clipitem-329</linkclipref>
							<mediatype>audio</mediatype>
							<trackindex>2</trackindex>
							<clipindex>90</clipindex>
							<groupindex>1</groupindex>
						</link>
						<logginginfo>
							<description></description>
							<scene>250411</scene>
							<shottake></shottake>
							<lognote></lognote>
							<good></good>
							<originalvideofilename></originalvideofilename>
							<originalaudiofilename></originalaudiofilename>
						</logginginfo>
						<colorinfo>
							<lut></lut>
							<lut1></lut1>
							<asc_sop></asc_sop>
							<asc_sat></asc_sat>
							<lut2></lut2>
						</colorinfo>
					</clipitem>
					<clipitem id="clipitem-233" premiereChannelType="stereo">
						<masterclipid>masterclip-38</masterclipid>
						<name>250404-T014.WAV</name>
						<enabled>TRUE</enabled>
						<duration>7860</duration>
						<rate>
							<timebase>30</timebase>
							<ntsc>TRUE</ntsc>
						</rate>
						<start>44009</start>
						<end>45307</end>
						<in>3982</in>
						<out>5280</out>
						<pproTicksIn>33750106790400</pproTicksIn>
						<pproTicksOut>44751522816000</pproTicksOut>
						<file id="file-38">
							<name>250404-T014.wav</name>
							<pathurl>file://localhost/Volumes/EDDMA_Pos01/EDDMA_01/BRUTAS/CENAS%20CAPTADAS/20250404/AUDIO/250404/250404-T014.wav</pathurl>
							<rate>
								<timebase>30</timebase>
								<ntsc>TRUE</ntsc>
							</rate>
							<duration>7860</duration>
							<timecode>
								<rate>
									<timebase>30</timebase>
									<ntsc>TRUE</ntsc>
								</rate>
								<string>15;18;22;04</string>
								<frame>1651410</frame>
								<displayformat>DF</displayformat>
								<reel>
									<name>250404</name>
								</reel>
							</timecode>
							<media>
								<audio>
									<samplecharacteristics>
										<depth>16</depth>
										<samplerate>48000</samplerate>
									</samplecharacteristics>
									<channelcount>2</channelcount>
								</audio>
							</media>
						</file>
						<sourcetrack>
							<mediatype>audio</mediatype>
							<trackindex>1</trackindex>
						</sourcetrack>
						<link>
							<linkclipref>clipitem-233</linkclipref>
							<mediatype>audio</mediatype>
							<trackindex>1</trackindex>
							<clipindex>102</clipindex>
							<groupindex>1</groupindex>
						</link>
						<link>
							<linkclipref>clipitem-330</linkclipref>
							<mediatype>audio</mediatype>
							<trackindex>2</trackindex>
							<clipindex>91</clipindex>
							<groupindex>1</groupindex>
						</link>
						<logginginfo>
							<description></description>
							<scene>250404</scene>
							<shottake></shottake>
							<lognote></lognote>
							<good></good>
							<originalvideofilename></originalvideofilename>
							<originalaudiofilename></originalaudiofilename>
						</logginginfo>
						<colorinfo>
							<lut></lut>
							<lut1></lut1>
							<asc_sop></asc_sop>
							<asc_sat></asc_sat>
							<lut2></lut2>
						</colorinfo>
					</clipitem>
					<clipitem id="clipitem-234" premiereChannelType="stereo">
						<masterclipid>masterclip-31</masterclipid>
						<name>250502-T009.WAV</name>
						<enabled>TRUE</enabled>
						<duration>88020</duration>
						<rate>
							<timebase>30</timebase>
							<ntsc>TRUE</ntsc>
						</rate>
						<start>45307</start>
						<end>45501</end>
						<in>58140</in>
						<out>58334</out>
						<pproTicksIn>492775291008000</pproTicksIn>
						<pproTicksOut>494419570444800</pproTicksOut>
						<file id="file-31"/>
						<sourcetrack>
							<mediatype>audio</mediatype>
							<trackindex>1</trackindex>
						</sourcetrack>
						<filter>
							<effect>
								<name>Audio Levels</name>
								<effectid>audiolevels</effectid>
								<effectcategory>audiolevels</effectcategory>
								<effecttype>audiolevels</effecttype>
								<mediatype>audio</mediatype>
								<pproBypass>false</pproBypass>
								<parameter authoringApp="PremierePro">
									<parameterid>level</parameterid>
									<name>Level</name>
									<valuemin>0</valuemin>
									<valuemax>3.98109</valuemax>
									<value>1</value>
									<keyframe>
										<when>88019</when>
										<value>1</value>
									</keyframe>
								</parameter>
							</effect>
						</filter>
						<link>
							<linkclipref>clipitem-234</linkclipref>
							<mediatype>audio</mediatype>
							<trackindex>1</trackindex>
							<clipindex>103</clipindex>
							<groupindex>1</groupindex>
						</link>
						<link>
							<linkclipref>clipitem-331</linkclipref>
							<mediatype>audio</mediatype>
							<trackindex>2</trackindex>
							<clipindex>92</clipindex>
							<groupindex>1</groupindex>
						</link>
						<logginginfo>
							<description></description>
							<scene>250502</scene>
							<shottake></shottake>
							<lognote></lognote>
							<good></good>
							<originalvideofilename></originalvideofilename>
							<originalaudiofilename></originalaudiofilename>
						</logginginfo>
						<colorinfo>
							<lut></lut>
							<lut1></lut1>
							<asc_sop></asc_sop>
							<asc_sat></asc_sat>
							<lut2></lut2>
						</colorinfo>
					</clipitem>
					<clipitem id="clipitem-235" premiereChannelType="stereo">
						<masterclipid>masterclip-31</masterclipid>
						<name>250502-T009.WAV</name>
						<enabled>TRUE</enabled>
						<duration>88020</duration>
						<rate>
							<timebase>30</timebase>
							<ntsc>TRUE</ntsc>
						</rate>
						<start>45501</start>
						<end>46760</end>
						<in>59466</in>
						<out>60725</out>
						<pproTicksIn>504014025715200</pproTicksIn>
						<pproTicksOut>514684890720000</pproTicksOut>
						<file id="file-31"/>
						<sourcetrack>
							<mediatype>audio</mediatype>
							<trackindex>1</trackindex>
						</sourcetrack>
						<filter>
							<effect>
								<name>Audio Levels</name>
								<effectid>audiolevels</effectid>
								<effectcategory>audiolevels</effectcategory>
								<effecttype>audiolevels</effecttype>
								<mediatype>audio</mediatype>
								<pproBypass>false</pproBypass>
								<parameter authoringApp="PremierePro">
									<parameterid>level</parameterid>
									<name>Level</name>
									<valuemin>0</valuemin>
									<valuemax>3.98109</valuemax>
									<value>1</value>
									<keyframe>
										<when>88019</when>
										<value>1</value>
									</keyframe>
								</parameter>
							</effect>
						</filter>
						<link>
							<linkclipref>clipitem-235</linkclipref>
							<mediatype>audio</mediatype>
							<trackindex>1</trackindex>
							<clipindex>104</clipindex>
							<groupindex>1</groupindex>
						</link>
						<link>
							<linkclipref>clipitem-332</linkclipref>
							<mediatype>audio</mediatype>
							<trackindex>2</trackindex>
							<clipindex>93</clipindex>
							<groupindex>1</groupindex>
						</link>
						<logginginfo>
							<description></description>
							<scene>250502</scene>
							<shottake></shottake>
							<lognote></lognote>
							<good></good>
							<originalvideofilename></originalvideofilename>
							<originalaudiofilename></originalaudiofilename>
						</logginginfo>
						<colorinfo>
							<lut></lut>
							<lut1></lut1>
							<asc_sop></asc_sop>
							<asc_sat></asc_sat>
							<lut2></lut2>
						</colorinfo>
					</clipitem>
					<clipitem id="clipitem-236" premiereChannelType="stereo">
						<masterclipid>masterclip-31</masterclipid>
						<name>250502-T009.WAV</name>
						<enabled>TRUE</enabled>
						<duration>88020</duration>
						<rate>
							<timebase>30</timebase>
							<ntsc>TRUE</ntsc>
						</rate>
						<start>46760</start>
						<end>46984</end>
						<in>61640</in>
						<out>61864</out>
						<pproTicksIn>522440126208000</pproTicksIn>
						<pproTicksOut>524338675660800</pproTicksOut>
						<file id="file-31"/>
						<sourcetrack>
							<mediatype>audio</mediatype>
							<trackindex>1</trackindex>
						</sourcetrack>
						<filter>
							<effect>
								<name>Audio Levels</name>
								<effectid>audiolevels</effectid>
								<effectcategory>audiolevels</effectcategory>
								<effecttype>audiolevels</effecttype>
								<mediatype>audio</mediatype>
								<pproBypass>false</pproBypass>
								<parameter authoringApp="PremierePro">
									<parameterid>level</parameterid>
									<name>Level</name>
									<valuemin>0</valuemin>
									<valuemax>3.98109</valuemax>
									<value>1</value>
									<keyframe>
										<when>88019</when>
										<value>1</value>
									</keyframe>
								</parameter>
							</effect>
						</filter>
						<link>
							<linkclipref>clipitem-236</linkclipref>
							<mediatype>audio</mediatype>
							<trackindex>1</trackindex>
							<clipindex>105</clipindex>
							<groupindex>1</groupindex>
						</link>
						<link>
							<linkclipref>clipitem-333</linkclipref>
							<mediatype>audio</mediatype>
							<trackindex>2</trackindex>
							<clipindex>94</clipindex>
							<groupindex>1</groupindex>
						</link>
						<logginginfo>
							<description></description>
							<scene>250502</scene>
							<shottake></shottake>
							<lognote></lognote>
							<good></good>
							<originalvideofilename></originalvideofilename>
							<originalaudiofilename></originalaudiofilename>
						</logginginfo>
						<colorinfo>
							<lut></lut>
							<lut1></lut1>
							<asc_sop></asc_sop>
							<asc_sat></asc_sat>
							<lut2></lut2>
						</colorinfo>
					</clipitem>
					<clipitem id="clipitem-237" premiereChannelType="stereo">
						<masterclipid>masterclip-31</masterclipid>
						<name>250502-T009.WAV</name>
						<enabled>TRUE</enabled>
						<duration>88020</duration>
						<rate>
							<timebase>30</timebase>
							<ntsc>TRUE</ntsc>
						</rate>
						<start>46984</start>
						<end>47471</end>
						<in>60759</in>
						<out>61246</out>
						<pproTicksIn>514973063404800</pproTicksIn>
						<pproTicksOut>519100713331200</pproTicksOut>
						<file id="file-31"/>
						<sourcetrack>
							<mediatype>audio</mediatype>
							<trackindex>1</trackindex>
						</sourcetrack>
						<filter>
							<effect>
								<name>Audio Levels</name>
								<effectid>audiolevels</effectid>
								<effectcategory>audiolevels</effectcategory>
								<effecttype>audiolevels</effecttype>
								<mediatype>audio</mediatype>
								<pproBypass>false</pproBypass>
								<parameter authoringApp="PremierePro">
									<parameterid>level</parameterid>
									<name>Level</name>
									<valuemin>0</valuemin>
									<valuemax>3.98109</valuemax>
									<value>1</value>
									<keyframe>
										<when>88019</when>
										<value>1</value>
									</keyframe>
								</parameter>
							</effect>
						</filter>
						<link>
							<linkclipref>clipitem-237</linkclipref>
							<mediatype>audio</mediatype>
							<trackindex>1</trackindex>
							<clipindex>106</clipindex>
							<groupindex>1</groupindex>
						</link>
						<link>
							<linkclipref>clipitem-334</linkclipref>
							<mediatype>audio</mediatype>
							<trackindex>2</trackindex>
							<clipindex>95</clipindex>
							<groupindex>1</groupindex>
						</link>
						<logginginfo>
							<description></description>
							<scene>250502</scene>
							<shottake></shottake>
							<lognote></lognote>
							<good></good>
							<originalvideofilename></originalvideofilename>
							<originalaudiofilename></originalaudiofilename>
						</logginginfo>
						<colorinfo>
							<lut></lut>
							<lut1></lut1>
							<asc_sop></asc_sop>
							<asc_sat></asc_sat>
							<lut2></lut2>
						</colorinfo>
					</clipitem>
					<clipitem id="clipitem-238" premiereChannelType="stereo">
						<masterclipid>masterclip-31</masterclipid>
						<name>250502-T009.WAV</name>
						<enabled>TRUE</enabled>
						<duration>88020</duration>
						<rate>
							<timebase>30</timebase>
							<ntsc>TRUE</ntsc>
						</rate>
						<start>47471</start>
						<end>47606</end>
						<in>58961</in>
						<out>59096</out>
						<pproTicksIn>499733813779200</pproTicksIn>
						<pproTicksOut>500878028851200</pproTicksOut>
						<file id="file-31"/>
						<sourcetrack>
							<mediatype>audio</mediatype>
							<trackindex>1</trackindex>
						</sourcetrack>
						<filter>
							<effect>
								<name>Audio Levels</name>
								<effectid>audiolevels</effectid>
								<effectcategory>audiolevels</effectcategory>
								<effecttype>audiolevels</effecttype>
								<mediatype>audio</mediatype>
								<pproBypass>false</pproBypass>
								<parameter authoringApp="PremierePro">
									<parameterid>level</parameterid>
									<name>Level</name>
									<valuemin>0</valuemin>
									<valuemax>3.98109</valuemax>
									<value>1</value>
									<keyframe>
										<when>88019</when>
										<value>1</value>
									</keyframe>
								</parameter>
							</effect>
						</filter>
						<link>
							<linkclipref>clipitem-238</linkclipref>
							<mediatype>audio</mediatype>
							<trackindex>1</trackindex>
							<clipindex>107</clipindex>
							<groupindex>1</groupindex>
						</link>
						<link>
							<linkclipref>clipitem-335</linkclipref>
							<mediatype>audio</mediatype>
							<trackindex>2</trackindex>
							<clipindex>96</clipindex>
							<groupindex>1</groupindex>
						</link>
						<logginginfo>
							<description></description>
							<scene>250502</scene>
							<shottake></shottake>
							<lognote></lognote>
							<good></good>
							<originalvideofilename></originalvideofilename>
							<originalaudiofilename></originalaudiofilename>
						</logginginfo>
						<colorinfo>
							<lut></lut>
							<lut1></lut1>
							<asc_sop></asc_sop>
							<asc_sat></asc_sat>
							<lut2></lut2>
						</colorinfo>
					</clipitem>
					<clipitem id="clipitem-239" premiereChannelType="stereo">
						<masterclipid>masterclip-7</masterclipid>
						<name>2025-03-20 08-52-56 .mov</name>
						<enabled>TRUE</enabled>
						<duration>31991</duration>
						<rate>
							<timebase>30</timebase>
							<ntsc>TRUE</ntsc>
						</rate>
						<start>47606</start>
						<end>52701</end>
						<in>9988</in>
						<out>15083</out>
						<pproTicksIn>84654963993600</pproTicksIn>
						<pproTicksOut>127838488377600</pproTicksOut>
						<file id="file-7"/>
						<sourcetrack>
							<mediatype>audio</mediatype>
							<trackindex>1</trackindex>
						</sourcetrack>
							<marker>
								<comment>Historico Hidreletricas&#13;Florestas&#13;Povos originarios indigenas&#13;Vazao dos rios</comment>
								<name>Aguas</name>
								<in>22190</in>
								<out>-1</out>
							</marker>
							<marker>
								<comment>Aquecimento global&#13;Emissao de gases&#13;Desmatamento&#13;Energia&#13;Acordos internacionais</comment>
								<name>Futuro</name>
								<in>9988</in>
								<out>-1</out>
							</marker>
							<marker>
								<comment>Custo e subsidio&#13;Politicas publicas&#13;Desmatamento florestas&#13;Agro Agricultura&#13;Transiçao energetica</comment>
								<name>Mineraçao de carvao</name>
								<in>16086</in>
								<out>-1</out>
							</marker>
							<marker>
								<comment>Hidreletricas energia&#13;Rio Tapajos&#13;Barragens</comment>
								<name>Aguas</name>
								<in>29660</in>
								<out>-1</out>
							</marker>
							<marker>
								<comment>Transiçao energetica&#13;Exemplo EUA e China&#13;Explica produçao de gas natural&#13;Aumento do consumo de energia&#13;EUA indo no sentido contrario</comment>
								<name>Energia</name>
								<in>815</in>
								<out>-1</out>
							</marker>
						<link>
							<linkclipref>clipitem-108</linkclipref>
							<mediatype>video</mediatype>
							<trackindex>1</trackindex>
							<clipindex>108</clipindex>
						</link>
						<link>
							<linkclipref>clipitem-239</linkclipref>
							<mediatype>audio</mediatype>
							<trackindex>1</trackindex>
							<clipindex>108</clipindex>
							<groupindex>1</groupindex>
						</link>
						<link>
							<linkclipref>clipitem-336</linkclipref>
							<mediatype>audio</mediatype>
							<trackindex>2</trackindex>
							<clipindex>97</clipindex>
							<groupindex>1</groupindex>
						</link>
						<logginginfo>
							<description></description>
							<scene></scene>
							<shottake></shottake>
							<lognote></lognote>
							<good></good>
							<originalvideofilename></originalvideofilename>
							<originalaudiofilename></originalaudiofilename>
						</logginginfo>
						<colorinfo>
							<lut></lut>
							<lut1></lut1>
							<asc_sop></asc_sop>
							<asc_sat></asc_sat>
							<lut2></lut2>
						</colorinfo>
					</clipitem>
					<enabled>TRUE</enabled>
					<locked>FALSE</locked>
					<outputchannelindex>1</outputchannelindex>
				</track>
				<track TL.SQTrackAudioKeyframeStyle="0" TL.SQTrackShy="0" TL.SQTrackExpandedHeight="65" TL.SQTrackExpanded="0" MZ.TrackTargeted="1" PannerCurrentValue="0.5" PannerIsInverted="true" PannerStartKeyframe="-91445760000000000,0.5,0,0,0,0,0,0" PannerName="Balance" currentExplodedTrackIndex="1" totalExplodedTrackCount="2" premiereTrackType="Stereo">
					<clipitem id="clipitem-240" premiereChannelType="stereo">
						<masterclipid>masterclip-25</masterclipid>
						<name>250506-T001.WAV</name>
						<enabled>TRUE</enabled>
						<duration>27540</duration>
						<rate>
							<timebase>30</timebase>
							<ntsc>TRUE</ntsc>
						</rate>
						<start>0</start>
						<end>215</end>
						<in>2274</in>
						<out>2489</out>
						<pproTicksIn>19273667212800</pproTicksIn>
						<pproTicksOut>21095935660800</pproTicksOut>
						<file id="file-25"/>
						<sourcetrack>
							<mediatype>audio</mediatype>
							<trackindex>2</trackindex>
						</sourcetrack>
						<filter>
							<effect>
								<name>Audio Levels</name>
								<effectid>audiolevels</effectid>
								<effectcategory>audiolevels</effectcategory>
								<effecttype>audiolevels</effecttype>
								<mediatype>audio</mediatype>
								<pproBypass>false</pproBypass>
								<parameter authoringApp="PremierePro">
									<parameterid>level</parameterid>
									<name>Level</name>
									<valuemin>0</valuemin>
									<valuemax>3.98109</valuemax>
									<value>3.16228</value>
								</parameter>
							</effect>
						</filter>
						<link>
							<linkclipref>clipitem-132</linkclipref>
							<mediatype>audio</mediatype>
							<trackindex>1</trackindex>
							<clipindex>1</clipindex>
							<groupindex>1</groupindex>
						</link>
						<link>
							<linkclipref>clipitem-240</linkclipref>
							<mediatype>audio</mediatype>
							<trackindex>2</trackindex>
							<clipindex>1</clipindex>
							<groupindex>1</groupindex>
						</link>
						<logginginfo>
							<description>Rafaela Rosa</description>
							<scene>250506</scene>
							<shottake></shottake>
							<lognote></lognote>
							<good></good>
							<originalvideofilename></originalvideofilename>
							<originalaudiofilename></originalaudiofilename>
						</logginginfo>
						<colorinfo>
							<lut></lut>
							<lut1></lut1>
							<asc_sop></asc_sop>
							<asc_sat></asc_sat>
							<lut2></lut2>
						</colorinfo>
					</clipitem>
					<clipitem id="clipitem-241" premiereChannelType="stereo">
						<masterclipid>masterclip-25</masterclipid>
						<name>250506-T001.WAV</name>
						<enabled>TRUE</enabled>
						<duration>27540</duration>
						<rate>
							<timebase>30</timebase>
							<ntsc>TRUE</ntsc>
						</rate>
						<start>215</start>
						<end>1063</end>
						<in>2760</in>
						<out>3608</out>
						<pproTicksIn>23392841472000</pproTicksIn>
						<pproTicksOut>30580207257600</pproTicksOut>
						<file id="file-25"/>
						<sourcetrack>
							<mediatype>audio</mediatype>
							<trackindex>2</trackindex>
						</sourcetrack>
						<filter>
							<effect>
								<name>Audio Levels</name>
								<effectid>audiolevels</effectid>
								<effectcategory>audiolevels</effectcategory>
								<effecttype>audiolevels</effecttype>
								<mediatype>audio</mediatype>
								<pproBypass>false</pproBypass>
								<parameter authoringApp="PremierePro">
									<parameterid>level</parameterid>
									<name>Level</name>
									<valuemin>0</valuemin>
									<valuemax>3.98109</valuemax>
									<value>3.16228</value>
								</parameter>
							</effect>
						</filter>
						<link>
							<linkclipref>clipitem-133</linkclipref>
							<mediatype>audio</mediatype>
							<trackindex>1</trackindex>
							<clipindex>2</clipindex>
							<groupindex>1</groupindex>
						</link>
						<link>
							<linkclipref>clipitem-241</linkclipref>
							<mediatype>audio</mediatype>
							<trackindex>2</trackindex>
							<clipindex>2</clipindex>
							<groupindex>1</groupindex>
						</link>
						<logginginfo>
							<description>Rafaela Rosa</description>
							<scene>250506</scene>
							<shottake></shottake>
							<lognote></lognote>
							<good></good>
							<originalvideofilename></originalvideofilename>
							<originalaudiofilename></originalaudiofilename>
						</logginginfo>
						<colorinfo>
							<lut></lut>
							<lut1></lut1>
							<asc_sop></asc_sop>
							<asc_sat></asc_sat>
							<lut2></lut2>
						</colorinfo>
					</clipitem>
					<clipitem id="clipitem-242" premiereChannelType="stereo">
						<masterclipid>masterclip-25</masterclipid>
						<name>250506-T001.WAV</name>
						<enabled>TRUE</enabled>
						<duration>27540</duration>
						<rate>
							<timebase>30</timebase>
							<ntsc>TRUE</ntsc>
						</rate>
						<start>1063</start>
						<end>1472</end>
						<in>7122</in>
						<out>7531</out>
						<pproTicksIn>60363701798400</pproTicksIn>
						<pproTicksOut>63830249683200</pproTicksOut>
						<file id="file-25"/>
						<sourcetrack>
							<mediatype>audio</mediatype>
							<trackindex>2</trackindex>
						</sourcetrack>
						<filter>
							<effect>
								<name>Audio Levels</name>
								<effectid>audiolevels</effectid>
								<effectcategory>audiolevels</effectcategory>
								<effecttype>audiolevels</effecttype>
								<mediatype>audio</mediatype>
								<pproBypass>false</pproBypass>
								<parameter authoringApp="PremierePro">
									<parameterid>level</parameterid>
									<name>Level</name>
									<valuemin>0</valuemin>
									<valuemax>3.98109</valuemax>
									<value>3.16228</value>
								</parameter>
							</effect>
						</filter>
						<link>
							<linkclipref>clipitem-134</linkclipref>
							<mediatype>audio</mediatype>
							<trackindex>1</trackindex>
							<clipindex>3</clipindex>
							<groupindex>1</groupindex>
						</link>
						<link>
							<linkclipref>clipitem-242</linkclipref>
							<mediatype>audio</mediatype>
							<trackindex>2</trackindex>
							<clipindex>3</clipindex>
							<groupindex>1</groupindex>
						</link>
						<logginginfo>
							<description>Rafaela Rosa</description>
							<scene>250506</scene>
							<shottake></shottake>
							<lognote></lognote>
							<good></good>
							<originalvideofilename></originalvideofilename>
							<originalaudiofilename></originalaudiofilename>
						</logginginfo>
						<colorinfo>
							<lut></lut>
							<lut1></lut1>
							<asc_sop></asc_sop>
							<asc_sat></asc_sat>
							<lut2></lut2>
						</colorinfo>
					</clipitem>
					<clipitem id="clipitem-243" premiereChannelType="stereo">
						<masterclipid>masterclip-27</masterclipid>
						<name>250513-T004.WAV</name>
						<enabled>TRUE</enabled>
						<duration>22380</duration>
						<rate>
							<timebase>30</timebase>
							<ntsc>TRUE</ntsc>
						</rate>
						<start>2625</start>
						<end>2961</end>
						<in>3848</in>
						<out>4184</out>
						<pproTicksIn>32614367385600</pproTicksIn>
						<pproTicksOut>35462191564800</pproTicksOut>
						<file id="file-27"/>
						<sourcetrack>
							<mediatype>audio</mediatype>
							<trackindex>2</trackindex>
						</sourcetrack>
						<link>
							<linkclipref>clipitem-137</linkclipref>
							<mediatype>audio</mediatype>
							<trackindex>1</trackindex>
							<clipindex>6</clipindex>
							<groupindex>1</groupindex>
						</link>
						<link>
							<linkclipref>clipitem-243</linkclipref>
							<mediatype>audio</mediatype>
							<trackindex>2</trackindex>
							<clipindex>4</clipindex>
							<groupindex>1</groupindex>
						</link>
						<logginginfo>
							<description>Adão Oliveira</description>
							<scene>250513</scene>
							<shottake></shottake>
							<lognote></lognote>
							<good></good>
							<originalvideofilename></originalvideofilename>
							<originalaudiofilename></originalaudiofilename>
						</logginginfo>
						<colorinfo>
							<lut></lut>
							<lut1></lut1>
							<asc_sop></asc_sop>
							<asc_sat></asc_sat>
							<lut2></lut2>
						</colorinfo>
						<labels>
							<label2>Caribbean</label2>
						</labels>
					</clipitem>
					<clipitem id="clipitem-244" premiereChannelType="stereo">
						<masterclipid>masterclip-27</masterclipid>
						<name>250513-T004.WAV</name>
						<enabled>TRUE</enabled>
						<duration>22380</duration>
						<rate>
							<timebase>30</timebase>
							<ntsc>TRUE</ntsc>
						</rate>
						<start>2961</start>
						<end>3274</end>
						<in>2192</in>
						<out>2505</out>
						<pproTicksIn>18578662502400</pproTicksIn>
						<pproTicksOut>21231546336000</pproTicksOut>
						<file id="file-27"/>
						<sourcetrack>
							<mediatype>audio</mediatype>
							<trackindex>2</trackindex>
						</sourcetrack>
						<link>
							<linkclipref>clipitem-138</linkclipref>
							<mediatype>audio</mediatype>
							<trackindex>1</trackindex>
							<clipindex>7</clipindex>
							<groupindex>1</groupindex>
						</link>
						<link>
							<linkclipref>clipitem-244</linkclipref>
							<mediatype>audio</mediatype>
							<trackindex>2</trackindex>
							<clipindex>5</clipindex>
							<groupindex>1</groupindex>
						</link>
						<logginginfo>
							<description>Adão Oliveira</description>
							<scene>250513</scene>
							<shottake></shottake>
							<lognote></lognote>
							<good></good>
							<originalvideofilename></originalvideofilename>
							<originalaudiofilename></originalaudiofilename>
						</logginginfo>
						<colorinfo>
							<lut></lut>
							<lut1></lut1>
							<asc_sop></asc_sop>
							<asc_sat></asc_sat>
							<lut2></lut2>
						</colorinfo>
						<labels>
							<label2>Caribbean</label2>
						</labels>
					</clipitem>
					<clipitem id="clipitem-245" premiereChannelType="stereo">
						<masterclipid>masterclip-27</masterclipid>
						<name>250513-T004.WAV</name>
						<enabled>TRUE</enabled>
						<duration>22380</duration>
						<rate>
							<timebase>30</timebase>
							<ntsc>TRUE</ntsc>
						</rate>
						<start>5346</start>
						<end>5689</end>
						<in>4948</in>
						<out>5291</out>
						<pproTicksIn>41937601305600</pproTicksIn>
						<pproTicksOut>44844755155200</pproTicksOut>
						<file id="file-27"/>
						<sourcetrack>
							<mediatype>audio</mediatype>
							<trackindex>2</trackindex>
						</sourcetrack>
						<link>
							<linkclipref>clipitem-146</linkclipref>
							<mediatype>audio</mediatype>
							<trackindex>1</trackindex>
							<clipindex>15</clipindex>
							<groupindex>1</groupindex>
						</link>
						<link>
							<linkclipref>clipitem-245</linkclipref>
							<mediatype>audio</mediatype>
							<trackindex>2</trackindex>
							<clipindex>6</clipindex>
							<groupindex>1</groupindex>
						</link>
						<logginginfo>
							<description>Adão Oliveira</description>
							<scene>250513</scene>
							<shottake></shottake>
							<lognote></lognote>
							<good></good>
							<originalvideofilename></originalvideofilename>
							<originalaudiofilename></originalaudiofilename>
						</logginginfo>
						<colorinfo>
							<lut></lut>
							<lut1></lut1>
							<asc_sop></asc_sop>
							<asc_sat></asc_sat>
							<lut2></lut2>
						</colorinfo>
						<labels>
							<label2>Caribbean</label2>
						</labels>
					</clipitem>
					<clipitem id="clipitem-246" premiereChannelType="stereo">
						<masterclipid>masterclip-27</masterclipid>
						<name>250513-T004.WAV</name>
						<enabled>TRUE</enabled>
						<duration>22380</duration>
						<rate>
							<timebase>30</timebase>
							<ntsc>TRUE</ntsc>
						</rate>
						<start>5689</start>
						<end>5866</end>
						<in>8294</in>
						<out>8471</out>
						<pproTicksIn>70297183756800</pproTicksIn>
						<pproTicksOut>71797376851200</pproTicksOut>
						<file id="file-27"/>
						<sourcetrack>
							<mediatype>audio</mediatype>
							<trackindex>2</trackindex>
						</sourcetrack>
						<link>
							<linkclipref>clipitem-147</linkclipref>
							<mediatype>audio</mediatype>
							<trackindex>1</trackindex>
							<clipindex>16</clipindex>
							<groupindex>1</groupindex>
						</link>
						<link>
							<linkclipref>clipitem-246</linkclipref>
							<mediatype>audio</mediatype>
							<trackindex>2</trackindex>
							<clipindex>7</clipindex>
							<groupindex>1</groupindex>
						</link>
						<logginginfo>
							<description>Adão Oliveira</description>
							<scene>250513</scene>
							<shottake></shottake>
							<lognote></lognote>
							<good></good>
							<originalvideofilename></originalvideofilename>
							<originalaudiofilename></originalaudiofilename>
						</logginginfo>
						<colorinfo>
							<lut></lut>
							<lut1></lut1>
							<asc_sop></asc_sop>
							<asc_sat></asc_sat>
							<lut2></lut2>
						</colorinfo>
						<labels>
							<label2>Caribbean</label2>
						</labels>
					</clipitem>
					<clipitem id="clipitem-247" premiereChannelType="stereo">
						<masterclipid>masterclip-28</masterclipid>
						<name>250515-T014.WAV</name>
						<enabled>TRUE</enabled>
						<duration>84540</duration>
						<rate>
							<timebase>30</timebase>
							<ntsc>TRUE</ntsc>
						</rate>
						<start>6415</start>
						<end>7038</end>
						<in>6075</in>
						<out>6698</out>
						<pproTicksIn>51489678240000</pproTicksIn>
						<pproTicksOut>56770018905600</pproTicksOut>
						<file id="file-28"/>
						<sourcetrack>
							<mediatype>audio</mediatype>
							<trackindex>2</trackindex>
						</sourcetrack>
						<link>
							<linkclipref>clipitem-149</linkclipref>
							<mediatype>audio</mediatype>
							<trackindex>1</trackindex>
							<clipindex>18</clipindex>
							<groupindex>1</groupindex>
						</link>
						<link>
							<linkclipref>clipitem-247</linkclipref>
							<mediatype>audio</mediatype>
							<trackindex>2</trackindex>
							<clipindex>8</clipindex>
							<groupindex>1</groupindex>
						</link>
						<logginginfo>
							<description></description>
							<scene>250515</scene>
							<shottake></shottake>
							<lognote></lognote>
							<good></good>
							<originalvideofilename></originalvideofilename>
							<originalaudiofilename></originalaudiofilename>
						</logginginfo>
						<colorinfo>
							<lut></lut>
							<lut1></lut1>
							<asc_sop></asc_sop>
							<asc_sat></asc_sat>
							<lut2></lut2>
						</colorinfo>
						<labels>
							<label2>Caribbean</label2>
						</labels>
					</clipitem>
					<clipitem id="clipitem-248" premiereChannelType="stereo">
						<masterclipid>masterclip-28</masterclipid>
						<name>250515-T014.WAV</name>
						<enabled>TRUE</enabled>
						<duration>84540</duration>
						<rate>
							<timebase>30</timebase>
							<ntsc>TRUE</ntsc>
						</rate>
						<start>7038</start>
						<end>7129</end>
						<in>2439</in>
						<out>2530</out>
						<pproTicksIn>20672152300800</pproTicksIn>
						<pproTicksOut>21443438016000</pproTicksOut>
						<file id="file-28"/>
						<sourcetrack>
							<mediatype>audio</mediatype>
							<trackindex>2</trackindex>
						</sourcetrack>
						<link>
							<linkclipref>clipitem-150</linkclipref>
							<mediatype>audio</mediatype>
							<trackindex>1</trackindex>
							<clipindex>19</clipindex>
							<groupindex>1</groupindex>
						</link>
						<link>
							<linkclipref>clipitem-248</linkclipref>
							<mediatype>audio</mediatype>
							<trackindex>2</trackindex>
							<clipindex>9</clipindex>
							<groupindex>1</groupindex>
						</link>
						<logginginfo>
							<description></description>
							<scene>250515</scene>
							<shottake></shottake>
							<lognote></lognote>
							<good></good>
							<originalvideofilename></originalvideofilename>
							<originalaudiofilename></originalaudiofilename>
						</logginginfo>
						<colorinfo>
							<lut></lut>
							<lut1></lut1>
							<asc_sop></asc_sop>
							<asc_sat></asc_sat>
							<lut2></lut2>
						</colorinfo>
						<labels>
							<label2>Caribbean</label2>
						</labels>
					</clipitem>
					<clipitem id="clipitem-249" premiereChannelType="stereo">
						<masterclipid>masterclip-28</masterclipid>
						<name>250515-T014.WAV</name>
						<enabled>TRUE</enabled>
						<duration>84540</duration>
						<rate>
							<timebase>30</timebase>
							<ntsc>TRUE</ntsc>
						</rate>
						<start>7129</start>
						<end>7403</end>
						<in>6698</in>
						<out>6972</out>
						<pproTicksIn>56770018905600</pproTicksIn>
						<pproTicksOut>59092351718400</pproTicksOut>
						<file id="file-28"/>
						<sourcetrack>
							<mediatype>audio</mediatype>
							<trackindex>2</trackindex>
						</sourcetrack>
						<link>
							<linkclipref>clipitem-151</linkclipref>
							<mediatype>audio</mediatype>
							<trackindex>1</trackindex>
							<clipindex>20</clipindex>
							<groupindex>1</groupindex>
						</link>
						<link>
							<linkclipref>clipitem-249</linkclipref>
							<mediatype>audio</mediatype>
							<trackindex>2</trackindex>
							<clipindex>10</clipindex>
							<groupindex>1</groupindex>
						</link>
						<logginginfo>
							<description></description>
							<scene>250515</scene>
							<shottake></shottake>
							<lognote></lognote>
							<good></good>
							<originalvideofilename></originalvideofilename>
							<originalaudiofilename></originalaudiofilename>
						</logginginfo>
						<colorinfo>
							<lut></lut>
							<lut1></lut1>
							<asc_sop></asc_sop>
							<asc_sat></asc_sat>
							<lut2></lut2>
						</colorinfo>
						<labels>
							<label2>Caribbean</label2>
						</labels>
					</clipitem>
					<clipitem id="clipitem-250" premiereChannelType="stereo">
						<masterclipid>masterclip-28</masterclipid>
						<name>250515-T014.WAV</name>
						<enabled>TRUE</enabled>
						<duration>84540</duration>
						<rate>
							<timebase>30</timebase>
							<ntsc>TRUE</ntsc>
						</rate>
						<start>7403</start>
						<end>7655</end>
						<in>6972</in>
						<out>7224</out>
						<pproTicksIn>59092351718400</pproTicksIn>
						<pproTicksOut>61228219852800</pproTicksOut>
						<file id="file-28"/>
						<sourcetrack>
							<mediatype>audio</mediatype>
							<trackindex>2</trackindex>
						</sourcetrack>
						<link>
							<linkclipref>clipitem-152</linkclipref>
							<mediatype>audio</mediatype>
							<trackindex>1</trackindex>
							<clipindex>21</clipindex>
							<groupindex>1</groupindex>
						</link>
						<link>
							<linkclipref>clipitem-250</linkclipref>
							<mediatype>audio</mediatype>
							<trackindex>2</trackindex>
							<clipindex>11</clipindex>
							<groupindex>1</groupindex>
						</link>
						<logginginfo>
							<description></description>
							<scene>250515</scene>
							<shottake></shottake>
							<lognote></lognote>
							<good></good>
							<originalvideofilename></originalvideofilename>
							<originalaudiofilename></originalaudiofilename>
						</logginginfo>
						<colorinfo>
							<lut></lut>
							<lut1></lut1>
							<asc_sop></asc_sop>
							<asc_sat></asc_sat>
							<lut2></lut2>
						</colorinfo>
						<labels>
							<label2>Caribbean</label2>
						</labels>
					</clipitem>
					<clipitem id="clipitem-251" premiereChannelType="stereo">
						<masterclipid>masterclip-29</masterclipid>
						<name>250512-T010.WAV</name>
						<enabled>TRUE</enabled>
						<duration>32520</duration>
						<rate>
							<timebase>30</timebase>
							<ntsc>TRUE</ntsc>
						</rate>
						<start>7655</start>
						<end>8018</end>
						<in>16926</in>
						<out>17289</out>
						<pproTicksIn>143459143027200</pproTicksIn>
						<pproTicksOut>146535810220800</pproTicksOut>
						<file id="file-29"/>
						<sourcetrack>
							<mediatype>audio</mediatype>
							<trackindex>2</trackindex>
						</sourcetrack>
						<filter>
							<effect>
								<name>Audio Levels</name>
								<effectid>audiolevels</effectid>
								<effectcategory>audiolevels</effectcategory>
								<effecttype>audiolevels</effecttype>
								<mediatype>audio</mediatype>
								<pproBypass>false</pproBypass>
								<parameter authoringApp="PremierePro">
									<parameterid>level</parameterid>
									<name>Level</name>
									<valuemin>0</valuemin>
									<valuemax>3.98109</valuemax>
									<value>3.16228</value>
								</parameter>
							</effect>
						</filter>
						<link>
							<linkclipref>clipitem-153</linkclipref>
							<mediatype>audio</mediatype>
							<trackindex>1</trackindex>
							<clipindex>22</clipindex>
							<groupindex>1</groupindex>
						</link>
						<link>
							<linkclipref>clipitem-251</linkclipref>
							<mediatype>audio</mediatype>
							<trackindex>2</trackindex>
							<clipindex>12</clipindex>
							<groupindex>1</groupindex>
						</link>
						<logginginfo>
							<description></description>
							<scene>250512</scene>
							<shottake></shottake>
							<lognote></lognote>
							<good></good>
							<originalvideofilename></originalvideofilename>
							<originalaudiofilename></originalaudiofilename>
						</logginginfo>
						<colorinfo>
							<lut></lut>
							<lut1></lut1>
							<asc_sop></asc_sop>
							<asc_sat></asc_sat>
							<lut2></lut2>
						</colorinfo>
						<labels>
							<label2>Caribbean</label2>
						</labels>
					</clipitem>
					<clipitem id="clipitem-252" premiereChannelType="stereo">
						<masterclipid>masterclip-29</masterclipid>
						<name>250512-T010.WAV</name>
						<enabled>TRUE</enabled>
						<duration>32520</duration>
						<rate>
							<timebase>30</timebase>
							<ntsc>TRUE</ntsc>
						</rate>
						<start>8018</start>
						<end>8608</end>
						<in>17342</in>
						<out>17932</out>
						<pproTicksIn>146985020582400</pproTicksIn>
						<pproTicksOut>151985664230400</pproTicksOut>
						<file id="file-29"/>
						<sourcetrack>
							<mediatype>audio</mediatype>
							<trackindex>2</trackindex>
						</sourcetrack>
						<filter>
							<effect>
								<name>Audio Levels</name>
								<effectid>audiolevels</effectid>
								<effectcategory>audiolevels</effectcategory>
								<effecttype>audiolevels</effecttype>
								<mediatype>audio</mediatype>
								<pproBypass>false</pproBypass>
								<parameter authoringApp="PremierePro">
									<parameterid>level</parameterid>
									<name>Level</name>
									<valuemin>0</valuemin>
									<valuemax>3.98109</valuemax>
									<value>3.16228</value>
								</parameter>
							</effect>
						</filter>
						<link>
							<linkclipref>clipitem-154</linkclipref>
							<mediatype>audio</mediatype>
							<trackindex>1</trackindex>
							<clipindex>23</clipindex>
							<groupindex>1</groupindex>
						</link>
						<link>
							<linkclipref>clipitem-252</linkclipref>
							<mediatype>audio</mediatype>
							<trackindex>2</trackindex>
							<clipindex>13</clipindex>
							<groupindex>1</groupindex>
						</link>
						<logginginfo>
							<description></description>
							<scene>250512</scene>
							<shottake></shottake>
							<lognote></lognote>
							<good></good>
							<originalvideofilename></originalvideofilename>
							<originalaudiofilename></originalaudiofilename>
						</logginginfo>
						<colorinfo>
							<lut></lut>
							<lut1></lut1>
							<asc_sop></asc_sop>
							<asc_sat></asc_sat>
							<lut2></lut2>
						</colorinfo>
						<labels>
							<label2>Caribbean</label2>
						</labels>
					</clipitem>
					<clipitem id="clipitem-253" premiereChannelType="stereo">
						<masterclipid>masterclip-30</masterclipid>
						<name>250430-T003.WAV</name>
						<enabled>TRUE</enabled>
						<duration>76170</duration>
						<rate>
							<timebase>30</timebase>
							<ntsc>TRUE</ntsc>
						</rate>
						<start>8608</start>
						<end>8771</end>
						<in>35700</in>
						<out>35863</out>
						<pproTicksIn>302581319040000</pproTicksIn>
						<pproTicksOut>303962852793600</pproTicksOut>
						<file id="file-30"/>
						<sourcetrack>
							<mediatype>audio</mediatype>
							<trackindex>2</trackindex>
						</sourcetrack>
						<link>
							<linkclipref>clipitem-155</linkclipref>
							<mediatype>audio</mediatype>
							<trackindex>1</trackindex>
							<clipindex>24</clipindex>
							<groupindex>1</groupindex>
						</link>
						<link>
							<linkclipref>clipitem-253</linkclipref>
							<mediatype>audio</mediatype>
							<trackindex>2</trackindex>
							<clipindex>14</clipindex>
							<groupindex>1</groupindex>
						</link>
						<logginginfo>
							<description></description>
							<scene>250430</scene>
							<shottake></shottake>
							<lognote></lognote>
							<good></good>
							<originalvideofilename></originalvideofilename>
							<originalaudiofilename></originalaudiofilename>
						</logginginfo>
						<colorinfo>
							<lut></lut>
							<lut1></lut1>
							<asc_sop></asc_sop>
							<asc_sat></asc_sat>
							<lut2></lut2>
						</colorinfo>
					</clipitem>
					<clipitem id="clipitem-254" premiereChannelType="stereo">
						<masterclipid>masterclip-30</masterclipid>
						<name>250430-T003.WAV</name>
						<enabled>TRUE</enabled>
						<duration>76170</duration>
						<rate>
							<timebase>30</timebase>
							<ntsc>TRUE</ntsc>
						</rate>
						<start>8771</start>
						<end>8905</end>
						<in>36175</in>
						<out>36309</out>
						<pproTicksIn>306607260960000</pproTicksIn>
						<pproTicksOut>307743000364800</pproTicksOut>
						<file id="file-30"/>
						<sourcetrack>
							<mediatype>audio</mediatype>
							<trackindex>2</trackindex>
						</sourcetrack>
						<link>
							<linkclipref>clipitem-156</linkclipref>
							<mediatype>audio</mediatype>
							<trackindex>1</trackindex>
							<clipindex>25</clipindex>
							<groupindex>1</groupindex>
						</link>
						<link>
							<linkclipref>clipitem-254</linkclipref>
							<mediatype>audio</mediatype>
							<trackindex>2</trackindex>
							<clipindex>15</clipindex>
							<groupindex>1</groupindex>
						</link>
						<logginginfo>
							<description></description>
							<scene>250430</scene>
							<shottake></shottake>
							<lognote></lognote>
							<good></good>
							<originalvideofilename></originalvideofilename>
							<originalaudiofilename></originalaudiofilename>
						</logginginfo>
						<colorinfo>
							<lut></lut>
							<lut1></lut1>
							<asc_sop></asc_sop>
							<asc_sat></asc_sat>
							<lut2></lut2>
						</colorinfo>
					</clipitem>
					<clipitem id="clipitem-255" premiereChannelType="stereo">
						<masterclipid>masterclip-30</masterclipid>
						<name>250430-T003.WAV</name>
						<enabled>TRUE</enabled>
						<duration>76170</duration>
						<rate>
							<timebase>30</timebase>
							<ntsc>TRUE</ntsc>
						</rate>
						<start>8905</start>
						<end>9032</end>
						<in>36339</in>
						<out>36466</out>
						<pproTicksIn>307997270380800</pproTicksIn>
						<pproTicksOut>309073680115200</pproTicksOut>
						<file id="file-30"/>
						<sourcetrack>
							<mediatype>audio</mediatype>
							<trackindex>2</trackindex>
						</sourcetrack>
						<link>
							<linkclipref>clipitem-157</linkclipref>
							<mediatype>audio</mediatype>
							<trackindex>1</trackindex>
							<clipindex>26</clipindex>
							<groupindex>1</groupindex>
						</link>
						<link>
							<linkclipref>clipitem-255</linkclipref>
							<mediatype>audio</mediatype>
							<trackindex>2</trackindex>
							<clipindex>16</clipindex>
							<groupindex>1</groupindex>
						</link>
						<logginginfo>
							<description></description>
							<scene>250430</scene>
							<shottake></shottake>
							<lognote></lognote>
							<good></good>
							<originalvideofilename></originalvideofilename>
							<originalaudiofilename></originalaudiofilename>
						</logginginfo>
						<colorinfo>
							<lut></lut>
							<lut1></lut1>
							<asc_sop></asc_sop>
							<asc_sat></asc_sat>
							<lut2></lut2>
						</colorinfo>
					</clipitem>
					<clipitem id="clipitem-256" premiereChannelType="stereo">
						<masterclipid>masterclip-30</masterclipid>
						<name>250430-T003.WAV</name>
						<enabled>TRUE</enabled>
						<duration>76170</duration>
						<rate>
							<timebase>30</timebase>
							<ntsc>TRUE</ntsc>
						</rate>
						<start>9032</start>
						<end>9382</end>
						<in>36713</in>
						<out>37063</out>
						<pproTicksIn>311167169913600</pproTicksIn>
						<pproTicksOut>314133653433600</pproTicksOut>
						<file id="file-30"/>
						<sourcetrack>
							<mediatype>audio</mediatype>
							<trackindex>2</trackindex>
						</sourcetrack>
						<link>
							<linkclipref>clipitem-158</linkclipref>
							<mediatype>audio</mediatype>
							<trackindex>1</trackindex>
							<clipindex>27</clipindex>
							<groupindex>1</groupindex>
						</link>
						<link>
							<linkclipref>clipitem-256</linkclipref>
							<mediatype>audio</mediatype>
							<trackindex>2</trackindex>
							<clipindex>17</clipindex>
							<groupindex>1</groupindex>
						</link>
						<logginginfo>
							<description></description>
							<scene>250430</scene>
							<shottake></shottake>
							<lognote></lognote>
							<good></good>
							<originalvideofilename></originalvideofilename>
							<originalaudiofilename></originalaudiofilename>
						</logginginfo>
						<colorinfo>
							<lut></lut>
							<lut1></lut1>
							<asc_sop></asc_sop>
							<asc_sat></asc_sat>
							<lut2></lut2>
						</colorinfo>
					</clipitem>
					<clipitem id="clipitem-257" premiereChannelType="stereo">
						<masterclipid>masterclip-7</masterclipid>
						<name>2025-03-20 08-52-56 .mov</name>
						<enabled>TRUE</enabled>
						<duration>31991</duration>
						<rate>
							<timebase>30</timebase>
							<ntsc>TRUE</ntsc>
						</rate>
						<start>9382</start>
						<end>9493</end>
						<in>16893</in>
						<out>17004</out>
						<pproTicksIn>143179446009600</pproTicksIn>
						<pproTicksOut>144120245068800</pproTicksOut>
						<file id="file-7"/>
						<sourcetrack>
							<mediatype>audio</mediatype>
							<trackindex>2</trackindex>
						</sourcetrack>
							<marker>
								<comment>Historico Hidreletricas&#13;Florestas&#13;Povos originarios indigenas&#13;Vazao dos rios</comment>
								<name>Aguas</name>
								<in>22190</in>
								<out>-1</out>
							</marker>
							<marker>
								<comment>Aquecimento global&#13;Emissao de gases&#13;Desmatamento&#13;Energia&#13;Acordos internacionais</comment>
								<name>Futuro</name>
								<in>9988</in>
								<out>-1</out>
							</marker>
							<marker>
								<comment>Custo e subsidio&#13;Politicas publicas&#13;Desmatamento florestas&#13;Agro Agricultura&#13;Transiçao energetica</comment>
								<name>Mineraçao de carvao</name>
								<in>16086</in>
								<out>-1</out>
							</marker>
							<marker>
								<comment>Hidreletricas energia&#13;Rio Tapajos&#13;Barragens</comment>
								<name>Aguas</name>
								<in>29660</in>
								<out>-1</out>
							</marker>
							<marker>
								<comment>Transiçao energetica&#13;Exemplo EUA e China&#13;Explica produçao de gas natural&#13;Aumento do consumo de energia&#13;EUA indo no sentido contrario</comment>
								<name>Energia</name>
								<in>815</in>
								<out>-1</out>
							</marker>
						<link>
							<linkclipref>clipitem-28</linkclipref>
							<mediatype>video</mediatype>
							<trackindex>1</trackindex>
							<clipindex>28</clipindex>
						</link>
						<link>
							<linkclipref>clipitem-159</linkclipref>
							<mediatype>audio</mediatype>
							<trackindex>1</trackindex>
							<clipindex>28</clipindex>
							<groupindex>1</groupindex>
						</link>
						<link>
							<linkclipref>clipitem-257</linkclipref>
							<mediatype>audio</mediatype>
							<trackindex>2</trackindex>
							<clipindex>18</clipindex>
							<groupindex>1</groupindex>
						</link>
						<logginginfo>
							<description></description>
							<scene></scene>
							<shottake></shottake>
							<lognote></lognote>
							<good></good>
							<originalvideofilename></originalvideofilename>
							<originalaudiofilename></originalaudiofilename>
						</logginginfo>
						<colorinfo>
							<lut></lut>
							<lut1></lut1>
							<asc_sop></asc_sop>
							<asc_sat></asc_sat>
							<lut2></lut2>
						</colorinfo>
					</clipitem>
					<clipitem id="clipitem-258" premiereChannelType="stereo">
						<masterclipid>masterclip-7</masterclipid>
						<name>2025-03-20 08-52-56 .mov</name>
						<enabled>TRUE</enabled>
						<duration>31991</duration>
						<rate>
							<timebase>30</timebase>
							<ntsc>TRUE</ntsc>
						</rate>
						<start>9493</start>
						<end>9801</end>
						<in>17103</in>
						<out>17411</out>
						<pproTicksIn>144959336121600</pproTicksIn>
						<pproTicksOut>147569841619200</pproTicksOut>
						<file id="file-7"/>
						<sourcetrack>
							<mediatype>audio</mediatype>
							<trackindex>2</trackindex>
						</sourcetrack>
							<marker>
								<comment>Historico Hidreletricas&#13;Florestas&#13;Povos originarios indigenas&#13;Vazao dos rios</comment>
								<name>Aguas</name>
								<in>22190</in>
								<out>-1</out>
							</marker>
							<marker>
								<comment>Aquecimento global&#13;Emissao de gases&#13;Desmatamento&#13;Energia&#13;Acordos internacionais</comment>
								<name>Futuro</name>
								<in>9988</in>
								<out>-1</out>
							</marker>
							<marker>
								<comment>Custo e subsidio&#13;Politicas publicas&#13;Desmatamento florestas&#13;Agro Agricultura&#13;Transiçao energetica</comment>
								<name>Mineraçao de carvao</name>
								<in>16086</in>
								<out>-1</out>
							</marker>
							<marker>
								<comment>Hidreletricas energia&#13;Rio Tapajos&#13;Barragens</comment>
								<name>Aguas</name>
								<in>29660</in>
								<out>-1</out>
							</marker>
							<marker>
								<comment>Transiçao energetica&#13;Exemplo EUA e China&#13;Explica produçao de gas natural&#13;Aumento do consumo de energia&#13;EUA indo no sentido contrario</comment>
								<name>Energia</name>
								<in>815</in>
								<out>-1</out>
							</marker>
						<link>
							<linkclipref>clipitem-29</linkclipref>
							<mediatype>video</mediatype>
							<trackindex>1</trackindex>
							<clipindex>29</clipindex>
						</link>
						<link>
							<linkclipref>clipitem-160</linkclipref>
							<mediatype>audio</mediatype>
							<trackindex>1</trackindex>
							<clipindex>29</clipindex>
							<groupindex>1</groupindex>
						</link>
						<link>
							<linkclipref>clipitem-258</linkclipref>
							<mediatype>audio</mediatype>
							<trackindex>2</trackindex>
							<clipindex>19</clipindex>
							<groupindex>1</groupindex>
						</link>
						<logginginfo>
							<description></description>
							<scene></scene>
							<shottake></shottake>
							<lognote></lognote>
							<good></good>
							<originalvideofilename></originalvideofilename>
							<originalaudiofilename></originalaudiofilename>
						</logginginfo>
						<colorinfo>
							<lut></lut>
							<lut1></lut1>
							<asc_sop></asc_sop>
							<asc_sat></asc_sat>
							<lut2></lut2>
						</colorinfo>
					</clipitem>
					<clipitem id="clipitem-259" premiereChannelType="stereo">
						<masterclipid>masterclip-7</masterclipid>
						<name>2025-03-20 08-52-56 .mov</name>
						<enabled>TRUE</enabled>
						<duration>31991</duration>
						<rate>
							<timebase>30</timebase>
							<ntsc>TRUE</ntsc>
						</rate>
						<start>9801</start>
						<end>10368</end>
						<in>17565</in>
						<out>18132</out>
						<pproTicksIn>148875094368000</pproTicksIn>
						<pproTicksOut>153680797670400</pproTicksOut>
						<file id="file-7"/>
						<sourcetrack>
							<mediatype>audio</mediatype>
							<trackindex>2</trackindex>
						</sourcetrack>
							<marker>
								<comment>Historico Hidreletricas&#13;Florestas&#13;Povos originarios indigenas&#13;Vazao dos rios</comment>
								<name>Aguas</name>
								<in>22190</in>
								<out>-1</out>
							</marker>
							<marker>
								<comment>Aquecimento global&#13;Emissao de gases&#13;Desmatamento&#13;Energia&#13;Acordos internacionais</comment>
								<name>Futuro</name>
								<in>9988</in>
								<out>-1</out>
							</marker>
							<marker>
								<comment>Custo e subsidio&#13;Politicas publicas&#13;Desmatamento florestas&#13;Agro Agricultura&#13;Transiçao energetica</comment>
								<name>Mineraçao de carvao</name>
								<in>16086</in>
								<out>-1</out>
							</marker>
							<marker>
								<comment>Hidreletricas energia&#13;Rio Tapajos&#13;Barragens</comment>
								<name>Aguas</name>
								<in>29660</in>
								<out>-1</out>
							</marker>
							<marker>
								<comment>Transiçao energetica&#13;Exemplo EUA e China&#13;Explica produçao de gas natural&#13;Aumento do consumo de energia&#13;EUA indo no sentido contrario</comment>
								<name>Energia</name>
								<in>815</in>
								<out>-1</out>
							</marker>
						<link>
							<linkclipref>clipitem-30</linkclipref>
							<mediatype>video</mediatype>
							<trackindex>1</trackindex>
							<clipindex>30</clipindex>
						</link>
						<link>
							<linkclipref>clipitem-161</linkclipref>
							<mediatype>audio</mediatype>
							<trackindex>1</trackindex>
							<clipindex>30</clipindex>
							<groupindex>1</groupindex>
						</link>
						<link>
							<linkclipref>clipitem-259</linkclipref>
							<mediatype>audio</mediatype>
							<trackindex>2</trackindex>
							<clipindex>20</clipindex>
							<groupindex>1</groupindex>
						</link>
						<logginginfo>
							<description></description>
							<scene></scene>
							<shottake></shottake>
							<lognote></lognote>
							<good></good>
							<originalvideofilename></originalvideofilename>
							<originalaudiofilename></originalaudiofilename>
						</logginginfo>
						<colorinfo>
							<lut></lut>
							<lut1></lut1>
							<asc_sop></asc_sop>
							<asc_sat></asc_sat>
							<lut2></lut2>
						</colorinfo>
					</clipitem>
					<clipitem id="clipitem-260" premiereChannelType="stereo">
						<masterclipid>masterclip-27</masterclipid>
						<name>250513-T004.WAV</name>
						<enabled>TRUE</enabled>
						<duration>22380</duration>
						<rate>
							<timebase>30</timebase>
							<ntsc>TRUE</ntsc>
						</rate>
						<start>10368</start>
						<end>10769</end>
						<in>8746</in>
						<out>9147</out>
						<pproTicksIn>74128185331200</pproTicksIn>
						<pproTicksOut>77526927878400</pproTicksOut>
						<file id="file-27"/>
						<sourcetrack>
							<mediatype>audio</mediatype>
							<trackindex>2</trackindex>
						</sourcetrack>
						<link>
							<linkclipref>clipitem-162</linkclipref>
							<mediatype>audio</mediatype>
							<trackindex>1</trackindex>
							<clipindex>31</clipindex>
							<groupindex>1</groupindex>
						</link>
						<link>
							<linkclipref>clipitem-260</linkclipref>
							<mediatype>audio</mediatype>
							<trackindex>2</trackindex>
							<clipindex>21</clipindex>
							<groupindex>1</groupindex>
						</link>
						<logginginfo>
							<description>Adão Oliveira</description>
							<scene>250513</scene>
							<shottake></shottake>
							<lognote></lognote>
							<good></good>
							<originalvideofilename></originalvideofilename>
							<originalaudiofilename></originalaudiofilename>
						</logginginfo>
						<colorinfo>
							<lut></lut>
							<lut1></lut1>
							<asc_sop></asc_sop>
							<asc_sat></asc_sat>
							<lut2></lut2>
						</colorinfo>
						<labels>
							<label2>Caribbean</label2>
						</labels>
					</clipitem>
					<clipitem id="clipitem-261" premiereChannelType="stereo">
						<masterclipid>masterclip-27</masterclipid>
						<name>250513-T004.WAV</name>
						<enabled>TRUE</enabled>
						<duration>22380</duration>
						<rate>
							<timebase>30</timebase>
							<ntsc>TRUE</ntsc>
						</rate>
						<start>10769</start>
						<end>10852</end>
						<in>20568</in>
						<out>20651</out>
						<pproTicksIn>174327522969600</pproTicksIn>
						<pproTicksOut>175031003347200</pproTicksOut>
						<file id="file-27"/>
						<sourcetrack>
							<mediatype>audio</mediatype>
							<trackindex>2</trackindex>
						</sourcetrack>
						<link>
							<linkclipref>clipitem-163</linkclipref>
							<mediatype>audio</mediatype>
							<trackindex>1</trackindex>
							<clipindex>32</clipindex>
							<groupindex>1</groupindex>
						</link>
						<link>
							<linkclipref>clipitem-261</linkclipref>
							<mediatype>audio</mediatype>
							<trackindex>2</trackindex>
							<clipindex>22</clipindex>
							<groupindex>1</groupindex>
						</link>
						<logginginfo>
							<description>Adão Oliveira</description>
							<scene>250513</scene>
							<shottake></shottake>
							<lognote></lognote>
							<good></good>
							<originalvideofilename></originalvideofilename>
							<originalaudiofilename></originalaudiofilename>
						</logginginfo>
						<colorinfo>
							<lut></lut>
							<lut1></lut1>
							<asc_sop></asc_sop>
							<asc_sat></asc_sat>
							<lut2></lut2>
						</colorinfo>
						<labels>
							<label2>Caribbean</label2>
						</labels>
					</clipitem>
					<clipitem id="clipitem-262" premiereChannelType="stereo">
						<masterclipid>masterclip-27</masterclipid>
						<name>250513-T004.WAV</name>
						<enabled>TRUE</enabled>
						<duration>22380</duration>
						<rate>
							<timebase>30</timebase>
							<ntsc>TRUE</ntsc>
						</rate>
						<start>10852</start>
						<end>11052</end>
						<in>20825</in>
						<out>21025</out>
						<pproTicksIn>176505769440000</pproTicksIn>
						<pproTicksOut>178200902880000</pproTicksOut>
						<file id="file-27"/>
						<sourcetrack>
							<mediatype>audio</mediatype>
							<trackindex>2</trackindex>
						</sourcetrack>
						<link>
							<linkclipref>clipitem-164</linkclipref>
							<mediatype>audio</mediatype>
							<trackindex>1</trackindex>
							<clipindex>33</clipindex>
							<groupindex>1</groupindex>
						</link>
						<link>
							<linkclipref>clipitem-262</linkclipref>
							<mediatype>audio</mediatype>
							<trackindex>2</trackindex>
							<clipindex>23</clipindex>
							<groupindex>1</groupindex>
						</link>
						<logginginfo>
							<description>Adão Oliveira</description>
							<scene>250513</scene>
							<shottake></shottake>
							<lognote></lognote>
							<good></good>
							<originalvideofilename></originalvideofilename>
							<originalaudiofilename></originalaudiofilename>
						</logginginfo>
						<colorinfo>
							<lut></lut>
							<lut1></lut1>
							<asc_sop></asc_sop>
							<asc_sat></asc_sat>
							<lut2></lut2>
						</colorinfo>
						<labels>
							<label2>Caribbean</label2>
						</labels>
					</clipitem>
					<clipitem id="clipitem-263" premiereChannelType="stereo">
						<masterclipid>masterclip-7</masterclipid>
						<name>2025-03-20 08-52-56 .mov</name>
						<enabled>TRUE</enabled>
						<duration>31991</duration>
						<rate>
							<timebase>30</timebase>
							<ntsc>TRUE</ntsc>
						</rate>
						<start>11052</start>
						<end>11365</end>
						<in>16086</in>
						<out>16399</out>
						<pproTicksIn>136339582579200</pproTicksIn>
						<pproTicksOut>138992466412800</pproTicksOut>
						<file id="file-7"/>
						<sourcetrack>
							<mediatype>audio</mediatype>
							<trackindex>2</trackindex>
						</sourcetrack>
							<marker>
								<comment>Historico Hidreletricas&#13;Florestas&#13;Povos originarios indigenas&#13;Vazao dos rios</comment>
								<name>Aguas</name>
								<in>22190</in>
								<out>-1</out>
							</marker>
							<marker>
								<comment>Aquecimento global&#13;Emissao de gases&#13;Desmatamento&#13;Energia&#13;Acordos internacionais</comment>
								<name>Futuro</name>
								<in>9988</in>
								<out>-1</out>
							</marker>
							<marker>
								<comment>Custo e subsidio&#13;Politicas publicas&#13;Desmatamento florestas&#13;Agro Agricultura&#13;Transiçao energetica</comment>
								<name>Mineraçao de carvao</name>
								<in>16086</in>
								<out>-1</out>
							</marker>
							<marker>
								<comment>Hidreletricas energia&#13;Rio Tapajos&#13;Barragens</comment>
								<name>Aguas</name>
								<in>29660</in>
								<out>-1</out>
							</marker>
							<marker>
								<comment>Transiçao energetica&#13;Exemplo EUA e China&#13;Explica produçao de gas natural&#13;Aumento do consumo de energia&#13;EUA indo no sentido contrario</comment>
								<name>Energia</name>
								<in>815</in>
								<out>-1</out>
							</marker>
						<link>
							<linkclipref>clipitem-34</linkclipref>
							<mediatype>video</mediatype>
							<trackindex>1</trackindex>
							<clipindex>34</clipindex>
						</link>
						<link>
							<linkclipref>clipitem-165</linkclipref>
							<mediatype>audio</mediatype>
							<trackindex>1</trackindex>
							<clipindex>34</clipindex>
							<groupindex>1</groupindex>
						</link>
						<link>
							<linkclipref>clipitem-263</linkclipref>
							<mediatype>audio</mediatype>
							<trackindex>2</trackindex>
							<clipindex>24</clipindex>
							<groupindex>1</groupindex>
						</link>
						<logginginfo>
							<description></description>
							<scene></scene>
							<shottake></shottake>
							<lognote></lognote>
							<good></good>
							<originalvideofilename></originalvideofilename>
							<originalaudiofilename></originalaudiofilename>
						</logginginfo>
						<colorinfo>
							<lut></lut>
							<lut1></lut1>
							<asc_sop></asc_sop>
							<asc_sat></asc_sat>
							<lut2></lut2>
						</colorinfo>
					</clipitem>
					<clipitem id="clipitem-264" premiereChannelType="stereo">
						<masterclipid>masterclip-28</masterclipid>
						<name>250515-T014.WAV</name>
						<enabled>TRUE</enabled>
						<duration>84540</duration>
						<rate>
							<timebase>30</timebase>
							<ntsc>TRUE</ntsc>
						</rate>
						<start>11365</start>
						<end>11856</end>
						<in>17307</in>
						<out>17798</out>
						<pproTicksIn>146688372230400</pproTicksIn>
						<pproTicksOut>150849924825600</pproTicksOut>
						<file id="file-28"/>
						<sourcetrack>
							<mediatype>audio</mediatype>
							<trackindex>2</trackindex>
						</sourcetrack>
						<link>
							<linkclipref>clipitem-166</linkclipref>
							<mediatype>audio</mediatype>
							<trackindex>1</trackindex>
							<clipindex>35</clipindex>
							<groupindex>1</groupindex>
						</link>
						<link>
							<linkclipref>clipitem-264</linkclipref>
							<mediatype>audio</mediatype>
							<trackindex>2</trackindex>
							<clipindex>25</clipindex>
							<groupindex>1</groupindex>
						</link>
						<logginginfo>
							<description></description>
							<scene>250515</scene>
							<shottake></shottake>
							<lognote></lognote>
							<good></good>
							<originalvideofilename></originalvideofilename>
							<originalaudiofilename></originalaudiofilename>
						</logginginfo>
						<colorinfo>
							<lut></lut>
							<lut1></lut1>
							<asc_sop></asc_sop>
							<asc_sat></asc_sat>
							<lut2></lut2>
						</colorinfo>
						<labels>
							<label2>Caribbean</label2>
						</labels>
					</clipitem>
					<clipitem id="clipitem-265" premiereChannelType="stereo">
						<masterclipid>masterclip-8</masterclipid>
						<name>2025-03-20 08-29-14 .mov</name>
						<enabled>TRUE</enabled>
						<duration>42599</duration>
						<rate>
							<timebase>30</timebase>
							<ntsc>TRUE</ntsc>
						</rate>
						<start>11856</start>
						<end>13448</end>
						<in>12293</in>
						<out>13885</out>
						<pproTicksIn>104191376889600</pproTicksIn>
						<pproTicksOut>117684639072000</pproTicksOut>
						<file id="file-8"/>
						<sourcetrack>
							<mediatype>audio</mediatype>
							<trackindex>2</trackindex>
						</sourcetrack>
							<marker>
								<comment>Impacto na economia&#13;Ajuda na enchente do RS&#13;Energia renovavel mais barata&#13;Transiçao energetica&#13;Politicas publicas e investimentos&#13;Convençao do Clima acordo internacional&#13;Futuro</comment>
								<name>Eventos extremos</name>
								<in>34288</in>
								<out>-1</out>
							</marker>
							<marker>
								<comment>Uso de energia apos revoluçao industrial&#13;Combustiveis fosseis&#13;Carvao mineral e petroleo&#13;Desmatamento</comment>
								<name>Efeito estufa</name>
								<in>12078</in>
								<out>-1</out>
							</marker>
							<marker>
								<comment>Explica que nao e cientista nem especialista</comment>
								<name></name>
								<in>400</in>
								<out>-1</out>
							</marker>
							<marker>
								<comment>Gases da atmosfera&#13;Desequilibrio energetico&#13;Aquecimento global&#13;Previsoes</comment>
								<name>Efeito estufa</name>
								<in>2277</in>
								<out>-1</out>
							</marker>
							<marker>
								<comment>Custo beneficio do uso de energia&#13;Futuro</comment>
								<name>Energia</name>
								<in>16145</in>
								<out>-1</out>
							</marker>
							<marker>
								<comment>Lei da Termodinamica&#13;Nao existe energia limpa&#13;Pegada de carbono&#13;Matriz energetica brasileira&#13;Transiçao energetica&#13;Carvao mineral no RS&#13;Eolica e solar mais barato&#13;Hidreletricas rios e florestas&#13;Transporte mobilidade biocombustivel etanol&#13;Politicas publicas</comment>
								<name>Energia</name>
								<in>19373</in>
								<out>-1</out>
							</marker>
						<link>
							<linkclipref>clipitem-36</linkclipref>
							<mediatype>video</mediatype>
							<trackindex>1</trackindex>
							<clipindex>36</clipindex>
						</link>
						<link>
							<linkclipref>clipitem-167</linkclipref>
							<mediatype>audio</mediatype>
							<trackindex>1</trackindex>
							<clipindex>36</clipindex>
							<groupindex>1</groupindex>
						</link>
						<link>
							<linkclipref>clipitem-265</linkclipref>
							<mediatype>audio</mediatype>
							<trackindex>2</trackindex>
							<clipindex>26</clipindex>
							<groupindex>1</groupindex>
						</link>
						<logginginfo>
							<description></description>
							<scene></scene>
							<shottake></shottake>
							<lognote></lognote>
							<good></good>
							<originalvideofilename></originalvideofilename>
							<originalaudiofilename></originalaudiofilename>
						</logginginfo>
						<colorinfo>
							<lut></lut>
							<lut1></lut1>
							<asc_sop></asc_sop>
							<asc_sat></asc_sat>
							<lut2></lut2>
						</colorinfo>
					</clipitem>
					<clipitem id="clipitem-266" premiereChannelType="stereo">
						<masterclipid>masterclip-8</masterclipid>
						<name>2025-03-20 08-29-14 .mov</name>
						<enabled>TRUE</enabled>
						<duration>42599</duration>
						<rate>
							<timebase>30</timebase>
							<ntsc>TRUE</ntsc>
						</rate>
						<start>13448</start>
						<end>13492</end>
						<in>14473</in>
						<out>14517</out>
						<pproTicksIn>122668331385600</pproTicksIn>
						<pproTicksOut>123041260742400</pproTicksOut>
						<file id="file-8"/>
						<sourcetrack>
							<mediatype>audio</mediatype>
							<trackindex>2</trackindex>
						</sourcetrack>
							<marker>
								<comment>Impacto na economia&#13;Ajuda na enchente do RS&#13;Energia renovavel mais barata&#13;Transiçao energetica&#13;Politicas publicas e investimentos&#13;Convençao do Clima acordo internacional&#13;Futuro</comment>
								<name>Eventos extremos</name>
								<in>34288</in>
								<out>-1</out>
							</marker>
							<marker>
								<comment>Uso de energia apos revoluçao industrial&#13;Combustiveis fosseis&#13;Carvao mineral e petroleo&#13;Desmatamento</comment>
								<name>Efeito estufa</name>
								<in>12078</in>
								<out>-1</out>
							</marker>
							<marker>
								<comment>Explica que nao e cientista nem especialista</comment>
								<name></name>
								<in>400</in>
								<out>-1</out>
							</marker>
							<marker>
								<comment>Gases da atmosfera&#13;Desequilibrio energetico&#13;Aquecimento global&#13;Previsoes</comment>
								<name>Efeito estufa</name>
								<in>2277</in>
								<out>-1</out>
							</marker>
							<marker>
								<comment>Custo beneficio do uso de energia&#13;Futuro</comment>
								<name>Energia</name>
								<in>16145</in>
								<out>-1</out>
							</marker>
							<marker>
								<comment>Lei da Termodinamica&#13;Nao existe energia limpa&#13;Pegada de carbono&#13;Matriz energetica brasileira&#13;Transiçao energetica&#13;Carvao mineral no RS&#13;Eolica e solar mais barato&#13;Hidreletricas rios e florestas&#13;Transporte mobilidade biocombustivel etanol&#13;Politicas publicas</comment>
								<name>Energia</name>
								<in>19373</in>
								<out>-1</out>
							</marker>
						<link>
							<linkclipref>clipitem-37</linkclipref>
							<mediatype>video</mediatype>
							<trackindex>1</trackindex>
							<clipindex>37</clipindex>
						</link>
						<link>
							<linkclipref>clipitem-168</linkclipref>
							<mediatype>audio</mediatype>
							<trackindex>1</trackindex>
							<clipindex>37</clipindex>
							<groupindex>1</groupindex>
						</link>
						<link>
							<linkclipref>clipitem-266</linkclipref>
							<mediatype>audio</mediatype>
							<trackindex>2</trackindex>
							<clipindex>27</clipindex>
							<groupindex>1</groupindex>
						</link>
						<logginginfo>
							<description></description>
							<scene></scene>
							<shottake></shottake>
							<lognote></lognote>
							<good></good>
							<originalvideofilename></originalvideofilename>
							<originalaudiofilename></originalaudiofilename>
						</logginginfo>
						<colorinfo>
							<lut></lut>
							<lut1></lut1>
							<asc_sop></asc_sop>
							<asc_sat></asc_sat>
							<lut2></lut2>
						</colorinfo>
					</clipitem>
					<clipitem id="clipitem-267" premiereChannelType="stereo">
						<masterclipid>masterclip-8</masterclipid>
						<name>2025-03-20 08-29-14 .mov</name>
						<enabled>TRUE</enabled>
						<duration>42599</duration>
						<rate>
							<timebase>30</timebase>
							<ntsc>TRUE</ntsc>
						</rate>
						<start>13492</start>
						<end>13914</end>
						<in>15032</in>
						<out>15454</out>
						<pproTicksIn>127406229350400</pproTicksIn>
						<pproTicksOut>130982960908800</pproTicksOut>
						<file id="file-8"/>
						<sourcetrack>
							<mediatype>audio</mediatype>
							<trackindex>2</trackindex>
						</sourcetrack>
							<marker>
								<comment>Impacto na economia&#13;Ajuda na enchente do RS&#13;Energia renovavel mais barata&#13;Transiçao energetica&#13;Politicas publicas e investimentos&#13;Convençao do Clima acordo internacional&#13;Futuro</comment>
								<name>Eventos extremos</name>
								<in>34288</in>
								<out>-1</out>
							</marker>
							<marker>
								<comment>Uso de energia apos revoluçao industrial&#13;Combustiveis fosseis&#13;Carvao mineral e petroleo&#13;Desmatamento</comment>
								<name>Efeito estufa</name>
								<in>12078</in>
								<out>-1</out>
							</marker>
							<marker>
								<comment>Explica que nao e cientista nem especialista</comment>
								<name></name>
								<in>400</in>
								<out>-1</out>
							</marker>
							<marker>
								<comment>Gases da atmosfera&#13;Desequilibrio energetico&#13;Aquecimento global&#13;Previsoes</comment>
								<name>Efeito estufa</name>
								<in>2277</in>
								<out>-1</out>
							</marker>
							<marker>
								<comment>Custo beneficio do uso de energia&#13;Futuro</comment>
								<name>Energia</name>
								<in>16145</in>
								<out>-1</out>
							</marker>
							<marker>
								<comment>Lei da Termodinamica&#13;Nao existe energia limpa&#13;Pegada de carbono&#13;Matriz energetica brasileira&#13;Transiçao energetica&#13;Carvao mineral no RS&#13;Eolica e solar mais barato&#13;Hidreletricas rios e florestas&#13;Transporte mobilidade biocombustivel etanol&#13;Politicas publicas</comment>
								<name>Energia</name>
								<in>19373</in>
								<out>-1</out>
							</marker>
						<link>
							<linkclipref>clipitem-38</linkclipref>
							<mediatype>video</mediatype>
							<trackindex>1</trackindex>
							<clipindex>38</clipindex>
						</link>
						<link>
							<linkclipref>clipitem-169</linkclipref>
							<mediatype>audio</mediatype>
							<trackindex>1</trackindex>
							<clipindex>38</clipindex>
							<groupindex>1</groupindex>
						</link>
						<link>
							<linkclipref>clipitem-267</linkclipref>
							<mediatype>audio</mediatype>
							<trackindex>2</trackindex>
							<clipindex>28</clipindex>
							<groupindex>1</groupindex>
						</link>
						<logginginfo>
							<description></description>
							<scene></scene>
							<shottake></shottake>
							<lognote></lognote>
							<good></good>
							<originalvideofilename></originalvideofilename>
							<originalaudiofilename></originalaudiofilename>
						</logginginfo>
						<colorinfo>
							<lut></lut>
							<lut1></lut1>
							<asc_sop></asc_sop>
							<asc_sat></asc_sat>
							<lut2></lut2>
						</colorinfo>
					</clipitem>
					<clipitem id="clipitem-268" premiereChannelType="stereo">
						<masterclipid>masterclip-28</masterclipid>
						<name>250515-T014.WAV</name>
						<enabled>TRUE</enabled>
						<duration>84540</duration>
						<rate>
							<timebase>30</timebase>
							<ntsc>TRUE</ntsc>
						</rate>
						<start>13914</start>
						<end>15026</end>
						<in>65244</in>
						<out>66356</out>
						<pproTicksIn>552986430796800</pproTicksIn>
						<pproTicksOut>562411372723200</pproTicksOut>
						<file id="file-28"/>
						<sourcetrack>
							<mediatype>audio</mediatype>
							<trackindex>2</trackindex>
						</sourcetrack>
						<link>
							<linkclipref>clipitem-170</linkclipref>
							<mediatype>audio</mediatype>
							<trackindex>1</trackindex>
							<clipindex>39</clipindex>
							<groupindex>1</groupindex>
						</link>
						<link>
							<linkclipref>clipitem-268</linkclipref>
							<mediatype>audio</mediatype>
							<trackindex>2</trackindex>
							<clipindex>29</clipindex>
							<groupindex>1</groupindex>
						</link>
						<logginginfo>
							<description></description>
							<scene>250515</scene>
							<shottake></shottake>
							<lognote></lognote>
							<good></good>
							<originalvideofilename></originalvideofilename>
							<originalaudiofilename></originalaudiofilename>
						</logginginfo>
						<colorinfo>
							<lut></lut>
							<lut1></lut1>
							<asc_sop></asc_sop>
							<asc_sat></asc_sat>
							<lut2></lut2>
						</colorinfo>
						<labels>
							<label2>Caribbean</label2>
						</labels>
					</clipitem>
					<clipitem id="clipitem-269" premiereChannelType="stereo">
						<masterclipid>masterclip-28</masterclipid>
						<name>250515-T014.WAV</name>
						<enabled>TRUE</enabled>
						<duration>84540</duration>
						<rate>
							<timebase>30</timebase>
							<ntsc>TRUE</ntsc>
						</rate>
						<start>15026</start>
						<end>15176</end>
						<in>66517</in>
						<out>66667</out>
						<pproTicksIn>563775955142400</pproTicksIn>
						<pproTicksOut>565047305222400</pproTicksOut>
						<file id="file-28"/>
						<sourcetrack>
							<mediatype>audio</mediatype>
							<trackindex>2</trackindex>
						</sourcetrack>
						<link>
							<linkclipref>clipitem-171</linkclipref>
							<mediatype>audio</mediatype>
							<trackindex>1</trackindex>
							<clipindex>40</clipindex>
							<groupindex>1</groupindex>
						</link>
						<link>
							<linkclipref>clipitem-269</linkclipref>
							<mediatype>audio</mediatype>
							<trackindex>2</trackindex>
							<clipindex>30</clipindex>
							<groupindex>1</groupindex>
						</link>
						<logginginfo>
							<description></description>
							<scene>250515</scene>
							<shottake></shottake>
							<lognote></lognote>
							<good></good>
							<originalvideofilename></originalvideofilename>
							<originalaudiofilename></originalaudiofilename>
						</logginginfo>
						<colorinfo>
							<lut></lut>
							<lut1></lut1>
							<asc_sop></asc_sop>
							<asc_sat></asc_sat>
							<lut2></lut2>
						</colorinfo>
						<labels>
							<label2>Caribbean</label2>
						</labels>
					</clipitem>
					<clipitem id="clipitem-270" premiereChannelType="stereo">
						<masterclipid>masterclip-28</masterclipid>
						<name>250515-T014.WAV</name>
						<enabled>TRUE</enabled>
						<duration>84540</duration>
						<rate>
							<timebase>30</timebase>
							<ntsc>TRUE</ntsc>
						</rate>
						<start>15176</start>
						<end>15340</end>
						<in>66751</in>
						<out>66915</out>
						<pproTicksIn>565759261267200</pproTicksIn>
						<pproTicksOut>567149270688000</pproTicksOut>
						<file id="file-28"/>
						<sourcetrack>
							<mediatype>audio</mediatype>
							<trackindex>2</trackindex>
						</sourcetrack>
						<link>
							<linkclipref>clipitem-172</linkclipref>
							<mediatype>audio</mediatype>
							<trackindex>1</trackindex>
							<clipindex>41</clipindex>
							<groupindex>1</groupindex>
						</link>
						<link>
							<linkclipref>clipitem-270</linkclipref>
							<mediatype>audio</mediatype>
							<trackindex>2</trackindex>
							<clipindex>31</clipindex>
							<groupindex>1</groupindex>
						</link>
						<logginginfo>
							<description></description>
							<scene>250515</scene>
							<shottake></shottake>
							<lognote></lognote>
							<good></good>
							<originalvideofilename></originalvideofilename>
							<originalaudiofilename></originalaudiofilename>
						</logginginfo>
						<colorinfo>
							<lut></lut>
							<lut1></lut1>
							<asc_sop></asc_sop>
							<asc_sat></asc_sat>
							<lut2></lut2>
						</colorinfo>
						<labels>
							<label2>Caribbean</label2>
						</labels>
					</clipitem>
					<clipitem id="clipitem-271" premiereChannelType="stereo">
						<masterclipid>masterclip-28</masterclipid>
						<name>250515-T014.WAV</name>
						<enabled>TRUE</enabled>
						<duration>84540</duration>
						<rate>
							<timebase>30</timebase>
							<ntsc>TRUE</ntsc>
						</rate>
						<start>15340</start>
						<end>15494</end>
						<in>67939</in>
						<out>68093</out>
						<pproTicksIn>575828353900800</pproTicksIn>
						<pproTicksOut>577133606649600</pproTicksOut>
						<file id="file-28"/>
						<sourcetrack>
							<mediatype>audio</mediatype>
							<trackindex>2</trackindex>
						</sourcetrack>
						<link>
							<linkclipref>clipitem-173</linkclipref>
							<mediatype>audio</mediatype>
							<trackindex>1</trackindex>
							<clipindex>42</clipindex>
							<groupindex>1</groupindex>
						</link>
						<link>
							<linkclipref>clipitem-271</linkclipref>
							<mediatype>audio</mediatype>
							<trackindex>2</trackindex>
							<clipindex>32</clipindex>
							<groupindex>1</groupindex>
						</link>
						<logginginfo>
							<description></description>
							<scene>250515</scene>
							<shottake></shottake>
							<lognote></lognote>
							<good></good>
							<originalvideofilename></originalvideofilename>
							<originalaudiofilename></originalaudiofilename>
						</logginginfo>
						<colorinfo>
							<lut></lut>
							<lut1></lut1>
							<asc_sop></asc_sop>
							<asc_sat></asc_sat>
							<lut2></lut2>
						</colorinfo>
						<labels>
							<label2>Caribbean</label2>
						</labels>
					</clipitem>
					<clipitem id="clipitem-272" premiereChannelType="stereo">
						<masterclipid>masterclip-28</masterclipid>
						<name>250515-T014.WAV</name>
						<enabled>TRUE</enabled>
						<duration>84540</duration>
						<rate>
							<timebase>30</timebase>
							<ntsc>TRUE</ntsc>
						</rate>
						<start>15494</start>
						<end>16016</end>
						<in>66915</in>
						<out>67437</out>
						<pproTicksIn>567149270688000</pproTicksIn>
						<pproTicksOut>571573568966400</pproTicksOut>
						<file id="file-28"/>
						<sourcetrack>
							<mediatype>audio</mediatype>
							<trackindex>2</trackindex>
						</sourcetrack>
						<link>
							<linkclipref>clipitem-174</linkclipref>
							<mediatype>audio</mediatype>
							<trackindex>1</trackindex>
							<clipindex>43</clipindex>
							<groupindex>1</groupindex>
						</link>
						<link>
							<linkclipref>clipitem-272</linkclipref>
							<mediatype>audio</mediatype>
							<trackindex>2</trackindex>
							<clipindex>33</clipindex>
							<groupindex>1</groupindex>
						</link>
						<logginginfo>
							<description></description>
							<scene>250515</scene>
							<shottake></shottake>
							<lognote></lognote>
							<good></good>
							<originalvideofilename></originalvideofilename>
							<originalaudiofilename></originalaudiofilename>
						</logginginfo>
						<colorinfo>
							<lut></lut>
							<lut1></lut1>
							<asc_sop></asc_sop>
							<asc_sat></asc_sat>
							<lut2></lut2>
						</colorinfo>
						<labels>
							<label2>Caribbean</label2>
						</labels>
					</clipitem>
					<clipitem id="clipitem-273" premiereChannelType="stereo">
						<masterclipid>masterclip-28</masterclipid>
						<name>250515-T014.WAV</name>
						<enabled>TRUE</enabled>
						<duration>84540</duration>
						<rate>
							<timebase>30</timebase>
							<ntsc>TRUE</ntsc>
						</rate>
						<start>16016</start>
						<end>16360</end>
						<in>69704</in>
						<out>70048</out>
						<pproTicksIn>590787906508800</pproTicksIn>
						<pproTicksOut>593703536025600</pproTicksOut>
						<file id="file-28"/>
						<sourcetrack>
							<mediatype>audio</mediatype>
							<trackindex>2</trackindex>
						</sourcetrack>
						<link>
							<linkclipref>clipitem-175</linkclipref>
							<mediatype>audio</mediatype>
							<trackindex>1</trackindex>
							<clipindex>44</clipindex>
							<groupindex>1</groupindex>
						</link>
						<link>
							<linkclipref>clipitem-273</linkclipref>
							<mediatype>audio</mediatype>
							<trackindex>2</trackindex>
							<clipindex>34</clipindex>
							<groupindex>1</groupindex>
						</link>
						<logginginfo>
							<description></description>
							<scene>250515</scene>
							<shottake></shottake>
							<lognote></lognote>
							<good></good>
							<originalvideofilename></originalvideofilename>
							<originalaudiofilename></originalaudiofilename>
						</logginginfo>
						<colorinfo>
							<lut></lut>
							<lut1></lut1>
							<asc_sop></asc_sop>
							<asc_sat></asc_sat>
							<lut2></lut2>
						</colorinfo>
						<labels>
							<label2>Caribbean</label2>
						</labels>
					</clipitem>
					<clipitem id="clipitem-274" premiereChannelType="stereo">
						<masterclipid>masterclip-31</masterclipid>
						<name>250502-T009.WAV</name>
						<enabled>TRUE</enabled>
						<duration>88020</duration>
						<rate>
							<timebase>30</timebase>
							<ntsc>TRUE</ntsc>
						</rate>
						<start>16360</start>
						<end>16442</end>
						<in>62453</in>
						<out>62535</out>
						<pproTicksIn>529330843641600</pproTicksIn>
						<pproTicksOut>530025848352000</pproTicksOut>
						<file id="file-31"/>
						<sourcetrack>
							<mediatype>audio</mediatype>
							<trackindex>2</trackindex>
						</sourcetrack>
						<filter>
							<effect>
								<name>Audio Levels</name>
								<effectid>audiolevels</effectid>
								<effectcategory>audiolevels</effectcategory>
								<effecttype>audiolevels</effecttype>
								<mediatype>audio</mediatype>
								<pproBypass>false</pproBypass>
								<parameter authoringApp="PremierePro">
									<parameterid>level</parameterid>
									<name>Level</name>
									<valuemin>0</valuemin>
									<valuemax>3.98109</valuemax>
									<value>1</value>
									<keyframe>
										<when>88019</when>
										<value>1</value>
									</keyframe>
								</parameter>
							</effect>
						</filter>
						<link>
							<linkclipref>clipitem-176</linkclipref>
							<mediatype>audio</mediatype>
							<trackindex>1</trackindex>
							<clipindex>45</clipindex>
							<groupindex>1</groupindex>
						</link>
						<link>
							<linkclipref>clipitem-274</linkclipref>
							<mediatype>audio</mediatype>
							<trackindex>2</trackindex>
							<clipindex>35</clipindex>
							<groupindex>1</groupindex>
						</link>
						<logginginfo>
							<description></description>
							<scene>250502</scene>
							<shottake></shottake>
							<lognote></lognote>
							<good></good>
							<originalvideofilename></originalvideofilename>
							<originalaudiofilename></originalaudiofilename>
						</logginginfo>
						<colorinfo>
							<lut></lut>
							<lut1></lut1>
							<asc_sop></asc_sop>
							<asc_sat></asc_sat>
							<lut2></lut2>
						</colorinfo>
					</clipitem>
					<clipitem id="clipitem-275" premiereChannelType="stereo">
						<masterclipid>masterclip-31</masterclipid>
						<name>250502-T009.WAV</name>
						<enabled>TRUE</enabled>
						<duration>88020</duration>
						<rate>
							<timebase>30</timebase>
							<ntsc>TRUE</ntsc>
						</rate>
						<start>16442</start>
						<end>16784</end>
						<in>62624</in>
						<out>62966</out>
						<pproTicksIn>530780182732800</pproTicksIn>
						<pproTicksOut>533678860915200</pproTicksOut>
						<file id="file-31"/>
						<sourcetrack>
							<mediatype>audio</mediatype>
							<trackindex>2</trackindex>
						</sourcetrack>
						<filter>
							<effect>
								<name>Audio Levels</name>
								<effectid>audiolevels</effectid>
								<effectcategory>audiolevels</effectcategory>
								<effecttype>audiolevels</effecttype>
								<mediatype>audio</mediatype>
								<pproBypass>false</pproBypass>
								<parameter authoringApp="PremierePro">
									<parameterid>level</parameterid>
									<name>Level</name>
									<valuemin>0</valuemin>
									<valuemax>3.98109</valuemax>
									<value>1</value>
									<keyframe>
										<when>88019</when>
										<value>1</value>
									</keyframe>
								</parameter>
							</effect>
						</filter>
						<link>
							<linkclipref>clipitem-177</linkclipref>
							<mediatype>audio</mediatype>
							<trackindex>1</trackindex>
							<clipindex>46</clipindex>
							<groupindex>1</groupindex>
						</link>
						<link>
							<linkclipref>clipitem-275</linkclipref>
							<mediatype>audio</mediatype>
							<trackindex>2</trackindex>
							<clipindex>36</clipindex>
							<groupindex>1</groupindex>
						</link>
						<logginginfo>
							<description></description>
							<scene>250502</scene>
							<shottake></shottake>
							<lognote></lognote>
							<good></good>
							<originalvideofilename></originalvideofilename>
							<originalaudiofilename></originalaudiofilename>
						</logginginfo>
						<colorinfo>
							<lut></lut>
							<lut1></lut1>
							<asc_sop></asc_sop>
							<asc_sat></asc_sat>
							<lut2></lut2>
						</colorinfo>
					</clipitem>
					<clipitem id="clipitem-276" premiereChannelType="stereo">
						<masterclipid>masterclip-31</masterclipid>
						<name>250502-T009.WAV</name>
						<enabled>TRUE</enabled>
						<duration>88020</duration>
						<rate>
							<timebase>30</timebase>
							<ntsc>TRUE</ntsc>
						</rate>
						<start>16784</start>
						<end>17557</end>
						<in>63517</in>
						<out>64290</out>
						<pproTicksIn>538348953542400</pproTicksIn>
						<pproTicksOut>544900644288000</pproTicksOut>
						<file id="file-31"/>
						<sourcetrack>
							<mediatype>audio</mediatype>
							<trackindex>2</trackindex>
						</sourcetrack>
						<filter>
							<effect>
								<name>Audio Levels</name>
								<effectid>audiolevels</effectid>
								<effectcategory>audiolevels</effectcategory>
								<effecttype>audiolevels</effecttype>
								<mediatype>audio</mediatype>
								<pproBypass>false</pproBypass>
								<parameter authoringApp="PremierePro">
									<parameterid>level</parameterid>
									<name>Level</name>
									<valuemin>0</valuemin>
									<valuemax>3.98109</valuemax>
									<value>1</value>
									<keyframe>
										<when>88019</when>
										<value>1</value>
									</keyframe>
								</parameter>
							</effect>
						</filter>
						<link>
							<linkclipref>clipitem-178</linkclipref>
							<mediatype>audio</mediatype>
							<trackindex>1</trackindex>
							<clipindex>47</clipindex>
							<groupindex>1</groupindex>
						</link>
						<link>
							<linkclipref>clipitem-276</linkclipref>
							<mediatype>audio</mediatype>
							<trackindex>2</trackindex>
							<clipindex>37</clipindex>
							<groupindex>1</groupindex>
						</link>
						<logginginfo>
							<description></description>
							<scene>250502</scene>
							<shottake></shottake>
							<lognote></lognote>
							<good></good>
							<originalvideofilename></originalvideofilename>
							<originalaudiofilename></originalaudiofilename>
						</logginginfo>
						<colorinfo>
							<lut></lut>
							<lut1></lut1>
							<asc_sop></asc_sop>
							<asc_sat></asc_sat>
							<lut2></lut2>
						</colorinfo>
					</clipitem>
					<clipitem id="clipitem-277" premiereChannelType="stereo">
						<masterclipid>masterclip-31</masterclipid>
						<name>250502-T009.WAV</name>
						<enabled>TRUE</enabled>
						<duration>88020</duration>
						<rate>
							<timebase>30</timebase>
							<ntsc>TRUE</ntsc>
						</rate>
						<start>17557</start>
						<end>17782</end>
						<in>65687</in>
						<out>65912</out>
						<pproTicksIn>556741151366400</pproTicksIn>
						<pproTicksOut>558648176486400</pproTicksOut>
						<file id="file-31"/>
						<sourcetrack>
							<mediatype>audio</mediatype>
							<trackindex>2</trackindex>
						</sourcetrack>
						<filter>
							<effect>
								<name>Audio Levels</name>
								<effectid>audiolevels</effectid>
								<effectcategory>audiolevels</effectcategory>
								<effecttype>audiolevels</effecttype>
								<mediatype>audio</mediatype>
								<pproBypass>false</pproBypass>
								<parameter authoringApp="PremierePro">
									<parameterid>level</parameterid>
									<name>Level</name>
									<valuemin>0</valuemin>
									<valuemax>3.98109</valuemax>
									<value>1</value>
									<keyframe>
										<when>88019</when>
										<value>1</value>
									</keyframe>
								</parameter>
							</effect>
						</filter>
						<link>
							<linkclipref>clipitem-179</linkclipref>
							<mediatype>audio</mediatype>
							<trackindex>1</trackindex>
							<clipindex>48</clipindex>
							<groupindex>1</groupindex>
						</link>
						<link>
							<linkclipref>clipitem-277</linkclipref>
							<mediatype>audio</mediatype>
							<trackindex>2</trackindex>
							<clipindex>38</clipindex>
							<groupindex>1</groupindex>
						</link>
						<logginginfo>
							<description></description>
							<scene>250502</scene>
							<shottake></shottake>
							<lognote></lognote>
							<good></good>
							<originalvideofilename></originalvideofilename>
							<originalaudiofilename></originalaudiofilename>
						</logginginfo>
						<colorinfo>
							<lut></lut>
							<lut1></lut1>
							<asc_sop></asc_sop>
							<asc_sat></asc_sat>
							<lut2></lut2>
						</colorinfo>
					</clipitem>
					<clipitem id="clipitem-278" premiereChannelType="stereo">
						<masterclipid>masterclip-31</masterclipid>
						<name>250502-T009.WAV</name>
						<enabled>TRUE</enabled>
						<duration>88020</duration>
						<rate>
							<timebase>30</timebase>
							<ntsc>TRUE</ntsc>
						</rate>
						<start>17782</start>
						<end>17880</end>
						<in>66103</in>
						<out>66201</out>
						<pproTicksIn>560267028921600</pproTicksIn>
						<pproTicksOut>561097644307200</pproTicksOut>
						<file id="file-31"/>
						<sourcetrack>
							<mediatype>audio</mediatype>
							<trackindex>2</trackindex>
						</sourcetrack>
						<filter>
							<effect>
								<name>Audio Levels</name>
								<effectid>audiolevels</effectid>
								<effectcategory>audiolevels</effectcategory>
								<effecttype>audiolevels</effecttype>
								<mediatype>audio</mediatype>
								<pproBypass>false</pproBypass>
								<parameter authoringApp="PremierePro">
									<parameterid>level</parameterid>
									<name>Level</name>
									<valuemin>0</valuemin>
									<valuemax>3.98109</valuemax>
									<value>1</value>
									<keyframe>
										<when>88019</when>
										<value>1</value>
									</keyframe>
								</parameter>
							</effect>
						</filter>
						<link>
							<linkclipref>clipitem-180</linkclipref>
							<mediatype>audio</mediatype>
							<trackindex>1</trackindex>
							<clipindex>49</clipindex>
							<groupindex>1</groupindex>
						</link>
						<link>
							<linkclipref>clipitem-278</linkclipref>
							<mediatype>audio</mediatype>
							<trackindex>2</trackindex>
							<clipindex>39</clipindex>
							<groupindex>1</groupindex>
						</link>
						<logginginfo>
							<description></description>
							<scene>250502</scene>
							<shottake></shottake>
							<lognote></lognote>
							<good></good>
							<originalvideofilename></originalvideofilename>
							<originalaudiofilename></originalaudiofilename>
						</logginginfo>
						<colorinfo>
							<lut></lut>
							<lut1></lut1>
							<asc_sop></asc_sop>
							<asc_sat></asc_sat>
							<lut2></lut2>
						</colorinfo>
					</clipitem>
					<clipitem id="clipitem-279" premiereChannelType="stereo">
						<masterclipid>masterclip-32</masterclipid>
						<name>250515-T001.WAV</name>
						<enabled>TRUE</enabled>
						<duration>88650</duration>
						<rate>
							<timebase>30</timebase>
							<ntsc>TRUE</ntsc>
						</rate>
						<start>17880</start>
						<end>17961</end>
						<in>51731</in>
						<out>51812</out>
						<pproTicksIn>438454739923200</pproTicksIn>
						<pproTicksOut>439141268966400</pproTicksOut>
						<file id="file-32"/>
						<sourcetrack>
							<mediatype>audio</mediatype>
							<trackindex>2</trackindex>
						</sourcetrack>
						<link>
							<linkclipref>clipitem-181</linkclipref>
							<mediatype>audio</mediatype>
							<trackindex>1</trackindex>
							<clipindex>50</clipindex>
							<groupindex>1</groupindex>
						</link>
						<link>
							<linkclipref>clipitem-279</linkclipref>
							<mediatype>audio</mediatype>
							<trackindex>2</trackindex>
							<clipindex>40</clipindex>
							<groupindex>1</groupindex>
						</link>
						<logginginfo>
							<description></description>
							<scene>250515</scene>
							<shottake></shottake>
							<lognote></lognote>
							<good></good>
							<originalvideofilename></originalvideofilename>
							<originalaudiofilename></originalaudiofilename>
						</logginginfo>
						<colorinfo>
							<lut></lut>
							<lut1></lut1>
							<asc_sop></asc_sop>
							<asc_sat></asc_sat>
							<lut2></lut2>
						</colorinfo>
						<labels>
							<label2>Caribbean</label2>
						</labels>
					</clipitem>
					<clipitem id="clipitem-280" premiereChannelType="stereo">
						<masterclipid>masterclip-32</masterclipid>
						<name>250515-T001.WAV</name>
						<enabled>TRUE</enabled>
						<duration>88650</duration>
						<rate>
							<timebase>30</timebase>
							<ntsc>TRUE</ntsc>
						</rate>
						<start>17961</start>
						<end>18317</end>
						<in>52008</in>
						<out>52364</out>
						<pproTicksIn>440802499737600</pproTicksIn>
						<pproTicksOut>443819837260800</pproTicksOut>
						<file id="file-32"/>
						<sourcetrack>
							<mediatype>audio</mediatype>
							<trackindex>2</trackindex>
						</sourcetrack>
						<link>
							<linkclipref>clipitem-182</linkclipref>
							<mediatype>audio</mediatype>
							<trackindex>1</trackindex>
							<clipindex>51</clipindex>
							<groupindex>1</groupindex>
						</link>
						<link>
							<linkclipref>clipitem-280</linkclipref>
							<mediatype>audio</mediatype>
							<trackindex>2</trackindex>
							<clipindex>41</clipindex>
							<groupindex>1</groupindex>
						</link>
						<logginginfo>
							<description></description>
							<scene>250515</scene>
							<shottake></shottake>
							<lognote></lognote>
							<good></good>
							<originalvideofilename></originalvideofilename>
							<originalaudiofilename></originalaudiofilename>
						</logginginfo>
						<colorinfo>
							<lut></lut>
							<lut1></lut1>
							<asc_sop></asc_sop>
							<asc_sat></asc_sat>
							<lut2></lut2>
						</colorinfo>
						<labels>
							<label2>Caribbean</label2>
						</labels>
					</clipitem>
					<clipitem id="clipitem-281" premiereChannelType="stereo">
						<masterclipid>masterclip-32</masterclipid>
						<name>250515-T001.WAV</name>
						<enabled>TRUE</enabled>
						<duration>88650</duration>
						<rate>
							<timebase>30</timebase>
							<ntsc>TRUE</ntsc>
						</rate>
						<start>18317</start>
						<end>18647</end>
						<in>54198</in>
						<out>54528</out>
						<pproTicksIn>459364210905600</pproTicksIn>
						<pproTicksOut>462161181081600</pproTicksOut>
						<file id="file-32"/>
						<sourcetrack>
							<mediatype>audio</mediatype>
							<trackindex>2</trackindex>
						</sourcetrack>
						<link>
							<linkclipref>clipitem-183</linkclipref>
							<mediatype>audio</mediatype>
							<trackindex>1</trackindex>
							<clipindex>52</clipindex>
							<groupindex>1</groupindex>
						</link>
						<link>
							<linkclipref>clipitem-281</linkclipref>
							<mediatype>audio</mediatype>
							<trackindex>2</trackindex>
							<clipindex>42</clipindex>
							<groupindex>1</groupindex>
						</link>
						<logginginfo>
							<description></description>
							<scene>250515</scene>
							<shottake></shottake>
							<lognote></lognote>
							<good></good>
							<originalvideofilename></originalvideofilename>
							<originalaudiofilename></originalaudiofilename>
						</logginginfo>
						<colorinfo>
							<lut></lut>
							<lut1></lut1>
							<asc_sop></asc_sop>
							<asc_sat></asc_sat>
							<lut2></lut2>
						</colorinfo>
						<labels>
							<label2>Caribbean</label2>
						</labels>
					</clipitem>
					<clipitem id="clipitem-282" premiereChannelType="stereo">
						<masterclipid>masterclip-32</masterclipid>
						<name>250515-T001.WAV</name>
						<enabled>TRUE</enabled>
						<duration>88650</duration>
						<rate>
							<timebase>30</timebase>
							<ntsc>TRUE</ntsc>
						</rate>
						<start>18647</start>
						<end>18969</end>
						<in>54536</in>
						<out>54858</out>
						<pproTicksIn>462228986419200</pproTicksIn>
						<pproTicksOut>464958151257600</pproTicksOut>
						<file id="file-32"/>
						<sourcetrack>
							<mediatype>audio</mediatype>
							<trackindex>2</trackindex>
						</sourcetrack>
						<link>
							<linkclipref>clipitem-184</linkclipref>
							<mediatype>audio</mediatype>
							<trackindex>1</trackindex>
							<clipindex>53</clipindex>
							<groupindex>1</groupindex>
						</link>
						<link>
							<linkclipref>clipitem-282</linkclipref>
							<mediatype>audio</mediatype>
							<trackindex>2</trackindex>
							<clipindex>43</clipindex>
							<groupindex>1</groupindex>
						</link>
						<logginginfo>
							<description></description>
							<scene>250515</scene>
							<shottake></shottake>
							<lognote></lognote>
							<good></good>
							<originalvideofilename></originalvideofilename>
							<originalaudiofilename></originalaudiofilename>
						</logginginfo>
						<colorinfo>
							<lut></lut>
							<lut1></lut1>
							<asc_sop></asc_sop>
							<asc_sat></asc_sat>
							<lut2></lut2>
						</colorinfo>
						<labels>
							<label2>Caribbean</label2>
						</labels>
					</clipitem>
					<clipitem id="clipitem-283" premiereChannelType="stereo">
						<masterclipid>masterclip-30</masterclipid>
						<name>250430-T003.WAV</name>
						<enabled>TRUE</enabled>
						<duration>76170</duration>
						<rate>
							<timebase>30</timebase>
							<ntsc>TRUE</ntsc>
						</rate>
						<start>18969</start>
						<end>19523</end>
						<in>15305</in>
						<out>15859</out>
						<pproTicksIn>129720086496000</pproTicksIn>
						<pproTicksOut>134415606124800</pproTicksOut>
						<file id="file-30"/>
						<sourcetrack>
							<mediatype>audio</mediatype>
							<trackindex>2</trackindex>
						</sourcetrack>
						<link>
							<linkclipref>clipitem-185</linkclipref>
							<mediatype>audio</mediatype>
							<trackindex>1</trackindex>
							<clipindex>54</clipindex>
							<groupindex>1</groupindex>
						</link>
						<link>
							<linkclipref>clipitem-283</linkclipref>
							<mediatype>audio</mediatype>
							<trackindex>2</trackindex>
							<clipindex>44</clipindex>
							<groupindex>1</groupindex>
						</link>
						<logginginfo>
							<description></description>
							<scene>250430</scene>
							<shottake></shottake>
							<lognote></lognote>
							<good></good>
							<originalvideofilename></originalvideofilename>
							<originalaudiofilename></originalaudiofilename>
						</logginginfo>
						<colorinfo>
							<lut></lut>
							<lut1></lut1>
							<asc_sop></asc_sop>
							<asc_sat></asc_sat>
							<lut2></lut2>
						</colorinfo>
					</clipitem>
					<clipitem id="clipitem-284" premiereChannelType="stereo">
						<masterclipid>masterclip-30</masterclipid>
						<name>250430-T003.WAV</name>
						<enabled>TRUE</enabled>
						<duration>76170</duration>
						<rate>
							<timebase>30</timebase>
							<ntsc>TRUE</ntsc>
						</rate>
						<start>19523</start>
						<end>19651</end>
						<in>16034</in>
						<out>16162</out>
						<pproTicksIn>135898847884800</pproTicksIn>
						<pproTicksOut>136983733286400</pproTicksOut>
						<file id="file-30"/>
						<sourcetrack>
							<mediatype>audio</mediatype>
							<trackindex>2</trackindex>
						</sourcetrack>
						<link>
							<linkclipref>clipitem-186</linkclipref>
							<mediatype>audio</mediatype>
							<trackindex>1</trackindex>
							<clipindex>55</clipindex>
							<groupindex>1</groupindex>
						</link>
						<link>
							<linkclipref>clipitem-284</linkclipref>
							<mediatype>audio</mediatype>
							<trackindex>2</trackindex>
							<clipindex>45</clipindex>
							<groupindex>1</groupindex>
						</link>
						<logginginfo>
							<description></description>
							<scene>250430</scene>
							<shottake></shottake>
							<lognote></lognote>
							<good></good>
							<originalvideofilename></originalvideofilename>
							<originalaudiofilename></originalaudiofilename>
						</logginginfo>
						<colorinfo>
							<lut></lut>
							<lut1></lut1>
							<asc_sop></asc_sop>
							<asc_sat></asc_sat>
							<lut2></lut2>
						</colorinfo>
					</clipitem>
					<clipitem id="clipitem-285" premiereChannelType="stereo">
						<masterclipid>masterclip-28</masterclipid>
						<name>250515-T014.WAV</name>
						<enabled>TRUE</enabled>
						<duration>84540</duration>
						<rate>
							<timebase>30</timebase>
							<ntsc>TRUE</ntsc>
						</rate>
						<start>19651</start>
						<end>19972</end>
						<in>73091</in>
						<out>73412</out>
						<pproTicksIn>619494991315200</pproTicksIn>
						<pproTicksOut>622215680486400</pproTicksOut>
						<file id="file-28"/>
						<sourcetrack>
							<mediatype>audio</mediatype>
							<trackindex>2</trackindex>
						</sourcetrack>
						<link>
							<linkclipref>clipitem-187</linkclipref>
							<mediatype>audio</mediatype>
							<trackindex>1</trackindex>
							<clipindex>56</clipindex>
							<groupindex>1</groupindex>
						</link>
						<link>
							<linkclipref>clipitem-285</linkclipref>
							<mediatype>audio</mediatype>
							<trackindex>2</trackindex>
							<clipindex>46</clipindex>
							<groupindex>1</groupindex>
						</link>
						<logginginfo>
							<description></description>
							<scene>250515</scene>
							<shottake></shottake>
							<lognote></lognote>
							<good></good>
							<originalvideofilename></originalvideofilename>
							<originalaudiofilename></originalaudiofilename>
						</logginginfo>
						<colorinfo>
							<lut></lut>
							<lut1></lut1>
							<asc_sop></asc_sop>
							<asc_sat></asc_sat>
							<lut2></lut2>
						</colorinfo>
						<labels>
							<label2>Caribbean</label2>
						</labels>
					</clipitem>
					<clipitem id="clipitem-286" premiereChannelType="stereo">
						<masterclipid>masterclip-28</masterclipid>
						<name>250515-T014.WAV</name>
						<enabled>TRUE</enabled>
						<duration>84540</duration>
						<rate>
							<timebase>30</timebase>
							<ntsc>TRUE</ntsc>
						</rate>
						<start>19972</start>
						<end>20691</end>
						<in>73782</in>
						<out>74501</out>
						<pproTicksIn>625351677350400</pproTicksIn>
						<pproTicksOut>631445682067200</pproTicksOut>
						<file id="file-28"/>
						<sourcetrack>
							<mediatype>audio</mediatype>
							<trackindex>2</trackindex>
						</sourcetrack>
						<link>
							<linkclipref>clipitem-188</linkclipref>
							<mediatype>audio</mediatype>
							<trackindex>1</trackindex>
							<clipindex>57</clipindex>
							<groupindex>1</groupindex>
						</link>
						<link>
							<linkclipref>clipitem-286</linkclipref>
							<mediatype>audio</mediatype>
							<trackindex>2</trackindex>
							<clipindex>47</clipindex>
							<groupindex>1</groupindex>
						</link>
						<logginginfo>
							<description></description>
							<scene>250515</scene>
							<shottake></shottake>
							<lognote></lognote>
							<good></good>
							<originalvideofilename></originalvideofilename>
							<originalaudiofilename></originalaudiofilename>
						</logginginfo>
						<colorinfo>
							<lut></lut>
							<lut1></lut1>
							<asc_sop></asc_sop>
							<asc_sat></asc_sat>
							<lut2></lut2>
						</colorinfo>
						<labels>
							<label2>Caribbean</label2>
						</labels>
					</clipitem>
					<clipitem id="clipitem-287" premiereChannelType="stereo">
						<masterclipid>masterclip-28</masterclipid>
						<name>250515-T014.WAV</name>
						<enabled>TRUE</enabled>
						<duration>84540</duration>
						<rate>
							<timebase>30</timebase>
							<ntsc>TRUE</ntsc>
						</rate>
						<start>20691</start>
						<end>20918</end>
						<in>75447</in>
						<out>75674</out>
						<pproTicksIn>639463663238400</pproTicksIn>
						<pproTicksOut>641387639692800</pproTicksOut>
						<file id="file-28"/>
						<sourcetrack>
							<mediatype>audio</mediatype>
							<trackindex>2</trackindex>
						</sourcetrack>
						<link>
							<linkclipref>clipitem-189</linkclipref>
							<mediatype>audio</mediatype>
							<trackindex>1</trackindex>
							<clipindex>58</clipindex>
							<groupindex>1</groupindex>
						</link>
						<link>
							<linkclipref>clipitem-287</linkclipref>
							<mediatype>audio</mediatype>
							<trackindex>2</trackindex>
							<clipindex>48</clipindex>
							<groupindex>1</groupindex>
						</link>
						<logginginfo>
							<description></description>
							<scene>250515</scene>
							<shottake></shottake>
							<lognote></lognote>
							<good></good>
							<originalvideofilename></originalvideofilename>
							<originalaudiofilename></originalaudiofilename>
						</logginginfo>
						<colorinfo>
							<lut></lut>
							<lut1></lut1>
							<asc_sop></asc_sop>
							<asc_sat></asc_sat>
							<lut2></lut2>
						</colorinfo>
						<labels>
							<label2>Caribbean</label2>
						</labels>
					</clipitem>
					<clipitem id="clipitem-288" premiereChannelType="stereo">
						<masterclipid>masterclip-33</masterclipid>
						<name>250516-T014.WAV</name>
						<enabled>TRUE</enabled>
						<duration>22800</duration>
						<rate>
							<timebase>30</timebase>
							<ntsc>TRUE</ntsc>
						</rate>
						<start>20918</start>
						<end>21217</end>
						<in>10608</in>
						<out>10907</out>
						<pproTicksIn>89909877657600</pproTicksIn>
						<pproTicksOut>92444102150400</pproTicksOut>
						<file id="file-33"/>
						<sourcetrack>
							<mediatype>audio</mediatype>
							<trackindex>2</trackindex>
						</sourcetrack>
						<link>
							<linkclipref>clipitem-190</linkclipref>
							<mediatype>audio</mediatype>
							<trackindex>1</trackindex>
							<clipindex>59</clipindex>
							<groupindex>1</groupindex>
						</link>
						<link>
							<linkclipref>clipitem-288</linkclipref>
							<mediatype>audio</mediatype>
							<trackindex>2</trackindex>
							<clipindex>49</clipindex>
							<groupindex>1</groupindex>
						</link>
						<logginginfo>
							<description></description>
							<scene>250516</scene>
							<shottake></shottake>
							<lognote></lognote>
							<good></good>
							<originalvideofilename></originalvideofilename>
							<originalaudiofilename></originalaudiofilename>
						</logginginfo>
						<colorinfo>
							<lut></lut>
							<lut1></lut1>
							<asc_sop></asc_sop>
							<asc_sat></asc_sat>
							<lut2></lut2>
						</colorinfo>
						<labels>
							<label2>Caribbean</label2>
						</labels>
					</clipitem>
					<clipitem id="clipitem-289" premiereChannelType="stereo">
						<masterclipid>masterclip-34</masterclipid>
						<name>250516-T015.WAV</name>
						<enabled>TRUE</enabled>
						<duration>41790</duration>
						<rate>
							<timebase>30</timebase>
							<ntsc>TRUE</ntsc>
						</rate>
						<start>21217</start>
						<end>21396</end>
						<in>8507</in>
						<out>8686</out>
						<pproTicksIn>72102500870400</pproTicksIn>
						<pproTicksOut>73619645299200</pproTicksOut>
						<file id="file-34"/>
						<sourcetrack>
							<mediatype>audio</mediatype>
							<trackindex>2</trackindex>
						</sourcetrack>
						<link>
							<linkclipref>clipitem-191</linkclipref>
							<mediatype>audio</mediatype>
							<trackindex>1</trackindex>
							<clipindex>60</clipindex>
							<groupindex>1</groupindex>
						</link>
						<link>
							<linkclipref>clipitem-289</linkclipref>
							<mediatype>audio</mediatype>
							<trackindex>2</trackindex>
							<clipindex>50</clipindex>
							<groupindex>1</groupindex>
						</link>
						<logginginfo>
							<description></description>
							<scene>250516</scene>
							<shottake></shottake>
							<lognote></lognote>
							<good></good>
							<originalvideofilename></originalvideofilename>
							<originalaudiofilename></originalaudiofilename>
						</logginginfo>
						<colorinfo>
							<lut></lut>
							<lut1></lut1>
							<asc_sop></asc_sop>
							<asc_sat></asc_sat>
							<lut2></lut2>
						</colorinfo>
						<labels>
							<label2>Caribbean</label2>
						</labels>
					</clipitem>
					<clipitem id="clipitem-290" premiereChannelType="stereo">
						<masterclipid>masterclip-34</masterclipid>
						<name>250516-T015.WAV</name>
						<enabled>TRUE</enabled>
						<duration>41790</duration>
						<rate>
							<timebase>30</timebase>
							<ntsc>TRUE</ntsc>
						</rate>
						<start>21396</start>
						<end>21674</end>
						<in>9683</in>
						<out>9961</out>
						<pproTicksIn>82069885497600</pproTicksIn>
						<pproTicksOut>84426120979200</pproTicksOut>
						<file id="file-34"/>
						<sourcetrack>
							<mediatype>audio</mediatype>
							<trackindex>2</trackindex>
						</sourcetrack>
						<link>
							<linkclipref>clipitem-192</linkclipref>
							<mediatype>audio</mediatype>
							<trackindex>1</trackindex>
							<clipindex>61</clipindex>
							<groupindex>1</groupindex>
						</link>
						<link>
							<linkclipref>clipitem-290</linkclipref>
							<mediatype>audio</mediatype>
							<trackindex>2</trackindex>
							<clipindex>51</clipindex>
							<groupindex>1</groupindex>
						</link>
						<logginginfo>
							<description></description>
							<scene>250516</scene>
							<shottake></shottake>
							<lognote></lognote>
							<good></good>
							<originalvideofilename></originalvideofilename>
							<originalaudiofilename></originalaudiofilename>
						</logginginfo>
						<colorinfo>
							<lut></lut>
							<lut1></lut1>
							<asc_sop></asc_sop>
							<asc_sat></asc_sat>
							<lut2></lut2>
						</colorinfo>
						<labels>
							<label2>Caribbean</label2>
						</labels>
					</clipitem>
					<clipitem id="clipitem-291" premiereChannelType="stereo">
						<masterclipid>masterclip-34</masterclipid>
						<name>250516-T015.WAV</name>
						<enabled>TRUE</enabled>
						<duration>41790</duration>
						<rate>
							<timebase>30</timebase>
							<ntsc>TRUE</ntsc>
						</rate>
						<start>21674</start>
						<end>21793</end>
						<in>10404</in>
						<out>10523</out>
						<pproTicksIn>88180841548800</pproTicksIn>
						<pproTicksOut>89189445945600</pproTicksOut>
						<file id="file-34"/>
						<sourcetrack>
							<mediatype>audio</mediatype>
							<trackindex>2</trackindex>
						</sourcetrack>
						<link>
							<linkclipref>clipitem-193</linkclipref>
							<mediatype>audio</mediatype>
							<trackindex>1</trackindex>
							<clipindex>62</clipindex>
							<groupindex>1</groupindex>
						</link>
						<link>
							<linkclipref>clipitem-291</linkclipref>
							<mediatype>audio</mediatype>
							<trackindex>2</trackindex>
							<clipindex>52</clipindex>
							<groupindex>1</groupindex>
						</link>
						<logginginfo>
							<description></description>
							<scene>250516</scene>
							<shottake></shottake>
							<lognote></lognote>
							<good></good>
							<originalvideofilename></originalvideofilename>
							<originalaudiofilename></originalaudiofilename>
						</logginginfo>
						<colorinfo>
							<lut></lut>
							<lut1></lut1>
							<asc_sop></asc_sop>
							<asc_sat></asc_sat>
							<lut2></lut2>
						</colorinfo>
						<labels>
							<label2>Caribbean</label2>
						</labels>
					</clipitem>
					<clipitem id="clipitem-292" premiereChannelType="stereo">
						<masterclipid>masterclip-34</masterclipid>
						<name>250516-T015.WAV</name>
						<enabled>TRUE</enabled>
						<duration>41790</duration>
						<rate>
							<timebase>30</timebase>
							<ntsc>TRUE</ntsc>
						</rate>
						<start>21793</start>
						<end>21921</end>
						<in>10688</in>
						<out>10816</out>
						<pproTicksIn>90587931033600</pproTicksIn>
						<pproTicksOut>91672816435200</pproTicksOut>
						<file id="file-34"/>
						<sourcetrack>
							<mediatype>audio</mediatype>
							<trackindex>2</trackindex>
						</sourcetrack>
						<link>
							<linkclipref>clipitem-194</linkclipref>
							<mediatype>audio</mediatype>
							<trackindex>1</trackindex>
							<clipindex>63</clipindex>
							<groupindex>1</groupindex>
						</link>
						<link>
							<linkclipref>clipitem-292</linkclipref>
							<mediatype>audio</mediatype>
							<trackindex>2</trackindex>
							<clipindex>53</clipindex>
							<groupindex>1</groupindex>
						</link>
						<logginginfo>
							<description></description>
							<scene>250516</scene>
							<shottake></shottake>
							<lognote></lognote>
							<good></good>
							<originalvideofilename></originalvideofilename>
							<originalaudiofilename></originalaudiofilename>
						</logginginfo>
						<colorinfo>
							<lut></lut>
							<lut1></lut1>
							<asc_sop></asc_sop>
							<asc_sat></asc_sat>
							<lut2></lut2>
						</colorinfo>
						<labels>
							<label2>Caribbean</label2>
						</labels>
					</clipitem>
					<clipitem id="clipitem-293" premiereChannelType="stereo">
						<masterclipid>masterclip-34</masterclipid>
						<name>250516-T015.WAV</name>
						<enabled>TRUE</enabled>
						<duration>41790</duration>
						<rate>
							<timebase>30</timebase>
							<ntsc>TRUE</ntsc>
						</rate>
						<start>21921</start>
						<end>22061</end>
						<in>10847</in>
						<out>10987</out>
						<pproTicksIn>91935562118400</pproTicksIn>
						<pproTicksOut>93122155526400</pproTicksOut>
						<file id="file-34"/>
						<sourcetrack>
							<mediatype>audio</mediatype>
							<trackindex>2</trackindex>
						</sourcetrack>
						<link>
							<linkclipref>clipitem-195</linkclipref>
							<mediatype>audio</mediatype>
							<trackindex>1</trackindex>
							<clipindex>64</clipindex>
							<groupindex>1</groupindex>
						</link>
						<link>
							<linkclipref>clipitem-293</linkclipref>
							<mediatype>audio</mediatype>
							<trackindex>2</trackindex>
							<clipindex>54</clipindex>
							<groupindex>1</groupindex>
						</link>
						<logginginfo>
							<description></description>
							<scene>250516</scene>
							<shottake></shottake>
							<lognote></lognote>
							<good></good>
							<originalvideofilename></originalvideofilename>
							<originalaudiofilename></originalaudiofilename>
						</logginginfo>
						<colorinfo>
							<lut></lut>
							<lut1></lut1>
							<asc_sop></asc_sop>
							<asc_sat></asc_sat>
							<lut2></lut2>
						</colorinfo>
						<labels>
							<label2>Caribbean</label2>
						</labels>
					</clipitem>
					<clipitem id="clipitem-294" premiereChannelType="stereo">
						<masterclipid>masterclip-13</masterclipid>
						<name>2025-03-20 04-05-37 .mov</name>
						<enabled>TRUE</enabled>
						<duration>47458</duration>
						<rate>
							<timebase>30</timebase>
							<ntsc>TRUE</ntsc>
						</rate>
						<start>22061</start>
						<end>22218</end>
						<in>1087</in>
						<out>1244</out>
						<pproTicksIn>9213050246400</pproTicksIn>
						<pproTicksOut>10543729996800</pproTicksOut>
						<file id="file-13"/>
						<sourcetrack>
							<mediatype>audio</mediatype>
							<trackindex>2</trackindex>
						</sourcetrack>
							<marker>
								<comment>Futuro Compartilhado&#13;Perseverança&#13;Participaçao popular e ativismo&#13;Consciencia humana&#13;Energia e petroleo</comment>
								<name>Futuro</name>
								<in>16493</in>
								<out>-1</out>
							</marker>
							<marker>
								<comment>Consciencia humana&#13;Extinçoes&#13;</comment>
								<name>Desequilibrio ambiental</name>
								<in>41222</in>
								<out>-1</out>
							</marker>
							<marker>
								<comment>Lutzenberger teia de aranha&#13;Ligaçoes integradas</comment>
								<name>Desequilibrio ambiental</name>
								<in>44214</in>
								<out>-1</out>
							</marker>
							<marker>
								<comment>ESG&#13;Lobby&#13;Politicas publicas ambientais&#13;Certificados ecologicos</comment>
								<name>Politica</name>
								<in>11320</in>
								<out>-1</out>
							</marker>
							<marker>
								<comment>Trump&#13;Empresas acima do Estado&#13;Economia acima do ser humano&#13;Atraso Ultraliberalismo</comment>
								<name>Politica</name>
								<in>4927</in>
								<out>-1</out>
							</marker>
							<marker>
								<comment>Reflexao filosofica&#13;Ciencia estuda a vida&#13;Tecnologia e economia</comment>
								<name>Ciencia tecnologia</name>
								<in>24604</in>
								<out>-1</out>
							</marker>
							<marker>
								<comment>Comparaçao Lutzenberger e Ivan Illich</comment>
								<name>Precursores</name>
								<in>34594</in>
								<out>-1</out>
							</marker>
							<marker>
								<comment>Ivan Illich&#13;Educaçao&#13;Cita The Wall Pink Floyd&#13;Povos originarios indigenas&#13;Industria da Saude</comment>
								<name>Precursores</name>
								<in>35867</in>
								<out>-1</out>
							</marker>
							<marker>
								<comment>Falta de politicas para reduzir consumo combustivel fossil&#13;</comment>
								<name>Politica</name>
								<in>824</in>
								<out>-1</out>
							</marker>
						<link>
							<linkclipref>clipitem-65</linkclipref>
							<mediatype>video</mediatype>
							<trackindex>1</trackindex>
							<clipindex>65</clipindex>
						</link>
						<link>
							<linkclipref>clipitem-196</linkclipref>
							<mediatype>audio</mediatype>
							<trackindex>1</trackindex>
							<clipindex>65</clipindex>
							<groupindex>1</groupindex>
						</link>
						<link>
							<linkclipref>clipitem-294</linkclipref>
							<mediatype>audio</mediatype>
							<trackindex>2</trackindex>
							<clipindex>55</clipindex>
							<groupindex>1</groupindex>
						</link>
						<logginginfo>
							<description></description>
							<scene></scene>
							<shottake></shottake>
							<lognote></lognote>
							<good></good>
							<originalvideofilename></originalvideofilename>
							<originalaudiofilename></originalaudiofilename>
						</logginginfo>
						<colorinfo>
							<lut></lut>
							<lut1></lut1>
							<asc_sop></asc_sop>
							<asc_sat></asc_sat>
							<lut2></lut2>
						</colorinfo>
					</clipitem>
					<clipitem id="clipitem-295" premiereChannelType="stereo">
						<masterclipid>masterclip-13</masterclipid>
						<name>2025-03-20 04-05-37 .mov</name>
						<enabled>TRUE</enabled>
						<duration>47458</duration>
						<rate>
							<timebase>30</timebase>
							<ntsc>TRUE</ntsc>
						</rate>
						<start>22218</start>
						<end>23035</end>
						<in>2258</in>
						<out>3075</out>
						<pproTicksIn>19138056537600</pproTicksIn>
						<pproTicksOut>26062676640000</pproTicksOut>
						<file id="file-13"/>
						<sourcetrack>
							<mediatype>audio</mediatype>
							<trackindex>2</trackindex>
						</sourcetrack>
							<marker>
								<comment>Futuro Compartilhado&#13;Perseverança&#13;Participaçao popular e ativismo&#13;Consciencia humana&#13;Energia e petroleo</comment>
								<name>Futuro</name>
								<in>16493</in>
								<out>-1</out>
							</marker>
							<marker>
								<comment>Consciencia humana&#13;Extinçoes&#13;</comment>
								<name>Desequilibrio ambiental</name>
								<in>41222</in>
								<out>-1</out>
							</marker>
							<marker>
								<comment>Lutzenberger teia de aranha&#13;Ligaçoes integradas</comment>
								<name>Desequilibrio ambiental</name>
								<in>44214</in>
								<out>-1</out>
							</marker>
							<marker>
								<comment>ESG&#13;Lobby&#13;Politicas publicas ambientais&#13;Certificados ecologicos</comment>
								<name>Politica</name>
								<in>11320</in>
								<out>-1</out>
							</marker>
							<marker>
								<comment>Trump&#13;Empresas acima do Estado&#13;Economia acima do ser humano&#13;Atraso Ultraliberalismo</comment>
								<name>Politica</name>
								<in>4927</in>
								<out>-1</out>
							</marker>
							<marker>
								<comment>Reflexao filosofica&#13;Ciencia estuda a vida&#13;Tecnologia e economia</comment>
								<name>Ciencia tecnologia</name>
								<in>24604</in>
								<out>-1</out>
							</marker>
							<marker>
								<comment>Comparaçao Lutzenberger e Ivan Illich</comment>
								<name>Precursores</name>
								<in>34594</in>
								<out>-1</out>
							</marker>
							<marker>
								<comment>Ivan Illich&#13;Educaçao&#13;Cita The Wall Pink Floyd&#13;Povos originarios indigenas&#13;Industria da Saude</comment>
								<name>Precursores</name>
								<in>35867</in>
								<out>-1</out>
							</marker>
							<marker>
								<comment>Falta de politicas para reduzir consumo combustivel fossil&#13;</comment>
								<name>Politica</name>
								<in>824</in>
								<out>-1</out>
							</marker>
						<link>
							<linkclipref>clipitem-66</linkclipref>
							<mediatype>video</mediatype>
							<trackindex>1</trackindex>
							<clipindex>66</clipindex>
						</link>
						<link>
							<linkclipref>clipitem-197</linkclipref>
							<mediatype>audio</mediatype>
							<trackindex>1</trackindex>
							<clipindex>66</clipindex>
							<groupindex>1</groupindex>
						</link>
						<link>
							<linkclipref>clipitem-295</linkclipref>
							<mediatype>audio</mediatype>
							<trackindex>2</trackindex>
							<clipindex>56</clipindex>
							<groupindex>1</groupindex>
						</link>
						<logginginfo>
							<description></description>
							<scene></scene>
							<shottake></shottake>
							<lognote></lognote>
							<good></good>
							<originalvideofilename></originalvideofilename>
							<originalaudiofilename></originalaudiofilename>
						</logginginfo>
						<colorinfo>
							<lut></lut>
							<lut1></lut1>
							<asc_sop></asc_sop>
							<asc_sat></asc_sat>
							<lut2></lut2>
						</colorinfo>
					</clipitem>
					<clipitem id="clipitem-296" premiereChannelType="stereo">
						<masterclipid>masterclip-14</masterclipid>
						<name>2025-03-20 03-40-16 .mov</name>
						<enabled>TRUE</enabled>
						<duration>45538</duration>
						<rate>
							<timebase>30</timebase>
							<ntsc>TRUE</ntsc>
						</rate>
						<start>23035</start>
						<end>23803</end>
						<in>37453</in>
						<out>38221</out>
						<pproTicksIn>317439163641600</pproTicksIn>
						<pproTicksOut>323948476051200</pproTicksOut>
						<file id="file-14"/>
						<sourcetrack>
							<mediatype>audio</mediatype>
							<trackindex>2</trackindex>
						</sourcetrack>
							<marker>
								<comment>Reflexao filosofica&#13;Mudanças climaticas&#13;Interferencia humana&#13;Historia do planeta&#13;Cita Lutzenberger&#13;Planeta maior do que humano&#13;</comment>
								<name>Eras do Planeta</name>
								<in>2136</in>
								<out>-1</out>
							</marker>
							<marker>
								<comment>Reflexao filosofica&#13;Fosseis&#13;Historia do Planeta&#13;Dataçao de carbono&#13;Oceanos e continentes&#13;</comment>
								<name>Eras do Planeta</name>
								<in>11859</in>
								<out>-1</out>
							</marker>
							<marker>
								<comment>Reflexao filosofica&#13;Entendimento cognitivo do ser humano&#13;Movimento ecologico&#13;Desequilibrio ambiental&#13;Ser humano sem predador se torna seu proprio inimigo&#13;Conferencia mundial acordos internacionais&#13;Cita Lutzenberger&#13;Josue de Castro&#13;Aumento populacional&#13;Densidade demografica&#13;Futuro e distopia&#13;Desenvolvimento economico</comment>
								<name>Eras do Planeta</name>
								<in>13898</in>
								<out>-1</out>
							</marker>
							<marker>
								<comment></comment>
								<name>Falha de imagem e som</name>
								<in>27423</in>
								<out>-1</out>
								<pproColor>4281740498</pproColor>
							</marker>
							<marker>
								<comment>Lutzenberger&#13;</comment>
								<name>Precursores</name>
								<in>29719</in>
								<out>-1</out>
							</marker>
							<marker>
								<comment>Reflexao filosofica&#13;Extincoes&#13;Floresta Araucaria remanescente&#13;Fosseis&#13;</comment>
								<name>Eras do Planeta</name>
								<in>8880</in>
								<out>-1</out>
							</marker>
							<marker>
								<comment>Reflexao filosofica&#13;Extincoes&#13;Surgimento do ser humano</comment>
								<name>Eras do Planeta</name>
								<in>7547</in>
								<out>-1</out>
							</marker>
							<marker>
								<comment>Reflexao&#13;Governo economia lobby contra interesse publico&#13;Futuro compartilhado BRICS&#13;Exemplo China desertos&#13;Reduçao consumo petroleo&#13;Transiçao energetica&#13;Acordos internacionais Paris</comment>
								<name>Politica</name>
								<in>32011</in>
								<out>-1</out>
							</marker>
						<link>
							<linkclipref>clipitem-67</linkclipref>
							<mediatype>video</mediatype>
							<trackindex>1</trackindex>
							<clipindex>67</clipindex>
						</link>
						<link>
							<linkclipref>clipitem-198</linkclipref>
							<mediatype>audio</mediatype>
							<trackindex>1</trackindex>
							<clipindex>67</clipindex>
							<groupindex>1</groupindex>
						</link>
						<link>
							<linkclipref>clipitem-296</linkclipref>
							<mediatype>audio</mediatype>
							<trackindex>2</trackindex>
							<clipindex>57</clipindex>
							<groupindex>1</groupindex>
						</link>
						<logginginfo>
							<description></description>
							<scene></scene>
							<shottake></shottake>
							<lognote></lognote>
							<good></good>
							<originalvideofilename></originalvideofilename>
							<originalaudiofilename></originalaudiofilename>
						</logginginfo>
						<colorinfo>
							<lut></lut>
							<lut1></lut1>
							<asc_sop></asc_sop>
							<asc_sat></asc_sat>
							<lut2></lut2>
						</colorinfo>
					</clipitem>
					<clipitem id="clipitem-297" premiereChannelType="stereo">
						<masterclipid>masterclip-14</masterclipid>
						<name>2025-03-20 03-40-16 .mov</name>
						<enabled>TRUE</enabled>
						<duration>45538</duration>
						<rate>
							<timebase>30</timebase>
							<ntsc>TRUE</ntsc>
						</rate>
						<start>23803</start>
						<end>24111</end>
						<in>42866</in>
						<out>43174</out>
						<pproTicksIn>363317950195200</pproTicksIn>
						<pproTicksOut>365928455692800</pproTicksOut>
						<file id="file-14"/>
						<sourcetrack>
							<mediatype>audio</mediatype>
							<trackindex>2</trackindex>
						</sourcetrack>
							<marker>
								<comment>Reflexao filosofica&#13;Mudanças climaticas&#13;Interferencia humana&#13;Historia do planeta&#13;Cita Lutzenberger&#13;Planeta maior do que humano&#13;</comment>
								<name>Eras do Planeta</name>
								<in>2136</in>
								<out>-1</out>
							</marker>
							<marker>
								<comment>Reflexao filosofica&#13;Fosseis&#13;Historia do Planeta&#13;Dataçao de carbono&#13;Oceanos e continentes&#13;</comment>
								<name>Eras do Planeta</name>
								<in>11859</in>
								<out>-1</out>
							</marker>
							<marker>
								<comment>Reflexao filosofica&#13;Entendimento cognitivo do ser humano&#13;Movimento ecologico&#13;Desequilibrio ambiental&#13;Ser humano sem predador se torna seu proprio inimigo&#13;Conferencia mundial acordos internacionais&#13;Cita Lutzenberger&#13;Josue de Castro&#13;Aumento populacional&#13;Densidade demografica&#13;Futuro e distopia&#13;Desenvolvimento economico</comment>
								<name>Eras do Planeta</name>
								<in>13898</in>
								<out>-1</out>
							</marker>
							<marker>
								<comment></comment>
								<name>Falha de imagem e som</name>
								<in>27423</in>
								<out>-1</out>
								<pproColor>4281740498</pproColor>
							</marker>
							<marker>
								<comment>Lutzenberger&#13;</comment>
								<name>Precursores</name>
								<in>29719</in>
								<out>-1</out>
							</marker>
							<marker>
								<comment>Reflexao filosofica&#13;Extincoes&#13;Floresta Araucaria remanescente&#13;Fosseis&#13;</comment>
								<name>Eras do Planeta</name>
								<in>8880</in>
								<out>-1</out>
							</marker>
							<marker>
								<comment>Reflexao filosofica&#13;Extincoes&#13;Surgimento do ser humano</comment>
								<name>Eras do Planeta</name>
								<in>7547</in>
								<out>-1</out>
							</marker>
							<marker>
								<comment>Reflexao&#13;Governo economia lobby contra interesse publico&#13;Futuro compartilhado BRICS&#13;Exemplo China desertos&#13;Reduçao consumo petroleo&#13;Transiçao energetica&#13;Acordos internacionais Paris</comment>
								<name>Politica</name>
								<in>32011</in>
								<out>-1</out>
							</marker>
						<link>
							<linkclipref>clipitem-68</linkclipref>
							<mediatype>video</mediatype>
							<trackindex>1</trackindex>
							<clipindex>68</clipindex>
						</link>
						<link>
							<linkclipref>clipitem-199</linkclipref>
							<mediatype>audio</mediatype>
							<trackindex>1</trackindex>
							<clipindex>68</clipindex>
							<groupindex>1</groupindex>
						</link>
						<link>
							<linkclipref>clipitem-297</linkclipref>
							<mediatype>audio</mediatype>
							<trackindex>2</trackindex>
							<clipindex>58</clipindex>
							<groupindex>1</groupindex>
						</link>
						<logginginfo>
							<description></description>
							<scene></scene>
							<shottake></shottake>
							<lognote></lognote>
							<good></good>
							<originalvideofilename></originalvideofilename>
							<originalaudiofilename></originalaudiofilename>
						</logginginfo>
						<colorinfo>
							<lut></lut>
							<lut1></lut1>
							<asc_sop></asc_sop>
							<asc_sat></asc_sat>
							<lut2></lut2>
						</colorinfo>
					</clipitem>
					<clipitem id="clipitem-298" premiereChannelType="stereo">
						<masterclipid>masterclip-14</masterclipid>
						<name>2025-03-20 03-40-16 .mov</name>
						<enabled>TRUE</enabled>
						<duration>45538</duration>
						<rate>
							<timebase>30</timebase>
							<ntsc>TRUE</ntsc>
						</rate>
						<start>24111</start>
						<end>24568</end>
						<in>43624</in>
						<out>44081</out>
						<pproTicksIn>369742505932800</pproTicksIn>
						<pproTicksOut>373615885843200</pproTicksOut>
						<file id="file-14"/>
						<sourcetrack>
							<mediatype>audio</mediatype>
							<trackindex>2</trackindex>
						</sourcetrack>
							<marker>
								<comment>Reflexao filosofica&#13;Mudanças climaticas&#13;Interferencia humana&#13;Historia do planeta&#13;Cita Lutzenberger&#13;Planeta maior do que humano&#13;</comment>
								<name>Eras do Planeta</name>
								<in>2136</in>
								<out>-1</out>
							</marker>
							<marker>
								<comment>Reflexao filosofica&#13;Fosseis&#13;Historia do Planeta&#13;Dataçao de carbono&#13;Oceanos e continentes&#13;</comment>
								<name>Eras do Planeta</name>
								<in>11859</in>
								<out>-1</out>
							</marker>
							<marker>
								<comment>Reflexao filosofica&#13;Entendimento cognitivo do ser humano&#13;Movimento ecologico&#13;Desequilibrio ambiental&#13;Ser humano sem predador se torna seu proprio inimigo&#13;Conferencia mundial acordos internacionais&#13;Cita Lutzenberger&#13;Josue de Castro&#13;Aumento populacional&#13;Densidade demografica&#13;Futuro e distopia&#13;Desenvolvimento economico</comment>
								<name>Eras do Planeta</name>
								<in>13898</in>
								<out>-1</out>
							</marker>
							<marker>
								<comment></comment>
								<name>Falha de imagem e som</name>
								<in>27423</in>
								<out>-1</out>
								<pproColor>4281740498</pproColor>
							</marker>
							<marker>
								<comment>Lutzenberger&#13;</comment>
								<name>Precursores</name>
								<in>29719</in>
								<out>-1</out>
							</marker>
							<marker>
								<comment>Reflexao filosofica&#13;Extincoes&#13;Floresta Araucaria remanescente&#13;Fosseis&#13;</comment>
								<name>Eras do Planeta</name>
								<in>8880</in>
								<out>-1</out>
							</marker>
							<marker>
								<comment>Reflexao filosofica&#13;Extincoes&#13;Surgimento do ser humano</comment>
								<name>Eras do Planeta</name>
								<in>7547</in>
								<out>-1</out>
							</marker>
							<marker>
								<comment>Reflexao&#13;Governo economia lobby contra interesse publico&#13;Futuro compartilhado BRICS&#13;Exemplo China desertos&#13;Reduçao consumo petroleo&#13;Transiçao energetica&#13;Acordos internacionais Paris</comment>
								<name>Politica</name>
								<in>32011</in>
								<out>-1</out>
							</marker>
						<link>
							<linkclipref>clipitem-69</linkclipref>
							<mediatype>video</mediatype>
							<trackindex>1</trackindex>
							<clipindex>69</clipindex>
						</link>
						<link>
							<linkclipref>clipitem-200</linkclipref>
							<mediatype>audio</mediatype>
							<trackindex>1</trackindex>
							<clipindex>69</clipindex>
							<groupindex>1</groupindex>
						</link>
						<link>
							<linkclipref>clipitem-298</linkclipref>
							<mediatype>audio</mediatype>
							<trackindex>2</trackindex>
							<clipindex>59</clipindex>
							<groupindex>1</groupindex>
						</link>
						<logginginfo>
							<description></description>
							<scene></scene>
							<shottake></shottake>
							<lognote></lognote>
							<good></good>
							<originalvideofilename></originalvideofilename>
							<originalaudiofilename></originalaudiofilename>
						</logginginfo>
						<colorinfo>
							<lut></lut>
							<lut1></lut1>
							<asc_sop></asc_sop>
							<asc_sat></asc_sat>
							<lut2></lut2>
						</colorinfo>
					</clipitem>
					<clipitem id="clipitem-299" premiereChannelType="stereo">
						<masterclipid>masterclip-35</masterclipid>
						<name>250402-T016.WAV</name>
						<enabled>TRUE</enabled>
						<duration>93120</duration>
						<rate>
							<timebase>30</timebase>
							<ntsc>TRUE</ntsc>
						</rate>
						<start>24568</start>
						<end>26289</end>
						<in>78777</in>
						<out>80498</out>
						<pproTicksIn>667687635014400</pproTicksIn>
						<pproTicksOut>682274258265600</pproTicksOut>
						<file id="file-35"/>
						<sourcetrack>
							<mediatype>audio</mediatype>
							<trackindex>2</trackindex>
						</sourcetrack>
						<link>
							<linkclipref>clipitem-201</linkclipref>
							<mediatype>audio</mediatype>
							<trackindex>1</trackindex>
							<clipindex>70</clipindex>
							<groupindex>1</groupindex>
						</link>
						<link>
							<linkclipref>clipitem-299</linkclipref>
							<mediatype>audio</mediatype>
							<trackindex>2</trackindex>
							<clipindex>60</clipindex>
							<groupindex>1</groupindex>
						</link>
						<logginginfo>
							<description></description>
							<scene>250402</scene>
							<shottake></shottake>
							<lognote></lognote>
							<good></good>
							<originalvideofilename></originalvideofilename>
							<originalaudiofilename></originalaudiofilename>
						</logginginfo>
						<colorinfo>
							<lut></lut>
							<lut1></lut1>
							<asc_sop></asc_sop>
							<asc_sat></asc_sat>
							<lut2></lut2>
						</colorinfo>
						<labels>
							<label2>Caribbean</label2>
						</labels>
					</clipitem>
					<clipitem id="clipitem-300" premiereChannelType="stereo">
						<masterclipid>masterclip-16</masterclipid>
						<name>2025-03-21 03-15-40 .mov</name>
						<enabled>TRUE</enabled>
						<duration>25397</duration>
						<rate>
							<timebase>30</timebase>
							<ntsc>TRUE</ntsc>
						</rate>
						<start>26289</start>
						<end>28175</end>
						<in>7745</in>
						<out>9631</out>
						<pproTicksIn>65644042464000</pproTicksIn>
						<pproTicksOut>81629150803200</pproTicksOut>
						<file id="file-16"/>
						<sourcetrack>
							<mediatype>audio</mediatype>
							<trackindex>2</trackindex>
						</sourcetrack>
							<marker>
								<comment>Transporte mobilidade&#13;Energia combustiveis fosseis biocombustivel&#13;Plasticos&#13;Planejamento futuro&#13;Economia&#13;Desigualdade social</comment>
								<name>Petroleo</name>
								<in>7397</in>
								<out>-1</out>
							</marker>
							<marker>
								<comment>Historia Luta ambientalista&#13;Paris COP</comment>
								<name>Acordos internacionais</name>
								<in>1047</in>
								<out>-1</out>
							</marker>
							<marker>
								<comment>Minas de carvao&#13;Planejamento economico&#13;Politicas Publicas&#13;Transiçao energetica</comment>
								<name>Futuro</name>
								<in>22180</in>
								<out>-1</out>
							</marker>
						<link>
							<linkclipref>clipitem-71</linkclipref>
							<mediatype>video</mediatype>
							<trackindex>1</trackindex>
							<clipindex>71</clipindex>
						</link>
						<link>
							<linkclipref>clipitem-202</linkclipref>
							<mediatype>audio</mediatype>
							<trackindex>1</trackindex>
							<clipindex>71</clipindex>
							<groupindex>1</groupindex>
						</link>
						<link>
							<linkclipref>clipitem-300</linkclipref>
							<mediatype>audio</mediatype>
							<trackindex>2</trackindex>
							<clipindex>61</clipindex>
							<groupindex>1</groupindex>
						</link>
						<logginginfo>
							<description></description>
							<scene></scene>
							<shottake></shottake>
							<lognote></lognote>
							<good></good>
							<originalvideofilename></originalvideofilename>
							<originalaudiofilename></originalaudiofilename>
						</logginginfo>
						<colorinfo>
							<lut></lut>
							<lut1></lut1>
							<asc_sop></asc_sop>
							<asc_sat></asc_sat>
							<lut2></lut2>
						</colorinfo>
					</clipitem>
					<clipitem id="clipitem-301" premiereChannelType="stereo">
						<masterclipid>masterclip-16</masterclipid>
						<name>2025-03-21 03-15-40 .mov</name>
						<enabled>TRUE</enabled>
						<duration>25397</duration>
						<rate>
							<timebase>30</timebase>
							<ntsc>TRUE</ntsc>
						</rate>
						<start>28175</start>
						<end>28751</end>
						<in>11291</in>
						<out>11867</out>
						<pproTicksIn>95698758355200</pproTicksIn>
						<pproTicksOut>100580742662400</pproTicksOut>
						<file id="file-16"/>
						<sourcetrack>
							<mediatype>audio</mediatype>
							<trackindex>2</trackindex>
						</sourcetrack>
							<marker>
								<comment>Transporte mobilidade&#13;Energia combustiveis fosseis biocombustivel&#13;Plasticos&#13;Planejamento futuro&#13;Economia&#13;Desigualdade social</comment>
								<name>Petroleo</name>
								<in>7397</in>
								<out>-1</out>
							</marker>
							<marker>
								<comment>Historia Luta ambientalista&#13;Paris COP</comment>
								<name>Acordos internacionais</name>
								<in>1047</in>
								<out>-1</out>
							</marker>
							<marker>
								<comment>Minas de carvao&#13;Planejamento economico&#13;Politicas Publicas&#13;Transiçao energetica</comment>
								<name>Futuro</name>
								<in>22180</in>
								<out>-1</out>
							</marker>
						<link>
							<linkclipref>clipitem-72</linkclipref>
							<mediatype>video</mediatype>
							<trackindex>1</trackindex>
							<clipindex>72</clipindex>
						</link>
						<link>
							<linkclipref>clipitem-203</linkclipref>
							<mediatype>audio</mediatype>
							<trackindex>1</trackindex>
							<clipindex>72</clipindex>
							<groupindex>1</groupindex>
						</link>
						<link>
							<linkclipref>clipitem-301</linkclipref>
							<mediatype>audio</mediatype>
							<trackindex>2</trackindex>
							<clipindex>62</clipindex>
							<groupindex>1</groupindex>
						</link>
						<logginginfo>
							<description></description>
							<scene></scene>
							<shottake></shottake>
							<lognote></lognote>
							<good></good>
							<originalvideofilename></originalvideofilename>
							<originalaudiofilename></originalaudiofilename>
						</logginginfo>
						<colorinfo>
							<lut></lut>
							<lut1></lut1>
							<asc_sop></asc_sop>
							<asc_sat></asc_sat>
							<lut2></lut2>
						</colorinfo>
					</clipitem>
					<clipitem id="clipitem-302" premiereChannelType="stereo">
						<masterclipid>masterclip-8</masterclipid>
						<name>2025-03-20 08-29-14 .mov</name>
						<enabled>TRUE</enabled>
						<duration>42599</duration>
						<rate>
							<timebase>30</timebase>
							<ntsc>TRUE</ntsc>
						</rate>
						<start>28751</start>
						<end>29449</end>
						<in>38839</in>
						<out>39537</out>
						<pproTicksIn>329186438380800</pproTicksIn>
						<pproTicksOut>335102454086400</pproTicksOut>
						<file id="file-8"/>
						<sourcetrack>
							<mediatype>audio</mediatype>
							<trackindex>2</trackindex>
						</sourcetrack>
							<marker>
								<comment>Impacto na economia&#13;Ajuda na enchente do RS&#13;Energia renovavel mais barata&#13;Transiçao energetica&#13;Politicas publicas e investimentos&#13;Convençao do Clima acordo internacional&#13;Futuro</comment>
								<name>Eventos extremos</name>
								<in>34288</in>
								<out>-1</out>
							</marker>
							<marker>
								<comment>Uso de energia apos revoluçao industrial&#13;Combustiveis fosseis&#13;Carvao mineral e petroleo&#13;Desmatamento</comment>
								<name>Efeito estufa</name>
								<in>12078</in>
								<out>-1</out>
							</marker>
							<marker>
								<comment>Explica que nao e cientista nem especialista</comment>
								<name></name>
								<in>400</in>
								<out>-1</out>
							</marker>
							<marker>
								<comment>Gases da atmosfera&#13;Desequilibrio energetico&#13;Aquecimento global&#13;Previsoes</comment>
								<name>Efeito estufa</name>
								<in>2277</in>
								<out>-1</out>
							</marker>
							<marker>
								<comment>Custo beneficio do uso de energia&#13;Futuro</comment>
								<name>Energia</name>
								<in>16145</in>
								<out>-1</out>
							</marker>
							<marker>
								<comment>Lei da Termodinamica&#13;Nao existe energia limpa&#13;Pegada de carbono&#13;Matriz energetica brasileira&#13;Transiçao energetica&#13;Carvao mineral no RS&#13;Eolica e solar mais barato&#13;Hidreletricas rios e florestas&#13;Transporte mobilidade biocombustivel etanol&#13;Politicas publicas</comment>
								<name>Energia</name>
								<in>19373</in>
								<out>-1</out>
							</marker>
						<link>
							<linkclipref>clipitem-73</linkclipref>
							<mediatype>video</mediatype>
							<trackindex>1</trackindex>
							<clipindex>73</clipindex>
						</link>
						<link>
							<linkclipref>clipitem-204</linkclipref>
							<mediatype>audio</mediatype>
							<trackindex>1</trackindex>
							<clipindex>73</clipindex>
							<groupindex>1</groupindex>
						</link>
						<link>
							<linkclipref>clipitem-302</linkclipref>
							<mediatype>audio</mediatype>
							<trackindex>2</trackindex>
							<clipindex>63</clipindex>
							<groupindex>1</groupindex>
						</link>
						<logginginfo>
							<description></description>
							<scene></scene>
							<shottake></shottake>
							<lognote></lognote>
							<good></good>
							<originalvideofilename></originalvideofilename>
							<originalaudiofilename></originalaudiofilename>
						</logginginfo>
						<colorinfo>
							<lut></lut>
							<lut1></lut1>
							<asc_sop></asc_sop>
							<asc_sat></asc_sat>
							<lut2></lut2>
						</colorinfo>
					</clipitem>
					<clipitem id="clipitem-303" premiereChannelType="stereo">
						<masterclipid>masterclip-8</masterclipid>
						<name>2025-03-20 08-29-14 .mov</name>
						<enabled>TRUE</enabled>
						<duration>42599</duration>
						<rate>
							<timebase>30</timebase>
							<ntsc>TRUE</ntsc>
						</rate>
						<start>29449</start>
						<end>30218</end>
						<in>36990</in>
						<out>37759</out>
						<pproTicksIn>313514929728000</pproTicksIn>
						<pproTicksOut>320032717804800</pproTicksOut>
						<file id="file-8"/>
						<sourcetrack>
							<mediatype>audio</mediatype>
							<trackindex>2</trackindex>
						</sourcetrack>
							<marker>
								<comment>Impacto na economia&#13;Ajuda na enchente do RS&#13;Energia renovavel mais barata&#13;Transiçao energetica&#13;Politicas publicas e investimentos&#13;Convençao do Clima acordo internacional&#13;Futuro</comment>
								<name>Eventos extremos</name>
								<in>34288</in>
								<out>-1</out>
							</marker>
							<marker>
								<comment>Uso de energia apos revoluçao industrial&#13;Combustiveis fosseis&#13;Carvao mineral e petroleo&#13;Desmatamento</comment>
								<name>Efeito estufa</name>
								<in>12078</in>
								<out>-1</out>
							</marker>
							<marker>
								<comment>Explica que nao e cientista nem especialista</comment>
								<name></name>
								<in>400</in>
								<out>-1</out>
							</marker>
							<marker>
								<comment>Gases da atmosfera&#13;Desequilibrio energetico&#13;Aquecimento global&#13;Previsoes</comment>
								<name>Efeito estufa</name>
								<in>2277</in>
								<out>-1</out>
							</marker>
							<marker>
								<comment>Custo beneficio do uso de energia&#13;Futuro</comment>
								<name>Energia</name>
								<in>16145</in>
								<out>-1</out>
							</marker>
							<marker>
								<comment>Lei da Termodinamica&#13;Nao existe energia limpa&#13;Pegada de carbono&#13;Matriz energetica brasileira&#13;Transiçao energetica&#13;Carvao mineral no RS&#13;Eolica e solar mais barato&#13;Hidreletricas rios e florestas&#13;Transporte mobilidade biocombustivel etanol&#13;Politicas publicas</comment>
								<name>Energia</name>
								<in>19373</in>
								<out>-1</out>
							</marker>
						<link>
							<linkclipref>clipitem-74</linkclipref>
							<mediatype>video</mediatype>
							<trackindex>1</trackindex>
							<clipindex>74</clipindex>
						</link>
						<link>
							<linkclipref>clipitem-205</linkclipref>
							<mediatype>audio</mediatype>
							<trackindex>1</trackindex>
							<clipindex>74</clipindex>
							<groupindex>1</groupindex>
						</link>
						<link>
							<linkclipref>clipitem-303</linkclipref>
							<mediatype>audio</mediatype>
							<trackindex>2</trackindex>
							<clipindex>64</clipindex>
							<groupindex>1</groupindex>
						</link>
						<logginginfo>
							<description></description>
							<scene></scene>
							<shottake></shottake>
							<lognote></lognote>
							<good></good>
							<originalvideofilename></originalvideofilename>
							<originalaudiofilename></originalaudiofilename>
						</logginginfo>
						<colorinfo>
							<lut></lut>
							<lut1></lut1>
							<asc_sop></asc_sop>
							<asc_sat></asc_sat>
							<lut2></lut2>
						</colorinfo>
					</clipitem>
					<clipitem id="clipitem-304" premiereChannelType="stereo">
						<masterclipid>masterclip-28</masterclipid>
						<name>250515-T014.WAV</name>
						<enabled>TRUE</enabled>
						<duration>84540</duration>
						<rate>
							<timebase>30</timebase>
							<ntsc>TRUE</ntsc>
						</rate>
						<start>30218</start>
						<end>30638</end>
						<in>23812</in>
						<out>24232</out>
						<pproTicksIn>201822587366400</pproTicksIn>
						<pproTicksOut>205382367590400</pproTicksOut>
						<file id="file-28"/>
						<sourcetrack>
							<mediatype>audio</mediatype>
							<trackindex>2</trackindex>
						</sourcetrack>
						<link>
							<linkclipref>clipitem-206</linkclipref>
							<mediatype>audio</mediatype>
							<trackindex>1</trackindex>
							<clipindex>75</clipindex>
							<groupindex>1</groupindex>
						</link>
						<link>
							<linkclipref>clipitem-304</linkclipref>
							<mediatype>audio</mediatype>
							<trackindex>2</trackindex>
							<clipindex>65</clipindex>
							<groupindex>1</groupindex>
						</link>
						<logginginfo>
							<description></description>
							<scene>250515</scene>
							<shottake></shottake>
							<lognote></lognote>
							<good></good>
							<originalvideofilename></originalvideofilename>
							<originalaudiofilename></originalaudiofilename>
						</logginginfo>
						<colorinfo>
							<lut></lut>
							<lut1></lut1>
							<asc_sop></asc_sop>
							<asc_sat></asc_sat>
							<lut2></lut2>
						</colorinfo>
						<labels>
							<label2>Caribbean</label2>
						</labels>
					</clipitem>
					<clipitem id="clipitem-305" premiereChannelType="stereo">
						<masterclipid>masterclip-8</masterclipid>
						<name>2025-03-20 08-29-14 .mov</name>
						<enabled>TRUE</enabled>
						<duration>42599</duration>
						<rate>
							<timebase>30</timebase>
							<ntsc>TRUE</ntsc>
						</rate>
						<start>30638</start>
						<end>30962</end>
						<in>28884</in>
						<out>29208</out>
						<pproTicksIn>244811171404800</pproTicksIn>
						<pproTicksOut>247557287577600</pproTicksOut>
						<file id="file-8"/>
						<sourcetrack>
							<mediatype>audio</mediatype>
							<trackindex>2</trackindex>
						</sourcetrack>
							<marker>
								<comment>Impacto na economia&#13;Ajuda na enchente do RS&#13;Energia renovavel mais barata&#13;Transiçao energetica&#13;Politicas publicas e investimentos&#13;Convençao do Clima acordo internacional&#13;Futuro</comment>
								<name>Eventos extremos</name>
								<in>34288</in>
								<out>-1</out>
							</marker>
							<marker>
								<comment>Uso de energia apos revoluçao industrial&#13;Combustiveis fosseis&#13;Carvao mineral e petroleo&#13;Desmatamento</comment>
								<name>Efeito estufa</name>
								<in>12078</in>
								<out>-1</out>
							</marker>
							<marker>
								<comment>Explica que nao e cientista nem especialista</comment>
								<name></name>
								<in>400</in>
								<out>-1</out>
							</marker>
							<marker>
								<comment>Gases da atmosfera&#13;Desequilibrio energetico&#13;Aquecimento global&#13;Previsoes</comment>
								<name>Efeito estufa</name>
								<in>2277</in>
								<out>-1</out>
							</marker>
							<marker>
								<comment>Custo beneficio do uso de energia&#13;Futuro</comment>
								<name>Energia</name>
								<in>16145</in>
								<out>-1</out>
							</marker>
							<marker>
								<comment>Lei da Termodinamica&#13;Nao existe energia limpa&#13;Pegada de carbono&#13;Matriz energetica brasileira&#13;Transiçao energetica&#13;Carvao mineral no RS&#13;Eolica e solar mais barato&#13;Hidreletricas rios e florestas&#13;Transporte mobilidade biocombustivel etanol&#13;Politicas publicas</comment>
								<name>Energia</name>
								<in>19373</in>
								<out>-1</out>
							</marker>
						<link>
							<linkclipref>clipitem-76</linkclipref>
							<mediatype>video</mediatype>
							<trackindex>1</trackindex>
							<clipindex>76</clipindex>
						</link>
						<link>
							<linkclipref>clipitem-207</linkclipref>
							<mediatype>audio</mediatype>
							<trackindex>1</trackindex>
							<clipindex>76</clipindex>
							<groupindex>1</groupindex>
						</link>
						<link>
							<linkclipref>clipitem-305</linkclipref>
							<mediatype>audio</mediatype>
							<trackindex>2</trackindex>
							<clipindex>66</clipindex>
							<groupindex>1</groupindex>
						</link>
						<logginginfo>
							<description></description>
							<scene></scene>
							<shottake></shottake>
							<lognote></lognote>
							<good></good>
							<originalvideofilename></originalvideofilename>
							<originalaudiofilename></originalaudiofilename>
						</logginginfo>
						<colorinfo>
							<lut></lut>
							<lut1></lut1>
							<asc_sop></asc_sop>
							<asc_sat></asc_sat>
							<lut2></lut2>
						</colorinfo>
					</clipitem>
					<clipitem id="clipitem-306" premiereChannelType="stereo">
						<masterclipid>masterclip-8</masterclipid>
						<name>2025-03-20 08-29-14 .mov</name>
						<enabled>TRUE</enabled>
						<duration>42599</duration>
						<rate>
							<timebase>30</timebase>
							<ntsc>TRUE</ntsc>
						</rate>
						<start>30962</start>
						<end>32552</end>
						<in>30020</in>
						<out>31610</out>
						<pproTicksIn>254439529344000</pproTicksIn>
						<pproTicksOut>267915840192000</pproTicksOut>
						<file id="file-8"/>
						<sourcetrack>
							<mediatype>audio</mediatype>
							<trackindex>2</trackindex>
						</sourcetrack>
							<marker>
								<comment>Impacto na economia&#13;Ajuda na enchente do RS&#13;Energia renovavel mais barata&#13;Transiçao energetica&#13;Politicas publicas e investimentos&#13;Convençao do Clima acordo internacional&#13;Futuro</comment>
								<name>Eventos extremos</name>
								<in>34288</in>
								<out>-1</out>
							</marker>
							<marker>
								<comment>Uso de energia apos revoluçao industrial&#13;Combustiveis fosseis&#13;Carvao mineral e petroleo&#13;Desmatamento</comment>
								<name>Efeito estufa</name>
								<in>12078</in>
								<out>-1</out>
							</marker>
							<marker>
								<comment>Explica que nao e cientista nem especialista</comment>
								<name></name>
								<in>400</in>
								<out>-1</out>
							</marker>
							<marker>
								<comment>Gases da atmosfera&#13;Desequilibrio energetico&#13;Aquecimento global&#13;Previsoes</comment>
								<name>Efeito estufa</name>
								<in>2277</in>
								<out>-1</out>
							</marker>
							<marker>
								<comment>Custo beneficio do uso de energia&#13;Futuro</comment>
								<name>Energia</name>
								<in>16145</in>
								<out>-1</out>
							</marker>
							<marker>
								<comment>Lei da Termodinamica&#13;Nao existe energia limpa&#13;Pegada de carbono&#13;Matriz energetica brasileira&#13;Transiçao energetica&#13;Carvao mineral no RS&#13;Eolica e solar mais barato&#13;Hidreletricas rios e florestas&#13;Transporte mobilidade biocombustivel etanol&#13;Politicas publicas</comment>
								<name>Energia</name>
								<in>19373</in>
								<out>-1</out>
							</marker>
						<link>
							<linkclipref>clipitem-77</linkclipref>
							<mediatype>video</mediatype>
							<trackindex>1</trackindex>
							<clipindex>77</clipindex>
						</link>
						<link>
							<linkclipref>clipitem-208</linkclipref>
							<mediatype>audio</mediatype>
							<trackindex>1</trackindex>
							<clipindex>77</clipindex>
							<groupindex>1</groupindex>
						</link>
						<link>
							<linkclipref>clipitem-306</linkclipref>
							<mediatype>audio</mediatype>
							<trackindex>2</trackindex>
							<clipindex>67</clipindex>
							<groupindex>1</groupindex>
						</link>
						<logginginfo>
							<description></description>
							<scene></scene>
							<shottake></shottake>
							<lognote></lognote>
							<good></good>
							<originalvideofilename></originalvideofilename>
							<originalaudiofilename></originalaudiofilename>
						</logginginfo>
						<colorinfo>
							<lut></lut>
							<lut1></lut1>
							<asc_sop></asc_sop>
							<asc_sat></asc_sat>
							<lut2></lut2>
						</colorinfo>
					</clipitem>
					<clipitem id="clipitem-307" premiereChannelType="stereo">
						<masterclipid>masterclip-30</masterclipid>
						<name>250430-T003.WAV</name>
						<enabled>TRUE</enabled>
						<duration>76170</duration>
						<rate>
							<timebase>30</timebase>
							<ntsc>TRUE</ntsc>
						</rate>
						<start>32552</start>
						<end>32861</end>
						<in>4410</in>
						<out>4719</out>
						<pproTicksIn>37377692352000</pproTicksIn>
						<pproTicksOut>39996673516800</pproTicksOut>
						<file id="file-30"/>
						<sourcetrack>
							<mediatype>audio</mediatype>
							<trackindex>2</trackindex>
						</sourcetrack>
						<link>
							<linkclipref>clipitem-209</linkclipref>
							<mediatype>audio</mediatype>
							<trackindex>1</trackindex>
							<clipindex>78</clipindex>
							<groupindex>1</groupindex>
						</link>
						<link>
							<linkclipref>clipitem-307</linkclipref>
							<mediatype>audio</mediatype>
							<trackindex>2</trackindex>
							<clipindex>68</clipindex>
							<groupindex>1</groupindex>
						</link>
						<logginginfo>
							<description></description>
							<scene>250430</scene>
							<shottake></shottake>
							<lognote></lognote>
							<good></good>
							<originalvideofilename></originalvideofilename>
							<originalaudiofilename></originalaudiofilename>
						</logginginfo>
						<colorinfo>
							<lut></lut>
							<lut1></lut1>
							<asc_sop></asc_sop>
							<asc_sat></asc_sat>
							<lut2></lut2>
						</colorinfo>
					</clipitem>
					<clipitem id="clipitem-308" premiereChannelType="stereo">
						<masterclipid>masterclip-30</masterclipid>
						<name>250430-T003.WAV</name>
						<enabled>TRUE</enabled>
						<duration>76170</duration>
						<rate>
							<timebase>30</timebase>
							<ntsc>TRUE</ntsc>
						</rate>
						<start>32861</start>
						<end>33141</end>
						<in>4784</in>
						<out>5064</out>
						<pproTicksIn>40547591884800</pproTicksIn>
						<pproTicksOut>42920778700800</pproTicksOut>
						<file id="file-30"/>
						<sourcetrack>
							<mediatype>audio</mediatype>
							<trackindex>2</trackindex>
						</sourcetrack>
						<link>
							<linkclipref>clipitem-210</linkclipref>
							<mediatype>audio</mediatype>
							<trackindex>1</trackindex>
							<clipindex>79</clipindex>
							<groupindex>1</groupindex>
						</link>
						<link>
							<linkclipref>clipitem-308</linkclipref>
							<mediatype>audio</mediatype>
							<trackindex>2</trackindex>
							<clipindex>69</clipindex>
							<groupindex>1</groupindex>
						</link>
						<logginginfo>
							<description></description>
							<scene>250430</scene>
							<shottake></shottake>
							<lognote></lognote>
							<good></good>
							<originalvideofilename></originalvideofilename>
							<originalaudiofilename></originalaudiofilename>
						</logginginfo>
						<colorinfo>
							<lut></lut>
							<lut1></lut1>
							<asc_sop></asc_sop>
							<asc_sat></asc_sat>
							<lut2></lut2>
						</colorinfo>
					</clipitem>
					<clipitem id="clipitem-309" premiereChannelType="stereo">
						<masterclipid>masterclip-28</masterclipid>
						<name>250515-T014.WAV</name>
						<enabled>TRUE</enabled>
						<duration>84540</duration>
						<rate>
							<timebase>30</timebase>
							<ntsc>TRUE</ntsc>
						</rate>
						<start>33141</start>
						<end>33244</end>
						<in>25369</in>
						<out>25472</out>
						<pproTicksIn>215019201196800</pproTicksIn>
						<pproTicksOut>215892194918400</pproTicksOut>
						<file id="file-28"/>
						<sourcetrack>
							<mediatype>audio</mediatype>
							<trackindex>2</trackindex>
						</sourcetrack>
						<link>
							<linkclipref>clipitem-211</linkclipref>
							<mediatype>audio</mediatype>
							<trackindex>1</trackindex>
							<clipindex>80</clipindex>
							<groupindex>1</groupindex>
						</link>
						<link>
							<linkclipref>clipitem-309</linkclipref>
							<mediatype>audio</mediatype>
							<trackindex>2</trackindex>
							<clipindex>70</clipindex>
							<groupindex>1</groupindex>
						</link>
						<logginginfo>
							<description></description>
							<scene>250515</scene>
							<shottake></shottake>
							<lognote></lognote>
							<good></good>
							<originalvideofilename></originalvideofilename>
							<originalaudiofilename></originalaudiofilename>
						</logginginfo>
						<colorinfo>
							<lut></lut>
							<lut1></lut1>
							<asc_sop></asc_sop>
							<asc_sat></asc_sat>
							<lut2></lut2>
						</colorinfo>
						<labels>
							<label2>Caribbean</label2>
						</labels>
					</clipitem>
					<clipitem id="clipitem-310" premiereChannelType="stereo">
						<masterclipid>masterclip-28</masterclipid>
						<name>250515-T014.WAV</name>
						<enabled>TRUE</enabled>
						<duration>84540</duration>
						<rate>
							<timebase>30</timebase>
							<ntsc>TRUE</ntsc>
						</rate>
						<start>33244</start>
						<end>33606</end>
						<in>25598</in>
						<out>25960</out>
						<pproTicksIn>216960128985600</pproTicksIn>
						<pproTicksOut>220028320512000</pproTicksOut>
						<file id="file-28"/>
						<sourcetrack>
							<mediatype>audio</mediatype>
							<trackindex>2</trackindex>
						</sourcetrack>
						<link>
							<linkclipref>clipitem-212</linkclipref>
							<mediatype>audio</mediatype>
							<trackindex>1</trackindex>
							<clipindex>81</clipindex>
							<groupindex>1</groupindex>
						</link>
						<link>
							<linkclipref>clipitem-310</linkclipref>
							<mediatype>audio</mediatype>
							<trackindex>2</trackindex>
							<clipindex>71</clipindex>
							<groupindex>1</groupindex>
						</link>
						<logginginfo>
							<description></description>
							<scene>250515</scene>
							<shottake></shottake>
							<lognote></lognote>
							<good></good>
							<originalvideofilename></originalvideofilename>
							<originalaudiofilename></originalaudiofilename>
						</logginginfo>
						<colorinfo>
							<lut></lut>
							<lut1></lut1>
							<asc_sop></asc_sop>
							<asc_sat></asc_sat>
							<lut2></lut2>
						</colorinfo>
						<labels>
							<label2>Caribbean</label2>
						</labels>
					</clipitem>
					<clipitem id="clipitem-311" premiereChannelType="stereo">
						<masterclipid>masterclip-8</masterclipid>
						<name>2025-03-20 08-29-14 .mov</name>
						<enabled>TRUE</enabled>
						<duration>42599</duration>
						<rate>
							<timebase>30</timebase>
							<ntsc>TRUE</ntsc>
						</rate>
						<start>33606</start>
						<end>34099</end>
						<in>25107</in>
						<out>25600</out>
						<pproTicksIn>212798576390400</pproTicksIn>
						<pproTicksOut>216977080320000</pproTicksOut>
						<file id="file-8"/>
						<sourcetrack>
							<mediatype>audio</mediatype>
							<trackindex>2</trackindex>
						</sourcetrack>
							<marker>
								<comment>Impacto na economia&#13;Ajuda na enchente do RS&#13;Energia renovavel mais barata&#13;Transiçao energetica&#13;Politicas publicas e investimentos&#13;Convençao do Clima acordo internacional&#13;Futuro</comment>
								<name>Eventos extremos</name>
								<in>34288</in>
								<out>-1</out>
							</marker>
							<marker>
								<comment>Uso de energia apos revoluçao industrial&#13;Combustiveis fosseis&#13;Carvao mineral e petroleo&#13;Desmatamento</comment>
								<name>Efeito estufa</name>
								<in>12078</in>
								<out>-1</out>
							</marker>
							<marker>
								<comment>Explica que nao e cientista nem especialista</comment>
								<name></name>
								<in>400</in>
								<out>-1</out>
							</marker>
							<marker>
								<comment>Gases da atmosfera&#13;Desequilibrio energetico&#13;Aquecimento global&#13;Previsoes</comment>
								<name>Efeito estufa</name>
								<in>2277</in>
								<out>-1</out>
							</marker>
							<marker>
								<comment>Custo beneficio do uso de energia&#13;Futuro</comment>
								<name>Energia</name>
								<in>16145</in>
								<out>-1</out>
							</marker>
							<marker>
								<comment>Lei da Termodinamica&#13;Nao existe energia limpa&#13;Pegada de carbono&#13;Matriz energetica brasileira&#13;Transiçao energetica&#13;Carvao mineral no RS&#13;Eolica e solar mais barato&#13;Hidreletricas rios e florestas&#13;Transporte mobilidade biocombustivel etanol&#13;Politicas publicas</comment>
								<name>Energia</name>
								<in>19373</in>
								<out>-1</out>
							</marker>
						<link>
							<linkclipref>clipitem-82</linkclipref>
							<mediatype>video</mediatype>
							<trackindex>1</trackindex>
							<clipindex>82</clipindex>
						</link>
						<link>
							<linkclipref>clipitem-213</linkclipref>
							<mediatype>audio</mediatype>
							<trackindex>1</trackindex>
							<clipindex>82</clipindex>
							<groupindex>1</groupindex>
						</link>
						<link>
							<linkclipref>clipitem-311</linkclipref>
							<mediatype>audio</mediatype>
							<trackindex>2</trackindex>
							<clipindex>72</clipindex>
							<groupindex>1</groupindex>
						</link>
						<logginginfo>
							<description></description>
							<scene></scene>
							<shottake></shottake>
							<lognote></lognote>
							<good></good>
							<originalvideofilename></originalvideofilename>
							<originalaudiofilename></originalaudiofilename>
						</logginginfo>
						<colorinfo>
							<lut></lut>
							<lut1></lut1>
							<asc_sop></asc_sop>
							<asc_sat></asc_sat>
							<lut2></lut2>
						</colorinfo>
					</clipitem>
					<clipitem id="clipitem-312" premiereChannelType="stereo">
						<masterclipid>masterclip-8</masterclipid>
						<name>2025-03-20 08-29-14 .mov</name>
						<enabled>TRUE</enabled>
						<duration>42599</duration>
						<rate>
							<timebase>30</timebase>
							<ntsc>TRUE</ntsc>
						</rate>
						<start>34099</start>
						<end>34895</end>
						<in>25600</in>
						<out>26396</out>
						<pproTicksIn>216977080320000</pproTicksIn>
						<pproTicksOut>223723711411200</pproTicksOut>
						<file id="file-8"/>
						<sourcetrack>
							<mediatype>audio</mediatype>
							<trackindex>2</trackindex>
						</sourcetrack>
							<marker>
								<comment>Impacto na economia&#13;Ajuda na enchente do RS&#13;Energia renovavel mais barata&#13;Transiçao energetica&#13;Politicas publicas e investimentos&#13;Convençao do Clima acordo internacional&#13;Futuro</comment>
								<name>Eventos extremos</name>
								<in>34288</in>
								<out>-1</out>
							</marker>
							<marker>
								<comment>Uso de energia apos revoluçao industrial&#13;Combustiveis fosseis&#13;Carvao mineral e petroleo&#13;Desmatamento</comment>
								<name>Efeito estufa</name>
								<in>12078</in>
								<out>-1</out>
							</marker>
							<marker>
								<comment>Explica que nao e cientista nem especialista</comment>
								<name></name>
								<in>400</in>
								<out>-1</out>
							</marker>
							<marker>
								<comment>Gases da atmosfera&#13;Desequilibrio energetico&#13;Aquecimento global&#13;Previsoes</comment>
								<name>Efeito estufa</name>
								<in>2277</in>
								<out>-1</out>
							</marker>
							<marker>
								<comment>Custo beneficio do uso de energia&#13;Futuro</comment>
								<name>Energia</name>
								<in>16145</in>
								<out>-1</out>
							</marker>
							<marker>
								<comment>Lei da Termodinamica&#13;Nao existe energia limpa&#13;Pegada de carbono&#13;Matriz energetica brasileira&#13;Transiçao energetica&#13;Carvao mineral no RS&#13;Eolica e solar mais barato&#13;Hidreletricas rios e florestas&#13;Transporte mobilidade biocombustivel etanol&#13;Politicas publicas</comment>
								<name>Energia</name>
								<in>19373</in>
								<out>-1</out>
							</marker>
						<link>
							<linkclipref>clipitem-83</linkclipref>
							<mediatype>video</mediatype>
							<trackindex>1</trackindex>
							<clipindex>83</clipindex>
						</link>
						<link>
							<linkclipref>clipitem-214</linkclipref>
							<mediatype>audio</mediatype>
							<trackindex>1</trackindex>
							<clipindex>83</clipindex>
							<groupindex>1</groupindex>
						</link>
						<link>
							<linkclipref>clipitem-312</linkclipref>
							<mediatype>audio</mediatype>
							<trackindex>2</trackindex>
							<clipindex>73</clipindex>
							<groupindex>1</groupindex>
						</link>
						<logginginfo>
							<description></description>
							<scene></scene>
							<shottake></shottake>
							<lognote></lognote>
							<good></good>
							<originalvideofilename></originalvideofilename>
							<originalaudiofilename></originalaudiofilename>
						</logginginfo>
						<colorinfo>
							<lut></lut>
							<lut1></lut1>
							<asc_sop></asc_sop>
							<asc_sat></asc_sat>
							<lut2></lut2>
						</colorinfo>
					</clipitem>
					<clipitem id="clipitem-313" premiereChannelType="stereo">
						<masterclipid>masterclip-30</masterclipid>
						<name>250430-T003.WAV</name>
						<enabled>TRUE</enabled>
						<duration>76170</duration>
						<rate>
							<timebase>30</timebase>
							<ntsc>TRUE</ntsc>
						</rate>
						<start>34895</start>
						<end>35047</end>
						<in>6625</in>
						<out>6777</out>
						<pproTicksIn>56151295200000</pproTicksIn>
						<pproTicksOut>57439596614400</pproTicksOut>
						<file id="file-30"/>
						<sourcetrack>
							<mediatype>audio</mediatype>
							<trackindex>2</trackindex>
						</sourcetrack>
						<link>
							<linkclipref>clipitem-215</linkclipref>
							<mediatype>audio</mediatype>
							<trackindex>1</trackindex>
							<clipindex>84</clipindex>
							<groupindex>1</groupindex>
						</link>
						<link>
							<linkclipref>clipitem-313</linkclipref>
							<mediatype>audio</mediatype>
							<trackindex>2</trackindex>
							<clipindex>74</clipindex>
							<groupindex>1</groupindex>
						</link>
						<logginginfo>
							<description></description>
							<scene>250430</scene>
							<shottake></shottake>
							<lognote></lognote>
							<good></good>
							<originalvideofilename></originalvideofilename>
							<originalaudiofilename></originalaudiofilename>
						</logginginfo>
						<colorinfo>
							<lut></lut>
							<lut1></lut1>
							<asc_sop></asc_sop>
							<asc_sat></asc_sat>
							<lut2></lut2>
						</colorinfo>
					</clipitem>
					<clipitem id="clipitem-314" premiereChannelType="stereo">
						<masterclipid>masterclip-30</masterclipid>
						<name>250430-T003.WAV</name>
						<enabled>TRUE</enabled>
						<duration>76170</duration>
						<rate>
							<timebase>30</timebase>
							<ntsc>TRUE</ntsc>
						</rate>
						<start>35047</start>
						<end>35618</end>
						<in>7910</in>
						<out>8481</out>
						<pproTicksIn>67042527552000</pproTicksIn>
						<pproTicksOut>71882133523200</pproTicksOut>
						<file id="file-30"/>
						<sourcetrack>
							<mediatype>audio</mediatype>
							<trackindex>2</trackindex>
						</sourcetrack>
						<link>
							<linkclipref>clipitem-216</linkclipref>
							<mediatype>audio</mediatype>
							<trackindex>1</trackindex>
							<clipindex>85</clipindex>
							<groupindex>1</groupindex>
						</link>
						<link>
							<linkclipref>clipitem-314</linkclipref>
							<mediatype>audio</mediatype>
							<trackindex>2</trackindex>
							<clipindex>75</clipindex>
							<groupindex>1</groupindex>
						</link>
						<logginginfo>
							<description></description>
							<scene>250430</scene>
							<shottake></shottake>
							<lognote></lognote>
							<good></good>
							<originalvideofilename></originalvideofilename>
							<originalaudiofilename></originalaudiofilename>
						</logginginfo>
						<colorinfo>
							<lut></lut>
							<lut1></lut1>
							<asc_sop></asc_sop>
							<asc_sat></asc_sat>
							<lut2></lut2>
						</colorinfo>
					</clipitem>
					<clipitem id="clipitem-315" premiereChannelType="stereo">
						<masterclipid>masterclip-30</masterclipid>
						<name>250430-T003.WAV</name>
						<enabled>TRUE</enabled>
						<duration>76170</duration>
						<rate>
							<timebase>30</timebase>
							<ntsc>TRUE</ntsc>
						</rate>
						<start>35618</start>
						<end>35970</end>
						<in>9137</in>
						<out>9489</out>
						<pproTicksIn>77442171206400</pproTicksIn>
						<pproTicksOut>80425606060800</pproTicksOut>
						<file id="file-30"/>
						<sourcetrack>
							<mediatype>audio</mediatype>
							<trackindex>2</trackindex>
						</sourcetrack>
						<link>
							<linkclipref>clipitem-217</linkclipref>
							<mediatype>audio</mediatype>
							<trackindex>1</trackindex>
							<clipindex>86</clipindex>
							<groupindex>1</groupindex>
						</link>
						<link>
							<linkclipref>clipitem-315</linkclipref>
							<mediatype>audio</mediatype>
							<trackindex>2</trackindex>
							<clipindex>76</clipindex>
							<groupindex>1</groupindex>
						</link>
						<logginginfo>
							<description></description>
							<scene>250430</scene>
							<shottake></shottake>
							<lognote></lognote>
							<good></good>
							<originalvideofilename></originalvideofilename>
							<originalaudiofilename></originalaudiofilename>
						</logginginfo>
						<colorinfo>
							<lut></lut>
							<lut1></lut1>
							<asc_sop></asc_sop>
							<asc_sat></asc_sat>
							<lut2></lut2>
						</colorinfo>
					</clipitem>
					<clipitem id="clipitem-316" premiereChannelType="stereo">
						<masterclipid>masterclip-30</masterclipid>
						<name>250430-T003.WAV</name>
						<enabled>TRUE</enabled>
						<duration>76170</duration>
						<rate>
							<timebase>30</timebase>
							<ntsc>TRUE</ntsc>
						</rate>
						<start>35970</start>
						<end>36184</end>
						<in>10119</in>
						<out>10333</out>
						<pproTicksIn>85765276396800</pproTicksIn>
						<pproTicksOut>87579069177600</pproTicksOut>
						<file id="file-30"/>
						<sourcetrack>
							<mediatype>audio</mediatype>
							<trackindex>2</trackindex>
						</sourcetrack>
						<link>
							<linkclipref>clipitem-218</linkclipref>
							<mediatype>audio</mediatype>
							<trackindex>1</trackindex>
							<clipindex>87</clipindex>
							<groupindex>1</groupindex>
						</link>
						<link>
							<linkclipref>clipitem-316</linkclipref>
							<mediatype>audio</mediatype>
							<trackindex>2</trackindex>
							<clipindex>77</clipindex>
							<groupindex>1</groupindex>
						</link>
						<logginginfo>
							<description></description>
							<scene>250430</scene>
							<shottake></shottake>
							<lognote></lognote>
							<good></good>
							<originalvideofilename></originalvideofilename>
							<originalaudiofilename></originalaudiofilename>
						</logginginfo>
						<colorinfo>
							<lut></lut>
							<lut1></lut1>
							<asc_sop></asc_sop>
							<asc_sat></asc_sat>
							<lut2></lut2>
						</colorinfo>
					</clipitem>
					<clipitem id="clipitem-317" premiereChannelType="stereo">
						<masterclipid>masterclip-32</masterclipid>
						<name>250515-T001.WAV</name>
						<enabled>TRUE</enabled>
						<duration>88650</duration>
						<rate>
							<timebase>30</timebase>
							<ntsc>TRUE</ntsc>
						</rate>
						<start>36184</start>
						<end>36859</end>
						<in>67591</in>
						<out>68266</out>
						<pproTicksIn>572878821715200</pproTicksIn>
						<pproTicksOut>578599897075200</pproTicksOut>
						<file id="file-32"/>
						<sourcetrack>
							<mediatype>audio</mediatype>
							<trackindex>2</trackindex>
						</sourcetrack>
						<link>
							<linkclipref>clipitem-219</linkclipref>
							<mediatype>audio</mediatype>
							<trackindex>1</trackindex>
							<clipindex>88</clipindex>
							<groupindex>1</groupindex>
						</link>
						<link>
							<linkclipref>clipitem-317</linkclipref>
							<mediatype>audio</mediatype>
							<trackindex>2</trackindex>
							<clipindex>78</clipindex>
							<groupindex>1</groupindex>
						</link>
						<logginginfo>
							<description></description>
							<scene>250515</scene>
							<shottake></shottake>
							<lognote></lognote>
							<good></good>
							<originalvideofilename></originalvideofilename>
							<originalaudiofilename></originalaudiofilename>
						</logginginfo>
						<colorinfo>
							<lut></lut>
							<lut1></lut1>
							<asc_sop></asc_sop>
							<asc_sat></asc_sat>
							<lut2></lut2>
						</colorinfo>
						<labels>
							<label2>Caribbean</label2>
						</labels>
					</clipitem>
					<clipitem id="clipitem-318" premiereChannelType="stereo">
						<masterclipid>masterclip-32</masterclipid>
						<name>250515-T001.WAV</name>
						<enabled>TRUE</enabled>
						<duration>88650</duration>
						<rate>
							<timebase>30</timebase>
							<ntsc>TRUE</ntsc>
						</rate>
						<start>36859</start>
						<end>37207</end>
						<in>69133</in>
						<out>69481</out>
						<pproTicksIn>585948300537600</pproTicksIn>
						<pproTicksOut>588897832723200</pproTicksOut>
						<file id="file-32"/>
						<sourcetrack>
							<mediatype>audio</mediatype>
							<trackindex>2</trackindex>
						</sourcetrack>
						<link>
							<linkclipref>clipitem-220</linkclipref>
							<mediatype>audio</mediatype>
							<trackindex>1</trackindex>
							<clipindex>89</clipindex>
							<groupindex>1</groupindex>
						</link>
						<link>
							<linkclipref>clipitem-318</linkclipref>
							<mediatype>audio</mediatype>
							<trackindex>2</trackindex>
							<clipindex>79</clipindex>
							<groupindex>1</groupindex>
						</link>
						<logginginfo>
							<description></description>
							<scene>250515</scene>
							<shottake></shottake>
							<lognote></lognote>
							<good></good>
							<originalvideofilename></originalvideofilename>
							<originalaudiofilename></originalaudiofilename>
						</logginginfo>
						<colorinfo>
							<lut></lut>
							<lut1></lut1>
							<asc_sop></asc_sop>
							<asc_sat></asc_sat>
							<lut2></lut2>
						</colorinfo>
						<labels>
							<label2>Caribbean</label2>
						</labels>
					</clipitem>
					<clipitem id="clipitem-319" premiereChannelType="stereo">
						<masterclipid>masterclip-8</masterclipid>
						<name>2025-03-20 08-29-14 .mov</name>
						<enabled>TRUE</enabled>
						<duration>42599</duration>
						<rate>
							<timebase>30</timebase>
							<ntsc>TRUE</ntsc>
						</rate>
						<start>37207</start>
						<end>37923</end>
						<in>27182</in>
						<out>27898</out>
						<pproTicksIn>230385585830400</pproTicksIn>
						<pproTicksOut>236454163545600</pproTicksOut>
						<file id="file-8"/>
						<sourcetrack>
							<mediatype>audio</mediatype>
							<trackindex>2</trackindex>
						</sourcetrack>
							<marker>
								<comment>Impacto na economia&#13;Ajuda na enchente do RS&#13;Energia renovavel mais barata&#13;Transiçao energetica&#13;Politicas publicas e investimentos&#13;Convençao do Clima acordo internacional&#13;Futuro</comment>
								<name>Eventos extremos</name>
								<in>34288</in>
								<out>-1</out>
							</marker>
							<marker>
								<comment>Uso de energia apos revoluçao industrial&#13;Combustiveis fosseis&#13;Carvao mineral e petroleo&#13;Desmatamento</comment>
								<name>Efeito estufa</name>
								<in>12078</in>
								<out>-1</out>
							</marker>
							<marker>
								<comment>Explica que nao e cientista nem especialista</comment>
								<name></name>
								<in>400</in>
								<out>-1</out>
							</marker>
							<marker>
								<comment>Gases da atmosfera&#13;Desequilibrio energetico&#13;Aquecimento global&#13;Previsoes</comment>
								<name>Efeito estufa</name>
								<in>2277</in>
								<out>-1</out>
							</marker>
							<marker>
								<comment>Custo beneficio do uso de energia&#13;Futuro</comment>
								<name>Energia</name>
								<in>16145</in>
								<out>-1</out>
							</marker>
							<marker>
								<comment>Lei da Termodinamica&#13;Nao existe energia limpa&#13;Pegada de carbono&#13;Matriz energetica brasileira&#13;Transiçao energetica&#13;Carvao mineral no RS&#13;Eolica e solar mais barato&#13;Hidreletricas rios e florestas&#13;Transporte mobilidade biocombustivel etanol&#13;Politicas publicas</comment>
								<name>Energia</name>
								<in>19373</in>
								<out>-1</out>
							</marker>
						<link>
							<linkclipref>clipitem-90</linkclipref>
							<mediatype>video</mediatype>
							<trackindex>1</trackindex>
							<clipindex>90</clipindex>
						</link>
						<link>
							<linkclipref>clipitem-221</linkclipref>
							<mediatype>audio</mediatype>
							<trackindex>1</trackindex>
							<clipindex>90</clipindex>
							<groupindex>1</groupindex>
						</link>
						<link>
							<linkclipref>clipitem-319</linkclipref>
							<mediatype>audio</mediatype>
							<trackindex>2</trackindex>
							<clipindex>80</clipindex>
							<groupindex>1</groupindex>
						</link>
						<logginginfo>
							<description></description>
							<scene></scene>
							<shottake></shottake>
							<lognote></lognote>
							<good></good>
							<originalvideofilename></originalvideofilename>
							<originalaudiofilename></originalaudiofilename>
						</logginginfo>
						<colorinfo>
							<lut></lut>
							<lut1></lut1>
							<asc_sop></asc_sop>
							<asc_sat></asc_sat>
							<lut2></lut2>
						</colorinfo>
					</clipitem>
					<clipitem id="clipitem-320" premiereChannelType="stereo">
						<masterclipid>masterclip-30</masterclipid>
						<name>250430-T003.WAV</name>
						<enabled>TRUE</enabled>
						<duration>76170</duration>
						<rate>
							<timebase>30</timebase>
							<ntsc>TRUE</ntsc>
						</rate>
						<start>37923</start>
						<end>38380</end>
						<in>27436</in>
						<out>27893</out>
						<pproTicksIn>232538405299200</pproTicksIn>
						<pproTicksOut>236411785209600</pproTicksOut>
						<file id="file-30"/>
						<sourcetrack>
							<mediatype>audio</mediatype>
							<trackindex>2</trackindex>
						</sourcetrack>
						<link>
							<linkclipref>clipitem-222</linkclipref>
							<mediatype>audio</mediatype>
							<trackindex>1</trackindex>
							<clipindex>91</clipindex>
							<groupindex>1</groupindex>
						</link>
						<link>
							<linkclipref>clipitem-320</linkclipref>
							<mediatype>audio</mediatype>
							<trackindex>2</trackindex>
							<clipindex>81</clipindex>
							<groupindex>1</groupindex>
						</link>
						<logginginfo>
							<description></description>
							<scene>250430</scene>
							<shottake></shottake>
							<lognote></lognote>
							<good></good>
							<originalvideofilename></originalvideofilename>
							<originalaudiofilename></originalaudiofilename>
						</logginginfo>
						<colorinfo>
							<lut></lut>
							<lut1></lut1>
							<asc_sop></asc_sop>
							<asc_sat></asc_sat>
							<lut2></lut2>
						</colorinfo>
					</clipitem>
					<clipitem id="clipitem-321" premiereChannelType="stereo">
						<masterclipid>masterclip-30</masterclipid>
						<name>250430-T003.WAV</name>
						<enabled>TRUE</enabled>
						<duration>76170</duration>
						<rate>
							<timebase>30</timebase>
							<ntsc>TRUE</ntsc>
						</rate>
						<start>38380</start>
						<end>38804</end>
						<in>28172</in>
						<out>28596</out>
						<pproTicksIn>238776496358400</pproTicksIn>
						<pproTicksOut>242370179251200</pproTicksOut>
						<file id="file-30"/>
						<sourcetrack>
							<mediatype>audio</mediatype>
							<trackindex>2</trackindex>
						</sourcetrack>
						<link>
							<linkclipref>clipitem-223</linkclipref>
							<mediatype>audio</mediatype>
							<trackindex>1</trackindex>
							<clipindex>92</clipindex>
							<groupindex>1</groupindex>
						</link>
						<link>
							<linkclipref>clipitem-321</linkclipref>
							<mediatype>audio</mediatype>
							<trackindex>2</trackindex>
							<clipindex>82</clipindex>
							<groupindex>1</groupindex>
						</link>
						<logginginfo>
							<description></description>
							<scene>250430</scene>
							<shottake></shottake>
							<lognote></lognote>
							<good></good>
							<originalvideofilename></originalvideofilename>
							<originalaudiofilename></originalaudiofilename>
						</logginginfo>
						<colorinfo>
							<lut></lut>
							<lut1></lut1>
							<asc_sop></asc_sop>
							<asc_sat></asc_sat>
							<lut2></lut2>
						</colorinfo>
					</clipitem>
					<clipitem id="clipitem-322" premiereChannelType="stereo">
						<masterclipid>masterclip-32</masterclipid>
						<name>250515-T001.WAV</name>
						<enabled>TRUE</enabled>
						<duration>88650</duration>
						<rate>
							<timebase>30</timebase>
							<ntsc>TRUE</ntsc>
						</rate>
						<start>38804</start>
						<end>39206</end>
						<in>72860</in>
						<out>73262</out>
						<pproTicksIn>617537112192000</pproTicksIn>
						<pproTicksOut>620944330406400</pproTicksOut>
						<file id="file-32"/>
						<sourcetrack>
							<mediatype>audio</mediatype>
							<trackindex>2</trackindex>
						</sourcetrack>
						<link>
							<linkclipref>clipitem-224</linkclipref>
							<mediatype>audio</mediatype>
							<trackindex>1</trackindex>
							<clipindex>93</clipindex>
							<groupindex>1</groupindex>
						</link>
						<link>
							<linkclipref>clipitem-322</linkclipref>
							<mediatype>audio</mediatype>
							<trackindex>2</trackindex>
							<clipindex>83</clipindex>
							<groupindex>1</groupindex>
						</link>
						<logginginfo>
							<description></description>
							<scene>250515</scene>
							<shottake></shottake>
							<lognote></lognote>
							<good></good>
							<originalvideofilename></originalvideofilename>
							<originalaudiofilename></originalaudiofilename>
						</logginginfo>
						<colorinfo>
							<lut></lut>
							<lut1></lut1>
							<asc_sop></asc_sop>
							<asc_sat></asc_sat>
							<lut2></lut2>
						</colorinfo>
						<labels>
							<label2>Caribbean</label2>
						</labels>
					</clipitem>
					<clipitem id="clipitem-323" premiereChannelType="stereo">
						<masterclipid>masterclip-30</masterclipid>
						<name>250430-T003.WAV</name>
						<enabled>TRUE</enabled>
						<duration>76170</duration>
						<rate>
							<timebase>30</timebase>
							<ntsc>TRUE</ntsc>
						</rate>
						<start>39206</start>
						<end>39513</end>
						<in>58421</in>
						<out>58728</out>
						<pproTicksIn>495156953491200</pproTicksIn>
						<pproTicksOut>497758983321600</pproTicksOut>
						<file id="file-30"/>
						<sourcetrack>
							<mediatype>audio</mediatype>
							<trackindex>2</trackindex>
						</sourcetrack>
						<link>
							<linkclipref>clipitem-225</linkclipref>
							<mediatype>audio</mediatype>
							<trackindex>1</trackindex>
							<clipindex>94</clipindex>
							<groupindex>1</groupindex>
						</link>
						<link>
							<linkclipref>clipitem-323</linkclipref>
							<mediatype>audio</mediatype>
							<trackindex>2</trackindex>
							<clipindex>84</clipindex>
							<groupindex>1</groupindex>
						</link>
						<logginginfo>
							<description></description>
							<scene>250430</scene>
							<shottake></shottake>
							<lognote></lognote>
							<good></good>
							<originalvideofilename></originalvideofilename>
							<originalaudiofilename></originalaudiofilename>
						</logginginfo>
						<colorinfo>
							<lut></lut>
							<lut1></lut1>
							<asc_sop></asc_sop>
							<asc_sat></asc_sat>
							<lut2></lut2>
						</colorinfo>
					</clipitem>
					<clipitem id="clipitem-324" premiereChannelType="stereo">
						<masterclipid>masterclip-30</masterclipid>
						<name>250430-T003.WAV</name>
						<enabled>TRUE</enabled>
						<duration>76170</duration>
						<rate>
							<timebase>30</timebase>
							<ntsc>TRUE</ntsc>
						</rate>
						<start>39513</start>
						<end>39930</end>
						<in>58728</in>
						<out>59145</out>
						<pproTicksIn>497758983321600</pproTicksIn>
						<pproTicksOut>501293336544000</pproTicksOut>
						<file id="file-30"/>
						<sourcetrack>
							<mediatype>audio</mediatype>
							<trackindex>2</trackindex>
						</sourcetrack>
						<link>
							<linkclipref>clipitem-226</linkclipref>
							<mediatype>audio</mediatype>
							<trackindex>1</trackindex>
							<clipindex>95</clipindex>
							<groupindex>1</groupindex>
						</link>
						<link>
							<linkclipref>clipitem-324</linkclipref>
							<mediatype>audio</mediatype>
							<trackindex>2</trackindex>
							<clipindex>85</clipindex>
							<groupindex>1</groupindex>
						</link>
						<logginginfo>
							<description></description>
							<scene>250430</scene>
							<shottake></shottake>
							<lognote></lognote>
							<good></good>
							<originalvideofilename></originalvideofilename>
							<originalaudiofilename></originalaudiofilename>
						</logginginfo>
						<colorinfo>
							<lut></lut>
							<lut1></lut1>
							<asc_sop></asc_sop>
							<asc_sat></asc_sat>
							<lut2></lut2>
						</colorinfo>
					</clipitem>
					<clipitem id="clipitem-325" premiereChannelType="stereo">
						<masterclipid>masterclip-30</masterclipid>
						<name>250430-T003.WAV</name>
						<enabled>TRUE</enabled>
						<duration>76170</duration>
						<rate>
							<timebase>30</timebase>
							<ntsc>TRUE</ntsc>
						</rate>
						<start>39930</start>
						<end>40247</end>
						<in>59334</in>
						<out>59651</out>
						<pproTicksIn>502895237644800</pproTicksIn>
						<pproTicksOut>505582024147200</pproTicksOut>
						<file id="file-30"/>
						<sourcetrack>
							<mediatype>audio</mediatype>
							<trackindex>2</trackindex>
						</sourcetrack>
						<link>
							<linkclipref>clipitem-227</linkclipref>
							<mediatype>audio</mediatype>
							<trackindex>1</trackindex>
							<clipindex>96</clipindex>
							<groupindex>1</groupindex>
						</link>
						<link>
							<linkclipref>clipitem-325</linkclipref>
							<mediatype>audio</mediatype>
							<trackindex>2</trackindex>
							<clipindex>86</clipindex>
							<groupindex>1</groupindex>
						</link>
						<logginginfo>
							<description></description>
							<scene>250430</scene>
							<shottake></shottake>
							<lognote></lognote>
							<good></good>
							<originalvideofilename></originalvideofilename>
							<originalaudiofilename></originalaudiofilename>
						</logginginfo>
						<colorinfo>
							<lut></lut>
							<lut1></lut1>
							<asc_sop></asc_sop>
							<asc_sat></asc_sat>
							<lut2></lut2>
						</colorinfo>
					</clipitem>
					<clipitem id="clipitem-326" premiereChannelType="stereo">
						<masterclipid>masterclip-28</masterclipid>
						<name>250515-T014.WAV</name>
						<enabled>TRUE</enabled>
						<duration>84540</duration>
						<rate>
							<timebase>30</timebase>
							<ntsc>TRUE</ntsc>
						</rate>
						<start>40247</start>
						<end>40650</end>
						<in>32381</in>
						<out>32784</out>
						<pproTicksIn>274450579603200</pproTicksIn>
						<pproTicksOut>277866273484800</pproTicksOut>
						<file id="file-28"/>
						<sourcetrack>
							<mediatype>audio</mediatype>
							<trackindex>2</trackindex>
						</sourcetrack>
						<link>
							<linkclipref>clipitem-228</linkclipref>
							<mediatype>audio</mediatype>
							<trackindex>1</trackindex>
							<clipindex>97</clipindex>
							<groupindex>1</groupindex>
						</link>
						<link>
							<linkclipref>clipitem-326</linkclipref>
							<mediatype>audio</mediatype>
							<trackindex>2</trackindex>
							<clipindex>87</clipindex>
							<groupindex>1</groupindex>
						</link>
						<logginginfo>
							<description></description>
							<scene>250515</scene>
							<shottake></shottake>
							<lognote></lognote>
							<good></good>
							<originalvideofilename></originalvideofilename>
							<originalaudiofilename></originalaudiofilename>
						</logginginfo>
						<colorinfo>
							<lut></lut>
							<lut1></lut1>
							<asc_sop></asc_sop>
							<asc_sat></asc_sat>
							<lut2></lut2>
						</colorinfo>
						<labels>
							<label2>Caribbean</label2>
						</labels>
					</clipitem>
					<clipitem id="clipitem-327" premiereChannelType="stereo">
						<masterclipid>masterclip-31</masterclipid>
						<name>250502-T009.WAV</name>
						<enabled>TRUE</enabled>
						<duration>88020</duration>
						<rate>
							<timebase>30</timebase>
							<ntsc>TRUE</ntsc>
						</rate>
						<start>40650</start>
						<end>41483</end>
						<in>64701</in>
						<out>65534</out>
						<pproTicksIn>548384143507200</pproTicksIn>
						<pproTicksOut>555444374284800</pproTicksOut>
						<file id="file-31"/>
						<sourcetrack>
							<mediatype>audio</mediatype>
							<trackindex>2</trackindex>
						</sourcetrack>
						<filter>
							<effect>
								<name>Audio Levels</name>
								<effectid>audiolevels</effectid>
								<effectcategory>audiolevels</effectcategory>
								<effecttype>audiolevels</effecttype>
								<mediatype>audio</mediatype>
								<pproBypass>false</pproBypass>
								<parameter authoringApp="PremierePro">
									<parameterid>level</parameterid>
									<name>Level</name>
									<valuemin>0</valuemin>
									<valuemax>3.98109</valuemax>
									<value>1</value>
									<keyframe>
										<when>88019</when>
										<value>1</value>
									</keyframe>
								</parameter>
							</effect>
						</filter>
						<link>
							<linkclipref>clipitem-229</linkclipref>
							<mediatype>audio</mediatype>
							<trackindex>1</trackindex>
							<clipindex>98</clipindex>
							<groupindex>1</groupindex>
						</link>
						<link>
							<linkclipref>clipitem-327</linkclipref>
							<mediatype>audio</mediatype>
							<trackindex>2</trackindex>
							<clipindex>88</clipindex>
							<groupindex>1</groupindex>
						</link>
						<logginginfo>
							<description></description>
							<scene>250502</scene>
							<shottake></shottake>
							<lognote></lognote>
							<good></good>
							<originalvideofilename></originalvideofilename>
							<originalaudiofilename></originalaudiofilename>
						</logginginfo>
						<colorinfo>
							<lut></lut>
							<lut1></lut1>
							<asc_sop></asc_sop>
							<asc_sat></asc_sat>
							<lut2></lut2>
						</colorinfo>
					</clipitem>
					<clipitem id="clipitem-328" premiereChannelType="stereo">
						<masterclipid>masterclip-31</masterclipid>
						<name>250502-T009.WAV</name>
						<enabled>TRUE</enabled>
						<duration>88020</duration>
						<rate>
							<timebase>30</timebase>
							<ntsc>TRUE</ntsc>
						</rate>
						<start>41483</start>
						<end>41636</end>
						<in>65534</in>
						<out>65687</out>
						<pproTicksIn>555444374284800</pproTicksIn>
						<pproTicksOut>556741151366400</pproTicksOut>
						<file id="file-31"/>
						<sourcetrack>
							<mediatype>audio</mediatype>
							<trackindex>2</trackindex>
						</sourcetrack>
						<filter>
							<effect>
								<name>Audio Levels</name>
								<effectid>audiolevels</effectid>
								<effectcategory>audiolevels</effectcategory>
								<effecttype>audiolevels</effecttype>
								<mediatype>audio</mediatype>
								<pproBypass>false</pproBypass>
								<parameter authoringApp="PremierePro">
									<parameterid>level</parameterid>
									<name>Level</name>
									<valuemin>0</valuemin>
									<valuemax>3.98109</valuemax>
									<value>1</value>
									<keyframe>
										<when>88019</when>
										<value>1</value>
									</keyframe>
								</parameter>
							</effect>
						</filter>
						<link>
							<linkclipref>clipitem-230</linkclipref>
							<mediatype>audio</mediatype>
							<trackindex>1</trackindex>
							<clipindex>99</clipindex>
							<groupindex>1</groupindex>
						</link>
						<link>
							<linkclipref>clipitem-328</linkclipref>
							<mediatype>audio</mediatype>
							<trackindex>2</trackindex>
							<clipindex>89</clipindex>
							<groupindex>1</groupindex>
						</link>
						<logginginfo>
							<description></description>
							<scene>250502</scene>
							<shottake></shottake>
							<lognote></lognote>
							<good></good>
							<originalvideofilename></originalvideofilename>
							<originalaudiofilename></originalaudiofilename>
						</logginginfo>
						<colorinfo>
							<lut></lut>
							<lut1></lut1>
							<asc_sop></asc_sop>
							<asc_sat></asc_sat>
							<lut2></lut2>
						</colorinfo>
					</clipitem>
					<clipitem id="clipitem-329" premiereChannelType="stereo">
						<masterclipid>masterclip-37</masterclipid>
						<name>250411-T011.WAV</name>
						<enabled>TRUE</enabled>
						<duration>101310</duration>
						<rate>
							<timebase>30</timebase>
							<ntsc>TRUE</ntsc>
						</rate>
						<start>43266</start>
						<end>44009</end>
						<in>93431</in>
						<out>94174</out>
						<pproTicksIn>791890062163200</pproTicksIn>
						<pproTicksOut>798187482892800</pproTicksOut>
						<file id="file-37"/>
						<sourcetrack>
							<mediatype>audio</mediatype>
							<trackindex>2</trackindex>
						</sourcetrack>
						<link>
							<linkclipref>clipitem-232</linkclipref>
							<mediatype>audio</mediatype>
							<trackindex>1</trackindex>
							<clipindex>101</clipindex>
							<groupindex>1</groupindex>
						</link>
						<link>
							<linkclipref>clipitem-329</linkclipref>
							<mediatype>audio</mediatype>
							<trackindex>2</trackindex>
							<clipindex>90</clipindex>
							<groupindex>1</groupindex>
						</link>
						<logginginfo>
							<description></description>
							<scene>250411</scene>
							<shottake></shottake>
							<lognote></lognote>
							<good></good>
							<originalvideofilename></originalvideofilename>
							<originalaudiofilename></originalaudiofilename>
						</logginginfo>
						<colorinfo>
							<lut></lut>
							<lut1></lut1>
							<asc_sop></asc_sop>
							<asc_sat></asc_sat>
							<lut2></lut2>
						</colorinfo>
					</clipitem>
					<clipitem id="clipitem-330" premiereChannelType="stereo">
						<masterclipid>masterclip-38</masterclipid>
						<name>250404-T014.WAV</name>
						<enabled>TRUE</enabled>
						<duration>7860</duration>
						<rate>
							<timebase>30</timebase>
							<ntsc>TRUE</ntsc>
						</rate>
						<start>44009</start>
						<end>45307</end>
						<in>3982</in>
						<out>5280</out>
						<pproTicksIn>33750106790400</pproTicksIn>
						<pproTicksOut>44751522816000</pproTicksOut>
						<file id="file-38"/>
						<sourcetrack>
							<mediatype>audio</mediatype>
							<trackindex>2</trackindex>
						</sourcetrack>
						<link>
							<linkclipref>clipitem-233</linkclipref>
							<mediatype>audio</mediatype>
							<trackindex>1</trackindex>
							<clipindex>102</clipindex>
							<groupindex>1</groupindex>
						</link>
						<link>
							<linkclipref>clipitem-330</linkclipref>
							<mediatype>audio</mediatype>
							<trackindex>2</trackindex>
							<clipindex>91</clipindex>
							<groupindex>1</groupindex>
						</link>
						<logginginfo>
							<description></description>
							<scene>250404</scene>
							<shottake></shottake>
							<lognote></lognote>
							<good></good>
							<originalvideofilename></originalvideofilename>
							<originalaudiofilename></originalaudiofilename>
						</logginginfo>
						<colorinfo>
							<lut></lut>
							<lut1></lut1>
							<asc_sop></asc_sop>
							<asc_sat></asc_sat>
							<lut2></lut2>
						</colorinfo>
					</clipitem>
					<clipitem id="clipitem-331" premiereChannelType="stereo">
						<masterclipid>masterclip-31</masterclipid>
						<name>250502-T009.WAV</name>
						<enabled>TRUE</enabled>
						<duration>88020</duration>
						<rate>
							<timebase>30</timebase>
							<ntsc>TRUE</ntsc>
						</rate>
						<start>45307</start>
						<end>45501</end>
						<in>58140</in>
						<out>58334</out>
						<pproTicksIn>492775291008000</pproTicksIn>
						<pproTicksOut>494419570444800</pproTicksOut>
						<file id="file-31"/>
						<sourcetrack>
							<mediatype>audio</mediatype>
							<trackindex>2</trackindex>
						</sourcetrack>
						<filter>
							<effect>
								<name>Audio Levels</name>
								<effectid>audiolevels</effectid>
								<effectcategory>audiolevels</effectcategory>
								<effecttype>audiolevels</effecttype>
								<mediatype>audio</mediatype>
								<pproBypass>false</pproBypass>
								<parameter authoringApp="PremierePro">
									<parameterid>level</parameterid>
									<name>Level</name>
									<valuemin>0</valuemin>
									<valuemax>3.98109</valuemax>
									<value>1</value>
									<keyframe>
										<when>88019</when>
										<value>1</value>
									</keyframe>
								</parameter>
							</effect>
						</filter>
						<link>
							<linkclipref>clipitem-234</linkclipref>
							<mediatype>audio</mediatype>
							<trackindex>1</trackindex>
							<clipindex>103</clipindex>
							<groupindex>1</groupindex>
						</link>
						<link>
							<linkclipref>clipitem-331</linkclipref>
							<mediatype>audio</mediatype>
							<trackindex>2</trackindex>
							<clipindex>92</clipindex>
							<groupindex>1</groupindex>
						</link>
						<logginginfo>
							<description></description>
							<scene>250502</scene>
							<shottake></shottake>
							<lognote></lognote>
							<good></good>
							<originalvideofilename></originalvideofilename>
							<originalaudiofilename></originalaudiofilename>
						</logginginfo>
						<colorinfo>
							<lut></lut>
							<lut1></lut1>
							<asc_sop></asc_sop>
							<asc_sat></asc_sat>
							<lut2></lut2>
						</colorinfo>
					</clipitem>
					<clipitem id="clipitem-332" premiereChannelType="stereo">
						<masterclipid>masterclip-31</masterclipid>
						<name>250502-T009.WAV</name>
						<enabled>TRUE</enabled>
						<duration>88020</duration>
						<rate>
							<timebase>30</timebase>
							<ntsc>TRUE</ntsc>
						</rate>
						<start>45501</start>
						<end>46760</end>
						<in>59466</in>
						<out>60725</out>
						<pproTicksIn>504014025715200</pproTicksIn>
						<pproTicksOut>514684890720000</pproTicksOut>
						<file id="file-31"/>
						<sourcetrack>
							<mediatype>audio</mediatype>
							<trackindex>2</trackindex>
						</sourcetrack>
						<filter>
							<effect>
								<name>Audio Levels</name>
								<effectid>audiolevels</effectid>
								<effectcategory>audiolevels</effectcategory>
								<effecttype>audiolevels</effecttype>
								<mediatype>audio</mediatype>
								<pproBypass>false</pproBypass>
								<parameter authoringApp="PremierePro">
									<parameterid>level</parameterid>
									<name>Level</name>
									<valuemin>0</valuemin>
									<valuemax>3.98109</valuemax>
									<value>1</value>
									<keyframe>
										<when>88019</when>
										<value>1</value>
									</keyframe>
								</parameter>
							</effect>
						</filter>
						<link>
							<linkclipref>clipitem-235</linkclipref>
							<mediatype>audio</mediatype>
							<trackindex>1</trackindex>
							<clipindex>104</clipindex>
							<groupindex>1</groupindex>
						</link>
						<link>
							<linkclipref>clipitem-332</linkclipref>
							<mediatype>audio</mediatype>
							<trackindex>2</trackindex>
							<clipindex>93</clipindex>
							<groupindex>1</groupindex>
						</link>
						<logginginfo>
							<description></description>
							<scene>250502</scene>
							<shottake></shottake>
							<lognote></lognote>
							<good></good>
							<originalvideofilename></originalvideofilename>
							<originalaudiofilename></originalaudiofilename>
						</logginginfo>
						<colorinfo>
							<lut></lut>
							<lut1></lut1>
							<asc_sop></asc_sop>
							<asc_sat></asc_sat>
							<lut2></lut2>
						</colorinfo>
					</clipitem>
					<clipitem id="clipitem-333" premiereChannelType="stereo">
						<masterclipid>masterclip-31</masterclipid>
						<name>250502-T009.WAV</name>
						<enabled>TRUE</enabled>
						<duration>88020</duration>
						<rate>
							<timebase>30</timebase>
							<ntsc>TRUE</ntsc>
						</rate>
						<start>46760</start>
						<end>46984</end>
						<in>61640</in>
						<out>61864</out>
						<pproTicksIn>522440126208000</pproTicksIn>
						<pproTicksOut>524338675660800</pproTicksOut>
						<file id="file-31"/>
						<sourcetrack>
							<mediatype>audio</mediatype>
							<trackindex>2</trackindex>
						</sourcetrack>
						<filter>
							<effect>
								<name>Audio Levels</name>
								<effectid>audiolevels</effectid>
								<effectcategory>audiolevels</effectcategory>
								<effecttype>audiolevels</effecttype>
								<mediatype>audio</mediatype>
								<pproBypass>false</pproBypass>
								<parameter authoringApp="PremierePro">
									<parameterid>level</parameterid>
									<name>Level</name>
									<valuemin>0</valuemin>
									<valuemax>3.98109</valuemax>
									<value>1</value>
									<keyframe>
										<when>88019</when>
										<value>1</value>
									</keyframe>
								</parameter>
							</effect>
						</filter>
						<link>
							<linkclipref>clipitem-236</linkclipref>
							<mediatype>audio</mediatype>
							<trackindex>1</trackindex>
							<clipindex>105</clipindex>
							<groupindex>1</groupindex>
						</link>
						<link>
							<linkclipref>clipitem-333</linkclipref>
							<mediatype>audio</mediatype>
							<trackindex>2</trackindex>
							<clipindex>94</clipindex>
							<groupindex>1</groupindex>
						</link>
						<logginginfo>
							<description></description>
							<scene>250502</scene>
							<shottake></shottake>
							<lognote></lognote>
							<good></good>
							<originalvideofilename></originalvideofilename>
							<originalaudiofilename></originalaudiofilename>
						</logginginfo>
						<colorinfo>
							<lut></lut>
							<lut1></lut1>
							<asc_sop></asc_sop>
							<asc_sat></asc_sat>
							<lut2></lut2>
						</colorinfo>
					</clipitem>
					<clipitem id="clipitem-334" premiereChannelType="stereo">
						<masterclipid>masterclip-31</masterclipid>
						<name>250502-T009.WAV</name>
						<enabled>TRUE</enabled>
						<duration>88020</duration>
						<rate>
							<timebase>30</timebase>
							<ntsc>TRUE</ntsc>
						</rate>
						<start>46984</start>
						<end>47471</end>
						<in>60759</in>
						<out>61246</out>
						<pproTicksIn>514973063404800</pproTicksIn>
						<pproTicksOut>519100713331200</pproTicksOut>
						<file id="file-31"/>
						<sourcetrack>
							<mediatype>audio</mediatype>
							<trackindex>2</trackindex>
						</sourcetrack>
						<filter>
							<effect>
								<name>Audio Levels</name>
								<effectid>audiolevels</effectid>
								<effectcategory>audiolevels</effectcategory>
								<effecttype>audiolevels</effecttype>
								<mediatype>audio</mediatype>
								<pproBypass>false</pproBypass>
								<parameter authoringApp="PremierePro">
									<parameterid>level</parameterid>
									<name>Level</name>
									<valuemin>0</valuemin>
									<valuemax>3.98109</valuemax>
									<value>1</value>
									<keyframe>
										<when>88019</when>
										<value>1</value>
									</keyframe>
								</parameter>
							</effect>
						</filter>
						<link>
							<linkclipref>clipitem-237</linkclipref>
							<mediatype>audio</mediatype>
							<trackindex>1</trackindex>
							<clipindex>106</clipindex>
							<groupindex>1</groupindex>
						</link>
						<link>
							<linkclipref>clipitem-334</linkclipref>
							<mediatype>audio</mediatype>
							<trackindex>2</trackindex>
							<clipindex>95</clipindex>
							<groupindex>1</groupindex>
						</link>
						<logginginfo>
							<description></description>
							<scene>250502</scene>
							<shottake></shottake>
							<lognote></lognote>
							<good></good>
							<originalvideofilename></originalvideofilename>
							<originalaudiofilename></originalaudiofilename>
						</logginginfo>
						<colorinfo>
							<lut></lut>
							<lut1></lut1>
							<asc_sop></asc_sop>
							<asc_sat></asc_sat>
							<lut2></lut2>
						</colorinfo>
					</clipitem>
					<clipitem id="clipitem-335" premiereChannelType="stereo">
						<masterclipid>masterclip-31</masterclipid>
						<name>250502-T009.WAV</name>
						<enabled>TRUE</enabled>
						<duration>88020</duration>
						<rate>
							<timebase>30</timebase>
							<ntsc>TRUE</ntsc>
						</rate>
						<start>47471</start>
						<end>47606</end>
						<in>58961</in>
						<out>59096</out>
						<pproTicksIn>499733813779200</pproTicksIn>
						<pproTicksOut>500878028851200</pproTicksOut>
						<file id="file-31"/>
						<sourcetrack>
							<mediatype>audio</mediatype>
							<trackindex>2</trackindex>
						</sourcetrack>
						<filter>
							<effect>
								<name>Audio Levels</name>
								<effectid>audiolevels</effectid>
								<effectcategory>audiolevels</effectcategory>
								<effecttype>audiolevels</effecttype>
								<mediatype>audio</mediatype>
								<pproBypass>false</pproBypass>
								<parameter authoringApp="PremierePro">
									<parameterid>level</parameterid>
									<name>Level</name>
									<valuemin>0</valuemin>
									<valuemax>3.98109</valuemax>
									<value>1</value>
									<keyframe>
										<when>88019</when>
										<value>1</value>
									</keyframe>
								</parameter>
							</effect>
						</filter>
						<link>
							<linkclipref>clipitem-238</linkclipref>
							<mediatype>audio</mediatype>
							<trackindex>1</trackindex>
							<clipindex>107</clipindex>
							<groupindex>1</groupindex>
						</link>
						<link>
							<linkclipref>clipitem-335</linkclipref>
							<mediatype>audio</mediatype>
							<trackindex>2</trackindex>
							<clipindex>96</clipindex>
							<groupindex>1</groupindex>
						</link>
						<logginginfo>
							<description></description>
							<scene>250502</scene>
							<shottake></shottake>
							<lognote></lognote>
							<good></good>
							<originalvideofilename></originalvideofilename>
							<originalaudiofilename></originalaudiofilename>
						</logginginfo>
						<colorinfo>
							<lut></lut>
							<lut1></lut1>
							<asc_sop></asc_sop>
							<asc_sat></asc_sat>
							<lut2></lut2>
						</colorinfo>
					</clipitem>
					<clipitem id="clipitem-336" premiereChannelType="stereo">
						<masterclipid>masterclip-7</masterclipid>
						<name>2025-03-20 08-52-56 .mov</name>
						<enabled>TRUE</enabled>
						<duration>31991</duration>
						<rate>
							<timebase>30</timebase>
							<ntsc>TRUE</ntsc>
						</rate>
						<start>47606</start>
						<end>52701</end>
						<in>9988</in>
						<out>15083</out>
						<pproTicksIn>84654963993600</pproTicksIn>
						<pproTicksOut>127838488377600</pproTicksOut>
						<file id="file-7"/>
						<sourcetrack>
							<mediatype>audio</mediatype>
							<trackindex>2</trackindex>
						</sourcetrack>
							<marker>
								<comment>Historico Hidreletricas&#13;Florestas&#13;Povos originarios indigenas&#13;Vazao dos rios</comment>
								<name>Aguas</name>
								<in>22190</in>
								<out>-1</out>
							</marker>
							<marker>
								<comment>Aquecimento global&#13;Emissao de gases&#13;Desmatamento&#13;Energia&#13;Acordos internacionais</comment>
								<name>Futuro</name>
								<in>9988</in>
								<out>-1</out>
							</marker>
							<marker>
								<comment>Custo e subsidio&#13;Politicas publicas&#13;Desmatamento florestas&#13;Agro Agricultura&#13;Transiçao energetica</comment>
								<name>Mineraçao de carvao</name>
								<in>16086</in>
								<out>-1</out>
							</marker>
							<marker>
								<comment>Hidreletricas energia&#13;Rio Tapajos&#13;Barragens</comment>
								<name>Aguas</name>
								<in>29660</in>
								<out>-1</out>
							</marker>
							<marker>
								<comment>Transiçao energetica&#13;Exemplo EUA e China&#13;Explica produçao de gas natural&#13;Aumento do consumo de energia&#13;EUA indo no sentido contrario</comment>
								<name>Energia</name>
								<in>815</in>
								<out>-1</out>
							</marker>
						<link>
							<linkclipref>clipitem-108</linkclipref>
							<mediatype>video</mediatype>
							<trackindex>1</trackindex>
							<clipindex>108</clipindex>
						</link>
						<link>
							<linkclipref>clipitem-239</linkclipref>
							<mediatype>audio</mediatype>
							<trackindex>1</trackindex>
							<clipindex>108</clipindex>
							<groupindex>1</groupindex>
						</link>
						<link>
							<linkclipref>clipitem-336</linkclipref>
							<mediatype>audio</mediatype>
							<trackindex>2</trackindex>
							<clipindex>97</clipindex>
							<groupindex>1</groupindex>
						</link>
						<logginginfo>
							<description></description>
							<scene></scene>
							<shottake></shottake>
							<lognote></lognote>
							<good></good>
							<originalvideofilename></originalvideofilename>
							<originalaudiofilename></originalaudiofilename>
						</logginginfo>
						<colorinfo>
							<lut></lut>
							<lut1></lut1>
							<asc_sop></asc_sop>
							<asc_sat></asc_sat>
							<lut2></lut2>
						</colorinfo>
					</clipitem>
					<enabled>TRUE</enabled>
					<locked>FALSE</locked>
					<outputchannelindex>2</outputchannelindex>
				</track>
			</audio>
		</media>
		<timecode>
			<rate>
				<timebase>30</timebase>
				<ntsc>TRUE</ntsc>
			</rate>
			<string>00:00:00:00</string>
			<frame>0</frame>
			<displayformat>NDF</displayformat>
		</timecode>
		<labels>
			<label2>Forest</label2>
		</labels>
		<logginginfo>
			<description></description>
			<scene></scene>
			<shottake></shottake>
			<lognote></lognote>
			<good></good>
			<originalvideofilename></originalvideofilename>
			<originalaudiofilename></originalaudiofilename>
		</logginginfo>
	</sequence>
</xmeml>
